<svg xmlns="http://www.w3.org/2000/svg" xmlns:xlink="http://www.w3.org/1999/xlink" viewBox="0 0 1200 800"><style>path:hover { transition-duration: .65s; }</style><a xlink:href="southcentral.html"><path id="SPEER" fill="#288585" d="M627.2 549.8c.5.2.9.5.8.8-.1.8 1.4 1.6 2.1 1.5 1.5-.4 1.1-.5 2.4.2.1.1.9-.6 1.1-.6l1 .5c.8.1.8.4 2 .6v42.2c1.2.4 1.9 1.6 2.6 2.5 1 1.1 1.2 2.1 1.8 3.5.4 1.1-.1 2.8.1 3.9.2 1.5 1.4 2.9 2.1 4.2.5.9 1 1.5 1.2 2.6.1.8-.5 1.2.1 1.9.8.8 1.2 1.4 1.6 2.4.6 1.5-.4 2.5.9 3.6 1.1 1.1-1.1.8-.6 2 .1.2.8 1.5.5 1.6-.4.2-.9.6-.9 1.1 0 1.2 0 3-.6 4.1-.2.5-.1 1.9-.8 2.2-.5.2-.9.9-1.2 1.4-.6.9-.8 1.9-.4 3 .2.8.8.8.4 1.5-.2.5-.8.9-1 1.5-.4 1 .2 2.6.5 3.8.5 1.6.6 2.1 0 3.6-.4.9-1 2.2-.6 3.2l-.1.2c-1.2.4-4 2.9-4.2 4.2-.2 1.1.6 2.2 1.1 3.1.2.2 1.5 1.4.8 1.5-1 .2-1.8-.2-2.6-.4-1.1-.1-2.6.8-3.5 1.4-1.1.8-2.4 1.1-3.6 1.8-.2.1-2.5 1.8-2.5.9 0-.8-.8-.2-1.1-1.1-.1-.5-1.9.1-2.1.2-1.8.4-3.9.8-2.4-1.6.8-1.1.8-2.5.6-3.8s-1.5-.6-2.2-.5c-1.6.2-1.1 3.8-2.4 3.4-.8-.2-4.2-2.5-3 0 .6 1.2 1.2 1.1.4 2-.8.9.4 1.8 1 2.2.9.8 1 1.2 1.1 2.4.1 1 1 2 .6 3-.2.8-2.9 3.1-3.8 3-1.2-.4-1.8-.9-1.4.9.2.9-.1 1.8-.5 2.6-.9 2-1.4 2.8-3.4 3.8-1.1.6-2.4 1.2-3.4 2.2-.8.8-1.5 2-2.6 2.4l-3.6.8c-1.5.5-2.9 1.4-4.2 2.1-.9.5-1.6 1-2.6.9-.8-.1-2.2-.9-1.4-1.8.8-.9 0-.9-.6-.4-.5.4-1.5 1.6-1.5.2 0-.9-3.5-3.9-3.2-1.5.1 1.1.8 4.2-.9 1.8-1-1.6-1.5-1.5-3.1-.8-.6.4.1 1.4.2 1.8.4.6 1 1.4 1.6 1.8 1.1.9-.8 1.4-.4 1.9.5.6 4.9 2.5 2.6 3.1-.9.2-4.1 1.2-4.8.8-.5-.5-1.1-3.1-1.6-2.9-.6.2-2.2 1.4-2 2.1.2.9 1.2 1.2 1.9 1.8.5.4-.4 1.8-.5 2.1-1.6 3-1.4-1.1-3-.1-.8.5-1.2 1.2-2 1.8-.9.6-2.1 1-3.1 1.2-1.9.6 1.1 3.4 1.5 3.9.9 1 1 1.8 0 2.8-.2.2-1 1.6-1.4 1.6-1-.1-1.5-1.4-2.8-1.4-1 0-2 .2-3 .5-.2.1-1.9.5-1.2 1 .6.6 1.9 1.2 2.8 1.6 2.5 1.1 3.4 2.5 1.8 4.8-.5.8-.5 1.1-1.5 1.4-1.4.4-1.6 1-.9 2.1.4.5.9 1.1.9 1.9 0 .4-.4.5-.6.2-.9-.8-1-1.1-2.2-.5-.6.4-1.4 1.8-2.1 1-.2-.2-1.9-2.2-2.1-2.1-.5.2 1.5 3.2.9 3.9-.8.8-2.2 2.4 0 1.2.9-.4 1.5-.1 2.1.6.5.5 1.6 0 2.2-.1 1.6-.4.6 1.8.4 2.6l-.6 2c-.4 1-.9.9-1.6 1.5-.5.5.2 1.8.5 2.2.6 1.1-.6.9-.4 1.9.2 1 1.2 1.5 1.6 2.4l1 2.8c.8 2.4.4 3.8-.1 6.2-.2 1.1.8 1.5 1.4 2.1.6.6.8 1.9 1 2.6.2 1 .1 2.4.6 3.4.5 1.1 1.5 1.9 1.8 3.1.4 2.4-1 2.8-2.8 3.6-2.9 1.5-3.1-.2-5-2-1.5-1.4-3.4-2.6-5.4-2.2-2.6.4-4.9 0-7.4-.9-1.1-.4-2.4-.9-3.2-1.8l-2.4-1.6c-1.6-1.5-3.6.5-4.9-2.2-.9-2-4.2-1.8-6.1-2-1.4-.1-1.6-1.2-1.9-2.4-.2-1.2-1.4-2.4-1.2-3.8.1-2.1-.9-5.9-2.5-7.4-.9-.8-1.6-1.5-2.2-2.5l-.4-1.9c-1.4-2 .1-3.6-.5-5.8-.2-.9-.9-1.2-1.4-2-.2-.5.5-1.2.5-1.9.1-1.8-.4-3.6-.6-5.4-.1-1-2.5-2.1-3.1-2.6-.9-.6-3.2-1.6-3.4-2.9-.2-1.4-.6-2-1.2-3.2-.2-.6-.1-1.5-.4-2-.1-.2-.6 0-.9-.1-1.9-.8-1.2-4.2-3.1-5.1-2-1-3.6-2-3.9-4.5-.1-.9-.8-1.5-.9-2.5-.1-.8-.4-1.4-.6-2-.6-1.6-1.4-3.1-2-4.8-.8-1.5-1.4-3.2-2.4-4.8-1-1.4-.9-3-1.2-4.6-.2-1.2-.6-2.6-1.4-3.6-.5-.6-1.2-1-1.6-1.8-.9-1.8-2.2-2.9-3.9-3.8-1.6-.8-.6-2-1.4-3.1-.4-.6-1.8-.1-2-.8-.2-.5-1.6-.6-1.4-1.4.1-.8-.2-1.5-.5-2.1-.8.2-2.1.9-2.5-.1-.4-.9-.4-1.9-.8-2.6l-1-1.4c-.6-1.1-3.5.4-4.5.1-1.1-.2-3-.8-4.1-.4-1 .4-1.6 0-2.4-.5-.6-.4-1.4 0-2 .2-1 .2-1.9-.1-2.6-.8-.4-.2-1.1-1.5-1.6-1.4-1.5.4-1.2 2.8-2.4 3.4-.5.2-1-.6-1.5-.8-.6-.4-.9 1-1.2 1-.2 0-.4-.5-.9-.5-.2.1-.6.2-.9.4-.8.4-1.2.1-1.6 1-.8 1.4-1 2.9-1.8 4.1-.5.9-1.1 1.5-1 2.5.1.6.1 1.2-.1 1.9-.4.9-1.1 1.9-1.4 2.8-.2.8 0 1.9-.5 2.5-.2.4-1 .6-1.2.9l-1.5 2c-.4.4-.9.5-1.1 1.1-.8 1.8-.8 2.2-2.6 2.1-.9-.1-1.4.1-1.9-.6-.2-.5-1-.6-1.4-.2-1.6-1.1-2.1-2.9-4.2-3.4-1.2-.4-2.5-1.2-3.6-2 0-.9.2-1.6-.9-1.4-.9.2-2-.2-2.9-.6-1.8-1.2-3.5-2.6-5.2-3.9-.9-.8-.5-2-1.9-2.4-.9-.1-1.4-.1-2-.8-.8-.6-1.6-1.4-2.2-2.2-.4-.6-1.5-2.1-1.5-2.9 0-.5.1-1.4-.4-1.6-.4-.1-.8-.1-1-.6-.2-.6-.1-1.2-.4-2-.6-1.6-1.2-3-1.1-4.8.1-1.5.5-3.8-.4-5.1-.9-1.3-2-2.6-2.8-4.1-.6-1.1-1.1-1.8-.5-2.8.2-.5-1.1-2.1-1.5-2.4-1-.5-1.5-1-1.5-2.2 0-.9-1.2-1.2-1.9-1.6-1-.8-1.5-1.6-2.8-1.8-.9-.1-1.1 0-1.8-.8-.9-.9-1.8-1.9-2.8-2.6-.8-.6-1.6-1.1-2.2-1.9-.8-.6 0-2.4-.9-2.6-1.2-.5-2.4-1.9-3.4-2.8-.8-.8-1-1.5-1.6-2.2-.6-.9-1.6-1.6-2.4-2.2-1-.8-.8-1.1-2.1-1.2-1.5-.1-2.5-1.1-3.2-2.2-.6-1-1.6-2.2-1.8-3.4 0-.5-.4-.5-.5-1-.1-.6 0-1.1-.4-1.8-.6-1-3.1-1.6-4.2-1.8-.4-.8-.6-1-.8-1.9-.1-.6-.6 0-.6-.8 0-1-.9-2.6-.6-3.4l74.4.2 1.1-134.4 174.1 1.4s-.6 8.5-.2 12.6c.2 4.1 3.1 22.1 3.3 25.3.2 3.4.8 31.9 0 39.5-1.5 8.3-1.2 11.3-1.2 11.3z"><set attributeName="fill" to="#fce149" begin="mouseover" end="mouseout"/></path></a><a xlink:href="northeast.html"><path id="NEEP" fill="#288585" d="M1169.3 263.6c-.1 0 .3-1.4 0 0zm3.6-2.1c-1.9-1-3.1-.1-3.5 2.1.4.1 0 2.4-.2 2.8-.1.2-1.8 1.2-1.1 1.6.1.1.4-.2.6 0l1.4.8c.9.2.1-1.1 0-1.4-.2-1.1.8-1.5 1.4-2.1.5-.6-1.2-.6-.6-1.4.6-.8 4.3-1.1 2-2.4zm27.2-11.3c-.1-.9-1.1-.4-1.2.2.2.6 1.3.8 1.2-.2zm-3.6 1.4c-.9.6-1.2 1.5-2.2 1.9-.1 0-2.6.8-2.2.2 1-1.2 0-.8-1-.9-.8-.1-1.4-.2-1.8.6-.8 1.6-1.2.2-2.5 1.1s-.5.4-.5 1.2c0 .2-.4 1.4-.8 1.1-.6-.2-.2-1.6-1.4-.8-.8.8-.8-.2-1.2-1-.4-.8-2.9 1.1-2.9 1.9.1 2.4-2-.8-3.2 1-.5.8.9 1.9.1 2.6-.5.5-.6.1-.6-.2-.1-.8 0-1.5 0-2.2 0-.7-.9-.4-1.1-.8-.1-.4-2.9-.4-3.2-.2-1.1.4-.5 1.1-.8 2-.1.4-1.2 1.4-1.5.8-.6-1.4.6-2.6-1.6-2.5-.1.9-.1 2.4-1.1 2.8-1.9.8-1.1.6-1.2 2.2-.1.6 1.2 2.9.2 3.2-.5.1-2.1-.6-1.5-.8 1.9-.6.2-1.1-.6-1.5-.5-.1-1.4-.1-1.5-.9 0-.4 0-1.4.4-1.6.6-.5 1.4-1.1.4-1.8-.4-.2-.1-.6-.6-.1-.1.1-1.4 1.2-1.4 1.1-.1-.2 1.5-2.5 1.6-2.8.9-1.8.1-1.1-1.1-1.6-.5-.2-.6 1.6-1.1 2-.9.8-2.1 1.1-2.9 2-.6.8.6 1.6.9 2.2.4.8-1 2-1.4 2.6-.6.9-2 2.2-1.8 3.4.2 1.2.8 1.8-.6 2.4-1 .5-2.1.8-3.2 1.1-1.9.6-.6-1-1-1.9-.6-1.4-3.4 3.4-3.5 3.6-.6 1.4-1.1.8-1.2-.4-.1-.6 1.8-1.6.2-2-1.2-.4-1.1 2-1.6 1.6-1-.9.5-1.8.1-2.5-.1-.1-3.2 4-3.2 4s-.6-2.5-.6-2.9c0-.2.4-1.2.5-1.2-1.2 0-2 1.4-2.1 2.5-.1 1.1.2 1.1 1.1 1.5.6.2-.6 1.5-.9 1.8-.9.9-.8-.1-1.8 0-1.5.1-3.9 1.1-4.6 2.5-.5.8-2.5 3.5-.2 3.2-.8.8-4.2 3.2-4.1 4.2.1.9.9 1.4-.1 2.1-.4.2-1.8 2-1.9 1.9-1.5-1.8-1.4 2.2-1.4 3.1-.1 1.9-2.4 3.4-3.5 4.8-1 1.2-2.5 4.1-2.2 5.8.3 1.7 1 3.8 2.4 4.8.6.5 1 1 1 2-.1.9-1.5.8-2 .9-1.9.2-1.6 1.6-2.9 2.6-.4.2-.6 1.8-1 2.2-.6 1.1-.6 1-1.8 1.4.1 0 2.2 3.6 2.8 1.8 0-.2 0-.4-.2-.5-.1-.2.4-.2.4-.5l2.2 1.1c.4.2 1.4 1 1.4 1.5 0 1.2.2 1.2.8 2.1.4.6.5 1.5.9 2 .6.9-.5.9-.6 1.5 0 .2 1.8.5 2 1l.9 3.1c1.5 2.9 3.1 3 6 2.9 2.6-.2 4.9-.4 5-3.4 0-.6-1.8-2.1-2.2-2.8-.2-.4-.6-1.1-1.1-1.4s-.9.5-1.2.2-.9-2-.1-2c1 0 2.1-1 2.8.2.8 1.6 2 2.8 2.9 4.2.6 1.1 1.2 3.4 1.1 4.8 0 1.1-1.1 1.5-1.9 2.2-.8.7-2.4.2-3.4.2l-3 .6c-.9-1.1-1.2-1.1-2.2-.1-1.1 1.1-2.1 1.9-3.8 2.2-1.5.4-2.4 1.4-3.8 2-.5.2-2.9 2.1-3 1.2 2.2-1.2 4.2-1.8 4.9-4.4.2-.8 1.5-3.1.4-3.6-1-.5-1.2.1-1.9 1-.9 1.2-2.6 2.2-3.9 3.2-.4.2-.8.5-1.1.8-.8.4-.5-.5-1-.6-.2 0-.6.2-.8.5-.2.2-1 .1-1.4.1-.2 0-1.5-.4-1.6-.1-.2.6-1 1.1-1.6.9-.2-.1-1-1.4-1.1-1.1l-.6 2.2c-1.1 2-2.5 2.5-4.5 3-1.8.5-3.2 1.4-5.2 1.2-1.1 0-2.4-.2-3.5-.1-2.1.4-3 1.6-5.1.4-1.5-.9-3-.5-4.6-.1-1.9.4-4 .6-5.9.5-1.5-.1-3.8.9-5.1 1.5-1.2.5-2.2 1.2-3.6 1.6-1.9.6-3.2 1.5-4.6 2.9-1.4 1.4-2.5 1.4-4.2 1.6-.6.1-5.2 6-5.2 5.9.1.2 2.6-.6 2.9-.9 1.2-.6 1.6-1.6 3.1-2l4.4-1.2c.6.2 1.2.6 1.9.6 1 0 1.2-.9 2.1-1 1.5-.2 3.5-.1 5-.1 2.5 0 4.5.4 7-.1 1.5-.2 1.9-3.4 3.6-2.6-.2.9-1.5 1.9-1.5 2.8 0 .1.9-.5 1-.5 1 .6 1 .6 1-.6 0-1 .2-2 .9-2.6.2-.2 1.2-1.5 1.8-1.2.4.1.9-.4 1.1-.4.2 0-1.1 1.8-1.2 1.9-.6.6-.8.8-.5 1.6.5 1.5 2.2-.5 3.5-.4 1.1.1-.2 1 .5.9.5 0 1.5-.1 1.9-.4.5-.4.8-1.1 1.5-1.4.2 0 1.8-.1 1.8.1 0 .6-4.8 2.1-5.2 2.4-1.9.6-3.9 1.9-5.4 3.1-1.1.9-1.6-.8-2.4-.2-.6.5-1 1.4-1.8 1.6-2.5.9-5.6 1.1-8.1 1.4-3.1.4-5.6 1.4-8.6 2.4-2.1.8-4.8 1.6-7.1 1.5-.5 0-2.1-.6-2.5-.1-.8.8-1.5 1.4-2.5.4-.9-1-2 0-2.6.8-.8 1-1.5 1.1-2.4 2-2 2.2 1.9 2 3.2 2.1 2.1.1 1.5 2.9 1.4 4.4 0 1.4-.6 2.8-1 4-.4 1-.5 2.4-1.1 3.2-1.1 1.5-1.2 4.1-1.5 5.9s-.9 3.1-1.6 4.8-1.8 1.6-3.1 2.6c-.9.6-.4 1.4-.5 2.2-.1 1-1.2 1.4-2 1.8-.8.4-1.5 1-2.1 1.4-1 .8.2 1.2-.1 2.1-.6 1.6-2 3.2-3.1 4.8-.5.6-2.6 5.1-3.5 3.8-.6-1-.2-1.8.2-2.8.5-1.2.4-2.2.5-3.6.1-.9-2.2-.9-2.9-.9-.8-.1-1.6-.4-2.5-.2-.8.1-1.4-1.5-1.8-2-1.1-1.4-3-2-4.1-3.5-.2-.4-.2-.6-.8-1.1-.5-.4-1-1.6-1.4-2-.1-.1-.9 1-.9 1.1.1.5.5 1 .9 1.4.9 1.2 1.8 2.5 2.8 3.5.8.9.5 3.2.5 4.4 0 1.8 1 2.5 1.5 4.1.5 1.8 1.4 4 3 4.9.5.2 2.5 1.1 1.5 2-.5.4-.6 1-.8 1.6-.1.4-.6 2.1-.2 2.4.5.2 1-.5 1.4-.5 1.2 0-.5 3.4-.8 3.9v.2c.1 1 .2 2 .1 2.9-.1 1.1-1 1.1-1.5 2.1-1.4 2.4-3.6 4.2-4.6 6.8-1.2.2-2.5.4-3.8.6-1.1.2-2.2-.1-3.5 0-3 .2-.8-2.5-.4-3.8.4-1.1-3.8-1-3.5-2.1 0 0 2.4-.6 1.5-1-.5-.2-.8-1.1-1.4-1-.1 0-.6.2-.6.2-.4-.4.5-.5.6-.5.4 0 .2-.6.4-.8.2-.4 1.2-2.1 1.4-2.1-.5.2-.9 1.1-1.2 1.5-.8.9-1-.9-1.1-1-.1-.2-1.8 2.8-1.9 3.1 0-.1-2.8-1-2.4-1.4 1.1-.9-1.1-1.5-1.6-1.8-1.2-.5-.4-2.8.4-3.2 1-.6 1.2-1.5 1.8-2.5 1.4-2.8 3.1 3.1 3.6-1 .1-1.2-.5-.9-1.2-.4-.9.5-1.9.2-1.2-1-.9-.5-3.2-2.1-1.4-2.8.9-.2 2.6-1.1.6-1-2.6.1.6-1.1.8-1.6-.1.8-2.8-2.1-2.5-2-.1 0-.2.5-.2.5-.6 0-1.9-.2-1.9-1.1 0-.8 1.4.1 1.8 0 .1 0 1.1-.6 1.2-.8l-.2-1.1c.2-.5 1.9-2 .5-2-1.2 0-2 .1-2-1.5 0-.9.6-1.9 1.1-2.6.4-.8.9-1.5 1.2-2.2l3-.5c0-.6-1.4-.6-.4-1.4.9-.6 1.6-1.2 2.4-1.9s.8-1-.1-1.5c-.8-.4-1-1.5-1.9-1-2.1 1-2 1.6-1.6 3.6.1.5-1.9 1-2.1 1.1-.2.1-.6.6-.9.1 0-.2-.1-.5-.4-.6-.5.2-.4 2.6-1.4 1.6 0 0-2-1.6-1.9-1 0 .5 1.2 1 .6 1.6-.4.2-.9.5-1.4.6-.9.2.8 3.4-1.2 2.2-1.2-.8-1.4-.9-2.5 0-.4.2.4.8.6.9.8.5 2.1.8 2.2 1.8.1.6 1.4 2.6 1 2.9-.6.6-1.1.1-1.6 1.2-.6 1.8.6 4-.4 5.4-.6.9-.1 1.2.1 2.1.2 1.1-.1 2.2-.1 3.5 0 1.6 1.6 3.1 2.6 4.4 1.9 2.5-.6 2.4-2.1 1.1l-1.4-1.6c-.2-.4-1.1-1.2-1.1-1.6-.2-1.1-.6-1.8-.5-2.9.1-1 .2-1.9-.8-2.2-.9-.2 0 2.9-.1 3.5-.2 2.8 1.4 4.5 3.4 6.1.8.5 1.5.4 2.2.8 1 .4.2 1.9.9 2.6.6.9 1 1.4 1.4 2.5.2 1.1-1.4 1.5-1.9.6-.5-.6.9-2.1-.1-2.5-.9-.4-.9-.2-1.5.4-.6.6-1.9-.5-2.2-1.1-.2-.6-1.6-.5-2.1-.5-.9 0-1.8 0-2.1-1-.1-.5.1-3.2-.2-3.4-.2 0-2.2.6-2.2.8s.9 1.8.4 1.8c-1.9.2-2.8-5-3.1-4.8-.5.2-.4 1.5-1.2 1.2-.2 0-1-.9-1.1-.5-.4.9.8 2.6-1.4 2.4-.8-.1 0-1.5-1-1.6-.6-.1-.8-.4-.6-1 .2-1.5 1.8-2.2 2.6-3.5.5-.8.9-1.6 1.4-2.2.4-.4 1.2-.6 1.2-1.4 0-1.9.9-2.5 2-3.9.9-1.1-.8-1.8-1.5-2.4-1.2-1-.9-.5-2 .2-.6-.2-1.5-.1-2-.4-.5-.4-1.4-.7-1.9-1.2-1.2-1.4-4.5-.1-4.9-2.4-.2-1.9 1.6-2.6-.4-4.1-1.2-.9-2.6-1.2-4.3-1.2-.4-1.5-.5-2.6-1.4-4-.8-1.1-1-1.9-1.2-3.2-.2-.8-2.1 0-2.8-.5-.9-.6-1.6-1.2-2.5-1.9-1.2-.9-1.6-.4-2 .8-.4 1.2-1.6.6-2.6.2-.8-.2-1.9.9-2.2 1.2-.2.2 1.2 1.2-.4 1.6-1.1.1-2.2.2-3.4.1-.9 0-1.9-1.1-2.6-1.6-1.4-.9-2.9 4.5-5 3.5-2-.9-1.6.1-3 1.2-.6.5-2 1.1-2.5 1.8-.6.6-.1 1.1-1.2 1.1-.5 0-.6.2-1 .6-.6.6-2.6 1.6-3.5 1.5l.5-12.2.4-1.5c-7 0-10.8-.4-17-.4l-4.6-.1c0-20.4-.4-40.3-.4-60.5 3-1.5 7.7-3.2 9.7-5.9 0 0 5.1-1.5 7.4-2.4 2.2-1 4.4-2.8 6.4-4.2 1.6-1.1 3.5-3.4 5.5-3.8 2.5-.4 4.1-3.1 5.7-4.9.8-.9 1.2-1.5 1.2-2.8 0-1.4-1-2.6-1-3.9 0-.5.6-1.8.1-2-.6-.4-1.2-.5-1.9-.8-1.2-.5-1-2.8-.9-3.8 0-.5-.2-1.8.5-1.9.4-.1.8.1 1.1 0l1.5-.4c4-.9 7.9-1.8 11.9-2.6l3 1c.6-.1 1-.6 1.5-.9.6-.2 1.6.2 2.2.4 1.8.5 3.4.5 5 1.4 2.5 1.1 3.4 3.2 6.2 1.8 1-.5 2.6-.4 3.8-.5 1.8-.1 3.1-.2 4.9.1 1.9.4 2.1-.1 3.9-.6 2.4-.8 4-1.2 5.9-3.1 1.1-1.1 2.1-2.5 3.8-3 1.4-.2 2.8-.4 4-.8 1.1-.4.5-1 .6-1.9.1-1 .6-1.1 0-2.1-.4-.8-2.6-3.8-1.9-4.5.6-.5 1.9.9 2.2-.9.1-.4-.4-2.4.2-2.4.5 0 .9.4 1.4 0 .9-.5-1.9-2.2-2.4-2.4-1.2-.1-1 0-1.8.8-.6.6-1-1.2-1-1.5-.2-1.6.6-2.8 1.6-3.9 2.5-.2 3.8-1 5.4-2.9.9-1 1.1-1.4 2.4-1.5.6 0 1.1-1 1.6-.6l.1-2.5c2.5-2.6 5.1-5.8 8-7.9 2.8-2 5.9-3.6 8.6-5.5 11.2 0 22.6-.5 33.8.1 2.1.1 4.5-.9 6.8-.9l10.5.4c6.6.1 13.4.5 20 .5 1.2 0 2.2-2.6 2.5-3.5.6-1.6.6-2.6 2-3.8 1.2-1 1.8-1.1 2.9.1.5.6 2.1.5 2.4-.4.4-1.1 1.6-.2 1.6-1.5 0-.9.6-2 1.1-.8.4.9.9 1.8 1.4 2.6.6 1.1 1-.9 1.1-1.4.2-1-.5-2.6.1-3.4.5-.6 1.4-.5 1.8.2.5 1 3.1.8 1.8-.1-.4-.2-2.2-.9-2.4-1.4 0-.6 1.1-1.2 1.1-2.1 0-.6.8-1.2 1.2-1.5 1.4-.9 2.9-1.5 4.4-2.1 2-1-.4-3.5 2-4 .8-.1 1.2 0 1.5-.9s.6-2 .4-3c-.2-.6-1.8-2.5-.5-3 1-.4.5-1.5.4-2.4-.4-1.6-.1-1.6.8-2.9l2.4-3.2c1.4-1.9 1.6-3.2 1.8-5.5 0-.9.4-2.4 1-3.1 2.5-3 4.5-6.5 7.1-9.4.6-.6 2-1.4 2.4-2.2.5-1 1-1.6 1.8-2.4 1.2-1.4 2-3.8 3.5-4.8.9-.5 5-1.9 5 .2 0 1.4-1.2 4 .6 4.9 1.1.6 1.8 1.2 3.1.9l2-1c1-.4 2.1-.1 3-.9.8-.5 1.4-1 2.4-1 .6.1 1.2.4 1.9.5.5.1.5-1.5.6-1.9.4-1.2 3.4.2 3.9.6 1.6 1 3 2.2 4.1 3.8 1 1.4 2.5 2.2 3.8 3.2.1 2.6.2 5.1.4 7.8.2 6.9.5 13.6.9 20.4 0 .8 0 1.5.1 2.4.1 1.5-1.8 1.5-1.1 3.1.4 1-.8 2.5-.4 3.6.2.6 1.2.8 1.9 1.1.8.4 1.4 1.5 2.1 1.6.9.1 1.8-.1 2.6-.2 1.4-.1 1.2 1 1.1 2-.1.9-1.8.8-1.2 2 .2.8 1 1.4 1.2 2.1.2.6-.6 1.6-.6 2.2 0 1 .2 2.2.9 3 .4.5 1.9 2.1 2.2.9.8-2.1 2.8.8 3.4 1.6.6.8 3.1 4 1.4 4-.9 0-1.8.2-2.5.8-.4.2.9 1.5.9 1.9-2.1 3.1 2.4 2-.3 4.2zm-128.2 53.6l41 1.6-24.4-1-16.6-.6zm9.8 21l-14.5-1 14.5 1zm57.2 17.9c-.5 0-.8 1.4-1.5 1.4-.6 0-2.4.5-3 .1 1.1.9 3.4.9 4.8.9 1.9 0-.3-2.4-.3-2.4zm-12.7-2.6c-1.1 1.1-2.1 2.1-3.8 2.5.5 1.2 1.9.2 2.9.1 1.1-.2 2.2-.4 3.4-.5 0-1-1-3.5-2.5-2.1zm-19.9 6.9c-.1.2.2.9.2.9.9-.2.6-1.9.5-1.9-.2.2-.4.6-.7 1zm33.9-12.4c-.5.8-1 1.8-1.2 2.6l1.6-1.9c.3-.3.2-1.7-.4-.7z"><set attributeName="fill" to="#fce149" begin="mouseover" end="mouseout"/></path></a><a xlink:href="midwest.html"><path id="MEEA" fill="#288585" d="M916 364c.6 0 1.7-.1 2.2-.4v-36.4c-4.6 2.2-10.5 3.2-15.3 4.9-2.6 1-4.1 2.4-5.5 4.9-2.2 4.2-6.9 3.1-10.8 2.8-1-.1-2.2.6-3.1.9-1.6.6-3.2 1.2-5 1.6-1.8.4-3.1.1-4.8-.8-1.8-.9-2.1-1.2-3.8.1-1.7 1.3-6-4-7.2-4.5-1-.5-7.6-1.9-6.6-3.5 1.1-1.8 2.8-3.4 3.8-5.2 1.1-1.9 2-3.8 2.9-5.8.8-1.6 1.4-3.6 2.4-5 .6-1 1.8-1.5 2.8-2 .2-.1 2.2-1 1.1-1.4-1.9-.8-.8-2.2.4-3.1.9-.8.4-.8.2-1.8 0-.9 1.9-1.8 2.5-1.5 1.5.5.6 1 1.4 2 .6.8 1.4.4 2-.2.6-.6.2-1.9.5-2.6.4-.9.5-1.9.6-2.9.2-1.4 1.6-4.2 1-5.5-.8-1.2-1.5-2.4-1.8-3.9-.6-3.4-1.4-6.6-2.1-10-.5-2.4-1-4.6-1.1-7.1-.1-2-.2-3.4-1.9-4.6-1.1-1-3.1-3.5-4.8-2.6-.9.4-1 1.4-1.9 1.9-.5.2-1.5.1-2.1.1-.9.1-1.9.2-2.8.8l-1 1c-.2.2-1 .2-1.1.5-.4.8.9 2-.8 2.2-.8.1-.1 1.8-.6 2.4-.8.8-1.6.2-2.2 1.5-.5 1-.6 1.5-1.8 1.6-1.8 0-3-.4-4.6-.9-1.9-.5-1.5-3.2-1.2-4.9.2-1.9 1.5-3.9 3.4-4.4 2.5-.8 4.2-1.5 4.8-4.4.1-.8-.5-1.1-.5-1.8.1-1 2.1-1.5 2.9-1.9 2.4-1.1 2.1-2.8 2.2-5.2v-3.2c0-1 1.2-1.4 1-2.5-.1-.5-.4-1-.6-1.5l-.1-1.8c-.4-1.4-1.1-2-2.1-2.9s-1.1-1.5-.8-2.8c.2-.9.9-2.5 1.6-1.1.5.8.9 1.9 1.4.4.5-1.4-.4-2.9-1.4-3.8-.8-.6-1.1-1.9-1.6-2.8-.5-1-1.6-1.5-2.5-1.8-2.4-.8-4.6-2.2-7-2.8-1.4-.2-2.5-.4-3.6-1-1-.6-2-1.1-3.1-1.8 2.4-2.5-5.6-2.6-6.8-3.5-2.4-1.8-4.2-2.9-7.2-1.6-1 .4-1.6 1.8-2.4 2.4-1.1 1-3 2.1-1.5 3.8 1 1.1 2.1 1.8 3 2.8.4.5 1.1.4.2 1-.6.4-1.4.8-2.1 1.1-1.8-.8-2.8-.2-4.2.6-.8.4-1.8.9-2.4 1.5-.9.8-.1 2.4 0 3.4.2 2.1-2 3.9-1.6 5.9.2 1.5-.2 2-1 3.2-.6 1.1-.6 1.5-1.9 1.2-2.9-.5-1.1-2.1-.5-4.1.2-1.1-.2-1.5-.5-2.4-.1-.8.9-2.2 1.1-3 .2-.6.5-1.9.1-2.5-.2-.5-1.8 1.1-2.1 1.4-.2.1-2 1.1-1.9 1.4.2.5-1 1.9-1.2 2.2-1 1.5-2.6 1.4-4.1 2.4-.6.4-1.8 1-1.9 1.8-.2 1.1-.1 2.2-.5 3.2-.4 1.1-1.8.4-2.1 1.2-.3.8.1 2 .4 2.9.5 1.4-.6 3.4-1 4.8-.5 2-.2 4-1.9 5.5-2.2 2-3.5 3.2-2.6 6.4.5 2 2.1 4.8.4 6.6-.6.6-1.6 1.2-1.9 2.2-.1.8.6 1.9.8 2.5.9 2.4 1.5 4.9 2.5 7.1.4.9.9 2.2 2 2 1.1-.1.5.9.2 1.5-.2.8.6 2 .9 2.8.4 1.5.2 3.1.2 4.6.1 2.2-.1 4.2-.5 6.5l-1.2 6.9c-.4 1.6-.5 4.1-1.5 5.5-.8 1.1-1.8 2-2.5 3-.6.9-.8 1.9-1.2 2.9-1.4 2.8-3.1 4.6-5.6 6.5-2.6 1.9-4.6 3.6-8 3.6-2.6 0-5.2-.2-6.4-2.9-1.4-3-1.8-6.8-3.8-9.4-.8-1.1-2-2.2-2-3.8 0-2.5.2-5 .4-7.5.1-2.4 1-5.2.6-7.6-.2-2.1-2.4-3.9-3.1-5.9-.5-1.2.2-2.5.1-3.9-.1-1.8-.6-3.1.1-4.8.9-1.9 1.6-3.9 1.9-5.9.4-2.1 1.6-3.9 1.8-6.1.2-2.6-.5-6.6.9-9 1-1.9 4.2-1.1 3.1-4.4-.2-.9-1.6-2-.8-3 .8-.8 1-1.8 1.1-2.8.4-2.2 1.2-3.5 2.4-5.2.5-.8 1.1-1.6 1.2-2.6.1-.8-1-1.5-1.4-2-.2-.4 3.4-1.2 3.6-2.2.2-.9.5-1.9.9-2.8l1.5-2.6c.9-2.1 1.5-4.1 3.1-5.9.5-.5 1-.8 1.4-1.5.6-1-.6-2-1.5-1.2-.6.5 0 1.9-.2 2.5-.1.5-1.6.9-2.1 1.1-1.8.9-1.2 3-3.2 3.5-1.2.2-2 3.5-2.5 4.6-.4.9-.8 1.9-.6 2.9.1 1.4-1 .4-1.9.1-.4.2-.8.5-1 .8-.9.5-1.4.1-2.2.4-1.1.4-1.8 3.4-2.2 4.2-.9 1.2-2.1 2.2-3.1 3.2-.8.6-2.6 1.1-3.1-.2-.2-.6.5-1.1.9-1.6.5-.8 0-.8 0-1.4-.1-.8 1.1-1.9 1.5-2.4.6-.9 1.1-1.5 1.2-2.6 0-2.2 1.8-2.1 3.1-3.1.6-.5 2-.8 2-1.8 0-.8-.5-1.5-.5-2.2.1-1.1 2.4-2.1 3-3 .6-1 1-2.1 1.5-3.1 1.1-2.5 3.2-4 4.1-6.6.1-.5.2-1.4.8-1.9.2-.2 1 0 1.4-.1 1-.4 1-2.1 1.2-3 .1-.4 2-3.6 2.1-3.5.5.6-.9 3.4-1 4.2 0 2 2.4 1.8 3.2.5.6-1 .6-1.9 1-2.9.1-.5 1.1-.5 1.6-.6 1.1-.2 3-1.1 3.6.1.4.9.6 1 0 1.8-.5.5-.9 1-1.4 1.6-.1.1-2.2 3.4-1.1 3 1.5-.5 1.8-2.9 3-3.5.8-.4 1.8-.4 2.5-.8.6-.2 1-1.4 1.4-2 .9-1.1.4-1.9-.2-2.9-.1-.1-1.1-1.5-.8-1.6 1-.4 2.5 1 3.2 1.2 1 .4 2 .5 3.1.4 2.1-.2 4.2-.5 6.4-.8 1.8-.1 2.8-1.1 4.1-2.1 2.5-1.8 6.9 0 9.6.5 2.1.4 2.8 1 4.1 2.6.2.2 3.8 2.9 3.8 2.8.4-.6.1-2 .2-2.8.2-1.2 1-1.4 2.2-1.5 2.4-.2 4.1 1.2 6.5.6 1.4-.4 3.1.5 4.8.4 2.2-.2 3.8-1 5.9.2 1.4.8 3.6 1.1 5.2 1 .8-.1 1.2-1.2 1.4-2 0-.5-1.1-1.4-1.4-1.8-1.8-1.8-2.8-.8-3.5 1.2-.5 1.1-1.4.5-2.2.2-.8-.2-2.1.1-2.6-.4-.9-.6-1.9-.8-2.5-1.8-.6-1-.9-2.1-2.1-2.8-.5-.2-1.9.2-2.1-.4-.2-.5 1.5-1.2 1.6-2 0-.6-.9-2-1.1-2.6-.4-.9-.8-1.9-1.4-2.6-2-2.4-3.4 1.8-5.6.6-1-.5-1.2-.9-2.4-.6-1.2.3-2.4 0-3.6-.1-1.1-.1-1.8-.8-2.6-1-1.2-.4-.9-.1-.5-1.5.2-.6 1.2-5.8.9-5.8-1.5-.1-3.2.2-4.8.6-2 .4-3.6 1.5-5.6 2-1.1.2-1.4 0-2.4-.5-1-.4-1.9.4-2.9.4-2.1-1.1-3.9 0-6.1 0-2.8 0-4.9 1.5-7.2 2.8-.5.2-4.4 3.8-4.5 3.1-.1-1.6-.5-1.9-2.2-1.4l-2.1 1.1c-1.5.5-2.6-1.2-4.1-1.5-1-.1-2.2.1-3.4.1-.9 0-3 .5-3.8 0-.6-.5-.4-1.4-.8-2-.5-.8-1.2-1.1-1.6-1.9-1-1.4-1.6-3.6-3.2-4.5-1.8-1-3.9-1.5-5.9-1.9-1-.2-2.1-.1-3-.8-.5-.4-1-.9-1.6-1-1.9-.4-1.8 2.5-2.5 3.4-.1.1-.8-1.2-1.1-1.1-.6 0-1.4 1.6-1.5 2.2-.1.2-.4 1.8-.9 1.4s-.9-1.2-.9-1.9c.1-3.4 2.4-5.5 4.1-8.2.6-1.1 1.4-2.8 2.6-3.2 1-.5 3-1.2 3.6-2.2.2-.6-1.5-.9-1.2-1.2.4-.4 1.8-.6 2.2-.8 1.5-.5 2.1-.4 3.6.1.8-1.1.5-1.8-.8-1.9-1.4-.1-2.9-.4-4.2-.1-2 .4-3.6.8-5.5 1.6-2.2.9-3.9 2.2-5.9 3.6-1.6 1.1-2 2.6.2 3.6 1.4.6 1.6-.1 2.6-1.1 1.6-1.5.2 1.9.2 2.4 0 .6-1 1-1.2 1.5-.2.4 0 1 0 1.5-1-.4-1.4-1.2-1.1-2.1.1-.8-2.1-2-2.6-2.5-.9-1-1.1-1.2-2 .1-.6 1-2.2 1-2.8 2.1-.4.9-1.2 2.9-2.5 2.5-1.5-.5-1.8-.2-2.8 1-1.1 1.5-2.6 1.9-4.4 2.4-2 .5-4 1.2-6 1.6-1.8.4-3-.4-4.5.6-1.6 1-3.6 2.8-5.4 3.4-1.1.4-2.2.4-3.4.8s-1.8 1-2.8 1.4c-2.6 1.1-4.2-2.8-6.8-2.1-1.1.2-1.9 1.5-3 1.9-.5.2-2.9.1-1.9-.8.8-.6 1.6-2 2.1-3 .4-.8.2-1.5.6-2.2.1-.4.6-.2.8-.8.2-.5.2-1 .6-1.4.2-.4.5.4 1-.1.5-.6-1.9-1.6-2.4-1.8-1.1-.5-2.9 1-3.9 1.5-1.6.8-3.1 1.6-4.8 2.2-2.4.9-4.8 1.9-7.1 2.5-2 .6-4.4 1.4-6.5 1.2-1-.1-.8-1.1-1.4-1.4-.5-.2-3.9 1.2-2.9-.4l.1-.1c1.2-2 2.8-2.9 4.8-4 2.2-1.2 4.2-2.6 6.2-4.2 3.2-2.5 5.8-5.9 8.5-8.9 2-2.1 4.8-3.4 7.2-4.6 3.8-1.9 7.6-3.8 11.6-5.5 3.9-1.6 7.4-3 11-5.2.6-.4 1.4-1 2.1-1.1.6-.1-1-1-1.5-1-1 0-2.2 0-3.1.6-.6.4-1.2 1.2-1.9.5-1.4-1.4-2.4-3-4.6-3.1-.9 0-1.9-.2-2.8-.4-1-.1-1.6.2-2.5.4-1.1.2-2.2-.2-3.4-.2-.9 0-1.8.4-2.8.4-2 0-2.5-2.1-3.5-3.5-.6-.2-1.5-.1-2 .4-.8.9-2.1.8-3 1.4-1.5 1.2-3.5 2-5.4 2.4-1.4.2-2.1.5-3.5 1.1-.8.2-1.5.6-2.2.6-.4 0-.6-.4-.9-.6-.8-.9 0-1 .2-1.9.8-2.2-6.1-4-7.5-5-.9-.6-3.1-2.5-4.1-1.4-.6.6-.2 1.5.2 2.1.6 1-1.1.4-1.6.4-1.4 0-3-1.8-3.8-2.9-.4-.5 0-2.2-.8-1.8-.8.4-1.1.1-1.9.1-2.4-.1-7.5.4-8.9-1.9-1.2-2-3.1-4.5-5.8-4.1-.6.1-2.4.6-2.8 1.2-.5 1-.9 1.4-2.1 1.6-1.9.2-3.5.6-5.2-.4-1-.6-.2-1.4-.4-2.2-.1-.5-1.2-.4-1.5-.4-2-.1-4.4-.1-6.2-.8-1.1-.4-1.8-.8-3-.9-1.1 0-2.2-.1-3.4-.2-1.5-.2-2-.8-3.1-1.8-.8-.6-.5-1.1-.6-1.9-.4-2.2-.9-4.4-1.5-6.5-.5-1.9-.9-3.9-1.6-5.8-.8-1.8-3.5-4.1-5.5-2.8-.6.5-.9 2.4-1.2 3.1-.9 1.6.4 1.9 1.4 3 .6.6-.4 1.2-.8 1.8l-1.5 2.9h-182.1v108.3h-.4v54l.9 55.5h41.3l.3 25.2v81.8l152.4.5v13.3l92.6-.2c.4 1.2 1.5 1.5 2 2.5s.4 2.4.2 3.5c-.9.9-2.2 1.6-3 2.6-1.2 1.6-2.8 2.5-3 4.6l13 .6.1-.4c.1 0 1.2-1.4 1.2-1.6 0-.9 1.5-1.8 1.4-2.2-.2-.8-1-1.6-1-2.4 0-.4 1.6-.6 1.9-.8 1.1-.6-1.2-1-1-1.6.4-.9 1.6-1.1 2.1-2 .2-.4-.9-4.4-.5-4.2.5 0 1.2 1.6 2 1l.1-.1 28.9.1v-4.5l91.6 1.7c2.5-1.1 6-2.4 8.6-2.5 2.2 0 2.5-1.9 3.8-3.2.8-.8 3.2-.9 4.2-1.1.4-1.6.8-2.5 2.2-3.2 1.1-.5 1.8-2.1 2.2-3.1.4-1 1-1.1 1.8-1.8 1.6-1.1 4.9-1.5 6-3.2 1.1-1.9 3-2.8 4.6-4.2 1.1-1 1.6-3.6-.8-3.5-1.1.1-1-1.1-1.9-1.6-1.2-.9-2.4-1.6-2.9-3l-1.5-3.2c-.4-.9-1.8-1.9-1.9-2.8-.1-1-.1-1.1-.8-1.9-.8-.8-1.5-1.6-2-2.5-.9-1.5.9-2.8.9-4.4 0-1.1-.5-1.8-.8-2.9-.1-.5 0-.9 0-1.2v.6c1.5.1 2 .4 3.5.3.5 0 2-.7 2.4-1.3.2-.5.1-1.1.4-1.5.8-1 .1-2.8 1.9-2.9 1.4-.1.5-2 .4-3 0-.5-.6-1.2-.4-1.6.4-.9 1.2-1.1 1.6-2.1.5-1.9 1-3.5 3-4.5 1.1-.5 2 2.6 1.4 3.2-1 1.2 1.2.6 1.8-.1-.1-2 2.4.2 1.6-2-.2-.6-.5-1.1-.6-1.8-.2-1.2.5-.8.6-1.5.1-.7.2-1.6.2-2.4.1-.9.9-1.2 1.1-2 .5-1.6 3.2.9 2.9-1.2-.1-1-.1-1.4.9-1.6.8-.1.8-.8 1.2-1 1.6-.9 1.8 2 3.6.8.9-.6 1.9-1 2.9-1.6.9-.5.9-1.5 1.4-2.4.4-.8 1-1 1.8-1.2.9-.2 1-1.4 2-1.5 1.1-.1 1.4-3.1.8-3.9-.9-1 .5-2.9 1-3.8 1.2-2.4 1.9-4.9 2.5-7.5.4-1.5 1.9-3 2-4.5 0-.8-.5-1.1-.9-1.6-.1-.1.8-1.1.6-1.9-.4-1.2-1.2-2.4-1-3.8-1 1.1.5 1.2.6 1.2z"><set attributeName="fill" to="#fce149" begin="mouseover" end="mouseout"/></path></a><a xlink:href="west-virginia.html"><path id="WV" fill="#288585" d="M874.2 424c-.1.9.6 1.6.8 2.5s0 1.8-.4 2.6c-.2.6-1.1 1.4-.9 2.2.4.9 1.1 1.8 1.8 2.5.4.4 1.4 1.1 1.5 1.6.2 1.2.4 1.5 1.2 2.6 1.6 2.1 1.6 4.9 3.9 6.5 1 .8 1.4 1.4 2.2 2.4.2.4 2.4-.4 2.2.6.8.1.9.4.8 1.1-.1.7.2 1 .5 1.6.4.9.5 1.6 1 2.5.6.9 1.1 1.5 2.2 1.8 1.2.2 1.5 1 2.4 1.6.8.6 1.6.1 2.4-.2l2.5-.9c.6-.2 1-1.8 1.8-1.4.9.4 1.4 1.4 2.2 1.8 1 .4 3.5-1.1 4.5-1.5.6-.2 1.5.5 1.8.4.2-.2 1.9-1.1 1.9-1.4-.1-.8-.5-2.1.8-2.4.6-.1 2 1.5 2.6 1 .2-.1 1-1.5 1.2-1.4.5.2 1.5-.1 2-.1 1 0 1 .1 1.8.6.2.2 2-1.1 2.4-1.4 1.1-1 .1-.8.1-1.9 0-1.1 1.6-1 2.1-1.6.4-.6-1.4-.9-1-1.6.4-.9.6-2.1 1.1-3 .8-1.4 1.6-2.6 2.5-3.9.4-.5.8-1.1 1.1-1.6s1.5-.5 1.6-1.2c0-.5-.1-1 0-1.5 0-.4.4-.1.6-.4.5-.5 0-1.6.6-2.1.9-.6 2.9-1.9 2.1-3-.4-.5 2-3 2.1-3.8.1-.4.9-4.2 1.1-4.1.8.4 1.9.1 2.2.9.6 1 .8 2 2 2.5 1 .5 2.1.9 3.2.4 1-.4 1.2-1.9 2.1-2.5.5-.4.1-1.8.4-2.4.4-.9 1.5-.9 1.8-2 .4-1.2.8-2.2 1.4-3.2.8-1.4 1.6-.4 2.2.6.8 1.2 2.4-3 2.9-3.6.6-.6 1.4.5 2.1-.2.5-.4.8-.9 1.1-1.4.6-.8 1.6-3.1 2.6-3.4 2-.6 1.6-3 1.8-4.6.1-.9.1-1 .8-1.5.2-.1.5-2.5.5-2.4.6.4 1.5.1 2.1.8.9.8 1.8 1.5 2.6 2.1.9.8 1.6 1.8 2.6 2.4.9.5 2.1 1.1 2.8 2.1.7 1 1.1-2 1.2-2.2.1-.4 1.2-2.6 1.2-2.6-.1-.6-.2-1.2-.4-1.8-.1-.8-.6-1.1-.9-1.9-.4-1.1-1.2-1.8-1.4-3-.1-1.4-1.4-.6-2.4-.8-.9-.1-2-1.2-2.6-1.9-.6-.4-1.8-1.2-2.1-.1-.5 1.4-.9 1.6-2.5 1.1-1-.4-1.6.4-2.4 1-.6.5 1.1 1.5-.6 1.8-1 .1-2 .1-3 .1s-1.9-.9-2.6-1.5c-2-1.2-3 4.4-5.4 3.4-2-.9-1.4 0-2.8 1-.9.6-1.5 1.4-2.5 1.8-.5.2-.2.9-.8 1.2-.6.3-1 0-1.5.4-.6.6-1.8 1.9-2.5 1.3l.7-13.5h-20.1l-.8-24.2c-1.1.9-2.4.2-3.7.6-.9.2.5 2.9.8 3.4.2.6.5 1.2-.1 1.6-.8.5 0 .9.2 1.4.9 1.4-1.4 3.8-1.8 5.2-.5 2.4-1 4.6-2.1 6.8-.6 1.1-1.8 2.8-1.8 4 0 .8 1 .9.6 2-.1.5.1 2.2-.5 2.4-1.2.2-2.5 1.2-3.5 2-.8.5-1 1.4-1.2 2.1-.4 1.1-1.8 1.4-2.6 2-.6.4-1.2 1.1-2 1.1l-1.6-1.1c-1.1-.4-.9 0-1.5.6-.5.5-1.9.1-1.8 1.2 0 .5.5 1.8-.2 1.5-.6-.1-1.4-.2-2 0-1.6.5-1.6 3.2-1.8 4.5-.1.6-.9.6-.9 1 0 .8.2 1.5.6 2.2.2.8.6 1.5-.4 1.8-.6.1-1.2-.9-1.1.6-.2.4-2.4 1.4-2.1.6.4-.9.8-1 .4-2-.2-.5-.6-1.6-1.2-1.8-1.6-.4-3.1 3-3.2 4-.1 1.1-.8 1.2-1.4 2.1-.6.8 0 1.2.1 2.1.1.5.9 2.9.1 3-1.8.2-1.8 1.2-2.2 2.8-.4 1.2-.2 2-1.8 2.1-1.5-.1-2.7.6-4.4.5 0 .1.3 0 0 0z"><set attributeName="fill" to="#fce149" begin="mouseover" end="mouseout"/></path></a><a xlink:href="southeast.html"><path id="SEEA" fill="#288585" d="M1024.8 435.2c-.5 1.5.1 3.2-1 4.5-.5.6-.9 1.8-1.2 2.5-.8 1.6-1.4 4.8-2.9 5.8-2.8 1-3.2 4.1-4.1 6.6l-1.2 3.5c-.5 1-1.2.1-1.8-.5-.8-1-.6-1.6-.1-2.9 1.5-3.4.9-7.4 3-10.4.9-1.2 2.5-2.6 3-4.1.2-.8-.6-1.2 0-2.1.5-.6 1.2-1 1.5-1.8.1-.2 0-.4 0-.5l4.8-.6zm-388 136.4l-.1-15.1c0-.2.2-1.9 0-2.5-.2-.4-2-.5-2.1-.2-.1.4-1.4-.8-1.6-.8-1.1.1-2 .5-3.2 0-1-.4-1.8-1.2-2.8-1.1 1.6-16.1 0-2.2-.2-2.2 1.5-14.9 1.5-26.2 1-41.1-.1-5-.2-10-.9-15-.8-5.9-2.2-12.5-2.2-18.4l93.2-.1c.4 1 1.4 2.5 1.9 3.5s-.5 2.4-.6 3.4c-.9.9-2 1.5-2.7 2.5-1.2 1.6-2.7 2.2-2.9 4.3l12.5.2-.1.5c.1-.1 1.2-1.4 1.2-1.6 0-.9 1.5-1.8 1.4-2.2-.2-.8-1-1.6-1-2.4 0-.4 1.6-.6 1.9-.8 1.1-.6-1.2-1-1-1.6.4-.9 1.6-1.1 2.1-2 .2-.4.1-5.2.5-5.1.5 0 .4 1.7 1.1 1.1v.6c.5-.8.7-1.8 1.2-2.5.7-1.2 1.1-.4 2 .2 1.1.9 1.5.5 1.9-.8.2-.8-.9-3-.5-3.1.2-.1 2.8-.8 1.6-1.4-.8-.4-.9-1.1-.2-1.9 1.5-2 1.1-3.1-.9-4.6.2-.4 1.9-2.1 1.9-2.4-.1-.9.5-2.1 1.4-2.5 2-1.1 5.2.9 6.9 1.9 1 .6 1.6.5 2.4 1.4.9 1.1 1.8.9 2.8 0 2-1.8-.2-3.6-.9-5.6-.4-1.4.2-2.2 1.8-2.5 1.6-.1 1.5-1.5 2.6-2.1.5-.2 2 .1 2.6 0 .6-.1 1.5-.2 2-.6.6-.5-2-3.2-1.8-4.5.2-1.1.6-1.6 1.6-2.4.6-.4 1.5-.9 1-1.6 1.2 0 1.5.6 2.6-.1.2-.1.1-1.5.1-1.8.4-2.8 1.4.1 2.6 0 1.1-.1 1.8-.8 2.2.6.4 1.4.6-.5.6-1-.1-.5.1-1.2.5-1.5l.8.5c.6 0 1.2.1 1.9.2 1.4-1.9 1.6-.1 3.4.6l3 1c.8.4 1 1.4 1.6 1.6.2.1 1.9-3.9 3.1-4.1.9-.1 1.2-.2 2-.9.4-.4.9-.9.9-.1h.2c.5 1.2 1.5 2.1 2.6 2.8.8-.5 1.2-.9 2.1-1.1.5-.1.6-1.9.6-2.2.2-1.2 1-.5 1.8-1.2.6-.6.4-1.5.9-2.1.5-.6 1.2-1.4 2.1-.9 1.1.8 0 2 .8 2.9.9.9 3 1 4.1 1.8.6.4 2.4-.5 2.9-1 .6-.8.6-1.1.5-2-.2-1.4 0-1.8 1-2.8.5-.5 0-2.4.6-2.5 1-.2 1.8 1.2 2.9.4.5-.5 1.5-1.8 1.8-2.5.3-.7-.8-1.9-.1-2.5.7-.6 1.5-.9 2.2-1.2.7-.3 1.6-.4 2.1-1.2.8-1.1-.5-1.2-.4-2.4.1-.9-.6-1.2-.8-2.1 0-.5 2.2-.6 2.5-.6 1.4-.2 1.8-.1 2.9.8.6.5 1.9-.2 2.2-.8.6-.8 1.8-.5 2.5-1.1.9-.8 1.4-.8 2.6-.4 1.1.4 1-1 1.1-1.6.1-1 .9-1-.4-1.5-.9-.2-1-.5-.6-1.2.6-1-.1-1.8-.5-2.6-.2-.8 1.4-1.9 2-2.1 1.2-.6 1.6.4 2.4 1.2 1.4 1.6 3.6-1.8 4.6-.2.4.6.5 1.4 1.4 1.4.4 0 .9 0 1.1.2.5.6.2 1.2.6 1.9.5 1 1 1.4 1 2.5 0 1-.1 1.4.9 1.8.9.4 1.8.8 2.8.8.6 0 1.6-.4 2.2-.1 1.8.5 2.9 2.2 4.4 3.2 1 .8 1.6 1.4 2.4.1.4-.5.5-1.4 1.2-1.2 1.5.1 3 1 4.4 1.5.4.1.9 1 1.2.8.4-.1.9-.1 1.2-.2.6-.1 1.9.1 2.2-.5.8-1.1 2.8-2.9 4.4-3 1 0 .9 4 1.6 4.5 1 .8 1.8.2 2.9.3.9.1.8 1.8 1.3 2.5.8.9.2 1.6.4 2.6.2 1.1.8 1.6.8 2.9-.1 1.6-1.9 2.9-.9 4.4.5.9 1.2 1.8 2 2.5s.6.9.8 1.9c.2 1 1.5 1.9 1.9 2.8.5 1.1 1.1 2.1 1.5 3.2.5 1.5 1.6 2.1 2.9 3 .9.6.8 1.8 1.9 1.6 2.5-.1 1.2 1.9 0 2.8-.2.2-.6.5-.9.8 1.1-.8 2.2-1.8 2.4-2.9.8.1.9.4.8 1.1-.1.7.2 1 .5 1.6.2.8.4 1.4.8 2.1.5.9 1 1.8 2 2 .5.1 1 .1 1.5.4.5.3 1 1.1 1.5 1.5 1.5 1.1 2.9-1.4 4.2-1 1.2.2 1.1-1.1 2-1.5.8-.2 1.9 1.5 2.6 1.8 1 .4 3.1-1 4.1-1.4 1.1-.5.9-.2 1.8.2.2.1 2.2-1.2 2.1-1.4-.1-.8-.5-2.1.8-2.4.6-.1 1.8.9 2.5 1 .4 0 1-1.1 1.2-1.4.4-.4 1.8-.1 2.1-.1 1 0 1 .1 1.8.6.2.1 1.9-.9 2.1-1.1.9-.6 1.1-.9.5-1.8-.8-1.1 1.5-1.5 2-2.1.4-.6-1.4-.9-1-1.6.4-.9.6-2 1.1-2.8.6-1.4 1.6-2.8 2.5-4 .4-.5.8-1.1 1.1-1.6s1.1-.5 1.5-1c.5-.6-.4-1.9.5-2.1.8-.1.4-1.9.9-2.2.4-.2 2.9-2.2 2.4-2.8-1-.8 1.6-3 1.9-4.1.2-1 .2-3.4 1.1-4.1.2-.2 1.9.4 2.1.6 1 .8.9 2.1 2.2 2.8 1 .5 2.1.9 3.2.4.9-.2 1.1-1.5 1.6-2.1.8-.8.5-1.2.6-2.2.1-1.1 1.6-1.2 1.9-2.4.4-1.2.8-2.2 1.4-3.2.8-1.2 1.1-.6 2 .2.1.1.5 1 .9.6.5-.4.9-.8 1-1.4.1-.8.8-1.9 1.4-2.5.6-.6 1.4.5 2.1-.2.4-.4.6-.6.9-1 .6-.9 1.8-3.4 2.9-3.8 1.9-.6 1.6-2.6 1.8-4.2 0-.6 0-1.5.5-1.8.4-.2.9-2.5.8-2.6.6.4 1.5.1 2.1.8.8.6 1.5 1.2 2.2 1.9 1.6 1.4 3.2 2.6 4.9 3.9.5.4 1.5 1.9 1.6.2.1-1.1.5-2.1 1.2-3 .8-.8-.4-1.5 1-1.4 1 .1 2.1.6 3 1.1.6.4 1.8 1 2 1.8.1.5-.4.9-.6 1.1-.4.4-.2 1-.1 1.4.4 2.8 4.4 1.2 5.4 3.8.5 1.1 1.5.8 2.5 1.1-.4.2.8 1.9.9 2.1.5.8.4 1.6.4 2.5 0 2.1-1.6 2.5-2.8 4.1-.9 1.2-2.5 2.6-2.5 4.2s-1.1 4.1 1.1 4.2c1.4 0 2.5-.6 3.8-1.2 1-.5 1.6.8 1.6 1.6.1 1.2.6 2 1.6 2.8 1.2 1 3.5 2.1 5 2.5 1.1.2 1.5.5 2 1.6.4 1.1 1.8 2 2.6 2.6l2.2.4c.9.4 1.5 1 2.1 1.8 1 1.1-3.6 1.9-1.5 2.8.4.1-.2 1.4-.2 2 0 .2-.8 2.5-1.1 2s-.2-1.4-.9-1.4c-1.4.1-2.9-.1-3.1-1.6-.4-2-2.1-2.4-3.6-3.8-.8-.8-1.4-1.6-2.2-2.2-1-.8-.5-2.5-1.6-3.2-.8-.5-1.9-.2-2.2-1.1-.1-.2-1.8-1.8-2-1.4-.8 1.8 3.6 2.4 4 3.8.4 1.2.4 1.9 1.1 3.1.5.8 1.5 1.5 2.1 2.1 1 .9 2.1 1.5 3 2.5 1.2 1.6 2.1 2.5 4 3.4.5.2.4 1.8.8 2.2.8 1 1.9 1.9 2.6 2.9.4.5 1.4 3.4-.1 3.4-1 0-.2-2-1.1-1.8-.4.1-.6.4-.6-.2 0-1.1-.2-.8-1.1-1.1-1.4-.5-.2.8-.6 1.2-.9 1.5-.1 1.9.6 2.9.9 1.2-1.5.9-1.9.4-.6-.9-1.5-1.8-1.9-2.8l-1.8-2.4c-.4-.9-1.2-1-1.5-1.8-.2-.6-.9-.1-1 .4 0 .5.1 1 .2 1.4 1.2 1.1 2.1 2 2.6 3.6.2.8 1.5 1.1 2.1 1.6.8.5 1.4 1.1 2.1 1.6.5.2 3.2 1.9 2.1 2.4-1.5.5 2.6 3.9.8 3.6-.4 0-1.1.2-1.5.1-.4-.2-.8-1.1-1.1-1.5-1.8-1.5-2.8-2.1-3-4.5-.1-1.1-1.2-1-2.1-.5-.8.4-1.2-.5-2.1-.6-1-.1-.8-.9-1.5-1.5-.6-.4-.6 1.8-1.2 1.8-.1 0-.4-1.2-.5-1.4-.4-.6-1.2-.6-1.9-.6s-.6-.9-1.2-.9c-.4 0-.5.8-.8.6-1.1-.2-2.4-1-3.5-.6-1.1.5 1.6 1.9 2 1.9 1.1.1 2.5 0 3.6.2.5.1.6 1 1.2 1.2s1.2.2 1.9.4c1.1.1 2.1 1 3 1.6 1.2 1 1.1 2.5 2.4 3.5 1 .8 2.4 1.4 2 2.9-.4 1.1-.5 2.4.9 1.8 1.5-.8 1.1-1.2 2.5-.2 2 1.4 1 .2 1.5-1 .6-1.6 1.6-2 3.1-1.1 1.2.8 2.6.2 3.1 1.8 1.1 3.1.6 5.6-1 8.5-1 1.8 1.1 3.1 1.1 4.9-.1 1.2-.1 2.8-.5 3.9-.2.9-3-1.8-3.6-2-1.8-.5-1.2.6-.2 1.5.8.6 2.8 1.6 1.5 2.8-1.4 1.2-2.1-.5-3.1-1.5-.5-.5-.1 1.9-1.1 1.6-.4-.1-3.1-2.4-3.1-2.2-.4.5.9 1.6 1.1 1.9 1 1.2.4 1.8-.6 2.6-1.6 1.5-3.6 1-5-.5-1.5-1.8-1.1-3.4.4-4.9.5-.5-.4-1.4-.6-.9-.2.6-.5 1.4-.8 2-.5 1.5-.9 2.6.1 4 .6.9 1.1 1 .5 2-.8 1.1-.5 1.4.5 2.1.6.5 1.5-.5 2.1-.5 1.1-.1 2.2-.1 3.4-.4 1-.2.6 1.4 1.6.2-.1.1 2.8 1.1 2.5.6-.1-.4-.9-.6-.6-1.1.2-.6 1.4-.5 1.9-.4.6.1 1.4.5 1.8 1 .5.8-.8 1-.5 1.6.1.2 1 1.4.2 1.5-.4.1-2 .2-1.1 1.1.5.4 1.8 1.1 1.4 2-.1.2-1.1-.1-1.1-.1.1.5.8 1.5 1.2 1.6 1.1.5 1.6-1.5 1.6-2.2.1-1.1-.1-2.2.1-3.2.5-1.9.2-.8 1.5-.9 1-.1 1.5-2.1 2.4-.4.4.8 1.2 1.6.9 2.5 2.1 1.5 3.5 2.5 2.5 3-1.5.9.4 1.8-.2 2.8-.2.5-1.9 1.8-2.2.9-.2-.4-.5-2-1-.8-.9 2-1.9 3.6-3.1 5.4-.6.9-1.1 1.9-2.4 1.6-1.1-.2-2.8-.6-3.9-1.1-.8-.4.5-2-.9-1.9-1.8.1 0 1.2-.5 1.5-.6.2-1.8-1.1-2-1.5-.5-1 1.5-1 1.5-2 0-.6-3.6-.1-3.8.2-.1.6 1.1 2 .1 2.4-.5.1-2.6.9-3 .8-.4-.1-.6-.6-.9-.9-.4-.4-1-.2-1.4-.2-.4 0-3.6-1.2-3.2-1.8-.6 1.2 1.9 2 2.5 2.4 1.4.6 2.2 1.5 3.6 2s2.9 1 4.2 1.5c2.2.9.1 1.5-1 2.5-.4.4-1.5 1-1.1 1.6.4.5 1.6 1.4 1.1 2-.6.9-2.2 1.6-3.2 2.1-1.6.6-1.9.5-3.1-.5-.6-.5-1.8-1-2.1-1.8-.1-.4-1-2.1-1.6-1.8-.9.4 2.1 2.9 1.6 3.5-.9 1.1 3.8 2.4 4.4 2.9.8.5 1.6-1.4 2.9-.9.6.2 1.6-1.1 2.1-1.2.9-.2 1.4.1 2.2.1.6 0 2.4-.8 2.5.1.4 2-2 3.8-3.2 4.9-.2.2-.8.5-.9.8-.2.4 0 1.2-.4 1.5-.1.1-1.6-1.2-2-1.4-.8-.4-.8-1.4-1.6-.5-.5.5-.8.9-1.4 1.1-1 .4-1.9.2-2.8.6-1.1.4-2.2 1-3.4 1.1-.9.1-.1-1.1-.6-2-.6-.9-.8 1.2-.9 1.4-.2 1.2-3.4 4.2-4.6 4.2-.4 0 0-1.1 0-1.2 0-.5.9-.8.8-1.2l-.5-.6c-.4-.8-.8-1.5-1.1-2.1-.6-1-.9 1-.5 1.8.2.5 1.5 2 .2 1.9-.5 0-1.8-.2-1.1.6 1 1.6 2.2 2.1-.2 2.9-1.9.6-3.4 2.6-4.4 4.4-.6 1.1-1.9 1.9-2.9 2.6-.2.8-.8 1.4-1 2.1-.1.2-.6 3.2-.9 3-.4-.4-.2-1.8-.2-2.4 0-.2-.5-2.5-.6-1.2-.4 2.4 1.4 4.1 0 6.6-.1.4-1.4 2-1.8 1.4-.6-1-2.1-.9-3.1-1-1.2-.1-2 1.1-3.2.4-1-.6-1.4.4-2.2 1-.8-.2-1-.6-1.8 0-1.6.6-2.8 1.1-4.2 2.2-1.4 1-2.5 1.6-3.5 3.1-.9 1.2-1.5 2.9-2.6 4-.6.8-1.5 1.5-1.8 2.5-.4 1.1-.2 2.8-1.2 3.6-.5.4-1 .1-1.5-.1-.8-.2.1-1.1.4-1.5.4-.5 1.6-1.9 1.5-2.6 0 .2-1.8 2.1-2 2.5-.5.9-1.5 1.8-.8 2.8 1 1.2 2.5 2.2.2 3-.6.2-2 3.2-2.4 3.9-.2.6-1.4.8-1.4-.1s-1.2-.4-1.8-.4c-.9 0-1 1.5-1.2 2-.2.9-.9 1.6-1.5 2.4-.9 1-1.9 4.1-4 2.8-1.1-.8.4-.9-.1-1.5-.5-.8-1-.1-1.2.4-.9 1.5 1.6 2.9.8 4-.6.8-1 .2-1.8.2-.4 0-1.2 1.5-1.5 1.6-.4.2-1 1-1.6 1.1-.5 0-1.6-1-1.9-1-.5.1-.8 1.4-.9 1.8-.4.9-1.4 1-2.2 1.2-.5.1-1.9 1-1.8 0 .1-.6-.5-1.9-1.4-1.9-1.2.1-2.8.6-3.1 1.9-.1.4-.2 5.1-1.2 3.9-.6-.8-.2-3.2-1.2-3.8-.2-.1-.4 5.1-.4 5.5 0 2.5.5 4.6-2.1 6 .2-.1-.2-.1-.2 0h.1l-1.2-.6c-.1 0-.1 0-.2-.1h-.30000000000000004.1.2c.1 0 .1 0 .2.1.5.2.9.5 1.2.6h.1c-.5.2 0 .8-.2 1.2-.4.5-.8.2-.9 1-.1.8.2 3.4-1 2.4-.9-.8-1.1-1.2-2-.1-.6.8-.4 1.1.4 1.8 1 1 .6 1.5-.5 2.4-.5-.1-1.9-.9-2.1-.2-.2.9-.4 1.9.1 2.8.2.5 1.6 2 .4 2-.8 0-1.5-.2-2.2-.1-1.4.1.1 1.4.5 1.8.5.4.6 2.6-.1 2.2-.5-.2-2-1.4-1.2.2.2.6 1.2 1.4.5 2-1-.4-2.4-1.5-3.1-.2-.2.4 2.6 1.4 3 1.5 1.4.5.5 2.1-.1 3.1-1.1 1.9-1-1.4-1.9-.8-.9.6-1.2 2.2-1.8 3.1-1 1.9.8 1.1.9 2.6 0 .5-.5 1.5-.4 1.8l1 1.5c.6 1-1 2.9-.5 4.2.2.5.5.8.5.8-.6 2-1 3.4 0 5.2.8 1.5.9 3.5 1.2 5.1.9 4.6 1.2 9.5 2.5 14 1.1 4.2 2.6 8.6 4.4 12.6.8 1.8 1.6 3.5 2.4 5.2 1.1 2.5 2.9 4.6 2.8 7.5-.1 2.4-.2 4.2.2 6.5.5 2.4.9 4.8 1.5 7.1.5 2 1.2 4 2 5.9.8 1.9 2 3.5 2.6 5.4 1.4 3.6 2.2 7.5 3.2 11.2l1 3.2.8 3.5c.1.9-1.4 1.1-.2 1.6 1 .5 2.9 3 3.1 4 .6 2.1-1.1 3.2.9 4.9.6.5-.1 2.5-.1 3.4.1 1 0 2 0 3 0 3 0 6-.1 8.9 0 1.1-.8 1.6-.9 2.6-.1.9-.5 3.8.1 4.1-.6.9-.6 1.5-.5 2.6 0 .4.1 3.6 0 3.6-.5 0-.4-1-.8-.1-.4.8-.4 1.6 0 2.4 0 .5.2 2.2-.6 1.8-.2-.2-.5-.9-.8-.5l-1.4 1.6c-1.1 1 .4 2.8-.6 3.6-.4.2-.8.4-.5.9.1.4.1.6.1 1 .1.8-.4.2-.4.5.1 1.1 1.1 3 2.1 1.8.2-.2 1-3.2 1.4-3.1 1.1.4-1 3.1-1.1 3.4-.2.4-.5 1-.8 1.4-.9 1.1-1.9 1.4-1.1 2.8.8 1.6-1.4 3-2.2 3.9-.6.6-1 1.5-1.4 2.1-.5.9-1 1.2-1.8 2-.4.4-1.2.2-1.5.6-.2.5 0 .6-.6.9-.4.2-1 .5-1.2.9-.9 1.1-2.5 1.1-3.5 1.9-.9.5-1 .2-1.6 1.2-.6 1.1-1 .8-2 .2-.8-.4-1-.4 0-.8.6-.2 1.1-.4 1.6-.6.6-.4.6-1.1 1.5-.9.9.1 1 .5 1.6-.4.4-.8 1-.9 1.9-.8 1.2.1.4-1.5 1.6-1.6.9-.1 1.4-.6 1.9-1.4.6-1.1 1.6-1.8 2.4-2.9.4-.6.4-1.2.6-1.9l1-1.5s.6-3.5-.5-2.4c-.8.8-2.8 1.1-3.9 1.2-1 .1-.9 1.5-2 1.4-.4 0-.9 0-1.1-.2-.4-.1-1-1.1-1.2-1.1-1.8-.1-2.9 1.6-4.6 1.8-.9 0-1.1-1.2-1.5-1.9-.6-1.5-.1-1.8.5-3 .2-.4 2.9 3 3.4 3.2.6.2 1.4-1.8.2-2.2-1.4-.5-2-.8-2.9-2-.8-1-1-2.1-1.6-3.2-.2-.4-.9-1-.5-1.5s.2-.9 0-1.4c-.4-1-1.6-1.9-2-3-.5-1.4.8-.5 1.2 0 .4.2 1.8 0 1.4-.6-.5-.8-1.6-1.2-2.4-1.6-2-1.1-3.8-2.4-5.6-3.6-2.6-1.6-4.2-2.6-5.1-5.8-.6-2.4-1.1-4.9-1-7.4 0-.9.2-1.5-.8-1.9-1.6-.6-1.1-1.5-.5-2.8.2-.6 1-2.1.6-2.6-.1-.1-1 1.9-1.1 2-.2.6-.5 1.5-1 2-1.4 1.4-2-.8-2-1.8 0-2.2 0-4.8-.2-7-.2-.4-1.2-1.5-.8-2 .4-.5 2.5-1.2 1.8-2.2-.1-.1-2.8 1.5-3.6.6-.4-.4-1.9-1.6-2.2-1.4-.2.1 2 2.6 2.1 2.9.2.2.9.8.9 1.1 0 1-.5 2.4-1.6 1.6-1.4-.8-1.9-2.1-2.5-3.5l-2.5-5.8-1.8-4.4c-.4-1-1-2-1.4-2.9-.9-1.8-.1-1.2 1-2.1.9-.8-.1-1.8.4-2.6.4-.8 1-1.5 1.5-2.2.5-.6.9-1.2 1.4-1.9 1.1-1.5 1.2-1.5.4-3.1-.4-.8-.2-1.6-1.2-1.6-.6.1-.6 2-.9 2.5-.8 1.4-.6-1.4-.6-1.6.1-.9-1-2.4-1.9-2.5-.8-.1-1.5-.9-1.6.2-.1.6-.1 1.5.1 2.1.2.8 1.5 1.2 2 2 .6 1.1 0 2.5-1 3.4-1.2 1.1-1.1.1-1.6-.9-.4-1-1.6-1.4-2.2-2.2-.6-.8.1-1.4.4-2.2.1-.8 0-2.2.6-2.9.4-.5 1.1-1.9.9-2.5-.5-.9-1.5-1.5-.8-2.6 1-1.6 1.6-2.1 1.9-4 .5-3 .9-6.1 1.2-9.1.1-.6 0-1.2-.2-1.9-.4-1.2-.2-2.1-.2-3.5 0-.9-1.5-1-1.5-2.1-.1-.8 0-1.4.1-2.1-.1-1-.6-1.9-1.1-2.8-.4-.5-1.2 0-1.8-.1-2.9-.5-4-1.2-5.4-3.6-1.2-2.1-2.5-3.6-4.2-5.2-1.4-1.4-1-3.8-1.9-5.4-.2-.6-1.8-.8-2.4-1.2-.8-.6-.6-1.8-.8-2.6-.2-1.4-2.2-3.6-3.6-4-.8-.2-1.8-.5-2.5-.6-1.4-.2-1.2-.9-1.9-2-.9-1.8-3.6-.8-5-.4l-2-.1c-.9.1-1.8 1.5-2.2 2-.2.2-1.6 1-.9 1.2.8.4 1.6.4 2.2.9 1 .9-2.9.5-3.1.5-1.5-.1-2.6 1.1-3.9 2-.6.5-3 3.1-3.6 1.5-.1-.4-1.4.9-1.6 1l-3 1c-1.5.5-4.2 1.4-4.8-.6-.6-2.2 0-3.4-2-5-.6-.5-1.4-1-1.8-1.9-.4-.9-.1-1.8.8-.9-.4-.8-.8-1.6-1.4-2.2-.8-.8-2.8.2-3.8-.8-.4-.4-.5-2.8 0-3 .1-.1 3.5-1.5 3.1-1.6-.5-.1-1.8.5-2.2.6-.9.2-1.4-.1-2-.6-.9-.6-1.9 1.5-2.5 2-.6.4-2.9-1.2-3.4-1.5-1.4-.8-2.8-1-4.1-1.6-2.5-1.1 2-1.1 2.5-1.1 1.6.1-.8-2.5-1.4-2.8-.8-.4-3-.5-3.6.2-.6.9-1.9-1.8-2.9-.4-.9 1.2-.5 1.2-1.9 1.5-1.8.2-3.8 1.2-5.5 1.1-.6 0-.6-.6-.9-1.1-.2-.4-1.1-.1-1.5-.1-3.4-.2.2-1.5-.2-3-.6-2-1.1-.4-1.8.8-.4.8-.9-.6-1.1-.9-.8-.6-1.9.1-1.1.9 1.5 1.8-1.5 3.1-2.4 4.4-.6.9-1.2 1.4-2.4 1.1-1.5-.4-.1-.6.2-1.4-.1-.2-.2-.2-.6-.1-.8 0-1.9.2-1.9.2l-.6.6c-.4.5-1-.5-1.1-.4-.4.5.2 1.2-.4 1.9-.5.5-2.4 1.4-3 .9-.2-.2.5-.6.2-1-.9-1-1-.9-1.1-2.2-.1-.6-1.4-.4-1.9-.8l-.6-2.1c-1-.5.1-2.2.2-3 .1-1.2-.8-1.5-1.8-2-1.6-1-2.4 4.4-2.5 5.6 0 .4-.5 4.5-1.6 3.4-1.5-1.4-2.2-1.8-4.4-1.5l-.4.4c-.8.8-.8 1.5-2 1.4-1-.1-1.2-.8-2-1.1-.8-.3-2 0-2.9 0-1.2-.1-1.9-.9-3.1-1.1-1.1-.2-3.6 1.2-4.6 1.9-.8.4-.9.8-1.8.2-.8-.2-1.5-.9-2 0-1.2 1.6-3.5 6.2-6.1 4-1-.9-1.2.9-2.6.5-.8-.2-1.1-1.2-1.9-1.6-1-.5-1.9-.2-2.9-1.1-.8-.8-1.4-2-2.4-2.5-.8-.4-2.1-1.4-2.9-.9-.6.5-1.1-.1-1.6.5-.2.2-1.8 4.5-2.1 4-.2-.2.1-1.1 0-1.5-.2-1.5-1.1-1.8-2.5-1.5-1.9.4-3.6 3.6-1 4.2.2-.2 2.8-1.6 2.6-1.1-.4 1.1-1.1 1.1-.6 2.5 1.1 2.9 5.2 3.2 8 2.9 1-.1 3.1-3.5 3.8-3.1.5.2-.2 1.2.6.9.8-.4 1.5-.5 2.2-.8.1.9.4 2.2-.2 3-.2.4-3.8 1.2-1.1 1.9.8.2 1.9-.1 2 .9 0 .6.4 1.5 1.1 1.4 1.8-.2 1.1-2.9 2.4-3.5.5-.2 1.4 2.2 1.6 2.6.2.4 2.1 3.5 1.2 2.8-1-.6-.9-1-1.9-.1-.5.5-.5 1.4-.9 1.9s-1 1.1-1.8 1.1c-.2 0-1.5-.4-1.6 0-.1.6 1 1.1.5 2-.1.1-1.4-1-1.4-.8 0 .5 1.4 3.8 2 3.5.8-.2 1.6-1.2 2.2-.1.2.4-.2 1.5 0 1.6.8.4-.4 1.4.8 1.8.8.2 1.9.1 2.4.6.8.6 1.4.6 2.4.8.8.1.8 1.6 1.2 1.6.4 0-.1-2 1.2-.2.2.2 1.2.8 1.2 1.1 0 .2-.6.8-.6.8.6.5 1.2.2 1.4 1.2.1.6.4 1.6 0 2.1-.5.8-2.2 2.6-2.9 1.2-.2-.5-2.1-2.8-2.4-2.5-.4.4-.8 2.6-1.4 1.5-.4-.8-.2-1.5-1-2.1-.6-.5-.6-1.1-.8-1.8-.1-.8-2.4.1-3-.5-.5-.5.1-1.6-.9-1.2-.8.2-1.8.1-2.5-.1s-.8-.6-.4-1.2.1-1.4-.1-2c-.4-.9-1-1-1.9-1.2-.5-.1-.9.6-1.2.4-.6-.4-1.6-.6-2.1-1s-.6-1.4-1.2-1.6c-.9-.4-.9 1-.5 1.5.5.5 1.1.9 1.5 1.4.8 1.1.9 3.2-.2 4.1-2 1.5.5 1.5 0 3.2-.2.6-3 2.6-3.5 1.5-.4-1.1-.5-2.2-.8-3.4-.1-.8-1.5-1.4-2.1-1.6-.9-.4-2 .4-3.1.2s-1.2-.5-1.8.6c-.6 1.1-1.4 4.9-3.5 3.8-.5-.2-.8-.8-1.4-.8-.8 0-1.1-.1-1.8-.5s-1.2-1.4-1.9-1.1c-.4.1-2.1 1.2-2.2.5 0-.1.1-3.6-.4-3.2-.6.5.2 1.9-.8 2.5-1 .8-1.8.4-2.2-.6-.4-1-.5-1.5.2-2.5.9-1.1 2 .8 2.8 0-.1.1-2.1-2.4-2.2-2.6-.6-.8 1.2-3.6.4-3.9-.8-.2-.4 2.6-1.6 2.4-1-.2-1.6-1.1-2.8-1.1-1.6 0-1.9-.9-3-1.9-.9-.9-.9-1.5-.6-2.8.2-1.6-3.8-.8-4.8-.8-3.6-.2 1.2-1.4.8-2.6-.5-1.4-8.6 2.8-8 3.2.1.1 1.6.6 1.4.9-.6.6.4 1.5.9 1.6.9.2 1.4 1 2.1.2.4-.4 1.9-.1 2.4 0 1.1.1 2.5.5 2.4 1.9-.1 1-.4 1.5-1.5 1.5-1.2 0-2.4-.5-3.4-1.2-.6-.5-1.6-2-2.4-2.1-.9-.1-2 1.1-2.9 1.4-1 .2-2.1.2-3.1.2-2.2 0-4.6-.2-6.8-.6-2-.4-3.9-1.9-5.5-3-1.4-.9-3.2-2.8-5-2.5-.6.1-1.6.1-2.2-.2-1.4-.9-.4-.9.2-1.1.9-.2 2.4-3.4 1.1-3.6-.2-.4-1.9-2.9-2-2-.1.9.5 2.6 0 3.2-.9 1.1-3.5 1-1.4 2.5.9.6 1.9 1 .2 1.4-1.7.4-3.2-.1-4.9.1-.8.1-4.4 2.1-4.8.9-.2-.9-.8-3.5.6-3.4 1.9.1 1.2-2.2 1.6-3.4 0-.1 0-.1-.1-.1l.1-.2c-.4-1 .4-2.9.9-3.6.8-1.1 0-2.4-.4-3.5-.2-1.1-.9-2.8-.2-3.9.2-.4 1.1-1.1 1-1.6-.1-.5-.6-.6-.6-1.2-.1-1.2 0-2 .8-3.1.4-.5 1.2-.9 1.2-1.5 0-.8.2-1.4.5-2 .4-1 .6-2.8.5-3.9-.1-.5.9-.6.9-1.1s-.4-1-.5-1.5c-.6-1.4 2-.8.2-2.2-.8-.8-.4-1.1-.2-2 0-.6-.2-1.2-.5-1.8-.1-.4-.6-1-.6-1.4 0-.2-.9-.6-1-1-.2-.6.2-1 .1-1.6-.1-.4-.2-.8-.4-1.1-.1-.6-.8-1.2-1.1-1.9-.9-1.4-1.9-2.8-2-4.4-.1-1.2.1-2.6-.1-3.9-.4-1.4-1-2.4-2-3.4-.8-.8-1.1-1.8-2.4-2.2v-27.6m267.5 11.3c-1-.8-.8-1.4-2.1-1.8-.6-.1-1.4-.6-1.4-1.1 0-.1 0-.1-.1-.2-.1-.9-.4-1.9-.2-2.9s.5-.9.1-1.9c-.5-1.2-.9-2.4-1.2-3.6-.2-1.2-.5-2.9-1.5-3.4l-.5-.2c-.6-.4-1.2-.8-2-1.1-.5-.2-1.8-.6-2.1-1.1l-.1-.2c0 .1 0 .1.1.2.5.6 1.6.9 2.1 1.1.8.4 1.4.8 2 1.1.2.1.4.2.5.2 1 .6 1.2 2.1 1.5 3.4.4 1.2.8 2.4 1.1 3.6.4 1-.1.9-.1 1.9-.1 1 .2 2 .4 2.9l.1.2c1.2.5.6 1 1.4 1.1 1.3.4 1 1 2 1.8zm1.5 9.6h.2l.1.1s-.2 0-.3-.1c.3.1 0 .1 0 0 0-.2.2-.5.2-.8.1-.8 1-1.5 1-2.2v-.2h-.1s-.1-.4-.1-.6c-.1-.4-.4-.6-.6-1 0-.1-.1-.1-.1-.1-.4-.5-.6-1-.8-1.5-.2-.5-.4-1.2 0-1.6.5-.8-.1-.9-.8-1.2.5.4 1.2.6.8 1.2-.4.5-.1 1.1 0 1.8.1.5.4 1 .6 1.4l.1.2.1.2c.2.4.5.8.6 1.1.1.2.1.5.1.8 0 .8-.6 1.5-.8 2.1-.1-.1-.2.1-.2.4zm-20.7 205.9c0 1.4 1.5.1 2-.2-.8-.6-2-2.1-2 .2zm15.1-5.4c.4-.4.2-.1 0 0-.8.8-3.5 2.5-3.5 2.5.1-.2 0-1.4-.5-.9-.6.6-.2 2.4-.8 2.6-.9.4-1.8.4-2.6.8-1.2.5-.8 1.4.4 1.1 2.2-.4 3.9-2.4 6-2.5 1-.1 2.2-.2 3-.9.5-.4.2-1.9.2-2.4-.3.2-1.5-.9-2.2-.3z"><set attributeName="fill" to="#fce149" begin="mouseover" end="mouseout"/></path></a><a xlink:href="california.html"><path id="CA" fill="#288585" d="M10.6 326.2c.2 1.5.6 4.9-1.1 5.6-.6.2 1.5 1.4 1.6 1.6.4.9.8 1.8 1.1 2.6.6 1.6 1.1 3.2 1.5 5 .2 1.2-.4 2.5-.8 3.8-.5 1.6-1.1 3.4-1.2 5.1 0 .8.4 1.4.6 2 .4.9-.4 2-.5 2.9-.1 1.1-.1 1.9.6 2.6 1.1 1-1.1.5-1.1 1.1 0 .5-1.4 1.8-1 2.1 1.1 1.1-.8.8-1.2.9-.6 0-.5 1.2-.5 1.8-.1.6-.6 1.1-1 1.8-.2.5-.5 1.6-.8 2-.5.8-1.2.8-.2 1.9.6.8.6.5.9 1.6.2 1 .1 1.2.1 2.2 0 1.6 1.2 1 2.1 1.5.5.2.5 1 .9 1.5l1.6 1.4c.9.8.9 1.4 1.4 2.1.2.4.9.4 1.1.9.2.4.4.6.8.9.5.4 1.5 1.1 1.8 1.8.2 1 1.4 1.9 1.4 2.8 0 1.1 0 2.1.5 3.1s1.1 1.9.9 3c-.1.8-.9 1.5-.8 2.2 0 .8.6 2.9-.4 3.1-.9.2.5 2.5.9 3.1.6 1.4 1.1 2.8 1.5 4.2.4 1.2 1 2.1 0 3-1.9 1.6-.4 2.9 1.2 3.9 3.2 2.1 4.6 5.5 7.4 8.2 1 1 3 2.1 3.6 3.4.9 1.9 2 3.6 3.2 5.2.4.5 1.5 1.4 1.5 2 0 0-1.2.6-1.4 1-.2 1-2.8 2.4-.2 2.8.8.1 1.6-.4 2.4-.2.5.1 1.2 1.1 1.6 1.5 1.5 1.4 3.2 2.1 4.8 3.4 1.2 1 1.1-.6 1.1-1.5 0-1.5.1-3.1.4-4.6.2-1.6.2-1.8 1.8-1.9.6-.1 1.8-.5 2.2.1.6.6.6 1.5 1.5 1.9 1-.8 2.4-1.6 3.6-1.8.9-.1.8.8 1.1 1.4.4.8 2.1.1 2.8.1 1.5-.2 3.1-.8 4.5-.1.9.4 3.1 1 3.8 1.9-.4-.6-2.6-.8-3.2-1.1-.1-.1-1-1-1.1-.4-.1.2-.5.6-.4 1 0 .1.6.8.4.8-.8.2-2-1.1-3-1-1.1 0-2.6.4-3.6-.1-1.1-.4-1.4-.9-2.5-.4-.8.4-1.6.5-2.4.6-1.1-1-2 .2-2.9 1-1.4 1.4.4 2.4 1 3.5.2.5 0 1 .1 1.5.2.6 1.1 1.1 1.5 1.6 1 1.2 1.1 2.5 1.5 3.9.5 1.8 1.1 1.9 2.5 2.9s-1.6 2-1.8 1.5c-.4-1.6-1.8-1.8-2.8-3-.9-1.1-1.8-2.1-2.6-3.1 1-.8.9-4.1-.9-4-.2 0-1.9.5-2 .8-.1.5.4 1.4.4 1.9.1.9 0 1.8-.5 2.5-1.4 2.4 1.4 3.1 2 4.9.8 1.9-.5 3.5-.4 5.2.1 2 2.9 4 4 5.4.8.9 2.5 3.6 3.9 2.9.6-.4 1.4-1 2.1-.9 1 .1 1.8 1.9 2.2 2.5.9 1.1.8 1.5.9 2.8.1 1.1.6 1.1 0 2.4-.2.6-.6 2-1.5 2.1-.4 0-1.5-.5-1.6-.1-.4.8.5 1.9.4 2.8-.2 1.1.4 1.9.8 2.8.4.9-.1 2 .2 2.9.1.4 1.2 2.1 1.6 2.1 1 0 1.1 1 2.1 1.1.9.1 1.5 2 2 2.8.6 1.2.1 1.5 1.5 2.2 1 .5 1 .9 1.4 2 .4 1.4 1.6 3.2 2.5 4.4.6.8.6 1 .8 1.9.1 1.2 1.6 1.2 2.6 1.4.8.1 1 1.1 1.4 1.6.6 1.1 1.4 2.1 2.4 3 1.4 1.4 3.1 1 4 3 .5 1.2-.9.9-1.1 1.2-.6.9-.6 2.9.4 3.4.6.4 5.2.9 5 2.1l-.1 2.8c-.2 1.2-1.5 1.2-1 2.6.4 1.2 1.1 1.9 1 3.2-.1 1 .1 1.5.2 2.6.1 1-.8 2-.8 3.1 0 1.2 1.8 1.5 2.6 2.1 1.6 1.2 3 1.5 5 1.4.8 0 1.5-1 2.1-.9.5.1.8.8 1.2.9l1.6.1c1.2.2 2.1 1.2 3.4 1.4 1 .1 1.6.1 2.6.4.9.2 1.2-.1 2-.5 1.4-.8 1.6-.1 2.9.5 1.6.8 3 2.1 4.5 3 .9.5.9 1.6 1 2.5.1 1.4 1.6 1.9 2.6 2.2.9.4 1.8.6 2.5 1.1.9.5 1.8 1.5 2.9 1.6.9.1 1.2-1.6 2.2-1.1.8.4 2 0 2.9 0 .4 0 1.8-.2 2 .4.4 1.2.8 1.5 1.6 2.6.6.8 1 2.4.9 3.2 0 .5-.8.9-.6 1.4.2.5.5 1 .9 1.4-.1-.1 1.9-.5 1.9-.4.4-.6.1-.9 1.1-.6.9.1 2.4-.1 2.9.6.6 1 1.8 1.6 2.6 2.4 1.5 1.2 2.8 2.5 4.4 3.5 1.5.9 2.9 2.1 4 3.5 1.8 2 3 4.6 4.1 7 .8 1.8.9 3.6 1.5 5.4.1.5 1.4 1.4.6 1.8-.6.4-.6 1.5-.8 2.2-.1 1.1.1 2 1.1 2.4.4.1 2.5.4 2.4 1.1-.2 1.1-1 1.2-.1 2.5.4.6 1 .8 1.8.8l1.5-.1c2.4-.2 4.8-.5 7.1-.8 7.4-.8 14.6-1.4 22-2.1 5.8-.5 11.4-1.1 17.1-1.6 1.2-1.1 4 .1 4.2-2 .1-1 2.2-1.2 2.2-2.4 0-.2.2-2.4 0-2.5-.8-.4-.5-1.8-1.2-1.8-1 0-2.4 0-3-1-.9-1.4-.1-2.2.4-3.5.4-1-.9-1.5 0-2.2-.5-.4-2.1-1.5-1-2 .8-.4-.8-2.4.8-1.8.9-1 1.4-2.4 2.4-3.2 1-.8-.5-3.1.9-4.1 1.5-1.1 1-2 .6-3.9-.4-1.8-1.1-3.2.5-4.6.5-.4 1.2-.6 1.2-1.4 0-.9-.1-1.2.5-1.8 1.2-1.1 2.6-2 3.9-3.1 3.1-2.8-1.1-5.1-3.5-6.2-.1-.8-.1-1.8-.4-2.5-.4-1-1.4-2.1-1.2-3.2.1-1.9-2.8-4.4-4-5.5l.1-5-111.4-106.4v-81.6l-88.2-.1z"><set attributeName="fill" to="#fce149" begin="mouseover" end="mouseout"/></path></a><a xlink:href="southwest.html"><path id="SWEEP" fill="#288585" d="M221.6 326.5h.5l-61.8-.2v.2h-62.5l.5 81.8 110.9 107.2 1.2.6.1 3.6c1.2 1.1 4.2 3.8 4 5.5-.1.9.8 2 1.1 2.8.4.9.4 2 .6 3 2.4 1.1 6.6 3.5 3.5 6.2l-3.6 2.9c-.6.5-.9.8-.9 1.6 0 1.1-.5 1.1-1.2 1.8-1.5 1.2-1 2.5-.5 4.1.5 1.9 1.1 3-.5 4.4-1.1.9-.5 2.8-.9 4-.1.6-1.1 1-1.2 1.8 0 .5-.8 1.2-1.1 1.6-1.5-.6-.1 1.4-.8 1.8-1 .5.5 1.8 1 2-.9.9.4 1.4 0 2.2-.5 1.2-1.2 2.1-.4 3.5.6 1 2 1 3 1 .8 0 .6 1.4 1.2 1.8.2.1 0 2.2 0 2.5l-1.1 2.4c-.2 2.1-3 .9-4.2 2h.1c-.2.5-.5 1-.6 1.5-.1.4-.8.5-.8 1-.1 1.1.4 2.6.4 3.9 2.8-.2 6.6 2 9.1 3.1 5.4 2.2 10.9 4.5 16.2 6.6 13.2 5.4 26.5 11.1 39.8 16.5 4.1 1.8 8.4 2.9 12.5 5.4h58.5l.1-12.9h34.5c-.2-.5-.6-.9-.8-1.5-.1-.9-.8-.5-.8-1.1 0-1-1-4.4-.8-5.2l74.5-.2.6-87.1.6-32.9.1-7.8.1-5.5 21.2-.4-.2-108.5-42.3-.1v-108.2h-145.7l-1-.2-.1 13.9-.1 67.5-62 .1"><set attributeName="fill" to="#fce149" begin="mouseover" end="mouseout"/></path></a><a xlink:href="northwest.html"><path id="NEEA" fill="#288585" d="M159.1 136.5c0 1.2-118.4 0-118.4 0l.4 2-.5 1.1s-.1 1.1 1.5 2.9c1.5 1.8 3.4 0 3.5 1.4s-.2 2 .1 2.4c.2.4 1.4 2.1 1.2 3.1-.1 1.1-2.4-1.8-1.9-.2s1.8 3.2 1 3.2c-.8-.1-2.5-1-1.9.4.6 1.4 3.8 3 3.9 3.9.1.9-3.4 1.5-3 2.2.4.6 3-1.6 3-.9 0 .9-2 1.5-1.1 2.5s2.6.1 2.8.6c.2.5 2.6 3.2 2 3.8-.6.6-2.8 2.6-2.8 3s-.5 1.4-.5 1.9c.1.5 1 1.4.4 1.9-.5.5-.5.9-.6 1.1-.1.2-1 .4-.5.9s1.2.2 1.2.6c0 .2 1.4.6.9 1.2-.5.5-1.6.8-1.2 1.5s.6 1.5.6 2 .6 1.1.4 1.5c-.2.5.1 1.1-.6 1.5s-.8.5-.8.8c0 .3-.4 1.2-.8 1-.4-.2-1.2-.5-1.4-.5 0 0 .1.2-.2.8-.5.8-.6 2.1-1.2 3-.6.8-2.4 2.4-2.6 2s-.5-1.5-1-1.4c-.5.1-3.4 2.4-3.8 2-.4-.4-3.6-2-3.4-2.2.2-.2 1.8-1 2.1-1.2.3-.2 4.1-4.9 4.2-4.6.1.3-1.1 4.1-.2 3.9.9-.2 1.1-4 1.8-3.9.5.1 2.2-2 2.4-1.2.2.8-1.1 3-.2 3s1.4.4 1.5-.4c.1-.8.1-2.1 0-2.8-.1-.8.4-1.2.5-1.8 0-.5-.4-2-.8-2.2-.4-.2-2.4 2.2-2.5 1.2s.6-1.5.5-1.8c-.2-.2-1.2-1.2-.9-1.6.4-.5 1.5.8 1.5.1.1-.6-.5-2.9-.1-2.9s1.5.4 1.6 0c.1-.4.4-1.1.8-.8s1.5.9 1.1.1c-.4-.6-.9-2.4-1.6-1.8-.8.5-.6 1-1.2.8-.5-.4-1.4.2-2 1-.6.8-.4 1.9-1.2 2.6-.8.6-2.6 1.6-2.9 1.9-.3.3-1.8.1-1-1 .8-1 1.8-2.1 1.6-2.4 0-.2 1.6-2.9 1.8-2.1.2.8.5 2 1 1.1.4-.9.1-1.2.6-1.9s1.2-1 1.1-1.5c-.1-.6-.9-2.1-1.5-2.9-.6-.6-1.5-1.5-1.5-1.8 0-.3.9-1.6.9-1.6s-1.1-.9-1.8 0c-.5.9.8 1.1.5 1.5-.1.4-.1.6-.4 1.1-.1.5-.9 2.4-1.4 1.2-.5-1.2-.5-2.8-1-2.9s0 1.9-1 1.5c-1-.5-1.8-2.2-2-2.5-.2-.3-2-.6-2.4-.4-.4.2-3.4 0-3.9 0l-3.4.1s-.4-.8-.6-.5c-.2.3-.2.9-.6.9-.4 0-1-1-1.6-.8-.5.1-5.8.4-5.9.1-.1-.1-.6-.5-1-.6-.4-.1-3.8-1.9-5-2.2-1.2-.3-5.9-2.4-6.5-3-.6-.6-2.2-1.1-2.3-.9-.1.1.5 1.2.5 1.6 0 .5-.4 1-.5 1.2-.1.4-.2 1.6-.2 2.4.1.8-.9 1.4-.4 2 .5.6 1.5 2 1.2 2.5s-1.2.8-.8 1.2c.4.4.6 1.1.8 1.6s-.2.6.2 1.1c.4.4.6.2 1.1.6.5.4 2.9 1.8 3.4 3l1 2.9c.2.5.5.2.5 1.4s0 1.6.1 2c.1.4-.6 2 .2 3.2.8 1.2 1.6 1.9 2 3.1.4 1.2.4 1.8.8 2.8.4.6.5 1.2.4 2 0 .6.9 1.6 1.4 1.8s1.5-.5 1.8 0c.3.5.4 1.2.8 1.5.4.3 4.2.6 3.5 1.1-.9.4-2.2.2-2.5.5-.3.3-.9.5-1.1.6-.2.1-.2.5-.2.8 0 .1-1.1.2-.6.9.6.8 1 .6 1 1s-.9.5.1 1.6c.6.9 1.2.4 2 .4l.1.5c.2 0 .4 0 .5.1.4.2.8.4 1.1.6l.2-.5c.8.4 1.4.6.8.9-.9.4-3.1-1.4-3.1-.1 0 1.3.9 1.5.8 2.5-.1 1-1 2.1-1 3s.5 1.6.2 1.9c-.3.3-1.4.6-1.8 1.1-.4.5-.4 1.6.1 1.8.5.2 1.8 1.2 2.9 1.6h6.2c.4 0 .5.1.4.4-.4.9-1.8.2-2 1-.2.8-2.5.9-2.8.5-.3-.4-1.5-1.2-1.5-.4-.1.9 2.5 3.1.6 2.2-2-.9-1.5-3.1-2.1-2.4s-1.2.8-.9 1.5c.3.7 1.8 1.2 1.5 1.8-.3.6-.6 1.2-1 2.1-.2.9-1.5.8-.9 1.5s.6 1.1.5 2.1c-.1 1.1-.9 1.1-.6 2.2.4 1 .8 1.2.8 1.8s1 .8.8 1.4c-.4.6-1 1.6-.9 2 .1.4 1.1 1.5.6 2s-1.9.2-1.2 1.1c.6.8 1 1.5.9 1.8-.1.3-1.1 1.5-.9 1.9.1.4.5.8.5 1 .1.2-.5 1.4-.5 2.2.1.8.9 1 .5 2s-1.5 1.8-1.2 2.6 0 3.9-.6 4.8c-.5 1-1 1.2-.8 2.1.1.8.8 3 .5 3.6-.3.6-1.2 7-1.4 9-.2 2-.1 5.6-.1 5.6s-.4 1-.2 1.6c.2.6 1 1.5.8 1.9-.2.4-.9.1-.8.8.1.5-.5 3.8-.6 4.5 0 .8 1.8 2.4.9 2.6-.9.4-1.2.8-1.4 1.2-.1.4 0 1.8-.4 1.9l-1 2.5s-.4 3.4-1.1 3.9c-.6.6-1.1.4-1.2 1-.1.5-.2 4.1-.5 4.2-.1.1-.1 3.5-.8 4.1-.7.6-1 2.8-1.2 2.8-.4.1-1.4 1.5-1.1 2l.6 2s2.1 2.6 2.5 3.2c.2.5.1.9.1 1.4 0 .4-.1 2.4-.4 3.1-.2.6.1 3.6.1 4.2 0 .6-.4 1.1.2 2.2.5 1.1.9 4.8 2.1 5.9 1.1 1 1.9.5 2 1.8h149.6v-.9h60.4l62.5-.1.1-67.6v-13.9l146-.1.1-108.4-250.2-.5h-20.6"><set attributeName="fill" to="#fce149" begin="mouseover" end="mouseout"/></path></a><g id="STROKES"><g id="SPEER_stroke"><path stroke="#fff" stroke-width="1.174" stroke-miterlimit="10" stroke-dasharray="1.7994,3.5988" d="M624.9 470.5v-10.200000000000001M450.6 463.5v10.1" fill="none"/><path fill="#fff" d="M512.6 472h-2.2v1.5h2.2v-1.5zm-6.7 0h-2.2v1.5h2.3l-.1-1.5zm-6.8 0h-2.2v1.5h2.2v-1.5zm-6.7 0h-2.2v1.5h2.2v-1.5zm-6.8 0h-2.2v1.5h2.3l-.1-1.5zm-6.7 0h-2.2v1.5h2.3l-.1-1.5zm-6.8.1h-2.2v1.5h2.2v-1.5zm-6.7 0h-2.2v1.5h2.2v-1.5zm-6.8 0h-2.2v1.5h2.2v-1.5zm-6.7 0h-3.4v1.9h1.5v-.4h1.8l.1-1.5zm-3.4 6.3v2.2h1.5v-2.2h-1.5zm0 6.7v2.2h1.5v-2.2h-1.5zm0 6.8v2.2h1.5v-2.2h-1.5zm-.1 6.7v2.2h1.5v-2.2h-1.5zm0 6.8v2.2h1.5v-2.2h-1.5zm0 6.7v2.2h1.5v-2.2h-1.5zm-.2 6.8v2.2h1.5v-2.2h-1.5zm0 6.7v2.2h1.5v-2.2h-1.5zm0 6.8v2.2h1.5v-2.2h-1.5zm-.1 6.7v2.2h1.5v-2.2h-1.5zm0 6.8v2.2h1.5v-2.2h-1.5zm0 6.7v2.2h1.5v-2l-1.5-.2zm-.1 6.8v2.2h1.5v-2.2h-1.5zm0 6.7v2.2h1.5v-2.2h-1.5zm0 6.8v2.2h1.5v-2.2h-1.5zm-.1 6.7v2.2h1.5v-2.2h-1.5zm0 6.8v2.2h1.5v-2.2h-1.5zm0 6.7v2.2h1.5v-2.2h-1.5zm-3 .9h-2.2v1.5h2.3l-.1-1.5zm-6.8 0h-2.2v1.5h2.2v-1.5zm-6.7 0h-2.2v1.5h2.3l-.1-1.5zm-6.8 0h-2.2v1.5h2.2v-1.5zm-6.7 0h-2.2v1.5h2.2v-1.5zm-6.8 0h-2.2v1.5h2.3l-.1-1.5zm-6.7 0h-2.2v1.5h2.2v-1.5zm-6.8 0h-2.2v1.5h2.2v-1.5zm-6.6 0h-2.2v1.5h2.2v-1.5zm-6.8 0h-2.2v1.5h2.2v-1.5zm-6.7 0h-2.2v1.5h2.3v-1.5h-.1zm-1.6 5.4l-.1.4-1 .2c.2.9.5 1.4.9 2v.1l1.2-.8c-.2-.5-.5-.9-.6-1.5-.2-.3-.3-.3-.4-.4zm5.1 3.6l-1 1c0 .1.1.4.1.6 0 .2 0 .4.1.6 0 .1 0 .2.1.2l1.4-.4v-.4c0-.4-.1-.9-.4-1.4l-.3-.2zm2.6 6.1l-1.2.9.2.2c.5.8 1 1.2 1.5 1.8l1-1.1c-.2-.2-.5-.6-.8-.9-.5-.8-.7-.8-.7-.9zm5.3 3.7l-1 1.1.2.2c.5.4 1 .8 1.4 1.1l1-1.1-.1-.1c-.4-.2-.6-.5-1-.8l-.5-.4zm4.6 4.8l-1 1.1c.2.1.4.4.6.6.4.4.8.8 1.1 1l1-1.1c-.4-.4-.9-.8-1.2-1.1-.2-.1-.4-.2-.5-.5zm3.9 5l-1.2.6c.1.2.2.5.5.6.5.5 1 .9 1.6 1.4l.9-1.1-.6-.5c-.1-.1-.4-.2-.5-.5-.6-.3-.6-.3-.7-.5zm5 4.5l-1 1 .2.2c.9.9 1.5 1 2.4 1.1h.1l.1-1.5h-.2c-.5 0-.8-.1-1.1-.4-.4-.1-.4-.3-.5-.4zm5.7 3.3l-.6 1-.1.2h.1c0 .2 0 .6.1.9l1.4-.2v-.8c0-.2-.1-.4-.4-.5l-.2-.2c-.2-.3-.2-.4-.3-.4zm2.5 5c-.8 1.2-.4 2.2-.1 2.9l1.4-.6c-.1-.1-.1-.4-.1-.5l.1-.5v-.1l-.5.2-.8-1.4zm3.6 6.1l-1.2.9c.2.4.6.9.9 1.4l.1.2 1.4-.5c0-.1-.1-.2-.2-.4s-.4-.5-.5-.9c-.3-.4-.5-.6-.5-.7zm-.1 6.3v.2c-.1.9 0 1.6.1 2.5l1.4-.4-.1-.6v-1.2000000000000002l-1.4-.5zm2.8 6.7l-1.5.2c0 .2.1.5.1.6.4 1 1.2 1.2 1.5 1.4h.1l.2-.6.4-.8h-.1c-.1 0-.1 0-.2-.1s-.4-.1-.4-.4c0-.2 0-.3-.1-.3zm1.1.9l-.4.8.8-.1c0-.1 0-.2-.1-.2l-.3-.5c.1.1 0 .1 0 0zm2 4.6l-1.2.9c.5.6 1 1.1 1.8 1.9l1-1.1c-1.4-1.3-1.5-1.5-1.6-1.7zm5.2 3.8l-1.4.6.1.2c.1.5.5 1.2 1.1 1.8l.5.4.9-1.1c-.1-.1-.2-.1-.4-.2h-.1c-.2-.2-.4-.6-.5-1-.2-.6-.2-.6-.2-.7zm4.9 4.4l-.9 1.1 1.1.9.1.1.1.1.1.1.6.2.5-1.4h-.1c-.1 0-.4-.1-.5-.2h-.1l-.4-.4s-.1 0-.1-.1-.1-.2-.4-.4zm5.1 3l-.8 1.2c.2.1.5.2.8.5.4.2.8.5 1.2.8l.8-1.2c-.4-.2-.8-.5-1.1-.8-.3-.3-.6-.3-.9-.5zm5.8 3.4l-1.1 1 .2.4c.4.5.9 1 1.4 1.4l.9-1.1c-.1-.1-.2-.2-.4-.2l-.4-.4c-.4-.8-.5-.9-.6-1.1zm7.2 1.6l-.2.5c-.1.2-.4.4-.6.4h-.1v1.5h.1c1.9 0 2.5-1 3-2l-2.2-.4zm4.4-5c-.1.1-.4.2-.6.4 0 0-.1 0-.1.1-.1.1-.4.1-.5.4-.1.1-.2.4-.5.5l1.2.9c.1-.1.1-.2.2-.4 0 0 .1-.1.2-.1.4-.2.9-.5 1.1-.9l-1-.9zm2-6.3c0 .1 0 .4-.1.5-.1.4-.4.8-.5 1l1.2.8c.2-.5.5-.9.6-1.2l.4-1.5-1.6.4zm2.2-6.3l-.2.6v.1c0 .1 0 .1-.1.2-.1.4-.2.6-.4 1v.1l1.4.6c.2-.5.4-1 .5-1.5.1-.2.1-.5.2-.8l-1.4-.3zm4.4-2.8c-.2.4-.4.8-.6.9l-.1-.1v-.1l-.1-.1-.2.6-.6.5c.1.2.6.8 1.4.8h.2c.9-.1 1.2-.9 1.5-1.2l.1-.2-.8-.5-.8-.6zm.3-.3c-.1 0-.2.1-.2.2l.5.4-.3-.6zm3.6-2.1l-.4.4c-.1.1-.1.2-.1.4l1.4.5c.1-.4.2-.4.2-.4l-.5-.5-.6-.4zm.7-.4c-.2 0-.4.1-.5.2 0 0-.1 0-.1.1l.5.5.5-.8c-.2.1-.3 0-.4 0zm5.6 1.8c-.5 0-.9.2-1.4.4h-.1l.4 1.4c.1 0 .2 0 .2-.1.1 0 .2-.1.5-.1.1-.1.4-.1.5-.1v-.4l-.1-1.1zm0 0v1.1l.6-1h-.1s-.4-.1-.5-.1zm4.8.6l-.1 1.5c.8.1 1.4.2 2 .4l.4-1.4c-.2-.1-.6-.1-1-.2-.4-.2-.7-.2-1.3-.3zm6.7.1l-.4.5-.8.4c.2.4.5.8.8 1 .1.1.2.2.2.4v.1l1.4-.6s0-.1-.1-.1c-.1-.1-.2-.2-.2-.5l-.1-.2-.1-.1-.4-.4c-.2-.4-.2-.4-.3-.5zm4.6 4.4c-.1 0-.2 0-.2.1l-.5.1v.1l-.5.2c.1.2.4.6.4.9l.4-.1v.2c.4-.1.6-.2.9-.2h.1v-.2.1c0-.1 0-.1-.1-.2l-.2-.5c-.3-.4-.3-.4-.3-.5zm3.3 4l-.1.9-.4.2c.1.1.1.2.1.6v.1l1.5-.1c0-.4 0-.9-.4-1.2-.1-.1-.2-.1-.4-.2-.2-.3-.2-.3-.3-.3zm4.1 4.6l-1 1.1c.5.4.9.9 1.2 1.4l1.2-.8s0-.1-.1-.1c-.4-.7-.8-1.1-1.3-1.6zm4.1 5.3l-1.4.6c.2.5.5 1.1.6 1.9l1.4-.4c0-.1-.1-.2-.1-.4-.1-.4-.2-.6-.4-1 0-.5-.1-.6-.1-.7zm1.6 6.4l-1.4.6c.1.4.4.6.5.9.2.2.5.6.6 1.1l1.2-.8s0-.1-.1-.1l-.6-1c0-.3 0-.4-.2-.7zm3 6l-1.4.6c.2.6.6 1.4.9 2l1.4-.6c-.3-.6-.5-1.2-.9-2zm2.4 6.4l-1.4.4c.1.6.4 1 .5 1.4.1.2.2.5.2.6l1.5-.2v-.1c-.1-.5-.4-.9-.6-1.4-.1-.5-.1-.5-.2-.7zm3 5.9l-.9 1.2c.5.4 1.1.8 2 1.1l.6-1.4c-1.6-.9-1.6-.9-1.7-.9zm3.9 5l-1.4.6c.4.9 1 1.5 1.9 1.9.2.1.5.1.6.1h.6l-.1-.8v-.8.8l-.1-.8h-.4c-.1-.1-.4-.2-.5-.4-.5-.5-.6-.5-.6-.6zm1.7 1v1.5-1.5zm1.5 4.1l-1.4.5c.1.4.2.6.2 1 .1.5.4 1.1.8 1.5l1.1-1c-.1-.1-.2-.2-.2-.4-.1-.1-.1-.2-.1-.4l-.4-1.2zm4.5 4.6l-.8 1.2c.5.2 1.2.8 1.6 1.1l1-1.1-1.8-1.2zm3 5.6l-1.5.1c.1.6.1 1.2.1 1.8h.4l1 .2v-.2c.2-.7.2-1.3 0-1.9zm1 6.2l-1.5.2c.1.5 0 1 0 1.6l1.5.2c0-.5.2-1.2 0-2zm.6 6.5l-1.5.1c0 .4.1.9.4 1.4.3.5.6 1 1.1 1.5l1.1-1c-.2-.2-.5-.6-.6-.9l-.1-.2c-.2-.6-.4-.8-.4-.9zm3.9 5.5l-1.4.6c.2.6.5 1.2.6 1.9l1.4-.4c0-.1-.1-.2-.1-.5-.1-.6-.2-1.1-.5-1.6zm1.4 6.5l-1.4.6c.1.2.2.5.4.9s.4.8.5 1.1l1.4-.4c-.1-.4-.2-.6-.4-1 0-.1-.1-.2-.1-.4 0 0 0-.1-.1-.1-.2-.3-.2-.4-.3-.7zm3.7 4.7l-.1 1.5h.2c.6 0 1.2.1 1.9.1l.2-1.5c-.2 0-.4 0-.6-.1-.4 0-.8 0-1.1-.1-.3.1-.3.1-.5.1zm5.7 2.8l-1.1 1c1 1.2 2.4 1.2 3.1 1.2v-1.5c-.7.1-1.4-.1-2-.7zm6.1 2.5l-.8 1.2c.2.1.4.2.5.4.4.4.9.6 1.4 1l.8-1.2-.2-.1c-.1-.1-.2-.1-.4-.2-.1-.1-.2-.1-.4-.2-.8-.8-.9-.8-.9-.9zm6 2.9l-.4 1.4c.9.2 1.6.4 2.5.4l.1-1.5-1.4-.1h-.30000000000000004c-.4-.2-.4-.2-.5-.2zm6.8.4l-.2 1.5c.5.1 1 .4 1.6.6l.8-1.2-1-.5c-.8-.3-1-.4-1.2-.4zm5.3 3.7l-1.1 1c.5.5 1.4 1.5 2.9 1.5h.2l-.1-1.5h-.1c-.2-.1-.5-.4-.8-.6-.9-.3-1-.3-1-.4zm7.9-3.1l-1.5.1c.1.8 0 1.2-.2 1.6v.1l-.1.2 1.1 1c.6-.5.8-1.6.7-3zm-2.4-6.3l-1.5.2v1.2000000000000002c0 .2.1.5.1.8v.1l1.4-.4c-.1-.4-.1-.8-.1-1.2.3 0 .3-.4.1-.7zm-3.8-4.6v.2c0 .1.1.2.1.4l1.1-.6h-1.2zm.2-1.1v.2l-.1.5 1.2.2-1.1.7v.1l.1.1 1-1 .1-.5v-.2l-1.2-.1zm.9-7l-1.4.5c0 .1 0 .1.1.2v.1c.1.2.1.5.2.8.1.2.1.6.2.9l1.4-.4c-.1-.4-.1-.8-.2-1.1-.1-.2-.1-.5-.2-.6l-.1-.4zm-3.5-4.3c-.1.1-.2.4-.2.6l.8-.1-.6-.5zm1.5-1.9l-1.2.8c.1.1.1.2.1.2v.2c0 .1-.1.2-.2.4l-.1.1.5.5-.8.1v.1l.8-.2.5.4h.1c1-.7.8-1.8.3-2.6zm.5-5c-.1.2-.1.5-.2.8 0 .1 0 .1-.1.2-.1.2-.2.6-.2.9v.1l1.4.6s0-.1.1-.1c.1-.4.4-.9.5-1.4.1-.2.1-.5.2-.8l-1.7-.3zm-1.9-3.1l-.6.6c.1.1.2.1.5.1l.1-.7zm-.7-1.2l-.8 1.2c.2.1.5.4.8.6l.6-.6v.9h.2l-.2-1.1v-.1h-.1c.1-.6-.3-.8-.5-.9zm-1.4-2.3l-1.1.5c0 .1.1.2.1.4.2.6.4 1.1.2 1.4l-.1.1.9.9h.2c.4-.4.5-.8.5-1.1h.1c.9 0 1.6-.6 1.9-.9l-1-1.1-.2.2c-.1 0-.2 0-.5-.2-.5.3-.8.1-1-.2zm6.1-3l-1.2.9.1.2c.2.4.6.9.6 1.4v.1l1.4.6c.1-.2.1-.4.1-.6.1-1.1-.5-2-1-2.6zm1.9-4.1c-.1.2-.2.5-.4.9-.1.1-.1.2-.2.4 0 0 0 .1-.1.1 0 0 0 .1-.1.1 0 0 0 .1-.1.1l1.2.8v-.1c.1-.1.1-.2.2-.4.5-.6.8-1.2 1-1.9h-1.5zm-3.6-5.6l-.8 1.2c.1.1.4.2.5.2.4.2.9.4 1.1.5h.1l.6-1.4h-.1l-.2-.1c-.2.2-.8-.1-1.2-.4zm2.4-.9c-.3 0-.7 0-1 .1h-.1l.2 1.5c.4-.1.8-.1 1-.1h.2l.6-1.4c-.1-.1-.4-.1-.6-.1h-.3zm6.2-2.9l-1.2.6c.2.6.2 1.1-.4 1.8l.5.5-.6-.5.6.5.5.5c1.2-1.1 1-2.5.6-3.4zm-1.9 2.8l1.1 1-1.1-1zm-1.5-6.7l-.2.1v.4l.9-.1-.7-.4zm.9-.3c-.1 0-.2.1-.4.1-.1 0-.1 0-.2.1h-.1l.2.8.2.6.4-.1.5-.1-.6-1.4zm4.9-2.9h-.2l.4.8-.6-.6-.1.1.6.6.1.1h.1l.2.2c.1-.1.2-.2.4-.2l-.2-.4.8-.5c-.1-.1-.1-.2-.2-.2-1 .2-1.1.1-1.3.1zm.2 1.4zm3.4-6.8l-1.2.8c.1.1.2.5.4.8l-1.1 1c.1.1.4.2.5.4l.2.1c.2.1.4.2.6.5l.1.1 1.5-.1c0-.5-.2-1-.6-1.4l-.1-.1.6-.2c-.1-.2-.2-.6-.4-.9-.3-.2-.4-.6-.5-1zm7.5 0l-1.1.9c.1.2.2.4.1.5-.1.1-.2.2-.6.4-.2 0-.5.1-.8.2l.4 1.4.4-.1c.2 0 .4-.1.5-.1 1.1-.2 1.5-.9 1.6-1.4 0-.3.1-1-.5-1.8zm-4-1.8l1 1.1-1-1.1 1 1-1-1zm.6-2.8l-1 1 .4.4.2.2v.1c0 .2-.2.5-.5.8l1 1.1c.4-.2 1-.9.9-1.9 0-.4-.2-1.1-1-1.7.3.2.1.1 0 0zm-.7-2.6v1-1c-.3-.1-.6 0-.9.1l.6 1.4c.1 0 .2-.1.2-.1l.1-.1 1-.9-.1-.1c-.2-.2-.5-.5-.8-.5 0 .2 0 .2-.1.2zm2.8-1.3c-.2.1-.3.2-.3.6h.6-.6v.7h.4v.1h.1c.2 0 .5-.1.6-.2h.4v-.5h-.6l.2-.5c-.1 0-.2-.1-.2-.1-.4-.1-.4-.1-.6-.1zm4.8 1.8c-.1 0-.2.1-.4.2s-.2.2-.4.4l-.2.2.9 1.1c.1-.1.4-.2.5-.4-.2-.2-.4-.6 0-1l-.4-.5zm.2-.1c-.1 0-.2 0-.4.1l.5.1c0-.1 0-.1-.1-.2zm4.5 1.2c-.2.1-.4.2-.5.2-.1 0-.2.1-.2.1h-.1l-1 .5.5 1.4c.4-.1.8-.4 1.1-.6.1-.1.2-.1.4-.2s.5-.2.6-.4l-.8-1zm6.4-2.2c-.8.1-1.5.2-2.1.4l.4 1.4 1.2-.2c.2 0 .6-.1.9-.1l-.4-1.5zm5.4-4c-.2.1-.4.2-.6.4-.2.2-.5.4-.8.6l1 1c.4-.4.8-.8 1.4-1.1l-1-.9zm4.8-4.4c-.1.1-.1.2-.2.5-.2.5-.5 1-.9 1.4l1.1 1c.6-.8 1-1.5 1.4-2.2l-1.4-.7zm3-4.2l-.5.2h-.1c-.2-.1-.5-.1-.6-.2-.1 0-.2-.1-.4-.1l-.2 1.2v.2h.1c.2.1.5.1.8.2l.5.1c.5 0 1-.1 1.6-.6l-1.2-1zm-2.1 0l-.2 1.2.2-1.2zm0 0l-.2 1.2.2-1.2zm5.6-5.7l-1.5.2c0 .2.1.5.2.8.1.5.4 1 .4 1.5l1.5-.1c0-.6-.2-1.1-.4-1.6l-.2-.8zm-3.5-4.4l-.2.2c-.1.2 0 .5.1.6l.8-.4-.7-.4zm1.4-2.6l-.6 1.4h.1l-.5.2v.1l-.1.1.6.6.4.4c.6-.6.9-1.1.9-1.8.1 0 .2.1.4.1s.4.1.6.1c.4 0 1.2-.1 1.9-1.1l-1.2-.6c-.1.2-.2.4-.4.4h-.1c-.2-.1-.5-.2-.9-.4-.9.6-1 .6-1.1.5zm5.1-3.1c-.2 0-.4 0-.6.1h-.1l.1.8h-.1v.2h.1l.1.1v.2h.4v-.4h.8v-.30000000000000004h-.8l.1-.7zm0 0v.8l.8-.1c0-.5-.3-.7-.8-.7zm-1.6 4.8c-.4 1-.1 1.8.1 2.1.4.6 1.1.9 2.1.9h.6l-.1-1.5h-.2c-.4 0-.6-.1-.8-.2-.1-.1-.1-.4 0-.8l-1.7-.5zm6.7 1.7l-.2.6h-.6c.1.9.8 1.6 1.8 1.6.5 0 .9-.1 1.6-.5l-.6-1.2c-.2.1-.5.2-.8.2-.1 0-.2-.1-.2-.2 0-.2-.1-.4-.2-.5l-.2.5.2-.6c-.6.2-.6.2-.8.1zm7.8-2.7c-.3.2-.5.3-.7.5l-.2.1h-.2l.6 1.4c.4-.2.8-.4 1.1-.6l.2-.1c.2-.1.5-.2.8-.4l-1.6-.9zm6-2.3l-1.1 1c.1.1.2.4.4.5 0 .1.1.2 0 .2 0 0-.1 0-.1.1h-.9l-.2 1.5h.8s.5 0 .8-.1c.6-.1 1.1-.5 1.2-1.1.2-.9-.5-1.8-.9-2.1zm-1.2-4.8c-.6.6-1.1 1.2-1.4 1.8l1.4.6c.1-.4.5-.9 1-1.4l-1-1zm3.3-5.1c-.1.2-.2.6-.4.9v.2h1.5c0-.5.4-1.4.5-1.6l-1.6.5zm1-6.8l-1.5.1c0 .4.1.8.2 1.1.1.2.1.5.2.8l1.4-.5c0-.1-.3-.8-.3-1.5zm-.7-6.1c-.1.6-.1 1.2 0 2v.1l1.4-.5c-.1-.5-.1-.9 0-1.2l-1.4-.4zm2.2-4.3v.1l1 .2-1-.3zm.5-1.6c0 .4-.1.6-.2.9l.9.5-1-.2c0 .1 0 .2-.1.4v.1l1.5.2v-.2c.2-.5.5-1.1.6-1.9l-1.7.2zm.8-6.1c-.1.1-.2.2-.2.4v.1l.6-.2-.4-.3zm1.1.1l-.8.4-.6.2v.1c.1.2.4.8.5 1.1l1.5-.2c-.1-.4-.4-.9-.6-1.6zm-.9-6.7l-1.2.8c.1.2.4.6.5 1v.5h1.5c0-.5-.1-1-.4-1.5 0-.1-.1-.4-.4-.8zm-2.6-5.9l-1.2.8c.1.1.2.4.2.5.2.5.5.9.8 1.5l1.4-.5c-.2-.6-.6-1.1-.9-1.6 0-.4-.2-.5-.3-.7zm-3.3-5.5v1.9000000000000001l1.4-.2v-1.8l-1.4.1zm-1.3-7l-1.1.9c.1.1.2.2.2.4.1.1.1.1.1.2l.1.2 1.2-.8c-.2-.5-.6-1-1-1.5.8 1 .7.9.5.6zm-1.8-4.9h-1.5v2.2h1.5v-2.2zm0-6.7h-1.5v2.2h1.5v-2.2zm0-6.7h-1.5v2.2h1.5v-2.2zm0-6.8h-1.5v2.2h1.5v-2.2zm0-6.8h-1.5v2.2h1.5v-2.2zm0-6.7h-1.5v2.2h1.5v-2.2zm-3.1-6.6l-.4 1.4c.8.1 1.4.4 2 .6v.1h1.5v-1l-.9-.4c-.7-.4-1.4-.6-2.2-.7zm-5.6-.4l-.9 1.1c.1.1.2.2.4.2.2.1.6.2.9.2l.1-1v1h.1c.1 0 .2 0 .2-.1h.1l-.4-1.4h-.5c.4.1.1.1 0 0zm-6-3.6l-.5 1.4c.1 0 .2.1.5.1h.1c.4.1.9.2 1.4.5l.5-1.4c-.8-.2-1.5-.5-1.8-.6.2.1-.1 0-.2 0zm-4.9-2.9l-1.1.9c.1.1.1.2.2.4l.1.1c.2.2.5.4.6.6l.2.2.1.1 1-1-.2-.2c-.2-.2-.5-.5-.9-.8.1-.1 0-.2 0-.3zm-5.7-3.9h-.2c-.5 0-1 .2-1.5.5l.8 1.2c.2-.1.6-.2.9-.2h.1c.2 0 .5.1.9.2l.8-1.2c-.7-.2-1.2-.5-1.8-.5zm-6.2 2.3l-.8 1.2c.6.2 1.4.2 1.9.4l.1-1.5h-.1c-.1 0-.8 0-1.1-.1zm-5-.8c-.8.2-1.4.5-2.1.8l.5 1.4 1.5-.5.5-.2-.4-1.5zm-6.1 2.6l.4.2-.4-.2zm0 0l-.1.4h.1c.1 0 .1 0 .2-.1l-.2-.3zm-1.5-1.3h-.5l.2 1.5h.1c.2 0 .6.1 1.1.2h.2l.1-.4.2-1h-.1c-.3-.2-.9-.3-1.3-.3zm-3.9 2.7c-.8.1-1.5.5-2.1 1.6l.8.6v-.1h.1v.7c.1 0 .2-.1.4-.2l-.4-.2v-.1l.5.2c.4-.5.6-.8.9-.8l-.2-1.7zm-3.4-.7l-1.1 1 1.1-1zm-1.7-1.1l-.6 1.2.6.2s.1 0 .1.1l.2.1.1.1s0 .1.1.1l1-.9-1 .9 1-.9h.1c-.1-.1-.4-.5-.9-.8l-.6-.2c0 .1-.1.1-.1.1zm-5.7-1.3l-.6 1.4c.1.1.4.1.8.2.1 0 .1 0 .2.1.2 0 .5.1.8.1l.1-1.5c-.2 0-.5-.1-.8-.1l-.5-.2zm-5.4-.6c-.2.6-.2 1.4-.2 1.9v.2h1l.1.4c.1 0 .2 0 .2-.1v-.4c0-.2 0-.5.1-.8v-.1l-1.2-1.1zm-2.6 5c-.1.2-.1.4-.1.5.1.1.2.2.5.2l.1-.5-.5-.2zm1.4-1l-.6.2h-.1v.1l-.6.4.4.2v.1l-.1.5h.9v-.2h.1l.5-.8-.5-.5zm-2.8-3.9c-.4.1-.8.4-1.2.8-.2.1-.5.4-.8.5l.8 1.2.2-.1c.6-.4 1.2-.8 1.8-1l-.8-1.4zm-3.2 1.2h-1.4 1.4zm-2.2-1.6c-.5 0-.9 0-1.1.1h-.1v.8-.2l.1.9c.1 0 .5-.1.9-.1s.8 0 .8.2h1.4c.3-.2.2-1.7-2-1.7zm-1.2.9l-.1.6h.1v-.6zm-3.8-1.7l-1.8 1.6 1 1 .2-.2.1-.1c.4-.4.8-.6 1-.9l-.5-1.4zm-3.1 2l-1.1.1v.2l1.1-.3zm.3-2.6l-1.2.8.1.2v.1c0 .2-.1.5-.1.6v.2l1.1-.1h.2c0-.1 0-.5.1-.6 0 0 0-.6-.2-1.2zm-4.4-2.3c-.1.1-.2.1-.2.2v.2l.4-.2-.2-.2zm2-1.9l-1.4.5c0 .4-.2 1-.5 1.1l.1.4.4 1c.6-.2 1-.8 1.2-1.2.2-.2.4-.9.2-1.8zm-5.6.4l-.9.6c.1.2.4.2.6.4l.3-1zm-1.2-1c-.8 0-1.2.4-1.8.9l1 1.1c.2-.2.5-.5.8-.5.1 0 .2 0 .2.1l.9-.6-.2 1h.2l.1-1.1.2-.2c-.2-.5-.8-.7-1.4-.7zm-4 1.1l-.9.2v.1l.9-.3zm-1.4-2.1h-.3l.2 1.5h.1c.4 0 .4.6.5.9l.9-.2-.9.4c.1.1.1.2.2.5l.1.1 1.2-.8c-.1-.1-.1-.2-.2-.4v-.1c-.1-1.7-1.1-1.9-1.8-1.9zm-5.3 0l-1.1 1c.1.1.1.1.5.6l.1.1c.2.1.6.2 1 .2h.2l.2-1.4h-.1c-.2 0-.6-.1-.6-.1s-.1-.3-.2-.4zm-6.4-1.4l-.2.9-.1.5c.4.1.9.2 1.5.4l.2-1.5c-.7-.1-1.1-.2-1.4-.3zm-.3.9l-.5.1v.1l.1.1.4-.3zm-2.1-5.8l-.9.8c0 .1.1.1.2.2l.7-1zm-.2-.9l-1 1 .1.1.1.2.1.1.9-.8-.5 1s.1 0 .1.1c.1 0 .2.1.4.1.1 0 .1.1.1.2l1.4-.6c-.4-.8-1-1-1.5-1.2h-.1l-.1-.2c.2.4.1.3 0 0zm-4.3 2l-.4.4c.1.1.1.1.2.1l.2-.5zm-.8-1.4c-.1 0-.4 0-.5.1-.5.1-.9.4-1 .5l.9 1.2c.1-.1.4-.2.6-.2h.1c.1 0 .2.1.4.2l.5-.4v.6h.1l.6-1.4c-.1 0-.2-.1-.4-.1-.2-.2-.7-.5-1.3-.5zm-4.8-2.3l-1 1c.4.4.8 1 1 1.5l.1.2v.1l1.2-.8c-.1-.1-.1-.2-.2-.4-.2-.5-.6-1.1-1.1-1.6zm-5.4-2.7v1.8h2.6-1.1v-1.9l-1.5.1zm0-6.8v2.1h1.5v-2.2l-1.5.1zm0-6.8v2.3h1.5v-2.2l-1.5-.1zm0-6.7v2.2h1.5v-2.2h-1.5zm0-6.7v2.2h1.5v-2.2h-1.5zm0-6.8v2.2h1.5v-2.2h-1.5zm0-6.8v2.2h1.5v-2.2h-1.5zm0-6.7v2.2h1.5v-2.2h-1.5z"/></g><g id="NEEP_stroke"><path d="M1037.5 377.4c.2-.1.2-.5.2-.8l-.2.8zM1121.2 298c1.1-1.4 3.4-2.9 3.5-4.8 0-.9 0-4.9 1.4-3.1 0 .1 1.5-1.6 1.9-1.9 1.1-.8.2-1.2.1-2.1-.1-1.1 3.4-3.5 4.1-4.2-2.2.1-.2-2.5.2-3.2.8-1.4 3.1-2.2 4.6-2.5 1-.1.9.9 1.8 0 .2-.2 1.4-1.5.9-1.8-.9-.4-1.2-.2-1.1-1.5.1-1 .9-2.4 2.1-2.5-.1 0-.5 1-.5 1.2 0 .2.8 2.9.6 2.9 0 0 3.1-4.2 3.2-4 .4.8-1 1.8-.1 2.5.5.4.4-2 1.6-1.6 1.5.4-.4 1.4-.2 2 .1 1.1.6 1.8 1.2.4.1-.2 2.9-4.9 3.5-3.6.4.9-.9 2.5 1 1.9 1-.4 2.2-.6 3.2-1.1 1.5-.6.9-1.1.6-2.4-.2-1.1 1.1-2.5 1.8-3.4.4-.5 1.6-1.9 1.4-2.6-.2-.6-1.5-1.5-.9-2.2.8-.9 2-1.2 2.9-2 .5-.4.5-2.2 1.1-2 1.2.5 2-.1 1.1 1.6-.1.2-1.9 2.5-1.6 2.8.1.1 1.2-1 1.4-1.1.5-.5.2 0 .6.1 1 .5.2 1.2-.4 1.8-.4.2-.4 1.2-.4 1.6.1.6 1 .6 1.5.9 1 .4 2.6.9.6 1.5-.8.2 1 1 1.5.8 1-.4-.4-2.6-.2-3.2.1-1.5-.6-1.5 1.2-2.2 1-.4.9-1.9 1.1-2.8 2.2-.1 1 1.1 1.6 2.5.2.6 1.4-.5 1.5-.8.2-.9-.4-1.6.8-2 .5-.1 3.1-.1 3.2.2.1.3 1.1 0 1.1.8s-.1 1.5 0 2.2c0 .5.2.8.6.2.8-.8-.6-2-.1-2.6 1.2-1.8 3.2 1.4 3.2-1 0-.8 2.4-2.6 2.9-1.9.5.6.5 1.6 1.2 1 1.1-1 .8.4 1.4.8.4.1.8-1 .8-1.1 0-.9-.8-.4.5-1.2 1.3-.8 1.9.5 2.5-1.1.4-.9.9-.8 1.8-.6 1 .1 2-.4 1 .9-.4.5 2.1-.1 2.2-.2 1.1-.4 1.5-1.1 2.2-1.9 2.8-2.4-1.8-1.1-1.8-2.5 0-.4-1.2-1.5-.9-1.9.8-.5 1.6-.8 2.5-.8 1.9 0-.8-3.1-1.4-4-.6-.9-2.6-3.8-3.4-1.6-.4 1.1-1.9-.4-2.2-.9-.6-.8-.9-2-.9-3 0-.8.9-1.8.6-2.2-.2-.8-1-1.4-1.2-2.1-.5-1.2 1.1-1.1 1.2-2 .1-1 .2-2.1-1.1-2-.9 0-1.8.4-2.6.2-.8-.1-1.4-1.4-2.1-1.6-.5-.2-1.6-.5-1.9-1.1-.5-1 .8-2.5.4-3.6-.6-1.6 1.1-1.6 1.1-3.1 0-.8-.1-1.5-.1-2.4-.2-6.9-.6-13.6-.9-20.4-.1-2.6-.2-5.1-.4-7.8-1.4-1-2.8-1.9-3.8-3.2-1.1-1.5-2.6-2.6-4.1-3.8-.5-.4-3.5-1.9-3.9-.6-.1.4-.1 1.9-.6 1.9-.6-.1-1.2-.2-1.9-.5-1 0-1.6.5-2.4 1-.9.6-2 .5-3 .9-.6.2-1.2.8-2 1-1.4.4-2-.2-3.1-.9-1.8-.9-.5-3.5-.6-4.9 0-2.1-4.2-.8-5-.2-1.6 1-2.2 3.4-3.5 4.8-.8.9-1.2 1.4-1.8 2.4-.4.9-1.8 1.5-2.4 2.2-2.6 2.9-4.6 6.4-7.1 9.4-.6.8-1 2.1-1 3.1-.1 2.2-.4 3.8-1.8 5.5-.8 1.1-1.5 2.2-2.4 3.2-1 1.1-1.1 1.2-.8 2.9.2.9.6 1.9-.4 2.4-1.1.5.2 2.4.5 3 .4.9 0 2.1-.4 3-.2.9-.6.8-1.5.9-2.4.5 0 3-2 4-1.5.8-3 1.2-4.4 2.1-.5.4-1.2.9-1.2 1.5 0 .9-1.1 1.5-1.1 2.1 0 .5 1.9 1 2.4 1.4 1.4.9-1.2 1.1-1.8.1-.4-.8-1.2-.9-1.8-.2-.6.9.1 2.4-.1 3.4-.1.5-.5 2.5-1.1 1.4-.5-.9-.9-1.8-1.4-2.6-.6-1.1-1.2-.1-1.1.8 0 1.2-1.2.2-1.6 1.5.6 12 1.2 24 2 36 .2 3.5.1 7.1.6 10.5.1 1-.1 2.2-.2 3.2-.1 1.6-.2 1.5.9 2.6.5.5.1 1.2.9 1.9.5.4 1.2.8 1.5 1.4.3.6.1 1.4.1 2.1.7.2 2.2 1.1 2.8 1.7zm77.7-47.5c.4.6 1.4.8 1.2-.2-.1-.9-1.1-.4-1.2.2zm-29.6 13.1c.4-2.2 1.6-3.1 3.5-2.1 2.5 1.2-1.5 1.6-2 2.2-.6.8 1 .9.6 1.4-.6.6-1.6 1.1-1.4 2.1.1.2.8 1.6 0 1.4-.5-.1-.9-.5-1.4-.8-.4-.2-.5.1-.6 0-.6-.4 1-1.4 1.1-1.6.1-.2.5-2.4.2-2.6.3-1.4-.1 0 0 0z" fill="none"/><path stroke="#fff" stroke-width="1.174" stroke-linejoin="round" stroke-miterlimit="10" stroke-dasharray="1.7994,3.5988" d="M1108.3 237.9c-1.4 1.1-1.4 2-2 3.6-.4.9-1.4 3.2-2.5 3.2-.1 1.1.9 1.5.9 2.4 0 .5-.5 1.1-.6 1.6-.6 1.2-2 2.8-1.5 4.2.2.8 1.8 3.9.9 4.2-.9.2-.6.9-1 1.6-.2.5-.9.9-1.4 1.2-1.1.9-2.2 1.9-3.4 2.8-1.2.9-2.8-.2-3.8 1.2-1.2 1.8-.8 4.9-.9 7-.4.2-.5.6-.9.9-.9.5.5 1.6-.1 2.2-1.1 1.1-1.2 1.1-1.5 2.9-.4 1.8-2 1.9-2.6 3.1-.2.5-.1 1.2-.2 1.8-.1.8-.6 1.4-1 2-.6 1.1-.9 1.6-.8 2.9.1 1.3.4 2.6.4 4 0 1.2-1.1 1.9-1.1 3 0 .2-.8 1.5-.5 1.6.4.1.5.9.5 1.2-.5.8-.5 1-.1 1.8.6 1.2-1 1.2-1.6 1.9-1.8 1.9.1 4.8 1.2 6.1M1121.2 298c-.5-.5-.2.4 0 0-.6-.5-1.8-1.2-2-2-.2-.6 0-1.5 0-2.1-.2-1.5-2.2-1.6-2.2-3.2 0-.8-1.2-.9-1.2-1.4 0-.4.1-.9.1-1.2.1-1 .6-2.6.2-3.6-.2-.9-.1-2-.2-2.8-.1-2.5-.2-4.9-.4-7.4-.8-12.1-1.4-24.2-2-36.4M1119 303.8M1068.3 305.9c-.8-3.2-.1-6.9 0-10.1.1-3.6.2-7.4.4-11-.4-.2-.6-.5-1-.8-.4-.4 0-1-.2-1.5-.5-.9-2.5 1.4-2.5 1.4-.5-2.1 2-4.9.1-6.5-.9-.9-1.6 2-1.8 2.6-.4 2-1.5 3.1-2.2 4.8-.4.8-.9 2.6-1.8 2.6-1.1 0 .2-2.6.5-3.2.4-1.5 1.8-1.4 2.4-2.8.6-1.4.8-3.1 1.5-4.4.2-.4 2.8-.5.8-1.6-.1 0 .1-1.8.1-2-.2-1.1-1-2-.6-3.4.5-1.6 1.4-3.2 1.9-4.9.2-.8.5-1.5.5-2.2.1-.8-.6-1.2-.9-1.9-.4-.6-.2-2.6 0-3.2.4-1-.4-2.4-.4-3.5 0-1.2.5-2.4.8-3.6.2-1.8.4-3.6.6-5.5 2.1.1 4.5-.9 6.8-.9" fill="none"/><path fill="#fff" d="M1116.9 300.8c-.5 0-1 .2-1.5.6l-1 .5.6 1.4c.5-.2.9-.4 1.2-.6.2-.2.5-.4.6-.4l.1-1.5zm-6.6 3.7l-1.8 1.4.9 1.1 1.8-1.4-.9-1.1zm-7.4 1v1.5l2.2.1v-1.5l-2.2-.1zm-6.8-.1v1.5l2.2.1v-1.5l-2.2-.1zm-6.8-.3v1.5h2.1v-1.5h-2.1zm-6.7-.2v1.5l2.2.1v-1.5l-2.2-.1zm-6.7-.3v1.5l2.2.1v-1.5l-2.2-.1zm-6.8-.2v1.5l2.2.1v-1.5l-2.2-.1zm-3.2 4.6l-.6 2.1 1.4.4.2-.9c.1-.6.4-1.2.4-1.2l-1.4-.4zm-1.8 6.5l-.6 2.1 1.4.4s.1-.4.2-.9l.4-1.2-1.4-.4zm-1.9 6.5l-.5 2c-.1.4 0 .8.1 1.1l.1.1 1.2-.8-.1-.1.5-2-1.3-.3zm5.1 3.5l-.1 1.5 2.2.1.1-1.5-2.2-.1zm6.8.4l-.1 1.5 2.2.1.1-1.5s-.9-.1-1.6-.1h-.6zm6.5-.3v1.5h2.2v-1.5h-.6c-.6.2-1.6 0-1.6 0zm6.7.2v1.5h2.2v-1.5h-2.2zm6.8 0v1.5h2.2v-1.5h-2.2zm8.5.6h-2.2v1.5h2.2v-1.5zm4.4 0h-1.5v2.2h1.5v-2.2zm1.2 5.6l-1.4.4c.2 1 .8 1.9 1.6 2.6l1-1.1-.8-.8c-.1-.3-.3-.7-.4-1.1zm4 4.8l-1.5.1v2c0 .8.6 1.5 1.5 1.5v-2.6c.1-.6.1-.8 0-1zm5.8.3c-.2.2-.3.2-.5.3-.2.1-.4.2-.6.4l-.2.1s-.1 0-.1.1l-.2.1.9 1.2c.1-.1.2-.1.4-.2h.1c.2-.2.5-.4.9-.6l.6-.4-1.3-1zm3.7-3.3c-.2 0-.4.1-.6.2l.6.6-.6-.6.6.6v.1h-.4c0 .1.1.2.2.4h.1c.2 0 .4-.1.5-.1l-.2-.2.2.2-.2-.2.9-.1c0-.2-.1-.4-.2-.5-.1 0-.2-.1-.2-.1-.4-.3-.5-.3-.7-.3zm.5 1.2zm-2 3.1c-.2.4-.6.8-1.1 1.1l.8 1.2.2-.1c.4-.2.8-.6 1.1-1l.1-.1-1.1-1.1zm.1 2.5c-.1 0-.1.1 0 0l-.5.3c-.4.2-.9.5-1.2.8l.4.8c-.1 0-.1 0-.2.1-.4.1-.8.4-1 .8-.2.4-.2.9 0 1.2.4.9 1 1.4 1.9 1.5l.2-1.5c-.2 0-.4-.1-.5-.2l-.1-.1.5-.1c.1 0 .2-.1.4-.1l-.5-.9c.4-.2.6-.4.9-.6.1-.1.2-.2.4-.2l.1-.1-.8-1.7zm6-3.1c-.5.4-.9.6-1.5.8-.1 0-.2.1-.4.1l.4 1.4c.9-.2 1.8-.6 2.5-1.2l-1-1.1zm5.7-1.5c-.6.1-1.2.4-2 .4l-1.1 1c.2.4.8.5 1.1.5h.2l1.4-.2c.2-.1.5-.1.9-.1l-.5-1.6zm6-2l-.2.5c-.2.2-.4.4-.6.5-.2.1-.5.4-.6.5l.4.2.2-.2c.2 0 .2.8 0 1.1l-.2.2c-.1.1-.4.4-.5.6l1.1 1c.4-.4.8-.9.8-.9l.1-.1c.4-.5.5-1.4.5-2 .2-.2.6-.6.8-1l-1.8-.4zm-.5-7.1l-1.1.9s0 .1.1.1c.1.2.4.5.5.8.1.2.2.5.2.8l1.4-.5c-.1-.4-.4-.8-.5-1.1-.1-.3-.4-.7-.6-1zm-4.3-4.4c-.5 0-.9.1-1.2.2-.2 0-.4.1-.5.1l.1 1.5c.5 0 1-.2 1.5-.4l.8-1.2c.2-.1-.2-.2-.7-.2zm0 3.9l-1.1 1c.1.1.2.4.4.5.2.1.1.2.2.4s.4.5.9.9l1-1c-.2-.2-.5-.5-.6-.8l-.1-.2v-.1c-.3-.1-.4-.3-.7-.7.1.1 0 .1 0 0zm1.1 4.8c-.1.1-.4.4-1 .6l.4 1.4.5-.1c.2-.1.5-.2.8-.5.1-.1.2-.2.2-.4l-.9-1zm-6.4.7l-.8 1.2c.6.4 1.4.5 2.1.5v-1.5c-.5.1-1 0-1.3-.2zm-3-5.8l-.8 1.2c.1.2.2.6.2.9l.1.5v.2l1.4-.2-.1-.4c-.1-.6-.2-1.2-.5-1.9.3.2-.1 0-.3-.3zm-2-4.5l-1.2.8s.1.1.1.2l.1.2c.1.4.2.8.5 1v.2l1.4-.6c0-.1-.1-.2-.1-.4-.1-.4-.2-.8-.5-1.1-.1.1-.2 0-.3-.3zm-6.7-5c0 .1-.1.1-.1.1-.2.4-.5.4-1.4.6 0 0 .4.6.9 1.2h.1c.5-.1.8-.4 1.1-.6l.2.5-.2-.4h.1l.2.2c.1 0 .1-.1.1-.1.2.1.9.5 1.4.8l.8-1.2c-1.4-.9-1.9-1-2.2-1s-.6.1-.9.2l-.1-.3zm3.8-5.4c-.9.2-1.2.8-1.5 1.4v.1l1.2.8.1-.1c.4-.6.4-.6.6-.6l-.4-1.6zm1.5-4.8l-1.2.8c.1.1.1.2.2.4l.4.4c.1 0 .1.1.2.2l1-1c-.1-.1-.4-.4-.6-.5.5.3.2.1 0-.3zm-4.6-5.6v1.5c.2 0 .5.2.8.5l.2.2.2.2 1-1.1-.4-.4c-.2-.2-.8-.9-1.8-.9zm9.4 41.3l-1.4.5c0 .1 0 .1.1.2.1.2.1.5.1.6h-.7999999999999999l.1 1.5c.4 0 .8-.1 1.1-.1.8-.1 1.4-.8 1.2-1.5-.1-.2-.2-.7-.4-1.2zm7.3 1.9c-.1 0-.4 0-.6.1-.5.1-1 .1-1.4.1v1.5c.5 0 1.1-.1 1.5-.2l.5-1.5zm4.3 1.5l-1.5.2v.4c-.1.1-.2.2-.6.2h-1v1.5h1.1c1 0 1.5-.4 1.8-.8 0-.2.3-.9.2-1.5zm-34.4.4v1.5c.1.1.1.8 0 1.2 0 .1-.1.2-.2.2l.9 1.1c1.2-1 1-2.8.8-3.2-.2-.4-1-.8-1.5-.8z"/><path stroke="#fff" stroke-width="1.174" stroke-linejoin="round" stroke-miterlimit="10" stroke-dasharray="1.7994,3.5988" d="M1097.5 345c-.1-1 1-3 1-3v-15.8M1060.7 353.4c-.4-.3.8-.2 0 0-5.5-3.8 3.6-3.5 2.6-5.9-.4-1-.4-.6-1.1-1.2-.2-.2-.1-.5-.1-.8 0-1.1.1-2.2.2-3.4.4-5.6.8-11.4 1.1-17M917.7 362.5v25.7h98.30000000000001v-.5c.6-1.1 1.4-2.5 2.8-2.9 1.4-.2 3.5-.4 4.1 1.2 1.2-1.1 2.8-1.4 4.2-2 .6-.2 1.2-.2 1.9-.5.8-.4.5-1.4.6-2 .2-.9 2.8-1.8 3.5-2.2.7-.4 1.2-1.1 2-1.6.9-.8 1.4-.2 2.4-.5l.2-.8c-.1-1.4-1.8-3.8-2.5-4.9-.5-.8-1-1.8-1.9-2-.4-.1-2.1.1-2.2-.1-.2-.8.2-4.1-.8-4.2-.2-.1-2.1.1-2.1-.4-.1-1 .2-1.8-.1-2.8-.4-.9.4-1.8.5-2.6.1-.8 1.1-1 1.5-1.6.4-.5 1.1-.9.6-1.6s-1.1-1.5-1.5-2.4c-.2-.5 3-2.2 3.5-3 .9-1.1 1.4-2.6 2.4-3.6-.6-1.5 1.5-3.5 3.1-3.5.6-2.1-3.2-2.8-4.8-3.1-.9-.1-1-1.5-1.5-2.1-1-1.1-1.6-1.2-1-2.8.5-1.2-.8-1.9 0-3 .6-.9-.9-2.6-1.9-2.6-1.4 0-2.5-.6-2.5-2.1 0-.9-2.4-.8-1.5-2h-92.2v-6.9M1048.6 366.8c-.8-.8-.2-3 .5-3.6.7-.6 2.6 0 3.2-.8.5-.6 1.2-2.6 1.4-3.4.2-1.6 1-3.1 1.1-4.8-3.6-2.2-7.2-4.5-10.9-6.8-1.6-1-3.2-2-4.9-3-1.6-1.1-4.8 1.4-4.1 3.1M938.9 388.4v13.4c.9.1 1.9-1 2.5-1.6.4-.4.5-.6 1-.6 1.1 0 .6-.5 1.2-1.1.5-.6 1.9-1.2 2.5-1.8 1.4-1.1 1-2.1 3-1.2 2.1.9 3.6-4.4 5-3.5.8.5 1.8 1.6 2.6 1.6 1.1.1 2.2 0 3.4-.1 1.8-.4.1-1.2.4-1.6.5-.5 1.5-1.5 2.2-1.2.9.2 2.1 1 2.6-.2.4-1.1.8-1.6 2-.8.9.6 1.6 1.2 2.5 1.9.6.5 2.6-.4 2.8.5.2 1.2.5 2 1.2 3.2.9 1.4 1 2.4 1.4 4 1.5 0 3.2.8 4.5 1.6 2 1.5.1 1.8.4 3.8.4 2.5 3.4 1.4 4.6 2.6.5.5.8 1.5 1.2 1.9.5.2 1.5.1 2 .4.2-.1-.2-.1 0 0 1.1-.9.8-1.4 2-.2.8.6 2.4 1.4 1.5 2.4" fill="none"/><path fill="#fff" d="M1020.2 383.4h-.9c-.8.1-1.5.4-2.1.8l.8 1.2c.1-.1.2-.1.4-.1l.5-.1h.6v-1.8h.7zm-4.1 5.7h-1.5l.1 2.2h1.5l-.1-2.2zm.2 6.8h-1.5l.1 2.2h1.5l-.1-2.2zm.3 6.7h-1.5l.1 2.2h1.5l-.1-2.2zm.3 6.8h-1.5l.1 2.2h1.5l-.1-2.2zm.1 6.7h-1.5l.1 2.2h1.5l-.1-2.2zm.5 6.5v1.5h2.2v-1.5h-2.2zm6.7.2v1.5h2.2v-1.5h-2.2zm6.5-3.4c0 .1 0 .4-.1.6-.1.5-.4 1-.5 1.4l1.4.6c.5-1.1.8-2 .8-2.6h-1.6zm-1.6-2.2l1.4.4-1.4-.4 1.4.4-1.4-.4zm.6-1.7c-.1.1-.1.2-.2.5l-.1.5v.1c0 .1 0 .1-.1.2l1.4.4c0-.1.1-.4.1-.4v-.1c0-.2.1-.6.2-.6h.1l-1.4-.6zm-2.2-5.7l-1.4.6v.1l.1.1 1.1-.9c.8 1.2.4.7.2.1zm-3.5-5.8v.4c.1.4.2.8.4 1l1.4-.6c-.2-.5-.2-.9-.4-1.2v-.2l-1.4.6zm-.9-7l-1.1.9c.2.2.5.6.6.9l.1.1 1.1-1c.2.3-.2-.1-.7-.9zm-2.2-3.1c-.1 0-.1.1 0 0zm.4-2.8l-.9 1.1c.6.5.5.6.4 1.6l-.1.1-.1.1.1.1-.5 1c.2.1.5.2.8.2s.4 0 .6-.1c.4-.2.8-.6.9-1v-.2c.1-1.1.1-2-1.2-2.9zm-1.2 4l.5-1-.5 1zm2.8-8.3c-.2 1-.6 1.5-1 2l1.1.9c.5-.6.9-1.4 1.1-2.4v-.1l-1.2-.4z"/></g><g id="SEEA_stroke"><path stroke="#fff" stroke-width="1.174" stroke-miterlimit="10" stroke-dasharray="1.7994,3.5988" d="M751.7 602l8-80.6c-.5-1.8-.9-3.5-1.9-5.1 17.9 0 35.8 0 53.6.1 1.6 9.9 3.1 19.9 4.8 29.8 1.1 6.8 2.1 13.5 3.2 20.4.4 2.2.8 4.4 1 6.6.1 1.1.2 2.4.6 3.4.5 1.1.8 2 1 3.2.2 1.4 1.2 2.5 2 3.6.6 1 .5 2.2 1 3.4.2.6-.1 1-.4 1.5-.3.5.6 1.1.9 1.5.8.9 1.1 1 .2 1.8-.6.6-2.1 1.5-2.4 2.5-.1 1.1-.1 2.2-.1 3.4 0 1-1 1.2-1.2 2.1-.1.5 0 1 0 1.5 0 .4-.6.4-.6.9 0 1.1.4 2.4.6 3.5.5 2.4 1.6 4.2 1.2 6.9-.1 1.2-.6 2.4-.8 3.8 0 .5 0 1.2-.2 1.8s.6.9.1 1.6c-.5.7.6 2 1.2 2.6.6.6.5 1.6.6 2.5l-.1.2h-53.5c0 1.2-.4 2.2-.5 3.4s.2 1 1.1 1.9c.6.6.5 1.5 1 2.1 1.5.8 3 1.8 2.1 3.6-.4.8-.4 1.2-.2 2.1.1 1.2.8 1.1 1.2 2.2 0 0-.2.5-1.1 1.9-.8 0-1.9.2-1.9.2l-.6.6c-.4.5-1-.5-1.1-.4-.4.5.2 1.2-.4 1.9-.5.5-2.4 1.4-3 .9-.2-.2.5-.6.2-1-.9-1-1-.9-1.1-2.2-.1-.6-1.4-.4-1.9-.8l-.6-2.1c-1-.5.1-2.2.2-3 .1-1.2-.8-1.5-1.8-2-1.6-1-2.4 4.4-2.5 5.6 0 .4-.5 4.5-1.6 3.4-1.5-1.4-2.2-1.8-4.4-1.5l-.4.4-1.5-40.1zM730.5 478.9l-2.1 2c-.2.6 2.1 1 1 1.6-.2.1-1.9.4-1.9.8 0 .9.8 1.6 1 2.4.1.4-1.4 1.4-1.4 2.2 0 .1-1 1.5-1.2 1.6.5.6 1.4 1.8.1 2.1-1.6.4-.6 1.4 0 2.2l-1.9 1.8c-.8.1-4.1.8-2.8 1.9.6.6 1.6 1 1.1 2.1-.4.6-1 1.8-1.9 1.6-1.6-.4-.1 3-1.2 2.6-.9-.2-1-.9-1.8 0-.2.2-1.5 2.9-.8 2.4.2-.1 1.5-1.5 1.8-.9.3.6 0 1.5 0 2.1l-1.5 1.4c-.1.2 1.2.6 1.4 1.1.2.8.4 1.5.4 2.2 0 .6-2 1.2-2.2 2-.2.9.2.9-.8 1.2-.5.1-2.2.5-1.5 1.2h43.4M811.5 516.4h27.1l-.1-4.4c.8-.4 1.1-4.4 2.8-2.4.4.5 1.6-.1 2.1-.4.8-.4.6-1.6 1.1-2.2.6-.6.2-1.4.5-2 .4-.6 1-1.2 1.5-1.8 1.1-1.1 1.6-1.5 3.2-1.5 1.1-.8 2.8-.8 4-.5.4 0 1.5.4 1.8 0 .8-1 1.1-1.5 2.4-1.9 1.4-.4 2.4-2 3.9-2.5.9-.2 1.4-1.5 2.1-1.5.4 0 .2-.5.4-.5l1.5.6c.9-.8 2.5-2.1 1.9-3.2-1.6-2.5 2.1-.5 2.5-1 .2-.4 0-1 .4-1.5.5-.6 1.1-1.1 1.9-1.5.5-.1 1.5-.1 1.8.4.2.6-.8.9.4 1.2 1 .4 2.2-.6 2.8-1.5.9-1.6 1.6-2.1 3.2-2.6.8-.2 3.4-.6 3.2.6 0 1.4 2.5-.5 2.8-1.2.5-1.5 1.4-3 2.4-4.2.6-.8 1.4-1 2.2-1.1.1 0 1 .1 1 .1.2-.2-.5-1.2-.4-1.8.1-.4.5-1.4.8-1.6.4-.5 0-.6-.1-1.2s.5-1.5.5-2.2" fill="none"/><g stroke="#fff" stroke-width="1.174" stroke-linejoin="round" stroke-miterlimit="10" stroke-dasharray="1.7994,3.5988" fill="none"><path d="M1010.5 474.1h-96.5c-6.9 0-13.8-.8-20.6-1.2-13.6-.1-27.2-.4-40.9-.5M886.6 447.5c.8.1.9.4.8 1.1-.1.7.2 1 .5 1.6.2.8.4 1.4.8 2.1.5.9 1 1.8 2 2 .5.1 1 .1 1.5.4s1 1.1 1.5 1.5c1.5 1.1 2.9-1.4 4.2-1 1.2.2 1.1-1.1 2-1.5.8-.2 1.9 1.5 2.6 1.8 1 .4 3.1-1 4.1-1.4 1.1-.5.9-.2 1.8.2.2.1 2.2-1.2 2.1-1.4-.1-.8-.5-2.1.8-2.4.6-.1 1.8.9 2.5 1 .4 0 1-1.1 1.2-1.4.4-.4 1.8-.1 2.1-.1 1 0 1 .1 1.8.6.2.1 1.9-.9 2.1-1.1.9-.6 1.1-.9.5-1.8-.8-1.1 1.5-1.5 2-2.1.4-.6-1.4-.9-1-1.6.4-.9.6-2 1.1-2.8.6-1.4 1.6-2.8 2.5-4 .4-.5.8-1.1 1.1-1.6.3-.5 1.1-.5 1.5-1 .5-.6-.4-1.9.5-2.1.8-.1.4-1.9.9-2.2.4-.2 2.9-2.2 2.4-2.8-1-.8 1.6-3 1.9-4.1.2-1 .2-3.4 1.1-4.1.2-.2 1.9.4 2.1.6 1 .8.9 2.1 2.2 2.8 1 .5 2.1.9 3.2.4.9-.2 1.1-1.5 1.6-2.1.8-.8.5-1.2.6-2.2.1-1.1 1.6-1.2 1.9-2.4.4-1.2.8-2.2 1.4-3.2.8-1.2 1.1-.6 2 .2.1.1.5 1 .9.6.5-.4.9-.8 1-1.4.1-.8.8-1.9 1.4-2.5.6-.6 1.4.5 2.1-.2.4-.4.6-.6.9-1 .6-.9 1.8-3.4 2.9-3.8 1.9-.6 1.6-2.6 1.8-4.2 0-.6 0-1.5.5-1.8.4-.2.9-2.5.8-2.6.6.4 1.5.1 2.1.8.8.6 1.5 1.2 2.2 1.9 1.6 1.4 3.2 2.6 4.9 3.9.5.4 1.5 1.9 1.6.2.1-1.1.5-2.1 1.2-3 .8-.8-.4-1.5 1-1.4"/></g><path stroke="#fff" stroke-width="1.174" stroke-miterlimit="10" stroke-dasharray="1.7994,3.5988" d="M962.5 546.1c-1-.6-1.4.4-2.2 1-.8-.2-1-.6-1.8 0l-23.2-25.5-23.6-.6c.1-1.1.4-2.5 0-3.6-.4-1.4-1.8-2.6-2.4-3.9-.5-1.1-1.9 1.5-2.8.9-.4-.2-.2-.9-.4-1.2-.1-.6-.9-.9-1.1-1.4-6.9-.2-13.6-.4-20.5-.5-.9 0-2.4.2-3-.5-.4-.4-1.9 1.4-3 0-.1-.1-1.5 1.1-2 1.1-.9.2-1.9.1-2.6.6-1.4.8-2.2 1.4-3.8 2-.9.4-5.4.9-5.4 1.9-8.8.2-17.5 0-26.2 0M823.7 621.8c.6.6.5 1.6.6 2.5l-.1.2c.2.8.4 1.6 1.1 2.1.9.6.8 1 .8 2s0 1.9.1 2.9c0 .5 1 .8 1.5.9l53.8 4.1c.1.6 1.5 2.5 1.4 2.8-.2.8-.6.5-.2 1.4.2.8.6 1.1 1.2 1.4 3.1 1.4 1.1-4 2.9-4.4l-.1-2c-.9-.9-.6-3.6-.1-4.6.1-.2 1.1-.6 1.4-.8 1-.5 1.1-.4 2 0 2.1 1.1 5.5 2.5 8 2.1-.6-1.4 1-3.2.5-4.2M907.2 600.6c1.4 1 .9-1.6 1-2.4.1-.8.5-.5.9-1s-.1-1 .4-1.2c-.5-.1-1.8-1.1-2.2-.9-.9.4-1.2 0-2-.6-1.8-1.5.4-3-.2-4.8-.4-1.1-2.4-2.9-1.8-4.2.5-1.1.4-.9-.6-1.6-1-.7-.8-1.4-2.1-1.8-1.8-.5-1.9-2.6-1.6-4.2.1-1 .5-.9.1-1.9-.2-.8-.8-1.5-.9-2.4-.4-1.4-.4-3.9-1.8-4.6-.9-.5-4.6-1.6-4.9-2.8-.1-.8.9-1 0-1.5-1.1-.5-1.1-1.5-1.9-2.4-.8-.9-1.5-1.4-1.2-2.6.3-1.2.1-1.5-.6-2.5-.8-.9-1.5-1.9-2.5-2.5-.9-.5-2-.6-2.4-1.6-.4-1.1-.5-2.4-1.2-3.2-.8-1-2-1.8-3.1-2.4-1.2-.9-3.5-1.6-3.5-3.4 0-.9-.5-1.4-1-2.1-.6-1-1-2.4-2-3.1-.9-.6-.9-1.1-.9-2.1-.1-1.2-.5-2.2-1.2-3.4-.5-.8-.4-2.5-1.1-3-.7-.5-2.1 0-3-.1-.8-.1-1.2-1-1.8-1.5-.9-.8-1.8-1.5-2.6-2.2-1.4-1.1-3-1.6-2.4-3.6.1-.5.6-.8.9-1.1.5-.8.9-1.8 1.4-2.4.6-.8 1.2-.6 2-1.1.5-.2.4-1.4.4-1.9M714.5 520.1c.1.2-2 .1-2.2.1-.6-.1-.9-.5-1.1.4-.2 1-.8 1.9-1.2 2.8-.8 1.2.4 2.6-.9 3.1-.5.2.8 1.8 0 2.4-.5.4-.4 1.2-.5 1.9-.1.8-.6 1.4-1.1 2-.9 1-1.9 1.9-3 2.8-1.5 1.2-.1 2.6-1 3.8-.2 0-2.4.5-2.4.2 0 .5 1.4 1.5 1.6 2 .5 1-1 1.2-1.8 1.5-1.1.5-1.9.2-1.5 1.6.4 1-.2 2.2-.6 3.2.2.5 1 1.2.2 1.4-.9.2-1.9-.2-2.2.6-.3.8 3.9 0 1.4 2.5-.6.6-1-.9-1.8-.4-.8.6.1.9-.2 1.6-.2.4-1.2 1-1.1 1.2.2.4 2.4 2.4 1.5 2.8-.9.2-1 .1-1.1 1.1 0 1 1.2.2 1.4.9.1.8.1 1.5.1 2.2 0 .6 1.6.5 1.4 1.1-.1.2-.2.6-.4.9s.2.6.2.9c0 1.6-1.2 1.2-2.4 1.8-.8.4.9 1.2 1 1.6.2.9-.4 1.1-.8 1.8l-.5.2c-.4.6-.9 1.8-.1 2.1 1.4.8 1.2-.1 1.4-1.1.1-1.2 1.2-.2 1.2.6.1 1.8-.5 1.6-1.5 2.9-.9 1-.5 1.2.5 2 1.1.9 1.4.8.4 1.8-.2.2-1.8 2.4-.9 2.5.2 0 2.8-.4 2.6-.1-.4 1.2-1.2.8-.6 2.1.4.9-2 .6-.4 1.9 1 .8 1.6.9 1.6 2.4 0 .5 2.4.5 2.1 1.1-.1.5-2 .1-2 .5 0 1.5.2 1.6-1.4 1.9-1 .2-2 .5-2.6 1.4-.8 1.1 3 1 3.2 1.1.4.5-2.4 1.5-2.1 2.4.1.4 1.2.5.9 1-.2.4-.9.6-1.2.9-1.1.8-1.2 2-2.4 2.8-.9.6-2.4 1.1-2.4 2.4 0 1.4-.1 1.8-1.2 2.6-1.1 1-1.8 1.8-.8 3.1 1.2 1.6-.2.6-.9 1.8-.1.2.4 2.1.2 2.6-2.1.6-1.4 2.4-1.1 4.1-.6 0-1.8-.1-1.6.9.2 1 .1 1.8.2 2.8 0 .6-.2 1.8.5 1.9.9.1-.1 1.4-.1 2h39c-.2 1.6-.8 3.2-1.4 4.9-.4.9-.9 2.5-1 3.4-.1 2.9 1.8 4.9 3.4 6.9-.1.4 0 1 .1 1.5.1.8.8 1.1.8 1.8.1 1.1 1.1 3 .9 4M636.7 570.4h58.9l.5-.2c.4-.5.9-.6.9-1.2 0-.8-1.4-1.1-1.2-1.8M726.1 491.5c1.2-.4.5-1.6-.1-2.2h-13.1c.4-2.1 1.8-3 3-4.6.8-1 2.1-1.8 3-2.6.1-1.1.2-2.4-.2-3.4l-1.6-3h-92.2c0 5.9 1.4 11.9 2.1 17.6.6 4.9.8 10 .9 15 .5 14.9.9 30-.6 44.9.2 0 1.6-16.1 0 0 1.1-.1.8 1.5 1.8 1.9" fill="none"/></g><g id="MEEP_stroke"><path fill="#fff" d="M917.1 325.6l-2 .9.5 1.4c.6-.2 1.2-.5 1.9-.9l-.4-1.4zm-6.1 2.4c-.8.2-1.4.4-2.1.6l.4 1.4c.8-.2 1.5-.4 2.1-.6l-.4-1.4zm-6.5 2c-.8.2-1.4.5-2 .8l-.2.1.5 1.4h.2c.6-.2 1.2-.4 1.9-.6l-.4-1.7zm-6.5 3.6c-.5.6-1 1.2-1.5 2.1l1.2.8c.2-.4.5-.8.8-1l-.5-1.9zm-3.8 4.6c-.5.2-1.1.4-1.8.4l.1 1.5 1-.1c.2-.1.6-.1.9-.2l-.2-1.6zm-7.6 0c-.4 0-.8 0-1.1.1l.4 1.4h.1c.1 0 .4 0 .5-.1h.2c.4 0 .8.1 1.1.1l.1-1.5-1.4-.1c.4.1.2.1.1.1zm-5.4 1.8c-.8.2-1.4.5-2 .6l.4 1.4c.4-.1.8-.2 1.1-.4h.2l.6-.2-.3-1.4zm-7.5-.2l-.6 1.4c.2.1.4.2.6.4l.2.1c.4.2.8.4 1.1.5l.5-1.4c-.4-.1-.6-.2-1-.4l-.2-.1c-.2-.3-.4-.4-.6-.5zm-5.7-.3l-.9 1.1c.1.1.2.1.4.2.5.4 1 .8 1.5.9l.5-1.4c-.3-.1-.8-.2-1.5-.8zm-5.9-4.3l-.4 1.4c.6.1 1.1.4 1.4.4.1 0 .2.1.4.2l.2.1 1-1.1c-.4-.4-.8-.5-1-.8-.4.2-.8.1-1.6-.2zm-5.8-1.6c-.1.2-.1.6.1.9l.5-.5-.6-.4zm2.7-1.6l-2.6.1h-.1v1.5h.1l.6.4-.5.5c.1.1.1.2.2.2.1.1.2.2.5.2l.8-1.2c-.1 0-.1-.1-.1-.1l1.1-1.6zm-7.4.4l-2.2.1v1.5l2.2-.1v-1.5zm-6.7.2l-2.2.1v1.5l2.2-.1v-1.5zm-6.8.3l-2.2.1v1.5l2.2-.1v-1.5zm-6.6.2l-2.2.1v1.5l2.2-.1v-1.5zm-4.3 5.5v2.2h1.5v-2.2h-1.5zm-.1 6.8v2.2h1.5v-2.3h-1.5v.1zm-.1 6.7v2.2h1.5v-2.1l-1.5-.1zm0 6.8v2.2h1.5v-2.2h-1.5zm-.1 6.7v2.2h1.5v-2.2h-1.5zm0 6.8v2.2h1.5v-2.2h-1.5zm-.2 6.7v2.2h1.5v-2.3l-1.5.1zm0 6.8v2.2h1.5v-2.2h-1.5zm-.1 6.7v2.2h1.5v-2.2h-1.5zm0 6.8v2.2h1.5v-2.1l-1.5-.1zm2.9 5c-.1 0-.4.1-.5.2l1 1.1c.2-.2.4-.2.4-.2l-.9-1.1zm5.7.7c-.2.1-.5.2-.8.5l.6 1.4 1-.5-.4-.8-.4-.6zm.5-.1c-.1 0-.2 0-.4.1l.4.6.6-.4c-.1-.1-.1-.2-.2-.2-.2-.1-.2-.1-.4-.1zm.3 1.4zm3.3 1.7l-1.5.2v.2c.1 1.1.8 1.9 1.1 2.5l1.1-.9c-.2-.2-.4-.5-.6-.9-.1-1-.1-1-.1-1.1zm2.9 5.5l-.5 1.4c.9.4 1.8.5 2.6.5v-1.5c-.7 0-1.3-.1-2.1-.4zm6.3 1.6l-1 1.1c.1.1.5.4.8.8l.8.8 1-1-.6-.6c-.4-.4-.8-.8-1-1.1zm5.7.8c-.2 0-.5.1-.6.4l.6.5v-.9zm.1.1l-.1.9-.6-.5c-.1.1-.1.2-.1.4l.9.4v.4c.1 0 .4.1.6.1l.4-1.4h-.1l-.5-.1c-.3-.2-.3-.2-.5-.2zm5.2 1.9l-.6 1.4c.6.2 1.1.4 1.8.4h1.1v-1.5h-1.1c-1-.2-1.1-.3-1.2-.3zm7.7-3.1c-.1 0-.2.1-.4.1-.5.2-1 .5-1.4.9l.9 1.2c.6-.4 1.1-.8 1.6-.9l-.7-1.3zm1.8 3.2l-1.5.1v.4c0 .8.4 2.1 2.4 2.5l.2-1.4c-.6-.1-1.1-.4-1.2-1 .1-.2.1-.5.1-.6zm4.9 3.8l-1.2.6c.2.4.2.9.2 1.2l-.1 1.5 1.5.1h.1l.1-1.5h-.1v-.6c-.3-.7-.4-1-.5-1.3zm6.3.3c0 .1 0 .2-.1.4 0 .1 0 .1-.1.2-.1.4-.6.4-1 .4h-.2l-.1 1.5h.4c1.4 0 2-.6 2.4-1.2.2-.5.2-.9.4-1.2l-1.7-.1zm2-3.6l.1 1.5-.1-1.5.1 1.5-.1-1.5zm2.1-2.1l-1.4.4c.1.5.2.9.1 1.2l.1 1.5c.9-.1 1.4-.5 1.6-.9.2-.6-.2-1.7-.4-2.2zm-.2-5.7c0 .1-.1.2-.1.4l-.1.6c-.1.4-.4.6-.5.9l1 1c.2-.4.8-.9 1-1.6.1-.4.2-.6.2-1l-1.5-.3zm3-3.4l.3.6-.6.5s.1.2.2.6l1.4-.4c0-.1 0-.1-.1-.2-.1-.2-.2-.5-.4-.6-.1-.1-.2-.2-.4-.2l-.4-.3zm3.6 2.2c-.4 0-.6.2-.6.6h.6v-.6zm.2 0v.9h-.6s-.1.1-.2.1l.9 1.1c.2-.2.5-.5.6-.8l.2-.4v-.5h-.4v-.8h-.1c-.2.4-.3.4-.4.4zm1.1-5.7c0 .2 0 .5-.1.6l-.1.6c0 .1-.1.2-.1.2l-.2.2.6 1.2-.8-1.2.8 1.2-.8-1.2.8 1.2c.2-.1 1-.5 1.1-1.5l.2-1.6-1.4.3zm4-3.9c0 .1 0 .2-.1.4-.4 0-.9-.2-1.4-.2l-.1 1.5c.1 0 .4 0 .5.1.4.1.6.1 1.1.1 1.1 0 1.9-.8 2-1.8l-2-.1zm2.7-3.1h-.4l.4 1-.1.2s.2.1.2.2c.1.1.4.4.6.5l.9-1.2c-.1-.1-.2-.2-.5-.4l-.2-.2s-.1 0-.1-.1h-.8zm6.9-2.4c-.1.2-.1.5-.2.6-.1.2-.2.5-.5.6h-.1l.8 1.2c.1-.1.2-.1.4-.2 1-.6 1.2-1.5 1.5-2.1v-.1h-1.9zm4.1-3.5c-.1 0-.2 0-.4.1l.8.9-.4-1zm.8-.8c-.1.4-.4.8-.8.8l.1 1.1-.8-.9c-.1.1-.2.1-.2.2l1 .9c.9-.1 1.5-.6 1.9-1.6l-1.2-.5zm.6-6.2c-.1.2-.2.5-.5.8l-.2.5v.1c0 .1-.1.2-.1.4l1.4.4c.1-.5.5-1.1.8-1.6l-1.4-.6zm2.4-6.4c-.1.2-.1.6-.2.9v.1c-.1.2-.1.6-.2.9l1.4.5c.2-.6.4-1.4.6-2.2l-1.6-.2zm2.4-6.2c0 .8-.4 1.4-.8 2.1l1.2.8c.5-.8.9-1.6 1-2.8l-1.4-.1zm.2-6.4l-1.5.2c0 .1 0 .2.1.4l.1.5.2.6.2.5 1.4-.5c-.1-.2-.2-.5-.2-.8-.1-.3-.3-.7-.3-.9zm3.1-3.9h-1.5v2.2h1.5v-2.2zm0-6.7h-1.5v2.2h1.5v-2.2zm0-6.8h-1.5v2.1h1.5v-2.1zm0-6.7h-1.5v2.3h1.5v-2.3zm0-6.8h-1.5v2.3h1.5v-2.3zm0-6.7h-1.5v2.3h1.5v-2.3z"/><g stroke="#fff" stroke-width="1.174" stroke-miterlimit="10" stroke-dasharray="1.7994,3.5988" fill="none"><path d="M828.7 334.8v-1.8h-42.2M712.2 202.4c-.2.9.6.8 1.2.9.9.2 1.6 1 2.4 1.5.8.6 1.2 1.4 1.5 2.2.1.4.1 1.8.6 1.9 2.9.5 6 .6 8.9 1.5l11.8 4c1.1.2 2 .6 3 1l2.8 1.4c.5.1 1.4.8 1.8.9.6.1.4-.6 1-.2.6.4 1.5.5 2.1.8.5.2 1.9-.8 2.4.1.4.6 1.5-.4 2.1-.1.6.3 1.1.6 1.9.6 1.1.1 2.5.4 3.6.8 1.4.5 1.1 2.6.5 3.5-.5.8 1.8 1 2.2 1.1 1.4.2 2 .5 3.1 1.5.2.2 1.1.9 1.1 1.2-.1.6-.4 1 .2 1.5-.9 1.4.4 3-.9 4.2-.6.6-1.6 1.6-.6 2.4 1 .8 1.4.2 2.2-.2.6-.2 2.8-.2 1.9.9-.5.6-1.4 1.6-1.5 2.2-.1.9.5 1.8.8 2.5.4 1 .2.8 1.4 1.1 0-.4-.8-.2 0 0"/></g><path stroke="#fff" stroke-width="1.174" stroke-miterlimit="10" stroke-dasharray="1.7994,3.5988" d="M694.9 286.1h-108.3c-.9.2-3.2-.2-2.8 1M584 307.9c1.1.4 2.2 3.2 1.6 4.4l.4.4c2.5-.2 1.8 2.9 1.9 4.5.2 1.6 1.9 1.5.6 3.4-.8 1.1 2.1 2.1 2 3.2-.2 1.8.4 2.1 2 3 .5.2.4 1 .4 1.6 0 1.1.4 2.1 1.2 3 1.8 1.6-1.5 4.8-.1 6.4.2.2 2.5 2 2.1 2.1-1.6.9 1.5.9 1.4 1.8-.1.8-.6 1.5-.4 2.2.1.5 1.5 1.4 1.2 1.9-.9 2-.9 2.4.8 3.8.5.4.5.6.1 1-.6.9-.6 1.4-.4 2.5.2.6.5 1 .4 1.6-.1.9.2 1.1.4 2 .2 1.4-.9 2.9-.8 4.2.1.8.9 1.2 1.5 1.6.8.5.8 1 .8 2 22.4-.1 44.9-.1 67.2-.2h16.2c.4 0 1.1 1.2 1.4 1.6.6.6 1 1.5 1.8 2M766.7 313.1l-59.4-.6c-.4 1.4 2.1 3 3.1 3.6.6.4 1.2.5 1.5 1.2.4.9-.2 1.9.6 2.6 1.2 1 2.4 1.8 3.8 2.5 1.1.6.9.9.9 2 0 .5.5.6.6 1.1.1.6 0 1.2-.2 1.9-.4 1.4-.2 2.6-1.2 3.6-1.4 1.5-2.8 2.9-2.4 5.1.2 1.6-2.2 2.8-3.4 3.2-.6.2-1.4 0-2 .5-.8.6-1.8 1-2.6 1.4-1.9.8-4.1.2-6.1.8-.8.1-1.1 1.1-1.1 1.8 0 1-.9 1.2-1.1 2.1-.4 1.1.4 2.4 1.2 3.1.5.5 1.6.6 1.8 1.4.5 2.1.4 4-1.1 5.8-1.4 1.6-1.2 1.2-1.5 3.2-.1.8-.4 2.1-.8 2.8-.9 1.1-2 1-3.2 1.4-.8.4-1.4.9-2.2 1.2-.2.1-.1 1.5-.1 1.8 0 .3.5.5.5 1v2.7h-1.9c.4 1-.8 3.4-.9 4.2-.2 1.8.2 3.9.8 5.5.2 1.2.8 2.5.9 3.8l1.1 3.1c.1.9-.2 2.4 1 2.5 1.9.1 3.1 2 4.4 3.2 1.8 1.9 3.2 3.9 5.4 5.2 1.9 1.1 2.5 2 2.9 4.2l.8 5c.1 2.1.9 3.4 2.9 4.4.6.2.4-1.1.4-1.4 0-1 .8-1.4 1.6-1.5 1.1-.1 3.6 1 4.8 1.5 1.9.8 3 2.4 1.4 3.9-.9.9-.8 3-1.1 4.1-.4 1.5-1.2 2.6-1.8 4-.6 2-2.5 3.4-1.6 5.8.5 1.5 1.6 2.8 2.8 3.9.8.5 1.5.9 2.1 1.4.9.6.8 1.5 1.1 2.4.1.4 2.1.4 2.5.5 1.5.5.1.8-.2 1.1-.8.9 1.9.4 2.1.4.9-.1 2.4.9 3 1.5.9.8.5 2.1 1.5 2.8 1 .8 2.6.9 2.8 2.4.1 1.1-.2 2.4.1 3.5.2 1.2 1.1 2.2 1.4 3.5.2 1.4-1.2 1.9-1.6 2.9-.2.8.8 1.8 1.2 2.2.4.4.9 1.1.9 1.8 0 1.1 1.4 2.4 2.1 3.1 1.1 1.1 1.4.4 1-.6-.4-1.4 1.2.2 1.6.6.4-.5.8-1.4 1.2-1.8.8-.5.5-.6.6-1.5.4-1.5 1.5-1.8 2.8-1.8 2 0 3 .8 4.8 1.6 1.4.6 2.2.9 3.2 2 1.1 1.1 3-.1 3.4-1.4.4-1.1-1.2-3-1.6-4-.8-2 .2-2.6 2-3 1.1-.2 1.2-1.1 2-1.9.4-.4.9-.1 1.4 0 1 .1 2.6-.1 3.5-.8.8-.5-1.2-2.5-1.5-3-2-2.8 3.6-3.8 2.1-5.9-1.1-1.5.2-1.9.2-3.2.1-1.1.1-2.4.5-3.5.2-1.1 1.9-1.5 1.4-2.9-.6-1.6-.4-1.9.6-3.2 1.2.4 1.2-.6 1.8-1.5.6-1 1.2-2.4 2-3.4.5-.6 1.5-.6 1.6-1.6.2-1 .4-2.1.8-3.1.2-.8 1.9-.5 1.9-1.2 0-.5.5-1 .4-1.5-.1-.9-.8-1.6-1-2.6-.1-.9.4-1.9.5-2.8.1-.9-1.2-2.2-1.6-3 0-.8-1.2-2-.8-2.5 1-1 1.1-1 .8-2.4-.5-1.9-.2-3.1 1.8-3.4v-64.4M601.2 364.4c0 .9-.2 2 .6 2.4.9.5.6.9 1 1.8s.8 1.6.9 2.5c.1.6-1.4.9-.4 1.4 1.1.5 1.5 0 2.4.9.5.5 1.5.5 1.5 1.1 0 1.2.1 1.5.9 2.4.6.9.5 2.2.4 3.4.1 0 1.1-.5 1.2-.2.5 1 .6 1.1 1.6 1.5.5.2 1.1 1.4 1.5 1.8.6.5 1.4 1 2.1 1.4.9-.1 1.4-.4 2.1-.8s2.4 1.6 2.1 2.1c-.5.9 1.5 2.4 0 2.2l-1.2-.2c-.1 0-.8 1-1 1.2-1.5 1.1-2.2 4.2-.8 5.8.9.9 1.9 1.6 2.6 2.5.5.6.4 1.9.4 2.6.9-.4 1.4-.2 1.2.8-.1 1.2.5 1.6 1.5 2 .4.1.8.4 1.1.4.2 0 .5-.9.6-.6.2.5 1 .6 1.2 1.2v58M611.2 381.5c-.8-.4-1-.1-1.4-1-.5-1-.5-.6-1.5-.4 0 .1 1-.2 0 0v.2l-137.1.1v81.8h153.8M429.5 299.2v54.1h41.5v27" fill="none"/><path fill="#fff" d="M583.9 219.5h-2.2v1.5h.9c0 .2 0 .5-.1.8 0 .1 0 .4-.1.5l1.5.1c0-.4.1-.9.1-1.2v-.5h-.1v-1.2000000000000002zm-6.8 0h-2.3v1.5h2.2l.1-1.5zm-6.7 0h-2.2v1.5h2.2v-1.5zm-6.8 0h-2.2v1.5h2.2v-1.5zm-6.7 0h-2.2v1.5h2.2v-1.5zm-6.8 0h-2.3v1.5h2.2l.1-1.5zm-6.7 0h-2.3v1.5h2.2l.1-1.5zm-6.8 0h-2.2v1.5h2.2v-1.5zm-6.7 0h-2.2v1.5h2.2v-1.5zm-6.8 0h-2.3v1.5h2.2l.1-1.5zm-6.7 0h-2.3v1.5h2.2v-1.5h.1zm-6.8 0h-2.2v1.5h2.2v-1.5zm-6.7 0h-2.3v1.5h2.2l.1-1.5zm-6.8 0h-2.3v1.5h2.2l.1-1.5zm-6.7 0h-2.2v1.5h2.2v-1.5zm-6.8 0h-2.2v1.5h2.2v-1.5zm-6.6 0h-2.3v1.5h2.2l.1-1.5zm-6.8 0h-2.2v1.5h2.2v-1.5zm-6.7 0h-2.2v1.5h2.2v-1.5zm-6.7 0h-2.2v1.5h2.2v-1.5zm-6.8 0h-2.2v1.5h2.2v-1.5zm-6.8 0h-2.3v1.5h2.2l.1-1.5zm-6.7 0h-2.2v1.5h2.2v-1.5zm-4.5.7h-1.5v2.2h1.5v-2.2zm0 6.8h-1.5v2.2h1.5v-2.2zm0 6.8h-1.5v2.3h1.5v-2.3zm0 6.7h-1.5v2.1h1.5v-2.1zm0 6.7h-1.5v2.2h1.5v-2.2zm0 6.8h-1.5v2.2h1.5v-2.2zm0 6.8h-1.5v2.2h1.5v-2.2zm0 6.7h-1.5v2.2h1.5v-2.2zm0 6.7h-1.5v2.2h1.5v-2.2zm0 6.8h-1.5v2.2h1.5v-2.2zm0 6.8h-1.5v2.2h1.5v-2.2zm0 6.7h-1.5v2.2h1.5v-2.2zm.5 3.4v1.5h2.3v-1.5h-2.3zm6.7 0v1.5h2.2v-1.5h-2.2zm6.8 0v1.5h2.2v-1.5h-2.2zm6.8 0v1.5h2.2v-1.5h-2.2zm6.7 0v1.5h2.3v-1.5h-2.3zm6.7 0v1.5h2.2v-1.5h-2.2zm6.8 0v1.5h2.2v-1.5h-2.2zm6.8 0v1.5h2.2v-1.5h-2.2zm6.7 0v1.5h2.2v-1.5h-2.2zm6.7 0v1.5h2.2v-1.5h-2.2zm6.8 0v1.5h2.2v-1.5h-2.2zm6.8 0v1.5h2.3v-1.5h-2.3zm6.7 0v1.5h2.2v-1.5h-2.2zm6.7 0v1.5h2.2v-1.5h-2.2zm6.8 0v1.5h2.3v-1.5h-2.3zm6.8 0v1.5h2.3v-1.5h-2.3zm6.7 0v1.5h2.2v-1.5h-2.2zm7.1 1.7l-1 1.1c.2.2.6.5.9.6l.6.2c.1 0 .2 0 .4.1l.2-1.5c-.2 0-.4-.1-.5-.1-.1 0-.3-.1-.6-.4zm5.6 3l-.8 1.2c.6.4 1.2.8 2 1l.5-1.4c-.7-.2-1.1-.4-1.7-.8zm5.9-.4c-.4 0-.8.1-1.2.2l.5 1.4.2-.1h1.4l-.1-1.5h-1.3.5zm8.1-.4h-.2l-1.9.1.1 1.5h.30000000000000004l1.5-.1h.4l-.2-1.5zm5.4.7l-1 1 .2.2.1.1.9.9.5-1.4c-.2-.1-.6-.5-.9-.8.5.3.4.1.2 0zm5 2.3l-.2 1.5.2-1.5zm0 0l-.2 1.5.2-1.5-.2 1.5h.30000000000000004c.5.1 1.1.1 1.6.4l.8-1.2s-.1 0-.1-.1c-.8-.4-1.6-.5-2.2-.6h-.2zm6.5 4.3l-1.4.5v.1l.1.2c.1.2.2.4.4.6v.1l.1.2 1.1-.9-.8-1.2c.6.7.5.5.5.4zm1.9-.3l-1.2.8c.1.2.4.8.5 1.1.1.3.2.6.4.9l1.4-.6-.2-.5c-.1-.2-.2-.6-.4-1-.4-.6-.4-.7-.5-.7zm-2-5.7c-.1.1-.2.4-.4.6-.2.4-.6.9-.9 1.4l1.2.8v-.1c.1-.2.2-.5.4-.6.2-.4.4-.6.6-.9l.1-.1-1-1.1zm2.4-6.9c-.9.6-1 1.5-1.2 2.1 0 .1 0 .1-.1.2l-.1.5 1.4.4v-.5c.1-.4.1-.8.4-1l.1-.1-.5-1.6zm-1.9-5c-.5.9-1 2.2 1.2 3.8l.8-1.2c-.6-.4-1.2-.9-1-1.5v-.1l-1-1zm.4-6.3c-.6 0-1.2.2-1.5.8-.5.8-.1 1.6.5 2.8l1.2-.8s0-.1-.1-.1c-.1-.2-.4-.6-.4-.9 0-.1 0-.2.1-.2h.6000000000000001v-1.5h-.4v-.1zm1.1-3.4v2.2h1.5v-2.3h-1.5v.1zm0-6.7v2.2h1.5v-2.3l-1.5.1zm0-6.8v2.2h1.5v-2.2h-1.5zm0-6.8v2.2h1.5v-2.1l-1.5-.1zm0-6.7v2.2h1.5v-2.3l-1.5.1zm0-6.7v2.2h1.5v-2.1l-1.5-.1zm0-6.8v2.2h1.5v-2.3h-1.5v.1zm-.4-5.8l-.5 1.4c.4.1.8.4 1.1.9l1.1-.9-.4-.4c-.4-.6-.8-.8-1.3-1zm-5.1-4l-1.1.9.1.1c.1.2.4.5.6.9.1.2.4.5.6.9l1.1-.9-.1-.2c-.1-.1-.2-.4-.4-.5-.1-.1-.2-.2-.2-.4-.3-.2-.5-.5-.6-.8zm.7-6.7c-.8.4-1.2.9-2 1.8l-.1.1 1.1.9v-.1l.5-.6c.1-.1.2-.2.5-.4 0 0 .1 0 .1-.1l-.1-1.6z"/><path stroke="#fff" stroke-width="1.174" stroke-miterlimit="10" stroke-dasharray="1.7994,3.5988" d="M583.9 219.5c-.1-2 .8-3.4.4-5.4-.1-.6-.5-.9-.5-1.6 0-1 .1-2.1-.4-3-.4-.8-1-1.4-1.5-2s-.6-2.1-1.1-2.6c-.9-.6.5-2.1-.2-3-1-1.1-1.5-.9-.9-2.4.2-.6.1-1.8-.4-2.4-.6-.6.4-1.6.5-2.4.1-.9-.1-1.8-.5-2.6-.2-.5-.9-.8-.8-1.4 0-.4.6-.2.6-.8 0-1-.8-1.9-.8-3v-7.1000000000000005c-1-.9 0-4.2-.4-5.6-.1-.5-.6-.8-.8-1.2-.2-.4.1-1.5-.2-1.9-.2-.2-.4-1.1-.6-1.2-.5-.1-.9-.4-.9-.9-.1-.9-.1-2-.5-2.9-.2-.6-.9-.8-1-1.5 0-.6 0-1.2-.1-1.9-.1-.9-1-1.5-1.4-2.2-.1-.5-.1-1.1-.1-1.6 0-2.1-.1-4.2 0-6.4 0-1.5-.2-2.9.1-4.2.2-1 .9-1.5.6-2.5-.2-1.1-1.1-1.8-1.4-2.8-.4-1.9-1.4-4-1.2-5.9M676.6 197.9l.1-.1c-.6.1-1.1.5-1.5.9-.4 1.4-.6 1.8-2 1.9 0 4.9-.1 9.6 0 14.5 0 1.4-1.4 2.1-2.6 2.5l-4.6 2.4c-2 .9-2.2 1.9-2.8 3.8-.1.5-.9.9-1.2 1.2-.8.6-1.4 1.5-1.4 2.6 0 .5-.2 1.8.4 2 .6.2 1.6 0 2 .5.6.9 2.6 3 2.4 4-.2 1-.8 1.4-1.4 2.2-.6.8-.6 2-1 2.9-.2.9-.1 1.6.4 2.4.6 1 0 1.1-.5 2.1-.5.9-.1 3.1.1 4 .4 1.4-.4 3.1-.2 4.6.1.9.9.9 1.6 1.2 1.1.6 1.9 1.9 2.8 2.8 1.1 1.2 2.6 1.1 4.1.9.6.9 1.4 1.8 2 2.5.9 1 2.5.9 3.8 1.6 1.8 1 4.1 2.2 4.6 4.4.2 1 .6 3 2.2 2.8 1.2 1.5 3 3.2 4.9 3.8 1.9.6 3.2 1.5 4 3.2.2.5.5.9.9 1.2.6.8.6 1.4.9 2.2.1.5-.1.8-.4 1.1-.2.6.1.9.4 1.5.4 1.5.1 3.4.1 4.9.1 1.1.6 2 1 3.1.2.8.2.8 1 1.1 1.4.6 1 1.8.9 3-.1.5-1 1-1.4 1.4-.4.6-.2 1.2-.2 2 .1 1.4.4 2.8.6 4 .2 1.2 1.1 2.1 1.2 3.5.1 1.4 1.2 3.6 2.9 3.8 1.1 0 2.5.2 3.6.6.6.2 1.2.4 1.9.6s.2.9.9 1.2c.2.6.2 1.4.2 2" fill="none"/><path stroke="#fff" stroke-width="1.174" stroke-miterlimit="10" stroke-dasharray="1.7994,3.5988" d="M761.3 440.5c.5.8-.4 1.2-1 1.6-1 .6-1.4 1.1-1.6 2.4-.2 1.1 2.4 4 1.8 4.5-.5.4-1.4.5-2 .6-.6.1-2.1-.2-2.6 0-1.1.6-1 1.9-2.6 2.1-1.4.1-2.1 1-1.8 2.5.6 2 2.9 3.9.9 5.6-1 .9-1.9 1.1-2.8 0-.8-.9-1.4-.8-2.4-1.4-1.6-1-4.9-2.9-6.9-1.9-.8.4-1.5 1.6-1.4 2.5 0 .2-1.6 2-1.9 2.4 2 1.5 2.5 2.6.9 4.6-.6.8-.4 1.5.2 1.9 1.1.8-1.4 1.2-1.6 1.4-.4.2.8 2.5.5 3.1-.4 1.2-.9 1.6-1.9.8-.9-.8-1.2-1.6-2-.2-.5.9-.8 1.8-1.2 2.5l28.9.1v-4.5l91.6 1.2c2.5-1.1 5.6-2.9 8.2-3 2.2 0 2.5-1.9 3.8-3.2.8-.8 3.2-.9 4.2-1.1.4-1.6.8-2.5 2.2-3.2 1.1-.5 1.1-1.5 1.5-2.5.4-1 1.6-1.8 2.5-2.4 1.6-1.1 4.9-1.5 6-3.2 1.1-1.9 2.5-2.6 4.1-4 1.1-1 2.4-2.9 0-2.8-1.1.1-1-1.1-1.9-1.6-1.2-.9-2.4-1.6-2.9-3l-1.5-3.2c-.4-.9-1.8-1.9-1.9-2.8-.1-1-.1-1.1-.8-1.9-.8-.8-1.5-1.6-2-2.5-.9-1.5.9-2.8.9-4.4 0-1.1-.5-1.8-.8-2.9-.2-1 .2-1.8-.4-2.6-.5-.6-1.1-1.9-1.9-2-1.1-.2-1.5-.1-2.4-.8-.8-.5-.6-4.5-1.6-4.5-1.5 0-3.5 1.8-4.4 3-.4.6-1.6.5-2.2.5-.4 0-.9.1-1.2.2-.5.1-.9-.6-1.2-.8-1.4-.5-2.9-1.4-4.4-1.5-.8-.1-.9.8-1.2 1.2-.8 1.2-1.5.6-2.4-.1-1.4-1-2.6-2.8-4.4-3.2-.6-.2-1.6.1-2.2.1-1 0-1.9-.4-2.8-.8-1-.4-1-.8-.9-1.8 0-1.1-.5-1.5-1-2.5-.4-.8-.1-1.2-.6-1.9-.4-.4-.8-.2-1.1-.2-.9 0-1-.6-1.4-1.4-1-1.5-3.2 1.8-4.6.2-.8-.9-1.1-1.9-2.4-1.2-.5.2-2.2 1.4-2 2.1.4.9 1.1 1.6.5 2.6-.5.8-.2 1 .6 1.2 1.2.5.5.5.4 1.5-.1.6.1 2-1.1 1.6-1.2-.4-1.8-.4-2.6.4-.8.6-1.9.2-2.5 1.1-.4.5-1.6 1.1-2.2.8-1.1-.9-1.5-1.1-2.9-.8-.4.1-2.5.1-2.5.6l.8 2.1c-.1 1 1.1 1.2.4 2.4-.5.8-1.4.9-2.1 1.2-.8.2-1.6.6-2.2 1.2-.6.6.4 1.8.1 2.5-.2.6-1.2 2-1.8 2.5-1.1.9-1.9-.5-2.9-.4-.6.1-.1 2-.6 2.5-1 1-1.2 1.4-1 2.8.1.9.1 1.2-.5 2-.4.5-2.1 1.4-2.9 1-1.1-.6-3.2-.8-4.1-1.8-.8-.9.4-2.1-.8-2.9-.9-.6-1.5.1-2.1.9-.5.6-.2 1.6-.9 2.1-.8.8-1.5 0-1.8 1.2-.1.4-.2 2.1-.6 2.2-.9.2-1.4.6-2.1 1.1-1.1-.8-2.1-1.5-2.6-2.8h-.2c0-.6-.5-.2-.9.1-.8.6-1.1.8-2 .9-1.2.1-3 4.1-3.1 4.1-.8-.2-1-1.2-1.6-1.6-1-.5-2-.6-3-1-1.8-.8-1.9-2.4-3.4-.6-.6-.1-1.2-.2-1.9-.2-.2 0-.6-.6-.8-.5-.4.2-.6 1-.5 1.5.1.5-.1 2.2-.6 1-.5-1.4-1.2-.8-2.2-.6-1.4.1-2.2-2.8-2.6 0 0 .2.1 1.6-.1 1.8-1.4.7-1.8.2-3.1.2.2.1.4 0 0 0z" fill="none"/></g><g id="SWEEP_stroke" stroke="#fff" stroke-width="1.174" stroke-miterlimit="10" stroke-dasharray="1.7994,3.5988" fill="none"><path d="M429.5 353.4h-104.3.2l-.2 108.7 125.4.1h20.5M283.6 259.1h.2v67.3h-.2l.2 26.8 41.4.2M325.2 615.9v-153.7h-104.2M208.9 515.9l.2.2.1 3.6c1.2 1.1 4.2 3.8 4 5.5-.1.9.8 2 1.1 2.8.4.9.4 2 .6 3 2.4 1.1 6.6 3.5 3.5 6.2l-3.6 2.9c-.6.5-.9.8-.9 1.6 0 1.1-.5 1.1-1.2 1.8-1.5 1.2-1 2.5-.5 4.1.5 1.9 1.1 3-.5 4.4-1.1.9-.5 2.8-.9 4-.1.6-1.1 1-1.2 1.8 0 .5-.8 1.2-1.1 1.6-1.5-.6-.1 1.4-.8 1.8-1 .5.5 1.8 1 2-.9.9.4 1.4 0 2.2-.5 1.2-1.2 2.1-.4 3.5.6 1 2 1 3 1 .8 0 .6 1.4 1.2 1.8.2.1 0 2.2 0 2.5l-1.1 2.4c-.2 2.1-3 .9-4.2 2h.1c-.2.5-.5 1-.6 1.5-.1.4-.8.5-.8 1M97.6 326.2v81.6l111.4 108c.2-.2.9-1.5.6-1.9-.6-.8-.6-1.2.2-1.6 1-.4 1.1-2.9.1-3.4-.5-3.4-1.9-6.6-.9-10-.4-.9-.9-1.8-1-2.6s-.1-1.5-.2-2.2c0-.8.8-1.5.2-2.1-1.2-1.6-1.5-3-.8-5 .5-1.4 1.5-1.5 2.8-2 .4-.1 1.1-.5 1.6-.4.4.2.8 1.6 1.5 1.1 1.9-1.2 2 .4 2.8 1.6.2.4.9 1.2 1.5 1 .5-.1 2 0 1.9-.9-.2-1.6 1-2.5 1.6-3.9l-.1-157.5"/></g><g id="NEEA_stroke" stroke="#fff" stroke-miterlimit="10" fill="none"><path stroke-width="1.174" stroke-dasharray="1.7994,3.5988" d="M429.6 137.5v108.2h-145.7l-.1 13.9s-1.4-.5-1.8-1-.4-.9-.8-1.2c-.4-.2-1.2-.9-1.4-1.1-.2-.2 0-.9-.4-1.2-.4-.3-.8-.6-.9-1.1-.1-.4.1-.9-.4-1-.5 0-.9-1.1-1.5-.6s-1.5.9-1.5 1.2c0 .3.1 1.1-.4 1.5s-.9 1.2-.6 1.5c.2.4 1 .9 1 1.1 0 .2-.4.6-.8.8-.4.2-1 .1-1.1-.1-.1-.4-.2-.6-.8-.6-.5.1-2.6.4-2.9.5-.3.1-1.5.8-1.8.6-.2-.2-2.5-1-2.5-1s-.9.8-1.1.6-.2-.8-.6-.5c-.4.4-.9.6-1.4.5s-1.9-1-2.1-.8c-.4.2-.1 1-.5.8-.5-.4-.1-.5-.5-.5s-1.1.5-1.4.6c-.1.1-.2.1-.6 1.2-.4 1-.1 1.4-1.9 1-1.6-.4-2-1-3.5-1s-3.2-.6-4.1.4-1.2 3.2-1.5 3c-.3-.2-1.2-1.6-1.9-2-.8-.4-1.9-1-1.9-1.2 0-.4 1.5-.8.6-1.1-.8-.4-1.5-.9-1.5-1.2 0-.2.1-1.1.2-1.4.1-.4-.6-1.2-.9-1.9-.3-.7-2.2-3.6-3-3.2-.9.4-1.5 1.5-1.9 1s-1.6-1.9-2.1-2.1c-.4-.2-.9-1.1-.8-2 .1-.8 1.2-1.1 1.1-1.6-.1-.5-1-1.1-1.1-1.9-.1-.8.1-1.2-.9-1.5-1.1-.2-2.9-2.4-2.9-2.4s-1.1-4.9-1.6-5.2-1.5-1-1.1-1.2c.4-.4 1.5-.5.6-1.4-.8-.9-1.5-1.6-1.5-2.2 0-.6-.2-1.1-.5-1.2-.4-.1-1.4-2.6-2.6-1.8-1.1.9-2 1.6-2.6 2.5-.6 1-2 1.2-2 1.2s-2 .2-2.2 1.1c-.2.8-1.2.5-1.6-.1-.4-.5-3.6-1.6-3.6-2.2.1-.5.8-2.1.8-2.1s-1.8-2.1-.8-3 1-1.6 1.2-1.9c.4-.2 1.5-.6 1.6-1.1s.6-2.6.1-2.9c-.5-.3-1.4-.1-1.2-.9 0-.8.4-1.8.1-2.1-.1-.4-.6-1-.5-1.2s.8-.5.8-.8c0-.3-.8-2-.2-2.5s1-1.6 1-2.1c0-.6-.2-1.5.2-1.6.5-.2.5-1 .5-1.5s-1-.8-.4-1 1.5-.1 1.4-.9c-.1-.9-.5-1.9-.1-2 .5-.2.4-1.4-.1-1.8-.4-.2-2 .2-2.1.5-.1.3-1.1.1-1.1.1s-3 .4-3 .1c0-.4.1-2-.5-2.6-.5-.6-1.8.8-1.8.8s-.8.6-.6 0c.2-.6.6-1.1.1-1.4-.5-.3-1.5-.6-1.9-1-.4-.4-1.6-.8-1.6-1.2s.1-1.8 0-1.9c-.2-.2-4.5-3.9-4.9-4.6-.2-.8-.4-1.1-.5-1.4-.2-.2-1.8-.8-2.1-1.2-.2-.5-.2-1.6-.8-2.2-.5-.5-3.1 0-3.4-.4s-1.6-2.5-2-2.9-2.9-1-2.2-1.5c.7-.5.8-.5.5-1.1-.4-.6-1.8-1.9-1.2-2.1.5-.1 1-.8 1-1 .1-.2.1-1-.2-1.5-.5-.5-1.1-1.4-1.6-2.1-.5-.7-1.2-1.1-1.2-1.6s.1-1.1 0-1.2-1.2-.1-1.4-.2c-.1-.2-.5-.8-.6-1.1-.1-.2-.5-1.2-.9-1.5-.4-.3-1.8-1.4-1.8-1.4l-.1-.1.1-26.9M159.8 326.8l.1-48.4s-1-.4-.5-.6c.5-.2 1-1.5 1-1.5s.8-1 .9-1.6c.1-.5-.1-2 .1-2.1.2-.1.5-.5.5-.8 0-.1-1.5-1.6-1-1.6.4 0 1.2-.4 1.2-.8.1-.4.2-.9.4-1s-.1-.5-.4-.9c-.3-.4-2.2-2.1-2.4-2.1-.2 0-.2.4-.5.2-.2-.2-.2-.8-.9-.6-.5.1-1.4.1-1.6 0-.2-.1-.5-.8-.5-1v-5.1s.8-.5.9-.6c.1-.1.1-.9.4-1.4.2-.4.9-1.1 1.1-1.6.2-.5.9-3.2 1.2-3.4.4-.2 1.4-.2 1.6-.5.2-.3 3.2-4.4 2.8-5.1-.4-.7-1.1-.8-.8-1.1.3-.3 1-1 1.1-1.5.1-.4.8-1.1 1.2-1.6.5-.6.9-1.4.9-1.8 0-.5 0-1.5.2-1.9.2-.4.5-1.9 1-2.8.5-1 2.2-4.6 2.6-4.8.4-.2 1.2-1 1-1.9-.2-.9-.5-1.8-1-2.5s-.5-2-1.5-2-1.9-.8-2.5-1.1c-.5-.4-2.6-1.4-2.9-2.2-.3-.8-.5-2.1-.5-2.1l-.2-.4s.2-.6-.2-1.1c-.5-.4-1.9-1.2-1.5-1.6.5-.4 1.4-1.2 1-1.9-.2-.6-.6-1.4-.6-1.6 0-.1.1-1.5-.1-1.6-.2-.1-1-1.1-1-1.2-.1-.1-.9-1-.9-1.6 0-.5 1-1 .9-1.5-.1-.4-.6-1.1-.8-1.4-.2-.3 0-60 0-67.6M22.5 213c.2-.8 1.6-.1 2-1 .1-.1-.1-.2-.4-.4 1-.2 2.2-.5 2.6 0 .5.8.9.8 1.5 1.4.8.6.8.6 1.1 1 .2.4 1.4.1 1.5.1.1-.1 2.5-1 2.6-.6s.1.8.6 1 2 .1 2.1.5.9.8 1.1 1c.2.2.6.5.8.9.1.5.5.9.5 1.5l.8 1.2c.2.4.4.1.5.8 0 .6.4 1.4.4 1.4l.1 1.6s-.1.9.1 1.2c.1.4 1.2 3.6 1.6 4 .4.2 1.2.5 2.1.6.9.1 1.9.1 3.5.6s4.4.8 4.8.5c.4-.1 2.8-1.2 3.2-1.2.5-.1 2.5-1.6 2.5-1.6s2.5-2.6 3-1.9c.5.7.5 1.1 1.4 1s2.2-1.1 3.5-.9c1.1.2 2.4.8 4 .9s2.8.6 3.1 1c.3.4-.2 2.1 1.2 1.2 1.4-.9.4-1.2 2.2-1.1 1.9 0 4-.2 4.4-.5.4-.3 2.1-1 2.6-1 .4 0 2.5-1.5 3.2-.6.7.9 4.9.4 4.9.4s2-.8 2.9-1c.8-.4 2.8-2 4-2s2.5-.2 3.5-.4 3.4-.9 3.4-.9 5.2-.8 5.8-1.1c.6-.3 6-2 7.1-1.9 1.1.1 42.9 0 44.1 0l.2.4"/><path stroke-dasharray="2,4" d="M282.9 327.1h-272.5"/></g></g><g visibility="hidden"><style>path:hover { transition-duration: .65s; }</style><a xlink:href="northwest.html"><image overflow="visible" enable-background="new" width="107" height="99" id="neeaBubble" xlink:href="images/neeaBubble.png" transform="translate(136.5 174.5)"><set attributeName="visibility" to="visible" begin="NEEA.mouseover" end="NEEA.mouseout"/></image></a><a xlink:href="northeast.html"><image overflow="visible" enable-background="new" width="118" height="109" id="neepBubble" xlink:href="images/neepBubble.png" transform="translate(1022.5 295.5)"><set attributeName="visibility" to="visible" begin="NEEP.mouseover" end="NEEP.mouseout"/></image></a><a xlink:href="southcentral.html"><image overflow="visible" enable-background="new" width="107" height="87" xlink:href="images/speerBubble.png" transform="translate(381.8 609.801)"><set attributeName="visibility" to="visible" begin="SPEER.mouseover" end="SPEER.mouseout"/></image></a><a xlink:href="southwest.html"><image overflow="visible" enable-background="new" width="107" height="85" xlink:href="images/sweepBubble.png" transform="translate(232.5 411.5)"><set attributeName="visibility" to="visible" begin="SWEEP.mouseover" end="SWEEP.mouseout"/></image></a><a xlink:href="southeast.html"><image overflow="visible" enable-background="new" width="134" height="75" xlink:href="images/seeaBubble.png" transform="translate(908.5 532.5)"><set attributeName="visibility" to="visible" begin="SEEA.mouseover" end="SEEA.mouseout"/></image></a><a xlink:href="midwest.html"><image overflow="visible" enable-background="new" width="134" height="75" xlink:href="images/meeaBubble.png" transform="translate(526.5 253.5)"><set attributeName="visibility" to="visible" begin="MEEA.mouseover" end="MEEA.mouseout"/></image></a></g></svg>