<svg xmlns="http://www.w3.org/2000/svg" xmlns:xlink="http://www.w3.org/1999/xlink" viewBox="0 0 279.471 308.628"><style>path:hover { transition-duration: .56s; }</style><a xlink:href="texas.html"><path id="TX" fill-rule="evenodd" clip-rule="evenodd" fill="#288585" onmouseover="evt.target.setAttribute('fill', '#fce149');" onmouseout="evt.target.setAttribute('fill', '#288585');" d="M2.472 144.718c1.173.147 3.68.683 4.339 1.756.34.558.281 1.146.378 1.761.078.504.434.49.482 1.029.097 1.212 1.103 2.52 1.754 3.484.812 1.209 1.816 2.201 3.326 2.332 1.372.115 1.185.507 2.165 1.271.855.669 1.808 1.446 2.479 2.305.635.808.9 1.644 1.694 2.356 1.056.943 2.161 2.336 3.493 2.822.896.327.19 2.043.918 2.703.714.678 1.543 1.258 2.319 1.864 1.034.8 1.881 1.814 2.812 2.729.692.684.924.643 1.82.742 1.212.139 1.75 1.01 2.807 1.747.651.454 1.965.791 1.913 1.716-.071 1.271.461 1.85 1.49 2.322.433.197 1.843 1.908 1.571 2.398-.589 1.061-.063 1.648.532 2.816.781 1.525 1.888 2.779 2.782 4.234.867 1.41.559 3.62.4 5.21-.18 1.779.439 3.188 1.12 4.856.282.695.112 1.388.351 2.016.156.404.631.432.958.594.555.273.438 1.186.413 1.662-.04.759 1.104 2.371 1.522 2.945.63.867 1.479 1.612 2.296 2.291.688.575 1.242.525 2.089.715 1.458.318.992 1.697 1.942 2.402 1.797 1.307 3.582 2.637 5.372 3.956.835.337 1.965.846 2.879.607 1.043-.271.78.471.839 1.419 1.188.67 2.392 1.645 3.71 2.004 2.099.569 2.696 2.309 4.306 3.472.481-.399 1.134-.292 1.439.261.454.82 1.053.564 1.913.643 1.897.17 1.985-.392 2.698-2.139.226-.562.697-.688 1.118-1.092.636-.615.934-1.46 1.582-2.058.335-.304 1.061-.544 1.315-.92.416-.616.273-1.851.469-2.578.258-.96.992-1.923 1.373-2.862.271-.66.255-1.221.147-1.903-.167-1.038.545-1.716 1.037-2.547.768-1.292 1.016-2.856 1.759-4.218.45-.826.943-.609 1.697-.997.272-.161.564-.282.873-.359.416-.044.568.567.86.53.397-.049.546-1.4 1.23-1.068.416.205.917 1.082 1.482.795 1.13-.574.914-3.067 2.394-3.41.537-.12 1.321 1.123 1.699 1.42.751.597 1.748 1.096 2.729.786.667-.216 1.4-.656 2.067-.229.828.525 1.489.889 2.49.553 1.136-.383 3.098.124 4.199.43 1.074.302 4.023-1.275 4.632-.134.282.535.785.875 1.057 1.41.434.846.466 1.824.805 2.7.385.997 1.907.368 2.618.098.313.616.745 1.505.558 2.21-.215.768 1.194.818 1.443 1.379.308.684 1.599.145 2.041.75.827 1.141-.224 2.326 1.458 3.152 1.745.863 3.166 2.125 4.011 3.854.344.71 1.175 1.087 1.631 1.729.738 1.042 1.186 2.457 1.429 3.709.333 1.713.199 3.338 1.261 4.762 1.056 1.41 1.728 3.198 2.439 4.792.721 1.612 1.41 3.234 2.077 4.864.278.688.489 1.354.618 2.088.172.984.848 1.596.92 2.543.195 2.488 1.839 3.616 3.948 4.576 1.994.908 1.308 4.492 3.228 5.278.225.089.769-.175.916.067.312.52.155 1.434.41 2.03.547 1.288.984 1.963 1.225 3.373.215 1.271 2.565 2.277 3.512 2.928.727.499 3.088 1.658 3.252 2.642.292 1.797.762 3.635.696 5.466-.024.661-.836 1.396-.522 1.972.439.812 1.096 1.132 1.349 2.07.603 2.16-.896 3.773.533 5.857.379.552.101 1.28.439 1.9.56 1.028 1.413 1.746 2.253 2.523 1.65 1.523 2.599 5.363 2.523 7.492-.046 1.369 1.029 2.475 1.314 3.795.249 1.154.529 2.309 1.904 2.475 1.848.221 5.326-.045 6.257 2.013 1.237 2.748 3.346.724 4.983 2.272.675.639 1.657 1.051 2.391 1.68.948.813 2.203 1.32 3.36 1.752 2.478.926 4.887 1.284 7.512.929 2.028-.274 4.028.989 5.511 2.354 1.993 1.838 2.168 3.612 5.168 2.099 1.838-.926 3.18-1.263 2.856-3.711-.171-1.283-1.19-2.053-1.763-3.139-.515-.98-.43-2.318-.654-3.393-.172-.826-.327-2.069-.979-2.686-.689-.65-1.684-1.062-1.445-2.209.522-2.515.92-3.876.1-6.337-.318-.957-.585-1.945-1.021-2.856-.427-.895-1.484-1.397-1.718-2.418-.212-.928 1.106-.781.438-1.877-.267-.439-.992-1.787-.478-2.268.646-.602 1.201-.512 1.603-1.541.259-.66.461-1.359.691-2.029.302-.871 1.359-3.037-.332-2.682-.601.13-1.79.629-2.324.09-.705-.7-1.312-1.043-2.228-.598-2.251 1.092-.804-.488.027-1.308.643-.638-1.447-3.772-.898-3.974.281-.109 1.932 1.931 2.223 2.182.807.697 1.56-.669 2.229-1.055 1.221-.701 1.439-.328 2.277.454.311.296.655.138.698-.274.078-.728-.482-1.365-.857-1.922-.764-1.133-.437-1.838.915-2.188.982-.252.991-.611 1.535-1.367 1.718-2.396.818-3.718-1.743-4.908-.873-.409-2.111-.93-2.776-1.63-.535-.558 1.024-.962 1.327-1.061.962-.319 1.994-.562 3.013-.534 1.271.031 1.777 1.361 2.841 1.432.4.027 1.129-1.306 1.414-1.598.945-.971.809-1.748-.046-2.753-.428-.503-3.482-3.418-1.533-4.016 1.082-.332 2.315-.634 3.243-1.315.729-.521 1.267-1.276 2.025-1.766 1.716-1.105 1.448 3.121 3.095.108.211-.388 1.031-1.712.539-2.139-.613-.535-1.639-.948-1.909-1.784-.261-.794 1.42-1.966 2.033-2.227.54-.225 1.161 2.475 1.697 2.965.611.557 3.938-.54 4.825-.777 2.332-.634-2.19-2.537-2.689-3.148-.409-.499 1.58-1.024.397-1.86-.646-.448-1.188-1.177-1.619-1.827-.241-.363-1.006-1.505-.313-1.832 1.705-.787 2.135-.959 3.208.735 1.671 2.646 1.013-.638.888-1.747-.271-2.376 3.341.637 3.351 1.527.017 1.393 1.008.145 1.524-.296.711-.603 1.395-.503.652.327-.78.871.733 1.689 1.457 1.77 1.001.112 1.783-.462 2.622-.916 1.415-.763 2.82-1.689 4.366-2.156 1.221-.373 2.523-.373 3.732-.764 1.136-.354 1.873-1.571 2.663-2.38.966-.992 2.228-1.59 3.423-2.26 1.994-1.118 2.537-1.837 3.396-3.894.367-.881.702-1.68.506-2.637-.363-1.796.036-1.262 1.368-.902.876.238 3.511-2.265 3.804-3.01.394-.997-.438-2.092-.576-3.086-.159-1.131-.221-1.68-1.161-2.434-.616-.498-1.894-1.375-.992-2.237.992-.947.241-.821-.349-2.038-1.217-2.503 2.274-.234 3.083-.01 1.308.369.74-3.162 2.437-3.467.772-.148 2.273-.857 2.348.472.069 1.289.075 2.78-.665 3.89-1.567 2.344.653 1.936 2.416 1.598.278-.054 2.042-.732 2.185-.236.273.979 1.024.389 1.088 1.198.066.853 2.305-.772 2.587-.907 1.257-.602 2.511-1.047 3.707-1.77.979-.594 2.403-1.531 3.613-1.384.946.122 1.703.651 2.725.431.772-.16-.544-1.283-.757-1.584-.597-.831-1.416-2.049-1.172-3.136.298-1.356 3.031-3.895 4.343-4.308l.112-.255c-.407-.94.238-2.417.627-3.302.673-1.518.514-2.049-.003-3.715-.327-1.06-.936-2.713-.574-3.791.193-.578.7-.953.968-1.5.424-.863-.123-.812-.348-1.581-.314-1.078-.198-2.134.398-3.059.311-.48.699-1.101 1.231-1.365.61-.306.421-1.707.718-2.268.632-1.2.688-2.876.659-4.208-.01-.46.479-.885.855-1.088.37-.203-.354-1.469-.458-1.693-.558-1.199 1.819-.902.614-1.994-1.342-1.213-.285-2.143-.929-3.711-.432-1.051-.855-1.742-1.662-2.487-.696-.643-.002-1.239-.182-1.972-.268-1.096-.759-1.738-1.309-2.677-.801-1.348-1.945-2.744-2.178-4.325-.172-1.186.308-2.857-.09-3.962-.519-1.424-.721-2.466-1.795-3.634-.843-.917-1.504-2.15-2.714-2.591v-43.146c-.678-.332-1.323-.493-2.046-.675-.308-.075-.748-.521-1.038-.525-.343-.004-1.015.715-1.196.616-1.28-.682-.991-.548-2.471-.198-.685.163-2.222-.705-2.131-1.48.083-.733-3.954-2.144-4.629-2.342-1.127-.322-2.209-.768-3.327-1.127-.952-.305-1.581-1.248-2.361-1.886-.667-.548-.956-1.312-1.763-1.828-.883-.565-2.531-2.174-3.559-2.08-2.109.193-2.353 2.669-4.775 2.452-.754-.066-2.08-.121-2.547-.78-.723-1.024-.539-1.567-1.917-.971-1.68.728-3.274 1.28-4.993 1.914-1.322-.355-1.252-.903-2.475 0-.543.395-.3.727-1.116.421-2.798-1.032-1.63 1.105-3.705 2.188-1.168.611-1.522.062-2.228 1.258-.59.997-1.053.188-1.275-.504-.212-.664-.146-1.023-.858-1.145-.413-.072-.825-.148-1.228-.27-.555-.17-.549-.588-.955-.785-.621-.302-.975-.234-1.414-.913-.381-.587-.077-.673-.635-1.051-1.023-.695-.772-.247-1.531.705-.434.544-1.668.068-2.209-.062-1.168-.288-1.28-.307-1.463-1.496-.066-.495-1.805-.777-2.18-.684-.925.233-.815 1.321-.833 2.094-.012.463-.43.404-.8.517-.622.193-.345.457-.613.917-.498.853-.683 1.189-.491 2.254-.72.17-2.754.363-1.862-.939-.292-.584-.701-.971-.228-1.48.383-.41.805-2.426-.278-2.059-.968.328-3.595 2.412-4.426 1.986-.672-.352-1.327-1.102-1.327-1.887 0-.44-1.655-.18-1.884-.163-1.545.127-.159-3.196-2.271-1.886-1.337.831-2.415 2.08-3.562 3.113-.696.627-.997.045-1.733-.432-.934-.602-.874-1.069-.671-2.143.435-2.336-2.335-.49-2.335-2.133 0-.684-1.807-1.51-.792-1.9.468-.158 1.065-1.783.099-1.576-.997.211-3.779 1.828-4.68.691-.638-.836-2.129 1.852-3.257 1.656-1.043-.183-1.603-.888-1.995-1.817-.14-.329-.106-1.079-.549-1.048-1.215.086-3.131 1.083-4.294.724-.708-.211-1.673-.211-2.147-.885-.365-.517-1.351-1.329-1.959-.916-.732.498-3.18-.112-4.09-.368-.86-.238.166-3.171-1.14-3.787-.341-.156-.304-.691-.405-.979-.105-.351-.812-.477-1.08-.656-.62-.403-.496-1.186-1.451-.898-.177.665-.406 1.244-.707 1.855-.456.925-1.137-.166-1.824-.201-.489-.019-.485-.746-.995-.603-.365.104-.644.358-.965.544-.373.215-1.808.171-2.192-.014-1.322-.665-1.599-2.372-2.701-3.396-1.148-1.068-2.7-1.976-4.363-1.967l.025-53.223-64.018.085-.741 124.683-76.029.009c-.277.844.629 2.474.618 3.512-.008.759.521.206.67.796.202.773.435 1.146.824 1.856z"/></a><a xlink:href="oklahoma.html"><path id="OK" fill-rule="evenodd" clip-rule="evenodd" fill="#288585" onmouseover="evt.target.setAttribute('fill', '#fce149');" onmouseout="evt.target.setAttribute('fill', '#288585');" d="M77.765 13.864l63.389-.085-.025 53.223c1.443-.009 3.075.769 4.069 1.693.336.314 1.483 1.092 1.483 1.608 0 .696.616 1.513 1.161 1.85 1.259.777 3.466-.691 4.119.067 1.562 1.819 2.522.037 2.915-1.438.957-.287 2.395 1.515 2.716 2.265.273.642.972.724 1.008 1.566.022.558-.169 1.991.22 2.436.53.556 2.616.408 3.392.7.893.332.961-.71 2.039-.021.963.61 1.37 1.225 2.568 1.469 1.276.264 2.75-.348 4.011-.562 1.588-.273.924 1.6 2.222 2.421 2.096 1.334 2.015-.821 3.477-1.44.507-.203 1.946.412 2.683.344.805-.062 1.598-.556 2.358-.794.815-.261.908-.131.71.731-.305 1.33-1.23.611-.074 1.837.496.53.359 1.46 1.26 1.537.467.039 1.707-.095 1.621.642-.206 1.751-.448 3.158 1.796 3.724.742.134 2.92-2.708 3.683-3.261.721-.521.792-.318 1.528-.318.865 0-.177 1.944.506 1.994.716.054 1.438-.189 2.155-.072.483.076.753 1.389 1.266 1.828 1.075.916 3.271-1.096 4.433-1.581 1.379-.571.873.381.812 1.518-.05.966-.512.719.067 1.882-.892 1.303 1.143 1.109 1.862.939-.082-.449-.308-1.487.103-1.833.494-.395.285-.727.601-1.132.229-.287 1.118-.147 1.192-.512.075-.549-.165-1.787.41-2.139.941-.57 1.534.086 2.381.271.52.111.125.992.406 1.312.141.175.64.26.824.311.622.174 1.796.628 2.443.386.282-.117 1.049-1.847 1.379-1.316.602.983 1.396 1.868 2.43 2.372.658.317.875.808 1.797.982.764.149.906.072 1.131.841.098.337.427 1.782 1.045 1.279 1.08-.894.525-1.113 2.06-1.469 1.823-.422 1.702-3.408 3.577-2.627.714.297 1.09.629 1.55.026 1.003-1.311 1.479-.517 2.681-.196.734-.271 6.208-2.484 6.406-1.999.659 1.648 1.941 1.81 3.584 1.872 1.718.063 2.176-1.491 3.496-2.312 1.305-.813 3.28 1.249 4.305 1.904.681.439 1.026.93 1.466 1.527.418.569 1.182.724 1.492 1.378.525 1.115 3.34 1.604 4.493 1.936.777.23 3.055 1.94 3.805 1.564 1.768-17.859 1.176-36.269.24-54.168-.387-7.384-1.635-14.682-2.722-21.99-.297-1.976-.019-4.163-.009-6.152.018-3.207.033-6.41.049-9.616l.006-.751-157.149.007h-20.901l-.004.013v13.524l.003.005z"/><path clip-rule="evenodd" stroke="#fff" stroke-width=".9" stroke-miterlimit="10" stroke-dasharray="2.757,5.514" d="M77.761 13.859l.004.005 63.389-.085-.025 53.223c1.443-.009 3.075.769 4.069 1.693.336.314 1.483 1.092 1.483 1.608 0 .696.616 1.513 1.161 1.85 1.259.777 3.466-.691 4.119.067 1.562 1.819 2.522.037 2.915-1.438.957-.287 2.395 1.515 2.716 2.265.273.642.972.724 1.008 1.566.022.558-.169 1.991.22 2.436.53.556 2.616.408 3.392.7.893.332.961-.71 2.039-.021.963.61 1.37 1.225 2.568 1.469 1.276.264 2.75-.348 4.011-.562 1.588-.273.924 1.6 2.222 2.421 2.096 1.334 2.015-.821 3.477-1.44.507-.203 1.946.412 2.683.344.805-.062 1.598-.556 2.358-.794.815-.261.908-.131.71.731-.305 1.33-1.23.611-.074 1.837.496.53.359 1.46 1.26 1.537.467.039 1.707-.095 1.621.642-.206 1.751-.448 3.158 1.796 3.724.742.134 2.92-2.708 3.683-3.261.721-.521.792-.318 1.528-.318.865 0-.177 1.944.506 1.994.716.054 1.438-.189 2.155-.072.483.076.753 1.389 1.266 1.828 1.075.916 3.271-1.096 4.433-1.581 1.379-.571.873.381.812 1.518-.05.966-.512.719.067 1.882-.892 1.303 1.143 1.109 1.862.939-.082-.449-.308-1.487.103-1.833.494-.395.285-.727.601-1.132.229-.287 1.118-.147 1.192-.512.075-.549-.165-1.787.41-2.139.941-.57 1.534.086 2.381.271.52.111.125.992.406 1.312.141.175.64.26.824.311.622.174 1.796.628 2.443.386.282-.117 1.049-1.847 1.379-1.316.602.983 1.396 1.868 2.43 2.372.658.317.875.808 1.797.982.764.149.906.072 1.131.841.098.337.427 1.782 1.045 1.279 1.08-.894.525-1.113 2.06-1.469 1.823-.422 1.702-3.408 3.577-2.627.714.297 1.09.629 1.55.026 1.003-1.311 1.479-.517 2.681-.196.734-.271 6.208-2.484 6.406-1.999.659 1.648 1.941 1.81 3.584 1.872 1.718.063 2.176-1.491 3.496-2.312 1.305-.813 3.28 1.249 4.305 1.904.681.439 1.026.93 1.466 1.527.418.569 1.182.724 1.492 1.378.525 1.115 3.34 1.604 4.493 1.936.777.23 3.055 1.94 3.805 1.564" fill="none"/></a></svg>