
<svg version="1.1" xmlns:xlink="http://www.w3.org/1999/xlink" viewBox="0 0 1022 574.8" xml:space="preserve">
	
<a id="NEEP" xlink:href="northeast.html" >
	<g opacity="0">
		<path fill-rule="evenodd" clip-rule="evenodd" fill="#FCE149" d="M877.1,258.4L879,245l4.2-4.7l3.3-4.5l6.5-9.3
			c0,0,6.4-13.7,29.1-24.5c13.5-6.5,47.8-13.5,47.9-14l5-9.8l-10.6-34.4l24.9-17.4l26.9-11.5l5.7-12.6l-11.3-22.4l-2-27.7
			l-19.3-10.9l-14.6,6.7l-32.2,47.3l-58.5,3.1l-43.1,28.8c0,0.7-33,13.4-33,13.4s-26.5,30.5-26.5,31.4c0,15.7-0.1,35.7-0.1,51.4
			c0,0.1,0,0.1,0,0.2c6,0,12.2,1,18.2,1h0l0,10.9l12.5-6.1l14-3.3c0.6,0.4,2.2-0.3,2.4,0.4c0.3,1.1,0.5,1.7,1.1,2.7
			c0.7,1.2,0.9,2.1,1.2,3.4c1.3,0,2.7,0.6,3.8,1.4c1.7,1.3,0.1,1.5,0.3,3.2c0.3,2.1,2.9,1.1,3.9,2.3c0.4,0.4,0.6,1.3,1.1,1.5
			c0.4,0.3,1.2,0.1,1.7,0.3c-0.3-0.1,0.2-0.2,0,0c1-0.7,0.7-1.2,1.7-0.3c0.7,0.5,2,1.1,1.2,2.1c-1,1.2-1.8,1.7-1.8,3.3
			c0,0.6-0.7,0.7-1.1,1.1c-0.5,0.5-0.8,1.3-1.2,1.9c-0.7,1.1-2,1.7-2.2,3c-0.1,0.6-0.1,0.8,0.5,0.9c0.8,0.1,0.2,1.3,0.9,1.4
			c1.7,0.2,0.8-1.3,1.1-2c0.2-0.3,0.8,0.4,1,0.4c0.7,0.1,0.6-0.9,1.1-1.1c0.3-0.1,1.1,4.3,2.6,4.1c0.4-0.1,8.6,6.5,8.6,6.2l5.9-1
			l0.2,20.3l2.4,2.3L877.1,258.4z"/>
	</g>
</a>
<a xlink:href="southeast.html" >
	<path id="SEEA" opacity="0" fill-rule="evenodd" clip-rule="evenodd" fill="#FCE149" d="M620.2,310.7l-13.2-1.2l5.2-6.2l-0.2-2.9
		c0,0-1.6-0.3-1.9-1.1l-76.4-0.2c0,5,3.4,26.6,3.4,26.6l-0.4,35l9,2.2l-2.5,34.9l12,24.4c0,0-4.1,13.7-4,14.2c0.1,0.5-2.5,12-2.5,12
		c0.1,0,45.3,23.1,45.3,23.1l39.8,1.4l-4.5-22.4l20.2-4.8L676,441l16,15.1l13.7,1.1l12.3-7l20.4,21.3l-2,25.8l31.9,60.2l-21,17h20.7
		l18.2-10.7l6.4-38.6l-25.2-98.8l11.8-26.9l55.2-40.9l21.6-23.1l10.9-18.4l-5.7-31l-3.7-10.9l-1-5.4l0.9-4.5l-13.8-9.6
		c0,0-0.7-1.7-1.6-1.3c-1.1,0.5-2,1.5-3.2,1.5c-1.9-0.1-1.5-2.1-1.4-3.5c0-1.4,1.9-2.6,2.7-3.7c1-1.4,1.7-1.7,1.8-3.5
		c0-0.7,0.7-1.4,0.3-2.1c-0.1-0.2-1.3-0.7-1-0.8l-1.9-0.1c0,0-5-3.8-4.9-4.1c0-0.1-3.2-4-3.2-4l-2.5,1.3l-8.4-5.7l-15.3,19.7l-6.6,1
		c0,0-1.5-0.7-1.8-0.5c-0.7,0.7-10.8,20.2-11.1,21c-0.2,0.7-6.1,5-6.4,5.2c-0.3,0.2-2.7,0.2-3.2,0.3c-1.1,0.2-0.8,1.4-0.6,2
		c0,0.2-6.1,2.5-6.9,2.2c-0.6-0.2-1.5-1.7-2.2-1.5c-0.8,0.2-6.1,1.1-6.6,0.8c-0.4-0.2-4.2-6-4.8-6.1c0,0-8.2-8.8-8.3-9.6
		c-0.1-0.8-1.7-6.1-1.6-7.4l-3.8-5.2l-3-3.6l-6.1,3.2l-4-2.2l-3.1,1.8l-4.6-4l-6.8-1l-1.6-5.4l-4.4-1l-1.4,7l-4.2,0.9l-5.5,1.1
		l-2.9,6.2l-5.1,5.2l-1.6,5.6l-8-1.5l-6.8,4.1l-3.1-2.4l-4.4,5l-6.8-4.6l-6.8,2.8l-2.1,7l-5.4,1.9l-3.1,7.5l-7.6,0.6l-1.9,9.9
		l-5.1,2.6L620.2,310.7z"/>
</a>
<a id="SPEAR" xlink:href="midwest.html" >
	<g opacity="0">
		<path fill-rule="evenodd" clip-rule="evenodd" fill="#FCE149" d="M385.8,287.4l-1.7,116l-62-0.5c-0.2,0.7,6.2,18.7,6.2,18.7
			l38,49.5l16.5,2l19.5-18.5l17.5,17l31.8,61.2l23.5,11.8l13.9-2.5l-5.9-23l5.2-23.8l17-14.1l17.3-10.6l22.2-15.4l0.7-1.2l-1-6.4
			l2.2-4.2l0.3-13.2l2-7.3l-8.7-30l-0.1-24.2l-5.2-1.8l-2.5-6.3v-43.8c-0.3-6.2-0.6-11.9-1.5-18c-0.2-1.6-0.2-10.6-0.2-10.6
			L385.8,287.4z"/>
	</g>
</a>
<a xlink:href="index.html" >
	<path id="MEEA_1_" opacity="0" fill="#FCE149" d="M367.6,191.1l35.2-1.1l-0.5,95.4l133,1.3l0,10l78.1,0l2.6,5.7l-5.8,5.4l0.4,1
		l7.8,0.4l1.1-3l1.3-11.2l5.4-1.8l2.4-12.8l9,0.5l10-14.6l9.2-2.2l7.1,1.1l12.8-7.6l8.1,3.3l3.4-9.1l7.4-8.5l8.1,0.1l1.4-7.2l9.4,1
		l4.2,5.6l5.2,2.8l8.2,0.8l8.2-0.9l4.1,8.6l4.7,0l19.9-22.2l7.4-7.1l2.7-21.3l0.8-0.2l0-31l-34.6,9.4l-10.8-5.5l16.6-22.5l-6.6-30.5
		l-15.5-52l-60.9-25.8l-44.1-14.8l-58.5-12.4L534.4,13l-5.1-13.5h-6.8l-1,12H368.3L367.6,191.1z"/>
</a>
<a xlink:href="neea.html" >
	<path id="NEEA_2_" opacity="0" fill="#FCE149" d="M4.8,168.7c1,0.8,234.4-1.5,234.4-1.5l0.2-67.1l124.2-0.1l0.1-91.7L33.4,8.1
		L33.3,28L0.3,21.6v16.3l7.4,24.7l-0.2,55.5l-6,31.4L4.8,168.7z"/>
</a>
<a id="SWEEP_1_" xlink:href="index.html" >
	<g opacity="0">
		<path fill-rule="evenodd" clip-rule="evenodd" fill="#FCE149" d="M175.4,391.1c4.6,1.9,17.2,6.2,21.8,8.1
			c11.3,4.6,22.6,9.2,33.8,13.8c3.6,1.5,7.1,2.9,10.7,4.4h49.9l0.1-10.7l29.4,0.1c-0.2-0.4-2-4.4-1.8-5.1l63.3,0l1.1-115.1l0-1h16.4
			v-91.7l-35.4,0v-92.1l-123.1,0l-0.1,69h0l-158.5,0l0,69.5l87.9,84.5l15.7,23.6l-8.3,9.2l-2.2,12.7L175.4,391.1z"/>
	</g>
</a>
</svg>
