<svg xmlns="http://www.w3.org/2000/svg" xmlns:xlink="http://www.w3.org/1999/xlink" viewBox="0 0 429.643 190.507"><style>path:hover { transition-duration: .56s; }</style><a xlink:href="#"><g id="MT_2_"><path id="MT" fill="#288585" onmouseover="evt.target.setAttribute('fill', '#fce149');" onmouseout="evt.target.setAttribute('fill', '#288585');" d="M214.652 94.577c-.352-.587-3.64-1.644-3.522-2.231l.705-2.113s-1.761-2.114-.822-2.936c.939-.822.939-1.644 1.292-1.761.352-.235 1.526-.705 1.644-1.174.118-.47.587-2.583.118-2.936-.47-.352-1.292-.117-1.292-.822s.352-1.761.117-2.114c-.117-.352-.705-1.057-.47-1.292.118-.235.705-.587.822-.705 0-.234-.704-1.996-.234-2.465.587-.47 1.057-1.527 1.057-2.231 0-.587-.235-1.526.235-1.644.47-.235.47-1.057.47-1.526 0-.587-1.057-.822-.353-1.057s1.41-.118 1.292-.939c-.117-.822-.587-1.878-.117-1.996.47-.235.353-1.409-.118-1.644-.352-.234-1.996.235-2.113.47-.118.235-1.057.118-1.057.118s-3.053.47-3.053.117c0-.352.118-1.996-.469-2.583-.587-.587-1.761.705-1.761.705s-.705.587-.587 0 .705-1.174.118-1.409c-.587-.235-1.409-.587-1.879-.939-.352-.352-1.644-.704-1.644-1.174s.117-1.761 0-1.879c-.235-.235-4.58-3.875-4.814-4.579-.235-.822-.352-1.174-.587-1.409s-1.761-.822-2.113-1.292c-.235-.47-.235-1.644-.822-2.231-.587-.47-3.17 0-3.405-.352-.235-.353-1.644-2.583-1.996-2.818-.353-.353-2.818-1.057-2.231-1.527.587-.587.822-.469.47-1.057-.353-.587-1.761-1.878-1.292-2.113.47-.118.939-.822 1.057-1.057.117-.234.117-.939-.235-1.409-.47-.47-1.174-1.409-1.644-2.114-.47-.704-1.292-1.057-1.174-1.526 0-.47.118-1.057 0-1.292-.117-.117-1.292-.117-1.409-.352l-.587-1.057c-.117-.352-.469-1.174-.822-1.526-.352-.235-1.644-1.292-1.644-1.292l-.118-.117.118-27.241h249.863v108.14h-145.717l-.117 13.855s-1.41-.587-1.762-.939c-.353-.469-.353-.821-.822-1.174-.352-.234-1.291-.822-1.408-1.174-.118-.353 0-.822-.354-1.292-.352-.47-.704-.704-.821-1.057s.117-.939-.353-.939c-.469 0-.822-1.057-1.408-.587-.588.47-1.527.939-1.527 1.174 0 .353.117 1.057-.352 1.527-.47.352-.822 1.174-.588 1.525.235.353 1.057.822 1.057 1.057s-.352.588-.704.705-1.057.117-1.174-.234c-.118-.353-.235-.705-.822-.588s-2.583.353-2.817.471c-.235.234-1.527.821-1.762.586-.234-.234-2.466-.939-2.466-.939s-.938.705-1.174.588-.235-.822-.587-.47c-.353.353-.939.704-1.292.47-.47-.117-1.878-1.057-2.113-.705-.353.353-.118 1.057-.587.705-.471-.353-.117-.588-.471-.588-.469 0-1.174.471-1.291.588-.234.117-.234.234-.587 1.174-.353 1.057-.235 1.409-1.879.939s-1.996-.939-3.522-.939-3.287-.587-4.109.47-1.291 3.288-1.526 2.936c-.235-.235-1.175-1.644-1.879-1.996-.704-.47-1.878-.939-1.878-1.292 0-.352 1.408-.821.586-1.174-.821-.352-1.408-.939-1.408-1.174s.117-1.057.234-1.409-.587-1.292-.822-1.879c-.234-.587-2.23-3.64-3.053-3.288-.821.353-1.408 1.527-1.879 1.057-.352-.586-1.643-1.878-2.113-2.113-.469-.234-.821-1.174-.704-1.996.117-.821 1.292-1.174 1.057-1.644-.117-.47-.939-1.057-1.174-1.878-.235-.822.117-1.292-.939-1.527-1.057-.234-2.818-2.348-2.818-2.348s-1.174-4.814-1.644-5.284c-.587-.353-1.526-.939-1.174-1.292.352-.352 1.525-.469.704-1.409-.821-.822-1.526-1.644-1.526-2.231s-.234-1.174-.587-1.174c-.353-.118-1.409-2.583-2.583-1.761-1.174.822-1.996 1.644-2.584 2.583-.586.939-1.996 1.292-1.996 1.292s-1.996.235-2.23 1.057c-.119 1.056-1.059.702-1.529.116z"/><path id="MT_1_" stroke="#fff" stroke-width=".958" stroke-miterlimit="10" stroke-dasharray="1.9155,3.8311" d="M283.929 108.196l-.117 13.855s-1.41-.587-1.762-.939c-.353-.469-.353-.821-.822-1.174-.352-.234-1.291-.822-1.408-1.174-.118-.353 0-.822-.354-1.292-.352-.47-.704-.704-.821-1.057s.117-.939-.353-.939c-.469 0-.822-1.057-1.408-.587-.588.47-1.527.939-1.527 1.174 0 .353.117 1.057-.352 1.527-.47.352-.822 1.174-.588 1.525.235.353 1.057.822 1.057 1.057s-.352.588-.704.705-1.057.117-1.174-.234c-.118-.353-.235-.705-.822-.588s-2.583.353-2.817.471c-.235.234-1.527.821-1.762.586-.234-.234-2.466-.939-2.466-.939s-.938.705-1.174.588-.235-.822-.587-.47c-.353.353-.939.704-1.292.47-.47-.117-1.878-1.057-2.113-.705-.353.353-.118 1.057-.587.705-.471-.353-.117-.588-.471-.588-.469 0-1.174.471-1.291.588-.234.117-.234.234-.587 1.174-.353 1.057-.235 1.409-1.879.939s-1.996-.939-3.522-.939-3.287-.587-4.109.47-1.291 3.288-1.526 2.936c-.235-.235-1.175-1.644-1.879-1.996-.704-.47-1.878-.939-1.878-1.292 0-.352 1.408-.821.586-1.174-.821-.352-1.408-.939-1.408-1.174s.117-1.057.234-1.409-.587-1.292-.822-1.879c-.234-.587-2.23-3.64-3.053-3.288-.821.353-1.408 1.527-1.879 1.057-.352-.586-1.643-1.878-2.113-2.113-.469-.234-.821-1.174-.704-1.996.117-.821 1.292-1.174 1.057-1.644-.117-.47-.939-1.057-1.174-1.878-.235-.822.117-1.292-.939-1.527-1.057-.234-2.818-2.348-2.818-2.348s-1.174-4.814-1.644-5.284c-.587-.353-1.526-.939-1.174-1.292.352-.352 1.525-.469.704-1.409-.821-.822-1.526-1.644-1.526-2.231s-.234-1.174-.587-1.174c-.353-.118-1.409-2.583-2.583-1.761-1.174.822-1.996 1.644-2.584 2.583-.586.939-1.996 1.292-1.996 1.292s-1.996.235-2.23 1.057c-.117 1.058-1.057.704-1.526.118-.352-.587-3.64-1.644-3.522-2.231l.705-2.113s-1.761-2.114-.822-2.936c.939-.822.939-1.644 1.292-1.761.352-.235 1.526-.705 1.644-1.174.118-.47.587-2.583.118-2.936-.47-.352-1.292-.117-1.292-.822s.352-1.761.117-2.114c-.117-.352-.705-1.057-.47-1.292.118-.235.705-.587.822-.705 0-.234-.704-1.996-.234-2.465.587-.47 1.057-1.527 1.057-2.231 0-.587-.235-1.526.235-1.644.47-.235.47-1.057.47-1.526 0-.587-1.057-.822-.353-1.057s1.41-.118 1.292-.939c-.117-.822-.587-1.878-.117-1.996.47-.235.353-1.409-.118-1.644-.352-.234-1.996.235-2.113.47-.118.235-1.057.118-1.057.118s-3.053.47-3.053.117c0-.352.118-1.996-.469-2.583-.587-.587-1.761.705-1.761.705s-.705.587-.587 0 .705-1.174.118-1.409c-.587-.235-1.409-.587-1.879-.939-.352-.352-1.644-.704-1.644-1.174s.117-1.761 0-1.879c-.235-.235-4.58-3.875-4.814-4.579-.235-.822-.352-1.174-.587-1.409s-1.761-.822-2.113-1.292c-.235-.47-.235-1.644-.822-2.231-.587-.47-3.17 0-3.405-.352-.235-.353-1.644-2.583-1.996-2.818-.353-.353-2.818-1.057-2.231-1.527.587-.587.822-.469.47-1.057-.353-.587-1.761-1.878-1.292-2.113.47-.118.939-.822 1.057-1.057.117-.234.117-.939-.235-1.409-.47-.47-1.174-1.409-1.644-2.114-.47-.704-1.292-1.057-1.174-1.526 0-.47.118-1.057 0-1.292-.117-.117-1.292-.117-1.409-.352l-.587-1.057c-.117-.352-.469-1.174-.822-1.526-.352-.235-1.644-1.292-1.644-1.292l-.118-.117.118-27.241" fill="none"/></g></a><a xlink:href="#"><g id="ID"><path fill="#288585" onmouseover="evt.target.setAttribute('fill', '#fce149');" onmouseout="evt.target.setAttribute('fill', '#288585');" d="M156.648 127.806c-.235-.117-.587-.705-.587-.939v-5.166s.705-.471.822-.588c.118-.117.118-.939.352-1.291.235-.353.939-1.174 1.174-1.645.235-.469.822-3.17 1.292-3.404.353-.234 1.409-.234 1.526-.588.235-.352 3.288-4.461 2.818-5.166-.47-.704-1.174-.704-.822-1.174.353-.353 1.057-1.057 1.174-1.409.118-.353.822-1.057 1.292-1.644.47-.588.939-1.409.939-1.762 0-.469 0-1.526.235-1.879.235-.352.47-1.878.939-2.7.47-.939 2.231-4.579 2.583-4.814s1.174-.939 1.057-1.878c-.235-.822-.47-1.762-.939-2.466-.47-.705-.47-1.996-1.527-1.996-1.057.117-1.878-.705-2.465-1.057-.587-.353-2.583-1.292-2.936-2.231-.235-.822-.822-2.113-.822-2.113l-.234-.47s.234-.705-.235-1.057c-.47-.353-1.879-1.292-1.527-1.644.47-.352 1.409-1.292 1.057-1.878-.235-.587-.587-1.409-.587-1.526 0-.118.118-1.526-.117-1.644-.235-.117-.939-1.174-1.057-1.292-.118-.117-.939-1.057-.822-1.644l.822-1.409c-.118-.47-.587-1.057-.705-1.409-.118-.235 0-60 0-67.632h20.431l-.118 26.888.118.118s1.292 1.057 1.644 1.292c.353.235.705 1.174.822 1.526.118.352.47.822.587 1.057l1.409.353c.235.235.118.822 0 1.292 0 .47.822.822 1.174 1.526.47.705 1.174 1.644 1.644 2.113s.352 1.174.235 1.409c-.118.235-.587.939-1.057 1.057s.939 1.409 1.292 2.114c.352.587.117.587-.47 1.057-.587.587 1.878 1.292 2.231 1.526.352.235 1.761 2.466 1.996 2.818.235.353 2.935-.117 3.405.353s.47 1.761.822 2.231c.234.469 1.878.939 2.113 1.292.235.235.235.587.587 1.409.353.822 4.58 4.462 4.814 4.58.234.235 0 1.409 0 1.878s1.292.822 1.644 1.174c.353.352 1.292.822 1.879.939.587.235 0 .822-.118 1.409-.117.587.587 0 .587 0s1.174-1.292 1.761-.705c.587.587.469 2.231.469 2.583 0 .235 3.053-.118 3.053-.118s.939.118 1.057-.117c.117-.235 1.761-.705 2.113-.47.354.235.588 1.526.118 1.644-.47.235 0 1.174.117 1.996.118.822-.704.705-1.292.939-.705.235.352.47.352 1.057s0 1.292-.469 1.527c-.47.235-.118 1.057-.235 1.644 0 .587-.47 1.761-1.057 2.231s.234 2.231.234 2.466-.587.47-.822.705.353.939.47 1.292c.118.353-.117 1.409-.117 2.113 0 .705.822.587 1.292.822.47.352 0 2.466-.118 2.936-.117.469-1.409.939-1.644 1.174-.353.235-.353.939-1.292 1.761-.939.822.822 2.936.822 2.936s-.705 1.644-.705 2.114c-.117.587 3.17 1.644 3.522 2.23.47.587 1.292.822 1.644.118.235-.822 2.231-1.057 2.231-1.057s1.409-.353 1.996-1.292c.587-.939 1.409-1.644 2.583-2.583 1.174-.822 2.23 1.644 2.583 1.761.353.118.587.587.587 1.174s.705 1.409 1.527 2.231c.821.822-.354 1.057-.705 1.408-.353.354.587.939 1.174 1.293.47.352 1.645 5.283 1.645 5.283s1.761 2.113 2.817 2.348c1.057.235.704.705.939 1.527.235.821 1.057 1.291 1.175 1.879.117.586-1.057.938-1.057 1.643-.118.822.234 1.762.703 1.996.471.235 1.762 1.527 2.114 2.114s.939-.704 1.878-1.057c.822-.353 2.818 2.7 3.054 3.288.234.704.938 1.643.821 1.878s-.234 1.057-.234 1.409c0 .352.587.822 1.409 1.174.821.353-.587.822-.587 1.174 0 .354 1.174.822 1.879 1.292.704.47 1.643 1.761 1.878 1.996s.704-1.996 1.526-2.935c.822-1.058 2.584-.354 4.109-.471 1.527 0 1.879.588 3.523.939 1.644.47 1.408 0 1.878-.939.353-1.057.47-1.057.587-1.174s.939-.587 1.292-.587c.47 0 .117.235.47.587.47.352.234-.352.587-.705.353-.352 1.761.588 2.114.705.469.234.938-.234 1.291-.47.352-.235.352.353.587.47l1.175-.587s2.23.704 2.465.938c.235.235 1.527-.469 1.762-.586.234-.235 2.348-.471 2.818-.471.469-.117.704.235.821.588.118.352.822.352 1.175.234.234-.117.704-.469.704-.704l-1.057-1.057c-.235-.235.117-1.058.587-1.526.47-.353.352-1.174.352-1.527 0-.234.939-.704 1.527-1.174.587-.469.939.588 1.408.588.471 0 .235.586.354.939.117.469.469.704.821 1.057.353.469.235.939.353 1.291.117.353.939.822 1.408 1.174.353.353.471.705.822 1.174.353.471 1.762.939 1.762.939v67.28h-62.701l-61.292-.117.118-48.376s-1.057-.352-.587-.587 1.057-1.526 1.057-1.526.822-1.057.822-1.526c.117-.587-.118-1.996.117-2.114.235-.234.47-.586.47-.704 0-.117-1.409-1.644-1.057-1.644s1.174-.47 1.292-.822c.118-.352.235-.822.353-.939.235-.117-.118-.469-.353-.821s-2.348-2.114-2.466-2.114c-.117 0-.235.471-.587.235-.235-.235-.235-.704-.822-.587-.464.116-1.286.233-1.639-.001z"/><path fill="#fff" d="M179.78.173m-20.196-.173h-1.4089999999999998v2.169h1.174v-1.996h.235v-.173zm-1.409 6.631v2.231h1.174v-2.231h-1.174zm0 6.81v2.231h1.174v-2.348l-1.174.117zm0 6.693v2.231h1.174v-2.231h-1.174zm0 6.81v2.231h1.174v-2.231h-1.174zm0 6.693v2.231h1.174v-2.2319999999999998h-1.174v.001zm0 6.81v2.231h1.174v-2.231h-1.174zm1.174 6.693h-1.174v2.231h1.174v-2.231zm0 6.693h-1.174v2.231h1.174v-2.231zm0 6.81h-1.174v2.231h1.174v-2.231zm0 6.693h-1.174c0 .47 0 .587.118.822.117.118.117.352.352.587.118.234.353.587.353.704l.704-.235.353.118v-.235c-.118-.235-.353-.587-.47-.939-.118-.117-.235-.352-.235-.47l-.001-.352zm1.526 5.753l-.822.705.235.235v1.2919999999999998l1.057-.235v-1.762c-.352 0-.47-.117-.47-.235zm.118 5.989l-.822.705 1.057.939c.118.118.235.235.353.235l.235-.235.822-.235c0-.117-.117-.234-.235-.352l-.705-.47c-.353-.235-.47-.353-.705-.587zm3.17 5.518l-.705.822c.587.587 1.526 1.057 1.996 1.292l.587-.939c-.353-.235-.822-.47-1.292-.822l-.586-.353zm5.754 3.288l-1.057.47.117.352c.118.353.235.705.47 1.057l.353.587 1.057-.47s0-.117-.118-.117l-.234-.353-.118-.352-.235-.47c-.118-.587-.235-.587-.235-.704zm-.705 5.401c-.235.352-.587 1.057-1.057 2.113l1.057.47.118-.352c.352-.705.705-1.292.822-1.645l-.94-.586zm-3.053 6.341l-.117.234c-.118.234-.118.47-.235.587-.235.353-.353.822-.353 1.409l1.174.117c0-.352.117-.822.235-.939l-.47-.234.47.234v-.117c.117-.117.117-.352.235-.705v-.234l-.939-.352zm-2.348 5.636c-.235.353-.353.587-.47.938-.118.118-.47.588-.705.822l-.117.117.822.705.117-.117c.353-.353.705-.822.939-1.174l-.705-.354.822.118c0-.118.117-.353.234-.47l-.937-.585zm-1.644 5.753c-.352.588-.705 1.174-1.174 1.762l.939.704c.235-.234.353-.587.587-.938l.587-.939-.939-.589zm-4.227 5.166l-.117.471c-.118.352-.235.939-.353 1.057 0 .117-.117.234-.235.234l.939.705c.118-.117.235-.235.235-.471.118-.234.235-.704.352-1.174 0-.117.118-.234.118-.469l-.939-.353zm-1.761 6.106h-1.174v2.231h1.174v-2.231zm2.348 5.519h-.118l.118.47-.118-.47-.705.117.118 1.174h.352c0 .117.118.117.235.235.352.235.705.353.822.353.353 0 .705-.117 1.057-.471l-.822-.821-.117.118s-.118 0-.118-.118c0 0-.117-.117-.117-.235v-.117c-.118-.117-.118-.234-.235-.234l-.352-.001zm2.935 2.818c-.235.352-.352.704-.469 1.057l-.353.117.353 1.057.352-.117c.235-.117.352-.234.47-.353l.117-.117c0-.118 0-.118.118-.235.117-.234.117-.469.235-.587l-.823-.822zm-.234 5.87h-1.174v.704s-.118.354-.47.822l.939.588c.234-.353.47-.822.587-1.175.118-.235.118-.586.118-.939zm-2.466 5.754v2.23h1.174v-2.23h-1.174zm0 6.81v2.231h1.174v-2.231h-1.174zm0 6.693v2.23h1.174v-2.23h-1.174zm0 6.811v2.23h1.174v-2.23h-1.174zm0 6.692v2.23h1.174v-2.23h-1.174zm0 6.809v2.231h1.174v-2.114l-1.174-.117zm0 6.694v2.23h1.174v-2.23h-1.174zm1.174 6.575v1.175h2.231v-1.175h-2.231zm6.81 0v1.175h2.231v-1.175h-2.231zm117.534-68.22l-.352 1.057m1.175 0v-.821m-4.698-2.583l-.469.117s0 .117.117.234l.352-.351zm-.117-1.996l-.822.704c.235.235.235.587.235.822v.352l.704-.117-.704.117v.117l.587-.234-.587.234.47-.117-.352.352v.117l.117.118.117.117.705-.939c-.118 0-.118-.117-.118-.117 0-.353-.117-.939-.587-1.526h.235zm-4.344-2.466l-.471.353c-.586.352-1.174.704-1.174 1.408v.706l1.174.117v-.46900000000000003c.235-.235.588-.353.939-.587l.118-.117-.586-1.411zm-1.644 5.518l-.117.117h-.117v.234l-.705.354.117.352c.118 0 .118 0 .235.117l.118-.352-.118.352h.469l-.117-.469.117.469h.117l.235-.117.234-.234-.468-.823zm.235.705zm-6.223.586l-.117.117h.117v-.117zm-.823-1.408l-.352 1.057.352.117c.354.117.705.234.705.353l.117-.118.117-.117v.235c.235 0 .471-.118.822-.235l-.469-1.057-.354.117c-.233 0-.467-.118-.938-.352zm-4.695.704l-.235.47h.235v-.47zm-1.175-1.174l-.353 1.057h.117l.705.353s.352.234.587.234l.235-.47.117-.117.234.704c.117 0 .117 0 .235-.117l-.353-.822.117-.234c-.117 0-.234-.117-.352-.234-.585-.119-.936-.236-1.289-.354zm-4.696 1.292c-.117.234-.235.469-.471 1.174l-.234.469c0 .118 0 .118-.117.235l.47.235.353.469v-.234c0-.117 0-.117.117-.234l.117-.353c.234-.587.353-.822.353-.939l-.588-.822zm-6.341.352l-.118 1.174h.471l.939.117h.586l.118-1.174h-.704c-.353 0-.705 0-1.175-.117h-.117zm-4.462 3.053l-.117.353-.117.353c.352.352.586.704.704.821v.118s.117 0 .117-.118v-.117c.118-.235.235-.47.353-.939v-.117l-.234-.118-.706-.236zm-3.17-1.996l.587.705-.587-.705zm.469-2.231l-.586.939.704.352c.117.117.117.117.117.235 0 .117-.117.234-.235.234l-.469.353.587.705.117.234.118-.117c.352-.235 1.057-.705.938-1.527 0-.234-.117-.821-.938-1.174 0 0-.235-.117-.353-.234zm-2.231-5.637l-.939.705c.47.704.939 1.408 1.057 1.762 0 0 0 .117.117.117l1.057-.471v-.117c-.235-.351-.704-1.291-1.292-1.996zm-4.461 0l-.234.117c.117.118.117.118.234.118h.118l-.118-.235zm-.705-1.996l-.822.822c.47.47 1.057 1.057 1.174 1.409l.235-.118.704-.469c-.234-.704-1.056-1.527-1.291-1.644zm-1.056-5.4l-.939.704c.234.235.47.587.587.821l.117.235c0 .235-.117.47-.47.704l.705.822c.352-.352.939-.939.704-1.879-.117-.469-.47-.821-.704-1.174.117.001 0-.116 0-.233zm-4.228-4.58l-.47.353-.469.118v.234s.117.234.352.47c.234.234.587.704 1.057 1.057l.705-.822-1.175-1.41-.47.353.47-.353zm-2.7-6.106l-.822.705c.117.117.234.234.47.352.235.117.47.353.587.471l.117.117c0 .117.118.234.118.234l1.057-.353c-.235-.587-.47-.938-.704-1.174l-.353-.235c-.118.236-.47.001-.47-.117zm-2.113-5.635l-.117.822v.235c.234.118.469.47.469.939v.47c0 .117.117.235.117.235l1.057-.47v-.118c-.118-.939-.705-1.879-1.526-2.113zm-.117.821l-.235.118h.117l.118-.118zm-4.346-1.526c-.704.587-1.291 1.174-1.643 1.879l.938.587.235-.352c.117-.118.352-.353.587-.47l-.117-1.644zm-5.4 3.64c-.47.235-.705.587-.822 1.057h.117l-.352.587.117.117.234.117.117-.704h.118v.704c.235 0 .47-.117.587-.469 0 0 0-.117.117-.117 0 0 .117-.118.235-.118l-.468-1.174zm-4.932-.939c0 .117 0 .117.117.235l.235-.118-.352-.117zm.587-1.879c-.117.235-.235.587-.352.939-.118.353-.235.822-.352.939h.234l.822.117c0-.117.235-.704.587-1.644l-.939-.351zm.587-5.049l-.118.118.47.352-.352-.47zm.822-.47c-.117.118-.235.118-.352.118-.235.117-.353.117-.47.235l.352.587-.47-.235-.117.235c-.118.235-.235.353-.353.705l.939.587c.235-.352.353-.587.47-.822v-.117s.117 0 .117-.118c.118-.118.235-.118.47-.235l-.586-.94zm-.235-4.462c0 .235.118.353.235.47l.235-.47h-.47zm.118-.821v.588h.587l-.235.469c.117 0 .117 0 .235.118h.235l.352-1.057h-.117v-.353l-1.057.235zm.117-5.754c-.117 0-.117.118 0 0l-.235.353.587.117-.352-.47zm.352-.352l-.117.117-.118.118.353.47-.587-.118v.235c0 .353.117.705.234 1.057l1.057-.352c-.118-.352-.118-.587-.118-.705.118-.117.235-.235.235-.352l-.939-.47zm1.878-6.341c-.234.118-.469.118-.704.118l-.235.235-.117.117s.117 0 .117.118l.118.117c.117.118.235.235.235.47v.821l1.057.235c.117-.352.117-.822.117-1.174v-.118c0-.234-.352-.704-.588-.939zm-1.056.353l-.118.117s0 .118.118.118l.117-.118-.117-.117zm1.056-5.871h-.586l.117 1.057h.352c.117 0 .234 0 .353.117v.117c.117.235.117.587 0 .939l1.057.353c.235-.822 0-2.231-.821-2.701.116.118-.236.118-.472.118zm-5.752 1.761h-.235c0 .118.117.118.235 0-.118.118 0 .118 0 0zm.939-1.057l-1.174.118v1.056h.235v.117h.822v-.235c.117-.351.117-.703.117-1.056zm-3.875-3.405l-.47 1.057.587.235v.117l-.353.822.47.117c.118 0 .118-.117.118-.117s.352-.47.822-.705c.117-.235.117-.587 0-.939-.118-.352-.47-.587-.822-.822.001.353-.234.353-.352.235zm-.117 2.701l.47.118-.47-.118zm0 0l.47.118-.47-.118zm-3.523-7.28l-.705.822c.47.469.822.704.939.822.118.117.118.587.118 1.057h1.174c0-.705 0-1.409-.353-1.761l-.235-.235-.938-.705zm-4.11-3.17l-.587.234v.118l.587-.352zm0-1.409l-1.057.47.117.352s0 .118.118.235l.235.587.587-.234-.587.352.235.352.235.235.822-.822c-.235-.235-.352-.352-.352-.47l-.235-.587c0-.118 0-.235-.118-.47zm-5.4-4.579h-.235v1.174h.117c.587 0 1.174 0 1.409.235.117.118.235.235.235.353l1.057-.47c-.118-.353-.353-.587-.587-.822-.353-.353-1.057-.47-1.996-.47zm-4.815-3.406l-.47 1.057.47.235c.353.118.587.235.822.352.117.118.234.353.47.587l.939-.705c-.352-.47-.587-.705-.705-.822-.234-.235-.47-.353-1.057-.587l-.469-.117zm-1.291-3.992c-.117.352-.47.705-.939.822v.235h.118-.118s0 .118.118.118c0 0 0 .117.117.117l.353.352c.705-.234 1.174-.822 1.409-1.409l-1.058-.235zm-1.996-5.635l-.235.117-.822-.117v.234c0 .118 0 .118.117.235l.47-.352-.47.352.353.353.117.117.47.47.939-.587c-.235-.353-.587-.705-.822-.939.117.234-.117.117-.117.117zm-4.228-5.52l-.705.822c.235.235.47.469.705.587.118.118.235.118.235.235l.235.352 1.057-.469c-.235-.587-.47-.939-.822-1.174l-.705-.353zm-1.408-5.518v2.231h1.174v-2.231h-1.174zm0-6.81v2.231h1.174v-2.231h-1.174zm0-6.693v1.996h1.174v-2.231l-1.174.235zm0-6.81v2.231h1.174v-2.231h-1.174z"/></g></a><a xlink:href="#"><g id="OR_1_"><path id="OR" fill="#288585" onmouseover="evt.target.setAttribute('fill', '#fce149');" onmouseout="evt.target.setAttribute('fill', '#288585');" d="M17.51 78.843c.352-.47-1.057-.939-1.409-1.761-.353-.705.352-.705.939-1.409.704-.705.117 1.409 2.113 2.349 1.996.939-.587-1.292-.587-2.231.117-.939 1.292 0 1.526.352s2.466.352 2.701-.47 1.644-.117 1.996-1.057c.117-.235-.118-.235-.353-.352 1.057-.235 2.231-.47 2.583 0 .587.822.822.822 1.526 1.409.704.587.822.587 1.057.939s1.409.118 1.526.118c.117-.118 2.466-.939 2.583-.705.118.352.118.705.705.939.587.235 1.996.118 2.114.47.117.353.822.705 1.174 1.057.235.235.587.47.705.939.118.47.47.939.47 1.526 0 .705.587.822.822 1.292.235.352.353.117.47.822 0 .705.353 1.409.353 1.409l.117 1.644s-.117.822.117 1.292c.118.353 1.292 3.64 1.644 3.992.352.353 1.292.47 2.114.705.822.235 1.878.118 3.522.587 1.644.47 4.344.705 4.696.587.353-.118 2.701-1.174 3.288-1.292.587-.117 2.465-1.526 2.465-1.526s2.466-2.583 2.936-1.878.587 1.057 1.409.939c.822-.118 2.348-1.057 3.405-.822 1.174.235 2.349.705 3.992.822 1.644.117 2.701.587 3.17.939.352.353-.235 2.114 1.174 1.292 1.526-.822.352-1.174 2.231-1.174 1.878 0 3.992-.235 4.462-.587.352-.234 2.231-1.057 2.583-1.057s2.466-1.526 3.288-.704c.822.939 4.814.352 4.814.352s1.996-.705 2.818-1.057c.822-.353 2.818-1.996 3.992-1.996s2.465-.235 3.522-.353c1.057-.117 3.405-.822 3.405-.822s5.284-.822 5.753-1.174c.47-.352 5.988-1.996 7.163-1.878 1.174.117 42.857 0 44.148 0l.235.47s.47 1.292.822 2.113c.235.822 2.348 1.879 2.935 2.231.587.352 1.409 1.174 2.466 1.057 1.057-.117.939 1.292 1.526 1.996.47.705.822 1.644.939 2.466.235.822-.705 1.644-1.057 1.879-.352.117-2.113 3.875-2.583 4.814s-.705 2.349-.939 2.7c-.235.353-.235 1.527-.235 1.879 0 .47-.352 1.174-.939 1.762-.47.587-1.174 1.291-1.292 1.644s-.822 1.057-1.174 1.409c-.352.352.235.352.822 1.174.469.705-2.583 4.814-2.818 5.166-.235.353-1.174.353-1.526.588-.352.234-.939 2.936-1.292 3.404-.235.471-.939 1.292-1.174 1.645-.235.352-.235 1.174-.352 1.291-.117.235-.822.588-.822.588s.117 4.813 0 5.166c0 .234.235.822.587.939.235.117 1.057.117 1.644 0s.587.352.822.587.352-.118.587-.235c.118 0 2.114 1.762 2.466 2.113.235.354.587.705.352.822-.234.117-.234.705-.352.939-.117.353-.939.822-1.292.822-.47 0 1.057 1.408 1.057 1.644 0 .118-.235.587-.47.704s0 1.527-.117 2.113c-.118.588-.822 1.527-.822 1.527s-.587 1.291-1.057 1.526l.587.587-.118 48.376h-149.234c-.117-.822-.822-.235-1.996-1.175-1.292-1.057-1.644-4.227-2.113-5.4-.587-1.175-.235-1.645-.235-2.231s-.353-3.522-.118-4.228c.235-.704.353-2.7.353-3.053 0-.469.235-.821-.118-1.291-.352-.587-2.466-2.701-2.466-3.287-.117-.471-.469-1.41-.587-1.996-.235-.471.822-1.879 1.057-1.996.235-.118.587-2.114 1.292-2.818.587-.705.587-3.992.704-4.109.235-.117.353-3.758.47-4.228.118-.47.705-.353 1.292-.939.705-.587 1.057-3.992 1.057-3.992s.587-2.349 1.057-2.466c.47-.234.352-1.526.352-1.879.118-.352.47-.821 1.292-1.174.822-.352-.822-1.996-.822-2.7s.705-3.875.587-4.462c-.117-.588.47-.353.705-.705s-.587-1.291-.705-1.879c-.117-.586.235-1.643.235-1.643s-.117-3.641.118-5.637c.117-1.996 1.174-8.336 1.409-8.924.235-.587-.352-2.818-.587-3.522-.117-.821.235-1.174.822-2.113.587-.939.822-3.992.587-4.813-.235-.822.939-1.527 1.292-2.584s-.352-1.174-.47-1.996c0-.822.705-1.996.587-2.23-.117-.234-.352-.47-.587-.939l.939-1.879c.117-.234-.353-.939-.939-1.762-.587-.821.705-.586 1.292-1.056.47-.587-.47-1.761-.587-1.996-.235-.352.47-1.409.822-1.996.353-.587-.705-.939-.705-1.409 0-.469-.352-.705-.704-1.761-.353-1.057.469-1.174.587-2.231.117-1.057.117-1.409-.47-2.113s.587-.587.939-1.526c.233-.944.585-1.766.938-2.235z"/><path id="OR_2_" stroke="#fff" stroke-width=".958" stroke-miterlimit="10" stroke-dasharray="1.9155,3.8311" d="M17.51 78.843c.352-.47-1.057-.939-1.409-1.761-.353-.705.352-.705.939-1.409.704-.705.117 1.409 2.113 2.349 1.996.939-.587-1.292-.587-2.231.117-.939 1.292 0 1.526.352s2.466.352 2.701-.47 1.644-.117 1.996-1.057c.117-.235-.118-.235-.353-.352 1.057-.235 2.231-.47 2.583 0 .587.822.822.822 1.526 1.409.704.587.822.587 1.057.939s1.409.118 1.526.118c.117-.118 2.466-.939 2.583-.705.118.352.118.705.705.939.587.235 1.996.118 2.114.47.117.353.822.705 1.174 1.057.235.235.587.47.705.939.118.47.47.939.47 1.526 0 .705.587.822.822 1.292.235.352.353.117.47.822 0 .705.353 1.409.353 1.409l.117 1.644s-.117.822.117 1.292c.118.353 1.292 3.64 1.644 3.992.352.353 1.292.47 2.114.705.822.235 1.878.118 3.522.587 1.644.47 4.344.705 4.696.587.353-.118 2.701-1.174 3.288-1.292.587-.117 2.465-1.526 2.465-1.526s2.466-2.583 2.936-1.878.587 1.057 1.409.939c.822-.118 2.348-1.057 3.405-.822 1.174.235 2.349.705 3.992.822 1.644.117 2.701.587 3.17.939.352.353-.235 2.114 1.174 1.292 1.526-.822.352-1.174 2.231-1.174 1.878 0 3.992-.235 4.462-.587.352-.234 2.231-1.057 2.583-1.057s2.466-1.526 3.288-.704c.822.939 4.814.352 4.814.352s1.996-.705 2.818-1.057c.822-.353 2.818-1.996 3.992-1.996s2.465-.235 3.522-.353c1.057-.117 3.405-.822 3.405-.822s5.284-.822 5.753-1.174c.47-.352 5.988-1.996 7.163-1.878 1.174.117 42.857 0 44.148 0l.235.47s.47 1.292.822 2.113c.235.822 2.348 1.879 2.935 2.231.587.352 1.409 1.174 2.466 1.057 1.057-.117.939 1.292 1.526 1.996.47.705.822 1.644.939 2.466.235.822-.705 1.644-1.057 1.879-.352.117-2.113 3.875-2.583 4.814s-.705 2.349-.939 2.7c-.235.353-.235 1.527-.235 1.879 0 .47-.352 1.174-.939 1.762-.47.587-1.174 1.291-1.292 1.644s-.822 1.057-1.174 1.409c-.352.352.235.352.822 1.174.469.705-2.583 4.814-2.818 5.166-.235.353-1.174.353-1.526.588-.352.234-.939 2.936-1.292 3.404-.235.471-.939 1.292-1.174 1.645-.235.352-.235 1.174-.352 1.291-.117.235-.822.588-.822.588s.117 4.813 0 5.166c0 .234.235.822.587.939.235.117 1.057.117 1.644 0s.587.352.822.587.352-.118.587-.235c.118 0 2.114 1.762 2.466 2.113.235.354.587.705.352.822-.234.117-.234.705-.352.939-.117.353-.939.822-1.292.822-.47 0 1.057 1.408 1.057 1.644 0 .118-.235.587-.47.704s0 1.527-.117 2.113c-.118.588-.822 1.527-.822 1.527s-.587 1.291-1.057 1.526l.587.587-.118 48.376" fill="none"/></g></a><a xlink:href="#"><g id="WA" fill="#288585"><path onmouseover="evt.target.setAttribute('fill', '#fce149');" onmouseout="evt.target.setAttribute('fill', '#288585');" d="M18.097 74.381c-1.174-.47-2.349-1.526-2.936-1.644-.47-.235-.47-1.174-.117-1.762.352-.587 1.526-.939 1.761-1.174s-.235-.939-.235-1.879.939-2.113 1.057-3.053-.822-1.174-.822-2.466 2.231.353 3.053.118c.822-.353-.587-.705-1.879-1.409-1.292-.705-1.878.587-2.818-.587-.939-1.174-.117-1.292-.117-1.644 0-.352-.353-.235-.939-.939-.587-.704.587-.704.587-.939 0-.117.118-.587.235-.704.235-.118.822-.353 1.057-.587s1.644-.117 2.466-.469c.822-.353-3.053-.822-3.405-1.057-.353-.235-.47-.939-.705-1.409h-1.761c-.47-.118-1.409-1.057-1.292-1.761 0-.587 0-1.292-.47-2.349s-.47-1.526-.822-2.701c-.352-1.292-1.057-1.878-1.996-3.17-.939-1.292-.117-2.936-.234-3.288-.118-.352-.118-.822-.118-1.996 0-1.057-.352-.822-.47-1.292-.235-.469-.352-1.526-.939-2.935-.587-1.292-2.935-2.701-3.405-3.053-.47-.353-.587-.235-1.057-.705-.47-.353-.118-.587-.235-1.057-.118-.47-.235-1.057-.822-1.526-.47-.47.47-.704.705-1.292.235-.47-.822-1.996-1.292-2.583-.47-.587.47-1.292.47-1.996-.118-.705.117-1.879.235-2.349.117-.352.47-.822.47-1.292s-.587-1.526-.587-1.644c.118-.118 1.761.235 2.349.939.587.587 5.166 2.466 6.458 2.936 1.292.47 4.696 2.231 5.049 2.349.352.117.822.352.939.587.117.235 5.401 0 5.871-.235.587-.235 1.292.822 1.644.822.352 0 .352-.352.587-.587l.587.47s2.936-.118 3.405-.118 3.522.235 3.875 0c.353-.235 2.114.118 2.349.353.352.235.939 1.996 1.996 2.466s.47-1.644 1.057-1.409c.47.235.587 1.761 1.057 2.936.47 1.174 1.292-.705 1.409-1.174.117-.47.235-.705.352-1.057.118-.353-1.174-.587-.587-1.526.587-.822 1.761 0 1.761 0s-.939 1.409-.939 1.644.822 1.057 1.526 1.761c.705.705 1.292 2.231 1.526 2.818.235.587-.587.939-1.057 1.526-.587.587-.235.939-.705 1.878-.352.822-.822-.352-.939-1.174-.118-.704-1.761 1.879-1.761 2.114l-1.644 2.466s.822 1.174 1.057.939c.235-.234 2.114-1.292 2.936-1.878.822-.705.705-1.761 1.292-2.583.587-.822 1.409-1.292 1.996-1.057.587.235.47-.234 1.174-.704.822-.587 1.292 1.057 1.644 1.761.353.705-.704.235-1.057-.118-.352-.352-.705.47-.822.822-.118.352-1.174 0-1.526 0-.353 0 .117 2.23.117 2.818l-1.526-.118c-.352.47.705 1.409.822 1.644.235.235-.587.822-.469 1.761.117.939 2.113-1.526 2.465-1.174.353.353.822 1.761.822 2.231s-.587.939-.47 1.761c.235.705.117 1.996 0 2.818-.118.822-.705.353-1.526.353-.822 0 .352-2.231.235-2.936-.118-.705-1.761 1.292-2.349 1.174-.587-.118-.939 3.522-1.761 3.875-.822.353.353-3.522.235-3.875 0-.235-3.875 4.344-4.227 4.579-.352.235-1.878 1.057-2.113 1.292s2.936 1.996 3.288 2.349c.352.352 3.17-1.879 3.64-1.996.587-.118.822.939 1.057 1.292s1.996-1.292 2.583-1.996c.587-.822.705-2.231 1.174-2.936.352-.587.352-.822.235-.822.117 0 .939.235 1.409.47s.822-.705.822-.939-.118-.352.822-.705c.939-.352.352-1.057.705-1.526.235-.47-.353-1.057-.353-1.526s-.352-1.174-.704-1.996c-.353-.822.822-.939 1.292-1.526s-.939-.939-.939-1.174c0-.352-.705-.117-1.174-.587s.353-.587.47-.822c.118-.235.118-.705.705-1.174s-.352-1.409-.352-1.879c-.118-.47.469-1.409.469-1.761 0-.352 1.996-2.583 2.701-3.053s-1.878-3.17-1.996-3.757c-.117-.587-1.878.353-2.701-.587-.822-1.057 1.174-1.644 1.174-2.466s-2.701 1.526-3.053.822c-.353-.705 3.17-1.409 3.053-2.231-.117-.822-3.288-2.583-3.875-3.875-.705-1.292 1.057-.353 1.878-.353.822.118-.47-1.761-.939-3.288s1.761 1.292 1.879.235c.117-1.057-1.057-2.818-1.292-3.17-.235-.352.117-1.057-.118-2.348-.117-1.409-1.996.47-3.522-1.292l-1.526-2.818.582-.823-.352-1.526h118.474c0 7.632-.118 67.397 0 67.632.117.235.587.939.705 1.409.117.47-.822.939-.822 1.409 0 .587.822 1.526.822 1.644.117.117.822 1.057 1.057 1.292s.117 1.526.117 1.644c0 .118.353.939.587 1.527.352.704-.587 1.526-1.057 1.878-.47.352 1.057 1.174 1.526 1.644.469.352.235 1.057.235 1.057-1.292 0-42.975.117-44.149 0-1.174-.118-6.693 1.526-7.163 1.878-.47.353-5.753 1.174-5.753 1.174s-2.348.705-3.405.822c-1.057.118-2.349.353-3.522.353-1.174 0-3.17 1.644-3.992 1.996-.822.352-2.818 1.057-2.818 1.057s-3.992.47-4.814-.352c-.822-.939-2.936.587-3.288.704-.47 0-2.231.822-2.583 1.057-.353.235-2.583.587-4.462.587-1.879 0-.705.235-2.231 1.174-1.526.822-.822-.822-1.174-1.292-.47-.352-1.526-.822-3.17-.939-1.644-.118-2.936-.587-3.992-.822-1.174-.235-2.583.705-3.405.822-.822.117-.939-.235-1.409-.939l-2.936 1.878s-1.996 1.292-2.583 1.292c-.587.117-2.818 1.174-3.288 1.292-.352.235-3.053-.118-4.697-.587-1.644-.47-2.701-.352-3.522-.587-.822-.117-1.761-.352-2.113-.705-.353-.352-1.409-3.522-1.644-3.992-.117-.352-.117-1.292-.117-1.292l-.118-1.644s-.235-.705-.352-1.409c-.118-.705-.235-.353-.47-.822-.235-.353-.822-.587-.822-1.292 0-.587-.353-1.057-.47-1.527-.118-.469-.353-.705-.705-.939-.353-.235-1.057-.705-1.174-1.057-.117-.352-1.526-.235-2.113-.469-.587-.235-.47-.587-.705-.939-.118-.353-2.466.587-2.583.704-.118.118-1.174.235-1.527-.117-.234-.352-.352-.352-1.057-.939s-1.057-.587-1.526-1.409c-.352-.47-1.526-.235-2.583 0"/><path stroke="#fff" stroke-width=".958" stroke-miterlimit="10" stroke-dasharray="1.9155,3.8311" d="M51.561 93.755c-.587 0-1.526-.118-2.349-.235l.235-1.057c.705.118 1.526.235 2.114.235v1.057zm-6.693-1.174c-.352 0-.587-.118-.822-.118-.587-.117-1.057-.234-1.409-.352l.352-1.057c.353.117.705.235 1.292.352l.704.118-.117 1.057zm28.884-.235c-.939 0-.939-.939-.939-1.292h1.174v.117s.118 0 .118-.117c.235-.118.352-.235.47-.235l.705.822c-.118.118-.353.235-.587.352-.354.236-.706.353-.941.353zm-17.73-.117l-.47-1.057c.352-.117.939-.587 1.761-1.174l.705.939c-.822.704-1.526 1.174-1.996 1.292zm23.131-1.41l-.117-1.174c1.057-.117 1.644-.235 1.761-.352 0 0 .117-.118.235-.118l.587.939s-.117 0-.117.118c-.587.352-1.644.587-2.349.587zm-16.79-.939c-.822 0-1.174-.47-1.526-1.057l.939-.705c.352.587.352.587.587.587h.235c.117 0 .235 0 .47-.117l.352 1.057c-.235.118-.47.118-.705.118-.117.117-.235.117-.352.117zm7.28 0c-.822-.117-1.644-.352-2.231-.47l.235-1.057c.587.117 1.292.352 2.113.47l-.117 1.057zm22.426-.822l-.353-1.057 2.114-.822.352 1.057-2.113.822zm-4.814 0c-.352-.118-.587-.235-.704-.47 0 0-.353-.118-.939 0l-.353-1.057c1.174-.353 1.879 0 2.114.235 0 0 .117.117.235.117l-.353 1.175zm-47.201-1.057l-.235-.587c-.118-.235-.118-.587-.118-.939v-.822l1.174-.117v1.5259999999999998c0 .117.117.235.235.47l-1.056.469zm58.121-1.761l-.352-1.057c.352-.117.587-.117.822-.117.47 0 .939 0 1.526-.118l.118 1.174c-.587.118-1.174.118-1.644.118-.118-.117-.353-.117-.47 0zm6.575-1.057l-.352-1.057.939-.235.352-.117c.235 0 .587-.118 1.057-.118l.235 1.057c-.587.118-1.057.118-1.292.235-.117 0-.469.118-.939.235zm6.811-1.526l-.705-.939s.352-.235 2.231-.822l.352 1.057c-1.174.352-1.761.587-1.878.704zm-73.034-1.761c-.235-.352-.353-.705-.353-1.057 0-.235-.117-.47-.235-.822l-.235-.47 1.057-.353.117.353c.117.352.352.705.352 1.292 0 .117 0 .235.118.352l-.821.705zm88.18 0h-2.231v-1.174h2.231v1.174zm4.58 0v-1.174h2.231v1.174h-2.231zm6.692 0v-1.174h2.231v1.174h-2.231zm-18.082 0h-2.231l-.117-1.057h2.348v1.057zm24.775 0v-1.174h2.114l.117 1.174h-2.231zm6.81 0v-1.174h2.231v1.174h-2.231zm6.693 0v-1.174h2.231v1.174h-2.231zm2.818-1.997c-.353-.352-.705-.705-.705-1.174 0-.235.117-.47.235-.587.234-.117.469-.47.704-.705l.939.587c-.235.235-.47.587-.705.705l.235.234-.703.94zm-126.223-2.231c-.353 0-.587-.117-.705-.117-.587-.235-.822-.822-.822-1.057v-.117c0 .117.118.117.118.117l-.352-1.057c.822-.117 1.057.235 1.057.353 0 0 0 .117.117.235.118.235.118.235.235.352 0 0 .118 0 .353.117v1.174zm-6.106-1.056l-.587-.47c-.235-.235-.47-.352-.587-.47-.235-.117-.469-.235-.587-.47l.822-.822.47.353c.235.117.353.234.705.469l.587.47-.823.94zm132.211-2.701c-.235-.117-.47-.352-1.174-1.292l-.117-.118c-.118-.117-.235-.234-.353-.469l.939-.705c.118.117.235.235.235.352.118.118.118.118.118.235.587.822.822 1.057.822 1.057l.117.118-.469.47-.118.352zm-1.996-5.87c-.118-.235-.118-.235-.118-2.466h1.174v2.113h-.352l-.704.353zm-139.961-5.989c-.352-.118-.822-.353-1.174-.587-.234-.117-.352-.117-.587-.117l-.235-1.174c.47 0 .822 0 1.292.235l1.057.587-.353 1.056zm139.844-.939v-2.231h1.174v2.231h-1.174zm0-6.81v-2.231h1.174v2.231h-1.174zm1.057-6.693h-1.174v-2.231h1.174v2.231zm0-6.81h-1.174v-2.231h1.174v2.231zm0-6.693h-1.174v-2.231h1.174v2.231zm0-6.81h-1.174v-2.231h1.174v2.231zm0-6.693h-1.174v-2.231h1.174v2.231zm0-6.81h-1.174v-2.231h1.174v2.231zm.117-6.693h-1.174v-2.231h1.174v2.231z"/></g></a></svg>