<svg xmlns="http://www.w3.org/2000/svg" viewBox="0 0 213.057 256.437"><style>path:hover { transition-duration: .56s; }</style><path fill-rule="evenodd" clip-rule="evenodd" fill="#288585" d="M4.495 0c.215 1.539.606 4.837-1.097 5.671-.627.308 1.492 1.399 1.605 1.628.433.86.768 1.759 1.077 2.662.564 1.641 1.143 3.303 1.509 4.997.281 1.294-.355 2.514-.726 3.746-.493 1.636-1.09 3.36-1.219 5.076-.058.745.331 1.369.581 2.048.317.869-.367 2.031-.461 2.93-.114 1.084-.16 1.861.669 2.633 1.127 1.043-1.147.486-1.097 1.176.022.504-1.423 1.732-1 2.144 1.077 1.102-.781.808-1.298.846-.627.053-.484 1.277-.538 1.703-.081.675-.673 1.092-.993 1.71-.281.548-.45 1.592-.753 2.026-.528.754-1.25.719-.269 1.864.629.737.623.54.912 1.631.27 1.018.099 1.268.075 2.299-.038 1.591 1.281.978 2.085 1.496.441.285.551 1.056.928 1.447.491.509 1.108.904 1.642 1.36.906.776.836 1.325 1.358 2.168.254.407.858.398 1.132.908.201.376.392.573.701.851.467.413 1.551 1.066 1.702 1.72.228.973 1.325 1.824 1.373 2.767.055 1.062.024 2.153.542 3.115.509.948 1.079 1.851.873 2.982-.136.769-.859 1.462-.803 2.221.046.719.616 2.855-.373 3.146-.871.259.52 2.495.845 3.175.643 1.338 1.088 2.8 1.549 4.207.406 1.229 1.031 2.119-.04 3.032-1.879 1.605-.385 2.851 1.253 3.908 3.299 2.123 4.641 5.483 7.372 8.203 1.042 1.04 3.036 2.115 3.617 3.431.849 1.89 1.971 3.62 3.29 5.185.419.5 1.507 1.382 1.56 2.045 0 .008-1.25.587-1.345 1.043-.213 1.031-2.777 2.369-.279 2.785l2.333-.268c.474.098 1.224 1.159 1.578 1.466 1.498 1.316 3.276 2.154 4.788 3.391 1.285 1.053 1.061-.579 1.07-1.438.016-1.531.101-3.08.338-4.593.25-1.597.3-1.741 1.75-1.925.658-.084 1.707-.448 2.271.086.611.575.594 1.475 1.454 1.866 1.049-.697 2.321-1.593 3.596-1.755.837-.105.8.764 1.114 1.317.393.692 2.112.166 2.727.086 1.48-.192 3.132-.702 4.546-.091.895.381 3.163.982 3.722 1.811-.386-.574-2.605-.771-3.303-1.104-.162-.076-.94-.957-1.079-.399-.075.307-.471.675-.399 1.009.024.131.68.693.399.807-.743.294-2.033-1.065-2.98-1.03-1.123.043-2.581.337-3.654-.066-1.062-.396-1.397-.873-2.533-.32-.724.351-1.57.508-2.351.679-1.114-1.009-2.025.206-2.858 1.027-1.391 1.373.327 2.321 1.006 3.474.276.465-.059.996.143 1.469.263.623 1.084 1.128 1.502 1.646.996 1.229 1.112 2.438 1.516 3.912.494 1.804 1.156 1.896 2.549 2.87 1.349.943-1.654 1.983-1.773 1.5-.395-1.57-1.768-1.72-2.766-2.961-.855-1.071-1.744-2.119-2.628-3.171.97-.785.821-4.11-.837-3.952-.31.029-1.891.438-1.972.755-.125.494.349 1.32.419 1.819.129.931-.042 1.703-.509 2.501-1.356 2.329 1.322 3.079 2.043 4.843.762 1.855-.508 3.443-.364 5.298.152 1.94 2.817 4.041 4.047 5.414.774.859 2.5 3.584 3.895 2.869.667-.338 1.371-.991 2.174-.934 1.04.074 1.737 1.828 2.296 2.547.823 1.063.715 1.556.831 2.787.108 1.161.641 1.084.049 2.402-.285.638-.687 2.02-1.511 2.137-.404.053-1.504-.526-1.678-.153-.335.694.507 1.921.314 2.777-.263 1.171.417 1.869.779 2.809.355.906-.099 1.987.271 2.928.128.321 1.271 2.089 1.667 2.107 1.027.039 1.101 1 2.151 1.175.88.148 1.56 2.013 1.944 2.688.668 1.192.107 1.51 1.55 2.27 1.011.552 1.026.906 1.327 2.026.371 1.371 1.563 3.225 2.47 4.328.618.76.652 1.001.713 1.91.085 1.279 1.634 1.271 2.575 1.434.748.13 1.013 1.097 1.379 1.667.68 1.064 1.422 2.132 2.31 3.032 1.334 1.346 3.119.982 3.992 2.958.555 1.264-.852.914-1.066 1.187-.643.812-.648 2.851.331 3.382.685.366 5.216.894 4.99 2.11-.173.898.046 1.834-.16 2.73-.272 1.198-1.524 1.256-1.046 2.678.393 1.188 1.141 1.846.996 3.21-.109 1.031.176 1.523.248 2.584.073 1.062-.8 2.021-.75 3.132.058 1.232 1.776 1.466 2.619 2.066 1.68 1.192 2.961 1.531 5.036 1.433.75-.034 1.463-.959 2.097-.849.507.087.755.737 1.257.895.5.153 1.046-.027 1.561.097 1.191.279 2.084 1.207 3.345 1.314.944.085 1.658.105 2.602.368.891.255 1.272-.104 2.06-.485 1.412-.688 1.656-.07 2.875.534 1.592.79 2.961 2.125 4.554 2.988.879.475.905 1.596.989 2.464.128 1.374 1.563 1.82 2.667 2.274.848.35 1.723.627 2.528 1.064.885.483 1.81 1.466 2.84 1.605.913.128 1.207-1.587 2.199-1.132.785.359 2.053.049 2.88.015.367-.019 1.793-.211 1.957.315.412 1.298.769 1.548 1.604 2.598.604.749.952 2.311.913 3.276-.021.533-.773.845-.565 1.415.167.465.487 1.028.854 1.36-.161-.145 1.923-.5 1.87-.412.382-.646.105-.833 1.174-.604.844.174 2.328-.172 2.89.666.63.955 1.779 1.677 2.641 2.396 1.477 1.231 2.76 2.508 4.432 3.465 1.539.886 2.91 2.154 4.046 3.506 1.72 2.038 3 4.558 4.075 6.991.769 1.74.929 3.57 1.509 5.373.173.53 1.328 1.378.627 1.786-.625.359-.651 1.538-.754 2.207-.169 1.104.066 1.941 1.164 2.364.432.162 2.544.406 2.39 1.153-.232 1.184-.938 1.214-.172 2.469.395.642.977.79 1.7.712.515-.053 1.03-.105 1.547-.153 2.368-.233 4.734-.463 7.101-.688 7.333-.713 14.661-1.414 21.994-2.114 5.709-.55 11.418-1.106 17.128-1.643 1.216-1.165 3.97.106 4.23-2.052.116-.948 1.035-1.293 1.115-2.347.021-.286.29-2.391.004-2.549-.711-.398-.5-1.781-1.276-1.743-.996.053-2.34.01-2.961-.959-.848-1.326-.132-2.242.407-3.444.422-.938-.831-1.466.031-2.295-.467-.336-2.064-1.525-1.024-2.026.716-.341-.72-2.354.797-1.697.925-.991 1.312-2.355 2.331-3.239.991-.928-.438-3.151.87-4.168 1.507-1.178 1.051-2.036.625-3.834-.417-1.757-1.134-3.233.445-4.584.48-.413 1.24-.604 1.266-1.321.03-.825-.074-1.219.556-1.779 1.252-1.12 2.664-2.041 3.916-3.156 3.082-2.794-1.068-5.118-3.495-6.249-.158-.795-.134-1.715-.391-2.477-.343-1.021-1.398-2.165-1.3-3.275.162-1.821-2.753-4.365-4.021-5.514l-.134-3.624-111.364-108.004.022-81.488h-86.788z" id="CA"/></svg>