<svg xmlns="http://www.w3.org/2000/svg" xmlns:xlink="http://www.w3.org/1999/xlink" viewBox="0 0 373.503 371.859"><style>path:hover { transition-duration: .56s; }</style><a xlink:href="colorado.html"><g id="CO_1_"><path id="CO" fill="#288585" onmouseover="evt.target.setAttribute('fill', '#fce149');" onmouseout="evt.target.setAttribute('fill', '#288585');" d="M331.938 108.141h-104.267.118l-.118 108.845h145.832v-108.845z"/><path id="CO_2_" stroke="#fff" stroke-width=".958" stroke-miterlimit="10" stroke-dasharray="1.9155,3.8311" fill="none" d="M331.938 108.141h-104.267.118l-.118 108.845h125.401"/></g></a><a xlink:href="new-mexico.html"><g id="NM"><path fill="#288585" onmouseover="evt.target.setAttribute('fill', '#fce149');" onmouseout="evt.target.setAttribute('fill', '#288585');" d="M227.671 370.685h17.025l.118-12.563 34.521.117c-.234-.469-.705-.821-.705-1.408-.117-.822-.704-.47-.704-1.175 0-1.057-.821-2.583-.587-3.405h74.324l.705-121.996h.587v-13.268h-125.284v153.698z"/><path fill="#fff" d="M227.671 216.986h-1.174v2.23h1.174v-2.23zm-1.057 6.693v2.231h1.175v-2.114l-1.175-.117zm0 6.693v2.23h1.175v-2.231h-1.175v.001zm0 6.81v2.231h1.175v-2.231h-1.175zm0 6.693v2.23h1.175v-2.23h-1.175zm0 6.81v2.231h1.175v-2.232h-1.175v.001zm0 6.693v2.23h1.175v-2.23h-1.175zm0 6.81v2.231h1.175v-2.231h-1.175zm0 6.693v2.23h1.175v-2.23h-1.175zm0 6.809v2.231h1.175v-2.113h-1.175v-.118zm0 6.694v2.23h1.175v-2.23h-1.175zm0 6.809v2.231h1.175v-2.231h-1.175zm0 6.694v2.23h1.175v-2.23h-1.175zm0 6.809v2.231h1.175v-2.231h-1.175zm0 6.694v2.23h1.175v-2.23h-1.175zm0 6.809v2.231h1.175v-2.231h-1.175zm0 6.694v2.23h1.175v-2.113h-1.175v-.117zm0 6.692v2.231h1.175v-2.114h-1.175v-.117zm0 6.811v2.23h1.175v-2.23h-1.175zm0 6.692v2.231h1.175v-2.231h-1.175zm0 6.81v2.23h1.175v-2.231h-1.175v.001zm0 6.693v2.231h1.175v-2.231h-1.175zm0 6.81v2.23h1.175v-2.23h-1.175zm2.584 5.284v1.175m124.931-154.287h-1.174m-6.105-1.643v1.174h2.23v-1.174h-2.23zm-6.811 0v1.174h2.231v-1.174h-2.231zm-6.692-.118v1.174h2.23v-1.174h-2.23zm-6.811 0v1.174h2.231v-1.174h-2.231zm-6.692 0v1.174h2.23v-1.174h-2.23zm-6.811 0v1.174h2.231v-1.174h-2.231zm-6.692 0v1.174h2.23v-1.174h-2.23zm-6.811 0v1.174h2.348v-1.174h-2.348zm-6.692 0v1.174h2.23v-1.174h-2.23zm-6.811 0v1.174h2.349v-1.174h-2.349zm-6.692 0v1.174h2.23v-1.174h-2.23zm-6.693 0v1.174h2.231v-1.174h-2.231zm-6.81 0v1.174h2.23v-1.174h-2.23zm-6.692 0v1.174h2.23v-1.174h-2.23zm-6.811 0v1.174h2.23v-1.174h-2.23zm-6.693 0v1.174h2.231v-1.174h-2.231zm-6.81 0v1.174h2.231v-1.174h-2.231zm-6.692 0v1.174h2.23v-1.174h-2.23z"/></g></a><a xlink:href="wyoming.html"><g id="WY_1_"><path id="WY" fill="#288585" onmouseover="evt.target.setAttribute('fill', '#fce149');" onmouseout="evt.target.setAttribute('fill', '#288585');" d="M331.938 0h-145.714l-.118 13.855v67.163l.118 27.005 41.447.118h104.267z"/><path id="WY_2_" stroke="#fff" stroke-width=".958" stroke-miterlimit="10" stroke-dasharray="1.9155,3.8311" fill="none" d="M186.106 81.018l.118 27.005 41.447.118h104.267"/></g></a><a xlink:href="utah.html"><g id="UT"><path id="UT_3_" fill="#288585" onmouseover="evt.target.setAttribute('fill', '#fce149');" onmouseout="evt.target.setAttribute('fill', '#288585');" d="M123.405 81.135l.117 135.851h104.149l.118-108.845-41.565-.118-.118-27.005"/><path id="UT_2_" stroke="#fff" stroke-width=".958" stroke-miterlimit="10" stroke-dasharray="1.9155,3.8311" fill="none" d="M123.405 81.135l.117 135.851h104.149l.118-108.845-41.565-.118-.118-27.005"/></g></a><a xlink:href="arizona.html"><g id="AZ"><path fill="#288585" onmouseover="evt.target.setAttribute('fill', '#fce149');" onmouseout="evt.target.setAttribute('fill', '#288585');" d="M109.55 333.229c-.117.47-.352 1.058-.587 1.526l-.822.939c-.235 1.175.352 2.701.352 3.875 2.818-.234 6.576 1.996 9.159 3.053l16.204 6.693c13.268 5.4 26.536 10.802 39.687 16.203l12.564 5.166h41.564v-153.698h-104.266v21.487c-.47 1.174-1.644 1.996-1.644 3.17 0 1.175 0 1.292-1.174 1.409-1.057.117-1.409 0-2.114-.939-.822-1.291-.705-2.583-2.466-1.879-.822.353-1.409 0-1.761-.821-.117-.47-1.409.117-1.644.234-.939.353-2.114.587-2.583 1.526-.939 2.113-.822 3.641.47 5.401.47.704-.235 1.174-.235 1.762 0 .704 0 1.408.118 2.113.117 1.057.587 1.996 1.057 3.053-1.057 3.405.352 6.575.822 9.98.705.353 1.057 2.7.47 3.17-.822.47-1.644.47-.939 1.645.353.587 0 1.644-.469 2.113l.234.234.118 3.641c1.292 1.174 4.227 3.64 3.992 5.519-.118.938.705 1.996 1.057 2.817.47.939.352 1.996.587 2.936 2.465 1.174 6.575 3.405 3.522 6.224l-3.64 2.935c-.587.47-.822.705-.822 1.526 0 1.175-.47 1.175-1.292 1.762-1.409 1.292-.939 2.466-.587 4.109.47 1.879 1.057 3.053-.47 4.345-1.174.939-.47 2.7-.822 3.992-.117.704-1.174 1.057-1.174 1.761 0 .588-.822 1.175-1.174 1.645-1.526-.705-.118 1.408-.822 1.644-1.057.47.587 1.644 1.057 1.996-.822.822.352 1.409 0 2.349-.587 1.174-1.292 2.113-.353 3.404.587.939 1.996 1.058 2.936.939.822 0 .587 1.292 1.292 1.762.235.117 0 2.23 0 2.583-.117 1.057-1.057 1.409-1.174 2.349-.236 2.465-3.054 1.173-4.228 2.347z"/><path fill="#fff" d="M227.671 215.812h-2.23v1.174h2.23v2.23h1.175v-2.23h-1.175v-1.174zm-6.692 0h-2.231v1.174h2.231v-1.174zm-6.81 0h-2.231v1.174h2.232v-1.174h-.001zm-6.693 0h-2.23v1.174h2.23v-1.174zm-6.811 0h-2.23v1.174h2.23v-1.174zm-6.692 0h-2.231v1.174h2.231v-1.174zm-6.693 0h-2.23v1.174h2.23v-1.174zm-6.81 0h-2.231v1.174h2.231v-1.174zm-6.693 0h-2.231v1.174h2.231v-1.174zm-6.81 0h-2.231v1.174h2.231v-1.174zm-6.693 0h-2.231v1.174h2.231v-1.174zm-6.81 0h-2.231v1.174h2.231v-1.174zm-6.693.118h-2.231v1.174h2.231v-1.174zm-6.81 0h-2.231v1.174h2.349v-1.174h-.118zm-6.693 0h-2.231v1.174h2.231v-1.174zm-6.81 0h-2.231v1.174h2.231v-1.174zm-2.936 4.813h-1.174v2.231h1.174v-2.231zm0 6.694h-1.174v2.23h1.174v-2.23zm0 6.809h-1.174v2.231h1.174v-2.231zm-2.348 5.754c-.352.587-.47 1.057-.47 1.644v.705l.353.117.704.353v-.94c0-.235.118-.587.353-.822l-.94-1.057zm-4.227-.939h-.47l.235 1.057c.353.235.47.587.705 1.057 0 .118 0 .118.117.235l1.057-.47-.118-.235c.353-.471-.117-1.644-1.526-1.644zm-4.579-.353h-.118l-.47.118c-.587.234-1.174.352-1.761.821l.587.939.822-.47.587-.234h.118l.352-.117h.118l-.235-1.057zm-2.818 5.988l-1.057.235c.235.822.587 1.526 1.174 2.349l.939-.705-.353-.587c-.468-.469-.586-.939-.703-1.292zm.939 6.341l-1.057.235c.117.821.47 1.526.705 2.113l.117.234 1.057-.47s0-.117-.118-.117l-.352-1.057c-.234-.468-.234-.703-.352-.938zm.705 6.575l-1.174.117c.118.822.235 1.645.353 2.349l1.057-.234-.117-.588c-.001-.821-.119-1.291-.119-1.644zm1.526 6.458l-.939.587c.235.353.353 1.057.235 1.409l1.057.235v-.939c0-.587-.118-.939-.353-1.292zm-1.996 5.402c-.117.117-.117.353-.235.353l-.705.821.705.587v.705h1.174v-1.057s.117-.117.117-.235l.235-.352-1.291-.822zm2.349 6.34l-.822.821c.587.587 1.057 1.057 1.409 1.526l.939-.704c-.118-.117-.235-.235-.235-.353-.469-.585-.822-.938-1.291-1.29zm3.052 5.753l-.939.47c.118.117.235.353.235.47.117.234.235.47.352.587.118.235.118.353.235.705l1.057-.235-.117-.47c-.353-.704-.588-1.057-.823-1.527zm3.405 5.285l-.587.939c.705.352 1.174.821 1.526 1.174l.822-.705c-.469-.587-1.173-1.057-1.761-1.408zm.47 4.462l-1.761 1.408.705.939 1.761-1.409-.705-.938zm-4.696 5.4l-.235.235c-.235.117-.353.234-.587.47l-.352.353.822.821.118-.117s.117 0 .117-.117c.118-.118.118-.118.235-.118.117-.117.235-.117.235-.234.235-.117.352-.235.705-.704v-.235l-1.058-.354zm-.588 5.988l-1.057.235.118.47c.117.587.234 1.057.234 1.409h1.174c0-.235 0-.588-.117-.822 0-.235-.118-.587-.235-.822-.117-.234-.117-.352-.117-.47zm-1.408 6.107h-1.174v.352c0 .47 0 .939-.118 1.175h.235l.705.47s0-.118.118-.118v-.47c.234-.822.234-1.058.234-1.409zm-3.875 4.343c-.587.587-.47 1.292-.352 1.762v.117c-.118.117-.235.234-.235.353l.939.587c0-.117.117-.117.234-.235.118-.117.235-.234.235-.47v-.352l-.117-.47c0-.117 0-.353.117-.353l-.821-.939zm.704 6.576l.939.353v-.352h-.939v-.001zm-.117-.118l-.234.47c-.235.47-.47.939-.587 1.409l1.057.234c0-.117 0-.117.118-.234l.235-.587c0-.117.117-.235.117-.235.118-.117.118-.352.235-.587l-.939-.353v-.117h-.002zm3.64 4.932v.587-.587h-.587v1.174h.235l.234.588 1.057-.47-.118-.353c-.117-.235-.117-.353-.235-.47-.117-.117-.117-.234-.352-.234-.117-.235-.117-.235-.234-.235zm-.235 4.814c-.352.47-.705.939-.822 1.761 0 .117 0 .235-.118.235l.822.704c.117-.117.234-.353.234-.704 0-.235.118-.47.235-.705l.235-.352.118-.118-.704-.821zm-4.932 3.523c-.235.47-.47.821-.587 1.409l-.235.117.705.821s.117 0 .117-.117l.235-.117.235-.234.118-.353c.117-.235.235-.47.352-.587l-.94-.939zm.47 6.692h-.235l.118 1.174h.235c.469 0 1.057.118 1.644.235l.235-1.057c-.587-.117-1.057-.235-1.644-.235-.001.001-.235-.117-.353-.117zm6.106 1.879l-.47 1.057.587.234 1.526.705.47-1.057c-.352-.235-.822-.353-1.292-.587-.118 0-.235-.118-.235-.118l-.586-.234zm6.223 2.7l-.47 1.057 2.113.822.47-1.057-2.113-.822zm6.223 2.583l-.47 1.058 2.114.821.47-1.057c-.705-.352-1.41-.586-2.114-.822zm6.223 2.466l-.47 1.057.118.118 1.878.821.47-1.057c-.705-.234-1.292-.587-1.878-.821l-.118-.118zm6.223 2.584l-.47 1.057 2.114.821.47-1.057c-.235-.117-.47-.234-.705-.234h-.118l-.47-.235c-.117 0-.117 0-.235-.117l-.234-.117c0-.001-.117-.001-.352-.118zm6.341 2.583l-.47 1.057 2.113.821.47-1.057-.705-.352c-.235-.118-.47-.235-.705-.235-.351-.117-.586-.117-.703-.234zm6.222 2.583l-.469 1.057 2.113.822.47-1.057c-.704-.352-1.409-.587-2.114-.822zm6.224 2.466l-.47 1.057 2.114.822.47-1.058c-.705-.234-1.41-.468-2.114-.821zm6.223 2.583l-.47 1.057 2.114.822.47-1.057-2.114-.822zm6.223 2.583l-.47 1.057 2.114.822.47-1.057c-.235-.117-.47-.235-.705-.235-.353-.234-.939-.47-1.409-.587zm55.069 7.28v-1.175m1.408-5.4v2.23h1.175v-2.23h-1.175zm0-6.693v2.231h1.175v-2.231h-1.175zm0-6.693v2.23h1.175v-2.23h-1.175zm0-6.81v2.231h1.175v-2.231h-1.175zm0-6.692v2.23h1.175v-2.23h-1.175zm0-6.811v2.231h1.175v-2.231h-1.175zm0-6.692v2.113h1.175v-2.23h-1.175v.117zm0-6.811v2.231h1.175v-2.231h-1.175zm0-6.692v2.23h1.175v-2.23h-1.175zm0-6.811v2.232h1.175v-2.231h-1.175v-.001zm0-6.692v2.23h1.175v-2.23h-1.175zm0-6.811v2.231h1.175v-2.231h-1.175zm0-6.692v2.231h1.175v-2.23h-1.175v-.001zm0-6.811v2.232h1.175v-2.231h-1.175v-.001zm0-6.692v2.23h1.175v-2.23h-1.175zm0-6.811v2.231h1.175v-2.231h-1.175zm0-6.692v2.231h1.175v-2.23h-1.175v-.001zm0-6.693v2.231h1.175v-2.231h-1.175zm0-6.81v2.23h1.175v-2.23h-1.175zm0-6.693v2.114h1.175v-2.231h-1.175v.117zm0-6.81v2.23h1.175v-2.23h-1.175zm0-6.693v2.231h1.175v-2.231h-1.175z"/></g></a><a xlink:href="nevada.html"><g id="NV"><path fill="#288585" onmouseover="evt.target.setAttribute('fill', '#fce149');" onmouseout="evt.target.setAttribute('fill', '#288585');" d="M61.996 81.018h-61.996v81.604l111.312 107.906c.234-.234.939-1.526.704-1.879-.587-.821-.704-1.291.353-1.644 1.057-.47 1.174-2.818.117-3.405-.47-3.405-1.878-6.575-.822-9.98-.352-.821-.822-1.761-.939-2.583-.117-.704-.235-1.409-.235-2.23 0-.705.705-1.526.235-2.114-1.174-1.644-1.526-2.935-.705-4.931.587-1.292 1.526-1.527 2.818-1.996.352-.118 1.174-.47 1.526-.353.352.234.705 1.644 1.526 1.174 1.878-1.174 1.878.353 2.818 1.644.235.47.822 1.292 1.409 1.058.587-.118 1.996 0 1.878-.939-.352-1.645.939-2.466 1.526-3.875l-.117-157.456h-61.408z"/><path fill="#fff" d="M110.02 269.354l-.822.821 1.292 1.292.822.822.822-.822c.117-.117.235-.353.352-.587l-.939-.587-.117.234-.117.117-1.293-1.29zm3.992-5.401l-1.057.47c.235.47.235 1.174.118 1.761l-.118.235.939.587c.353-.822.47-2.113.118-3.053zm-1.644-6.105l-1.057.117v.234l.117.939c0 .235.118.47.118.822l1.057-.235c0-.469-.118-1.173-.235-1.877zm-.704-6.694l-1.057.235c.117.587.352 1.174.587 1.644v.117c0 .118.118.235.118.235l1.057-.47-.235-.587c-.118-.351-.353-.704-.47-1.174zm-.94-6.458l-1.057.353c.118.353.352.704.47.939l.117.234 1.057-.352c-.118-.235-.118-.47-.353-.587.119.236-.116-.234-.234-.587zm1.761-4.93l-.235.117-.587.234c-.235.117-.587.235-.822.47l.822.822c.235-.235.705-.47 1.409-.705l.235-.117-.822-.821zm4.462.351v.822-.822l-.705.117.47 1.058h.118c0 .117.117.234.234.352l1.057-.47c-.118-.352-.353-.587-.47-.821l-.352-.235c-.234.116-.234.116-.352-.001zm5.049 1.057c-.117.353-.117.705-.117 1.175 0 .352-.235.587-.587.587l.352 1.057c1.174-.353 1.526-1.292 1.409-1.996v-.704l-1.057-.119zm2.584-6.34h-1.174v2.23h1.174v-2.23zm0-6.693h-1.174v2.231h1.174v-2.231zm0-6.81h-1.174v2.231h1.174v-2.231zm0-6.693h-1.174v2.231h1.174v-2.231zm0-6.81h-1.174v2.23h1.174v-2.23zm0-6.693h-1.174v2.232h1.174v-2.232zm0-6.81h-1.174v2.23h1.174v-2.23zm0-6.693h-1.174v2.232h1.174v-2.232zm0-6.81h-1.174v2.23h1.174v-2.23zm0-6.693h-1.174v2.114h1.174v-2.114zm0-6.692h-1.174v2.23h1.174v-2.23zm0-6.811h-1.174v2.231h1.174v-2.231zm0-6.692h-1.174v2.231h1.174v-2.231zm0-6.811h-1.174v2.113h1.174v-2.113zm0-6.692h-1.174v2.113h1.174v-2.113zm0-6.811h-1.174v2.113h1.174v-2.113zm0-6.692h-1.174v2.23h1.174v-2.23zm0-6.811h-1.174v2.231h1.174v-2.231zm0-6.692h-1.174v2.113h1.174v-2.113zm0-6.811h-1.174v2.231h1.174v-2.231zm0-6.692h-1.174v2.231h1.174v-2.231zm0-6.811h-1.174v2.231h1.174v-2.231zm-.118-6.692h-1.174v2.23h1.174v-2.23zm-2.466-6.458v1.174h1.409v.822h1.174v-1.996h-2.583z"/></g></a></svg>