<svg xmlns="http://www.w3.org/2000/svg" xmlns:xlink="http://www.w3.org/1999/xlink" viewBox="0 0 481.9 437.9"><style>path:hover { transition-duration: .56s; }</style><a class="newYork"><path id="New York" fill-rule="evenodd" clip-rule="evenodd" fill="#288585" onmouseover="evt.target.setAttribute('fill', '#fce149');" onmouseout="evt.target.setAttribute('fill', '#288585');" d="M205.4 337.8c.5-.2.4-.8.4-1.2l-.4 1.2zm1.4-56.6c.5 0 1 .1 1.2.3.5.4 27.2 17 27.2 17-.7 4.7-2.4 9.3-4.3 13.7-.4 1.1-4.2.8-5.3 1.2-1.7.7-2.6 5.1-1.3 6.3 1.3-1.4 2.7-1.7 4-3.3 1-1.4 2.9-3 4.4-1.3 1.7 1.8 3 .7 4.3-.6.8-.8 3.4.2 4.3.3 4 .3 8.4-1.2 12.1-2.5 5-1.7 9.4-3.4 14.7-4.1 4.4-.6 9.7-1 13.9-2.4 1.3-.4 1.8-2.1 3-2.8 1.3-.8 2.1 2 4 .4 2.6-2.1 6-4.1 9.1-5.3.8-.3 8.9-2.9 8.9-4 0-.3-2.5-.3-2.9-.2-1.2.3-1.6 1.6-2.5 2.2-.6.5-2.5.6-3.3.6-1.3.1 1-1.4-.9-1.6-2.2-.2-5.1 3.2-6 .6-.5-1.4-.2-1.5.8-2.7.2-.2 2.4-3 2.1-3.1-.6-.1-1.5.8-2 .6-.7-.3-2.5 1.8-2.9 2.2-1.1 1.2-1.5 2.9-1.5 4.5 0 2.1 0 2-1.7 1.1-.1-.1-1.7 1-1.7.8.1-1.4 2.2-3.1 2.7-4.6-2.9-1.4-3.5 3.9-6.1 4.4-4.2.8-7.7.2-11.9.2-2.5 0-6-.2-8.5.3-1.5.3-2.1 1.8-3.7 1.7-1.1-.1-2.3-.5-3.3-1.1-2.5.7-5 1.4-7.4 2.1-2.4.7-3.2 2.3-5.2 3.4-.4.2-4.6 1.7-4.9 1.4.1.1 8-9.9 9-10.1-9.3-6.4 6.2-6 4.5-9.9-.7-1.7-.7-1-1.8-2.2-.3-.3-.2-.8-.2-1.2.1-1.9.2-3.8.3-5.8.6-9.6 1.2-19.2 1.9-28.9l-.7-1.3 8.7-31.6h.1c-1.3-5.5-.2-11.7 0-17.3l.7-18.7c-.5-.4-1.1-.8-1.6-1.3-.6-.5 0-1.7-.4-2.4-.8-1.5-4.3 2.4-4.3 2.3-.8-3.5 3.3-8.3.3-11.1-1.6-1.5-2.7 3.3-2.9 4.4-.5 3.3-2.4 5.2-3.8 8.2-.6 1.2-1.5 4.4-3 4.4-1.9.1.5-4.5.8-5.6.6-2.6 3-2.4 4-4.7 1.1-2.3 1.2-5.4 2.5-7.4.4-.6 4.8-.8 1.3-2.7-.2-.1.2-3 .1-3.4-.5-2-1.7-3.4-1.1-5.7.8-2.8 2.3-5.5 3.2-8.3.4-1.3.8-2.6.9-3.9.2-1.2-1-2.1-1.6-3.1-.6-1-.4-4.4.1-5.4.6-1.7-.7-4.1-.6-5.9.1-2.1.9-4.1 1.2-6.1.5-3.1.7-6.2 1.1-9.3-19.1-.9-38.4-.1-57.5-.1-4.8 3.1-10.2 5.9-14.8 9.3-4.9 3.7-9.4 8.9-13.7 13.4l-.2 4.2c-1-.6-1.7 1-2.8 1-2.1 0-2.5.8-4 2.5-2.8 3.2-4.9 4.4-9.1 4.8-1.7 1.9-3.2 4-2.8 6.7 0 .4.6 3.5 1.7 2.5 1.2-1.2.8-1.5 2.9-1.3.9.1 5.4 3 4 3.9-.8.5-1.6-.1-2.4-.1-1.1 0-.3 3.4-.4 4-.6 2.9-2.9.5-3.9 1.5-1.4 1.3 2.4 6.6 3.2 7.8 1 1.7.2 2-.1 3.7-.3 1.5.8 2.6-1.1 3.1-2.2.6-4.5.9-6.8 1.3-2.7.9-4.4 3.1-6.3 5-3.2 3.2-5.8 4.1-9.9 5.4-3 .9-3.3 1.8-6.6 1.1-2.9-.6-5.3-.5-8.2-.3-1.9.1-4.7-.1-6.4.8-4.8 2.5-6.4-1.1-10.5-3-2.8-1.3-5.7-1.4-8.6-2.2-1-.3-2.7-1-3.7-.7-.9.3-1.5 1.2-2.6 1.4l-5.3-1.6c-6.7 1.4-13.5 2.9-20.2 4.4-.8.2-1.8.3-2.6.6-.5.2-1.2-.1-1.8 0-1.2.4-.9 2.3-.9 3.3-.1 1.7-.6 5.6 1.6 6.4 1.1.4 2.3.6 3.3 1.2.8.5-.1 2.7-.1 3.4-.1 2 1.7 4.2 1.7 6.5-.1 2.2-.8 3.1-2.2 4.7-2.7 3-5.5 7.7-9.7 8.3-3.4.5-6.7 4.3-9.4 6.3-3.4 2.5-6.9 5.6-10.8 7.2v11.7h156.8c-1.6 2.1 2 1.8 2.4 3.1.7 1.9.4 3.8 3.3 3.9 1.4 0 5.1 1.6 4.5 3.8-.2.5-1.6 1.8-1 2.4.7.7.6 1.9.7 2.8.1.8-1.3 1.9-.8 2.7.5.7 1.2 1.3 1.8 2 .7.8 2 4.1 2.7 4.2 2.6.5 9.6 1.5 8.5 5.3.5 0 .1-.4 0 0z"/></a><a class="maine"><path fill-rule="evenodd" clip-rule="evenodd" fill="#288585" onmouseover="evt.target.setAttribute('fill', '#fce149');" onmouseout="evt.target.setAttribute('fill', '#288585');" d="M347.9 202.8c1.8-2.4 5.8-4.9 5.9-8.1.1-1.5-.1-8.3 2.4-5.3.1.1 2.5-2.8 3.1-3.3 1.8-1.3.4-2.2.2-3.7-.2-1.9 5.7-6 7.1-7.3-3.8.3-.3-4.3.4-5.6 1.4-2.3 5.4-3.9 8-4.2 1.7-.2 1.6 1.5 3 0 .3-.3 2.4-2.5 1.4-2.9-1.5-.6-2.1-.5-1.9-2.5.2-1.8 1.5-4 3.6-4.2-.2 0-.9 1.8-.9 2.1 0 .5 1.2 4.8 1.1 4.8.1 0 5.4-7.1 5.5-6.8.7 1.3-1.8 2.9-.2 4.3.9.7.7-3.3 2.8-2.7 2.5.7-.6 2.4-.4 3.5.3 1.9 1.1 3 2.1.7.2-.4 5-8.4 6-6.1.6 1.5-1.6 4.2 1.6 3.2 1.8-.6 3.7-1.1 5.4-1.9 2.4-1.1 1.5-2 1.1-4.1-.4-1.9 2-4.4 2.9-5.8.6-1 2.9-3.2 2.3-4.4-.5-1-2.6-2.5-1.5-3.7 1.4-1.5 3.4-2.2 5-3.4.8-.6 1-3.7 1.9-3.4 2.1.8 3.4-.2 1.9 2.7-.2.4-3.1 4.2-2.8 4.6.1.2 2.2-1.8 2.4-2 .9-.8.5-.1 1.1.3 1.7.9.5 2.1-.7 2.9-.6.4-.6 2.2-.6 2.8.1 1.2 1.7 1.1 2.6 1.4 1.7.5 4.4 1.5 1.1 2.5-1.2.4 1.7 1.6 2.5 1.4 1.8-.6-.6-4.4-.4-5.5.3-2.6-1-2.5 2.2-3.7 1.7-.6 1.5-3.1 1.8-4.7 3.9-.3 1.7 1.8 2.7 4.2.4 1.1 2.3-.8 2.5-1.4.4-1.4-.7-2.7 1.3-3.4.8-.3 5.3-.1 5.6.4.3.7 1.9 0 1.8 1.3-.1 1.3-.1 2.5 0 3.9.1.8.4 1.3 1.2.5 1.2-1.3-1.1-3.3-.2-4.6 2-3 5.6 2.4 5.4-1.7 0-1.2 4.1-4.4 4.9-3.2.8 1.1.8 2.8 2.2 1.6 1.9-1.7 1.2.7 2.3 1.2.6.3 1.3-1.6 1.3-2 0-1.6-1.2-.6.9-2.1s3.1.7 4.3-2c.6-1.6 1.6-1.2 2.9-1.1 1.8.2 3.4-.7 1.8 1.4-.7.9 3.5-.3 3.8-.4 1.8-.6 2.5-2 3.9-3.2 4.8-4-2.9-2-2.9-4.3 0-.6-2.1-2.7-1.4-3.1 1.2-.8 2.8-1.2 4.2-1.2 3.1 0-1.3-5.3-2.3-6.8-1-1.5-4.4-6.3-5.7-2.8-.7 2-3.2-.7-3.8-1.5-1.1-1.4-1.4-3.4-1.5-5.1-.1-1.2 1.4-2.9 1-3.9l-2.1-3.5c-.9-2.2 1.8-1.9 2.1-3.4.3-1.7.4-3.5-1.9-3.4-1.5.1-3 .7-4.5.4-1.2-.2-2.4-2.3-3.7-2.9-1-.5-2.7-.8-3.1-1.8-.8-1.8 1.3-4.3.6-6.1-1.1-2.8 2-2.7 1.9-5.3l-.2-3.9c-.5-11.6-1-23.2-1.4-34.7-.2-4.4-.4-8.7-.5-13.1-2.2-1.7-4.7-3.2-6.4-5.5-2-2.6-4.4-4.5-7.1-6.3-.9-.6-6-3.1-6.7-1.1-.2.6-.1 3.2-1 3.1-1.1-.1-2.1-.5-3.1-.8-1.7.1-2.8.8-4.1 1.7-1.6 1.1-3.5.8-5.2 1.4l-3.3 1.6c-2.3.7-3.3-.4-5.3-1.4-3-1.5-.9-5.9-1-8.3-.1-3.6-7.1-1.3-8.6-.4-2.7 1.7-3.8 5.8-6 8.1-1.4 1.4-2.2 2.3-3 4.1-.7 1.4-3 2.6-4.1 3.7-4.5 4.9-7.9 10.9-12.1 16-1 1.3-1.7 3.6-1.8 5.2-.2 3.9-.7 6.3-3 9.4-1.3 1.8-2.6 3.8-4 5.5-1.6 2-2 2.1-1.3 4.9.3 1.5 1 3.3-.6 4-2 .9.5 4 .9 5.1.6 1.5-.1 3.5-.5 5s-1.2 1.2-2.5 1.5c-4 .9.1 5.2-3.4 6.9-2.5 1.2-5.1 2.1-7.3 3.7-.8.6-2.1 1.5-2.1 2.6 0 1.5-1.9 2.5-1.9 3.6 0 .9 3.2 1.8 3.9 2.3 2.3 1.5-2.2 1.9-3 .2-.7-1.3-2.1-1.5-3-.3-1.1 1.4.3 4.1-.2 5.8-.2.8-.8 4.2-2 2.2-.9-1.5-1.6-3-2.3-4.5-1-2-2-.3-2 1.3.1 2.1-2.2.5-2.7 2.5 1.1 20.4 2.2 40.8 3.4 61.2.3 5.9.1 12.1 1.1 17.9.3 1.8-.2 3.8-.4 5.6-.3 2.8-.4 2.5 1.5 4.4.9.9.3 2.1 1.5 3.1.8.7 2.1 1.4 2.4 2.4.3 1.1.3 2.4.2 3.6.1 1.6 2.6 3.1 3.7 4.1zm131.8-80.8c.5 1 2.4 1.3 2.1-.3-.2-1.7-1.8-.8-2.1.3zm-50.1 22.4c.6-3.9 2.7-5.2 6-3.6 4.2 2.1-2.6 2.8-3.5 3.8-1 1.3 1.8 1.4 1 2.4-1 1.2-2.7 1.8-2.3 3.6.1.5 1.3 2.8-.1 2.3-.9-.3-1.6-.8-2.4-1.3-.5-.3-.8.3-1.1.1-1.1-.6 1.6-2.4 1.9-2.8.4-.4 1-4.2.5-4.5.4-2.3-.1-.1 0 0z"/></a><a class="newHampshire"><path fill-rule="evenodd" clip-rule="evenodd" fill="#288585" onmouseover="evt.target.setAttribute('fill', '#fce149');" onmouseout="evt.target.setAttribute('fill', '#288585');" d="M347.9 202.8c-1-.9-3-2.1-3.4-3.5-.3-1.1.1-2.5-.1-3.6-.3-2.6-3.8-2.8-3.9-5.5 0-1.3-2.1-1.4-2.1-2.4l.2-2.1c.2-1.7 1-4.5.5-6.3-.5-1.4-.3-3.3-.3-4.8-.3-4.2-.5-8.3-.7-12.5-1.2-20.6-2.3-41.3-3.4-61.9-.4 1.5-3 1.6-4 .6-1.8-2.1-2.7-2.1-4.9-.3-2.3 1.9-2.4 3.4-3.4 6.1-.6 1.5-2.3 5.6-4.3 5.6-.2 1.9 1.5 2.5 1.5 4 0 .8-.8 2-1.2 2.7-1.1 2.2-3.4 4.8-2.5 7.2.5 1.2 3.1 6.6 1.6 7.1-1.4.5-1.1 1.5-1.6 2.7-.4 1-1.6 1.5-2.4 2.1l-5.7 4.7c-2 1.6-4.7-.4-6.4 2.1-2.2 3.1-1.3 8.3-1.4 11.9-.5.4-.9 1.1-1.4 1.4-1.5.9.8 2.8-.3 3.9-2 2-2 2-2.6 4.9-.6 3-3.4 3.1-4.4 5.4-.4.9-.2 2-.4 3-.2 1.2-1.1 2.3-1.6 3.4-1 2-1.6 2.8-1.3 5 .3 2.2.6 4.5.6 6.7l-1.9 5.2c0 .4-1.4 2.6-.8 2.8.7.2.8 1.6.9 2.2-.8 1.2-.9 1.7-.3 2.9 1.2 2.2-1.6 2-2.7 3.2-3 3.1.2 8 2.2 10.5l41.5 1.4 4.7-3.6.7-1.3c2.1-1.2 4.4-1.8 6.4-3.1 1.9-1.8 2.9 1.6 4.8 1.9-.4-2.7 2.2-7.6 3.8-9.7-.9-.8-.5.6 0 0z"/><path fill="#fff" d="M328.4 99.3c-.7 0-1.4.4-2.4 1.3h-.2l-.2.2.6.6c.2-.2.4-.4.7-.6.9-.8 1.5-1.1 1.9-1.1l-.4-.4zm-6.5 8.8c-.5 1.1-1.1 2.3-1.9 3.2l.7.6c.7-.8 1.5-2 2.1-3.5l-.9-.3zm-2.6 9.3l-.4.8-.1.2-.3.6-.5.9c-.1.2-.2.4-.4.6l-.1.1.8.5.1-.1c.4-.6.7-1.1 1-1.7l.3-.5c.2-.3.4-.7.6-1.1l-1-.3zm-1.9 10.1l-.8.3c.3.6.5 1.3.8 2.1.2.5.3 1 .4 1.5l.9-.2c-.3-1.1-.9-2.6-1.3-3.7zm-3.1 10.1l-.5.3s-.1 0-.1.1l-1.2 1 .6.7c.7-.5 1.4-1.2 2.2-1.8.2-.2.4-.3.7-.5l.1-.1-1.8.3zm-9.5 6h-.9c-.9.1-1.7.3-2.4 1.3l.7.5c.7-.9 1.4-.9 2.7-.9l-.1-.9zm-4.1 8.6h-.9v3.6000000000000005h.9c0-.7 0-1.4-.1-2.1.1-.3.1-.9.1-1.5zm-2.9 10.4c-.3.3-.5.5-.7.8-.4.6-.6 1.1-.8 2l.9.2c.3-1.3.5-1.5 1.7-2.8l-1.1-.2zm-6.2 9.1c-.1.1-.1.1-.1.2l-.1.2c0 .1-.1.2-.1.4v.9c0 .3 0 .7-.1 1l.9.1c.1-.4.1-.8.1-1.2 0-.6 0-1.2.2-1.6.1-.2.2-.4.3-.5l-1.1.5zm-3.7 10.7c0 .4 0 .8.1 1.3v.1l.3 2.4.9-.1-.3-2.4v-.1c-.1-.4-.1-.8 0-1.2h-1zm-.6 11.2l-.2.3c-.2.3-.3.7-.4 1.1 0 .1 0 .1-.1.2s-.1.3-.2.5l-.3.6.8.4.3-.6c.3-.6.4-1 .4-1.3 0-.6.2-1 .5-1.6l-.8.4zm.3 10.3l-.9.2c.3 1.2-1.1 1.5-2.2 2-.1.1-.3.2-.4.2l.5.7c.2-.2.6-.3 1-.5.9-.3 2.4-.9 2-2.6zm-3.2 9.1l-.8.4c.6 1.2 1.3 2.3 2 3.1l.7-.6c-.8-.8-1.4-1.9-1.9-2.9zm8.7 3.4v.9h1.2l2.6.1v-.9l-3.8-.1zm11.5.4v.9s1.2 0 2.2.1h1.4v-.9l-3.6-.1zm11.4.4v.9s2.1.1 3.2.1h.5v-.9l-3.7-.1zm14-1.7l-3 2.3.5.7-.5-.7.5.7v.2l.1-.1.1-.1s.1 0 .1-.1h.1l.1-.1h.1l1.8-1.4.1-1.4zm-2.5 3zm12.1-9.2c-.3.1-.6.3-.8.5-.8.5-1.6.8-2.5 1.2l.4.8c.5-.2 1-.4 1.5-.7h.1c.2-.2.4-.3.6-.4l.7-1.4zm5.3-3.4c-.7 1.3-1.2 2.6-1.5 3.7l.9.2c.3-1 .7-2.2 1.2-3.2l.1-.3-.7-.4zm-1.4-7.7c0 .5.1 1 .2 1.4.3 1 1.2 1.9 2 2.5l.6-.7-.6-.6c-.4-.4-.8-.9-.9-1.3-.1-.2-.1-.4-.1-.6v-.4l-1.2-.3zm-4.3-9.4l-.5.8.2.1c.4.2.7.4.7.6 0 .8.3 1.5.8 2.1l.7-.6c-.3-.4-.6-.9-.6-1.6 0-.3-.2-.5-.4-.7l-.7-.5c-.1-.1-.1-.2-.2-.2zm-.3-11l-.9.1c0 .8.2 1.4.3 2 .1.4.2 1 .1 1.7l.9.1v-.6c0-.4-.1-.8-.2-1.1-.1-1.4-.2-1.8-.2-2.2zm-.6-11.5l-.9.1.2 3.8.9-.1c0-.4 0-.8-.1-1.1v-.1c0-.9 0-1.7-.1-2.6zm-.6-11.4l-.9.1.2 3.8.9-.1c0-.4 0-.8-.1-1.2l-.1-2.6zm-.7-11.5h-.9l.2 3.8h.9l-.2-3c.1-.2.1-.5 0-.8zm-.6-11.4h-.9l.2 3.8h.9c0-1.3-.1-2.6-.2-3.8zm-.6-11.5h-.9l.2 3.8h.9v-.9999999999999999c0-.6-.1-1.2-.1-1.9v-.4c-.1 0-.1-.3-.1-.5zm-.6-11.4h-.9l.2 3.8h.9v-.8c-.1-1-.2-2-.2-3zm-.5-8.7c-.2.9-1.1 1.3-2.1 1.3h-.1v.9h.2c.9 0 1.6-.3 2.2-.7-.1-.5-.2-1-.2-1.5z"/></a><a class="vermont"><path fill-rule="evenodd" clip-rule="evenodd" fill="#288585" onmouseover="evt.target.setAttribute('fill', '#fce149');" onmouseout="evt.target.setAttribute('fill', '#288585');" d="M257.9 216.2c-1.3-5.5-.2-11.7 0-17.3l.7-18.7c-.5-.4-1.1-.8-1.6-1.3-.6-.5 0-1.7-.4-2.4-.8-1.5-4.3 2.4-4.3 2.3-.8-3.5 3.3-8.3.3-11.1-1.6-1.5-2.7 3.3-2.9 4.4-.5 3.3-2.4 5.2-3.8 8.2-.6 1.2-1.5 4.4-3 4.4-1.9.1.5-4.5.8-5.6.6-2.6 3-2.4 4-4.7 1.1-2.3 1.2-5.4 2.5-7.4.4-.6 4.8-.8 1.3-2.7-.2-.1.2-3 .1-3.4-.5-2-1.7-3.4-1.1-5.7.8-2.8 2.3-5.5 3.2-8.3.4-1.3.8-2.6.9-3.9.2-1.2-1-2.1-1.6-3.1-.6-1-.4-4.4.1-5.4.6-1.7-.7-4.1-.6-5.9.1-2.1.9-4.1 1.2-6.1.5-3.1.7-6.2 1.1-9.3 3.7.3 7.6-1.4 11.4-1.4l17.9.2 34 .4c-.2 1.9 1.5 2.5 1.5 4 0 .8-.8 2-1.2 2.7-1.1 2.2-3.4 4.8-2.5 7.2.5 1.2 3.1 6.6 1.6 7.1-1.4.5-1.1 1.5-1.6 2.7-.4 1-1.6 1.5-2.4 2.1l-5.7 4.7c-2 1.6-4.7-.4-6.4 2.1-2.2 3.1-1.3 8.3-1.4 11.9-.5.4-.9 1.1-1.4 1.4-1.5.9.8 2.8-.3 3.9-2 2-2 2-2.6 4.9-.6 3-3.4 3.1-4.4 5.4-.4.9-.2 2-.4 3-.2 1.2-1.1 2.3-1.6 3.4-1 2-1.6 2.8-1.3 5 .3 2.2.6 4.5.6 6.7l-1.9 5.2c0 .4-1.4 2.6-.8 2.8.7.2.8 1.6.9 2.2-.8 1.2-.9 1.7-.3 2.9 1.2 2.2-1.6 2-2.7 3.2-3 3.1.2 8 2.2 10.5l-28.1-1.2z"/><path fill="#fff" d="M266.1 110.9c-1.4 0-2.9.2-4 .4l.2.9c1-.2 2-.3 3-.4h.1v-.9h.7zm-12.2 2.3c-.2 1.3-.3 2.6-.5 3.8l.9.1v-.2c.1-.5.1-1 .2-1.6v-.2l-.6-1.9zm-1.6 11.2l-.1.2c-.3 1.2-.6 2.4-.7 3.7h.9c0-.8.2-1.5.3-2.2l.3-1.2v-.30000000000000004l-.7-.2zm-.4 11.4c-.1 1.3-.2 3.2.2 4.2l.8-.3c-.3-.8-.3-2.5-.2-3.8l-.8-.1zm1 10.7l-1.3 3.5.8.4.1-.3c.2-.5.4-1 .6-1.4v-.1l-.2-2.1zm-2.4 11.1l-.9.2c.1.5.3 1 .5 1.5s.4 1 .5 1.6v.3h.9v-.4c-.1-.5-.3-1-.5-1.4l-.3-.7c-.1-.2-.2-.4-.2-.6v-.5zm-.5 8.3c-.2.1-.4.2-.6.5-.7 1-1.1 2.3-1.4 3.5l.9.2c.1-.3.2-.6.2-.9.2-.7.5-1.4.8-1.9l.1-1.4zm-5.2 10c-.8.6-1.7 1.3-2.1 2.9l-.2.7.8.3c0-.1.1-.2.1-.2.1-.2.2-.4.2-.5.2-.4.4-.6.6-.9l.7-.6-.1-1.7zm1.2 3.9l-.2.3c-.1.1-.1.2-.2.4-.3.8-.7 1.9-1.2 2.7l.8.5c.5-.8.8-1.6 1.1-2.4.1-.3.2-.6.4-.8l.2-.3-.9-.4zm4.4-10.5c-.3.9-.6 1.8-.7 2.4 0 .1 0 .2-.1.3 0 .1 0 .2-.1.3l-.1.6.9.2c.1-.4.2-.7.2-1.1.1-.5.3-1.6.7-2.5l-.8-.2zm2.3 2c-.1.7-.4 1.5-.6 2.3l-.4 1.3.9.2.1-.4c.1-.3.2-.6.3-.8.2-.8.5-1.6.6-2.4l-.9-.2zm3.3 4.8h-.2c-.1 0-.2 0-.2.1l.3.8v.6c0 .6-.1 1.4.5 2l.6-.7c-.2-.6.1-1.5-.2-2.1l-.6.3-.2-1zm0 0v.7l.6-.3c-.1-.2-.3-.3-.5-.3 0-.1 0-.1-.1-.1zm1.5 9.6l-.1 3.8h.9v-1.2l.1-2.6h-.9zm-.4 11.5l-.1 1.7-.1 2.1.9.1.1-1.5v-.3c0-.5 0-.9.1-1.4l-.9-.7zm-.7 11.4c0 1.4 0 2.7.1 3.9l.9-.1v-2.8l-1-1zm5.4 7.7v.9l3.8.1v-.9l-3.8-.1zm11.5.4v.9l3.8.1v-.9s-2.6-.1-3.5-.1h-.30000000000000004zm12-2.1l-.8.5c.3.5.6.9.9 1.3l.5.6h-1.2v.9h1.3c.3 0 .7-.2.8-.5.2-.3.1-.7-.1-1-.5-.5-1-1.2-1.4-1.8zm.5-9.1c-.7.3-1.5.6-2 1.1-.4.4-.7.8-.9 1.2l.8.4c.2-.4.4-.7.7-1 .2-.2.7-.4 1.1-.6.2-.1.4-.2.7-.3l-.4-.8zm-.1-7.4v.2h.1l.1-.3-.2.1zm.9-2.8v.2c0 .1-.1.3-.2.5 0 .1-.1.2-.1.2l-.2.4c-.2.4-.3.8-.3 1.1h.3l-.1.3.2.1.1.1.7-.5-.3-.3.4-1c.3-.6.4-1 .4-1.3v-.2l-.9.4zm2.3-11.1l-.9.1.3 2.3.1 1.4.9-.1-.4-3.7zm2-10.7c0 .3 0 .7-.1 1v.6c-.1.6-.4 1.1-.6 1.6l.8.4c.3-.5.7-1.3.8-2.1.1-.4.1-.8.1-1.2v-.8l-1 .5zm5.7-9.5c-.3.4-.5.8-.6 1.5-.1.4-.2.9-.3 1.6 0 .1 0 .2-.1.3 0 .1 0 .1-.1.2l.9.3c.1-.2.1-.4.2-.7.3-1.7.4-2.2.8-2.8l-.8-.4zm4.2-10h-.9v2.6l-.6.6.7.6c.2-.2.3-.4.5-.5.2-.2.4-.4.4-.7-.1-.6-.1-1.6-.1-2.6zm2.2-10.2h-.1c-.5.2-1 .5-1.5 1.1l-.5 1 .8.3c.2-.5.4-.9.7-1.3.3-.5.7-.7 1.2-.9l-.6-.2zm9.8-5.1c-.6.5-1.3 1-1.9 1.6-.3.3-.7.6-1 .8l.6.7 1-.9 1.9-1.6-.6-.6zm5.3-9.4l-.8.3.1.2c.2.8.3 1.4.2 1.9 0 .2-.1.3-.2.4l.6.7c1.1.4 1-1 .1-3.5zm.3-10.2l-.9 1.6c-.1.1-.2.3-.2.4l-.7 1.2.8.4c.3-.6.6-1.1 1-1.7.3-.6.7-1.1.9-1.6l-.9-.3zm-4.4-7.7v.9h3.8v-.9h-3.8zm-11.5-.1v.9h3.8000000000000003v-.9h-3.8zm-11.4-.2v.9h3.8v-.9h-3.8zm-11.5-.1v.9h4v-.9h-4zm-11.5-.1v.9h3.8v-.9h-3.8z"/></a><a class="mass"><path fill-rule="evenodd" clip-rule="evenodd" fill="#288585" onmouseover="evt.target.setAttribute('fill', '#fce149');" onmouseout="evt.target.setAttribute('fill', '#288585');" d="M249.7 249l-.7-1.3 8.7-31.6 69.7 2.3 4.7-3.6.7-1.3c2.1-1.2 4.4-1.8 6.4-3.1 1.9-1.8 2.9 1.6 4.8 1.9.4 2.8 1.7 6.3 4 8 1.2.8 1.8 1.8 1.6 3.3-.1 1.4-2.5 1.3-3.5 1.4-3.2.4-2.7 2.8-4.8 4.6-.6.4-1.2 2.9-1.6 3.8-1.1 2-1.1 1.6-3.1 2.4.1 0 3.9 6.2 4.6 2.9.1-.4-.1-.7-.5-.9-.2-.3.7-.5.7-.9.1-.4 3.5 1.7 3.8 2 .6.5 2.2 1.7 2.2 2.6 0 2.2.4 2.1 1.3 3.6.6 1.1.9 2.5 1.6 3.5 1 1.5-.8 1.5-1 2.6-.1.5 3 1 3.4 1.7.8 1.7.7 3.7 1.6 5.4 2.5 5 5.2 5.2 10.1 4.8 4.5-.3 8.2-.7 8.5-5.8.1-1.1-3-3.6-3.7-4.7-.5-.7-1.1-2-2-2.4-.8-.3-1.6.9-2.2.4-.6-.4-1.5-3.4-.2-3.5 1.8 0 3.7-1.7 4.7.4 1.3 2.7 3.5 4.6 4.9 7.2 1.2 2 2 5.7 2 8 0 1.9-1.9 2.6-3.1 3.7-1.2 1.2-4.1.4-5.8.5-1.8.1-3.4.7-5.2 1-1.6-1.9-2.2-1.9-3.9-.2-2 2-3.6 3.1-6.3 3.8-2.5.6-4.1 2.3-6.3 3.4-.8.5-4.9 3.6-5 2.1 3.7-2.2 7.2-3 8.3-7.4.3-1.4 2.5-5.2.5-6.2-1.7-.9-2.2.3-3.2 1.8-1.5 2.2-4.5 3.9-6.6 5.4-.6.4-1.3.9-2 1.2-1.4.6-1-.9-1.7-1.1-.5-.1-1.1.5-1.4.8-.5.4-1.7.3-2.3.3 0-2.9.6-5.5-1.8-7.7l-2.6-.1c-2.5-2-2.8-4.1-2.3-7.1l-2-.2-.1-5.7h-14.5v-1l-33.1-.1c-.5.3-1 .6-1.6.9l-24.7-1.8zm66.6 39.3c-.2.5.5 1.6.5 1.6 1.5-.5 1-3.2.9-3.2l-1.4 1.6zm55.4-16.3c-.1-.1 2.8-3.1 2.8-3.1.6-.9.5-3.1-.6-1.4-.8 1.3-1.7 2.9-2.2 4.5zm-7.5 11.7c2 1.5 5.7 1.6 8.1 1.5 3.1 0-.4-4.1-.5-4.1-.8 0-1.2 2.2-2.5 2.3-1.1.2-4.1.8-5.1.3zm-20.3-2.6c.9 2.1 3.2.4 4.9.2 1.9-.3 3.9-.6 5.8-.8-.1-1.7-2-6.1-4.5-3.6-1.8 1.8-3.6 3.6-6.2 4.2z"/><path fill="#fff" d="M340.4 209.1c-.6 0-1.1.2-1.7.7-.7.4-1.5.8-2.1 1.1l.4.9c.3-.1.5-.2.8-.4.4-.2.8-.4 1.2-.7.4-.4.8-.5 1.1-.5v-1.1h.3zm-10.1 6.1l-3 2.3.6.8 1.6-1.2c.7-.6 1.5-1.1 1.5-1.1l-.7-.8zm-13.8 2v1l3.8.1v-1l-3.8-.1zm-11.5-.4v1h1.4l2.4.1v-1l-3.8-.1zm-11.4-.4v1h.2c.8 0 3.6.1 3.6.1v-1l-3.8-.1zm-11.5-.4v1l2.9.1h.9v-1l-3.8-.1zm-11.5-.4v1s1.7.1 2.8.1h1v-1l-3.8-.1zm-11.4-.4v1h1.1l2.6.1v-1l-3.7-.1zm-4 6.8l-1 3.7.9.3 1-3.7-.9-.3zm-3.1 11l-1 3.7.9.3.2-.7c.3-1.1.8-2.9.8-2.9l-.9-.4zm-3 11.1l-.9 3.4c-.1.2 0 .5.1.7l.1.2.8-.5-.1-.2v-.5l.1-.3c.3-1 .6-2.1.6-2.1l-.7-.7zm7.1 5.4l-.1 1 3.8.3.1-1-3.8-.3zm11.5.8l-.1 1 3.8.3.1-1-3.8-.3zm11.2-.4v1h3.8v-1h-3.8zm11.4 0v1h3.8v-1h-3.8zm11.5 0v1h3.8v-1h-3.8000000000000003zm14.3 1h-3.8v1h3.8v-1zm7.6.1h-1v3.8h1v-3.8zm2 9.6l-.9.2c.3 1.3 1.1 2.5 2.4 3.6l.6-.7-.1-.1s0-.1-.1-.1l-.1-.1c-1.3-1.5-1.6-2.1-1.8-2.8zm6.9 8l-1 .1v3.6c0 .5.4 1 1 1h.1v-1h-.1v-1c0-1.2.1-2 0-2.7zm9.8.8l-.1.1c-.3.2-.5.4-.8.5 0 0-.1 0-.1.1l-1.3.9-.1.1s-.1.1-.2.1l-.3.2.5.8.6-.4.1-.1c.4-.3.9-.6 1.4-1 .3-.2.7-.4 1-.7l-.7-.6zm6.4-5.9c-.4 0-.7.2-1 .5l.7.7c.2-.2.3-.2.3-.2.1 0 .3 0 .6.2.1.1.2.2.3.5l1-.1c0-.1 0-.2-.1-.3-.1-.2-.2-.4-.4-.6h-.1c-.7-.6-1-.7-1.3-.7zm-1.3 8.3c-.5.9-1.3 1.6-2.4 2.3l.5.8c.4-.2.8-.5 1.1-.8.5-.5 1-1 1.4-1.6l-.6-.7zm-1.2 3.3l-.3.1c-.2.1-.5.3-.8.5-.6.4-1.4.9-2.1 1.3l.5.8c.8-.4 1.6-1 2.2-1.4.3-.2.6-.4.8-.5l.3-.1-.6-.7zm10.2-5.1c-.6.4-1.3.8-2 1.1h-.30000000000000004l-.6.2.3.9c1.4-.4 2.6-1 3.7-1.8l-1.1-.4zm9.7-2.5c-.1 0-.2 0-.3.1-.2 0-.5.1-.7.2l-.4.1c-.7.2-1.4.3-2.1.4 0 0 0-.1-.1-.1l-.7.6.1.1c.2.2.5.3.7.3h.1c.8-.1 1.5-.3 2.2-.5l1.5-.3-.3-.9zm10.2-3.4c0 .1-.1.1-.1.1-.3.6-.8 1-1.4 1.4l-.3.2c-.4.3-.8.6-1.1.9l.6.5c.2-.3.4-.4.5-.4.1 0 .1 0 .2.1.1-.1.2-.2.3-.2.8-.6 1.7-1.2 2.1-2.3l-.8-.3zm-2.2-11.4l-.8.6c.2.3.5.6.7 1l.3.6.2.4.9-.3c-.2-.6-.5-1.2-.8-1.7.4.7 0 .1-.5-.6zm-6-6.8c-.6 0-1.2.2-1.8.3l-1.2.3.1 1c.2 0 .4-.1.6-.2.4-.1.8-.2 1.1-.3h.1c.2 0 .4.1.6.2l.5-.8c.9-.4.5-.5 0-.5zm0 5.2l-.7.6c.3.3.5.7.7 1.1.1.2.3.5.4.6.3.4.7.9 1.2 1.4l.7-.7c-.5-.5-.9-.9-1.1-1.2-.1-.2-.2-.4-.4-.6-.1-.1-.1-.2-.2-.4l-.6-.8zm3.2 9.1c-.5.8-1.3 1.3-2.6 1.7l.3.9c.3-.1.6-.2.8-.3.7-.3 1.3-.8 1.8-1.5l-.3-.8zm-13 1.5l-.5.8.5.3c.8.3 1.7.4 2.8.5v-1c-1 .2-2-.1-2.8-.6zm-5.3-9.7l-.5.8c.1.1.3.2.3.3.3.6.5 1.3.6 2l.2 1.1.9-.2-.1-.6c-.2-.9-.4-1.9-.8-2.8 0-.2-.2-.4-.6-.6zm-3.9-8.2l-.8.5.1.1c.1.1.2.3.3.5l.1.2v.1l.5 1 .2.4.3.8.9-.4c-.1-.2-.2-.5-.3-.8-.2-.6-.5-1.2-.8-1.8-.2-.4-.4-.7-.6-.9l.1.3zm-7.5-7.7c-.4 0-.8.2-1 .6 0 0-.1 0-.1.1l-.2.1.5.8.1-.1c.2-.1.4-.2.4-.4 0 0 0-.1.1-.1.4.2 1.1.5 1.7.9.2.1.4.2.5.3l.5-.8c-1.7-1.4-2.2-1.4-2.5-1.4zm-2.3-1.7c-.1.2-.2.3-.3.4-.2.2-.5.3-.9.5-.3.1-.7.2-1.2.4 0 0 .3.3.6.8.3-.1.5-.2.7-.3 1-.4 1.5-.6 2.1-1.6l-1-.2zm6.3-9.1c-1.4.3-1.9 1.1-2.4 2-.1.1-.2.3-.2.4l.8.5.1-.2c.5-1 .9-1.6 2-1.8l-.3-.9zm1.3-7.4l-.8.5.1.1.1.1.2.2.7-.7c-.2-.2-.5-.5-.8-.7 1.6 1.9 1 1.3.5.5zm-6.6-8.8v1c.2.1.4.3.7.5.4.4.7.8 1.1 1.1l.6-.7c-.2-.2-.4-.4-.7-.6.1-.5-.6-1.3-1.7-1.3zm35.3 57.5l-.9.4c.2.4.1 1.2-.3 1.8 0 0-.6.7-1.3 1.4l.7.6c.7-.7 1.3-1.4 1.3-1.4l.1-.1c.6-.7.7-2 .4-2.7zm-30.3 12.9c-.6.3-1.1.5-1.7.6-.3.1-.5.2-.7.5-.1.3-.1.6 0 .8.5 1.2 1.4 1.5 2 1.6l.1-1c-.4-.1-.8-.2-1.1-.7h.1c.4-.1.7-.3 1.1-.5l.2-1.3zm9.7-1.2l-.9.4c.2.6.4 1.2.4 1.7l-.9.1h-.2l-.9.1.1 1c.7-.1 1.3-.2 2-.2.5-.1.9-.5.9-1-.1-.6-.2-1.3-.5-2.1zm13.9 4.3c-.3 0-.6.1-1 .1-.8.1-1.8.3-2.6.3h-.1v1h.1c.7 0 1.6-.2 2.2-.3.3-.1.7-.1.9-.1l.5-1zm5.5 1.3l-.9.2c.1.3 0 .6-.1.8-.1.1-.3.2-.6.2h-1.5000000000000002v1h1.8c.8 0 1.4-.2 1.8-.7-.6-.2-.3-.7-.5-1.5zm-56.8 1.9v1.1c.2.4.4 2.1-.5 2.8l.6.7c1.3-1 1.1-3.2.8-3.9-.2-.6-.7-.7-.9-.7z"/></a><a class="rhodeIsland"><path fill-rule="evenodd" clip-rule="evenodd" fill="#288585" onmouseover="evt.target.setAttribute('fill', '#fce149');" onmouseout="evt.target.setAttribute('fill', '#288585');" d="M309.1 250.9h14.5l.1 5.7 2 .2c-.5 3-.2 5.1 2.3 7.1l2.7.6c2.4 2.1 1.8 4.8 1.8 7.7-.5 0-2.5-.7-2.7-.2-.4 1.1-1.6 1.9-2.8 1.4-.5-.2-1.7-2.3-1.9-1.9-.7 1.1-.4 2.7-1 3.8-1.8 3.3-4.3 4.1-7.7 5.2-3 .9-5.6 2.3-8.9 2.2-.1-1.7 1.7-5.1 1.7-5.1l-.1-26.7z"/><path fill="#fff" d="M323.7 250h-3.8v.9h3.8v-.9zm-11.5 0h-3.1c-.2 0-.5.1-.6.3s-.3.4-.3.6v.8h.9v-.8h3.1v-.9zm-3 9.3h-.9v3.8h.9v-3.8zm0 11.5h-.9v3.8h.9v-3.8zm-2.6 11c-.1.4-.1.7-.1 1 0 .5.4.9.9.9h.3c.9 0 1.9-.1 2.9-.3l-.2-.9c-.7.2-1.4.3-2.2.3h-.6.3v-.6000000000000001l-1.3-.4zm14.6-3.2c-.8.5-1.7.9-2.6 1.3l-.6.2.3.9c1.2-.4 2.5-.9 3.7-1.7l-.8-.7zm4-7.1s-.1 0-.1.1l.2.1-.2-.1-.2.3c0 .1 0 .1-.1.2h.1l-.1.1c.1.1.5.5.7.8.5.6.8 1 1.2 1.2.1.1.3.1.4.1l.2-.9-.3-.1c-.2-.2-.5-.6-.8-1-.1-.1-.2-.2-.2-.3l-.1-.1-.2-.2-.1-.1c-.3 0-.3-.1-.4-.1zm7.9-4.9l-.9.3c.1.2.1.3.1.5v.1c.1.5.1 1 .1 1.5v1h.9c.3-.9.3-2.2-.2-3.4zm-7.6-7.7v.7c.1.6.2 1.2.4 1.7.1.3.3.5.5.8l.7-.5c-.6-.9-.9-1.8-.9-3.1l-.7.4zm-.9-8h-.9v2.1h.9v-2.1z"/></a><a class="conneticut"><path fill-rule="evenodd" clip-rule="evenodd" fill="#288585" onmouseover="evt.target.setAttribute('fill', '#fce149');" onmouseout="evt.target.setAttribute('fill', '#288585');" d="M245 297c-9.3-6.4 6.2-6 4.5-9.9-.7-1.7-.7-1-1.8-2.2-.3-.3-.2-.8-.2-1.2.1-1.9.2-3.8.3-5.8.6-9.6 1.2-19.2 1.9-28.9l24.8 1.7c.5-.3 1-.6 1.6-.9l33.1.1v27.7s-1.8 3.4-1.7 5.1c-1.9 0-4-.4-5.9-.1-3.5.6-5 2.9-8.6.6-2.5-1.6-5.1-.8-7.9-.3-3.1.5-6.9 1.2-10 .9-2.6-.2-6.4 1.6-8.7 2.6-2.1.9-3.9 2-6.1 2.7-3.2 1-5.6 2.5-7.9 4.9-2.3 2.5-4.4 2.5-7.4 3-.7-.5 1.4-.2 0 0z"/><path fill="#fff" d="M248.8 249l-.3 3.8.9.1.1-1.2v-.4l.1-2.1v-.1l-.8-.1zm-.8 11.4l-.2 3.8.9.1c.1-1 .1-1.9.2-2.8v-.9l-.9-.2zm-.7 11.5l-.2 3.8.9.1v-.9l.1-2.1v-.9h-.8zm-.7 11.4v.5c0 .4-.1 1.1.5 1.7.5.5.8.7 1 .8.2.2.2.2.4.5l.8-.4-.3-.5-.3-.3-.1-.1h-.1l-.4-.3-.3-.3v-.8999999999999999l-1.2-.7zm-2.4 6.9c-1 .5-3.2 1.5-3.1 3.4l.9-.1v-.1c.1-.2.3-.5.5-.7l.5-.3 1.2-2.2zm6.1 5.6c-1.1.6-2.3.8-3.7 1l.1.9c1.4-.2 2.7-.4 4-1.1l-.4-.8zm9.4-6.3c-.3.1-.6.2-.8.3-.7.3-1.3.6-1.9 1l.5.8c1-.6 2.1-1.1 3.3-1.5l-1.1-.6zm10.5-4.6c-1.1.4-2.3.9-3.2 1.4l-.2.1h-.1l.4.8h.1c1-.5 2.2-1 3.4-1.4l-.4-.9zm11.4-1.3c-1.3.2-2.6.3-3.8.4v.9c1.2 0 2.4-.2 3.9-.4l-.1-.9zm8-1.2h-.5v.9h.5c1 0 1.9.2 2.7.7l.4-.8c-.5-.3-1-.5-1.6-.6h-.2c-1.2-.2-1.2-.2-1.3-.2zm13.6.1c-.6 0-1.1 0-1.6.1h-.1l-.5.1-.3.1.3.9c.5-.2 1-.3 1.5-.4.4-.1.9-.1 1.5-.1h.5v-.9h-.2c-1 .2-1 .2-1.1.2zm6.9-7.1h-.9v2.3l-.3.6c-.1.2-.2.4-.3.7l.8.4c.3-.7.6-1.3.6-1.3.1-.1.1-.3.1-.4v-2.3zm0-11.5h-.9v3.8h.9v-3.8zm-.1-11.5h-.9v3.8h.9v-3.8zm-9.8-3.4v.9h3.8v-.9h-3.8zm-11.5 0v.9h3.8v-.9h-3.8zm-11.5 0v.9h3.5v-.9h-3.5zm-11.1.3l-.1.9s3 .2 3.7.3l.1-.9-3.7-.3zm-11.5-.8l-.1.9 2.5.2c.7 0 1.3.1 1.3.1l.1-.9-3.8-.3z"/></a><a class="pennsylvania"><path fill-rule="evenodd" clip-rule="evenodd" fill="#288585" onmouseover="evt.target.setAttribute('fill', '#fce149');" onmouseout="evt.target.setAttribute('fill', '#288585');" d="M169.1 356.4v-.9c1.1-1.9 2.4-4.3 4.7-4.9 2.3-.5 6-.7 7 2.1 2.2-1.8 4.6-2.4 7.3-3.3 1-.4 2.2-.4 3.2-.9 1.4-.7.8-2.2 1.1-3.5.4-1.5 4.6-3 5.9-3.7 1.2-.8 2.1-1.8 3.3-2.7 1.5-1.2 2.4-.3 3.9-.9l.4-1.2c-.1-2.2-3-6.3-4.2-8.2-.8-1.3-1.8-2.9-3.3-3.4-.7-.2-3.6.3-3.8-.2-.5-1.3.4-6.9-1.2-7.3-.5-.1-3.6.2-3.6-.5-.1-1.6.4-3-.3-4.6-.6-1.6.6-3 .9-4.5.2-1.2 1.9-1.7 2.7-2.7.6-.9 1.8-1.6 1.1-2.7-.9-1.3-2-2.6-2.5-4-.3-.9 5-3.9 5.9-5.1 1.5-2 2.4-4.4 4.1-6.2-1-2.6 2.7-5.9 5.3-5.9 1.1-3.6-5.5-4.8-8.1-5.3-1.4-.3-1.6-2.6-2.5-3.7-1.6-1.9-2.7-2.1-1.7-4.6.9-2.1-1.3-3.3.1-5.2 1.1-1.6-1.6-4.5-3.2-4.5-2.4 0-4.2-1-4.2-3.6 0-1.6-4.1-1.2-2.4-3.4h-156.8v-11.7c-3.8 1.5-12.5 4-12.5 4-3.2 4.8-8.3 6.3-13.4 8.8l.1 103.8v.4l35.9.1 130.8.1z"/><path fill="#fff" d="M27.4 238.5c-.8.3-2 .8-3.5 1.3l.3.9c1.3-.4 2.5-.9 3.5-1.2l-.3-1zm-10.8 3.5c-1 .3-1.6.5-1.6.5-.2.1-.4.2-.5.4-.4.6-.8 1.1-1.3 1.6l.7.6.1-.1.8-1s.6-.2 1.6-.5l.2-1.5zm-9.3 6.6c-1 .5-1.9.9-3 1.4l-.5.2.4.8.5-.2 1.5-.7c.3-.1.6-.3.8-.4l.3-.1v-1zm-5.4 8.5h-.9v3.8h.9v-3.8zm0 11.5h-.9v3.8h.9v-3.8zm0 11.5h-.9v3.8h.9v-3.8zm0 11.4h-.9v3.8h.9v-3.8zm0 11.5h-.9v3.8h.9v-3.8zm.1 11.5h-.9v3.8h.9v-3.8zm0 11.5h-.9v3.8h.9v-3.8zm0 11.4h-.9v3.8h.9v-3.8zm0 11.5h-.9v3.8h.9v-3.8zm4.1 7.4v.9h3.8v-.9h-3.8zm11.4.1v.9h3.8v-.9h-3.8zm11.5 0v.9h3.8v-.9h-3.8000000000000003zm11.5 0v.9h3.8v-.9h-3.8zm11.4 0v.9h3.8v-.9h-3.8zm11.5 0v.9h3.8v-.9h-3.8zm11.5 0v.9h3.8v-.9h-3.8000000000000003zm11.5 0v.9h3.8v-.9h-3.8000000000000003zm11.4 0v.9h3.8v-.9h-3.8zm11.5 0v.9h3.8v-.9h-3.8zm11.5 0v.9h3.8v-.9h-3.8zm11.4 0v.9h3.8v-.9h-3.8zm11.5 0v.9h3.8v-.9h-3.8000000000000003zm11.5 0v.9h3.8v-.9h-3.8zm14.1-1.3s0 .1-.1.1l-.1.2s0 .1-.1.1v.9999999999999999h-2.4v.9h2.4c.2 0 .5-.1.6-.3.2-.2.3-.4.3-.7v-.7l.1-.2-.1-.1-.6-.3zm7.1-4.8h-.1c-.4 0-.7 0-1.1.1h-.1l.1.9c.5-.1.9-.1 1.4-.1.8 0 1.4.1 2 .3l.3-.8c-.6-.2-1.2-.3-1.8-.3-.6-.1-.6-.1-.7-.1zm12-1c-.1 0-.1 0-.2.1l-.5.2-1.8.6-.8.3.3.8c.6-.2 1.2-.4 1.9-.6l1.3-.4.3-.1-.5-.9zm7.7-6.9c-.7.3-1.5.7-2.2 1.1-.4.2-.7.5-1 .8l.6.6c.6-.6 1.8-1.2 3-1.8l-.4-.7zm9.5-5.4s-.2.6-.2.7c-.5.2-.9.2-1.3.2h-.6000000000000001l-.5.1.3.8c.3-.1.5-.1.8-.1h.6c.4 0 1 0 1.6-.3.3-.1.5-.3.6-.6l.2-.7-1.5-.1zm-4.2-10.6l-.7.5.3.5c.2.3.4.6.5.8.3.5.7 1.1 1.1 1.8l.8-.5-.3-.5c-.3-.5-.6-1-.8-1.3-.2-.3-.6-.8-.9-1.3zm-6.2-6.2h-.9v3.6999999999999997l.9-.1v-1.8c.1-.4.1-1.1 0-1.8zm-4.9-8.1l-.8.3c.1.6.1 1.2 0 1.9v.8999999999999999h.9v-1c.3 0 .3-1-.1-2.1zm4.8-9.7l-.9.3c.1.3.1.5 0 .7-.1.3-.3.5-.6.7-.2.2-.4.4-.6.7-.2.2-.4.4-.6.5l.6.7c.4-.3.7-.6.9-.9.1-.2.3-.4.5-.6.3-.1 1.1-.9.7-2.1zm1.1-8.1l-.2.1-1.2.9c-.6.4-1.1.8-1.6 1.2l.5.7 1.6-1.2 1.5-1.1-.6-.6zm5.5-9.6c-.3.7-.5 1.4-.3 2.1-.3.3-.5.6-.8 1l.7.5c.3-.4.5-.7.8-1 .2-.3.3-.6.2-.9-.2-.6 0-1.2.2-1.7h-.8zm2.9-8.1l-.4.8c.5.2.9.5 1.3.7l.1.1.1.1c.2.3.4.7.5 1l.9-.2c.4-.6-.7-1.6-2.5-2.5zm-8.6-5.8l-.6.6.3.3.4.9.3.7s0 .1.1.1l.8-.4c-.1-.2-.2-.5-.4-.8-.3-.6-.5-1.3-1-1.8.6.9.4.6.1.4zm-.6-10.4l-.8.3c.1.2.2.5.2.7 0 .3-.1.6-.2.8v.4c0 .1 0 .2.1.3l.9-.2c-.1-.4-.1-.8.2-1.2-.1.8 0-.2-.4-1.1zm-8-7.3l-.6.7.1.1c.1.1.1.2.2.4l.1.2c.2.3.4.5.6.7l.6-.7c-.5-.4-.8-1.1-.8-2 .4 1.6.3 1.1-.2.6zm-9.9-3v.9h3.8v-.9h-3.8zm-11.5 0v.9h3.8v-.9h-3.8zm-11.5 0v.9h3.8v-.9h-3.8zm-11.4 0v.9h3.8v-.9h-3.8zm-11.5 0v.9h3.8v-.9h-3.8zm-11.5 0v.9h3.8v-.9h-3.8zm-11.4 0v.9h3.8v-.9h-3.8zm-11.5 0v.9h3.8v-.9h-3.8zm-11.5 0v.9h3.8v-.9h-3.8zm-11.4 0v.9h3.8v-.9h-3.8zm-11.5 0v.9h3.8v-.9h-3.8zm-11.5 0v.9h3.8v-.9h-3.8zm-11.5 0v.9h3.8v-.9h-3.8zm-11.4 0v.9h3.8v-.9h-3.8zm.3-10h-.9v3.7h.9v-3.7z"/></a><a class="newJersey"><path fill-rule="evenodd" clip-rule="evenodd" fill="#288585" onmouseover="evt.target.setAttribute('fill', '#fce149');" onmouseout="evt.target.setAttribute('fill', '#288585');" d="M180.7 352.7v.2c-.3 2.3-1.3 4.3-3.1 5.7-.7.6-2.9 2.2-2.2 3.3 1.4 2.1 2.3 1 1.7 3.9.7.4 1.5 2.6 2.4 3.3.9.8.8 1.2 1.3 1.9 1.7 2.5 5 3.6 6.9 5.9.6.7 1.6 3.6 2.9 3.4 1.3-.2 2.9.2 4.2.4 1.1.2 5 0 4.9 1.6-.1 2.2.1 3.9-.8 6.1-.7 1.6-1.4 3-.3 4.6 1.4 2.2 5.1-5.3 5.9-6.5 1.8-2.4 4.2-5.2 5.2-8 .6-1.6-1.6-2.4.1-3.6 1.2-.8 2.4-1.8 3.7-2.4 1.3-.7 3.1-1.3 3.4-2.9.3-1.5-.5-2.8.9-3.8 2.3-1.7 4.1-1.7 5.3-4.4 1.2-2.7 2.3-5.2 2.8-8.1.5-3 .7-7.5 2.6-10 1-1.4 1.4-3.8 1.9-5.5.7-2.2 1.7-4.5 1.7-6.8.1-2.6 1.3-7.2-2.4-7.4-2.4-.2-9 .1-5.6-3.7-1.3-1.2-.5-5.1.9-6.1 1.3-1 4.6-.1 5.5-1.2.9-1.1 2.1-4.4 2.4-5.8.5-2.9 1.6-5.3 2-8.2-6.2-3.8-12.4-7.7-18.5-11.5-2.8-1.7-5.5-3.4-8.2-5.2-2.9-1.9-8.1 2.3-6.9 5.3-2.2 2.4-3.3 5.6-5.8 7.9-1.2 1.1-4.9 1.9-3.9 3.8.4.8 3 3.6 2.5 4.5-.8 1.6-3.7 3-4 4.4-.2 1.1-.6 1.8-1 2.9-.5 1.1.6 2.1.5 3.1-.1 3.2-.5 3.4 2.8 3.6 2.1.1 1.5 3.5 1.6 5 .1 1.5-.3 3 1.5 2.5 2.7-.7 4.6 1.4 5.9 3.5 1.2 2.1 2.1 4.4 3.5 6.4 2.5 3.5-1.2 2.3-2.9 3.4-2.2 1.4-4 3.3-6.3 4.6-2.1 1.2-3.6 1.4-3.7 4-.2 2.4-3.1 2.3-4.9 3-2.3.8-4.3 1.2-6.4 2.9.1.1.9-.7 0 0z"/><path fill="#fff" d="M206.8 280.4c-1.3 0-2.8.6-4 1.6l.6.7c1-.8 2.2-1.4 3.4-1.4v-.9zm-7.6 8.2l-1 1.5c-.3.6-.7 1.1-1.1 1.7l.7.5.6-.9 1.4-2.3-.6-.5zm-7.7 8c-1.1 1.1-.8 2.1-.5 2.7.2.3.5.8.9 1.3l.3.4.7-.5c-.1-.1-.2-.2-.2-.3l-.1-.1-.2-.2c-.3-.4-.5-.7-.7-1-.3-.6-.1-1.1.4-1.5l-.6-.8zm-1 9.2c-.4.4-1 1.1-1.1 1.9-.1.7-.3 1.2-.6 1.9l.8.4.3-.7c.1-.4.3-.8.4-1.3l.6-.8-.4-1.4zm-.1 11.2l-.4.8c.5.2 1.2.3 2.6.4.2 0 .3.1.5.3l.8-.4-.2-.3c-.2-.2-.5-.3-.8-.3-1.4-.2-2.1-.3-2.5-.5zm6.4 7.7c-.3 0-.7 0-1.1.2h-.2l.2.9c.1 0 .2 0 .3-.1.3-.1.6-.1.8-.1.6 0 1.2.2 1.8.6l.5-.7-.3-.2c-.4-.2-.9-.4-1.4-.5-.5-.1-.5-.1-.6-.1zm6.5 7.1l-.8.4c.5 1 1.1 2.1 1.8 3.1l.2.3.8-.5-.1-.2-.1-.1-.1-.1c-.7-1.1-1.2-2-1.7-2.9zm-3.1 6.6c-.5.4-1 .8-1.5 1.1l-1.5 1.2.5.7c.4-.3.8-.6 1.1-.9l.4-.3c.1-.1.2-.1.2-.2l1.2-.9-.4-.7zm-8.9 7.8v.5c0 .6-.3 1.1-1.6 1.5l.3.9c1.1-.3 2-.9 2.2-2.1v-.3l-.9-.5zm-9 4.4c-.7.3-1.3.7-1.8 1.2-.1 0-.1.1-.2.2-.4.2-.6.6-.5 1 0 .3-.1.5-.2.8l.9.2.1-.5c0-.1 0-.3.1-.4v-.2c.1 0 .4-.3.4-.3h-.1l.4-.3c.4-.3.9-.6 1.3-.8l-.4-.9zm-1.3 1.9c-.1.1-.2.2-.3.2.2-.1.3-.2.3-.2zm-.3.2zm-5.2 6.7c-1.3 1.4-1.1 2.4-.7 3.1.5.7.9 1.1 1.2 1.4l.6-.7c-.3-.2-.6-.6-1-1.2-.1-.5.2-1.1.6-1.6l.1-.1-.8-.9zm4.5 10.1l-.7.6c.2.2.3.4.4.7.1.2.2.5.4.8.4.6.9 1.1 1.5 1.6l.6-.7c-.4-.4-.8-.8-1.2-1.3-.5-.7-.5-1.1-1-1.7zm8.1 7.9l-.8.5.3.5c.6 1.2 1.4 2.6 2.7 2.8l.1-.9c-.2 0-.3-.1-.5-.2-.6-.5-1-1.3-1.4-2.1-.2-.3-.3-.4-.4-.6zm10 3.6l-.2.9c.7.1.9.3 1 .3 0 .5 0 1-.1 1.5h.9c0-.4 0-.9.1-1.4l-.8-.1h.8c0-.2 0-.3-.1-.4-.5-.5-1-.7-1.6-.8zm-.9 10.1c0 .8.2 1.5.7 2.3.3.5.8.8 1.4.8.5 0 1.1-.2 1.6-.8l-.6-.7c-.3.2-.5.4-.8.5-.2 0-.4-.1-.6-.4-.3-.6-.5-1.1-.5-1.6l-1.2-.1zm7.4-4.7l.7.5-.7-.5zm0 0l.7.5-.7-.5zm2.3-3c-.4.5-.7 1-1.1 1.4l-.1.1-.1.1-.5.6-.6.8.7.5 1.1-1.5c.4-.5.8-1 1.2-1.6l-.6-.4zm4.4-9.6l-.8.6-.2.1c-.1.1-.2.2-.3.2-.3.3-.5.5-.7 1 0 .2.1.4.3.7l.8-.4c-.1-.1-.2-.4-.2-.5l.3-.3.6-.4c.2-.2.5-.4.8-.5l-.6-.5zm6.6-8.2l-.3.3c0 .5.1 1.1 0 1.7l.9.1c.1-.5 0-1 0-1.4-.1-.9-.1-1.2.4-1.6l-1 .9zm7.1-8.4c0 .1 0 .1-.1.1-.2.5-.4.9-.5 1.4v.2c-.2.5-.4 1-.6 1.4l.8.4c.5-1.1 1-2.3 1.5-3.6l-1.1.1zm2.3-11.2c-.1.3-.2.7-.3 1.1l-.2 1.3.9.1c.2-1 .4-2.4.7-3.6l-1.1 1.1zm4.1-10.7l-.3.9-.1.4-.3 1-.4 1.3.9.2c.1-.4.2-.9.4-1.3l.4-1.2c.1-.4.2-.7.4-1.1l-1-.2zm1-11.8l-.7.6.2.2v.2c.1.6.1 1.2.1 1.9h.9c.6 0 .5-1.7-.5-2.9zm-7.4-4.4l-.6.7c-.6.7-.9 1.2-.9 1.7 0 .1.1.2.2.2.1.1.3.2.5.3l.4-.8c-.3-.1-.4-.3-.4-.3s-.1-.4.7-1.2c.5.3.4-.3.1-.6zm5-6.2l-.4.1h-1.2c-.3 0-.7 0-1 .1-.2 0-.3 0-.4.1l.2.9c.5-.1 1.1-.1 1.6-.1.8 0 1.6 0 2.2-.3l-1-.8zm4.2-10.4l-.1.3-.7 2.4v.1l-.1.4.9.2c.2-1.1.5-2.2.9-3.3l.1-.4-1 .3zm-4.8-8.7l-.5.8c1.1.7 2.2 1.3 3.2 2l.5-.8-3.2-2zm-9.7-6l-.5.8 1.3.8.2.1c.6.4 1.2.7 1.7 1.1l.5-.8-3.2-2zm-9.7-6.1l-.5.8c1.1.7 2.1 1.4 3.2 2l.5-.8c-1.1-.7-2.2-1.3-3.2-2z"/></a><a class="maryland"><path fill-rule="evenodd" clip-rule="evenodd" fill="#288585" onmouseover="evt.target.setAttribute('fill', '#fce149');" onmouseout="evt.target.setAttribute('fill', '#288585');" d="M121.8 391.7c1.9-1.5 1.3-2.3 3.5-.5 1.3 1.1 4 2.2 2.5 4.1-1.9 2.3-3.6 3.4-3.5 6.6 0 1.3-1.4 1.5-2.1 2.2-1 1-1.6 2.6-2.4 3.8-1.4 2.2-3.9 3.5-4.4 6-.2 1.1-.1 1.6 1 1.8 1.6.3.4 2.6 1.7 2.8 3.5.5 1.5-2.7 2.3-4 .4-.7 1.6.8 2 .8 1.5.3 1.3-1.8 2.2-2.2.6-.3 2.2 8.7 5.3 8.2.9-.1-.7-2.6-.7-3 0-.1 3.4-1.3 3.8-1.2.7.2.2 4.8.5 5.7.5 1.6 2 1.6 3.5 1.7.9.1 3.2-.2 3.7.9s2.6 3.1 3.7 1.9c1.2-1.2 1.1-1.4 2.6-.7 1.6.8-.6 3.2.1 4.4.9 1.3 3.7.7 3.1-1.1-.5-1.8-1.3-2.7-2.3-4.2-.9-1.2.4-3.8-1.4-4.4-1.4-.5-2.7-.3-3.9-1.2-3.5-2.6-6.3-5.7-5.8-10.3.1-1.1-1.4-6.5.1-6 1.9.7 1.5 2.2 1.4 3.9-.2 1.9.4 3 .9 4.9.2.7 1.5 2.3 2 2.9.8.9 1.4 2 2.4 2.9 2.4 2.3 6.8 2.3 3.6-1.9-1.6-2.1-4.5-4.6-4.4-7.4.1-2 .7-3.9.2-5.9-.3-1.4-1.2-2.1-.1-3.6 1.8-2.4-.5-6.3.7-9.2.8-1.9 1.7-1 2.8-2 .6-.6-1.6-4-1.7-5-.2-1.7-2.6-2.2-3.9-3-.3-.2-1.6-1-1-1.6 2-1.6 2.2-1.4 4.4 0 3.3 2.1.5-3.3 2.1-3.7.8-.2 1.7-.5 2.3-1 1.1-.9-1-1.8-1.1-2.7-.1-1.1 3.3 1.7 3.3 1.7 1.8 1.6 1.5-2.3 2.4-2.8.4.2.6.6.6 1 .3.9.9.1 1.5-.2.5-.3 3.9-1.2 3.7-2-.7-3.4-.8-4.6 2.7-6.2 1.5-.7 2 1.2 3.2 1.8 1.4.7 1.3 1.5.1 2.5-1.4 1.1-2.7 2.1-4 3.2-1.7 1.3.5 1.2.6 2.3 0 0-4.4-.3-5.1.9-.8 1.3-1.5 2.5-2.2 3.8-.7 1.3-1.8 3-1.8 4.5 0 2.8 1.1 2.6 3.3 2.5 2.2-.1-.6 2.5-.9 3.3-.3.8.9 1.1.4 1.9-.2.2-1.9 1.2-2.1 1.3-.6.2-3-1.3-3 0 0 1.4 2.2 1.7 3.3 1.8 0-.1.2-1 .4-.9-.5-.2 4 4.7 4.3 3.5-.2.9-5.6 2.9-1.2 2.8 3.3-.1.3 1.2-1.1 1.7-3.2 1.2.8 3.9 2.3 4.8-1.1 2.2.7 2.6 2.2 1.7 1.4-.8 2.4-1.4 2.1.7-.8 7-3.7-2.9-6.1 1.8-.9 1.8-1.3 3.1-3 4.3-1.3.9-2.9 4.7-.7 5.6.9.4 4.7 1.4 2.8 2.9-.8.6 4 2.2 4 2.3.1-.7 3-5.7 3.2-5.3.2.4.7 3.2 1.9 1.8.6-.7 1.3-2.2 2.2-2.6l-2.2 3.6c-.3.4.1 1.4-.6 1.4-.2 0-1.8.1-1.1.8.1.1 1-.3 1.1-.3 1-.1 1.4 1.4 2.3 1.8 1.5.6-2.6 1.6-2.6 1.6-.5 1.9 6.6 1.6 5.9 3.5-.7 2.1-4.5 6.7.6 6.3 2.1-.2 3.9.4 5.9 0 2.1-.4 4.2-.7 6.4-1.1 1.6-4.3 5.6-7.5 7.8-11.6.9-1.6 2.3-1.6 2.5-3.5.2-1.6 0-3.3-.2-4.9l-21-.4-2-58.2h-131.2v22.8c1.6.1 3.2-1.7 4.3-2.7.6-.6.8-1 1.8-1 1.9 0 1-.9 2-2 .9-1 3.1-2.1 4.2-3 2.4-1.9 1.8-3.6 5.2-2.1 3.6 1.5 6.2-7.4 8.6-6 1.3.8 3 2.7 4.6 2.8 1.9.1 3.9-.1 5.8-.2 2.9-.6.2-2.2.7-2.7.8-.8 2.6-2.6 3.9-2.2 1.6.5 3.7 1.6 4.4-.5.7-2 1.3-2.7 3.3-1.2 1.4 1 2.8 2.1 4.3 3.1 1.1.8 4.4-.6 4.7.8.5 2.2.9 3.5 2.2 5.5 1.5 2.3 1.7 4.1 2.4 6.7 2.6.1 5.4 1.3 7.5 2.8 3.5 2.5.1 3.1.6 6.3.7 4.2 5.8 2.3 7.9 4.5.8.8 1.3 2.5 2.1 3.1.2-.1 1.9-.3 2.9.1.4-.4-.5-.2 0 0z"/><path fill="#fff" d="M37.9 355.5c-.5 0-.9.4-.9.9v3.8000000000000003h.9v-4.7zm-.9 12.3v3.8h.9v-3.8h-.9zm4.2 9.5l-.1.1c-.9.9-2 1.7-3.1 1.7v.9h.1c1.4 0 2.7-1 3.8-2.1l-.7-.6zm8.8-6.7c-.4.3-.9.6-1.5 1l-.6.4-1.1.7.5.7 1.6-1.1c.6-.4 1.1-.7 1.5-1l-.4-.7zm9.4-4.3c-.9 1.1-1.9 2.1-3 2.3l.1.9c1.5-.2 2.6-1.4 3.5-2.6l-.6-.6zm5.5-3.1l-.6.7.3.3c1 .8 2.1 1.7 3.3 1.9l.2-.9c-.5-.1-.9-.3-1.4-.6-.4-.3-.7-.6-1.1-.8 0 0-.1 0-.1-.1-.4-.4-.5-.5-.6-.5zm10-1c-.1.1-.1.2 0 .4l.3-.1-.3-.3zm1.2-1.1l-.2.2c-.4.3-.8.7-1 1l.3.2-.3.1.1.2.3.4.2.3c.1.2.1.4.1.6l.9.3c.2-.8-.2-1.4-.5-1.9.2-.2.5-.5.8-.7l-.7-.7zm8.7-3.6c-.8 0-1.2.7-1.6 2l-.2.4.8.4c.1-.2.2-.3.2-.5.4-1.2.7-1.4.8-1.4 0 0 .1 0 .3.1l.3-.8c-.2-.1-.3-.1-.5-.1 0-.1 0-.1-.1-.1zm9.4 4h-.1c-.3 0-.6 0-.9.1l-.9.1h-.2v.9h.2c.4 0 .8 0 1.2-.1.4 0 .7-.1 1-.1.4 0 .5.1.5.1l.1-.2.6-.3-.4-.3c-1-.2-1-.2-1.1-.2zm4.3 7.5l-.8.4c.6 1.1.8 2.2 1.1 3.4l.9-.2c-.2-.7-.3-1.4-.6-2-.2-.7-.4-1.1-.6-1.6zm7.2 6.9l-.4.8c.7.3 1.3.7 1.9 1.1.4.3.7.6 1 .8l.7-.6c-.1-.2-.3-.3-.5-.5l-1.3-.9-1.4-.7zm3.5 9.4l-.6.6c1 1.1 2.5 1.3 4 1.6l.2-.9-1.1-.2c-.4-.1-.8-.2-1.1-.4-1.1-.4-1.3-.6-1.4-.7zm9.2 5.8l-.5.8c.6.4 1.4.4 2.2.5.5 0 1 .1 1.4.2l.3.1c.4 0 .7-.2.8-.6.1-.3.1-.7-.2-.9-.2.2-.4.4-.7.6.1-.1.1-.2 0-.2l-.1.2c-.3-.1-.7-.1-1.1-.1-1-.3-1.7-.4-2.1-.6zm3.4.6zm0 0zm-.1-.2c-.1.1-.1.1 0 .2v-.2zm5.8 1.4l-.6.6c.5.5.5.7.1 1.2l-.7.9.7.6.7-.8c.8-1.1.5-1.8-.2-2.5zm-4.3 9.3c-.2.2-.4.3-.7.5-.3.2-.7.4-1 .7-.4.4-.8.9-1.2 1.5l.8.5v-.2l.3-.3.5-.3c.1 0 .2-.1.2-.1.2-.1.4-.3.6-.5l.5-1.8zm-7.4 8.7c-.8.9-1.2 1.8-1.4 2.8-.1.6-.2 1.1 0 1.5l.9-.2c-.1-.3 0-.6 0-1.1.2-.9.6-1.6 1.2-2.3l-.7-.7zm4.8 3.4c-.1 0-.2.1-.3.2l.4.2-.4-.2c-.2.4-.2.9-.1 1.5l.1.9v.6000000000000001l.9.1c.1-.5 0-1 0-1.4 0-.5-.1-1 0-1.3l-.3-.1.2-.3s-.1 0-.1-.1c-.3-.1-.3-.1-.4-.1zm4.9 1.3l-.8.3c.4 1.2.9 2.5 1.5 3.7l.8-.4c-.6-1.2-1.1-2.5-1.5-3.6zm7.2 1.4c-.5 0-2.3.6-3.2 1l.3.8c1.1-.4 2.6-.9 2.9-.9v-.8999999999999999zm0 0v.3l.3-.1-.1-.2h-.2zm2.2 7.1l-.2.9c.6.2 1.3.2 1.9.2h2.0999999999999996l.1-.9h-2.8c-.7-.1-.9-.1-1.1-.2zm10.8 2h-.2l.3.6v-.6h-.1zm.1 0l-.1.8-.3-.6-.2.1-.3.3.6.6c.1-.1.3-.2.3-.3.1 0 .3.1.7.3.1 0 .1.1.1.3l.9.1v-.5c-.1-.1-.1-.3-.3-.4-1.1-.6-1.3-.7-1.4-.7zm3.4-.1l-.7.5.4.6c.5.7.8 1.4 1.1 2.5v.2l.9-.1c0-.1 0-.2-.1-.3-.3-1.5-.9-2.4-1.6-3.4zm-7.1-7.5l-.6.7c.2.2.5.4.7.5.7.5 1.4.6 2.1.7h.1l.1-.9c-.8-.1-1.4-.2-2-.6.2.1-.1-.1-.4-.4zm-4.5-9.1h-.9v.6l.3 1.5.9-.3c-.3-1-.4-2-.3-3.1v1.3zm.4-4.8l-.8.5c.3.4.2 1.2.1 2v1.3h.9v-1.2c.1-.5.1-1 .1-1.4v-.2c-.2-.9-.2-1-.3-1zm3 10.6l-.7.6.1.1c.3.3.6.7.9 1.1.5.6.9 1.2 1.6 1.8l.6-.7-.3-.3-.5-.6-.4-.5-.1-.2c-.2-.3-.4-.6-.7-.8l-.5-.5zm4.7-1.8l-.7.6.1.1.6.7.1.1c.4.5.8 1 1.2 1.4l.3.5.8-.5c-.1-.2-.3-.4-.5-.7-.4-.5-.8-1-1.3-1.5-.1-.1-.3-.4-.6-.7zm-1.9-10.4l-.9.2c.2 1.1.1 2.2 0 3.2v.6l.9.1v-.2c0-1.2.2-2.5 0-3.9zm-.7-10.9c0 .4 0 .8.1 1.3l.1 1.1c.1.5.1.9.2 1.3l.9-.1c0-.5-.1-.9-.2-1.4-.1-.8-.2-1.6-.2-2.3l-.9.1zm2.1-9.8l-.8.4.2.6c.1.4.4 1.1.7 1.8v.1l.2.4.2.5.8-.4c-.1-.3-.3-.6-.4-1-.3-.6-.7-1.5-.7-1.7 0-.2-.1-.5-.2-.7zm-3.4-4.7h-.1c-.2.1-.5.2-.8.4l.5.7c.4-.2.6-.4.8-.4.3 0 .8.3 1.6.8l.1.1.5-.8c-.9-.6-1.5-.9-2-1-.5.2-.5.2-.6.2zm6.4-6.4l-.7.4s0 .1.1.1c.3.5.9.9 1.1 1.4v.2c0 .2-.1.3-.3.5-.2.2-.5.4-.8.5l.4.8c.4-.2.7-.4 1-.6.5-.4.6-.9.6-1.2 0-.8-.5-1.3-.9-1.8l-.4-.4c0 .1-.1.1-.1.1zm4.8-1.1c-.1 0-.1.1-.1.1h.1-.1c-.2.2-.3.7-.4 1.1l.4.1c.3.9 1 1 1.2 1 .4 0 .7-.2 1-.3l-.5-.7-.1.1-.2.1c-.2 0-.3-.1-.4-.4-.3-.5-.5-.9-.9-1.1zm7.3-6.7l-.9.6c-.3.3-.4.6-.6 1 0 .2-.1.5 0 .8h.9c0-.9.2-1.5 1.5-2.3l-.9-.1zm4.5 2.4c-.1.1-.2.3-.5.5l-2.2 1.8.6.7 2.2-1.8c.3-.2.5-.5.7-.7l-.8-.5zm-5.8 5.8c-1.9.1-3.1.5-3.5 1.3l-.2.4-.2.3.8.5.2-.3v-.1l.2-.3c.3-.4 1-.6 1.8-.8.3 0 .6-.1.8-.1l.1-.9zm-7.5 9c-.1.4-.1.8-.1 1.1 0 1.3.2 2.9 1.8 3.3l.2-.9c-.1 0-.1 0-.2-.1-.5-.2-.8-.7-.8-1.7l.1-.7-1-1zm3.4 7.8l-.7.5c-.4.3-1.3.8-1.5.9l.2.4v.5h.1c.3-.1 1.7-.9 2-1.2l.1-.1c.1-.2.1-.3.1-.5v-.1c-.1-.2-.2-.3-.3-.4zm-1.3 3.1c-.2 0-.3.8-.4.9h-.1c.3.5 1 1.1 2 2.1l.6-.7c-1.1-1-2.2-2.3-2.1-2.3zm.1 0zm2.2 6.3l-.1.9h1.2l.1.2.3-.2.3-.2c.1-.1.2-.2.3-.2.1-.1.1-.2.1-.2 0-.1-.3-.2-1-.3h-1.2zm1.2 5.9l-.5.7.2.1c-.3.8-.1 1.4.1 1.8.2.4.5.6.9.8.1 0 .1 0 .2.1.1 0 .2 0 .3.1v.1c.2.1.4.3.7.5.4.3.7.7 1.1.9.3.2.5.4.7.4l.2-.6.1-.3c-.2 0-.6-.4-.9-.7-.4-.4-.9-.8-1.4-1.1l-.2.3v-.5c-.3 0-.6-.1-.8-.3v-.1c-.2-.3-.2-.9.2-1.6-.1-.1-.3-.2-.5-.3-.2-.1-.3-.2-.4-.3zm3.9 4.9l-.2.6h.1s.1 0 .1-.1v-.5zm-8 3l-.4.3c-.9.6-1.7 1.9-2 3.3l.9.2c.2-.8.6-1.6 1-2.1.2-.1.3-.2.4-.3l.1-1.4zm1.8 8.7s0 .1-.2.2c-.3.2-.5.6-.4 1 .1.7.8 1.2 3 2.1l.3-.8-.4-.2c-.5-.2-.9-.4-1.3-.6-.4-.2-.6-.5-.6-.6 0 0 0-.1.1-.1s.1-.1.1-.1l.1-.1v-.1l-.7-.7zm7.5-2.2c-.1 0-.1 0-.1.1-.1.1-.3.4-.5.7.2.8.6 2 1.5 2.3v.2c-.5.1-1.4.2-1.7.9-.1.2-.2.8.4 1.4.2.2.4.3.7.3.1 0 .3 0 .4-.1l-.2-.9h-.2c-.1-.3.6-.5 1-.5h.2v-.4.4c.1-.1.2-.2.2-.3v-.4c0-.2 0-.5.1-.6.1-.1.2-.4.4-.6l-.4-.3c-.1.1-.2.2-.3.2-.4-.2-.6-.8-.8-1.3-.1-.2-.1-.3-.1-.5-.5-.3-.5-.4-.6-.6zm.9 7.1c-.4 0-.8.3-.9.7-.1.4-.1.8.1 1.2.5.9 1.9 1.3 3.4 1.6h.1l.2-.9c-.6-.2-1.2-.3-1.7-.5-.8-.3-1.3-.7-1.1-1.2v-1 .1.9l-.1-.9zm3.4 7.7c-.3.8-.7 2-.1 2.9.4.6 1.1 1 2.1 1.1l.1-.9c-.8-.1-1.2-.3-1.4-.7-.3-.5-.2-1.3.1-2.1l-.8-.3zm13.5 2.4h-.2l-3.6.6.1.9 3.8-.6-.1-.9zm7.2-8.3l-.3.4-1.3 1.7c-.2.3-.4.6-.7.8l.7.5c.5-.6.9-1.2 1.4-1.7l1-1.2-.8-.5zm6-9.8h-.9v2.2c0 .3-.1.6-.2.8l-.1.2.8.5c.3-.4.4-.9.5-1.5-.1-.2-.1-1.1-.1-2.2zm-10.3-3.3v.9h3.8000000000000003v-.9h-3.8zm-11.4-.2v.9h.5l3.3.1v-.9l-3.8-.1zm0-10.2h-.9l.1 3.8h.9l-.1-3.8zm-.4-11.4h-.9l.1 3.8h.9l-.1-3.8zm-.4-11.5h-.9l.1 3.8h.9l-.1-3.8zm-.4-11.4h-.9l.1 3.8h.9l-.1-3.8zm-.4-11.5h-.9l.1 3.8h.9l-.1-3.8zm-11.1-2.2v.9h3.8v-.9h-3.8zm-11.5 0v.9h3.8v-.9h-3.8zm-11.5 0v.9h3.8v-.9h-3.8zm-11.4 0v.9h3.8v-.9h-3.8zm-11.5 0v.9h3.8v-.9h-3.8zm-11.5 0v.9h3.8v-.9h-3.8zm-11.4 0v.9h3.8v-.9h-3.8zm-11.5 0v.9h3.8v-.9h-3.8zm-11.5 0v.9h3.8v-.9h-3.8zm-11.4 0v.9h3.8000000000000003v-.9h-3.8zm-11.5 0v.9h3.8v-.9h-3.8z"/></a><a class="delaware" xlink:href="delaware.html"><path fill-rule="evenodd" clip-rule="evenodd" fill="#288585" onmouseover="evt.target.setAttribute('fill', '#fce149');" onmouseout="evt.target.setAttribute('fill', '#288585');" d="M192.1 415v-.4c.4-.7 3.3-6.5 1.3-6.5-.8 0-1.6 1.3-2.4.9-.7-.4.3-3.3.5-4 .2-1 .4-2.1 1.2-2.8 1.7-1.4-1.6-2.8-2.5-3.3-2.8-1.6-4.2-5.4-5.1-8.4-.8-2.7-2.3-4.1-2.4-6.9-.1-1.9.5-6-.8-7.5-1.7-1.8-3.2-4-4.6-6-.5-.7-1.1-1.5-1.4-2.3-.1-.3 1.2-2 1.4-1.9.4-1.9.6-2-.9-3.1-1.3-1-.7-2 .2-3 2.1-2.2 3.1-2.9 4-6 .9-2.9-3.4-3.6-5.4-3.3-3.1.5-4.6 2.4-6.1 5l2.1 59.1 20.9.4z"/><path fill="#fff" d="M176.1 349.5c-.4 0-.8 0-1.1.1-1.1.2-2.1.5-3 1.1l.5.8h.1c.3 0 .6-.1 1-.1v-1.9h2.5zm-7 8.2h-.9l.1 3.8h.9l-.1-3.8zm.4 11.5h-.9l.1 3.8h.9l-.1-3.8zm.4 11.5h-.9l.1 3.8h.9l-.1-3.8zm.4 11.4h-.9l.1 3.8h.9l-.1-3.8zm.4 11.5h-.9l.1 3.8h.9l-.1-3.8zm.9 11v.9l3.8.1v-.9h-.9l-2.9-.1zm11.4.2v.9l3.8.1v-.9l-3.8-.1zm11.1-5.6v.3c-.2.9-.6 1.9-.9 2.8v.1l.8.4c.5-1.2 1.1-2.8 1.2-4l-1.1.4zm-1.4-7.1c0 .1-.1.1 0 0l-.1.1c-.4.6-.6 1.4-.7 2.1v.2c0 .1-.1.3-.2.6v.1l.9.2v-.1c.1-.3.1-.5.2-.6l.1-.3c.2-.8.3-1.6.8-2l.1-.1-1.1-.2zm-5.7-8.7l-.8.4c.3.6.6 1.2 1 1.8.1.2.2.3.3.4l.7-.6c-.1.2-.6-.8-1.2-2zm-4.4-10.5v.6l.1.2.8-.4c-.3-.7-.6-1.6-.7-2.8v-.6l-.2 3zm-2.9-10.8l-.7.5.5.6.9 1.1.5.6.7-.6c-.3-.1-1-1-1.9-2.2zm-2.5-6.3c-.1 0-.1 0-.1.1l.1.1v-.2zm0-3.5l-.5.7c1 .8 1 1 .7 2.2v.1c0 .1 0 .2-.1.3v.2l-.1.1-.1-.1-.3.3.2.1-.1.2c.1.1.3.1.5.1h.1l.1.1.1-.1c.3-.1.5-.4.5-.6l.1-.5c.2-1.4.3-2-1.1-3.1zm-.4 4.3l.1-.2-.1.2zm3.8-12.9v.1c-.1.5-.3.9-.4 1.2-.3.7-.7 1.3-1 1.8l.7.5c.7-1 1.3-2.1 1.7-3.6v-.1l-1 .1z"/></a></svg>