<svg xmlns="http://www.w3.org/2000/svg" viewBox="0 0 350 319.598"><style>path:hover { transition-duration: .56s; }</style><path id="WV" fill="#288585" d="M1.883 207.724c-.404 3.228 2.016 5.239 2.42 8.468.404 3.227 0 6.053-1.209 8.876-.809 2.419-4.036 4.839-2.825 7.664 1.209 3.228 3.629 6.05 6.051 8.472 1.209 1.209 4.842 3.629 4.842 5.643.804 4.439 1.208 5.244 4.033 9.281 5.645 7.259 5.645 16.535 13.31 22.586 3.631 2.42 4.837 4.842 7.662 8.065 1.212 1.21 8.472-1.209 8.069 2.017 2.416.404 3.227 1.615 2.822 3.634-.406 2.416 1.207 3.228 2.018 5.644 1.208 3.227 1.613 5.645 3.629 8.873 2.018 3.227 4.033 5.244 8.064 6.051 4.035.809 4.842 3.229 8.067 5.646 2.42 2.018 5.646.402 8.068-.807 2.823-1.207 5.646-1.613 8.471-2.822 2.017-.809 3.629-6.053 6.049-4.842 2.824 1.213 4.438 4.842 7.665 6.047 3.227 1.215 12.1-4.029 15.729-5.238 2.018-.809 5.244 2.016 5.646 1.209.811-.805 6.454-4.031 6.454-4.844-.401-2.414-1.612-7.258 2.42-8.061 2.421-.408 6.856 5.242 9.279 3.223.806-.403 3.629-5.244 4.032-4.84 1.613.809 5.244-.404 6.856-.404 3.63 0 3.63.404 6.052 2.021 1.209.803 6.857-3.634 8.064-4.844 4.036-3.629.404-2.824.404-6.453 0-3.63 5.647-3.63 7.263-5.646 1.612-2.014-4.438-2.824-3.631-5.649 1.208-3.224 2.42-7.258 4.032-10.079 2.418-4.437 5.646-8.877 8.473-13.31 1.209-2.019 2.419-3.634 4.029-5.646 1.211-1.615 5.246-1.615 5.65-4.441 0-1.611-.404-3.227 0-5.24.401-1.213 1.607-.406 2.018-1.213 1.611-2.018 0-5.646 2.416-7.26 3.227-2.418 10.087-6.452 7.262-10.487-1.21-1.613 6.855-10.083 7.664-12.908.4-1.207 3.227-14.521 4.033-14.116 2.416 1.213 6.453.405 7.664 3.227 2.017 3.632 2.821 6.859 6.855 8.471 3.632 1.615 7.261 2.824 11.292 1.615 3.229-1.213 4.439-6.454 7.262-8.471 1.614-1.211.404-6.053 1.209-8.069 1.21-2.822 5.245-3.228 6.053-6.856 1.206-4.031 2.821-7.66 4.843-11.291 2.818-4.84 5.644-1.211 7.66 2.418 2.824 4.031 8.471-10.486 10.083-12.502 2.017-2.423 4.437 1.615 7.262-.808 1.612-1.207 2.422-2.822 3.628-4.435 2.018-2.824 5.651-10.487 9.279-11.698 6.856-2.018 5.244-10.488 6.049-16.133.402-2.825.402-3.228 2.42-5.242.808-.81 1.615-8.472 2.02-8.472 2.017 1.614 5.242.807 7.261 2.42 2.823 2.824 6.052 5.242 8.872 7.662 3.228 2.42 5.646 6.052 9.275 8.067 3.228 1.614 7.664 4.037 9.279 7.26 2.017 3.633 4.03-6.858 4.434-7.662.408-1.211 4.439-9.275 4.037-9.275l-1.214-6.052c-.4-2.825-2.415-4.033-3.227-6.456-1.612-4.031-4.434-6.048-4.839-10.487-.401-4.434-4.844-2.016-8.066-2.418-3.227-.405-6.854-4.438-9.277-6.453-2.018-1.614-6.049-4.438-7.26-.809-1.614 4.841-3.229 5.649-8.471 3.634-3.629-1.211-5.646 1.207-8.471 3.224-2.019 1.613 4.034 4.84-2.421 6.052-3.629.402-6.854.402-10.483.402s-6.053-3.227-9.279-4.841c-6.859-4.434-10.087 14.926-18.551 11.295-6.86-2.825-4.843 0-9.282 3.631-2.817 2.016-5.24 4.436-8.468 6.052-2.019.804-.809 3.227-2.419 4.433-1.615 1.211-3.63-.403-5.245 1.614-2.018 2.016-6.048 6.454-9.681 6.454v-45.987h-72.602v-85.508c-3.629 2.823-6.048.808-10.485 2.016-2.826.807 2.016 10.084 2.418 11.698.809 2.016 1.615 4.033-.403 5.646-2.417 2.018 0 2.823 1.211 4.839 2.821 4.841-4.84 12.908-5.646 18.152-1.617 8.068-3.228 16.134-7.262 23.396-2.018 4.033-6.049 9.277-6.049 13.713 0 2.822 3.227 3.225 2.417 6.858-.401 1.614.403 7.662-1.614 8.064-4.031.809-8.469 4.438-12.1 6.858-2.417 1.614-3.227 4.438-4.438 7.262-1.61 4.031-6.05 4.838-9.276 6.856-2.017 1.208-4.435 3.631-6.856 4.033-1.613 0-3.631-3.228-5.646-3.631-3.629-1.209-2.824 0-5.243 2.017-2.017 1.614-6.052.402-6.052 4.031 0 1.614 2.017 5.649-.805 5.244-2.017-.402-4.841-.806-6.857 0-5.242 1.614-5.646 10.893-6.051 15.327-.402 2.016-2.821 2.423-2.821 3.629 0 2.824 1.207 5.244 2.016 7.666.806 2.418 2.418 4.844-1.21 6.05-2.42.808-4.435-3.229-4.033 2.423-.808 1.611-8.47 4.839-7.258 2.014 1.206-2.824 2.82-3.629 1.61-6.855-.806-2.016-2.019-5.646-4.435-6.053-5.646-1.61-10.488 10.083-11.297 13.711-.402 3.634-2.82 4.441-4.84 7.266-2.016 2.82 0 4.434.405 7.258.403 2.018 2.821 9.678.403 10.088-6.047.803-6.047 4.432-7.666 9.676-1.207 4.438-.806 6.856-6.049 7.262-4.837-.406-9.272 1.613-14.92 1.21 0 .403.805 0 0 0z"/></svg>