
<svg xmlns="http://www.w3.org/2000/svg" xmlns:xlink="http://www.w3.org/1999/xlink" viewBox="0 0 481.9 437.9">
    
<g>

<a xlink:href="new-york.html">
	<path fill="#288585" onmouseover="evt.target.setAttribute('fill', '#cccccc');" 
          onmouseout="evt.target.setAttribute('fill', '#cccccc');"
      
        d="M205.4,337.8c0.5-0.2,0.4-0.8,0.4-1.2L205.4,337.8L205.4,337.8z
		 M206.8,281.2c0.5,0,1,0.1,1.2,0.3c0.5,0.4,27.2,17,27.2,17c-0.7,4.7-2.4,9.3-4.3,13.7c-0.4,1.1-4.2,0.8-5.3,1.2
		c-1.7,0.7-2.6,5.1-1.3,6.3c1.3-1.4,2.7-1.7,4-3.3c1-1.4,2.9-3,4.4-1.3c1.7,1.8,3,0.7,4.3-0.6c0.8-0.8,3.4,0.2,4.3,0.3
		c4,0.3,8.4-1.2,12.1-2.5c5-1.7,9.4-3.4,14.7-4.1c4.4-0.6,9.7-1,13.9-2.4c1.3-0.4,1.8-2.1,3-2.8c1.3-0.8,2.1,2,4,0.4
		c2.6-2.1,6-4.1,9.1-5.3c0.8-0.3,8.9-2.9,8.9-4c0-0.3-2.5-0.3-2.9-0.2c-1.2,0.3-1.6,1.6-2.5,2.2c-0.6,0.5-2.5,0.6-3.3,0.6
		c-1.3,0.1,1-1.4-0.9-1.6c-2.2-0.2-5.1,3.2-6,0.6c-0.5-1.4-0.2-1.5,0.8-2.7c0.2-0.2,2.4-3,2.1-3.1c-0.6-0.1-1.5,0.8-2,0.6
		c-0.7-0.3-2.5,1.8-2.9,2.2c-1.1,1.2-1.5,2.9-1.5,4.5c0,2.1,0,2-1.7,1.1c-0.1-0.1-1.7,1-1.7,0.8c0.1-1.4,2.2-3.1,2.7-4.6
		c-2.9-1.4-3.5,3.9-6.1,4.4c-4.2,0.8-7.7,0.2-11.9,0.2c-2.5,0-6-0.2-8.5,0.3c-1.5,0.3-2.1,1.8-3.7,1.7c-1.1-0.1-2.3-0.5-3.3-1.1
		c-2.5,0.7-5,1.4-7.4,2.1c-2.4,0.7-3.2,2.3-5.2,3.4c-0.4,0.2-4.6,1.7-4.9,1.4c0.1,0.1,8-9.9,9-10.1c-9.3-6.4,6.2-6,4.5-9.9
		c-0.7-1.7-0.7-1-1.8-2.2c-0.3-0.3-0.2-0.8-0.2-1.2c0.1-1.9,0.2-3.8,0.3-5.8c0.6-9.6,1.2-19.2,1.9-28.9c0,0,0,0,0,0l-0.7-1.3
		l8.7-31.6h0.1c-1.3-5.5-0.2-11.7,0-17.3c0.2-6.2,0.5-12.5,0.7-18.7c-0.5-0.4-1.1-0.8-1.6-1.3c-0.6-0.5,0-1.7-0.4-2.4
		c-0.8-1.5-4.3,2.4-4.3,2.3c-0.8-3.5,3.3-8.3,0.3-11.1c-1.6-1.5-2.7,3.3-2.9,4.4c-0.5,3.3-2.4,5.2-3.8,8.2c-0.6,1.2-1.5,4.4-3,4.4
		c-1.9,0.1,0.5-4.5,0.8-5.6c0.6-2.6,3-2.4,4-4.7c1.1-2.3,1.2-5.4,2.5-7.4c0.4-0.6,4.8-0.8,1.3-2.7c-0.2-0.1,0.2-3,0.1-3.4
		c-0.5-2-1.7-3.4-1.1-5.7c0.8-2.8,2.3-5.5,3.2-8.3c0.4-1.3,0.8-2.6,0.9-3.9c0.2-1.2-1-2.1-1.6-3.1c-0.6-1-0.4-4.4,0.1-5.4
		c0.6-1.7-0.7-4.1-0.6-5.9c0.1-2.1,0.9-4.1,1.2-6.1c0.5-3.1,0.7-6.2,1.1-9.3c-19.1-0.9-38.4-0.1-57.5-0.1
		c-4.8,3.1-10.2,5.9-14.8,9.3c-4.9,3.7-9.4,8.9-13.7,13.4l-0.2,4.2c-1-0.6-1.7,1-2.8,1c-2.1,0-2.5,0.8-4,2.5
		c-2.8,3.2-4.9,4.4-9.1,4.8c-1.7,1.9-3.2,4-2.8,6.7c0,0.4,0.6,3.5,1.7,2.5c1.2-1.2,0.8-1.5,2.9-1.3c0.9,0.1,5.4,3,4,3.9
		c-0.8,0.5-1.6-0.1-2.4-0.1c-1.1,0-0.3,3.4-0.4,4c-0.6,2.9-2.9,0.5-3.9,1.5c-1.4,1.3,2.4,6.6,3.2,7.8c1,1.7,0.2,2-0.1,3.7
		c-0.3,1.5,0.8,2.6-1.1,3.1c-2.2,0.6-4.5,0.9-6.8,1.3c-2.7,0.9-4.4,3.1-6.3,5c-3.2,3.2-5.8,4.1-9.9,5.4c-3,0.9-3.3,1.8-6.6,1.1
		c-2.9-0.6-5.3-0.5-8.2-0.3c-1.9,0.1-4.7-0.1-6.4,0.8c-4.8,2.5-6.4-1.1-10.5-3c-2.8-1.3-5.7-1.4-8.6-2.2c-1-0.3-2.7-1-3.7-0.7
		c-0.9,0.3-1.5,1.2-2.6,1.4L79,187c-6.7,1.4-13.5,2.9-20.2,4.4c-0.8,0.2-1.8,0.3-2.6,0.6c-0.5,0.2-1.2-0.1-1.8,0
		c-1.2,0.4-0.9,2.3-0.9,3.3c-0.1,1.7-0.6,5.6,1.6,6.4c1.1,0.4,2.3,0.6,3.3,1.2c0.8,0.5-0.1,2.7-0.1,3.4c-0.1,2,1.7,4.2,1.7,6.5
		c-0.1,2.2-0.8,3.1-2.2,4.7c-2.7,3-5.5,7.7-9.7,8.3c-3.4,0.5-6.7,4.3-9.4,6.3c-3.4,2.5-6.9,5.6-10.8,7.2l0,11.7l156.8,0
		c-1.6,2.1,2,1.8,2.4,3.1c0.7,1.9,0.4,3.8,3.3,3.9c1.4,0,5.1,1.6,4.5,3.8c-0.2,0.5-1.6,1.8-1,2.4c0.7,0.7,0.6,1.9,0.7,2.8
		c0.1,0.8-1.3,1.9-0.8,2.7c0.5,0.7,1.2,1.3,1.8,2c0.7,0.8,2,4.1,2.7,4.2C200.9,276.4,207.9,277.4,206.8,281.2
		C207.3,281.2,206.9,280.8,206.8,281.2z"/>
</a>
    
<a xlink:href="maine.html">

		<path opacity=".5" d="M347.9,202.8c1.8-2.4,5.8-4.9,5.9-8.1c0.1-1.5-0.1-8.3,2.4-5.3
			c0.1,0.1,2.5-2.8,3.1-3.3c1.8-1.3,0.4-2.2,0.2-3.7c-0.2-1.9,5.7-6,7.1-7.3c-3.8,0.3-0.3-4.3,0.4-5.6c1.4-2.3,5.4-3.9,8-4.2
			c1.7-0.2,1.6,1.5,3,0c0.3-0.3,2.4-2.5,1.4-2.9c-1.5-0.6-2.1-0.5-1.9-2.5c0.2-1.8,1.5-4,3.6-4.2c-0.2,0-0.9,1.8-0.9,2.1
			c0,0.5,1.2,4.8,1.1,4.8c0.1,0,5.4-7.1,5.5-6.8c0.7,1.3-1.8,2.9-0.2,4.3c0.9,0.7,0.7-3.3,2.8-2.7c2.5,0.7-0.6,2.4-0.4,3.5
			c0.3,1.9,1.1,3,2.1,0.7c0.2-0.4,5-8.4,6-6.1c0.6,1.5-1.6,4.2,1.6,3.2c1.8-0.6,3.7-1.1,5.4-1.9c2.4-1.1,1.5-2,1.1-4.1
			c-0.4-1.9,2-4.4,2.9-5.8c0.6-1,2.9-3.2,2.3-4.4c-0.5-1-2.6-2.5-1.5-3.7c1.4-1.5,3.4-2.2,5-3.4c0.8-0.6,1-3.7,1.9-3.4
			c2.1,0.8,3.4-0.2,1.9,2.7c-0.2,0.4-3.1,4.2-2.8,4.6c0.1,0.2,2.2-1.8,2.4-2c0.9-0.8,0.5-0.1,1.1,0.3c1.7,0.9,0.5,2.1-0.7,2.9
			c-0.6,0.4-0.6,2.2-0.6,2.8c0.1,1.2,1.7,1.1,2.6,1.4c1.7,0.5,4.4,1.5,1.1,2.5c-1.2,0.4,1.7,1.6,2.5,1.4c1.8-0.6-0.6-4.4-0.4-5.5
			c0.3-2.6-1-2.5,2.2-3.7c1.7-0.6,1.5-3.1,1.8-4.7c3.9-0.3,1.7,1.8,2.7,4.2c0.4,1.1,2.3-0.8,2.5-1.4c0.4-1.4-0.7-2.7,1.3-3.4
			c0.8-0.3,5.3-0.1,5.6,0.4c0.3,0.7,1.9,0,1.8,1.3c-0.1,1.3-0.1,2.5,0,3.9c0.1,0.8,0.4,1.3,1.2,0.5c1.2-1.3-1.1-3.3-0.2-4.6
			c2-3,5.6,2.4,5.4-1.7c0-1.2,4.1-4.4,4.9-3.2c0.8,1.1,0.8,2.8,2.2,1.6c1.9-1.7,1.2,0.7,2.3,1.2c0.6,0.3,1.3-1.6,1.3-2
			c0-1.6-1.2-0.6,0.9-2.1c2.1-1.5,3.1,0.7,4.3-2c0.6-1.6,1.6-1.2,2.9-1.1c1.8,0.2,3.4-0.7,1.8,1.4c-0.7,0.9,3.5-0.3,3.8-0.4
			c1.8-0.6,2.5-2,3.9-3.2c4.8-4-2.9-2-2.9-4.3c0-0.6-2.1-2.7-1.4-3.1c1.2-0.8,2.8-1.2,4.2-1.2c3.1,0-1.3-5.3-2.3-6.8
			c-1-1.5-4.4-6.3-5.7-2.8c-0.7,2-3.2-0.7-3.8-1.5c-1.1-1.4-1.4-3.4-1.5-5.1c-0.1-1.2,1.4-2.9,1-3.9c-0.5-1.3-1.6-2.2-2.1-3.5
			c-0.9-2.2,1.8-1.9,2.1-3.4c0.3-1.7,0.4-3.5-1.9-3.4c-1.5,0.1-3,0.7-4.5,0.4c-1.2-0.2-2.4-2.3-3.7-2.9c-1-0.5-2.7-0.8-3.1-1.8
			c-0.8-1.8,1.3-4.3,0.6-6.1c-1.1-2.8,2-2.7,1.9-5.3c-0.1-1.3-0.1-2.6-0.2-3.9c-0.5-11.6-1-23.2-1.4-34.7c-0.2-4.4-0.4-8.7-0.5-13.1
			c-2.2-1.7-4.7-3.2-6.4-5.5c-2-2.6-4.4-4.5-7.1-6.3c-0.9-0.6-6-3.1-6.7-1.1c-0.2,0.6-0.1,3.2-1,3.1c-1.1-0.1-2.1-0.5-3.1-0.8
			c-1.7,0.1-2.8,0.8-4.1,1.7c-1.6,1.1-3.5,0.8-5.2,1.4c-1.2,0.4-2.1,1.2-3.3,1.6c-2.3,0.7-3.3-0.4-5.3-1.4c-3-1.5-0.9-5.9-1-8.3
			c-0.1-3.6-7.1-1.3-8.6-0.4c-2.7,1.7-3.8,5.8-6,8.1c-1.4,1.4-2.2,2.3-3,4.1c-0.7,1.4-3,2.6-4.1,3.7c-4.5,4.9-7.9,10.9-12.1,16
			c-1,1.3-1.7,3.6-1.8,5.2c-0.2,3.9-0.7,6.3-3,9.4c-1.3,1.8-2.6,3.8-4,5.5c-1.6,2-2,2.1-1.3,4.9c0.3,1.5,1,3.3-0.6,4
			c-2,0.9,0.5,4,0.9,5.1c0.6,1.5-0.1,3.5-0.5,5c-0.4,1.5-1.2,1.2-2.5,1.5c-4,0.9,0.1,5.2-3.4,6.9c-2.5,1.2-5.1,2.1-7.3,3.7
			c-0.8,0.6-2.1,1.5-2.1,2.6c0,1.5-1.9,2.5-1.9,3.6c0,0.9,3.2,1.8,3.9,2.3c2.3,1.5-2.2,1.9-3,0.2c-0.7-1.3-2.1-1.5-3-0.3
			c-1.1,1.4,0.3,4.1-0.2,5.8c-0.2,0.8-0.8,4.2-2,2.2c-0.9-1.5-1.6-3-2.3-4.5c-1-2-2-0.3-2,1.3c0.1,2.1-2.2,0.5-2.7,2.5
			c1.1,20.4,2.2,40.8,3.4,61.2c0.3,5.9,0.1,12.1,1.1,17.9c0.3,1.8-0.2,3.8-0.4,5.6c-0.3,2.8-0.4,2.5,1.5,4.4
			c0.9,0.9,0.3,2.1,1.5,3.1c0.8,0.7,2.1,1.4,2.4,2.4c0.3,1.1,0.3,2.4,0.2,3.6C344.3,200.3,346.8,201.8,347.9,202.8L347.9,202.8z
			 M479.7,122c0.5,1,2.4,1.3,2.1-0.3C481.6,120,480,120.9,479.7,122L479.7,122z M429.6,144.4c0.6-3.9,2.7-5.2,6-3.6
			c4.2,2.1-2.6,2.8-3.5,3.8c-1,1.3,1.8,1.4,1,2.4c-1,1.2-2.7,1.8-2.3,3.6c0.1,0.5,1.3,2.8-0.1,2.3c-0.9-0.3-1.6-0.8-2.4-1.3
			c-0.5-0.3-0.8,0.3-1.1,0.1c-1.1-0.6,1.6-2.4,1.9-2.8C429.5,148.5,430.1,144.7,429.6,144.4C430,142.1,429.5,144.3,429.6,144.4z"/>
	</a>

    
<a xlink:href="new-hampshire.html">
    
	<path opacity=".5" d="M347.9,202.8c-1-0.9-3-2.1-3.4-3.5c-0.3-1.1,0.1-2.5-0.1-3.6
		c-0.3-2.6-3.8-2.8-3.9-5.5c0-1.3-2.1-1.4-2.1-2.4c0-0.7,0.2-1.4,0.2-2.1c0.2-1.7,1-4.5,0.5-6.3c-0.5-1.4-0.3-3.3-0.3-4.8
		c-0.3-4.2-0.5-8.3-0.7-12.5c-1.2-20.6-2.3-41.3-3.4-61.9c-0.4,1.5-3,1.6-4,0.6c-1.8-2.1-2.7-2.1-4.9-0.3c-2.3,1.9-2.4,3.4-3.4,6.1
		c-0.6,1.5-2.3,5.6-4.3,5.6h0c-0.2,1.9,1.5,2.5,1.5,4c0,0.8-0.8,2-1.2,2.7c-1.1,2.2-3.4,4.8-2.5,7.2c0.5,1.2,3.1,6.6,1.6,7.1
		c-1.4,0.5-1.1,1.5-1.6,2.7c-0.4,1-1.6,1.5-2.4,2.1c-1.9,1.5-3.8,3.2-5.7,4.7c-2,1.6-4.7-0.4-6.4,2.1c-2.2,3.1-1.3,8.3-1.4,11.9
		c-0.5,0.4-0.9,1.1-1.4,1.4c-1.5,0.9,0.8,2.8-0.3,3.9c-2,2-2,2-2.6,4.9c-0.6,3-3.4,3.1-4.4,5.4c-0.4,0.9-0.2,2-0.4,3
		c-0.2,1.2-1.1,2.3-1.6,3.4c-1,2-1.6,2.8-1.3,5c0.3,2.2,0.6,4.5,0.6,6.7c0,2.1-1.9,3.1-1.9,5.2c0,0.4-1.4,2.6-0.8,2.8
		c0.7,0.2,0.8,1.6,0.9,2.2c-0.8,1.2-0.9,1.7-0.3,2.9c1.2,2.2-1.6,2-2.7,3.2c-3,3.1,0.2,8,2.2,10.5l41.5,1.4l4.7-3.6l0.7-1.3
		c2.1-1.2,4.4-1.8,6.4-3.1c1.9-1.8,2.9,1.6,4.8,1.9C343.7,209.8,346.3,204.9,347.9,202.8C347,202,347.4,203.4,347.9,202.8z"/>
</a>
    
    
<a xlink:href="vermont.html">
	<path opacity=".5" d="M257.9,216.2c-1.3-5.5-0.2-11.7,0-17.3c0.2-6.2,0.5-12.5,0.7-18.7
		c-0.5-0.4-1.1-0.8-1.6-1.3c-0.6-0.5,0-1.7-0.4-2.4c-0.8-1.5-4.3,2.4-4.3,2.3c-0.8-3.5,3.3-8.3,0.3-11.1c-1.6-1.5-2.7,3.3-2.9,4.4
		c-0.5,3.3-2.4,5.2-3.8,8.2c-0.6,1.2-1.5,4.4-3,4.4c-1.9,0.1,0.5-4.5,0.8-5.6c0.6-2.6,3-2.4,4-4.7c1.1-2.3,1.2-5.4,2.5-7.4
		c0.4-0.6,4.8-0.8,1.3-2.7c-0.2-0.1,0.2-3,0.1-3.4c-0.5-2-1.7-3.4-1.1-5.7c0.8-2.8,2.3-5.5,3.2-8.3c0.4-1.3,0.8-2.6,0.9-3.9
		c0.2-1.2-1-2.1-1.6-3.1c-0.6-1-0.4-4.4,0.1-5.4c0.6-1.7-0.7-4.1-0.6-5.9c0.1-2.1,0.9-4.1,1.2-6.1c0.5-3.1,0.7-6.2,1.1-9.3
		c3.7,0.3,7.6-1.4,11.4-1.4c6,0.1,11.9,0.1,17.9,0.2c11.3,0.1,22.7,0.3,34,0.4c-0.2,1.9,1.5,2.5,1.5,4c0,0.8-0.8,2-1.2,2.7
		c-1.1,2.2-3.4,4.8-2.5,7.2c0.5,1.2,3.1,6.6,1.6,7.1c-1.4,0.5-1.1,1.5-1.6,2.7c-0.4,1-1.6,1.5-2.4,2.1c-1.9,1.5-3.8,3.2-5.7,4.7
		c-2,1.6-4.7-0.4-6.4,2.1c-2.2,3.1-1.3,8.3-1.4,11.9c-0.5,0.4-0.9,1.1-1.4,1.4c-1.5,0.9,0.8,2.8-0.3,3.9c-2,2-2,2-2.6,4.9
		c-0.6,3-3.4,3.1-4.4,5.4c-0.4,0.9-0.2,2-0.4,3c-0.2,1.2-1.1,2.3-1.6,3.4c-1,2-1.6,2.8-1.3,5c0.3,2.2,0.6,4.5,0.6,6.7
		c0,2.1-1.9,3.1-1.9,5.2c0,0.4-1.4,2.6-0.8,2.8c0.7,0.2,0.8,1.6,0.9,2.2c-0.8,1.2-0.9,1.7-0.3,2.9c1.2,2.2-1.6,2-2.7,3.2
		c-3,3.1,0.2,8,2.2,10.5L257.9,216.2z"/>
</a>
    
    
<a xlink:href="maryland.html">
	<path opacity=".5" d="M249.7,249l-0.7-1.3l8.7-31.6l69.7,2.3l4.7-3.6l0.7-1.3
		c2.1-1.2,4.4-1.8,6.4-3.1c1.9-1.8,2.9,1.6,4.8,1.9c0.4,2.8,1.7,6.3,4,8c1.2,0.8,1.8,1.8,1.6,3.3c-0.1,1.4-2.5,1.3-3.5,1.4
		c-3.2,0.4-2.7,2.8-4.8,4.6c-0.6,0.4-1.2,2.9-1.6,3.8c-1.1,2-1.1,1.6-3.1,2.4c0.1,0,3.9,6.2,4.6,2.9c0.1-0.4-0.1-0.7-0.5-0.9
		c-0.2-0.3,0.7-0.5,0.7-0.9c0.1-0.4,3.5,1.7,3.8,2c0.6,0.5,2.2,1.7,2.2,2.6c0,2.2,0.4,2.1,1.3,3.6c0.6,1.1,0.9,2.5,1.6,3.5
		c1,1.5-0.8,1.5-1,2.6c-0.1,0.5,3,1,3.4,1.7c0.8,1.7,0.7,3.7,1.6,5.4c2.5,5,5.2,5.2,10.1,4.8c4.5-0.3,8.2-0.7,8.5-5.8
		c0.1-1.1-3-3.6-3.7-4.7c-0.5-0.7-1.1-2-2-2.4c-0.8-0.3-1.6,0.9-2.2,0.4c-0.6-0.4-1.5-3.4-0.2-3.5c1.8,0,3.7-1.7,4.7,0.4
		c1.3,2.7,3.5,4.6,4.9,7.2c1.2,2,2,5.7,2,8c0,1.9-1.9,2.6-3.1,3.7c-1.2,1.2-4.1,0.4-5.8,0.5c-1.8,0.1-3.4,0.7-5.2,1
		c-1.6-1.9-2.2-1.9-3.9-0.2c-2,2-3.6,3.1-6.3,3.8c-2.5,0.6-4.1,2.3-6.3,3.4c-0.8,0.5-4.9,3.6-5,2.1c3.7-2.2,7.2-3,8.3-7.4
		c0.3-1.4,2.5-5.2,0.5-6.2c-1.7-0.9-2.2,0.3-3.2,1.8c-1.5,2.2-4.5,3.9-6.6,5.4c-0.6,0.4-1.3,0.9-2,1.2c-1.4,0.6-1-0.9-1.7-1.1
		c-0.5-0.1-1.1,0.5-1.4,0.8c-0.5,0.4-1.7,0.3-2.3,0.3c0-2.9,0.6-5.5-1.8-7.7L328,264c-2.5-2-2.8-4.1-2.3-7.1l-2-0.2l-0.1-5.7h-14.5
		v-1l-33.1-0.1c-0.5,0.3-1,0.6-1.6,0.9L249.7,249L249.7,249L249.7,249z M316.3,288.3c-0.2,0.5,0.5,1.6,0.5,1.6
		c1.5-0.5,1-3.2,0.9-3.2C317.2,287.1,316.8,287.9,316.3,288.3L316.3,288.3z M371.7,272c-0.1-0.1,2.8-3.1,2.8-3.1
		c0.6-0.9,0.5-3.1-0.6-1.4C373.1,268.8,372.2,270.4,371.7,272L371.7,272z M364.2,283.7c2,1.5,5.7,1.6,8.1,1.5c3.1,0-0.4-4.1-0.5-4.1
		c-0.8,0-1.2,2.2-2.5,2.3C368.2,283.6,365.2,284.2,364.2,283.7L364.2,283.7z M343.9,281.1c0.9,2.1,3.2,0.4,4.9,0.2
		c1.9-0.3,3.9-0.6,5.8-0.8c-0.1-1.7-2-6.1-4.5-3.6C348.3,278.7,346.5,280.5,343.9,281.1z"/>
</a>
    
    
<a xlink:href="rhoad-island.html">
	<path opacity=".5" d="M309.1,250.9h14.5l0.1,5.7l2,0.2c-0.5,3-0.2,5.1,2.3,7.1l2.7,0.6
		c2.4,2.1,1.8,4.8,1.8,7.7c-0.5,0-2.5-0.7-2.7-0.2c-0.4,1.1-1.6,1.9-2.8,1.4c-0.5-0.2-1.7-2.3-1.9-1.9c-0.7,1.1-0.4,2.7-1,3.8
		c-1.8,3.3-4.3,4.1-7.7,5.2c-3,0.9-5.6,2.3-8.9,2.2v0c-0.1-1.7,1.7-5.1,1.7-5.1L309.1,250.9z"/>
</a>
    
<a xlink:href="conneticut.html">
	<path opacity=".5" d="M245,297c-9.3-6.4,6.2-6,4.5-9.9c-0.7-1.7-0.7-1-1.8-2.2
		c-0.3-0.3-0.2-0.8-0.2-1.2c0.1-1.9,0.2-3.8,0.3-5.8c0.6-9.6,1.2-19.2,1.9-28.9l24.8,1.7c0.5-0.3,1-0.6,1.6-0.9l33.1,0.1l0,27.7
		c0,0-1.8,3.4-1.7,5.1v0c-1.9,0-4-0.4-5.9-0.1c-3.5,0.6-5,2.9-8.6,0.6c-2.5-1.6-5.1-0.8-7.9-0.3c-3.1,0.5-6.9,1.2-10,0.9
		c-2.6-0.2-6.4,1.6-8.7,2.6c-2.1,0.9-3.9,2-6.1,2.7c-3.2,1-5.6,2.5-7.9,4.9C250.1,296.5,248,296.5,245,297
		C244.3,296.5,246.4,296.8,245,297z"/>
</a>
    
    
<a xlink:href="pennsylvania.html">
	<path opacity=".5" d="M169.1,356.4l0-0.9c1.1-1.9,2.4-4.3,4.7-4.9c2.3-0.5,6-0.7,7,2.1
		c2.2-1.8,4.6-2.4,7.3-3.3c1-0.4,2.2-0.4,3.2-0.9c1.4-0.7,0.8-2.2,1.1-3.5c0.4-1.5,4.6-3,5.9-3.7c1.2-0.8,2.1-1.8,3.3-2.7
		c1.5-1.2,2.4-0.3,3.9-0.9l0.4-1.2c-0.1-2.2-3-6.3-4.2-8.2c-0.8-1.3-1.8-2.9-3.3-3.4c-0.7-0.2-3.6,0.3-3.8-0.2
		c-0.5-1.3,0.4-6.9-1.2-7.3c-0.5-0.1-3.6,0.2-3.6-0.5c-0.1-1.6,0.4-3-0.3-4.6c-0.6-1.6,0.6-3,0.9-4.5c0.2-1.2,1.9-1.7,2.7-2.7
		c0.6-0.9,1.8-1.6,1.1-2.7c-0.9-1.3-2-2.6-2.5-4c-0.3-0.9,5-3.9,5.9-5.1c1.5-2,2.4-4.4,4.1-6.2c-1-2.6,2.7-5.9,5.3-5.9
		c1.1-3.6-5.5-4.8-8.1-5.3c-1.4-0.3-1.6-2.6-2.5-3.7c-1.6-1.9-2.7-2.1-1.7-4.6c0.9-2.1-1.3-3.3,0.1-5.2c1.1-1.6-1.6-4.5-3.2-4.5
		c-2.4,0-4.2-1-4.2-3.6c0-1.6-4.1-1.2-2.4-3.4l-156.8,0l0-11.7c-3.8,1.5-12.5,4-12.5,4c-3.2,4.8-8.3,6.3-13.4,8.8
		c0,34.6,0.1,69.2,0.1,103.8c0,0.1,0,0.3,0,0.4c12,0,23.9,0.1,35.9,0.1L169.1,356.4z"/>
</a>
    
    
<a xlink:href="new-jersey.html">
	<path opacity=".5" d="M180.7,352.7c0,0.1,0,0.2,0,0.2c-0.3,2.3-1.3,4.3-3.1,5.7
		c-0.7,0.6-2.9,2.2-2.2,3.3c1.4,2.1,2.3,1,1.7,3.9c0.7,0.4,1.5,2.6,2.4,3.3c0.9,0.8,0.8,1.2,1.3,1.9c1.7,2.5,5,3.6,6.9,5.9
		c0.6,0.7,1.6,3.6,2.9,3.4c1.3-0.2,2.9,0.2,4.2,0.4c1.1,0.2,5,0,4.9,1.6c-0.1,2.2,0.1,3.9-0.8,6.1c-0.7,1.6-1.4,3-0.3,4.6
		c1.4,2.2,5.1-5.3,5.9-6.5c1.8-2.4,4.2-5.2,5.2-8c0.6-1.6-1.6-2.4,0.1-3.6c1.2-0.8,2.4-1.8,3.7-2.4c1.3-0.7,3.1-1.3,3.4-2.9
		c0.3-1.5-0.5-2.8,0.9-3.8c2.3-1.7,4.1-1.7,5.3-4.4c1.2-2.7,2.3-5.2,2.8-8.1c0.5-3,0.7-7.5,2.6-10c1-1.4,1.4-3.8,1.9-5.5
		c0.7-2.2,1.7-4.5,1.7-6.8c0.1-2.6,1.3-7.2-2.4-7.4c-2.4-0.2-9,0.1-5.6-3.7c-1.3-1.2-0.5-5.1,0.9-6.1c1.3-1,4.6-0.1,5.5-1.2
		c0.9-1.1,2.1-4.4,2.4-5.8c0.5-2.9,1.6-5.3,2-8.2c-6.2-3.8-12.4-7.7-18.5-11.5c-2.8-1.7-5.5-3.4-8.2-5.2c-2.9-1.9-8.1,2.3-6.9,5.3
		c-2.2,2.4-3.3,5.6-5.8,7.9c-1.2,1.1-4.9,1.9-3.9,3.8c0.4,0.8,3,3.6,2.5,4.5c-0.8,1.6-3.7,3-4,4.4c-0.2,1.1-0.6,1.8-1,2.9
		c-0.5,1.1,0.6,2.1,0.5,3.1c-0.1,3.2-0.5,3.4,2.8,3.6c2.1,0.1,1.5,3.5,1.6,5c0.1,1.5-0.3,3,1.5,2.5c2.7-0.7,4.6,1.4,5.9,3.5
		c1.2,2.1,2.1,4.4,3.5,6.4c2.5,3.5-1.2,2.3-2.9,3.4c-2.2,1.4-4,3.3-6.3,4.6c-2.1,1.2-3.6,1.4-3.7,4c-0.2,2.4-3.1,2.3-4.9,3
		C184.8,350.6,182.8,351,180.7,352.7C180.8,352.8,181.6,352,180.7,352.7z"/>
</a>
    
    
<a xlink:href="maryland.html">
	<path opacity=".5" d="M121.8,391.7c1.9-1.5,1.3-2.3,3.5-0.5c1.3,1.1,4,2.2,2.5,4.1
		c-1.9,2.3-3.6,3.4-3.5,6.6c0,1.3-1.4,1.5-2.1,2.2c-1,1-1.6,2.6-2.4,3.8c-1.4,2.2-3.9,3.5-4.4,6c-0.2,1.1-0.1,1.6,1,1.8
		c1.6,0.3,0.4,2.6,1.7,2.8c3.5,0.5,1.5-2.7,2.3-4c0.4-0.7,1.6,0.8,2,0.8c1.5,0.3,1.3-1.8,2.2-2.2c0.6-0.3,2.2,8.7,5.3,8.2
		c0.9-0.1-0.7-2.6-0.7-3c0-0.1,3.4-1.3,3.8-1.2c0.7,0.2,0.2,4.8,0.5,5.7c0.5,1.6,2,1.6,3.5,1.7c0.9,0.1,3.2-0.2,3.7,0.9
		c0.5,1.1,2.6,3.1,3.7,1.9c1.2-1.2,1.1-1.4,2.6-0.7c1.6,0.8-0.6,3.2,0.1,4.4c0.9,1.3,3.7,0.7,3.1-1.1c-0.5-1.8-1.3-2.7-2.3-4.2
		c-0.9-1.2,0.4-3.8-1.4-4.4c-1.4-0.5-2.7-0.3-3.9-1.2c-3.5-2.6-6.3-5.7-5.8-10.3c0.1-1.1-1.4-6.5,0.1-6c1.9,0.7,1.5,2.2,1.4,3.9
		c-0.2,1.9,0.4,3,0.9,4.9c0.2,0.7,1.5,2.3,2,2.9c0.8,0.9,1.4,2,2.4,2.9c2.4,2.3,6.8,2.3,3.6-1.9c-1.6-2.1-4.5-4.6-4.4-7.4
		c0.1-2,0.7-3.9,0.2-5.9c-0.3-1.4-1.2-2.1-0.1-3.6c1.8-2.4-0.5-6.3,0.7-9.2c0.8-1.9,1.7-1,2.8-2c0.6-0.6-1.6-4-1.7-5
		c-0.2-1.7-2.6-2.2-3.9-3c-0.3-0.2-1.6-1-1-1.6c2-1.6,2.2-1.4,4.4,0c3.3,2.1,0.5-3.3,2.1-3.7c0.8-0.2,1.7-0.5,2.3-1
		c1.1-0.9-1-1.8-1.1-2.7c-0.1-1.1,3.3,1.7,3.3,1.7c1.8,1.6,1.5-2.3,2.4-2.8c0.4,0.2,0.6,0.6,0.6,1c0.3,0.9,0.9,0.1,1.5-0.2
		c0.5-0.3,3.9-1.2,3.7-2c-0.7-3.4-0.8-4.6,2.7-6.2c1.5-0.7,2,1.2,3.2,1.8c1.4,0.7,1.3,1.5,0.1,2.5c-1.4,1.1-2.7,2.1-4,3.2
		c-1.7,1.3,0.5,1.2,0.6,2.3c0,0-4.4-0.3-5.1,0.9c-0.8,1.3-1.5,2.5-2.2,3.8c-0.7,1.3-1.8,3-1.8,4.5c0,2.8,1.1,2.6,3.3,2.5
		c2.2-0.1-0.6,2.5-0.9,3.3c-0.3,0.8,0.9,1.1,0.4,1.9c-0.2,0.2-1.9,1.2-2.1,1.3c-0.6,0.2-3-1.3-3,0c0,1.4,2.2,1.7,3.3,1.8
		c0-0.1,0.2-1,0.4-0.9c-0.5-0.2,4,4.7,4.3,3.5c-0.2,0.9-5.6,2.9-1.2,2.8c3.3-0.1,0.3,1.2-1.1,1.7c-3.2,1.2,0.8,3.9,2.3,4.8
		c-1.1,2.2,0.7,2.6,2.2,1.7c1.4-0.8,2.4-1.4,2.1,0.7c-0.8,7-3.7-2.9-6.1,1.8c-0.9,1.8-1.3,3.1-3,4.3c-1.3,0.9-2.9,4.7-0.7,5.6
		c0.9,0.4,4.7,1.4,2.8,2.9c-0.8,0.6,4,2.2,4,2.3c0.1-0.7,3-5.7,3.2-5.3c0.2,0.4,0.7,3.2,1.9,1.8c0.6-0.7,1.3-2.2,2.2-2.6
		c-0.1,0.1-1.8,3-2.2,3.6c-0.3,0.4,0.1,1.4-0.6,1.4c-0.2,0-1.8,0.1-1.1,0.8c0.1,0.1,1-0.3,1.1-0.3c1-0.1,1.4,1.4,2.3,1.8
		c1.5,0.6-2.6,1.6-2.6,1.6c-0.5,1.9,6.6,1.6,5.9,3.5c-0.7,2.1-4.5,6.7,0.6,6.3c2.1-0.2,3.9,0.4,5.9,0c2.1-0.4,4.2-0.7,6.4-1.1
		c1.6-4.3,5.6-7.5,7.8-11.6c0.9-1.6,2.3-1.6,2.5-3.5c0.2-1.6,0-3.3-0.2-4.9l-21-0.4l-2-58.2l-131.2,0l0,0h0l0,22.8
		c1.6,0.1,3.2-1.7,4.3-2.7c0.6-0.6,0.8-1,1.8-1c1.9,0,1-0.9,2-2c0.9-1,3.1-2.1,4.2-3c2.4-1.9,1.8-3.6,5.2-2.1c3.6,1.5,6.2-7.4,8.6-6
		c1.3,0.8,3,2.7,4.6,2.8c1.9,0.1,3.9-0.1,5.8-0.2c2.9-0.6,0.2-2.2,0.7-2.7c0.8-0.8,2.6-2.6,3.9-2.2c1.6,0.5,3.7,1.6,4.4-0.5
		c0.7-2,1.3-2.7,3.3-1.2c1.4,1,2.8,2.1,4.3,3.1c1.1,0.8,4.4-0.6,4.7,0.8c0.5,2.2,0.9,3.5,2.2,5.5c1.5,2.3,1.7,4.1,2.4,6.7
		c2.6,0.1,5.4,1.3,7.5,2.8c3.5,2.5,0.1,3.1,0.6,6.3c0.7,4.2,5.8,2.3,7.9,4.5c0.8,0.8,1.3,2.5,2.1,3.1
		C119.1,391.5,120.8,391.3,121.8,391.7C122.2,391.3,121.3,391.5,121.8,391.7z"/>
</a>
    
    
<a xlink:href="delaware.html">
	<path opacity=".5" d="M192.1,415c0-0.2,0-0.4,0-0.4c0.4-0.7,3.3-6.5,1.3-6.5
		c-0.8,0-1.6,1.3-2.4,0.9c-0.7-0.4,0.3-3.3,0.5-4c0.2-1,0.4-2.1,1.2-2.8c1.7-1.4-1.6-2.8-2.5-3.3c-2.8-1.6-4.2-5.4-5.1-8.4
		c-0.8-2.7-2.3-4.1-2.4-6.9c-0.1-1.9,0.5-6-0.8-7.5c-1.7-1.8-3.2-4-4.6-6c-0.5-0.7-1.1-1.5-1.4-2.3c-0.1-0.3,1.2-2,1.4-1.9
		c0.4-1.9,0.6-2-0.9-3.1c-1.3-1-0.7-2,0.2-3c2.1-2.2,3.1-2.9,4-6c0.9-2.9-3.4-3.6-5.4-3.3c-3.1,0.5-4.6,2.4-6.1,5l2.1,59.1
		L192.1,415z"/>
</a>
    </g>
</svg>
