
<svg version="1.1" xmlns="http://www.w3.org/2000/svg" xmlns:xlink="http://www.w3.org/1999/xlink" viewBox="0 0 213.057 256.437">
	
<g id="CA">
	<path fill-rule="evenodd" clip-rule="evenodd" fill="#288585" d="M4.495,0C4.71,1.539,5.101,4.837,3.398,5.671
		C2.771,5.979,4.89,7.07,5.003,7.299c0.433,0.86,0.768,1.759,1.077,2.662c0.564,1.641,1.143,3.303,1.509,4.997
		c0.281,1.294-0.355,2.514-0.726,3.746c-0.493,1.636-1.09,3.36-1.219,5.076c-0.058,0.745,0.331,1.369,0.581,2.048
		c0.317,0.869-0.367,2.031-0.461,2.93c-0.114,1.084-0.16,1.861,0.669,2.633c1.127,1.043-1.147,0.486-1.097,1.176
		c0.022,0.504-1.423,1.732-1,2.144c1.077,1.102-0.781,0.808-1.298,0.846c-0.627,0.053-0.484,1.277-0.538,1.703
		c-0.081,0.675-0.673,1.092-0.993,1.71c-0.281,0.548-0.45,1.592-0.753,2.026c-0.528,0.754-1.25,0.719-0.269,1.864
		c0.629,0.737,0.623,0.54,0.912,1.631c0.27,1.018,0.099,1.268,0.075,2.299c-0.038,1.591,1.281,0.978,2.085,1.496
		c0.441,0.285,0.551,1.056,0.928,1.447c0.491,0.509,1.108,0.904,1.642,1.36c0.906,0.776,0.836,1.325,1.358,2.168
		c0.254,0.407,0.858,0.398,1.132,0.908c0.201,0.376,0.392,0.573,0.701,0.851c0.467,0.413,1.551,1.066,1.702,1.72
		c0.228,0.973,1.325,1.824,1.373,2.767c0.055,1.062,0.024,2.153,0.542,3.115c0.509,0.948,1.079,1.851,0.873,2.982
		c-0.136,0.769-0.859,1.462-0.803,2.221c0.046,0.719,0.616,2.855-0.373,3.146c-0.871,0.259,0.52,2.495,0.845,3.175
		c0.643,1.338,1.088,2.8,1.549,4.207c0.406,1.229,1.031,2.119-0.04,3.032c-1.879,1.605-0.385,2.851,1.253,3.908
		c3.299,2.123,4.641,5.483,7.372,8.203c1.042,1.04,3.036,2.115,3.617,3.431c0.849,1.89,1.971,3.62,3.29,5.185
		c0.419,0.5,1.507,1.382,1.56,2.045c0,0.008-1.25,0.587-1.345,1.043c-0.213,1.031-2.777,2.369-0.279,2.785
		c0.798,0.132,1.59-0.417,2.333-0.268c0.474,0.098,1.224,1.159,1.578,1.466c1.498,1.316,3.276,2.154,4.788,3.391
		c1.285,1.053,1.061-0.579,1.07-1.438c0.016-1.531,0.101-3.08,0.338-4.593c0.25-1.597,0.3-1.741,1.75-1.925
		c0.658-0.084,1.707-0.448,2.271,0.086c0.611,0.575,0.594,1.475,1.454,1.866c1.049-0.697,2.321-1.593,3.596-1.755
		c0.837-0.105,0.8,0.764,1.114,1.317c0.393,0.692,2.112,0.166,2.727,0.086c1.48-0.192,3.132-0.702,4.546-0.091
		c0.895,0.381,3.163,0.982,3.722,1.811c-0.386-0.574-2.605-0.771-3.303-1.104c-0.162-0.076-0.94-0.957-1.079-0.399
		c-0.075,0.307-0.471,0.675-0.399,1.009c0.024,0.131,0.68,0.693,0.399,0.807c-0.743,0.294-2.033-1.065-2.98-1.03
		c-1.123,0.043-2.581,0.337-3.654-0.066c-1.062-0.396-1.397-0.873-2.533-0.32c-0.724,0.351-1.57,0.508-2.351,0.679
		c-1.114-1.009-2.025,0.206-2.858,1.027c-1.391,1.373,0.327,2.321,1.006,3.474c0.276,0.465-0.059,0.996,0.143,1.469
		c0.263,0.623,1.084,1.128,1.502,1.646c0.996,1.229,1.112,2.438,1.516,3.912c0.494,1.804,1.156,1.896,2.549,2.87
		c1.349,0.943-1.654,1.983-1.773,1.5c-0.395-1.57-1.768-1.72-2.766-2.961c-0.855-1.071-1.744-2.119-2.628-3.171
		c0.97-0.785,0.821-4.11-0.837-3.952c-0.31,0.029-1.891,0.438-1.972,0.755c-0.125,0.494,0.349,1.32,0.419,1.819
		c0.129,0.931-0.042,1.703-0.509,2.501c-1.356,2.329,1.322,3.079,2.043,4.843c0.762,1.855-0.508,3.443-0.364,5.298
		c0.152,1.94,2.817,4.041,4.047,5.414c0.774,0.859,2.5,3.584,3.895,2.869c0.667-0.338,1.371-0.991,2.174-0.934
		c1.04,0.074,1.737,1.828,2.296,2.547c0.823,1.063,0.715,1.556,0.831,2.787c0.108,1.161,0.641,1.084,0.049,2.402
		c-0.285,0.638-0.687,2.02-1.511,2.137c-0.404,0.053-1.504-0.526-1.678-0.153c-0.335,0.694,0.507,1.921,0.314,2.777
		c-0.263,1.171,0.417,1.869,0.779,2.809c0.355,0.906-0.099,1.987,0.271,2.928c0.128,0.321,1.271,2.089,1.667,2.107
		c1.027,0.039,1.101,1,2.151,1.175c0.88,0.148,1.56,2.013,1.944,2.688c0.668,1.192,0.107,1.51,1.55,2.27
		c1.011,0.552,1.026,0.906,1.327,2.026c0.371,1.371,1.563,3.225,2.47,4.328c0.618,0.76,0.652,1.001,0.713,1.91
		c0.085,1.279,1.634,1.271,2.575,1.434c0.748,0.13,1.013,1.097,1.379,1.667c0.68,1.064,1.422,2.132,2.31,3.032
		c1.334,1.346,3.119,0.982,3.992,2.958c0.555,1.264-0.852,0.914-1.066,1.187c-0.643,0.812-0.648,2.851,0.331,3.382
		c0.685,0.366,5.216,0.894,4.99,2.11c-0.173,0.898,0.046,1.834-0.16,2.73c-0.272,1.198-1.524,1.256-1.046,2.678
		c0.393,1.188,1.141,1.846,0.996,3.21c-0.109,1.031,0.176,1.523,0.248,2.584c0.073,1.062-0.8,2.021-0.75,3.132
		c0.058,1.232,1.776,1.466,2.619,2.066c1.68,1.192,2.961,1.531,5.036,1.433c0.75-0.034,1.463-0.959,2.097-0.849
		c0.507,0.087,0.755,0.737,1.257,0.895c0.5,0.153,1.046-0.027,1.561,0.097c1.191,0.279,2.084,1.207,3.345,1.314
		c0.944,0.085,1.658,0.105,2.602,0.368c0.891,0.255,1.272-0.104,2.06-0.485c1.412-0.688,1.656-0.07,2.875,0.534
		c1.592,0.79,2.961,2.125,4.554,2.988c0.879,0.475,0.905,1.596,0.989,2.464c0.128,1.374,1.563,1.82,2.667,2.274
		c0.848,0.35,1.723,0.627,2.528,1.064c0.885,0.483,1.81,1.466,2.84,1.605c0.913,0.128,1.207-1.587,2.199-1.132
		c0.785,0.359,2.053,0.049,2.88,0.015c0.367-0.019,1.793-0.211,1.957,0.315c0.412,1.298,0.769,1.548,1.604,2.598
		c0.604,0.749,0.952,2.311,0.913,3.276c-0.021,0.533-0.773,0.845-0.565,1.415c0.167,0.465,0.487,1.028,0.854,1.36
		c-0.161-0.145,1.923-0.5,1.87-0.412c0.382-0.646,0.105-0.833,1.174-0.604c0.844,0.174,2.328-0.172,2.89,0.666
		c0.63,0.955,1.779,1.677,2.641,2.396c1.477,1.231,2.76,2.508,4.432,3.465c1.539,0.886,2.91,2.154,4.046,3.506
		c1.72,2.038,3,4.558,4.075,6.991c0.769,1.74,0.929,3.57,1.509,5.373c0.173,0.53,1.328,1.378,0.627,1.786
		c-0.625,0.359-0.651,1.538-0.754,2.207c-0.169,1.104,0.066,1.941,1.164,2.364c0.432,0.162,2.544,0.406,2.39,1.153
		c-0.232,1.184-0.938,1.214-0.172,2.469c0.395,0.642,0.977,0.79,1.7,0.712c0.515-0.053,1.03-0.105,1.547-0.153
		c2.368-0.233,4.734-0.463,7.101-0.688c7.333-0.713,14.661-1.414,21.994-2.114c5.709-0.55,11.418-1.106,17.128-1.643
		c1.216-1.165,3.97,0.106,4.23-2.052c0.116-0.948,1.035-1.293,1.115-2.347c0.021-0.286,0.29-2.391,0.004-2.549
		c-0.711-0.398-0.5-1.781-1.276-1.743c-0.996,0.053-2.34,0.01-2.961-0.959c-0.848-1.326-0.132-2.242,0.407-3.444
		c0.422-0.938-0.831-1.466,0.031-2.295c-0.467-0.336-2.064-1.525-1.024-2.026c0.716-0.341-0.72-2.354,0.797-1.697
		c0.925-0.991,1.312-2.355,2.331-3.239c0.991-0.928-0.438-3.151,0.87-4.168c1.507-1.178,1.051-2.036,0.625-3.834
		c-0.417-1.757-1.134-3.233,0.445-4.584c0.48-0.413,1.24-0.604,1.266-1.321c0.03-0.825-0.074-1.219,0.556-1.779
		c1.252-1.12,2.664-2.041,3.916-3.156c3.082-2.794-1.068-5.118-3.495-6.249c-0.158-0.795-0.134-1.715-0.391-2.477
		c-0.343-1.021-1.398-2.165-1.3-3.275c0.162-1.821-2.753-4.365-4.021-5.514l-0.134-3.624L91.261,81.488L91.283,0H4.495z"/>
</g>
</svg>
