
<svg version="1.1" xmlns="http://www.w3.org/2000/svg" xmlns:xlink="http://www.w3.org/1999/xlink" viewBox="0 0 373.503 371.859">

	<a xlink:href="colorado.html">
<g id="CO_1_">
	<polygon id="CO" fill="#288585"   onmouseover="evt.target.setAttribute('fill', '#fce149');"
		 onmouseout="evt.target.setAttribute('fill', '#288585');" points="331.938,108.141 331.938,108.141 227.671,108.141 227.671,108.141 227.789,108.141
		227.671,216.986 353.072,216.986 353.072,216.986 373.503,216.986 373.503,108.141 	"/>

		<polyline id="CO_2_" fill="none" stroke="#FFFFFF" stroke-width="0.9578" stroke-miterlimit="10" stroke-dasharray="1.9155,3.8311" points="
		331.938,108.141 331.938,108.141 227.671,108.141 227.671,108.141 227.789,108.141 227.671,216.986 353.072,216.986
		353.072,216.986 	"/>
</g>
</a>


<a xlink:href="new-mexico.html">
<g id="NM">
	<path fill="#288585"  onmouseover="evt.target.setAttribute('fill', '#fce149');"
		 onmouseout="evt.target.setAttribute('fill', '#288585');"  d="M227.671,370.685h17.025l0.118-12.563l34.521,0.117c-0.234-0.469-0.705-0.821-0.705-1.408
		c-0.117-0.822-0.704-0.47-0.704-1.175c0-1.057-0.821-2.583-0.587-3.405h74.324l0.705-121.996h0.587l0,0v-13.268H227.671l0,0l0,0
		V370.685z"/>
	<path fill="#FFFFFF" d="M227.671,216.986h-1.174l0,0v2.23h1.174C227.671,219.217,227.671,217.104,227.671,216.986L227.671,216.986
		L227.671,216.986L227.671,216.986L227.671,216.986z M226.614,223.679v2.231h1.175c0,0,0-0.939,0-1.645l0,0l0,0l0,0l0,0l0,0l0,0l0,0
		l0,0l0,0l0,0l0,0l0,0l0,0l0,0l0,0l0,0l0,0l0,0l0,0l0,0l0,0l0,0v-0.469L226.614,223.679L226.614,223.679z M226.614,230.372v2.23
		h1.175c0,0,0-0.234,0-0.587l0,0l0,0l0,0l0,0l0,0l0,0l0,0l0,0l0,0l0,0l0,0l0,0l0,0l0,0l0,0l0,0l0,0l0,0l0,0l0,0v-1.644H226.614
		L226.614,230.372z M226.614,237.182v2.231h1.175v-2.231H226.614L226.614,237.182z M226.614,243.875v2.23h1.175v-2.23H226.614
		L226.614,243.875z M226.614,250.685v2.231h1.175v-1.057l0,0l0,0l0,0l0,0c0-0.587,0-1.175,0-1.175H226.614L226.614,250.685z
		 M226.614,257.378v2.23h1.175v-1.526l0,0l0,0l0,0l0,0l0,0l0,0c0-0.47,0-0.704,0-0.704H226.614L226.614,257.378z M226.614,264.188
		v2.231h1.175v-2.231H226.614L226.614,264.188z M226.614,270.881v2.23h1.175c0,0,0-1.291,0-1.996l0,0l0,0l0,0l0,0l0,0l0,0l0,0l0,0
		l0,0l0,0l0,0l0,0l0,0l0,0v-0.234H226.614L226.614,270.881z M226.614,277.69v2.231h1.175c0,0,0-0.353,0-0.822l0,0l0,0l0,0l0,0l0,0
		l0,0l0,0l0,0l0,0l0,0l0,0l0,0l0,0l0,0l0,0l0,0l0,0l0,0l0,0l0,0l0,0l0,0v-1.291h-1.175V277.69z M226.614,284.384v2.23h1.175v-2.23
		H226.614L226.614,284.384z M226.614,291.193v2.231h1.175v-2.231H226.614L226.614,291.193z M226.614,297.887v2.23h1.175v-0.939l0,0
		l0,0c0-0.587,0-1.291,0-1.291H226.614L226.614,297.887z M226.614,304.696v2.231h1.175v-1.292l0,0l0,0l0,0l0,0
		c0-0.47,0-0.939,0-0.939H226.614L226.614,304.696z M226.614,311.39v2.23h1.175v-2.23H226.614L226.614,311.39z M226.614,318.199
		v2.231h1.175v-2.231H226.614L226.614,318.199z M226.614,324.893v2.23h1.175c0,0,0-0.587,0-1.174l0,0l0,0l0,0l0,0l0,0l0,0l0,0l0,0
		l0,0l0,0l0,0l0,0v-0.939h-1.175V324.893z M226.614,331.585v2.231h1.175c0,0,0,0,0-0.118l0,0l0,0l0,0l0,0l0,0l0,0l0,0l0,0l0,0l0,0
		l0,0l0,0l0,0l0,0l0,0l0,0l0,0l0,0v-1.996h-1.175V331.585z M226.614,338.396v2.23h1.175v-2.23H226.614L226.614,338.396z
		 M226.614,345.088v2.231h1.175v-0.822l0,0l0,0c0-0.587,0-1.409,0-1.409H226.614L226.614,345.088z M226.614,351.898v2.23h1.175
		v-1.174l0,0l0,0l0,0l0,0l0,0l0,0c0-0.587,0-1.057,0-1.057H226.614L226.614,351.898z M226.614,358.591v2.231h1.175v-2.231H226.614
		L226.614,358.591z M226.614,365.401v2.23h1.175v-2.23H226.614L226.614,365.401z M229.198,370.685v1.175 M354.129,217.573
		L354.129,217.573h-1.174 M346.85,215.93v1.174h0.821c0.588,0,1.409,0,1.409,0v-1.174H346.85L346.85,215.93z M340.039,215.93v1.174
		h2.231v-1.174H340.039L340.039,215.93z M333.347,215.812v1.174c0,0,0.704,0,1.291,0l0,0l0,0h0.939v-1.174H333.347L333.347,215.812z
		 M326.536,215.812v1.174h2.231v-1.174H326.536L326.536,215.812z M319.844,215.812v1.174h1.291c0.47,0,0.939,0,0.939,0v-1.174
		H319.844L319.844,215.812z M313.033,215.812v1.174h2.231v-1.174H313.033L313.033,215.812z M306.341,215.812v1.174h2.23v-1.174
		H306.341L306.341,215.812z M299.53,215.812v1.174h0.939c0.587,0,1.409,0,1.409,0v-1.174H299.53L299.53,215.812z M292.838,215.812
		v1.174h2.23v-1.174H292.838L292.838,215.812z M286.027,215.812v1.174c0,0,0.587,0,1.292,0h1.057v-1.174H286.027L286.027,215.812z
		 M279.335,215.812v1.174h2.23v-1.174H279.335L279.335,215.812z M272.642,215.812v1.174h1.292c0.47,0,0.939,0,0.939,0v-1.174
		H272.642L272.642,215.812z M265.832,215.812v1.174h2.23v-1.174H265.832L265.832,215.812z M259.14,215.812v1.174h2.23v-1.174H259.14
		L259.14,215.812z M252.329,215.812v1.174h0.939c0.587,0,1.291,0,1.291,0v-1.174H252.329L252.329,215.812z M245.636,215.812v1.174
		h2.231v-1.174H245.636L245.636,215.812z M238.826,215.812v1.174c0,0,0.587,0,1.174,0h1.057v-1.174H238.826L238.826,215.812z
		 M232.134,215.812v1.174h2.23v-1.174H232.134L232.134,215.812z"/>
</g>
</a>

<a xlink:href="wyoming.html">
<g id="WY_1_">
	<polygon id="WY" fill="#288585"   onmouseover="evt.target.setAttribute('fill', '#fce149');"
		 onmouseout="evt.target.setAttribute('fill', '#288585');" points="331.938,0 186.224,0 186.106,13.855 186.106,13.855 186.106,81.018 186.106,81.018
		186.224,108.023 227.671,108.141 227.671,108.141 331.938,108.141 	"/>

		<polyline id="WY_2_" fill="none" stroke="#FFFFFF" stroke-width="0.9578" stroke-miterlimit="10" stroke-dasharray="1.9155,3.8311" points="
		186.106,81.018 186.106,81.018 186.224,108.023 227.671,108.141 227.671,108.141 331.938,108.141 	"/>
</g>
</a>


<a xlink:href="utah.html">
<g id="UT">
	<polyline id="UT_3_" fill="#288585"  onmouseover="evt.target.setAttribute('fill', '#fce149');"
		 onmouseout="evt.target.setAttribute('fill', '#288585');"  points="123.405,81.135 123.405,81.135 123.405,81.135 123.522,216.986 227.671,216.986
		227.789,108.141 186.224,108.023 186.106,81.018"/>

		<polyline id="UT_2_" fill="none" stroke="#FFFFFF" stroke-width="0.9578" stroke-miterlimit="10" stroke-dasharray="1.9155,3.8311" points="
		123.405,81.135 123.405,81.135 123.405,81.135 123.522,216.986 227.671,216.986 227.789,108.141 186.224,108.023 186.106,81.018"/>
</g>
</a>


<a xlink:href="arizona.html">
<g id="AZ">
	<path fill="#288585"   onmouseover="evt.target.setAttribute('fill', '#fce149');"
		 onmouseout="evt.target.setAttribute('fill', '#288585');" d="M109.55,333.229L109.55,333.229c-0.117,0.47-0.352,1.058-0.587,1.526c-0.117,0.47-0.705,0.47-0.822,0.939
		c-0.235,1.175,0.352,2.701,0.352,3.875c2.818-0.234,6.576,1.996,9.159,3.053c5.401,2.231,10.802,4.462,16.204,6.693
		c13.268,5.4,26.536,10.802,39.687,16.203c4.227,1.761,8.337,3.405,12.564,5.166h41.564V216.986H123.405v21.487
		c-0.47,1.174-1.644,1.996-1.644,3.17c0,1.175,0,1.292-1.174,1.409c-1.057,0.117-1.409,0-2.114-0.939
		c-0.822-1.291-0.705-2.583-2.466-1.879c-0.822,0.353-1.409,0-1.761-0.821c-0.117-0.47-1.409,0.117-1.644,0.234
		c-0.939,0.353-2.114,0.587-2.583,1.526c-0.939,2.113-0.822,3.641,0.47,5.401c0.47,0.704-0.235,1.174-0.235,1.762
		c0,0.704,0,1.408,0.118,2.113c0.117,1.057,0.587,1.996,1.057,3.053c-1.057,3.405,0.352,6.575,0.822,9.98
		c0.705,0.353,1.057,2.7,0.47,3.17c-0.822,0.47-1.644,0.47-0.939,1.645c0.353,0.587,0,1.644-0.469,2.113l0.234,0.234l0.118,3.641
		c1.292,1.174,4.227,3.64,3.992,5.519c-0.118,0.938,0.705,1.996,1.057,2.817c0.47,0.939,0.352,1.996,0.587,2.936
		c2.465,1.174,6.575,3.405,3.522,6.224c-1.174,1.057-2.466,1.878-3.64,2.935c-0.587,0.47-0.822,0.705-0.822,1.526
		c0,1.175-0.47,1.175-1.292,1.762c-1.409,1.292-0.939,2.466-0.587,4.109c0.47,1.879,1.057,3.053-0.47,4.345
		c-1.174,0.939-0.47,2.7-0.822,3.992c-0.117,0.704-1.174,1.057-1.174,1.761c0,0.588-0.822,1.175-1.174,1.645
		c-1.526-0.705-0.118,1.408-0.822,1.644c-1.057,0.47,0.587,1.644,1.057,1.996c-0.822,0.822,0.352,1.409,0,2.349
		c-0.587,1.174-1.292,2.113-0.353,3.404c0.587,0.939,1.996,1.058,2.936,0.939c0.822,0,0.587,1.292,1.292,1.762
		c0.235,0.117,0,2.23,0,2.583c-0.117,1.057-1.057,1.409-1.174,2.349C113.542,333.347,110.724,332.055,109.55,333.229z"/>
	<path fill="#FFFFFF" d="M227.671,215.812h-2.23v1.174h2.23l0,0l0,0v2.23h1.175v-2.23h-1.175l0,0V215.812L227.671,215.812z
		 M220.979,215.812h-2.231v1.174h2.231V215.812L220.979,215.812z M214.169,215.812h-2.231v1.174c0,0,0.587,0,1.175,0h1.057V215.812
		L214.169,215.812z M207.476,215.812h-2.23v1.174h2.23V215.812L207.476,215.812z M200.665,215.812h-2.23v1.174h2.23V215.812
		L200.665,215.812z M193.973,215.812h-2.231v1.174h2.231V215.812L193.973,215.812z M187.28,215.812h-2.23v1.174h2.23V215.812
		L187.28,215.812z M180.47,215.812h-2.231v1.174h2.231V215.812L180.47,215.812z M173.777,215.812h-2.231v1.174h2.231V215.812
		L173.777,215.812z M166.967,215.812h-2.231v1.174h2.231V215.812L166.967,215.812z M160.274,215.812h-2.231v1.174h2.231V215.812
		L160.274,215.812z M153.464,215.812h-2.231v1.174c0,0,0.587,0,1.057,0h1.174V215.812L153.464,215.812z M146.771,215.93h-2.231
		v1.174h2.231V215.93L146.771,215.93z M139.961,215.93h-2.231v1.174h0.353c0.587,0,1.996,0,1.996,0v-1.174H139.961z M133.268,215.93
		h-2.231v1.174h2.231V215.93L133.268,215.93z M126.458,215.93h-2.231v1.174h2.231V215.93L126.458,215.93z M123.522,220.743h-1.174
		v2.231h1.174V220.743L123.522,220.743z M123.522,227.437h-1.174v2.23h1.174v-1.644l0,0l0,0l0,0l0,0l0,0l0,0l0,0l0,0l0,0l0,0
		C123.522,227.671,123.522,227.437,123.522,227.437L123.522,227.437z M123.522,234.246h-1.174v2.231h1.174V234.246L123.522,234.246z
		 M121.174,240c-0.352,0.587-0.47,1.057-0.47,1.644v0.235c0,0.117,0,0.352,0,0.47l0,0l0,0l0,0l0.353,0.117l0.704,0.353V242.7l0,0
		c0-0.117,0-0.117,0-0.234l0,0l0,0l0,0l0,0l0,0l0,0c0-0.117,0-0.353,0-0.587l0,0l0,0l0,0l0,0l0,0l0,0l0,0l0,0l0,0l0,0l0,0l0,0l0,0
		l0,0l0,0l0,0l0,0l0,0l0,0l0,0l0,0l0,0l0,0l0,0l0,0l0,0l0,0l0,0l0,0l0,0l0,0l0,0l0,0l0,0l0,0l0,0l0,0l0,0l0,0l0,0l0,0l0,0l0,0l0,0
		l0,0l0,0l0,0l0,0l0,0l0,0l0,0l0,0l0,0l0,0l0,0l0,0l0,0l0,0l0,0l0,0l0,0l0,0l0,0l0,0l0,0l0,0l0,0l0,0l0,0l0,0l0,0l0,0l0,0l0,0l0,0
		l0,0l0,0l0,0l0,0l0,0l0,0l0,0l0,0l0,0l0,0l0,0l0,0l0,0l0,0l0,0l0,0l0,0l0,0l0,0l0,0l0,0l0,0l0,0l0,0l0,0l0,0l0,0l0,0l0,0l0,0l0,0
		l0,0l0,0l0,0l0,0l0,0l0,0l0,0l0,0l0,0l0,0l0,0l0,0l0,0l0,0l0,0l0,0l0,0l0,0l0,0l0,0l0,0l0,0l0,0c0-0.235,0.118-0.587,0.353-0.822
		L121.174,240L121.174,240z M116.947,239.061c-0.117,0-0.352,0-0.47,0l0.235,1.057l0,0l0,0l0,0l0,0l0,0l0,0l0,0l0,0l0,0l0,0l0,0l0,0
		l0,0l0,0l0,0l0,0l0,0l0,0l0,0l0,0l0,0l0,0l0,0l0,0l0,0l0,0l0,0l0,0l0,0l0,0l0,0l0,0l0,0l0,0l0,0l0,0l0,0l0,0l0,0l0,0l0,0l0,0l0,0
		l0,0l0,0l0,0l0,0l0,0l0,0l0,0l0,0l0,0l0,0l0,0l0,0l0,0l0,0l0,0l0,0l0,0l0,0l0,0l0,0l0,0l0,0l0,0l0,0l0,0l0,0l0,0l0,0l0,0l0,0l0,0
		l0,0l0,0l0,0l0,0l0,0l0,0l0,0l0,0l0,0l0,0l0,0l0,0l0,0l0,0l0,0l0,0l0,0l0,0l0,0l0,0l0,0l0,0l0,0l0,0l0,0l0,0l0,0l0,0l0,0l0,0l0,0
		l0,0l0,0l0,0l0,0l0,0l0,0l0,0l0,0l0,0l0,0l0,0l0,0l0,0l0,0l0,0l0,0l0,0l0,0l0,0l0,0l0,0l0,0l0,0l0,0l0,0l0,0l0,0l0,0l0,0l0,0l0,0
		l0,0l0,0l0,0l0,0l0,0l0,0l0,0l0,0l0,0l0,0l0,0l0,0l0,0l0,0l0,0l0,0l0,0l0,0l0,0l0,0l0,0l0,0l0,0l0,0l0,0l0,0l0,0l0,0l0,0l0,0l0,0
		l0,0l0,0l0,0l0,0l0,0l0,0l0,0l0,0l0,0l0,0l0,0l0,0l0,0l0,0l0,0l0,0l0,0l0,0l0,0l0,0l0,0l0,0l0,0l0,0l0,0l0,0l0,0l0,0l0,0l0,0l0,0
		l0,0l0,0l0,0l0,0l0,0l0,0l0,0l0,0l0,0l0,0l0,0l0,0l0,0l0,0l0,0l0,0l0,0l0,0l0,0l0,0l0,0l0,0l0,0l0,0l0,0l0,0l0,0l0,0l0,0l0,0l0,0
		l0,0l0,0l0,0l0,0l0,0l0,0l0,0l0,0l0,0l0,0l0,0l0,0l0,0l0,0l0,0l0,0l0,0l0,0l0,0l0,0l0,0l0,0l0,0l0,0l0,0l0,0l0,0l0,0l0,0l0,0l0,0
		l0,0l0,0l0,0l0,0l0,0l0,0l0,0l0,0l0,0l0,0l0,0l0,0l0,0l0,0l0,0l0,0l0,0l0,0l0,0l0,0l0,0l0,0l0,0l0,0l0,0l0,0l0,0l0,0l0,0l0,0l0,0
		l0,0l0,0l0,0l0,0l0,0l0,0l0,0l0,0l0,0l0,0l0,0l0,0l0,0l0,0l0,0l0,0l0,0l0,0l0,0l0,0l0,0l0,0l0,0l0,0l0,0l0,0l0,0l0,0l0,0l0,0l0,0
		l0,0l0,0l0,0l0,0l0,0l0,0l0,0l0,0l0,0l0,0l0,0l0,0l0,0l0,0l0,0l0,0l0,0l0,0l0,0l0,0l0,0l0,0l0,0l0,0l0,0l0,0l0,0l0,0l0,0l0,0l0,0
		l0,0l0,0l0,0l0,0l0,0l0,0l0,0l0,0l0,0l0,0l0,0l0,0l0,0l0,0l0,0l0,0l0,0l0,0l0,0l0,0l0,0l0,0l0,0l0,0l0,0l0,0l0,0l0,0l0,0l0,0l0,0
		c0.353,0.235,0.47,0.587,0.705,1.057c0,0.118,0,0.118,0.117,0.235l0,0l1.057-0.47l-0.118-0.235
		C118.826,240.234,118.356,239.061,116.947,239.061L116.947,239.061z M112.368,238.708L112.368,238.708L112.368,238.708h-0.118
		c-0.117,0-0.352,0.118-0.47,0.118c-0.587,0.234-1.174,0.352-1.761,0.821l0.587,0.939c0.235-0.117,0.587-0.353,0.822-0.47l0,0l0,0
		l0,0l0,0l0,0l0,0l0,0l0,0l0,0l0,0l0,0l0,0l0,0l0,0l0,0l0,0l0,0l0,0l0,0l0,0c0.235-0.117,0.352-0.117,0.587-0.234c0,0,0,0,0.118,0
		c0.117,0,0.235-0.117,0.352-0.117l0,0l0,0l0,0l0,0l0,0l0,0l0,0l0,0l0,0c0,0,0,0,0.118,0l0,0l0,0L112.368,238.708L112.368,238.708z
		 M109.55,244.696l-1.057,0.235c0.235,0.822,0.587,1.526,1.174,2.349l0.939-0.705c-0.118-0.234-0.235-0.353-0.353-0.587l0,0l0,0l0,0
		l0,0l0,0l0,0l0,0l0,0l0,0l0,0l0,0l0,0l0,0l0,0l0,0l0,0l0,0l0,0l0,0l0,0l0,0l0,0l0,0l0,0l0,0l0,0l0,0l0,0l0,0l0,0
		C109.785,245.519,109.667,245.049,109.55,244.696L109.55,244.696z M110.489,251.037l-1.057,0.235
		c0.117,0.821,0.47,1.526,0.705,2.113l0.117,0.234l1.057-0.47c0,0,0-0.117-0.118-0.117c-0.117-0.353-0.235-0.704-0.352-1.057l0,0
		l0,0l0,0l0,0l0,0l0,0l0,0l0,0l0,0l0,0l0,0l0,0l0,0l0,0l0,0l0,0l0,0l0,0l0,0l0,0l0,0l0,0l0,0l0,0l0,0l0,0l0,0
		C110.607,251.507,110.607,251.272,110.489,251.037L110.489,251.037z M111.194,257.612l-1.174,0.117
		c0.118,0.822,0.235,1.645,0.353,2.349l1.057-0.234c0-0.235-0.117-0.353-0.117-0.588l0,0l0,0l0,0l0,0l0,0l0,0l0,0l0,0l0,0l0,0l0,0
		l0,0l0,0l0,0l0,0l0,0l0,0l0,0l0,0l0,0l0,0l0,0l0,0l0,0l0,0l0,0l0,0l0,0l0,0l0,0l0,0l0,0l0,0l0,0l0,0l0,0l0,0l0,0l0,0l0,0l0,0l0,0
		l0,0l0,0l0,0l0,0l0,0C111.312,258.435,111.194,257.965,111.194,257.612L111.194,257.612z M112.72,264.07l-0.939,0.587
		c0.235,0.353,0.353,1.057,0.235,1.409l1.057,0.235c0-0.235,0-0.588,0-0.939l0,0l0,0l0,0l0,0l0,0l0,0l0,0l0,0l0,0l0,0l0,0l0,0l0,0
		l0,0l0,0l0,0l0,0l0,0l0,0l0,0l0,0l0,0l0,0l0,0l0,0l0,0l0,0l0,0l0,0l0,0l0,0l0,0l0,0l0,0l0,0l0,0
		C113.073,264.775,112.955,264.423,112.72,264.07L112.72,264.07z M110.724,269.472c-0.117,0.117-0.117,0.353-0.235,0.353
		l-0.705,0.821l0.705,0.587v0.705h1.174c0,0,0-0.939,0-1.057l0,0l0,0l0,0l0,0l0,0l0,0l0,0l0,0l0,0l0,0l0,0l0,0l0,0l0,0l0,0l0,0l0,0
		l0,0l0,0l0,0l0,0l0,0l0,0l0,0l0,0l0,0l0,0l0,0l0,0l0,0l0,0l0,0l0,0l0,0l0,0l0,0l0,0l0,0l0,0l0,0l0,0l0,0l0,0l0,0l0,0l0,0l0,0l0,0
		l0,0l0,0l0,0l0,0l0,0l0,0l0,0l0,0l0,0l0,0l0,0l0,0l0,0l0,0l0,0l0,0l0,0l0,0l0,0l0,0l0,0l0,0l0,0l0,0l0,0l0,0l0,0l0,0l0,0l0,0l0,0
		l0,0l0,0l0,0l0,0l0,0l0,0l0,0l0,0l0,0l0,0l0,0l0,0l0,0l0,0l0,0l0,0l0,0l0,0c0,0,0.117-0.117,0.117-0.235l0,0l0,0l0,0l0,0l0,0l0,0
		l0,0l0,0l0,0l0,0l0,0l0,0l0,0l0,0l0,0l0,0l0,0l0,0l0,0l0,0l0,0l0,0l0,0l0,0l0,0l0,0l0,0l0,0l0,0l0,0l0,0l0,0l0,0l0,0l0,0l0,0
		c0.118-0.117,0.118-0.234,0.235-0.352L110.724,269.472L110.724,269.472z M113.073,275.812l-0.822,0.821
		c0.587,0.587,1.057,1.057,1.409,1.526l0.939-0.704c-0.118-0.117-0.235-0.235-0.235-0.353l0,0l0,0l0,0l0,0l0,0l0,0l0,0l0,0l0,0l0,0
		l0,0l0,0l0,0l0,0l0,0l0,0l0,0l0,0l0,0l0,0l0,0l0,0C113.895,276.517,113.542,276.164,113.073,275.812L113.073,275.812z
		 M116.125,281.565l-0.939,0.47c0.118,0.117,0.235,0.353,0.235,0.47c0.117,0.234,0.235,0.47,0.352,0.587
		c0.118,0.235,0.118,0.353,0.235,0.705l1.057-0.235c0-0.117-0.117-0.353-0.117-0.47l0,0l0,0l0,0l0,0l0,0l0,0l0,0l0,0l0,0l0,0l0,0
		l0,0l0,0l0,0l0,0l0,0l0,0l0,0l0,0l0,0l0,0l0,0l0,0l0,0l0,0l0,0l0,0l0,0l0,0l0,0l0,0l0,0l0,0l0,0l0,0l0,0l0,0l0,0l0,0l0,0l0,0l0,0
		l0,0l0,0l0,0l0,0l0,0l0,0l0,0l0,0l0,0l0,0l0,0l0,0l0,0l0,0l0,0l0,0l0,0l0,0l0,0l0,0l0,0l0,0l0,0l0,0l0,0l0,0l0,0l0,0l0,0l0,0l0,0
		l0,0l0,0l0,0l0,0l0,0l0,0l0,0l0,0l0,0l0,0l0,0l0,0l0,0l0,0l0,0l0,0l0,0l0,0l0,0l0,0l0,0l0,0l0,0l0,0l0,0l0,0l0,0l0,0l0,0l0,0l0,0
		l0,0l0,0l0,0l0,0l0,0l0,0l0,0l0,0l0,0l0,0C116.595,282.388,116.36,282.035,116.125,281.565L116.125,281.565L116.125,281.565
		L116.125,281.565L116.125,281.565L116.125,281.565L116.125,281.565z M119.53,286.85l-0.587,0.939
		c0.705,0.352,1.174,0.821,1.526,1.174l0.822-0.705C120.822,287.671,120.118,287.201,119.53,286.85L119.53,286.85z M120,291.312
		c-0.587,0.47-1.174,0.938-1.761,1.408l0.705,0.939c0.587-0.47,1.174-0.939,1.761-1.409L120,291.312L120,291.312z M115.304,296.712
		L115.304,296.712c0,0-0.118,0.118-0.235,0.235c-0.235,0.117-0.353,0.234-0.587,0.47c-0.117,0.117-0.235,0.234-0.352,0.353
		l0.822,0.821l0.118-0.117l0,0l0,0c0,0,0.117,0,0.117-0.117l0,0l0,0l0,0c0.118-0.118,0.118-0.118,0.235-0.118l0,0l0,0l0,0l0,0l0,0
		l0,0l0,0l0,0l0,0l0,0l0,0l0,0l0,0l0,0c0.117-0.117,0.235-0.117,0.235-0.234c0.235-0.117,0.352-0.235,0.705-0.704
		c0,0,0-0.118,0-0.235l0,0l0,0l0,0l0,0l0,0l0,0l0,0l0,0l0,0l0,0l0,0l0,0l0,0L115.304,296.712L115.304,296.712z M114.716,302.7
		l-1.057,0.235l0.118,0.47c0.117,0.587,0.234,1.057,0.234,1.409h1.174c0-0.235,0-0.588-0.117-0.822l0,0l0,0l0,0l0,0l0,0l0,0l0,0l0,0
		l0,0l0,0l0,0l0,0l0,0l0,0l0,0l0,0l0,0l0,0l0,0l0,0l0,0l0,0c0-0.235-0.118-0.587-0.235-0.822
		C114.716,302.936,114.716,302.818,114.716,302.7L114.716,302.7z M113.308,308.807h-1.174v0.352c0,0.47,0,0.939-0.118,1.175l0,0l0,0
		l0,0h0.235l0.705,0.47l0,0l0,0l0,0l0,0l0,0c0,0,0-0.118,0.118-0.118l0,0l0,0l0,0l0,0l0,0l0,0l0,0l0,0l0,0l0,0l0,0l0,0l0,0l0,0l0,0
		l0,0l0,0l0,0l0,0l0,0l0,0l0,0l0,0l0,0l0,0l0,0l0,0l0,0l0,0l0,0l0,0l0,0l0,0l0,0l0,0l0,0l0,0l0,0l0,0l0,0l0,0l0,0l0,0l0,0l0,0l0,0
		l0,0l0,0l0,0l0,0l0,0l0,0l0,0l0,0l0,0l0,0l0,0l0,0l0,0l0,0l0,0l0,0l0,0l0,0l0,0l0,0l0,0l0,0l0,0l0,0l0,0l0,0l0,0l0,0l0,0l0,0l0,0
		l0,0l0,0l0,0l0,0l0,0l0,0l0,0l0,0l0,0l0,0l0,0l0,0l0,0l0,0l0,0l0,0l0,0l0,0l0,0l0,0l0,0l0,0l0,0l0,0l0,0l0,0l0,0l0,0l0,0l0,0l0,0
		l0,0l0,0l0,0l0,0l0,0l0,0l0,0l0,0l0,0l0,0l0,0l0,0l0,0l0,0l0,0l0,0l0,0l0,0l0,0l0,0l0,0l0,0l0,0l0,0l0,0l0,0l0,0l0,0l0,0l0,0l0,0
		l0,0l0,0l0,0l0,0l0,0l0,0l0,0l0,0l0,0l0,0l0,0l0,0l0,0l0,0l0,0l0,0l0,0l0,0l0,0l0,0l0,0l0,0l0,0l0,0l0,0l0,0l0,0l0,0l0,0l0,0l0,0
		l0,0l0,0l0,0l0,0l0,0l0,0l0,0l0,0l0,0l0,0l0,0l0,0l0,0l0,0l0,0l0,0l0,0l0,0l0,0l0,0l0,0l0,0l0,0l0,0l0,0l0,0l0,0l0,0l0,0l0,0l0,0
		l0,0l0,0l0,0l0,0l0,0l0,0l0,0l0,0l0,0l0,0l0,0l0,0l0,0l0,0l0,0l0,0l0,0l0,0l0,0l0,0l0,0l0,0c0-0.117,0-0.352,0-0.47l0,0l0,0l0,0
		l0,0l0,0l0,0l0,0l0,0l0,0l0,0l0,0l0,0l0,0l0,0l0,0l0,0l0,0l0,0l0,0l0,0l0,0l0,0l0,0l0,0l0,0l0,0
		C113.308,309.394,113.308,309.158,113.308,308.807L113.308,308.807C113.308,308.924,113.308,308.807,113.308,308.807
		L113.308,308.807L113.308,308.807z M109.433,313.15c-0.587,0.587-0.47,1.292-0.352,1.762v0.117
		c-0.118,0.117-0.235,0.234-0.235,0.353l0.939,0.587c0-0.117,0.117-0.117,0.234-0.235l0,0l0,0l0,0l0,0l0,0l0,0l0,0l0,0l0,0l0,0l0,0
		l0,0l0,0l0,0l0,0l0,0l0,0l0,0l0,0l0,0l0,0l0,0l0,0l0,0l0,0l0,0l0,0l0,0l0,0l0,0l0,0l0,0l0,0l0,0l0,0l0,0l0,0l0,0l0,0l0,0l0,0l0,0
		l0,0l0,0l0,0l0,0l0,0l0,0l0,0l0,0l0,0c0.118-0.117,0.235-0.234,0.235-0.47l0,0c0-0.117,0-0.234,0-0.352l0,0l0,0l0,0l0,0l0,0l0,0
		l0,0l0,0c0-0.117-0.117-0.353-0.117-0.47l0,0l0,0l0,0l0,0l0,0l0,0l0,0l0,0l0,0l0,0l0,0l0,0l0,0l0,0l0,0l0,0l0,0l0,0l0,0l0,0l0,0
		l0,0l0,0l0,0l0,0l0,0l0,0l0,0c0-0.117,0-0.353,0.117-0.353L109.433,313.15L109.433,313.15z M110.137,319.726l0.939,0.353v-0.117
		l0,0l0,0l0,0l0,0l0,0l0,0l0,0l0,0l0,0l0,0l0,0l0,0l0,0l0,0c0-0.117,0-0.117,0-0.235H110.137L110.137,319.726z M110.02,319.608
		c-0.117,0.117-0.117,0.353-0.234,0.47c-0.235,0.47-0.47,0.939-0.587,1.409l1.057,0.234c0-0.117,0-0.117,0.118-0.234l0,0l0,0l0,0
		l0,0l0,0l0,0l0,0l0,0l0,0l0,0l0,0l0,0l0,0l0,0l0,0l0,0l0,0l0,0l0,0l0,0l0,0l0,0l0,0l0,0l0,0l0,0l0,0l0,0l0,0l0,0l0,0l0,0l0,0l0,0
		l0,0l0,0l0,0l0,0c0.117-0.235,0.117-0.353,0.235-0.587l0,0l0,0l0,0l0,0c0-0.117,0.117-0.235,0.117-0.235
		c0.118-0.117,0.118-0.352,0.235-0.587l-0.939-0.353l0,0V319.608L110.02,319.608L110.02,319.608z M113.66,324.54v0.587l0,0V324.54
		L113.66,324.54c-0.235,0-0.352,0-0.587,0l0,0l0,0l0,0l0,0l0,0l0,0v1.174h0.117h0.118l0,0c0.117,0.235,0.117,0.353,0.234,0.588
		l1.057-0.47l0,0l0,0l0,0l0,0l0,0l0,0l0,0l0,0l0,0l0,0l0,0l0,0l0,0l0,0l0,0l0,0l0,0l0,0l0,0l0,0l0,0l0,0l0,0l0,0l0,0l0,0l0,0l0,0
		l0,0l0,0l0,0l0,0l0,0l0,0l0,0l0,0l0,0l0,0l0,0l0,0l0,0l0,0l0,0l0,0l0,0l0,0l0,0l0,0l0,0l0,0l0,0l0,0l0,0l0,0l0,0l0,0l0,0l0,0l0,0
		l0,0l0,0l0,0l0,0l0,0l0,0l0,0l0,0l0,0l0,0l0,0l0,0l0,0l0,0l0,0l0,0l0,0l0,0l0,0l0,0l0,0c0-0.118-0.118-0.235-0.118-0.353
		c-0.117-0.235-0.117-0.353-0.235-0.47l0,0c-0.117-0.117-0.117-0.234-0.352-0.234l0,0l0,0l0,0l0,0l0,0l0,0l0,0l0,0l0,0l0,0l0,0l0,0
		l0,0l0,0l0,0l0,0l0,0l0,0l0,0l0,0l0,0l0,0l0,0l0,0l0,0C113.777,324.54,113.777,324.54,113.66,324.54L113.66,324.54
		C113.777,324.54,113.777,324.54,113.66,324.54L113.66,324.54C113.777,324.54,113.777,324.54,113.66,324.54L113.66,324.54
		C113.777,324.54,113.777,324.54,113.66,324.54L113.66,324.54C113.777,324.54,113.777,324.54,113.66,324.54L113.66,324.54
		C113.777,324.54,113.777,324.54,113.66,324.54L113.66,324.54C113.777,324.54,113.777,324.54,113.66,324.54L113.66,324.54
		C113.777,324.54,113.777,324.54,113.66,324.54L113.66,324.54C113.777,324.54,113.777,324.54,113.66,324.54L113.66,324.54
		C113.777,324.54,113.777,324.54,113.66,324.54L113.66,324.54C113.777,324.54,113.777,324.54,113.66,324.54L113.66,324.54
		C113.777,324.54,113.777,324.54,113.66,324.54L113.66,324.54L113.66,324.54L113.66,324.54L113.66,324.54L113.66,324.54
		L113.66,324.54L113.66,324.54L113.66,324.54L113.66,324.54L113.66,324.54L113.66,324.54L113.66,324.54L113.66,324.54L113.66,324.54
		L113.66,324.54L113.66,324.54L113.66,324.54L113.66,324.54L113.66,324.54L113.66,324.54L113.66,324.54L113.66,324.54L113.66,324.54
		L113.66,324.54L113.66,324.54L113.66,324.54L113.66,324.54L113.66,324.54L113.66,324.54L113.66,324.54L113.66,324.54L113.66,324.54
		L113.66,324.54L113.66,324.54L113.66,324.54L113.66,324.54L113.66,324.54L113.66,324.54L113.66,324.54L113.66,324.54L113.66,324.54
		L113.66,324.54L113.66,324.54L113.66,324.54L113.66,324.54L113.66,324.54L113.66,324.54L113.66,324.54L113.66,324.54L113.66,324.54
		L113.66,324.54L113.66,324.54L113.66,324.54L113.66,324.54L113.66,324.54L113.66,324.54L113.66,324.54L113.66,324.54L113.66,324.54
		L113.66,324.54z M113.425,329.354L113.425,329.354c-0.352,0.47-0.705,0.939-0.822,1.761c0,0.117,0,0.235-0.118,0.235l0.822,0.704
		l0,0l0,0l0,0l0,0l0,0l0,0l0,0l0,0l0,0l0,0l0,0l0,0l0,0l0,0l0,0l0,0l0,0l0,0l0,0l0,0l0,0l0,0l0,0l0,0l0,0l0,0l0,0l0,0l0,0l0,0l0,0
		l0,0l0,0l0,0c0.117-0.117,0.234-0.353,0.234-0.704l0,0l0,0l0,0l0,0l0,0l0,0l0,0l0,0l0,0l0,0l0,0l0,0l0,0l0,0l0,0l0,0l0,0l0,0l0,0
		l0,0l0,0l0,0l0,0l0,0l0,0l0,0l0,0l0,0l0,0l0,0l0,0l0,0l0,0l0,0l0,0l0,0l0,0l0,0l0,0l0,0l0,0l0,0l0,0l0,0l0,0l0,0l0,0l0,0l0,0l0,0
		l0,0l0,0l0,0l0,0l0,0l0,0l0,0l0,0c0-0.235,0.118-0.47,0.235-0.705l0,0l0,0l0,0l0,0l0,0l0,0l0,0l0,0l0,0l0,0l0,0l0,0l0,0l0,0l0,0
		l0,0l0,0l0,0l0,0l0,0l0,0l0,0l0,0l0,0l0,0l0,0c0.118-0.117,0.118-0.234,0.235-0.352c0,0,0,0,0.118-0.118L113.425,329.354
		L113.425,329.354z M108.493,332.877c-0.235,0.47-0.47,0.821-0.587,1.409l0,0c-0.118,0-0.118,0.117-0.235,0.117l0.705,0.821l0,0l0,0
		l0,0l0,0l0,0c0,0,0.117,0,0.117-0.117c0.118,0,0.118-0.117,0.235-0.117l0,0c0.118-0.117,0.118-0.117,0.235-0.234l0,0l0,0l0,0l0,0
		l0,0l0,0l0,0l0,0l0,0l0,0l0,0l0,0l0,0l0,0l0,0l0,0l0,0l0,0l0,0l0,0l0,0l0,0l0,0l0,0c0-0.118,0.118-0.235,0.118-0.353l0,0l0,0l0,0
		l0,0l0,0l0,0l0,0l0,0l0,0l0,0l0,0l0,0l0,0l0,0l0,0l0,0l0,0l0,0l0,0l0,0l0,0l0,0l0,0l0,0l0,0l0,0l0,0l0,0l0,0l0,0l0,0l0,0l0,0l0,0
		l0,0l0,0c0.117-0.235,0.235-0.47,0.352-0.587L108.493,332.877L108.493,332.877z M108.963,339.569L108.963,339.569L108.963,339.569
		L108.963,339.569L108.963,339.569L108.963,339.569L108.963,339.569c-0.117,0-0.235,0-0.235,0l0.118,1.174c0.117,0,0.117,0,0.235,0
		c0.469,0,1.057,0.118,1.644,0.235l0.235-1.057c-0.587-0.117-1.057-0.235-1.644-0.235l0,0l0,0l0,0l0,0l0,0l0,0l0,0l0,0l0,0l0,0l0,0
		l0,0l0,0l0,0l0,0l0,0l0,0l0,0l0,0l0,0l0,0l0,0l0,0l0,0l0,0l0,0l0,0l0,0l0,0l0,0l0,0l0,0l0,0l0,0l0,0l0,0l0,0l0,0l0,0l0,0l0,0l0,0
		l0,0l0,0C109.315,339.687,109.081,339.569,108.963,339.569C109.081,339.569,109.081,339.569,108.963,339.569
		C109.081,339.569,109.081,339.569,108.963,339.569C109.081,339.569,109.081,339.569,108.963,339.569
		C109.081,339.569,109.081,339.569,108.963,339.569C109.081,339.569,109.081,339.569,108.963,339.569
		C109.081,339.569,109.081,339.569,108.963,339.569C109.081,339.569,109.081,339.569,108.963,339.569
		C109.081,339.569,109.081,339.569,108.963,339.569C109.081,339.569,109.081,339.569,108.963,339.569
		C109.081,339.569,109.081,339.569,108.963,339.569L108.963,339.569L108.963,339.569L108.963,339.569L108.963,339.569
		L108.963,339.569L108.963,339.569L108.963,339.569L108.963,339.569L108.963,339.569L108.963,339.569L108.963,339.569
		L108.963,339.569L108.963,339.569L108.963,339.569L108.963,339.569L108.963,339.569L108.963,339.569L108.963,339.569
		L108.963,339.569z M115.069,341.448l-0.47,1.057l0.587,0.234c0.47,0.235,1.057,0.47,1.526,0.705l0.47-1.057
		c-0.352-0.235-0.822-0.353-1.292-0.587c-0.118,0-0.235-0.118-0.235-0.118C115.421,341.565,115.304,341.565,115.069,341.448
		L115.069,341.448z M121.292,344.148l-0.47,1.057l2.113,0.822l0.47-1.057C122.701,344.735,121.996,344.384,121.292,344.148
		L121.292,344.148z M127.515,346.731l-0.47,1.058l2.114,0.821l0.47-1.057C128.924,347.201,128.219,346.967,127.515,346.731
		L127.515,346.731z M133.738,349.197l-0.47,1.057l0.118,0.118l1.878,0.821l0.47-1.057c-0.705-0.234-1.292-0.587-1.878-0.821
		C133.855,349.315,133.855,349.315,133.738,349.197L133.738,349.197L133.738,349.197z M139.961,351.781l-0.47,1.057l2.114,0.821
		l0.47-1.057c-0.235-0.117-0.47-0.234-0.705-0.234h-0.118c-0.117-0.118-0.352-0.118-0.47-0.235c-0.117,0-0.117,0-0.235-0.117
		c-0.117,0-0.117-0.117-0.234-0.117C140.313,351.898,140.196,351.898,139.961,351.781L139.961,351.781z M146.302,354.364
		l-0.47,1.057l2.113,0.821l0.47-1.057c-0.235-0.117-0.47-0.234-0.705-0.352c-0.235-0.118-0.47-0.235-0.705-0.235
		C146.654,354.481,146.419,354.481,146.302,354.364L146.302,354.364z M152.524,356.947l-0.469,1.057l2.113,0.822l0.47-1.057
		C153.934,357.417,153.229,357.182,152.524,356.947L152.524,356.947z M158.748,359.413l-0.47,1.057l2.114,0.822l0.47-1.058
		C160.157,360,159.452,359.766,158.748,359.413L158.748,359.413z M164.971,361.996l-0.47,1.057l2.114,0.822l0.47-1.057
		C166.38,362.583,165.675,362.23,164.971,361.996L164.971,361.996z M171.194,364.579l-0.47,1.057l2.114,0.822l0.47-1.057
		c-0.235-0.117-0.47-0.235-0.705-0.235C172.25,364.932,171.664,364.696,171.194,364.579L171.194,364.579z M226.263,371.859v-1.175
		l0,0 M227.671,365.284v2.23h1.175v-2.23H227.671L227.671,365.284z M227.671,358.591v0.939l0,0l0,0c0,0.587,0,1.292,0,1.292h1.175
		v-2.231H227.671L227.671,358.591z M227.671,351.898v1.291l0,0l0,0l0,0l0,0l0,0l0,0c0,0.47,0,0.939,0,0.939h1.175v-2.23H227.671
		L227.671,351.898z M227.671,345.088v2.231h1.175v-2.231H227.671L227.671,345.088z M227.671,338.396v2.23h1.175v-2.23H227.671
		L227.671,338.396z M227.671,331.585c0,0,0,0.705,0,1.292l0,0l0,0l0,0l0,0l0,0l0,0l0,0l0,0v0.939h1.175v-2.231H227.671
		L227.671,331.585z M227.671,324.893c0,0,0,0,0,0.117l0,0l0,0l0,0l0,0l0,0l0,0l0,0l0,0l0,0l0,0l0,0l0,0l0,0l0,0l0,0l0,0l0,0l0,0l0,0
		l0,0v1.996h1.175v-2.23h-1.175V324.893z M227.671,318.082v2.231h1.175v-2.231H227.671L227.671,318.082z M227.671,311.39v0.704l0,0
		l0,0l0,0l0,0l0,0l0,0c0,0.705,0,1.526,0,1.526h1.175v-2.23H227.671L227.671,311.39z M227.671,304.579v1.174l0,0l0,0l0,0l0,0
		c0,0.588,0,1.058,0,1.058h1.175v-2.231H227.671L227.671,304.579z M227.671,297.887v2.23h1.175v-2.23H227.671L227.671,297.887z
		 M227.671,291.076v2.231h1.175v-2.231H227.671L227.671,291.076z M227.671,284.384c0,0,0,0.939,0,1.644l0,0l0,0l0,0l0,0l0,0l0,0l0,0
		l0,0l0,0l0,0l0,0l0,0v0.587h1.175v-2.23H227.671L227.671,284.384z M227.671,277.573c0,0,0,0.235,0,0.47v1.762h1.175v-2.231H227.671
		L227.671,277.573z M227.671,270.881v2.23h1.175v-2.23H227.671L227.671,270.881z M227.671,264.07v2.231h1.175v-2.231H227.671
		L227.671,264.07z M227.671,257.378v1.057l0,0l0,0l0,0l0,0c0,0.587,0,1.174,0,1.174h1.175v-2.23H227.671L227.671,257.378z
		 M227.671,250.685v1.526l0,0l0,0l0,0l0,0l0,0l0,0c0,0.353,0,0.705,0,0.705h1.175v-2.231H227.671L227.671,250.685z M227.671,243.875
		v2.23h1.175v-2.23H227.671L227.671,243.875z M227.671,237.182c0,0,0,1.292,0,1.879l0,0l0,0l0,0l0,0l0,0l0,0l0,0l0,0l0,0l0,0v0.235
		h1.175v-2.231h-1.175V237.182z M227.671,230.372c0,0,0,0.352,0,0.821l0,0l0,0l0,0l0,0l0,0l0,0l0,0l0,0v0.118l0,0v1.291h1.175v-2.23
		H227.671L227.671,230.372z M227.671,223.679v2.231h1.175v-2.231H227.671L227.671,223.679z"/>
</g></a>


<a xlink:href="nevada.html">
<g id="NV">
	<path fill="#288585"  onmouseover="evt.target.setAttribute('fill', '#fce149');"
	 onmouseout="evt.target.setAttribute('fill', '#288585');"  d="M61.996,81.018L61.996,81.018H0v81.604l111.312,107.906c0.234-0.234,0.939-1.526,0.704-1.879
		c-0.587-0.821-0.704-1.291,0.353-1.644c1.057-0.47,1.174-2.818,0.117-3.405c-0.47-3.405-1.878-6.575-0.822-9.98
		c-0.352-0.821-0.822-1.761-0.939-2.583c-0.117-0.704-0.235-1.409-0.235-2.23c0-0.705,0.705-1.526,0.235-2.114
		c-1.174-1.644-1.526-2.935-0.705-4.931c0.587-1.292,1.526-1.527,2.818-1.996c0.352-0.118,1.174-0.47,1.526-0.353
		c0.352,0.234,0.705,1.644,1.526,1.174c1.878-1.174,1.878,0.353,2.818,1.644c0.235,0.47,0.822,1.292,1.409,1.058
		c0.587-0.118,1.996,0,1.878-0.939c-0.352-1.645,0.939-2.466,1.526-3.875l-0.117-157.456H61.996z"/>
	<path fill="#FFFFFF" d="M110.02,269.354l-0.822,0.821l1.292,1.292l0.822,0.822l0.822-0.822c0.117-0.117,0.235-0.353,0.352-0.587
		l-0.939-0.587c0,0.117-0.117,0.117-0.117,0.234l0,0l0,0l0,0l0,0l0,0l0,0l0,0l0,0l0,0l0,0l0,0l0,0l0,0l0,0l0,0l0,0l0,0l0,0
		l-0.117,0.117l0,0l0,0l0,0l0,0l0,0l0,0l0,0l0,0l0,0l0,0l0,0l0,0l0,0l0,0l0,0l0,0l0,0l0,0l0,0l0,0l0,0l0,0l0,0l0,0l0,0l0,0l0,0l0,0
		l0,0l0,0l0,0l0,0l0,0l0,0l0,0l0,0l0,0l0,0C111.077,270.411,110.02,269.354,110.02,269.354L110.02,269.354z M114.012,263.953
		l-1.057,0.47c0.235,0.47,0.235,1.174,0.118,1.761l0,0l0,0l0,0l0,0l0,0l0,0l0,0l0,0l0,0l0,0l0,0l0,0l0,0l0,0l0,0l0,0l0,0l0,0l0,0
		l0,0l0,0l0,0l0,0l0,0l0,0l0,0l0,0l0,0l0,0l0,0l0,0l0,0l0,0l0,0l0,0l0,0l0,0l0,0l0,0l0,0l0,0l0,0l0,0l0,0l0,0l0,0l0,0l0,0l0,0l0,0
		l0,0l0,0l0,0l0,0l0,0l0,0l0,0l0,0l0,0l0,0l0,0l0,0l0,0l0,0l0,0l0,0l0,0l0,0l0,0l0,0l0,0l0,0l0,0l0,0l0,0l0,0l0,0l0,0l0,0l0,0l0,0
		l0,0l0,0l0,0l0,0l0,0l0,0l0,0l0,0l0,0c0,0.118-0.118,0.118-0.118,0.235l0.939,0.587
		C114.247,266.184,114.364,264.893,114.012,263.953L114.012,263.953z M112.368,257.848l-1.057,0.117c0,0.117,0,0.117,0,0.234l0,0
		l0,0l0,0l0,0l0,0l0,0l0,0l0,0l0,0l0,0l0,0l0,0l0,0l0,0l0,0l0,0l0,0l0,0c0,0.353,0.117,0.588,0.117,0.939l0,0l0,0l0,0l0,0l0,0l0,0
		l0,0l0,0l0,0l0,0l0,0l0,0l0,0l0,0l0,0l0,0c0,0.235,0.118,0.47,0.118,0.822l1.057-0.235
		C112.603,259.256,112.485,258.552,112.368,257.848L112.368,257.848z M111.664,251.154l-1.057,0.235
		c0.117,0.587,0.352,1.174,0.587,1.644l0,0l0,0v0.117l0,0l0,0l0,0l0,0l0,0l0,0c0,0.118,0.118,0.235,0.118,0.235l1.057-0.47
		c-0.118-0.235-0.118-0.353-0.235-0.587C112.016,251.977,111.781,251.624,111.664,251.154L111.664,251.154z M110.724,244.696
		l-1.057,0.353l0,0l0,0l0,0l0,0l0,0l0,0l0,0l0,0l0,0l0,0l0,0l0,0l0,0l0,0l0,0l0,0l0,0l0,0l0,0l0,0l0,0l0,0l0,0l0,0l0,0l0,0l0,0l0,0
		l0,0l0,0l0,0l0,0l0,0l0,0l0,0l0,0l0,0l0,0l0,0l0,0l0,0l0,0l0,0c0.118,0.353,0.352,0.704,0.47,0.939l0,0l0,0l0,0l0,0l0,0l0,0l0,0
		l0,0l0,0l0,0l0,0l0,0l0,0l0,0l0,0l0,0l0,0l0,0l0,0l0,0l0,0l0,0l0,0l0,0l0,0l0,0l0,0l0,0l0,0l0,0l0,0l0,0l0,0l0,0l0,0l0,0l0,0l0,0
		l0,0l0,0l0,0l0,0l0,0l0,0l0,0l0,0l0,0l0,0l0,0l0,0l0,0l0,0l0,0l0,0l0,0l0,0l0,0l0,0l0,0l0,0l0,0l0,0l0,0l0,0l0,0l0,0l0,0l0,0l0,0
		l0,0l0,0l0,0l0,0l0,0l0,0l0,0l0,0l0,0l0,0l0,0l0,0l0,0l0,0l0,0l0,0l0,0l0,0l0,0l0,0l0,0l0,0l0,0l0,0l0,0l0,0l0,0l0,0l0,0
		c0,0.117,0.117,0.117,0.117,0.234l1.057-0.352c-0.118-0.235-0.118-0.47-0.353-0.587
		C111.077,245.519,110.842,245.049,110.724,244.696L110.724,244.696z M112.485,239.766
		C112.485,239.883,112.485,239.883,112.485,239.766c-0.117,0-0.117,0.117-0.235,0.117l0,0c-0.235,0.117-0.352,0.117-0.587,0.234l0,0
		l0,0l0,0l0,0l0,0l0,0l0,0l0,0l0,0l0,0l0,0l0,0l0,0l0,0l0,0l0,0l0,0l0,0l0,0l0,0l0,0l0,0l0,0l0,0l0,0l0,0l0,0l0,0l0,0l0,0l0,0l0,0
		l0,0l0,0l0,0l0,0l0,0l0,0l0,0l0,0l0,0l0,0l0,0l0,0l0,0l0,0l0,0l0,0l0,0l0,0l0,0l0,0c-0.235,0.117-0.587,0.235-0.822,0.47l0,0l0,0
		l0,0l0,0l0,0l0,0l0,0l0,0l0,0l0,0l0,0l0,0l0,0l0,0l0,0l0,0l0,0l0,0l0,0l0,0l0,0l0,0l0,0l0,0l0,0l0,0l0,0l0,0l0,0l0,0l0,0l0,0l0,0
		l0,0l0,0l0,0l0,0l0,0l0,0l0,0l0,0l0,0l0,0l0,0l0.822,0.822c0.235-0.235,0.705-0.47,1.409-0.705l0.235-0.117L112.485,239.766
		L112.485,239.766z M116.947,240.117v0.822l0,0V240.117c-0.235,0-0.47,0.117-0.705,0.117l0.47,1.058c0,0,0,0,0.118,0
		c0,0.117,0.117,0.234,0.234,0.352l1.057-0.47c-0.118-0.352-0.353-0.587-0.47-0.821l0,0c-0.118-0.118-0.235-0.118-0.352-0.235l0,0
		l0,0l0,0l0,0l0,0l0,0l0,0l0,0l0,0l0,0l0,0l0,0l0,0l0,0l0,0l0,0l0,0l0,0l0,0l0,0l0,0l0,0l0,0l0,0l0,0l0,0l0,0l0,0l0,0l0,0l0,0l0,0
		l0,0l0,0l0,0l0,0l0,0l0,0l0,0l0,0l0,0l0,0l0,0l0,0l0,0l0,0l0,0l0,0C117.065,240.234,117.065,240.234,116.947,240.117
		L116.947,240.117C116.947,240.234,116.947,240.234,116.947,240.117C116.947,240.234,116.947,240.234,116.947,240.117
		C116.947,240.234,116.947,240.234,116.947,240.117L116.947,240.117C116.947,240.234,116.947,240.234,116.947,240.117
		L116.947,240.117C116.947,240.234,116.947,240.234,116.947,240.117C116.947,240.234,116.947,240.234,116.947,240.117
		C116.947,240.234,116.947,240.234,116.947,240.117C116.947,240.234,116.947,240.234,116.947,240.117
		C116.947,240.234,116.947,240.234,116.947,240.117C116.947,240.234,116.947,240.234,116.947,240.117
		C116.947,240.234,116.947,240.234,116.947,240.117C116.947,240.234,116.947,240.234,116.947,240.117
		C116.947,240.234,116.947,240.234,116.947,240.117L116.947,240.117C116.947,240.234,116.947,240.234,116.947,240.117
		L116.947,240.117C116.947,240.234,116.947,240.234,116.947,240.117C116.947,240.234,116.947,240.234,116.947,240.117
		C116.947,240.234,116.947,240.234,116.947,240.117L116.947,240.117C116.947,240.234,116.947,240.234,116.947,240.117
		L116.947,240.117C116.947,240.234,116.947,240.234,116.947,240.117L116.947,240.117
		C116.947,240.234,116.947,240.234,116.947,240.117L116.947,240.117C116.947,240.234,116.947,240.117,116.947,240.117
		L116.947,240.117L116.947,240.117L116.947,240.117L116.947,240.117L116.947,240.117L116.947,240.117L116.947,240.117
		L116.947,240.117L116.947,240.117L116.947,240.117L116.947,240.117L116.947,240.117L116.947,240.117L116.947,240.117
		L116.947,240.117L116.947,240.117L116.947,240.117L116.947,240.117L116.947,240.117z M121.996,241.174
		c-0.117,0.353-0.117,0.705-0.117,1.175l0,0l0,0l0,0l0,0l0,0l0,0l0,0l0,0l0,0l0,0l0,0l0,0l0,0l0,0l0,0l0,0l0,0l0,0l0,0l0,0l0,0l0,0
		l0,0l0,0l0,0l0,0l0,0l0,0l0,0l0,0l0,0l0,0l0,0l0,0l0,0l0,0l0,0l0,0l0,0l0,0l0,0l0,0l0,0l0,0l0,0l0,0l0,0l0,0l0,0l0,0l0,0l0,0l0,0
		l0,0l0,0l0,0l0,0l0,0l0,0c0,0.352-0.235,0.587-0.587,0.587l0.352,1.057c1.174-0.353,1.526-1.292,1.409-1.996
		c0-0.235,0-0.47,0-0.704L121.996,241.174L121.996,241.174z M124.58,234.834h-1.174c0,0,0,0.47,0,0.939l0,0l0,0l0,0l0,0l0,0l0,0
		v1.291h1.174V234.834L124.58,234.834z M124.58,228.141h-1.174c0,0,0,0.822,0,1.409l0,0l0,0l0,0l0,0v0.822h1.174V228.141
		L124.58,228.141z M124.58,221.331h-1.174c0,0,0,1.291,0,1.878l0,0l0,0v0.353h1.174V221.331L124.58,221.331z M124.58,214.638h-1.174
		v2.231h1.174V214.638L124.58,214.638z M124.58,207.828h-1.174v2.23h1.174V207.828L124.58,207.828z M124.58,201.135h-1.174v1.645
		c0,0.352,0,0.587,0,0.587h1.174V201.135L124.58,201.135z M124.58,194.325h-1.174v1.291l0,0l0,0l0,0l0,0c0,0.47,0,0.939,0,0.939
		h1.174V194.325L124.58,194.325z M124.58,187.632h-1.174v1.057l0,0l0,0l0,0l0,0c0,0.587,0,1.175,0,1.175h1.174V187.632
		L124.58,187.632z M124.58,180.822h-1.174v0.821c0,0.587,0,1.409,0,1.409h1.174V180.822L124.58,180.822z M124.58,174.129h-1.174
		v0.47l0,0l0,0l0,0l0,0l0,0l0,0l0,0l0,0c0,0.705,0,1.644,0,1.644h1.174V174.129L124.58,174.129z M124.58,167.437h-1.174v2.23h1.174
		V167.437L124.58,167.437z M124.58,160.626h-1.174l0,0l0,0l0,0l0,0l0,0l0,0l0,0l0,0l0,0l0,0l0,0l0,0l0,0l0,0l0,0l0,0l0,0l0,0l0,0
		l0,0l0,0l0,0l0,0l0,0l0,0v2.231h1.174V160.626L124.58,160.626z M124.58,153.934h-1.174c0,0,0,0.234,0,0.47l0,0l0,0l0,0l0,0l0,0l0,0
		l0,0l0,0l0,0l0,0l0,0l0,0l0,0l0,0l0,0l0,0l0,0l0,0l0,0l0,0l0,0l0,0v1.761h1.174V153.934L124.58,153.934z M124.58,147.123h-1.174
		c0,0,0,0.47,0,0.939l0,0l0,0l0,0l0,0l0,0l0,0l0,0l0,0l0,0l0,0l0,0l0,0v1.174h1.174V147.123L124.58,147.123z M124.58,140.431h-1.174
		c0,0,0,0.821,0,1.409l0,0l0,0l0,0l0,0v0.704h1.174V140.431L124.58,140.431z M124.58,133.62h-1.174c0,0,0,1.292,0,1.879l0,0l0,0l0,0
		l0,0l0,0l0,0l0,0l0,0l0,0l0,0v0.234h1.174V133.62L124.58,133.62z M124.58,126.928h-1.174v2.23h1.174V126.928L124.58,126.928z
		 M124.58,120.117h-1.174v2.231h1.174V120.117L124.58,120.117z M124.58,113.425h-1.174v1.526l0,0l0,0l0,0l0,0
		c0,0.352,0,0.587,0,0.587h1.174V113.425L124.58,113.425z M124.58,106.614h-1.174v1.292l0,0l0,0c0,0.469,0,0.939,0,0.939h1.174
		V106.614L124.58,106.614z M124.58,99.922h-1.174v1.057l0,0l0,0l0,0l0,0c0,0.587,0,1.174,0,1.174h1.174V99.922L124.58,99.922z
		 M124.58,93.111h-1.174v0.822l0,0l0,0c0,0.704,0,1.409,0,1.409h1.174V93.111L124.58,93.111z M124.462,86.419h-1.174v2.23h1.174
		V86.419L124.462,86.419z M121.996,79.961v1.174h1.409l0,0l0,0v0.822h1.174v-0.822v-1.174h-1.174H121.996L121.996,79.961z"/>
</g></a>
</svg>
