
<svg version="1.1" xmlns="http://www.w3.org/2000/svg" xmlns:xlink="http://www.w3.org/1999/xlink" viewBox="0 0 279.471 308.628">

<g>

	<a xlink:href="texas.html">
	<path id="TX" fill-rule="evenodd" clip-rule="evenodd" fill="#288585"  onmouseover="evt.target.setAttribute('fill', '#fce149');"
		 onmouseout="evt.target.setAttribute('fill', '#288585');" d="M2.472,144.718c1.173,0.147,3.68,0.683,4.339,1.756
		c0.34,0.558,0.281,1.146,0.378,1.761c0.078,0.504,0.434,0.49,0.482,1.029c0.097,1.212,1.103,2.52,1.754,3.484
		c0.812,1.209,1.816,2.201,3.326,2.332c1.372,0.115,1.185,0.507,2.165,1.271c0.855,0.669,1.808,1.446,2.479,2.305
		c0.635,0.808,0.9,1.644,1.694,2.356c1.056,0.943,2.161,2.336,3.493,2.822c0.896,0.327,0.19,2.043,0.918,2.703
		c0.714,0.678,1.543,1.258,2.319,1.864c1.034,0.8,1.881,1.814,2.812,2.729c0.692,0.684,0.924,0.643,1.82,0.742
		c1.212,0.139,1.75,1.01,2.807,1.747c0.651,0.454,1.965,0.791,1.913,1.716c-0.071,1.271,0.461,1.85,1.49,2.322
		c0.433,0.197,1.843,1.908,1.571,2.398c-0.589,1.061-0.063,1.648,0.532,2.816c0.781,1.525,1.888,2.779,2.782,4.234
		c0.867,1.41,0.559,3.62,0.4,5.21c-0.18,1.779,0.439,3.188,1.12,4.856c0.282,0.695,0.112,1.388,0.351,2.016
		c0.156,0.404,0.631,0.432,0.958,0.594c0.555,0.273,0.438,1.186,0.413,1.662c-0.04,0.759,1.104,2.371,1.522,2.945
		c0.63,0.867,1.479,1.612,2.296,2.291c0.688,0.575,1.242,0.525,2.089,0.715c1.458,0.318,0.992,1.697,1.942,2.402
		c1.797,1.307,3.582,2.637,5.372,3.956c0.835,0.337,1.965,0.846,2.879,0.607c1.043-0.271,0.78,0.471,0.839,1.419
		c1.188,0.67,2.392,1.645,3.71,2.004c2.099,0.569,2.696,2.309,4.306,3.472c0.481-0.399,1.134-0.292,1.439,0.261
		c0.454,0.82,1.053,0.564,1.913,0.643c1.897,0.17,1.985-0.392,2.698-2.139c0.226-0.562,0.697-0.688,1.118-1.092
		c0.636-0.615,0.934-1.46,1.582-2.058c0.335-0.304,1.061-0.544,1.315-0.92c0.416-0.616,0.273-1.851,0.469-2.578
		c0.258-0.96,0.992-1.923,1.373-2.862c0.271-0.66,0.255-1.221,0.147-1.903c-0.167-1.038,0.545-1.716,1.037-2.547
		c0.768-1.292,1.016-2.856,1.759-4.218c0.45-0.826,0.943-0.609,1.697-0.997c0.272-0.161,0.564-0.282,0.873-0.359
		c0.416-0.044,0.568,0.567,0.86,0.53c0.397-0.049,0.546-1.4,1.23-1.068c0.416,0.205,0.917,1.082,1.482,0.795
		c1.13-0.574,0.914-3.067,2.394-3.41c0.537-0.12,1.321,1.123,1.699,1.42c0.751,0.597,1.748,1.096,2.729,0.786
		c0.667-0.216,1.4-0.656,2.067-0.229c0.828,0.525,1.489,0.889,2.49,0.553c1.136-0.383,3.098,0.124,4.199,0.43
		c1.074,0.302,4.023-1.275,4.632-0.134c0.282,0.535,0.785,0.875,1.057,1.41c0.434,0.846,0.466,1.824,0.805,2.7
		c0.385,0.997,1.907,0.368,2.618,0.098c0.313,0.616,0.745,1.505,0.558,2.21c-0.215,0.768,1.194,0.818,1.443,1.379
		c0.308,0.684,1.599,0.145,2.041,0.75c0.827,1.141-0.224,2.326,1.458,3.152c1.745,0.863,3.166,2.125,4.011,3.854
		c0.344,0.71,1.175,1.087,1.631,1.729c0.738,1.042,1.186,2.457,1.429,3.709c0.333,1.713,0.199,3.338,1.261,4.762
		c1.056,1.41,1.728,3.198,2.439,4.792c0.721,1.612,1.41,3.234,2.077,4.864c0.278,0.688,0.489,1.354,0.618,2.088
		c0.172,0.984,0.848,1.596,0.92,2.543c0.195,2.488,1.839,3.616,3.948,4.576c1.994,0.908,1.308,4.492,3.228,5.278
		c0.225,0.089,0.769-0.175,0.916,0.067c0.312,0.52,0.155,1.434,0.41,2.03c0.547,1.288,0.984,1.963,1.225,3.373
		c0.215,1.271,2.565,2.277,3.512,2.928c0.727,0.499,3.088,1.658,3.252,2.642c0.292,1.797,0.762,3.635,0.696,5.466
		c-0.024,0.661-0.836,1.396-0.522,1.972c0.439,0.812,1.096,1.132,1.349,2.07c0.603,2.16-0.896,3.773,0.533,5.857
		c0.379,0.552,0.101,1.28,0.439,1.9c0.56,1.028,1.413,1.746,2.253,2.523c1.65,1.523,2.599,5.363,2.523,7.492
		c-0.046,1.369,1.029,2.475,1.314,3.795c0.249,1.154,0.529,2.309,1.904,2.475c1.848,0.221,5.326-0.045,6.257,2.013
		c1.237,2.748,3.346,0.724,4.983,2.272c0.675,0.639,1.657,1.051,2.391,1.68c0.948,0.813,2.203,1.32,3.36,1.752
		c2.478,0.926,4.887,1.284,7.512,0.929c2.028-0.274,4.028,0.989,5.511,2.354c1.993,1.838,2.168,3.612,5.168,2.099
		c1.838-0.926,3.18-1.263,2.856-3.711c-0.171-1.283-1.19-2.053-1.763-3.139c-0.515-0.98-0.43-2.318-0.654-3.393
		c-0.172-0.826-0.327-2.069-0.979-2.686c-0.689-0.65-1.684-1.062-1.445-2.209c0.522-2.515,0.92-3.876,0.1-6.337
		c-0.318-0.957-0.585-1.945-1.021-2.856c-0.427-0.895-1.484-1.397-1.718-2.418c-0.212-0.928,1.106-0.781,0.438-1.877
		c-0.267-0.439-0.992-1.787-0.478-2.268c0.646-0.602,1.201-0.512,1.603-1.541c0.259-0.66,0.461-1.359,0.691-2.029
		c0.302-0.871,1.359-3.037-0.332-2.682c-0.601,0.13-1.79,0.629-2.324,0.09c-0.705-0.7-1.312-1.043-2.228-0.598
		c-2.251,1.092-0.804-0.488,0.027-1.308c0.643-0.638-1.447-3.772-0.898-3.974c0.281-0.109,1.932,1.931,2.223,2.182
		c0.807,0.697,1.56-0.669,2.229-1.055c1.221-0.701,1.439-0.328,2.277,0.454c0.311,0.296,0.655,0.138,0.698-0.274
		c0.078-0.728-0.482-1.365-0.857-1.922c-0.764-1.133-0.437-1.838,0.915-2.188c0.982-0.252,0.991-0.611,1.535-1.367
		c1.718-2.396,0.818-3.718-1.743-4.908c-0.873-0.409-2.111-0.93-2.776-1.63c-0.535-0.558,1.024-0.962,1.327-1.061
		c0.962-0.319,1.994-0.562,3.013-0.534c1.271,0.031,1.777,1.361,2.841,1.432c0.4,0.027,1.129-1.306,1.414-1.598
		c0.945-0.971,0.809-1.748-0.046-2.753c-0.428-0.503-3.482-3.418-1.533-4.016c1.082-0.332,2.315-0.634,3.243-1.315
		c0.729-0.521,1.267-1.276,2.025-1.766c1.716-1.105,1.448,3.121,3.095,0.108c0.211-0.388,1.031-1.712,0.539-2.139
		c-0.613-0.535-1.639-0.948-1.909-1.784c-0.261-0.794,1.42-1.966,2.033-2.227c0.54-0.225,1.161,2.475,1.697,2.965
		c0.611,0.557,3.938-0.54,4.825-0.777c2.332-0.634-2.19-2.537-2.689-3.148c-0.409-0.499,1.58-1.024,0.397-1.86
		c-0.646-0.448-1.188-1.177-1.619-1.827c-0.241-0.363-1.006-1.505-0.313-1.832c1.705-0.787,2.135-0.959,3.208,0.735
		c1.671,2.646,1.013-0.638,0.888-1.747c-0.271-2.376,3.341,0.637,3.351,1.527c0.017,1.393,1.008,0.145,1.524-0.296
		c0.711-0.603,1.395-0.503,0.652,0.327c-0.78,0.871,0.733,1.689,1.457,1.77c1.001,0.112,1.783-0.462,2.622-0.916
		c1.415-0.763,2.82-1.689,4.366-2.156c1.221-0.373,2.523-0.373,3.732-0.764c1.136-0.354,1.873-1.571,2.663-2.38
		c0.966-0.992,2.228-1.59,3.423-2.26c1.994-1.118,2.537-1.837,3.396-3.894c0.367-0.881,0.702-1.68,0.506-2.637
		c-0.363-1.796,0.036-1.262,1.368-0.902c0.876,0.238,3.511-2.265,3.804-3.01c0.394-0.997-0.438-2.092-0.576-3.086
		c-0.159-1.131-0.221-1.68-1.161-2.434c-0.616-0.498-1.894-1.375-0.992-2.237c0.992-0.947,0.241-0.821-0.349-2.038
		c-1.217-2.503,2.274-0.234,3.083-0.01c1.308,0.369,0.74-3.162,2.437-3.467c0.772-0.148,2.273-0.857,2.348,0.472
		c0.069,1.289,0.075,2.78-0.665,3.89c-1.567,2.344,0.653,1.936,2.416,1.598c0.278-0.054,2.042-0.732,2.185-0.236
		c0.273,0.979,1.024,0.389,1.088,1.198c0.066,0.853,2.305-0.772,2.587-0.907c1.257-0.602,2.511-1.047,3.707-1.77
		c0.979-0.594,2.403-1.531,3.613-1.384c0.946,0.122,1.703,0.651,2.725,0.431c0.772-0.16-0.544-1.283-0.757-1.584
		c-0.597-0.831-1.416-2.049-1.172-3.136c0.298-1.356,3.031-3.895,4.343-4.308l0.112-0.255c-0.407-0.94,0.238-2.417,0.627-3.302
		c0.673-1.518,0.514-2.049-0.003-3.715c-0.327-1.06-0.936-2.713-0.574-3.791c0.193-0.578,0.7-0.953,0.968-1.5
		c0.424-0.863-0.123-0.812-0.348-1.581c-0.314-1.078-0.198-2.134,0.398-3.059c0.311-0.48,0.699-1.101,1.231-1.365
		c0.61-0.306,0.421-1.707,0.718-2.268c0.632-1.2,0.688-2.876,0.659-4.208c-0.01-0.46,0.479-0.885,0.855-1.088
		c0.37-0.203-0.354-1.469-0.458-1.693c-0.558-1.199,1.819-0.902,0.614-1.994c-1.342-1.213-0.285-2.143-0.929-3.711
		c-0.432-1.051-0.855-1.742-1.662-2.487c-0.696-0.643-0.002-1.239-0.182-1.972c-0.268-1.096-0.759-1.738-1.309-2.677
		c-0.801-1.348-1.945-2.744-2.178-4.325c-0.172-1.186,0.308-2.857-0.09-3.962c-0.519-1.424-0.721-2.466-1.795-3.634
		c-0.843-0.917-1.504-2.15-2.714-2.591V96.03c-0.678-0.332-1.323-0.493-2.046-0.675c-0.308-0.075-0.748-0.521-1.038-0.525
		c-0.343-0.004-1.015,0.715-1.196,0.616c-1.28-0.682-0.991-0.548-2.471-0.198c-0.685,0.163-2.222-0.705-2.131-1.48
		c0.083-0.733-3.954-2.144-4.629-2.342c-1.127-0.322-2.209-0.768-3.327-1.127c-0.952-0.305-1.581-1.248-2.361-1.886
		c-0.667-0.548-0.956-1.312-1.763-1.828c-0.883-0.565-2.531-2.174-3.559-2.08c-2.109,0.193-2.353,2.669-4.775,2.452
		c-0.754-0.066-2.08-0.121-2.547-0.78c-0.723-1.024-0.539-1.567-1.917-0.971c-1.68,0.728-3.274,1.28-4.993,1.914
		c-1.322-0.355-1.252-0.903-2.475,0c-0.543,0.395-0.3,0.727-1.116,0.421c-2.798-1.032-1.63,1.105-3.705,2.188
		c-1.168,0.611-1.522,0.062-2.228,1.258c-0.59,0.997-1.053,0.188-1.275-0.504c-0.212-0.664-0.146-1.023-0.858-1.145
		c-0.413-0.072-0.825-0.148-1.228-0.27c-0.555-0.17-0.549-0.588-0.955-0.785c-0.621-0.302-0.975-0.234-1.414-0.913
		c-0.381-0.587-0.077-0.673-0.635-1.051c-1.023-0.695-0.772-0.247-1.531,0.705c-0.434,0.544-1.668,0.068-2.209-0.062
		c-1.168-0.288-1.28-0.307-1.463-1.496c-0.066-0.495-1.805-0.777-2.18-0.684c-0.925,0.233-0.815,1.321-0.833,2.094
		c-0.012,0.463-0.43,0.404-0.8,0.517c-0.622,0.193-0.345,0.457-0.613,0.917c-0.498,0.853-0.683,1.189-0.491,2.254
		c-0.72,0.17-2.754,0.363-1.862-0.939c-0.292-0.584-0.701-0.971-0.228-1.48c0.383-0.41,0.805-2.426-0.278-2.059
		c-0.968,0.328-3.595,2.412-4.426,1.986c-0.672-0.352-1.327-1.102-1.327-1.887c0-0.44-1.655-0.18-1.884-0.163
		c-1.545,0.127-0.159-3.196-2.271-1.886c-1.337,0.831-2.415,2.08-3.562,3.113c-0.696,0.627-0.997,0.045-1.733-0.432
		c-0.934-0.602-0.874-1.069-0.671-2.143c0.435-2.336-2.335-0.49-2.335-2.133c0-0.684-1.807-1.51-0.792-1.9
		c0.468-0.158,1.065-1.783,0.099-1.576c-0.997,0.211-3.779,1.828-4.68,0.691c-0.638-0.836-2.129,1.852-3.257,1.656
		c-1.043-0.183-1.603-0.888-1.995-1.817c-0.14-0.329-0.106-1.079-0.549-1.048c-1.215,0.086-3.131,1.083-4.294,0.724
		c-0.708-0.211-1.673-0.211-2.147-0.885c-0.365-0.517-1.351-1.329-1.959-0.916c-0.732,0.498-3.18-0.112-4.09-0.368
		c-0.86-0.238,0.166-3.171-1.14-3.787c-0.341-0.156-0.304-0.691-0.405-0.979c-0.105-0.351-0.812-0.477-1.08-0.656
		c-0.62-0.403-0.496-1.186-1.451-0.898c-0.177,0.665-0.406,1.244-0.707,1.855c-0.456,0.925-1.137-0.166-1.824-0.201
		c-0.489-0.019-0.485-0.746-0.995-0.603c-0.365,0.104-0.644,0.358-0.965,0.544c-0.373,0.215-1.808,0.171-2.192-0.014
		c-1.322-0.665-1.599-2.372-2.701-3.396c-1.148-1.068-2.7-1.976-4.363-1.967l0.025-53.223l-64.018,0.085l-0.741,124.683
		l-76.029,0.009c-0.277,0.844,0.629,2.474,0.618,3.512c-0.008,0.759,0.521,0.206,0.67,0.796
		C1.85,143.635,2.083,144.008,2.472,144.718z"/>
	</a>

<a xlink:href="oklahoma.html">
	<path id="OK" fill-rule="evenodd" clip-rule="evenodd" fill="#288585"  onmouseover="evt.target.setAttribute('fill', '#fce149');"
		 onmouseout="evt.target.setAttribute('fill', '#288585');" d="M77.765,13.864l63.389-0.085l-0.025,53.223
		c1.443-0.009,3.075,0.769,4.069,1.693c0.336,0.314,1.483,1.092,1.483,1.608c0,0.696,0.616,1.513,1.161,1.85
		c1.259,0.777,3.466-0.691,4.119,0.067c1.562,1.819,2.522,0.037,2.915-1.438c0.957-0.287,2.395,1.515,2.716,2.265
		c0.273,0.642,0.972,0.724,1.008,1.566c0.022,0.558-0.169,1.991,0.22,2.436c0.53,0.556,2.616,0.408,3.392,0.7
		c0.893,0.332,0.961-0.71,2.039-0.021c0.963,0.61,1.37,1.225,2.568,1.469c1.276,0.264,2.75-0.348,4.011-0.562
		c1.588-0.273,0.924,1.6,2.222,2.421c2.096,1.334,2.015-0.821,3.477-1.44c0.507-0.203,1.946,0.412,2.683,0.344
		c0.805-0.062,1.598-0.556,2.358-0.794c0.815-0.261,0.908-0.131,0.71,0.731c-0.305,1.33-1.23,0.611-0.074,1.837
		c0.496,0.53,0.359,1.46,1.26,1.537c0.467,0.039,1.707-0.095,1.621,0.642c-0.206,1.751-0.448,3.158,1.796,3.724
		c0.742,0.134,2.92-2.708,3.683-3.261c0.721-0.521,0.792-0.318,1.528-0.318c0.865,0-0.177,1.944,0.506,1.994
		c0.716,0.054,1.438-0.189,2.155-0.072c0.483,0.076,0.753,1.389,1.266,1.828c1.075,0.916,3.271-1.096,4.433-1.581
		c1.379-0.571,0.873,0.381,0.812,1.518c-0.05,0.966-0.512,0.719,0.067,1.882c-0.892,1.303,1.143,1.109,1.862,0.939
		c-0.082-0.449-0.308-1.487,0.103-1.833c0.494-0.395,0.285-0.727,0.601-1.132c0.229-0.287,1.118-0.147,1.192-0.512
		c0.075-0.549-0.165-1.787,0.41-2.139c0.941-0.57,1.534,0.086,2.381,0.271c0.52,0.111,0.125,0.992,0.406,1.312
		c0.141,0.175,0.64,0.26,0.824,0.311c0.622,0.174,1.796,0.628,2.443,0.386c0.282-0.117,1.049-1.847,1.379-1.316
		c0.602,0.983,1.396,1.868,2.43,2.372c0.658,0.317,0.875,0.808,1.797,0.982c0.764,0.149,0.906,0.072,1.131,0.841
		c0.098,0.337,0.427,1.782,1.045,1.279c1.08-0.894,0.525-1.113,2.06-1.469c1.823-0.422,1.702-3.408,3.577-2.627
		c0.714,0.297,1.09,0.629,1.55,0.026c1.003-1.311,1.479-0.517,2.681-0.196c0.734-0.271,6.208-2.484,6.406-1.999
		c0.659,1.648,1.941,1.81,3.584,1.872c1.718,0.063,2.176-1.491,3.496-2.312c1.305-0.813,3.28,1.249,4.305,1.904
		c0.681,0.439,1.026,0.93,1.466,1.527c0.418,0.569,1.182,0.724,1.492,1.378c0.525,1.115,3.34,1.604,4.493,1.936
		c0.777,0.23,3.055,1.94,3.805,1.564c1.768-17.859,1.176-36.269,0.24-54.168c-0.387-7.384-1.635-14.682-2.722-21.99
		c-0.297-1.976-0.019-4.163-0.009-6.152c0.018-3.207,0.033-6.41,0.049-9.616c0.003-0.252,0.006-0.504,0.006-0.751L98.667,0.322
		c-6.967,0-13.936,0-20.901,0l-0.004,0.013l0,0v13.524L77.765,13.864z"/>

		<path fill-rule="evenodd" clip-rule="evenodd" fill="none" stroke="#FFFFFF" stroke-width="0.9"
		 stroke-miterlimit="10" stroke-dasharray="2.757,5.514" d="M77.761,13.859l0.004,0.005l63.389-0.085l-0.025,53.223c1.443-0.009,3.075,0.769,4.069,1.693c0.336,0.314,1.483,1.092,1.483,1.608
		c0,0.696,0.616,1.513,1.161,1.85c1.259,0.777,3.466-0.691,4.119,0.067c1.562,1.819,2.522,0.037,2.915-1.438
		c0.957-0.287,2.395,1.515,2.716,2.265c0.273,0.642,0.972,0.724,1.008,1.566c0.022,0.558-0.169,1.991,0.22,2.436
		c0.53,0.556,2.616,0.408,3.392,0.7c0.893,0.332,0.961-0.71,2.039-0.021c0.963,0.61,1.37,1.225,2.568,1.469
		c1.276,0.264,2.75-0.348,4.011-0.562c1.588-0.273,0.924,1.6,2.222,2.421c2.096,1.334,2.015-0.821,3.477-1.44
		c0.507-0.203,1.946,0.412,2.683,0.344c0.805-0.062,1.598-0.556,2.358-0.794c0.815-0.261,0.908-0.131,0.71,0.731
		c-0.305,1.33-1.23,0.611-0.074,1.837c0.496,0.53,0.359,1.46,1.26,1.537c0.467,0.039,1.707-0.095,1.621,0.642
		c-0.206,1.751-0.448,3.158,1.796,3.724c0.742,0.134,2.92-2.708,3.683-3.261c0.721-0.521,0.792-0.318,1.528-0.318
		c0.865,0-0.177,1.944,0.506,1.994c0.716,0.054,1.438-0.189,2.155-0.072c0.483,0.076,0.753,1.389,1.266,1.828
		c1.075,0.916,3.271-1.096,4.433-1.581c1.379-0.571,0.873,0.381,0.812,1.518c-0.05,0.966-0.512,0.719,0.067,1.882
		c-0.892,1.303,1.143,1.109,1.862,0.939c-0.082-0.449-0.308-1.487,0.103-1.833c0.494-0.395,0.285-0.727,0.601-1.132
		c0.229-0.287,1.118-0.147,1.192-0.512c0.075-0.549-0.165-1.787,0.41-2.139c0.941-0.57,1.534,0.086,2.381,0.271
		c0.52,0.111,0.125,0.992,0.406,1.312c0.141,0.175,0.64,0.26,0.824,0.311c0.622,0.174,1.796,0.628,2.443,0.386
		c0.282-0.117,1.049-1.847,1.379-1.316c0.602,0.983,1.396,1.868,2.43,2.372c0.658,0.317,0.875,0.808,1.797,0.982
		c0.764,0.149,0.906,0.072,1.131,0.841c0.098,0.337,0.427,1.782,1.045,1.279c1.08-0.894,0.525-1.113,2.06-1.469
		c1.823-0.422,1.702-3.408,3.577-2.627c0.714,0.297,1.09,0.629,1.55,0.026c1.003-1.311,1.479-0.517,2.681-0.196
		c0.734-0.271,6.208-2.484,6.406-1.999c0.659,1.648,1.941,1.81,3.584,1.872c1.718,0.063,2.176-1.491,3.496-2.312
		c1.305-0.813,3.28,1.249,4.305,1.904c0.681,0.439,1.026,0.93,1.466,1.527c0.418,0.569,1.182,0.724,1.492,1.378
		c0.525,1.115,3.34,1.604,4.493,1.936c0.777,0.23,3.055,1.94,3.805,1.564"/>
	</a>
</g>
</svg>
