
<svg version="1.1" xmlns="http://www.w3.org/2000/svg" xmlns:xlink="http://www.w3.org/1999/xlink" viewBox="0 0 429.643 190.507">


<a xlink:href="montana.html">
<g id="MT_2_">
	<path id="MT" fill="#288585"  onmouseover="evt.target.setAttribute('fill', '#fce149');"
		 onmouseout="evt.target.setAttribute('fill', '#288585');"  d="M214.652,94.577c-0.352-0.587-3.64-1.644-3.522-2.231s0.705-2.113,0.705-2.113
		s-1.761-2.114-0.822-2.936c0.939-0.822,0.939-1.644,1.292-1.761c0.352-0.235,1.526-0.705,1.644-1.174
		c0.118-0.47,0.587-2.583,0.118-2.936c-0.47-0.352-1.292-0.117-1.292-0.822s0.352-1.761,0.117-2.114
		c-0.117-0.352-0.705-1.057-0.47-1.292c0.118-0.235,0.705-0.587,0.822-0.705c0-0.234-0.704-1.996-0.234-2.465
		c0.587-0.47,1.057-1.527,1.057-2.231c0-0.587-0.235-1.526,0.235-1.644c0.47-0.235,0.47-1.057,0.47-1.526
		c0-0.587-1.057-0.822-0.353-1.057s1.41-0.118,1.292-0.939c-0.117-0.822-0.587-1.878-0.117-1.996
		c0.47-0.235,0.353-1.409-0.118-1.644c-0.352-0.234-1.996,0.235-2.113,0.47c-0.118,0.235-1.057,0.118-1.057,0.118
		s-3.053,0.47-3.053,0.117c0-0.352,0.118-1.996-0.469-2.583c-0.587-0.587-1.761,0.705-1.761,0.705s-0.705,0.587-0.587,0
		c0.118-0.587,0.705-1.174,0.118-1.409c-0.587-0.235-1.409-0.587-1.879-0.939c-0.352-0.352-1.644-0.704-1.644-1.174
		s0.117-1.761,0-1.879c-0.235-0.235-4.58-3.875-4.814-4.579c-0.235-0.822-0.352-1.174-0.587-1.409s-1.761-0.822-2.113-1.292
		c-0.235-0.47-0.235-1.644-0.822-2.231c-0.587-0.47-3.17,0-3.405-0.352c-0.235-0.353-1.644-2.583-1.996-2.818
		c-0.353-0.353-2.818-1.057-2.231-1.527c0.587-0.587,0.822-0.469,0.47-1.057c-0.353-0.587-1.761-1.878-1.292-2.113
		c0.47-0.118,0.939-0.822,1.057-1.057c0.117-0.234,0.117-0.939-0.235-1.409c-0.47-0.47-1.174-1.409-1.644-2.114
		c-0.47-0.704-1.292-1.057-1.174-1.526c0-0.47,0.118-1.057,0-1.292c-0.117-0.117-1.292-0.117-1.409-0.352
		c-0.118-0.235-0.47-0.822-0.587-1.057c-0.117-0.352-0.469-1.174-0.822-1.526c-0.352-0.235-1.644-1.292-1.644-1.292l-0.118-0.117
		l0.118-27.241h249.863v108.14H283.929l-0.117,13.855c0,0-1.41-0.587-1.762-0.939c-0.353-0.469-0.353-0.821-0.822-1.174
		c-0.352-0.234-1.291-0.822-1.408-1.174c-0.118-0.353,0-0.822-0.354-1.292c-0.352-0.47-0.704-0.704-0.821-1.057
		s0.117-0.939-0.353-0.939c-0.469,0-0.822-1.057-1.408-0.587c-0.588,0.47-1.527,0.939-1.527,1.174c0,0.353,0.117,1.057-0.352,1.527
		c-0.47,0.352-0.822,1.174-0.588,1.525c0.235,0.353,1.057,0.822,1.057,1.057c0,0.235-0.352,0.588-0.704,0.705
		s-1.057,0.117-1.174-0.234c-0.118-0.353-0.235-0.705-0.822-0.588s-2.583,0.353-2.817,0.471c-0.235,0.234-1.527,0.821-1.762,0.586
		c-0.234-0.234-2.466-0.939-2.466-0.939s-0.938,0.705-1.174,0.588s-0.235-0.822-0.587-0.47c-0.353,0.353-0.939,0.704-1.292,0.47
		c-0.47-0.117-1.878-1.057-2.113-0.705c-0.353,0.353-0.118,1.057-0.587,0.705c-0.471-0.353-0.117-0.588-0.471-0.588
		c-0.469,0-1.174,0.471-1.291,0.588c-0.234,0.117-0.234,0.234-0.587,1.174c-0.353,1.057-0.235,1.409-1.879,0.939
		s-1.996-0.939-3.522-0.939s-3.287-0.587-4.109,0.47s-1.291,3.288-1.526,2.936c-0.235-0.235-1.175-1.644-1.879-1.996
		c-0.704-0.47-1.878-0.939-1.878-1.292c0-0.352,1.408-0.821,0.586-1.174c-0.821-0.352-1.408-0.939-1.408-1.174
		c0-0.235,0.117-1.057,0.234-1.409s-0.587-1.292-0.822-1.879c-0.234-0.587-2.23-3.64-3.053-3.288
		c-0.821,0.353-1.408,1.527-1.879,1.057c-0.352-0.586-1.643-1.878-2.113-2.113c-0.469-0.234-0.821-1.174-0.704-1.996
		c0.117-0.821,1.292-1.174,1.057-1.644c-0.117-0.47-0.939-1.057-1.174-1.878c-0.235-0.822,0.117-1.292-0.939-1.527
		c-1.057-0.234-2.818-2.348-2.818-2.348s-1.174-4.814-1.644-5.284c-0.587-0.353-1.526-0.939-1.174-1.292
		c0.352-0.352,1.525-0.469,0.704-1.409c-0.821-0.822-1.526-1.644-1.526-2.231c0-0.587-0.234-1.174-0.587-1.174
		c-0.353-0.118-1.409-2.583-2.583-1.761c-1.174,0.822-1.996,1.644-2.584,2.583c-0.586,0.939-1.996,1.292-1.996,1.292
		s-1.996,0.235-2.23,1.057C216.062,95.517,215.122,95.163,214.652,94.577z"/>
	<path id="MT_1_" fill="none" stroke="#FFFFFF" stroke-width="0.9578" stroke-miterlimit="10" stroke-dasharray="1.9155,3.8311" d="
		M283.929,108.196l-0.117,13.855c0,0-1.41-0.587-1.762-0.939c-0.353-0.469-0.353-0.821-0.822-1.174
		c-0.352-0.234-1.291-0.822-1.408-1.174c-0.118-0.353,0-0.822-0.354-1.292c-0.352-0.47-0.704-0.704-0.821-1.057
		s0.117-0.939-0.353-0.939c-0.469,0-0.822-1.057-1.408-0.587c-0.588,0.47-1.527,0.939-1.527,1.174c0,0.353,0.117,1.057-0.352,1.527
		c-0.47,0.352-0.822,1.174-0.588,1.525c0.235,0.353,1.057,0.822,1.057,1.057c0,0.235-0.352,0.588-0.704,0.705
		s-1.057,0.117-1.174-0.234c-0.118-0.353-0.235-0.705-0.822-0.588s-2.583,0.353-2.817,0.471c-0.235,0.234-1.527,0.821-1.762,0.586
		c-0.234-0.234-2.466-0.939-2.466-0.939s-0.938,0.705-1.174,0.588s-0.235-0.822-0.587-0.47c-0.353,0.353-0.939,0.704-1.292,0.47
		c-0.47-0.117-1.878-1.057-2.113-0.705c-0.353,0.353-0.118,1.057-0.587,0.705c-0.471-0.353-0.117-0.588-0.471-0.588
		c-0.469,0-1.174,0.471-1.291,0.588c-0.234,0.117-0.234,0.234-0.587,1.174c-0.353,1.057-0.235,1.409-1.879,0.939
		s-1.996-0.939-3.522-0.939s-3.287-0.587-4.109,0.47s-1.291,3.288-1.526,2.936c-0.235-0.235-1.175-1.644-1.879-1.996
		c-0.704-0.47-1.878-0.939-1.878-1.292c0-0.352,1.408-0.821,0.586-1.174c-0.821-0.352-1.408-0.939-1.408-1.174
		c0-0.235,0.117-1.057,0.234-1.409s-0.587-1.292-0.822-1.879c-0.234-0.587-2.23-3.64-3.053-3.288
		c-0.821,0.353-1.408,1.527-1.879,1.057c-0.352-0.586-1.643-1.878-2.113-2.113c-0.469-0.234-0.821-1.174-0.704-1.996
		c0.117-0.821,1.292-1.174,1.057-1.644c-0.117-0.47-0.939-1.057-1.174-1.878c-0.235-0.822,0.117-1.292-0.939-1.527
		c-1.057-0.234-2.818-2.348-2.818-2.348s-1.174-4.814-1.644-5.284c-0.587-0.353-1.526-0.939-1.174-1.292
		c0.352-0.352,1.525-0.469,0.704-1.409c-0.821-0.822-1.526-1.644-1.526-2.231c0-0.587-0.234-1.174-0.587-1.174
		c-0.353-0.118-1.409-2.583-2.583-1.761c-1.174,0.822-1.996,1.644-2.584,2.583c-0.586,0.939-1.996,1.292-1.996,1.292
		s-1.996,0.235-2.23,1.057c-0.117,1.058-1.057,0.704-1.526,0.118c-0.352-0.587-3.64-1.644-3.522-2.231s0.705-2.113,0.705-2.113
		s-1.761-2.114-0.822-2.936c0.939-0.822,0.939-1.644,1.292-1.761c0.352-0.235,1.526-0.705,1.644-1.174
		c0.118-0.47,0.587-2.583,0.118-2.936c-0.47-0.352-1.292-0.117-1.292-0.822s0.352-1.761,0.117-2.114
		c-0.117-0.352-0.705-1.057-0.47-1.292c0.118-0.235,0.705-0.587,0.822-0.705c0-0.234-0.704-1.996-0.234-2.465
		c0.587-0.47,1.057-1.527,1.057-2.231c0-0.587-0.235-1.526,0.235-1.644c0.47-0.235,0.47-1.057,0.47-1.526
		c0-0.587-1.057-0.822-0.353-1.057s1.41-0.118,1.292-0.939c-0.117-0.822-0.587-1.878-0.117-1.996
		c0.47-0.235,0.353-1.409-0.118-1.644c-0.352-0.234-1.996,0.235-2.113,0.47c-0.118,0.235-1.057,0.118-1.057,0.118
		s-3.053,0.47-3.053,0.117c0-0.352,0.118-1.996-0.469-2.583c-0.587-0.587-1.761,0.705-1.761,0.705s-0.705,0.587-0.587,0
		c0.118-0.587,0.705-1.174,0.118-1.409c-0.587-0.235-1.409-0.587-1.879-0.939c-0.352-0.352-1.644-0.704-1.644-1.174
		s0.117-1.761,0-1.879c-0.235-0.235-4.58-3.875-4.814-4.579c-0.235-0.822-0.352-1.174-0.587-1.409s-1.761-0.822-2.113-1.292
		c-0.235-0.47-0.235-1.644-0.822-2.231c-0.587-0.47-3.17,0-3.405-0.352c-0.235-0.353-1.644-2.583-1.996-2.818
		c-0.353-0.353-2.818-1.057-2.231-1.527c0.587-0.587,0.822-0.469,0.47-1.057c-0.353-0.587-1.761-1.878-1.292-2.113
		c0.47-0.118,0.939-0.822,1.057-1.057c0.117-0.234,0.117-0.939-0.235-1.409c-0.47-0.47-1.174-1.409-1.644-2.114
		c-0.47-0.704-1.292-1.057-1.174-1.526c0-0.47,0.118-1.057,0-1.292c-0.117-0.117-1.292-0.117-1.409-0.352
		c-0.118-0.235-0.47-0.822-0.587-1.057c-0.117-0.352-0.469-1.174-0.822-1.526c-0.352-0.235-1.644-1.292-1.644-1.292l-0.118-0.117
		l0.118-27.241"/>
</g>
</a>



<a xlink:href="idaho.html">
<g id="ID">
	<path fill="#288585"  onmouseover="evt.target.setAttribute('fill', '#fce149');"
		 onmouseout="evt.target.setAttribute('fill', '#288585');"  d="M156.648,127.806c-0.235-0.117-0.587-0.705-0.587-0.939c0-0.352,0-5.166,0-5.166s0.705-0.471,0.822-0.588
		c0.118-0.117,0.118-0.939,0.352-1.291c0.235-0.353,0.939-1.174,1.174-1.645c0.235-0.469,0.822-3.17,1.292-3.404
		c0.353-0.234,1.409-0.234,1.526-0.588c0.235-0.352,3.288-4.461,2.818-5.166c-0.47-0.704-1.174-0.704-0.822-1.174
		c0.353-0.353,1.057-1.057,1.174-1.409c0.118-0.353,0.822-1.057,1.292-1.644c0.47-0.588,0.939-1.409,0.939-1.762
		c0-0.469,0-1.526,0.235-1.879c0.235-0.352,0.47-1.878,0.939-2.7c0.47-0.939,2.231-4.579,2.583-4.814s1.174-0.939,1.057-1.878
		c-0.235-0.822-0.47-1.762-0.939-2.466c-0.47-0.705-0.47-1.996-1.527-1.996c-1.057,0.117-1.878-0.705-2.465-1.057
		c-0.587-0.353-2.583-1.292-2.936-2.231c-0.235-0.822-0.822-2.113-0.822-2.113l-0.234-0.47l0,0c0,0,0.234-0.705-0.235-1.057
		c-0.47-0.353-1.879-1.292-1.527-1.644c0.47-0.352,1.409-1.292,1.057-1.878c-0.235-0.587-0.587-1.409-0.587-1.526
		c0-0.118,0.118-1.526-0.117-1.644c-0.235-0.117-0.939-1.174-1.057-1.292c-0.118-0.117-0.939-1.057-0.822-1.644
		c0-0.587,1.057-1.057,0.822-1.409c-0.118-0.47-0.587-1.057-0.705-1.409c-0.118-0.235,0-60,0-67.632h20.431l-0.118,26.888
		l0.118,0.118c0,0,1.292,1.057,1.644,1.292c0.353,0.235,0.705,1.174,0.822,1.526c0.118,0.352,0.47,0.822,0.587,1.057
		c0.117,0.235,1.292,0.118,1.409,0.353c0.235,0.235,0.118,0.822,0,1.292c0,0.47,0.822,0.822,1.174,1.526
		c0.47,0.705,1.174,1.644,1.644,2.113s0.352,1.174,0.235,1.409c-0.118,0.235-0.587,0.939-1.057,1.057
		c-0.47,0.118,0.939,1.409,1.292,2.114c0.352,0.587,0.117,0.587-0.47,1.057c-0.587,0.587,1.878,1.292,2.231,1.526
		c0.352,0.235,1.761,2.466,1.996,2.818c0.235,0.353,2.935-0.117,3.405,0.353s0.47,1.761,0.822,2.231
		c0.234,0.469,1.878,0.939,2.113,1.292c0.235,0.235,0.235,0.587,0.587,1.409c0.353,0.822,4.58,4.462,4.814,4.58
		c0.234,0.235,0,1.409,0,1.878s1.292,0.822,1.644,1.174c0.353,0.352,1.292,0.822,1.879,0.939c0.587,0.235,0,0.822-0.118,1.409
		c-0.117,0.587,0.587,0,0.587,0s1.174-1.292,1.761-0.705c0.587,0.587,0.469,2.231,0.469,2.583c0,0.235,3.053-0.118,3.053-0.118
		s0.939,0.118,1.057-0.117c0.117-0.235,1.761-0.705,2.113-0.47c0.354,0.235,0.588,1.526,0.118,1.644
		c-0.47,0.235,0,1.174,0.117,1.996c0.118,0.822-0.704,0.705-1.292,0.939c-0.705,0.235,0.352,0.47,0.352,1.057
		c0,0.587,0,1.292-0.469,1.527c-0.47,0.235-0.118,1.057-0.235,1.644c0,0.587-0.47,1.761-1.057,2.231
		c-0.587,0.47,0.234,2.231,0.234,2.466s-0.587,0.47-0.822,0.705s0.353,0.939,0.47,1.292c0.118,0.353-0.117,1.409-0.117,2.113
		c0,0.705,0.822,0.587,1.292,0.822c0.47,0.352,0,2.466-0.118,2.936c-0.117,0.469-1.409,0.939-1.644,1.174
		c-0.353,0.235-0.353,0.939-1.292,1.761c-0.939,0.822,0.822,2.936,0.822,2.936s-0.705,1.644-0.705,2.114
		c-0.117,0.587,3.17,1.644,3.522,2.23c0.47,0.587,1.292,0.822,1.644,0.118c0.235-0.822,2.231-1.057,2.231-1.057
		s1.409-0.353,1.996-1.292c0.587-0.939,1.409-1.644,2.583-2.583c1.174-0.822,2.23,1.644,2.583,1.761
		c0.353,0.118,0.587,0.587,0.587,1.174c0,0.587,0.705,1.409,1.527,2.231c0.821,0.822-0.354,1.057-0.705,1.408
		c-0.353,0.354,0.587,0.939,1.174,1.293c0.47,0.352,1.645,5.283,1.645,5.283s1.761,2.113,2.817,2.348
		c1.057,0.235,0.704,0.705,0.939,1.527c0.235,0.821,1.057,1.291,1.175,1.879c0.117,0.586-1.057,0.938-1.057,1.643
		c-0.118,0.822,0.234,1.762,0.703,1.996c0.471,0.235,1.762,1.527,2.114,2.114s0.939-0.704,1.878-1.057
		c0.822-0.353,2.818,2.7,3.054,3.288c0.234,0.704,0.938,1.643,0.821,1.878s-0.234,1.057-0.234,1.409
		c0,0.352,0.587,0.822,1.409,1.174c0.821,0.353-0.587,0.822-0.587,1.174c0,0.354,1.174,0.822,1.879,1.292
		c0.704,0.47,1.643,1.761,1.878,1.996s0.704-1.996,1.526-2.935c0.822-1.058,2.584-0.354,4.109-0.471
		c1.527,0,1.879,0.588,3.523,0.939c1.644,0.47,1.408,0,1.878-0.939c0.353-1.057,0.47-1.057,0.587-1.174s0.939-0.587,1.292-0.587
		c0.47,0,0.117,0.235,0.47,0.587c0.47,0.352,0.234-0.352,0.587-0.705c0.353-0.352,1.761,0.588,2.114,0.705
		c0.469,0.234,0.938-0.234,1.291-0.47c0.352-0.235,0.352,0.353,0.587,0.47s1.175-0.587,1.175-0.587s2.23,0.704,2.465,0.938
		c0.235,0.235,1.527-0.469,1.762-0.586c0.234-0.235,2.348-0.471,2.818-0.471c0.469-0.117,0.704,0.235,0.821,0.588
		c0.118,0.352,0.822,0.352,1.175,0.234c0.234-0.117,0.704-0.469,0.704-0.704s-0.821-0.822-1.057-1.057
		c-0.235-0.235,0.117-1.058,0.587-1.526c0.47-0.353,0.352-1.174,0.352-1.527c0-0.234,0.939-0.704,1.527-1.174
		c0.587-0.469,0.939,0.588,1.408,0.588c0.471,0,0.235,0.586,0.354,0.939c0.117,0.469,0.469,0.704,0.821,1.057
		c0.353,0.469,0.235,0.939,0.353,1.291c0.117,0.353,0.939,0.822,1.408,1.174c0.353,0.353,0.471,0.705,0.822,1.174
		c0.353,0.471,1.762,0.939,1.762,0.939v67.28h-62.701l-61.292-0.117l0.118-48.376c0,0-1.057-0.352-0.587-0.587
		c0.47-0.235,1.057-1.526,1.057-1.526s0.822-1.057,0.822-1.526c0.117-0.587-0.118-1.996,0.117-2.114
		c0.235-0.234,0.47-0.586,0.47-0.704c0-0.117-1.409-1.644-1.057-1.644s1.174-0.47,1.292-0.822c0.118-0.352,0.235-0.822,0.353-0.939
		c0.235-0.117-0.118-0.469-0.353-0.821s-2.348-2.114-2.466-2.114c-0.117,0-0.235,0.471-0.587,0.235
		c-0.235-0.235-0.235-0.704-0.822-0.587C157.823,127.923,157.001,128.04,156.648,127.806z"/>
	<path fill="#FFFFFF" d="M179.78,0.173 M159.584,0h-0.235h-1.174v0.173v1.996h1.174c0-0.352,0-0.587,0-0.939l0,0l0,0l0,0l0,0
		c0-0.47,0-0.822,0-1.057l0,0h0.235V0L159.584,0z M158.175,6.631v2.231h1.174c0-0.47,0-0.822,0-1.174c0-0.235,0-0.352,0-0.587
		c0-0.118,0-0.352,0-0.47H158.175L158.175,6.631z M158.175,13.441v2.231h1.174c0-0.235,0-0.352,0-0.587c0-0.587,0-1.174,0-1.761
		L158.175,13.441L158.175,13.441z M158.175,20.134v2.231h1.174c0-0.235,0-0.587,0-0.822c0-0.47,0-0.939,0-1.409H158.175
		L158.175,20.134z M158.175,26.944v2.231h1.174c0-0.705,0-1.526,0-2.231H158.175L158.175,26.944z M158.175,33.637v2.231h1.174
		c0-0.352,0-0.705,0-1.057c0-0.353,0-0.705,0-1.057v-0.118H158.175L158.175,33.637z M158.175,40.447v2.231h1.174
		c0-0.705,0-1.526,0-2.231H158.175L158.175,40.447z M159.349,47.14h-1.174v2.231h1.174c0-0.47,0-0.939,0-1.526
		C159.349,47.61,159.349,47.375,159.349,47.14L159.349,47.14z M159.349,53.833h-1.174v2.231h1.174c0-0.353,0-0.705,0-1.057
		C159.349,54.655,159.349,54.303,159.349,53.833L159.349,53.833z M159.349,60.643h-1.174v2.231h1.174c0-0.47,0-0.822,0-1.292l0,0
		l0,0C159.349,61.23,159.349,60.878,159.349,60.643L159.349,60.643z M159.349,67.336h-1.174c0,0.47,0,0.587,0.118,0.822
		c0.117,0.118,0.117,0.352,0.352,0.587c0.118,0.234,0.353,0.587,0.353,0.704l0,0l0,0l0.704-0.235l0.353,0.118l0,0l0,0l0,0l0,0l0,0
		l0,0l0,0l0,0l0,0l0,0l0,0l0,0l0,0l0,0l0,0c0-0.118,0-0.118,0-0.235l0,0l0,0l0,0l0,0l0,0l0,0l0,0l0,0l0,0l0,0l0,0l0,0l0,0l0,0l0,0
		l0,0l0,0l0,0l0,0l0,0l0,0l0,0l0,0l0,0l0,0l0,0l0,0l0,0l0,0l0,0c-0.118-0.235-0.353-0.587-0.47-0.939
		c-0.118-0.117-0.235-0.352-0.235-0.47l0,0l0,0l0,0l0,0l0,0l0,0l0,0l0,0l0,0l0,0l0,0l0,0l0,0l0,0l0,0l0,0l0,0l0,0l0,0l0,0l0,0l0,0
		l0,0l0,0l0,0l0,0l0,0l0,0l0,0l0,0l0,0l0,0l0,0l0,0l0,0l0,0l0,0l0,0l0,0C159.349,67.688,159.349,67.571,159.349,67.336
		L159.349,67.336z M160.875,73.089l-0.822,0.705c0.117,0.117,0.117,0.117,0.235,0.235c0,0.117,0,0.352,0,0.822v0.117
		c0,0.118,0,0.235,0,0.353l1.057-0.235v-0.118l0,0l0,0l0,0l0,0l0,0l0,0l0,0l0,0l0,0l0,0l0,0l0,0l0,0l0,0l0,0l0,0l0,0l0,0l0,0l0,0
		l0,0l0,0l0,0l0,0l0,0l0,0l0,0l0,0l0,0l0,0c0,0,0,0,0-0.117l0,0c0-0.235,0-0.939,0-1.292l0,0v-0.118l0,0l0,0l0,0l0,0l0,0l0,0l0,0
		l0,0l0,0l0,0l0,0l0,0l0,0l0,0l0,0l0,0l0,0l0,0l0,0l0,0l0,0l0,0l0,0l0,0l0,0l0,0l0,0l0,0l0,0l0,0l0,0l0,0c0,0,0,0,0-0.117l0,0l0,0
		l0,0l0,0l0,0l0,0l0,0l0,0l0,0l0,0l0,0l0,0l0,0l0,0l0,0l0,0l0,0l0,0l0,0l0,0l0,0l0,0l0,0l0,0l0,0l0,0l0,0l0,0l0,0l0,0l0,0l0,0l0,0
		l0,0l0,0l0,0l0,0l0,0l0,0l0,0l0,0l0,0l0,0l0,0l0,0l0,0l0,0l0,0l0,0l0,0l0,0l0,0l0,0l0,0l0,0l0,0l0,0l0,0l0,0l0,0l0,0l0,0l0,0l0,0
		l0,0l0,0l0,0l0,0l0,0C160.993,73.324,160.875,73.207,160.875,73.089L160.875,73.089z M160.993,79.078l-0.822,0.705
		c0.353,0.352,0.705,0.587,1.057,0.939c0.118,0.118,0.235,0.235,0.353,0.235l0.235-0.235l0.822-0.235
		c0-0.117-0.117-0.234-0.235-0.352l0,0l0,0l0,0l0,0l0,0l0,0l0,0l0,0l0,0l0,0l0,0l0,0l0,0l0,0l0,0l0,0l0,0l0,0l0,0l0,0l0,0l0,0l0,0
		l0,0l0,0l0,0l0,0l0,0l0,0l0,0l0,0l0,0l0,0l0,0l0,0l0,0l0,0l0,0l0,0l0,0l0,0l0,0l0,0l0,0l0,0c-0.235-0.117-0.47-0.352-0.705-0.47
		l0,0l0,0l0,0l0,0l0,0l0,0C161.345,79.43,161.228,79.312,160.993,79.078C160.993,79.195,160.993,79.195,160.993,79.078
		C160.993,79.195,160.993,79.195,160.993,79.078C160.993,79.195,160.993,79.195,160.993,79.078
		C160.993,79.195,160.993,79.195,160.993,79.078C160.993,79.195,160.993,79.195,160.993,79.078
		C160.993,79.195,160.993,79.195,160.993,79.078C160.993,79.195,160.993,79.195,160.993,79.078
		C160.993,79.195,160.993,79.195,160.993,79.078C160.993,79.195,160.993,79.195,160.993,79.078
		C160.993,79.195,160.993,79.195,160.993,79.078L160.993,79.078L160.993,79.078z M164.163,84.596l-0.705,0.822
		c0.587,0.587,1.526,1.057,1.996,1.292l0.587-0.939c-0.353-0.235-0.822-0.47-1.292-0.822l0,0l0,0l0,0l0,0l0,0l0,0l0,0l0,0l0,0l0,0
		l0,0l0,0l0,0l0,0l0,0l0,0l0,0l0,0l0,0l0,0l0,0l0,0l0,0l0,0l0,0l0,0l0,0l0,0l0,0l0,0l0,0l0,0l0,0l0,0l0,0l0,0
		C164.516,84.831,164.398,84.713,164.163,84.596L164.163,84.596z M169.917,87.884l-1.057,0.47c0,0.117,0.117,0.235,0.117,0.352
		c0.118,0.353,0.235,0.705,0.47,1.057c0.118,0.234,0.235,0.352,0.353,0.587l1.057-0.47c0,0,0-0.117-0.118-0.117l0,0l0,0l0,0l0,0l0,0
		l0,0l0,0l0,0l0,0l0,0l0,0l0,0l0,0l0,0l0,0l0,0l0,0l0,0l0,0l0,0l0,0l0,0l0,0l0,0l0,0l0,0l0,0l0,0l0,0l0,0l0,0l0,0l0,0l0,0l0,0l0,0
		l0,0l0,0l0,0l0,0c-0.117-0.118-0.117-0.235-0.234-0.353l0,0l0,0l0,0l0,0l0,0l0,0l0,0l0,0l0,0l0,0l0,0l0,0l0,0l0,0l0,0l0,0l0,0l0,0
		l0,0l0,0l0,0l0,0l0,0l0,0l0,0l0,0l0,0l0,0l0,0l0,0l0,0l0,0l0,0l0,0l0,0l0,0l0,0l0,0l0,0l0,0l0,0l0,0l0,0l0,0l0,0l0,0l0,0l0,0l0,0
		c0-0.117-0.118-0.235-0.118-0.352l0,0l0,0l0,0l0,0l0,0l0,0l0,0l0,0l0,0l0,0l0,0l0,0l0,0l0,0l0,0l0,0l0,0l0,0l0,0l0,0
		c-0.117-0.118-0.117-0.353-0.235-0.47l0,0l0,0C170.034,88.001,169.917,88.001,169.917,87.884L169.917,87.884z M169.212,93.285
		c-0.235,0.352-0.587,1.057-1.057,2.113l1.057,0.47c0-0.117,0.118-0.234,0.118-0.352l0,0l0,0l0,0l0,0l0,0l0,0l0,0l0,0
		c0.352-0.705,0.705-1.292,0.822-1.645L169.212,93.285L169.212,93.285z M166.159,99.626l-0.117,0.234
		c-0.118,0.234-0.118,0.47-0.235,0.587c-0.235,0.353-0.353,0.822-0.353,1.409l1.174,0.117c0-0.352,0.117-0.822,0.235-0.939l0,0l0,0
		l0,0l0,0l0,0l0,0l0,0l0,0l0,0l0,0l0,0l0,0l0,0l0,0l0,0l0,0l0,0l0,0l0,0l0,0l0,0l0,0l0,0l0,0l0,0l0,0l0,0l0,0l0,0l0,0l0,0l0,0
		l-0.47-0.234l0.47,0.234v-0.117l0,0l0,0l0,0l0,0l0,0l0,0c0.117-0.117,0.117-0.352,0.235-0.705l0,0l0,0v-0.117v-0.117
		L166.159,99.626L166.159,99.626z M163.811,105.262c-0.235,0.353-0.353,0.587-0.47,0.938c-0.118,0.118-0.47,0.588-0.705,0.822
		l-0.117,0.117l0.822,0.705c0,0,0,0,0.117-0.117c0.353-0.353,0.705-0.822,0.939-1.174l-0.705-0.354l0.822,0.118l0,0l0,0l0,0l0,0
		c0-0.118,0.117-0.353,0.234-0.47L163.811,105.262L163.811,105.262z M162.167,111.015c-0.352,0.588-0.705,1.174-1.174,1.762
		l0.939,0.704c0.235-0.234,0.353-0.587,0.587-0.938l0,0l0,0l0,0l0,0l0,0l0,0c0.234-0.354,0.352-0.588,0.587-0.939L162.167,111.015
		L162.167,111.015z M157.94,116.181l-0.117,0.471c-0.118,0.352-0.235,0.939-0.353,1.057c0,0.117-0.117,0.234-0.235,0.234
		l0.939,0.705l0,0c0.118-0.117,0.235-0.235,0.235-0.471c0.118-0.234,0.235-0.704,0.352-1.174l0,0l0,0l0,0
		c0-0.117,0.118-0.234,0.118-0.469L157.94,116.181L157.94,116.181z M156.179,122.287h-1.174c0,0.587,0,1.409,0,2.231h1.174
		c0-0.235,0-0.471,0-0.705l0,0l0,0l0,0l0,0l0,0l0,0l0,0l0,0C156.179,123.108,156.179,122.64,156.179,122.287L156.179,122.287z
		 M158.527,127.806h-0.118l0.118,0.47l0,0l-0.118-0.47l0,0c-0.235,0-0.47,0.117-0.705,0.117l0.118,1.174c0.117,0,0.235,0,0.352,0
		c0,0.117,0.118,0.117,0.235,0.235l0,0l0,0c0.352,0.235,0.705,0.353,0.822,0.353c0.353,0,0.705-0.117,1.057-0.471l-0.822-0.821
		l-0.117,0.118l0,0l0,0l0,0l0,0l0,0l0,0l0,0l0,0l0,0l0,0l0,0l0,0l0,0l0,0l0,0l0,0l0,0l0,0l0,0l0,0l0,0l0,0l0,0l0,0l0,0l0,0l0,0l0,0
		l0,0l0,0l0,0l0,0l0,0l0,0l0,0l0,0l0,0l0,0l0,0l0,0l0,0l0,0l0,0l0,0l0,0l0,0l0,0l0,0l0,0l0,0l0,0l0,0l0,0l0,0l0,0l0,0l0,0l0,0l0,0
		l0,0l0,0l0,0l0,0l0,0l0,0l0,0l0,0l0,0l0,0l0,0l0,0l0,0l0,0c0,0-0.118,0-0.118-0.118l0,0l0,0l0,0l0,0l0,0l0,0l0,0l0,0l0,0l0,0l0,0
		l0,0l0,0l0,0l0,0l0,0l0,0l0,0l0,0l0,0l0,0l0,0l0,0l0,0l0,0l0,0l0,0l0,0l0,0l0,0l0,0l0,0l0,0l0,0l0,0l0,0l0,0l0,0l0,0l0,0l0,0l0,0
		l0,0l0,0l0,0l0,0l0,0l0,0l0,0l0,0l0,0l0,0l0,0l0,0l0,0l0,0l0,0l0,0l0,0l0,0l0,0l0,0l0,0l0,0l0,0l0,0l0,0l0,0l0,0l0,0l0,0
		c0,0-0.117-0.117-0.117-0.235c0,0,0,0,0-0.117l0,0l0,0l0,0l0,0l0,0l0,0l0,0l0,0l0,0l0,0c-0.118-0.117-0.118-0.234-0.235-0.234l0,0
		l0,0l0,0l0,0l0,0l0,0l0,0l0,0l0,0l0,0l0,0l0,0l0,0l0,0l0,0l0,0l0,0l0,0l0,0l0,0l0,0l0,0l0,0l0,0l0,0l0,0l0,0l0,0l0,0l0,0l0,0l0,0
		l0,0l0,0l0,0C158.645,127.806,158.645,127.806,158.527,127.806L158.527,127.806L158.527,127.806L158.527,127.806
		C158.645,127.806,158.645,127.806,158.527,127.806L158.527,127.806C158.645,127.806,158.645,127.806,158.527,127.806
		C158.645,127.806,158.645,127.806,158.527,127.806L158.527,127.806C158.645,127.806,158.645,127.806,158.527,127.806
		L158.527,127.806C158.645,127.806,158.645,127.806,158.527,127.806C158.645,127.806,158.645,127.806,158.527,127.806
		L158.527,127.806C158.645,127.806,158.645,127.806,158.527,127.806C158.645,127.806,158.645,127.806,158.527,127.806
		L158.527,127.806C158.645,127.806,158.645,127.806,158.527,127.806C158.645,127.806,158.645,127.806,158.527,127.806
		L158.527,127.806C158.645,127.806,158.645,127.806,158.527,127.806C158.645,127.806,158.645,127.806,158.527,127.806
		C158.645,127.806,158.645,127.806,158.527,127.806C158.645,127.806,158.645,127.806,158.527,127.806
		C158.645,127.806,158.645,127.806,158.527,127.806L158.527,127.806C158.645,127.806,158.645,127.806,158.527,127.806
		C158.645,127.806,158.645,127.806,158.527,127.806C158.645,127.806,158.645,127.806,158.527,127.806
		C158.645,127.806,158.645,127.806,158.527,127.806C158.645,127.806,158.645,127.806,158.527,127.806L158.527,127.806
		C158.645,127.806,158.645,127.806,158.527,127.806L158.527,127.806C158.645,127.806,158.645,127.806,158.527,127.806
		L158.527,127.806C158.645,127.806,158.645,127.806,158.527,127.806C158.645,127.806,158.645,127.806,158.527,127.806
		L158.527,127.806L158.527,127.806L158.527,127.806L158.527,127.806C158.645,127.806,158.645,127.806,158.527,127.806
		L158.527,127.806C158.645,127.806,158.645,127.806,158.527,127.806C158.645,127.806,158.645,127.806,158.527,127.806
		L158.527,127.806C158.645,127.806,158.645,127.806,158.527,127.806C158.645,127.806,158.645,127.806,158.527,127.806
		L158.527,127.806C158.645,127.806,158.527,127.806,158.527,127.806L158.527,127.806L158.527,127.806L158.527,127.806
		L158.527,127.806L158.527,127.806L158.527,127.806L158.527,127.806L158.527,127.806L158.527,127.806L158.527,127.806
		L158.527,127.806L158.527,127.806L158.527,127.806L158.527,127.806L158.527,127.806L158.527,127.806L158.527,127.806
		L158.527,127.806L158.527,127.806L158.527,127.806L158.527,127.806L158.527,127.806L158.527,127.806L158.527,127.806
		L158.527,127.806L158.527,127.806L158.527,127.806L158.527,127.806L158.527,127.806L158.527,127.806L158.527,127.806
		L158.527,127.806L158.527,127.806L158.527,127.806L158.527,127.806L158.527,127.806L158.527,127.806L158.527,127.806
		L158.527,127.806L158.527,127.806L158.527,127.806L158.527,127.806L158.527,127.806L158.527,127.806L158.527,127.806
		L158.527,127.806L158.527,127.806L158.527,127.806L158.527,127.806L158.527,127.806L158.527,127.806L158.527,127.806
		L158.527,127.806L158.527,127.806L158.527,127.806L158.527,127.806L158.527,127.806L158.527,127.806L158.527,127.806
		L158.527,127.806L158.527,127.806L158.527,127.806L158.527,127.806z M161.462,130.624c-0.235,0.352-0.352,0.704-0.469,1.057l0,0
		c-0.118,0-0.235,0.117-0.353,0.117l0.353,1.057c0.117,0,0.234-0.117,0.352-0.117l0,0l0,0l0,0l0,0l0,0l0,0l0,0l0,0l0,0l0,0l0,0l0,0
		l0,0l0,0l0,0l0,0l0,0l0,0l0,0l0,0l0,0l0,0l0,0l0,0l0,0l0,0c0.235-0.117,0.352-0.234,0.47-0.353l0,0l0,0l0,0l0,0l0,0l0,0l0,0l0,0
		l0,0l0,0l0,0l0,0l0,0l0,0l0,0l0,0l0.117-0.117l0,0l0,0l0,0l0,0l0,0l0,0l0,0l0,0l0,0l0,0l0,0l0,0l0,0l0,0l0,0l0,0l0,0l0,0l0,0l0,0
		l0,0l0,0l0,0l0,0l0,0l0,0l0,0l0,0l0,0l0,0l0,0l0,0l0,0l0,0l0,0l0,0l0,0l0,0l0,0l0,0l0,0l0,0l0,0c0-0.118,0-0.118,0.118-0.235
		c0.117-0.234,0.117-0.469,0.235-0.587L161.462,130.624L161.462,130.624z M161.228,136.494h-1.174c0,0.118,0,0.587,0,0.704
		c0,0-0.118,0.354-0.47,0.822l0.939,0.588l0,0c0.234-0.353,0.47-0.822,0.587-1.175l0,0l0,0l0,0l0,0l0,0l0,0l0,0
		C161.228,137.198,161.228,136.847,161.228,136.494L161.228,136.494z M158.762,142.248v2.23h1.174v-2.23H158.762L158.762,142.248z
		 M158.762,149.058v2.231h1.174v-2.231H158.762L158.762,149.058z M158.762,155.751v2.23h1.174v-2.23H158.762L158.762,155.751z
		 M158.762,162.562v2.23h1.174v-2.23H158.762L158.762,162.562z M158.762,169.254v2.23h1.174v-2.23H158.762L158.762,169.254z
		 M158.762,176.063v2.231h1.174c0,0,0-0.235,0-0.587l0,0l0,0l0,0l0,0l0,0l0,0l0,0l0,0l0,0l0,0l0,0l0,0l0,0l0,0l0,0l0,0l0,0l0,0l0,0
		l0,0v-1.527L158.762,176.063L158.762,176.063z M158.762,182.757v2.23h1.174v-2.23H158.762L158.762,182.757z M159.936,189.332v1.175
		h2.231v-1.175c0,0-0.705,0-1.409,0H159.936L159.936,189.332z M166.746,189.332v1.175h2.231v-1.175c0,0-0.469,0-0.939,0l0,0l0,0
		H166.746L166.746,189.332z M284.28,121.112l-0.352,1.057 M285.103,122.169v-0.821 M280.405,118.765l-0.469,0.117l0,0l0,0l0,0l0,0
		l0,0l0,0l0,0l0,0l0,0c0,0,0,0.117,0.117,0.234L280.405,118.765L280.405,118.765z M280.288,116.769l-0.822,0.704l0,0l0,0l0,0l0,0
		l0,0l0,0l0,0l0,0l0,0l0,0l0,0l0,0l0,0l0,0l0,0l0,0l0,0l0,0l0,0l0,0l0,0l0,0l0,0l0,0l0,0l0,0l0,0l0,0l0,0l0,0l0,0l0,0l0,0l0,0l0,0
		l0,0l0,0l0,0l0,0l0,0c0.235,0.235,0.235,0.587,0.235,0.822c0,0,0,0,0,0.117l0,0l0,0l0,0l0,0c0,0,0,0,0,0.118l0,0l0,0l0,0l0,0l0,0
		l0,0l0,0l0,0l0,0l0,0c0,0,0,0,0,0.117l0.704-0.117l0,0l-0.704,0.117v0.117l0.587-0.234l0,0l-0.587,0.234l0.47-0.117l0,0l0,0
		l-0.352,0.352c0,0,0,0,0,0.117l0,0l0,0l0,0l0,0l0,0l0,0l0,0l0,0l0,0l0,0l0,0l0,0l0,0l0,0l0,0l0,0l0,0l0,0l0,0l0,0l0,0l0,0l0,0l0,0
		l0,0l0,0l0,0l0,0l0,0l0,0l0.117,0.118l0,0l0,0l0,0l0,0l0,0l0,0l0,0l0,0l0,0l0,0l0.117,0.117l0.705-0.939
		c-0.118,0-0.118-0.117-0.118-0.117l0,0c0-0.353-0.117-0.939-0.587-1.526H280.288L280.288,116.769z M275.944,114.303
		c-0.117,0.117-0.353,0.235-0.471,0.353c-0.586,0.352-1.174,0.704-1.174,1.408l0,0l0,0c0,0.117,0,0.235,0,0.353
		c0,0.118,0,0.235,0,0.353l1.174,0.117v-0.117l0,0l0,0l0,0l0,0c0-0.117,0-0.234,0-0.234l0,0l0,0l0,0c0-0.118,0-0.118,0-0.118l0,0
		l0,0l0,0l0,0l0,0l0,0l0,0l0,0l0,0l0,0l0,0l0,0l0,0l0,0l0,0l0,0l0,0l0,0l0,0l0,0l0,0l0,0l0,0l0,0l0,0l0,0l0,0l0,0l0,0l0,0l0,0l0,0
		l0,0l0,0l0,0l0,0l0,0l0,0l0,0l0,0l0,0l0,0l0,0l0,0l0,0l0,0l0,0l0,0l0,0l0,0l0,0l0,0l0,0l0,0l0,0l0,0l0,0l0,0l0,0l0,0l0,0l0,0l0,0
		l0,0l0,0l0,0l0,0l0,0l0,0l0,0l0,0l0,0l0,0l0,0l0,0l0,0l0,0l0,0l0,0l0,0l0,0l0,0l0,0l0,0l0,0l0,0l0,0l0,0l0,0l0,0l0,0l0,0l0,0l0,0
		l0,0l0,0l0,0l0,0l0,0l0,0l0,0l0,0l0,0l0,0l0,0l0,0l0,0l0,0l0,0l0,0l0,0l0,0l0,0l0,0l0,0l0,0l0,0l0,0l0,0l0,0l0,0l0,0l0,0l0,0l0,0
		l0,0l0,0l0,0l0,0l0,0l0,0l0,0l0,0l0,0l0,0l0,0l0,0l0,0l0,0l0,0l0,0l0,0l0,0l0,0l0,0l0,0l0,0l0,0l0,0l0,0l0,0l0,0l0,0l0,0l0,0l0,0
		l0,0l0,0l0,0l0,0l0,0l0,0l0,0l0,0l0,0l0,0l0,0l0,0l0,0l0,0l0,0l0,0l0,0l0,0l0,0l0,0l0,0l0,0l0,0l0,0l0,0l0,0l0,0l0,0l0,0l0,0l0,0
		l0,0l0,0l0,0l0,0l0,0l0,0l0,0l0,0l0,0l0,0l0,0l0,0l0,0l0,0l0,0l0,0l0,0l0,0l0,0l0,0l0,0l0,0l0,0l0,0l0,0l0,0l0,0l0,0l0,0l0,0l0,0
		l0,0l0,0l0,0l0,0l0,0l0,0l0,0l0,0l0,0l0,0l0,0l0,0l0,0l0,0l0,0l0,0l0,0l0,0l0,0l0,0l0,0l0,0l0,0l0,0l0,0l0,0l0,0l0,0l0,0l0,0l0,0
		l0,0l0,0l0,0c0.235-0.235,0.588-0.353,0.939-0.587l0,0l0,0l0,0l0,0l0,0l0,0l0,0l0,0l0.118-0.117L275.944,114.303L275.944,114.303z
		 M274.3,119.821L274.3,119.821c-0.117,0.117-0.117,0.117-0.117,0.117s0,0-0.117,0l0,0v0.234l-0.705,0.354
		c0,0.117,0.117,0.234,0.117,0.352l0,0l0,0l0,0l0,0l0,0l0,0l0,0l0,0l0,0l0,0l0,0l0,0l0,0l0,0l0,0l0,0l0,0l0,0l0,0l0,0l0,0l0,0l0,0
		l0,0l0,0l0,0l0,0l0,0l0,0l0,0l0,0l0,0l0,0l0,0l0,0l0,0l0,0l0,0l0,0l0,0l0,0l0,0l0,0l0,0l0,0l0,0l0,0l0,0l0,0l0,0l0,0l0,0l0,0l0,0
		l0,0l0,0l0,0l0,0l0,0l0,0l0,0l0,0l0,0l0,0l0,0l0,0l0,0l0,0l0,0l0,0l0,0l0,0l0,0l0,0l0,0l0,0l0,0l0,0l0,0l0,0l0,0l0,0l0,0l0,0l0,0
		l0,0l0,0l0,0l0,0l0,0l0,0l0,0l0,0l0,0l0,0l0,0l0,0l0,0l0,0l0,0l0,0l0,0l0,0l0,0l0,0l0,0l0,0l0,0l0,0l0,0l0,0l0,0l0,0l0,0l0,0l0,0
		l0,0l0,0l0,0l0,0l0,0l0,0l0,0l0,0l0,0l0,0l0,0l0,0l0,0l0,0l0,0l0,0l0,0l0,0l0,0l0,0l0,0l0,0l0,0l0,0l0,0l0,0l0,0l0,0l0,0l0,0l0,0
		l0,0l0,0l0,0l0,0l0,0l0,0l0,0l0,0l0,0l0,0l0,0l0,0l0,0l0,0l0,0l0,0l0,0l0,0l0,0l0,0l0,0l0,0l0,0l0,0l0,0l0,0l0,0l0,0l0,0
		c0.118,0,0.118,0,0.235,0.117l0.118-0.352l0,0l-0.118,0.352c0.118,0,0.118,0,0.235,0l0,0l0,0l0,0l0,0l0,0l0,0l0,0l0,0l0,0l0,0l0,0
		l0,0l0,0l0,0l0,0l0,0l0,0l0,0l0,0l0,0l0,0l0,0l0,0l0,0l0,0l0,0l0,0l0,0l0,0l0,0l0,0l0,0l0,0l0,0l0,0l0,0l0,0l0,0l0,0l0,0l0,0l0,0
		l0,0l0,0l0,0l0,0l0,0l0,0l0,0l0,0l0,0l0,0l0,0l0,0l0,0l0,0l0,0l0,0l0,0l0,0l0,0l0,0l0,0l0,0l0,0l0,0l0,0l0,0l0,0l0,0l0,0l0,0l0,0
		l0,0l0,0l0,0l0,0l0,0l0,0l0,0l0,0l0,0l0,0l0,0l0,0l0,0l0,0l0,0l0,0l0,0l0,0l0,0l0,0l0,0l0,0l0,0l0,0l0,0l0,0l0,0l0,0l0,0l0,0l0,0
		l0,0l0,0l0,0l0,0c0.117,0,0.117,0,0.234,0l-0.117-0.469l0,0l0.117,0.469l0,0l0,0c0,0,0,0,0.117,0l0,0l0,0l0,0l0,0l0,0l0,0l0,0l0,0
		l0,0l0,0c0.117,0,0.117-0.117,0.235-0.117l0,0l0,0l0,0l0,0l0,0l0,0l0,0l0,0l0,0l0,0l0,0l0,0c0.117-0.117,0.117-0.117,0.234-0.234
		L274.3,119.821L274.3,119.821z M274.535,120.526L274.535,120.526L274.535,120.526L274.535,120.526L274.535,120.526L274.535,120.526
		z M268.312,121.112l-0.117,0.117h0.117V121.112L268.312,121.112z M267.489,119.704l-0.352,1.057c0.117,0,0.234,0.117,0.352,0.117
		c0.354,0.117,0.705,0.234,0.705,0.353l0,0l0,0l0,0l0,0l0,0l0,0l0,0l0,0l0.117-0.118l0,0l0.117-0.117v0.235
		c0.235,0,0.471-0.118,0.822-0.235l-0.469-1.057c-0.118,0-0.235,0.117-0.354,0.117C268.194,120.056,267.96,119.938,267.489,119.704
		L267.489,119.704z M262.794,120.408l-0.235,0.47c0.117,0,0.117,0,0.235,0V120.408L262.794,120.408z M261.619,119.234l-0.353,1.057
		c0,0,0,0,0.117,0l0,0l0,0l0,0l0,0l0,0l0,0l0,0l0,0l0,0l0,0l0,0l0,0c0.235,0.117,0.471,0.235,0.705,0.353s0.352,0.234,0.587,0.234
		l0.235-0.47l0,0l0.117-0.117l0.234,0.704c0.117,0,0.117,0,0.235-0.117l-0.353-0.822l0.117-0.234l0,0l0,0l0,0l0,0
		c-0.117,0-0.234-0.117-0.352-0.234C262.323,119.469,261.972,119.352,261.619,119.234L261.619,119.234z M256.923,120.526
		c-0.117,0.234-0.235,0.469-0.471,1.174c-0.117,0.117-0.117,0.352-0.234,0.469c0,0.118,0,0.118-0.117,0.235l0,0l0,0l0,0l0.47,0.235
		l0.353,0.469l0,0l0,0l0,0l0,0l0,0l0,0l0,0l0,0l0,0l0,0l0,0l0,0l0,0l0,0l0,0l0,0l0,0l0,0l0,0l0,0l0,0l0,0l0,0l0,0l0,0l0,0l0,0l0,0
		l0,0l0,0l0,0l0,0l0,0l0,0l0,0l0,0l0,0l0,0l0,0l0,0l0,0l0,0l0,0l0,0l0,0l0,0l0,0l0,0l0,0l0,0l0,0l0,0l0,0l0,0l0,0l0,0l0,0l0,0l0,0
		l0,0l0,0l0,0l0,0l0,0l0,0l0,0l0,0l0,0l0,0l0,0l0,0l0,0l0,0l0,0l0,0c0,0,0,0,0-0.117l0,0v-0.117l0,0l0,0l0,0l0,0l0,0l0,0l0,0l0,0
		l0,0l0,0c0-0.117,0-0.117,0.117-0.234c0-0.117,0.117-0.235,0.117-0.353l0,0l0,0l0,0l0,0l0,0l0,0l0,0l0,0l0,0l0,0l0,0l0,0l0,0l0,0
		l0,0l0,0l0,0l0,0l0,0l0,0l0,0l0,0l0,0l0,0l0,0l0,0l0,0l0,0l0,0l0,0c0.234-0.587,0.353-0.822,0.353-0.939L256.923,120.526
		L256.923,120.526z M250.582,120.878l-0.118,1.174c0,0,0,0,0.118,0l0,0l0,0c0.117,0,0.235,0,0.353,0l0,0
		c0.352,0,0.587,0.117,0.939,0.117l0,0l0,0l0,0l0,0l0,0l0,0l0,0l0,0l0,0l0,0l0,0l0,0l0,0l0,0l0,0l0,0l0,0l0,0l0,0l0,0l0,0l0,0l0,0
		l0,0l0,0l0,0l0,0l0,0l0,0l0,0l0,0l0,0l0,0l0,0l0,0l0,0l0,0l0,0l0,0l0,0l0,0l0,0l0,0l0,0l0,0l0,0l0,0l0,0l0,0l0,0l0,0l0,0l0,0l0,0
		l0,0l0,0l0,0l0,0l0,0l0,0l0,0l0,0l0,0l0,0c0,0,0,0,0.117,0c0,0,0,0,0.117,0l0,0l0,0l0,0l0,0l0,0l0,0l0,0l0,0l0,0l0,0l0,0l0,0l0,0
		l0,0l0,0l0,0l0,0l0,0l0,0l0,0l0,0l0,0l0,0l0,0l0,0l0,0c0.117,0,0.234,0,0.352,0l0.118-1.174c-0.118,0-0.353,0-0.47,0h-0.117h-0.117
		c-0.353,0-0.705,0-1.175-0.117H250.582L250.582,120.878z M246.12,123.931l-0.117,0.353c0,0.117-0.117,0.235-0.117,0.353
		c0.352,0.352,0.586,0.704,0.704,0.821l0,0l0,0l0,0l0,0l0,0l0,0l0,0l0,0v0.118l0,0l0,0l0,0l0,0l0,0l0,0l0,0l0,0l0,0l0,0l0,0l0,0l0,0
		l0,0l0,0l0,0l0,0l0,0l0,0l0,0l0,0l0,0l0,0l0,0l0,0l0,0l0,0l0,0l0,0l0,0l0,0l0,0l0,0l0,0l0,0c0,0,0.117,0,0.117-0.118l0,0l0,0l0,0
		l0,0l0,0c0,0,0,0,0-0.117l0,0c0.118-0.235,0.235-0.47,0.353-0.939l0,0v-0.117l0,0l-0.234-0.118l0,0l0,0L246.12,123.931
		L246.12,123.931z M242.95,121.935C242.95,121.935,242.95,122.052,242.95,121.935l0.587,0.705L242.95,121.935L242.95,121.935z
		 M243.419,119.704l-0.586,0.939c0.234,0.117,0.469,0.234,0.704,0.352l0,0l0,0l0,0l0,0l0,0l0,0l0,0l0,0l0,0l0,0l0,0l0,0l0,0l0,0l0,0
		l0,0l0,0l0,0l0,0l0,0l0,0l0,0l0,0l0,0l0,0l0,0l0,0l0,0l0,0l0,0l0,0l0,0l0,0l0,0l0,0l0,0l0,0l0,0l0,0l0,0l0,0l0,0l0,0l0,0l0,0l0,0
		l0,0l0,0l0,0l0,0l0,0l0,0l0,0l0,0l0,0l0,0l0,0l0,0l0,0l0,0l0,0l0,0l0,0l0,0l0,0l0,0l0,0l0,0l0,0l0,0l0,0l0,0l0,0l0,0l0,0l0,0l0,0
		l0,0l0,0l0,0l0,0l0,0l0,0l0,0l0,0l0,0l0,0l0,0l0,0l0,0l0,0l0,0l0,0l0,0l0,0l0,0l0,0l0,0l0,0l0,0l0,0
		c0.117,0.117,0.117,0.117,0.117,0.235l0,0l0,0l0,0l0,0l0,0l0,0l0,0l0,0l0,0l0,0l0,0l0,0l0,0l0,0l0,0l0,0l0,0l0,0l0,0l0,0l0,0l0,0
		l0,0l0,0l0,0l0,0l0,0l0,0l0,0l0,0l0,0l0,0l0,0l0,0l0,0l0,0l0,0l0,0c0,0.117-0.117,0.234-0.235,0.234l0,0l0,0l0,0l0,0l0,0l0,0l0,0
		l0,0l0,0l0,0l0,0l0,0c-0.117,0.118-0.352,0.235-0.469,0.353l0.587,0.705l0,0l0.117,0.234l0,0l0.118-0.117
		c0.352-0.235,1.057-0.705,0.938-1.527c0-0.234-0.117-0.821-0.938-1.174C243.772,119.938,243.537,119.821,243.419,119.704
		L243.419,119.704z M241.188,114.067l-0.939,0.705c0.47,0.704,0.939,1.408,1.057,1.762l0,0l0,0l0,0l0,0l0,0l0,0l0,0l0,0l0,0l0,0l0,0
		l0,0l0,0l0,0l0,0l0,0l0,0l0,0l0,0l0,0l0,0l0,0l0,0l0,0l0,0l0,0l0,0l0,0l0,0l0,0c0,0,0,0.117,0.117,0.117l1.057-0.471v-0.117
		C242.245,115.712,241.776,114.772,241.188,114.067L241.188,114.067z M236.727,114.067l-0.234,0.117
		c0.117,0.118,0.117,0.118,0.234,0.118l0,0l0,0l0,0l0,0l0,0l0,0l0,0l0,0l0,0l0,0l0,0l0,0l0,0l0,0l0,0l0,0l0,0l0,0l0,0l0,0l0,0l0,0
		l0,0l0,0l0,0l0,0l0,0l0,0l0,0l0,0l0,0l0,0l0,0l0,0l0,0l0,0l0,0l0,0l0,0l0,0l0,0l0,0l0,0l0,0l0,0l0,0l0,0l0,0c0,0,0,0,0.118,0
		L236.727,114.067L236.727,114.067z M236.022,112.071l-0.822,0.822c0.47,0.47,1.057,1.057,1.174,1.409l0,0l0,0l0,0l0,0l0,0l0,0
		l0.235-0.118l0,0l0.704-0.469l0,0l0,0C237.079,113.011,236.257,112.188,236.022,112.071L236.022,112.071z M234.966,106.671
		l-0.939,0.704c0.234,0.235,0.47,0.587,0.587,0.821l0,0l0,0l0,0l0,0l0,0l0,0l0,0l0,0l0,0l0,0l0,0l0,0l0,0l0,0l0,0l0,0l0,0l0,0l0,0
		l0,0l0,0l0,0l0,0l0,0l0,0l0,0l0,0l0,0l0,0l0,0c0,0.118,0.117,0.118,0.117,0.235l0,0l0,0l0,0l0,0l0,0l0,0l0,0l0,0l0,0l0,0l0,0l0,0
		l0,0l0,0l0,0l0,0l0,0l0,0l0,0l0,0l0,0l0,0l0,0l0,0l0,0l0,0l0,0l0,0l0,0l0,0l0,0l0,0l0,0l0,0l0,0l0,0l0,0l0,0l0,0l0,0l0,0l0,0
		c0,0.235-0.117,0.47-0.47,0.704l0.705,0.822c0.352-0.352,0.939-0.939,0.704-1.879c-0.117-0.469-0.47-0.821-0.704-1.174
		C235.083,106.905,234.966,106.788,234.966,106.671L234.966,106.671z M230.738,102.091l-0.47,0.353l-0.469,0.118l0,0
		c0,0.117,0,0.234,0,0.234l0,0l0,0l0,0l0,0l0,0l0,0l0,0l0,0l0,0l0,0l0,0l0,0l0,0l0,0c0,0,0.117,0.234,0.352,0.47
		c0.234,0.234,0.587,0.704,1.057,1.057l0.705-0.822C231.325,102.796,230.738,102.091,230.738,102.091l-0.47,0.353l0,0
		L230.738,102.091L230.738,102.091z M228.038,95.985l-0.822,0.705c0.117,0.117,0.234,0.234,0.47,0.352l0,0l0,0l0,0l0,0l0,0l0,0l0,0
		l0,0c0.235,0.117,0.47,0.353,0.587,0.471l0,0l0,0l0,0l0,0l0,0l0,0l0,0l0,0l0,0l0,0l0,0l0,0l0,0l0,0l0,0l0,0l0,0l0,0l0,0l0,0l0,0
		l0,0l0,0l0,0l0,0l0,0l0.117,0.117l0,0l0,0l0,0l0,0l0,0l0,0l0,0l0,0l0,0l0,0l0,0l0,0l0,0l0,0l0,0l0,0l0,0l0,0l0,0l0,0l0,0l0,0l0,0
		l0,0l0,0l0,0l0,0l0,0l0,0l0,0l0,0l0,0l0,0l0,0l0,0l0,0l0,0l0,0l0,0l0,0l0,0l0,0l0,0l0,0l0,0l0,0l0,0l0,0l0,0l0,0l0,0l0,0l0,0l0,0
		l0,0l0,0l0,0l0,0l0,0l0,0l0,0l0,0l0,0l0,0l0,0l0,0l0,0l0,0l0,0l0,0l0,0l0,0l0,0l0,0l0,0l0,0l0,0l0,0l0,0l0,0l0,0l0,0l0,0l0,0l0,0
		l0,0l0,0l0,0l0,0l0,0l0,0l0,0l0,0l0,0l0,0l0,0l0,0l0,0l0,0l0,0l0,0l0,0l0,0l0,0l0,0l0,0l0,0l0,0l0,0l0,0l0,0l0,0l0,0l0,0l0,0l0,0
		l0,0l0,0l0,0l0,0l0,0l0,0l0,0l0,0l0,0l0,0l0,0l0,0l0,0l0,0l0,0l0,0l0,0c0,0.117,0.118,0.234,0.118,0.234l1.057-0.353
		c-0.235-0.587-0.47-0.938-0.704-1.174c-0.118-0.118-0.235-0.118-0.353-0.235C228.39,96.338,228.038,96.103,228.038,95.985
		L228.038,95.985z M225.925,90.35l-0.117,0.822l0,0v0.235l0,0c0.234,0.118,0.469,0.47,0.469,0.939c0,0.117,0,0.235,0,0.47l0,0l0,0
		l0,0l0,0l0,0l0,0l0,0l0,0l0,0l0,0l0,0l0,0l0,0l0,0l0,0l0,0l0,0l0,0l0,0l0,0l0,0c0,0.117,0.117,0.235,0.117,0.235l1.057-0.47
		c0-0.118,0-0.118,0-0.118C227.333,91.524,226.746,90.584,225.925,90.35L225.925,90.35L225.925,90.35z M225.808,91.171l-0.235,0.118
		l0,0l0,0l0,0l0,0l0,0l0,0l0,0l0,0l0,0l0,0l0,0l0,0l0,0l0,0l0,0l0,0l0,0l0,0l0,0l0,0l0,0l0,0l0,0l0,0l0,0c0,0,0,0,0.117,0l0,0l0,0
		l0,0l0,0l0,0l0,0l0,0l0,0l0,0l0,0l0,0l0,0l0,0l0,0l0,0l0,0l0,0l0,0l0,0l0,0l0,0l0,0l0,0l0,0l0,0l0,0l0,0l0,0l0,0l0,0
		L225.808,91.171L225.808,91.171z M221.462,89.645c-0.704,0.587-1.291,1.174-1.643,1.879l0.938,0.587
		c0.118-0.118,0.118-0.235,0.235-0.352l0,0l0,0l0,0l0,0l0,0l0,0l0,0l0,0l0,0l0,0l0,0l0,0l0,0l0,0l0,0l0,0l0,0l0,0l0,0l0,0l0,0l0,0
		l0,0l0,0l0,0l0,0l0,0l0,0l0,0l0,0l0,0l0,0l0,0l0,0l0,0l0,0l0,0l0,0l0,0l0,0l0,0l0,0l0,0l0,0l0,0l0,0l0,0l0,0l0,0l0,0l0,0l0,0l0,0
		l0,0l0,0l0,0l0,0l0,0l0,0l0,0l0,0l0,0l0,0l0,0l0,0l0,0l0,0l0,0l0,0l0,0l0,0l0,0l0,0l0,0l0,0l0,0l0,0l0,0l0,0l0,0l0,0l0,0l0,0l0,0
		l0,0l0,0l0,0l0,0l0,0l0,0l0,0l0,0l0,0l0,0l0,0l0,0l0,0l0,0l0,0l0,0l0,0l0,0l0,0l0,0l0,0l0,0l0,0l0,0l0,0l0,0l0,0l0,0l0,0l0,0l0,0
		l0,0l0,0l0,0l0,0l0,0l0,0l0,0l0,0l0,0l0,0l0,0l0,0l0,0l0,0l0,0l0,0l0,0l0,0l0,0l0,0l0,0l0,0l0,0l0,0l0,0l0,0l0,0l0,0l0,0l0,0l0,0
		l0,0l0,0l0,0l0,0l0,0l0,0l0,0l0,0l0,0l0,0l0,0l0,0l0,0l0,0l0,0l0,0l0,0l0,0l0,0l0,0l0,0l0,0l0,0l0,0l0,0l0,0l0,0l0,0l0,0l0,0l0,0
		l0,0l0,0l0,0l0,0l0,0l0,0l0,0l0,0l0,0l0,0l0,0l0,0l0,0l0,0l0,0l0,0l0,0l0,0l0,0c0.117-0.118,0.352-0.353,0.587-0.47L221.462,89.645
		L221.462,89.645z M216.062,93.285c-0.47,0.235-0.705,0.587-0.822,1.057l0,0l0,0l0,0h0.117l-0.352,0.587l0.117,0.117l0,0l0,0l0,0
		l0,0l0,0c0.117,0,0.117,0.117,0.234,0.117l0,0l0,0l0,0l0,0l0,0l0,0l0,0l0.117-0.704h0.118v0.704c0.235,0,0.47-0.117,0.587-0.469
		l0,0l0,0l0,0l0,0l0,0l0,0l0,0l0,0l0,0l0,0l0,0l0,0l0,0l0,0l0,0l0,0l0,0l0,0l0,0l0,0l0,0l0,0l0,0l0,0l0,0l0,0l0,0l0,0l0,0l0,0l0,0
		l0,0l0,0l0,0l0,0c0,0,0-0.117,0.117-0.117l0,0l0,0l0,0l0,0l0,0l0,0l0,0l0,0l0,0l0,0l0,0l0,0l0,0l0,0l0,0l0,0l0,0l0,0l0,0l0,0l0,0
		l0,0l0,0l0,0l0,0l0,0l0,0l0,0l0,0l0,0l0,0l0,0l0,0l0,0l0,0l0,0l0,0l0,0l0,0l0,0l0,0l0,0l0,0l0,0l0,0l0,0l0,0l0,0l0,0l0,0l0,0l0,0
		l0,0l0,0l0,0l0,0l0,0l0,0l0,0l0,0l0,0l0,0l0,0l0,0l0,0l0,0l0,0l0,0l0,0l0,0l0,0l0,0l0,0l0,0l0,0l0,0l0,0l0,0l0,0l0,0l0,0l0,0
		c0,0,0.117-0.118,0.235-0.118L216.062,93.285L216.062,93.285z M211.13,92.346L211.13,92.346L211.13,92.346L211.13,92.346
		L211.13,92.346L211.13,92.346L211.13,92.346L211.13,92.346L211.13,92.346L211.13,92.346L211.13,92.346L211.13,92.346L211.13,92.346
		L211.13,92.346c0,0.117,0,0.117,0.117,0.235l0.235-0.118L211.13,92.346L211.13,92.346z M211.717,90.467
		c-0.117,0.235-0.235,0.587-0.352,0.939l0,0l0,0l0,0l0,0l0,0l0,0l0,0l0,0l0,0l0,0c-0.118,0.353-0.235,0.822-0.352,0.939h0.234l0,0
		l0.822,0.117l0,0c0-0.117,0.235-0.704,0.587-1.644L211.717,90.467L211.717,90.467z M212.304,85.418L212.304,85.418L212.304,85.418
		L212.304,85.418L212.304,85.418L212.304,85.418L212.304,85.418L212.304,85.418L212.304,85.418L212.304,85.418L212.304,85.418
		L212.304,85.418L212.304,85.418L212.304,85.418L212.304,85.418L212.304,85.418L212.304,85.418L212.304,85.418L212.304,85.418
		L212.304,85.418L212.304,85.418L212.304,85.418l-0.118,0.118l0,0l0,0l0,0l0,0l0,0l0,0l0,0l0,0l0,0l0,0l0,0l0,0l0,0l0,0l0,0l0,0l0,0
		l0.47,0.352L212.304,85.418L212.304,85.418z M213.126,84.948c-0.117,0.118-0.235,0.118-0.352,0.118
		c-0.235,0.117-0.353,0.117-0.47,0.235l0.352,0.587l0,0l0,0l-0.47-0.235l0,0l0,0l0,0l0,0l0,0l0,0l0,0l0,0l0,0
		c0,0.118-0.117,0.118-0.117,0.235c-0.118,0.235-0.235,0.353-0.353,0.705l0.939,0.587c0.235-0.352,0.353-0.587,0.47-0.822
		c0,0,0,0,0-0.117c0,0,0.117,0,0.117-0.118c0.118-0.118,0.235-0.118,0.47-0.235L213.126,84.948L213.126,84.948z M212.891,80.486
		L212.891,80.486L212.891,80.486L212.891,80.486L212.891,80.486L212.891,80.486L212.891,80.486L212.891,80.486L212.891,80.486
		L212.891,80.486L212.891,80.486L212.891,80.486L212.891,80.486L212.891,80.486L212.891,80.486L212.891,80.486L212.891,80.486
		L212.891,80.486L212.891,80.486L212.891,80.486L212.891,80.486C212.891,80.604,212.891,80.604,212.891,80.486
		C212.891,80.604,212.891,80.604,212.891,80.486C212.891,80.604,212.891,80.604,212.891,80.486L212.891,80.486
		C212.891,80.604,212.891,80.604,212.891,80.486L212.891,80.486C212.891,80.604,212.891,80.604,212.891,80.486L212.891,80.486
		C212.891,80.604,212.891,80.604,212.891,80.486L212.891,80.486c0,0.235,0.118,0.353,0.235,0.47l0,0l0,0l0,0l0,0l0,0l0,0l0,0l0,0
		l0,0l0,0l0,0l0,0l0,0l0,0l0,0l0,0l0,0l0,0l0,0l0,0l0,0l0,0l0,0l0,0l0,0l0,0l0,0l0,0l0,0l0,0l0,0l0,0l0,0l0,0l0,0l0,0l0,0l0,0l0,0
		l0,0l0,0l0,0l0,0l0,0l0,0l0,0l0,0l0,0l0,0l0,0l0,0l0,0l0,0l0,0l0,0l0,0l0,0l0,0l0,0l0,0l0,0l0.235-0.47H212.891L212.891,80.486z
		 M213.009,79.665v0.118l0,0l0,0l0,0l0,0c0,0.117,0,0.352,0,0.47l0,0l0,0l0,0l0,0l0,0l0,0l0,0l0,0l0,0l0,0l0,0l0,0l0,0l0,0l0,0l0,0
		l0,0l0,0l0,0l0,0l0,0l0,0l0,0l0,0l0,0l0,0l0,0l0,0l0,0l0,0l0,0l0,0l0,0l0,0l0,0l0,0l0,0l0,0l0,0l0,0l0,0l0,0l0,0l0,0l0,0l0,0l0,0
		l0,0l0,0l0,0l0,0l0,0l0,0l0,0l0,0l0,0l0,0l0,0l0,0l0,0l0,0l0,0l0,0l0,0l0,0l0,0l0,0l0,0l0,0l0,0l0,0l0,0l0,0l0,0l0,0l0,0h0.587l0,0
		l0,0l-0.235,0.469l0,0l0,0l0,0l0,0l0,0l0,0l0,0l0,0l0,0l0,0l0,0l0,0l0,0l0,0l0,0l0,0l0,0l0,0l0,0l0,0l0,0l0,0l0,0l0,0l0,0l0,0l0,0
		l0,0l0,0l0,0l0,0l0,0l0,0l0,0l0,0l0,0l0,0l0,0l0,0l0,0l0,0l0,0l0,0l0,0c0.117,0,0.117,0,0.235,0.118h0.117l0,0l0,0l0,0l0,0l0,0l0,0
		c0,0,0,0,0.118,0l0.352-1.057h-0.117c0-0.118,0-0.235,0-0.353L213.009,79.665L213.009,79.665z M213.126,73.911L213.126,73.911
		L213.126,73.911L213.126,73.911L213.126,73.911L213.126,73.911L213.126,73.911L213.126,73.911L213.126,73.911L213.126,73.911
		L213.126,73.911L213.126,73.911L213.126,73.911L213.126,73.911L213.126,73.911L213.126,73.911L213.126,73.911L213.126,73.911
		L213.126,73.911L213.126,73.911L213.126,73.911L213.126,73.911L213.126,73.911L213.126,73.911L213.126,73.911L213.126,73.911
		L213.126,73.911L213.126,73.911L213.126,73.911L213.126,73.911L213.126,73.911L213.126,73.911L213.126,73.911L213.126,73.911
		L213.126,73.911L213.126,73.911L213.126,73.911L213.126,73.911L213.126,73.911L213.126,73.911L213.126,73.911L213.126,73.911
		L213.126,73.911C213.126,73.911,213.009,73.911,213.126,73.911C213.009,73.911,213.009,73.911,213.126,73.911L213.126,73.911
		C213.009,73.911,213.009,73.911,213.126,73.911C213.009,73.911,213.009,73.911,213.126,73.911
		C213.009,73.911,213.009,73.911,213.126,73.911L213.126,73.911C213.009,73.911,213.009,74.029,213.126,73.911L213.126,73.911
		C213.009,74.029,213.009,74.029,213.126,73.911L213.126,73.911c-0.117,0.118-0.117,0.235-0.235,0.353l0.587,0.117L213.126,73.911
		L213.126,73.911z M213.478,73.559l-0.117,0.117l0,0l0,0l0,0l0,0l0,0l0,0l0,0l0,0l0,0l0,0l0,0l0,0l0,0l0,0l0,0l0,0l0,0l0,0
		l-0.118,0.118l0,0l0,0l0,0l0,0l0,0l0,0l0,0l0,0l0,0l0,0l0.353,0.47l0,0l0,0l-0.587-0.118c0,0.118,0,0.118,0,0.235l0,0l0,0l0,0l0,0
		l0,0l0,0l0,0l0,0l0,0l0,0l0,0l0,0l0,0l0,0l0,0l0,0l0,0l0,0l0,0l0,0l0,0l0,0l0,0l0,0l0,0l0,0l0,0l0,0l0,0l0,0
		c0,0.353,0.117,0.705,0.234,1.057l1.057-0.352c-0.118-0.352-0.118-0.587-0.118-0.705c0.118-0.117,0.235-0.235,0.235-0.352
		L213.478,73.559L213.478,73.559z M215.356,67.218c-0.234,0.118-0.469,0.118-0.704,0.118l-0.235,0.235l0,0l-0.117,0.117
		c0,0,0.117,0,0.117,0.118l0,0l0.118,0.117l0,0l0,0l0,0l0,0l0,0l0,0l0,0l0,0l0,0l0,0l0,0l0,0c0.117,0.118,0.235,0.235,0.235,0.47
		l0,0l0,0l0,0l0,0c0,0,0,0,0,0.117c0,0.235,0,0.353,0,0.587l0,0l0,0l0,0l0,0l0,0l0,0l0,0l0,0l0,0l0,0l0,0l0,0l0,0l0,0l0,0l0,0l0,0
		l0,0l0,0l0,0l0,0l0,0l0,0l0,0l0,0l0,0l0,0l0,0l0,0l0,0l0,0l0,0l0,0l0,0l0,0l0,0l0,0l0,0l0,0l0,0l0,0l0,0v0.117l1.057,0.235
		c0.117-0.352,0.117-0.822,0.117-1.174v-0.118C215.944,67.923,215.592,67.453,215.356,67.218L215.356,67.218z M214.3,67.571
		L214.3,67.571L214.3,67.571L214.3,67.571L214.3,67.571L214.3,67.571L214.3,67.571L214.3,67.571L214.3,67.571L214.3,67.571
		L214.3,67.571L214.3,67.571L214.3,67.571L214.3,67.571L214.3,67.571L214.3,67.571L214.3,67.571L214.3,67.571L214.3,67.571
		L214.3,67.571L214.3,67.571L214.3,67.571L214.3,67.571L214.3,67.571L214.3,67.571L214.3,67.571L214.3,67.571L214.3,67.571
		L214.3,67.571L214.3,67.571L214.3,67.571L214.3,67.571L214.3,67.571L214.3,67.571C214.3,67.571,214.183,67.571,214.3,67.571
		L214.3,67.571L214.3,67.571L214.3,67.571L214.3,67.571L214.3,67.571C214.183,67.571,214.183,67.571,214.3,67.571L214.3,67.571
		L214.3,67.571L214.3,67.571C214.183,67.571,214.183,67.571,214.3,67.571L214.3,67.571C214.183,67.571,214.183,67.571,214.3,67.571
		L214.3,67.571L214.3,67.571C214.183,67.571,214.183,67.571,214.3,67.571L214.3,67.571L214.3,67.571
		C214.183,67.571,214.183,67.571,214.3,67.571L214.3,67.571C214.183,67.571,214.183,67.571,214.3,67.571L214.3,67.571L214.3,67.571
		L214.3,67.571C214.183,67.571,214.183,67.571,214.3,67.571L214.3,67.571C214.183,67.571,214.183,67.571,214.3,67.571L214.3,67.571
		C214.183,67.571,214.183,67.571,214.3,67.571C214.183,67.571,214.183,67.571,214.3,67.571L214.3,67.571L214.3,67.571
		C214.183,67.571,214.183,67.571,214.3,67.571L214.3,67.571C214.183,67.571,214.183,67.571,214.3,67.571L214.3,67.571
		C214.183,67.571,214.183,67.571,214.3,67.571L214.3,67.571C214.183,67.571,214.183,67.571,214.3,67.571L214.3,67.571L214.3,67.571
		C214.183,67.571,214.183,67.571,214.3,67.571C214.183,67.571,214.183,67.571,214.3,67.571L214.3,67.571
		C214.183,67.571,214.183,67.571,214.3,67.571L214.3,67.571c-0.118,0.117-0.118,0.117-0.118,0.117l0,0l0,0l0,0l0,0l0,0l0,0l0,0l0,0
		l0,0l0,0l0,0l0,0l0,0l0,0l0,0l0,0l0,0l0,0l0,0c0,0,0,0.118,0.118,0.118l0.117-0.118L214.3,67.571L214.3,67.571z M215.356,61.7
		c-0.234,0-0.352,0-0.586,0l0.117,1.057c0.118,0,0.235,0,0.352,0l0,0l0,0l0,0l0,0l0,0l0,0l0,0l0,0l0,0l0,0l0,0l0,0l0,0l0,0l0,0l0,0
		l0,0l0,0l0,0l0,0l0,0l0,0c0.117,0,0.234,0,0.353,0.117l0,0l0,0l0,0l0,0l0,0l0,0l0,0l0,0l0,0l0,0l0,0l0,0l0,0l0,0l0,0l0,0l0,0l0,0
		l0,0l0,0l0,0l0,0l0,0l0,0l0,0l0,0l0,0l0,0l0,0l0,0l0,0l0,0l0,0l0,0l0,0l0,0l0,0l0,0l0,0l0,0l0,0l0,0l0,0l0,0l0,0l0,0l0,0l0,0l0,0
		l0,0l0,0l0,0l0,0l0,0l0,0l0,0l0,0l0,0l0,0l0,0l0,0l0,0l0,0l0,0l0,0l0,0l0,0l0,0l0,0l0,0l0,0l0,0l0,0l0,0l0,0l0,0l0,0l0,0l0,0l0,0
		l0,0l0,0l0,0l0,0l0,0l0,0l0,0l0,0l0,0l0,0l0,0l0,0l0,0l0,0l0,0l0,0l0,0l0,0l0,0l0,0l0,0l0,0l0,0l0,0l0,0l0,0l0,0l0,0l0,0l0,0l0,0
		l0,0l0,0l0,0l0,0l0,0l0,0l0,0l0,0l0,0l0,0l0,0l0,0l0,0l0,0l0,0l0,0l0,0l0,0l0,0l0,0l0,0l0,0l0,0l0,0l0,0l0,0l0,0l0,0l0,0l0,0l0,0
		l0,0l0,0l0,0l0,0l0,0l0,0l0,0l0,0l0,0l0,0l0,0l0,0l0,0l0,0l0,0l0,0l0,0l0,0l0,0l0,0l0,0l0,0l0,0l0,0l0,0l0,0l0,0l0,0
		c0,0,0,0,0,0.117l0,0c0.117,0.235,0.117,0.587,0,0.939l1.057,0.353c0.235-0.822,0-2.231-0.821-2.701
		C215.944,61.7,215.592,61.7,215.356,61.7L215.356,61.7z M209.604,63.461h-0.235l0,0l0,0l0,0l0,0l0,0l0,0l0,0l0,0l0,0l0,0l0,0l0,0
		l0,0l0,0l0,0l0,0l0,0l0,0l0,0l0,0l0,0l0,0l0,0l0,0l0,0l0,0l0,0l0,0l0,0l0,0l0,0l0,0l0,0l0,0l0,0l0,0l0,0l0,0
		C209.369,63.579,209.486,63.579,209.604,63.461L209.604,63.461L209.604,63.461L209.604,63.461
		C209.486,63.579,209.486,63.579,209.604,63.461C209.486,63.579,209.486,63.579,209.604,63.461
		C209.486,63.579,209.486,63.579,209.604,63.461C209.486,63.579,209.604,63.579,209.604,63.461L209.604,63.461L209.604,63.461z
		 M210.543,62.404l-1.174,0.118v0.117l0,0l0,0l0,0l0,0l0,0l0,0l0,0l0,0l0,0l0,0l0,0l0,0l0,0l0,0l0,0l0,0c0,0.47,0,0.822,0,0.939l0,0
		l0,0h0.235l0,0l0,0v0.117c0,0,0,0,0.117,0l0,0l0,0l0,0l0,0l0,0l0,0l0,0l0,0l0,0l0,0l0,0l0,0l0,0l0,0h0.118l0,0l0,0l0,0l0,0l0,0l0,0
		l0,0l0,0l0,0l0,0l0,0l0,0l0,0l0,0l0,0l0,0l0,0l0,0l0,0l0,0l0,0l0,0l0,0l0,0l0,0l0,0l0,0l0,0l0,0l0,0l0,0l0,0l0,0l0,0l0,0
		c0.117,0,0.352,0,0.587,0v-0.117v-0.118C210.543,63.109,210.543,62.757,210.543,62.404L210.543,62.404z M206.668,58.999
		l-0.47,1.057c0.235,0.117,0.353,0.117,0.587,0.235l0,0l0,0l0,0l0,0l0,0l0,0l0,0l0,0l0,0l0,0l0,0l0,0l0,0l0,0l0,0l0,0l0,0l0,0l0,0
		l0,0l0,0l0,0l0,0l0,0l0,0l0,0l0,0l0,0l0,0l0,0l0,0l0,0l0,0l0,0l0,0l0,0l0,0l0,0l0,0l0,0l0,0l0,0l0,0l0,0l0,0l0,0l0,0l0,0l0,0l0,0
		l0,0l0,0l0,0l0,0l0,0l0,0l0,0l0,0l0,0l0,0l0,0l0,0l0,0l0,0l0,0l0,0l0,0l0,0l0,0l0,0l0,0l0,0l0,0l0,0l0,0l0,0l0,0l0,0l0,0l0,0l0,0
		l0,0l0,0l0,0l0,0l0,0l0,0l0,0l0,0l0,0l0,0l0,0l0,0l0,0l0,0l0,0l0,0l0,0l0,0l0,0l0,0l0,0l0,0l0,0l0,0l0,0l0,0l0,0l0,0l0,0l0,0l0,0
		l0,0l0,0l0,0l0,0l0,0l0,0l0,0l0,0l0,0l0,0l0,0l0,0l0,0l0,0l0,0l0,0l0,0l0,0l0,0l0,0l0,0l0,0l0,0l0,0l0,0l0,0l0,0l0,0l0,0l0,0l0,0
		l0,0l0,0l0,0l0,0l0,0l0,0l0,0l0,0l0,0l0,0l0,0l0,0l0,0l0,0l0,0l0,0l0,0l0,0l0,0l0,0l0,0l0,0l0,0v0.117l0,0l0,0l0,0l0,0l0,0l0,0l0,0
		l0,0l0,0l0,0l0,0l0,0l0,0l0,0l0,0l0,0l0,0l0,0l0,0l0,0l0,0l0,0l0,0l0,0l0,0l0,0l0,0l0,0l0,0l0,0l0,0l0,0l0,0l0,0l0,0l0,0l0,0l0,0
		l0,0l0,0l0,0l0,0l0,0l0,0l0,0l0,0l0,0l0,0l0,0l0,0l0,0l0,0l0,0l0,0l0,0l0,0l0,0l0,0l0,0l0,0l0,0l0,0l0,0l0,0l0,0l0,0l0,0l0,0l0,0
		l0,0l0,0l0,0l0,0l0,0l0,0l0,0l0,0l0,0l0,0l0,0l0,0l0,0l0,0l0,0l0,0l0,0l0,0l0,0l0,0l0,0l0,0l0,0l0,0l0,0l0,0l0,0l0,0l0,0l0,0l0,0
		l0,0l0,0l0,0l0,0l0,0l0,0l0,0l0,0l0,0l0,0l0,0l0,0l0,0l0,0l0,0l0,0l0,0l0,0l0,0l0,0l0,0l0,0l0,0l0,0l0,0l0,0l0,0l0,0l0,0l0,0l0,0
		l0,0l0,0l0,0l0,0l0,0l0,0l0,0l0,0l0,0l0,0l0,0l0,0c-0.118,0.235-0.235,0.587-0.353,0.822l0,0l0,0l0,0l0,0l0,0l0,0l0,0l0,0l0,0l0,0
		l0,0l0,0l0,0l0,0l0,0l0,0l0,0l0,0l0,0l0,0l0,0l0,0l0,0l0,0l0,0l0,0l0,0l0,0l0,0l0,0l0,0l0,0l0.47,0.117
		c0.118,0,0.118-0.117,0.118-0.117s0.352-0.47,0.822-0.705c0.117-0.235,0.117-0.587,0-0.939c-0.118-0.352-0.47-0.587-0.822-0.822
		C207.021,59.117,206.786,59.117,206.668,58.999L206.668,58.999z M206.551,61.7l0.47,0.118l0,0L206.551,61.7L206.551,61.7z
		 M206.551,61.7l0.47,0.118l0,0L206.551,61.7L206.551,61.7z M203.028,54.42l-0.705,0.822c0.47,0.469,0.822,0.704,0.939,0.822l0,0
		l0,0l0,0l0,0l0,0l0,0l0,0l0,0l0,0l0,0l0,0l0,0l0,0l0,0l0,0l0,0l0,0c0.118,0.117,0.118,0.587,0.118,1.057h1.174
		c0-0.705,0-1.409-0.353-1.761l0,0l0,0c0,0-0.117-0.117-0.235-0.235L203.028,54.42L203.028,54.42z M198.918,51.25l-0.587,0.234l0,0
		c0,0,0,0,0,0.118l0,0l0,0l0,0l0,0l0,0L198.918,51.25L198.918,51.25z M198.918,49.841l-1.057,0.47c0,0.117,0.117,0.235,0.117,0.352
		l0,0l0,0c0,0,0,0.118,0.118,0.235c0.117,0.235,0.117,0.353,0.235,0.587l0.587-0.234l0,0l0,0l-0.587,0.352l0,0l0,0l0,0l0,0l0,0l0,0
		l0,0l0,0l0,0l0,0l0,0l0,0l0,0l0,0l0,0l0,0l0,0l0,0l0,0c0.117,0.117,0.117,0.235,0.235,0.352l0,0l0,0l0,0l0,0l0,0l0,0l0,0l0,0l0,0
		l0,0l0,0l0,0l0,0l0,0c0.117,0.118,0.117,0.118,0.235,0.235l0.822-0.822c-0.235-0.235-0.352-0.352-0.352-0.47
		c-0.118-0.235-0.118-0.352-0.235-0.587C199.036,50.193,199.036,50.076,198.918,49.841L198.918,49.841z M193.518,45.262h-0.235
		v1.174h0.117l0,0l0,0l0,0l0,0l0,0l0,0l0,0l0,0l0,0l0,0l0,0c0.587,0,1.174,0,1.409,0.235l0,0c0.117,0.118,0.235,0.235,0.235,0.353
		l0,0l0,0l0,0l0,0l0,0l0,0l0,0l0,0l0,0l0,0l0,0l0,0l0,0l0,0l0,0l0,0l0,0l0,0l0,0l0,0l0,0l0,0l0,0l0,0l0,0l0,0l0,0l0,0l0,0l0,0l0,0
		l0,0l0,0l0,0l0,0l0,0l0,0l0,0l0,0l0,0l0,0l0,0l0,0l0,0l0,0l0,0l0,0l0,0l0,0l1.057-0.47c-0.118-0.353-0.353-0.587-0.587-0.822
		C195.161,45.379,194.457,45.262,193.518,45.262L193.518,45.262z M188.703,41.856l-0.47,1.057c0.118,0.118,0.353,0.118,0.47,0.235
		c0.353,0.118,0.587,0.235,0.822,0.352l0,0l0,0l0,0l0,0l0,0l0,0l0,0l0,0l0,0l0,0l0,0l0,0l0,0l0,0l0,0l0,0l0,0l0,0l0,0l0,0l0,0l0,0
		l0,0l0,0l0,0l0,0l0,0l0,0l0,0l0,0l0,0l0,0l0,0l0,0l0,0l0,0l0,0l0,0l0,0l0,0l0,0l0,0l0,0l0,0l0,0l0,0l0,0l0,0l0,0l0,0l0,0l0,0l0,0
		l0,0l0,0l0,0l0,0l0,0l0,0l0,0l0,0l0,0l0,0l0,0l0,0l0,0l0,0l0,0l0,0l0,0l0,0l0,0l0,0l0,0c0.117,0.118,0.234,0.353,0.47,0.587
		l0.939-0.705c-0.352-0.47-0.587-0.705-0.705-0.822c-0.234-0.235-0.47-0.353-1.057-0.587
		C189.056,41.974,188.821,41.856,188.703,41.856L188.703,41.856z M187.412,37.864c-0.117,0.352-0.47,0.705-0.939,0.822l0,0l0,0l0,0
		l0,0l0,0l0,0l0,0l0,0l0,0l0,0l0,0l0,0l0,0l0,0l0,0l0,0l0,0l0,0l0,0l0,0l0,0l0,0l0,0l0,0l0,0l0,0l0,0l0,0l0,0l0,0l0,0l0,0l0,0l0,0
		l0,0l0,0l0,0l0,0l0,0l0,0l0,0l0,0l0,0l0,0l0,0l0,0l0,0l0,0l0,0l0,0l0,0l0,0l0,0l0,0l0,0l0,0l0,0l0,0l0,0l0,0l0,0l0,0l0,0l0,0l0,0
		l0,0l0,0l0,0l0,0l0,0l0,0l0,0l0,0l0,0l0,0l0,0l0,0l0,0l0,0l0,0l0,0l0,0l0,0l0,0l0,0l0,0l0,0l0,0l0,0l0,0l0,0l0,0l0,0l0,0l0,0l0,0
		l0,0l0,0l0,0l0,0l0,0l0,0l0,0l0,0l0,0l0,0l0,0l0,0l0,0l0,0l0,0l0,0l0,0l0,0l0,0l0,0l0,0l0,0l0,0l0,0l0,0l0,0l0,0l0,0l0,0l0,0l0,0
		l0,0l0,0l0,0l0,0l0,0l0,0l0,0l0,0l0,0l0,0l0,0l0,0l0,0l0,0l0,0l0,0l0,0l0,0l0,0l0,0l0,0l0,0l0,0l0,0l0,0l0,0l0,0l0,0l0,0l0,0l0,0
		l0,0l0,0v0.118l0,0l0,0l0,0l0,0l0,0l0,0l0,0l0,0l0,0l0,0l0,0l0,0l0,0l0,0l0,0l0,0l0,0l0,0l0,0l0,0v0.117h0.118l0,0h-0.118
		c0,0,0,0.118,0.118,0.118l0,0l0,0l0,0l0,0l0,0l0,0l0,0l0,0l0,0l0,0l0,0l0,0l0,0l0,0l0,0l0,0l0,0l0,0c0,0,0,0.117,0.117,0.117l0,0
		l0,0l0,0l0,0c0.118,0.118,0.235,0.235,0.353,0.352c0.705-0.234,1.174-0.822,1.409-1.409L187.412,37.864L187.412,37.864z
		 M185.416,32.229l-0.235,0.117l-0.822-0.117v0.117v0.117l0,0l0,0l0,0l0,0l0,0l0,0l0,0l0,0l0,0l0,0l0,0l0,0l0,0l0,0l0,0l0,0l0,0l0,0
		l0,0l0,0l0,0l0,0l0,0l0,0l0,0l0,0l0,0l0,0l0,0l0,0l0,0l0,0l0,0l0,0l0,0l0,0l0,0l0,0l0,0l0,0l0,0l0,0l0,0l0,0l0,0l0,0l0,0l0,0l0,0
		l0,0l0,0l0,0l0,0l0,0l0,0l0,0l0,0l0,0l0,0l0,0l0,0l0,0l0,0l0,0l0,0l0,0l0,0l0,0l0,0l0,0l0,0l0,0l0,0l0,0l0,0l0,0l0,0l0,0l0,0l0,0
		l0,0l0,0l0,0l0,0l0,0l0,0l0,0l0,0l0,0l0,0l0,0l0,0l0,0l0,0l0,0l0,0l0,0l0,0l0,0l0,0l0,0l0,0l0,0l0,0l0,0l0,0l0,0l0,0
		c0,0.118,0,0.118,0.117,0.235l0,0l0,0l0,0l0,0l0.47-0.352l0,0l-0.47,0.352l0,0l0,0l0,0l0,0l0,0l0,0l0,0l0,0l0,0l0,0l0,0l0,0l0,0
		l0,0l0,0l0,0l0,0l0,0l0,0c0.118,0.118,0.235,0.235,0.353,0.353l0.117,0.117l0,0l0,0l0,0l0,0l0,0l0,0
		c0.118,0.118,0.353,0.353,0.47,0.47l0,0l0,0l0,0l0,0l0,0l0,0l0,0l0,0l0,0l0,0l0,0l0,0l0,0l0,0l0,0l0,0l0,0l0,0l0,0l0.939-0.587
		c-0.235-0.353-0.587-0.705-0.822-0.939C185.65,32.346,185.416,32.229,185.416,32.229L185.416,32.229L185.416,32.229z
		 M181.188,26.709l-0.705,0.822l0,0l0,0l0,0l0,0c0.235,0.235,0.47,0.469,0.705,0.587l0,0l0,0c0.118,0.118,0.235,0.118,0.235,0.235
		l0,0l0,0l0,0l0,0l0,0l0,0l0,0l0,0l0,0l0,0l0,0l0,0l0,0l0,0l0,0l0,0l0,0l0,0l0,0l0,0l0,0l0,0l0,0l0,0l0,0l0,0l0,0l0,0l0,0l0,0l0,0
		l0,0l0,0l0,0l0,0l0,0l0,0l0,0l0,0l0,0l0,0l0,0l0,0l0,0l0,0l0,0l0,0l0,0l0,0l0,0l0,0l0,0l0,0l0,0l0,0l0,0l0,0l0,0l0,0l0,0l0,0l0,0
		l0,0l0,0l0,0l0,0l0,0l0,0l0,0l0,0l0,0l0,0l0,0l0,0l0,0l0,0l0,0l0,0l0,0l0,0l0,0l0,0l0,0l0,0l0,0l0,0l0,0l0,0l0,0l0,0l0,0l0,0l0,0
		l0,0l0,0l0,0l0,0l0,0l0,0l0,0l0,0l0,0l0,0l0,0l0,0l0,0l0,0l0,0l0,0l0,0l0,0l0,0l0,0l0,0l0,0l0,0l0,0l0,0l0,0l0,0l0,0l0,0l0,0l0,0
		l0,0l0,0l0,0l0,0l0,0l0,0l0,0l0,0l0,0l0,0l0,0l0,0l0,0l0,0l0,0l0,0l0,0l0,0l0,0l0,0l0,0l0,0l0,0l0,0l0,0l0,0l0,0l0,0l0,0l0,0l0,0
		l0,0l0,0l0,0l0,0l0,0l0,0l0,0l0,0l0,0l0,0l0,0l0,0l0,0l0,0l0,0l0,0l0,0l0,0l0,0l0,0l0,0l0,0l0,0l0,0l0,0l0,0l0,0l0,0l0,0l0,0l0,0
		l0,0l0,0l0,0l0,0l0,0l0,0l0,0l0,0l0,0l0,0l0,0l0,0l0,0l0,0l0,0l0,0l0,0l0,0l0,0l0,0l0,0l0,0l0,0l0,0l0,0l0,0l0,0l0,0l0,0l0,0l0,0
		l0,0l0,0l0,0l0,0l0,0l0,0l0,0l0,0l0,0l0,0l0,0l0,0l0,0l0,0l0,0l0,0l0,0l0,0l0,0l0,0l0,0l0,0l0,0l0,0l0,0l0,0l0,0l0,0l0,0l0,0l0,0
		l0,0l0,0l0,0l0,0l0,0l0,0l0,0l0,0l0,0l0,0l0,0l0,0l0,0l0,0l0,0l0,0l0,0l0,0c0.118,0.117,0.118,0.235,0.235,0.352l1.057-0.469
		c-0.235-0.587-0.47-0.939-0.822-1.174L181.188,26.709L181.188,26.709z M179.78,21.191v2.231h1.174v-2.231H179.78L179.78,21.191z
		 M179.78,14.381v2.231h1.174v-2.231H179.78L179.78,14.381z M179.78,7.688V8.51l0,0l0,0l0,0l0,0l0,0l0,0l0,0l0,0l0,0l0,0l0,0l0,0
		l0,0l0,0l0,0l0,0l0,0l0,0c0,0.587,0,1.174,0,1.174h1.174V7.453L179.78,7.688L179.78,7.688z M179.78,0.878v2.231h1.174V0.878H179.78
		L179.78,0.878z"/>
</g>
</a>




<a xlink:href="oregon.html">
<g id="OR_1_">
	<path id="OR" fill="#288585"  onmouseover="evt.target.setAttribute('fill', '#fce149');"
		 onmouseout="evt.target.setAttribute('fill', '#288585');"  d="M17.51,78.843c0.352-0.47-1.057-0.939-1.409-1.761c-0.353-0.705,0.352-0.705,0.939-1.409
		c0.704-0.705,0.117,1.409,2.113,2.349c1.996,0.939-0.587-1.292-0.587-2.231c0.117-0.939,1.292,0,1.526,0.352
		s2.466,0.352,2.701-0.47s1.644-0.117,1.996-1.057c0.117-0.235-0.118-0.235-0.353-0.352c1.057-0.235,2.231-0.47,2.583,0
		c0.587,0.822,0.822,0.822,1.526,1.409c0.704,0.587,0.822,0.587,1.057,0.939s1.409,0.118,1.526,0.118
		c0.117-0.118,2.466-0.939,2.583-0.705c0.118,0.352,0.118,0.705,0.705,0.939c0.587,0.235,1.996,0.118,2.114,0.47
		c0.117,0.353,0.822,0.705,1.174,1.057c0.235,0.235,0.587,0.47,0.705,0.939c0.118,0.47,0.47,0.939,0.47,1.526
		c0,0.705,0.587,0.822,0.822,1.292c0.235,0.352,0.353,0.117,0.47,0.822c0,0.705,0.353,1.409,0.353,1.409l0.117,1.644
		c0,0-0.117,0.822,0.117,1.292c0.118,0.353,1.292,3.64,1.644,3.992c0.352,0.353,1.292,0.47,2.114,0.705
		c0.822,0.235,1.878,0.118,3.522,0.587c1.644,0.47,4.344,0.705,4.696,0.587c0.353-0.118,2.701-1.174,3.288-1.292
		c0.587-0.117,2.465-1.526,2.465-1.526s2.466-2.583,2.936-1.878s0.587,1.057,1.409,0.939c0.822-0.118,2.348-1.057,3.405-0.822
		c1.174,0.235,2.349,0.705,3.992,0.822c1.644,0.117,2.701,0.587,3.17,0.939c0.352,0.353-0.235,2.114,1.174,1.292
		c1.526-0.822,0.352-1.174,2.231-1.174c1.878,0,3.992-0.235,4.462-0.587c0.352-0.234,2.231-1.057,2.583-1.057
		s2.466-1.526,3.288-0.704c0.822,0.939,4.814,0.352,4.814,0.352s1.996-0.705,2.818-1.057c0.822-0.353,2.818-1.996,3.992-1.996
		c1.174,0,2.465-0.235,3.522-0.353c1.057-0.117,3.405-0.822,3.405-0.822s5.284-0.822,5.753-1.174
		c0.47-0.352,5.988-1.996,7.163-1.878c1.174,0.117,42.857,0,44.148,0l0.235,0.47c0,0,0.47,1.292,0.822,2.113
		c0.235,0.822,2.348,1.879,2.935,2.231c0.587,0.352,1.409,1.174,2.466,1.057c1.057-0.117,0.939,1.292,1.526,1.996
		c0.47,0.705,0.822,1.644,0.939,2.466c0.235,0.822-0.705,1.644-1.057,1.879c-0.352,0.117-2.113,3.875-2.583,4.814
		s-0.705,2.349-0.939,2.7c-0.235,0.353-0.235,1.527-0.235,1.879c0,0.47-0.352,1.174-0.939,1.762
		c-0.47,0.587-1.174,1.291-1.292,1.644s-0.822,1.057-1.174,1.409c-0.352,0.352,0.235,0.352,0.822,1.174
		c0.469,0.705-2.583,4.814-2.818,5.166c-0.235,0.353-1.174,0.353-1.526,0.588c-0.352,0.234-0.939,2.936-1.292,3.404
		c-0.235,0.471-0.939,1.292-1.174,1.645c-0.235,0.352-0.235,1.174-0.352,1.291c-0.117,0.235-0.822,0.588-0.822,0.588
		s0.117,4.813,0,5.166c0,0.234,0.235,0.822,0.587,0.939c0.235,0.117,1.057,0.117,1.644,0c0.587-0.117,0.587,0.352,0.822,0.587
		s0.352-0.118,0.587-0.235c0.118,0,2.114,1.762,2.466,2.113c0.235,0.354,0.587,0.705,0.352,0.822
		c-0.234,0.117-0.234,0.705-0.352,0.939c-0.117,0.353-0.939,0.822-1.292,0.822c-0.47,0,1.057,1.408,1.057,1.644
		c0,0.118-0.235,0.587-0.47,0.704s0,1.527-0.117,2.113c-0.118,0.588-0.822,1.527-0.822,1.527s-0.587,1.291-1.057,1.526
		s0.587,0.587,0.587,0.587l-0.118,48.376H10.934c-0.117-0.822-0.822-0.235-1.996-1.175c-1.292-1.057-1.644-4.227-2.113-5.4
		c-0.587-1.175-0.235-1.645-0.235-2.231s-0.353-3.522-0.118-4.228c0.235-0.704,0.353-2.7,0.353-3.053
		c0-0.469,0.235-0.821-0.118-1.291c-0.352-0.587-2.466-2.701-2.466-3.287c-0.117-0.471-0.469-1.41-0.587-1.996
		c-0.235-0.471,0.822-1.879,1.057-1.996c0.235-0.118,0.587-2.114,1.292-2.818c0.587-0.705,0.587-3.992,0.704-4.109
		c0.235-0.117,0.353-3.758,0.47-4.228c0.118-0.47,0.705-0.353,1.292-0.939c0.705-0.587,1.057-3.992,1.057-3.992
		s0.587-2.349,1.057-2.466c0.47-0.234,0.352-1.526,0.352-1.879c0.118-0.352,0.47-0.821,1.292-1.174
		c0.822-0.352-0.822-1.996-0.822-2.7s0.705-3.875,0.587-4.462c-0.117-0.588,0.47-0.353,0.705-0.705
		c0.235-0.352-0.587-1.291-0.705-1.879c-0.117-0.586,0.235-1.643,0.235-1.643s-0.117-3.641,0.118-5.637
		c0.117-1.996,1.174-8.336,1.409-8.924c0.235-0.587-0.352-2.818-0.587-3.522c-0.117-0.821,0.235-1.174,0.822-2.113
		c0.587-0.939,0.822-3.992,0.587-4.813c-0.235-0.822,0.939-1.527,1.292-2.584s-0.352-1.174-0.47-1.996
		c0-0.822,0.705-1.996,0.587-2.23c-0.117-0.234-0.352-0.47-0.587-0.939s0.822-1.645,0.939-1.879
		c0.117-0.234-0.353-0.939-0.939-1.762c-0.587-0.821,0.705-0.586,1.292-1.056c0.47-0.587-0.47-1.761-0.587-1.996
		c-0.235-0.352,0.47-1.409,0.822-1.996c0.353-0.587-0.705-0.939-0.705-1.409c0-0.469-0.352-0.705-0.704-1.761
		c-0.353-1.057,0.469-1.174,0.587-2.231c0.117-1.057,0.117-1.409-0.47-2.113s0.587-0.587,0.939-1.526
		C16.805,80.134,17.157,79.312,17.51,78.843z"/>
	<path id="OR_2_" fill="none" stroke="#FFFFFF" stroke-width="0.9578" stroke-miterlimit="10" stroke-dasharray="1.9155,3.8311" d="
		M17.51,78.843c0.352-0.47-1.057-0.939-1.409-1.761c-0.353-0.705,0.352-0.705,0.939-1.409c0.704-0.705,0.117,1.409,2.113,2.349
		c1.996,0.939-0.587-1.292-0.587-2.231c0.117-0.939,1.292,0,1.526,0.352s2.466,0.352,2.701-0.47s1.644-0.117,1.996-1.057
		c0.117-0.235-0.118-0.235-0.353-0.352c1.057-0.235,2.231-0.47,2.583,0c0.587,0.822,0.822,0.822,1.526,1.409
		c0.704,0.587,0.822,0.587,1.057,0.939s1.409,0.118,1.526,0.118c0.117-0.118,2.466-0.939,2.583-0.705
		c0.118,0.352,0.118,0.705,0.705,0.939c0.587,0.235,1.996,0.118,2.114,0.47c0.117,0.353,0.822,0.705,1.174,1.057
		c0.235,0.235,0.587,0.47,0.705,0.939c0.118,0.47,0.47,0.939,0.47,1.526c0,0.705,0.587,0.822,0.822,1.292
		c0.235,0.352,0.353,0.117,0.47,0.822c0,0.705,0.353,1.409,0.353,1.409l0.117,1.644c0,0-0.117,0.822,0.117,1.292
		c0.118,0.353,1.292,3.64,1.644,3.992c0.352,0.353,1.292,0.47,2.114,0.705c0.822,0.235,1.878,0.118,3.522,0.587
		c1.644,0.47,4.344,0.705,4.696,0.587c0.353-0.118,2.701-1.174,3.288-1.292c0.587-0.117,2.465-1.526,2.465-1.526
		s2.466-2.583,2.936-1.878s0.587,1.057,1.409,0.939c0.822-0.118,2.348-1.057,3.405-0.822c1.174,0.235,2.349,0.705,3.992,0.822
		c1.644,0.117,2.701,0.587,3.17,0.939c0.352,0.353-0.235,2.114,1.174,1.292c1.526-0.822,0.352-1.174,2.231-1.174
		c1.878,0,3.992-0.235,4.462-0.587c0.352-0.234,2.231-1.057,2.583-1.057s2.466-1.526,3.288-0.704
		c0.822,0.939,4.814,0.352,4.814,0.352s1.996-0.705,2.818-1.057c0.822-0.353,2.818-1.996,3.992-1.996
		c1.174,0,2.465-0.235,3.522-0.353c1.057-0.117,3.405-0.822,3.405-0.822s5.284-0.822,5.753-1.174
		c0.47-0.352,5.988-1.996,7.163-1.878c1.174,0.117,42.857,0,44.148,0l0.235,0.47c0,0,0.47,1.292,0.822,2.113
		c0.235,0.822,2.348,1.879,2.935,2.231c0.587,0.352,1.409,1.174,2.466,1.057c1.057-0.117,0.939,1.292,1.526,1.996
		c0.47,0.705,0.822,1.644,0.939,2.466c0.235,0.822-0.705,1.644-1.057,1.879c-0.352,0.117-2.113,3.875-2.583,4.814
		s-0.705,2.349-0.939,2.7c-0.235,0.353-0.235,1.527-0.235,1.879c0,0.47-0.352,1.174-0.939,1.762
		c-0.47,0.587-1.174,1.291-1.292,1.644s-0.822,1.057-1.174,1.409c-0.352,0.352,0.235,0.352,0.822,1.174
		c0.469,0.705-2.583,4.814-2.818,5.166c-0.235,0.353-1.174,0.353-1.526,0.588c-0.352,0.234-0.939,2.936-1.292,3.404
		c-0.235,0.471-0.939,1.292-1.174,1.645c-0.235,0.352-0.235,1.174-0.352,1.291c-0.117,0.235-0.822,0.588-0.822,0.588
		s0.117,4.813,0,5.166c0,0.234,0.235,0.822,0.587,0.939c0.235,0.117,1.057,0.117,1.644,0c0.587-0.117,0.587,0.352,0.822,0.587
		s0.352-0.118,0.587-0.235c0.118,0,2.114,1.762,2.466,2.113c0.235,0.354,0.587,0.705,0.352,0.822
		c-0.234,0.117-0.234,0.705-0.352,0.939c-0.117,0.353-0.939,0.822-1.292,0.822c-0.47,0,1.057,1.408,1.057,1.644
		c0,0.118-0.235,0.587-0.47,0.704s0,1.527-0.117,2.113c-0.118,0.588-0.822,1.527-0.822,1.527s-0.587,1.291-1.057,1.526
		s0.587,0.587,0.587,0.587l-0.118,48.376"/>
</g>
</a>


<a xlink:href="washington.html">
<g id="WA">
	<path fill="#288585"  onmouseover="evt.target.setAttribute('fill', '#fce149');"
		 onmouseout="evt.target.setAttribute('fill', '#288585');"  d="M18.097,74.381c-1.174-0.47-2.349-1.526-2.936-1.644c-0.47-0.235-0.47-1.174-0.117-1.762
		c0.352-0.587,1.526-0.939,1.761-1.174s-0.235-0.939-0.235-1.879s0.939-2.113,1.057-3.053s-0.822-1.174-0.822-2.466
		s2.231,0.353,3.053,0.118c0.822-0.353-0.587-0.705-1.879-1.409c-1.292-0.705-1.878,0.587-2.818-0.587
		c-0.939-1.174-0.117-1.292-0.117-1.644c0-0.352-0.353-0.235-0.939-0.939c-0.587-0.704,0.587-0.704,0.587-0.939
		c0-0.117,0.118-0.587,0.235-0.704c0.235-0.118,0.822-0.353,1.057-0.587s1.644-0.117,2.466-0.469
		c0.822-0.353-3.053-0.822-3.405-1.057c-0.353-0.235-0.47-0.939-0.705-1.409s-1.292,0-1.761,0c-0.47-0.118-1.409-1.057-1.292-1.761
		c0-0.587,0-1.292-0.47-2.349s-0.47-1.526-0.822-2.701c-0.352-1.292-1.057-1.878-1.996-3.17c-0.939-1.292-0.117-2.936-0.234-3.288
		c-0.118-0.352-0.118-0.822-0.118-1.996c0-1.057-0.352-0.822-0.47-1.292c-0.235-0.469-0.352-1.526-0.939-2.935
		c-0.587-1.292-2.935-2.701-3.405-3.053c-0.47-0.353-0.587-0.235-1.057-0.705c-0.47-0.353-0.118-0.587-0.235-1.057
		c-0.118-0.47-0.235-1.057-0.822-1.526c-0.47-0.47,0.47-0.704,0.705-1.292c0.235-0.47-0.822-1.996-1.292-2.583
		c-0.47-0.587,0.47-1.292,0.47-1.996c-0.118-0.705,0.117-1.879,0.235-2.349c0.117-0.352,0.47-0.822,0.47-1.292
		s-0.587-1.526-0.587-1.644c0.118-0.118,1.761,0.235,2.349,0.939c0.587,0.587,5.166,2.466,6.458,2.936
		c1.292,0.47,4.696,2.231,5.049,2.349c0.352,0.117,0.822,0.352,0.939,0.587c0.117,0.235,5.401,0,5.871-0.235
		c0.587-0.235,1.292,0.822,1.644,0.822c0.352,0,0.352-0.352,0.587-0.587s0.587,0.47,0.587,0.47s2.936-0.118,3.405-0.118
		s3.522,0.235,3.875,0c0.353-0.235,2.114,0.118,2.349,0.353c0.352,0.235,0.939,1.996,1.996,2.466s0.47-1.644,1.057-1.409
		c0.47,0.235,0.587,1.761,1.057,2.936c0.47,1.174,1.292-0.705,1.409-1.174c0.117-0.47,0.235-0.705,0.352-1.057
		c0.118-0.353-1.174-0.587-0.587-1.526c0.587-0.822,1.761,0,1.761,0s-0.939,1.409-0.939,1.644s0.822,1.057,1.526,1.761
		c0.705,0.705,1.292,2.231,1.526,2.818c0.235,0.587-0.587,0.939-1.057,1.526c-0.587,0.587-0.235,0.939-0.705,1.878
		c-0.352,0.822-0.822-0.352-0.939-1.174c-0.118-0.704-1.761,1.879-1.761,2.114s-0.939,1.409-1.644,2.466s0.822,1.174,1.057,0.939
		c0.235-0.234,2.114-1.292,2.936-1.878c0.822-0.705,0.705-1.761,1.292-2.583c0.587-0.822,1.409-1.292,1.996-1.057
		c0.587,0.235,0.47-0.234,1.174-0.704c0.822-0.587,1.292,1.057,1.644,1.761c0.353,0.705-0.704,0.235-1.057-0.118
		c-0.352-0.352-0.705,0.47-0.822,0.822c-0.118,0.352-1.174,0-1.526,0c-0.353,0,0.117,2.23,0.117,2.818
		c-0.117,0.587-1.174-0.587-1.526-0.118c-0.352,0.47,0.705,1.409,0.822,1.644c0.235,0.235-0.587,0.822-0.469,1.761
		c0.117,0.939,2.113-1.526,2.465-1.174c0.353,0.353,0.822,1.761,0.822,2.231s-0.587,0.939-0.47,1.761
		c0.235,0.705,0.117,1.996,0,2.818c-0.118,0.822-0.705,0.353-1.526,0.353c-0.822,0,0.352-2.231,0.235-2.936
		c-0.118-0.705-1.761,1.292-2.349,1.174c-0.587-0.118-0.939,3.522-1.761,3.875c-0.822,0.353,0.353-3.522,0.235-3.875
		c0-0.235-3.875,4.344-4.227,4.579c-0.352,0.235-1.878,1.057-2.113,1.292s2.936,1.996,3.288,2.349
		c0.352,0.352,3.17-1.879,3.64-1.996c0.587-0.118,0.822,0.939,1.057,1.292s1.996-1.292,2.583-1.996
		c0.587-0.822,0.705-2.231,1.174-2.936c0.352-0.587,0.352-0.822,0.235-0.822c0.117,0,0.939,0.235,1.409,0.47
		s0.822-0.705,0.822-0.939s-0.118-0.352,0.822-0.705c0.939-0.352,0.352-1.057,0.705-1.526c0.235-0.47-0.353-1.057-0.353-1.526
		s-0.352-1.174-0.704-1.996c-0.353-0.822,0.822-0.939,1.292-1.526s-0.939-0.939-0.939-1.174c0-0.352-0.705-0.117-1.174-0.587
		s0.353-0.587,0.47-0.822c0.118-0.235,0.118-0.705,0.705-1.174s-0.352-1.409-0.352-1.879c-0.118-0.47,0.469-1.409,0.469-1.761
		c0-0.352,1.996-2.583,2.701-3.053s-1.878-3.17-1.996-3.757c-0.117-0.587-1.878,0.353-2.701-0.587
		c-0.822-1.057,1.174-1.644,1.174-2.466s-2.701,1.526-3.053,0.822c-0.353-0.705,3.17-1.409,3.053-2.231
		c-0.117-0.822-3.288-2.583-3.875-3.875c-0.705-1.292,1.057-0.353,1.878-0.353c0.822,0.118-0.47-1.761-0.939-3.288
		s1.761,1.292,1.879,0.235c0.117-1.057-1.057-2.818-1.292-3.17c-0.235-0.352,0.117-1.057-0.118-2.348
		c-0.117-1.409-1.996,0.47-3.522-1.292s-1.526-2.818-1.526-2.818L41.228,1.7l-0.352-1.526h118.474c0,7.632-0.118,67.397,0,67.632
		c0.117,0.235,0.587,0.939,0.705,1.409c0.117,0.47-0.822,0.939-0.822,1.409c0,0.587,0.822,1.526,0.822,1.644
		c0.117,0.117,0.822,1.057,1.057,1.292s0.117,1.526,0.117,1.644c0,0.118,0.353,0.939,0.587,1.527
		c0.352,0.704-0.587,1.526-1.057,1.878c-0.47,0.352,1.057,1.174,1.526,1.644c0.469,0.352,0.235,1.057,0.235,1.057l0,0
		c-1.292,0-42.975,0.117-44.149,0c-1.174-0.118-6.693,1.526-7.163,1.878c-0.47,0.353-5.753,1.174-5.753,1.174
		s-2.348,0.705-3.405,0.822c-1.057,0.118-2.349,0.353-3.522,0.353c-1.174,0-3.17,1.644-3.992,1.996
		c-0.822,0.352-2.818,1.057-2.818,1.057s-3.992,0.47-4.814-0.352c-0.822-0.939-2.936,0.587-3.288,0.704
		c-0.47,0-2.231,0.822-2.583,1.057c-0.353,0.235-2.583,0.587-4.462,0.587c-1.879,0-0.705,0.235-2.231,1.174
		c-1.526,0.822-0.822-0.822-1.174-1.292c-0.47-0.352-1.526-0.822-3.17-0.939c-1.644-0.118-2.936-0.587-3.992-0.822
		c-1.174-0.235-2.583,0.705-3.405,0.822c-0.822,0.117-0.939-0.235-1.409-0.939s-2.936,1.878-2.936,1.878s-1.996,1.292-2.583,1.292
		c-0.587,0.117-2.818,1.174-3.288,1.292c-0.352,0.235-3.053-0.118-4.697-0.587c-1.644-0.47-2.701-0.352-3.522-0.587
		c-0.822-0.117-1.761-0.352-2.113-0.705c-0.353-0.352-1.409-3.522-1.644-3.992c-0.117-0.352-0.117-1.292-0.117-1.292l-0.118-1.644
		c0,0-0.235-0.705-0.352-1.409c-0.118-0.705-0.235-0.353-0.47-0.822c-0.235-0.353-0.822-0.587-0.822-1.292
		c0-0.587-0.353-1.057-0.47-1.527c-0.118-0.469-0.353-0.705-0.705-0.939c-0.353-0.235-1.057-0.705-1.174-1.057
		c-0.117-0.352-1.526-0.235-2.113-0.469c-0.587-0.235-0.47-0.587-0.705-0.939c-0.118-0.353-2.466,0.587-2.583,0.704
		c-0.118,0.118-1.174,0.235-1.527-0.117c-0.234-0.352-0.352-0.352-1.057-0.939c-0.705-0.587-1.057-0.587-1.526-1.409
		c-0.352-0.47-1.526-0.235-2.583,0"/>
	<path fill="#288585" stroke="#FFFFFF" stroke-width="0.9578" stroke-miterlimit="10" stroke-dasharray="1.9155,3.8311" d="
		M51.561,93.755c-0.587,0-1.526-0.118-2.349-0.235l0.235-1.057c0.705,0.118,1.526,0.235,2.114,0.235V93.755z M44.868,92.581
		c-0.352,0-0.587-0.118-0.822-0.118c-0.587-0.117-1.057-0.234-1.409-0.352l0.352-1.057c0.353,0.117,0.705,0.235,1.292,0.352
		c0.235,0,0.469,0.118,0.704,0.118L44.868,92.581z M73.752,92.346c-0.939,0-0.939-0.939-0.939-1.292h1.174v0.117
		c0,0,0.118,0,0.118-0.117c0.235-0.118,0.352-0.235,0.47-0.235l0.705,0.822c-0.118,0.118-0.353,0.235-0.587,0.352
		C74.339,92.229,73.987,92.346,73.752,92.346z M56.022,92.229l-0.47-1.057c0.352-0.117,0.939-0.587,1.761-1.174l0.705,0.939
		C57.196,91.641,56.492,92.111,56.022,92.229z M79.153,90.819l-0.117-1.174c1.057-0.117,1.644-0.235,1.761-0.352
		c0,0,0.117-0.118,0.235-0.118l0.587,0.939c0,0-0.117,0-0.117,0.118C80.915,90.584,79.858,90.819,79.153,90.819z M62.363,89.88
		c-0.822,0-1.174-0.47-1.526-1.057l0.939-0.705c0.352,0.587,0.352,0.587,0.587,0.587c0.117,0,0.117,0,0.235,0
		c0.117,0,0.235,0,0.47-0.117l0.352,1.057c-0.235,0.118-0.47,0.118-0.705,0.118C62.598,89.88,62.48,89.88,62.363,89.88z
		 M69.643,89.88c-0.822-0.117-1.644-0.352-2.231-0.47l0.235-1.057c0.587,0.117,1.292,0.352,2.113,0.47L69.643,89.88z M92.069,89.058
		l-0.353-1.057l2.114-0.822l0.352,1.057L92.069,89.058z M87.255,89.058c-0.352-0.118-0.587-0.235-0.704-0.47
		c0,0-0.353-0.118-0.939,0l-0.353-1.057c1.174-0.353,1.879,0,2.114,0.235c0,0,0.117,0.117,0.235,0.117L87.255,89.058z
		 M40.054,88.001l-0.235-0.587c-0.118-0.235-0.118-0.587-0.118-0.939c0-0.352,0-0.587,0-0.587v-0.235l1.174-0.117v0.352
		c0,0.117,0,0.353,0,0.587c0,0.353,0,0.47,0,0.587c0,0.117,0.117,0.235,0.235,0.47L40.054,88.001z M98.175,86.24l-0.352-1.057
		c0.352-0.117,0.587-0.117,0.822-0.117c0.47,0,0.939,0,1.526-0.118l0.118,1.174c-0.587,0.118-1.174,0.118-1.644,0.118
		C98.527,86.123,98.292,86.123,98.175,86.24z M104.75,85.183l-0.352-1.057c0.47-0.117,0.939-0.235,0.939-0.235l0.352-0.117l0,0
		c0.235,0,0.587-0.118,1.057-0.118l0.235,1.057c-0.587,0.118-1.057,0.118-1.292,0.235C105.572,84.948,105.22,85.066,104.75,85.183z
		 M111.561,83.657l-0.705-0.939c0,0,0.352-0.235,2.231-0.822l0.352,1.057C112.265,83.305,111.678,83.54,111.561,83.657z
		 M38.527,81.896c-0.235-0.352-0.353-0.705-0.353-1.057c0-0.235-0.117-0.47-0.235-0.822c-0.117-0.118-0.117-0.353-0.235-0.47
		l1.057-0.353c0,0.118,0.117,0.235,0.117,0.353c0.117,0.352,0.352,0.705,0.352,1.292c0,0.117,0,0.235,0.118,0.352L38.527,81.896z
		 M126.707,81.896h-2.231v-1.174h2.231V81.896z M131.287,81.896v-1.174h2.231v1.174H131.287z M137.979,81.896v-1.174h2.231v0.587
		v0.587H137.979z M119.897,81.896c-1.292,0-1.526,0-1.644,0c-0.234,0-0.352,0-0.587,0l-0.117-1.057c0.352,0,0.587,0,0.822,0
		c0.117,0,0.705,0,1.526,0V81.896z M144.672,81.896v-1.174h2.114l0.117,1.174H144.672z M151.482,81.896v-1.174h2.231v1.174H151.482z
		 M158.175,81.896v-1.174h2.231v1.174H158.175z M160.993,79.899c-0.353-0.352-0.705-0.705-0.705-1.174
		c0-0.235,0.117-0.47,0.235-0.587c0.234-0.117,0.469-0.47,0.704-0.705l0.939,0.587c-0.235,0.235-0.47,0.587-0.705,0.705
		c0,0,0.118,0.117,0.235,0.234L160.993,79.899z M34.77,77.668c-0.353,0-0.587-0.117-0.705-0.117
		c-0.587-0.235-0.822-0.822-0.822-1.057v-0.117c0,0.117,0.118,0.117,0.118,0.117l-0.352-1.057c0.822-0.117,1.057,0.235,1.057,0.353
		c0,0,0,0.117,0.117,0.235c0.118,0.235,0.118,0.235,0.235,0.352c0,0,0.118,0,0.353,0.117V77.668z M28.664,76.612l-0.587-0.47
		c-0.235-0.235-0.47-0.352-0.587-0.47c-0.235-0.117-0.469-0.235-0.587-0.47l0.822-0.822c0.118,0.117,0.353,0.235,0.47,0.353
		c0.235,0.117,0.353,0.234,0.705,0.469l0.587,0.47L28.664,76.612z M160.875,73.911c-0.235-0.117-0.47-0.352-1.174-1.292
		l-0.117-0.118c-0.118-0.117-0.235-0.234-0.353-0.469l0.939-0.705c0.118,0.117,0.235,0.235,0.235,0.352
		c0.118,0.118,0.118,0.118,0.118,0.235c0.587,0.822,0.822,1.057,0.822,1.057l0.117,0.118l-0.469,0.47L160.875,73.911z
		 M158.879,68.041c-0.118-0.235-0.118-0.235-0.118-2.466h1.174c0,1.644,0,2.113,0,2.113h-0.352L158.879,68.041z M18.918,62.052
		c-0.352-0.118-0.822-0.353-1.174-0.587c-0.234-0.117-0.352-0.117-0.587-0.117l-0.235-1.174c0.47,0,0.822,0,1.292,0.235
		c0.353,0.235,0.705,0.353,1.057,0.587L18.918,62.052z M158.762,61.113v-2.231h1.174v2.231H158.762z M158.762,54.303v-2.231h1.174
		v2.231H158.762z M159.819,47.61h-1.174v-2.231h1.174V47.61z M159.819,40.8h-1.174v-2.231h1.174V40.8z M159.819,34.107h-1.174
		v-2.231h1.174V34.107z M159.819,27.297h-1.174v-2.231h1.174V27.297z M159.819,20.604h-1.174v-2.231h0.587h0.587V20.604z
		 M159.819,13.794h-1.174v-2.231h1.174V13.794z M159.936,7.101h-1.174V4.87h1.174V7.101z"/>
</g>
</a>
</svg>
