
<svg version="1.1" xmlns="http://www.w3.org/2000/svg" xmlns:xlink="http://www.w3.org/1999/xlink" viewBox="0 0 350 319.598">

	<style>
		path:hover {
		transition-duration: .56s;
		}
	</style>


<path id="WV" fill="#288585" d="M1.883,207.724c-0.404,3.228,2.016,5.239,2.42,8.468c0.404,3.227,0,6.053-1.209,8.876
	c-0.809,2.419-4.036,4.839-2.825,7.664c1.209,3.228,3.629,6.05,6.051,8.472c1.209,1.209,4.842,3.629,4.842,5.643
	c0.804,4.439,1.208,5.244,4.033,9.281c5.645,7.259,5.645,16.535,13.31,22.586c3.631,2.42,4.837,4.842,7.662,8.065
	c1.212,1.21,8.472-1.209,8.069,2.017c2.416,0.404,3.227,1.615,2.822,3.634c-0.406,2.416,1.207,3.228,2.018,5.644
	c1.208,3.227,1.613,5.645,3.629,8.873c2.018,3.227,4.033,5.244,8.064,6.051c4.035,0.809,4.842,3.229,8.067,5.646
	c2.42,2.018,5.646,0.402,8.068-0.807c2.823-1.207,5.646-1.613,8.471-2.822c2.017-0.809,3.629-6.053,6.049-4.842
	c2.824,1.213,4.438,4.842,7.665,6.047c3.227,1.215,12.1-4.029,15.729-5.238c2.018-0.809,5.244,2.016,5.646,1.209
	c0.811-0.805,6.454-4.031,6.454-4.844c-0.401-2.414-1.612-7.258,2.42-8.061c2.421-0.408,6.856,5.242,9.279,3.223
	c0.806-0.403,3.629-5.244,4.032-4.84c1.613,0.809,5.244-0.404,6.856-0.404c3.63,0,3.63,0.404,6.052,2.021
	c1.209,0.803,6.857-3.634,8.064-4.844c4.036-3.629,0.404-2.824,0.404-6.453c0-3.63,5.647-3.63,7.263-5.646
	c1.612-2.014-4.438-2.824-3.631-5.649c1.208-3.224,2.42-7.258,4.032-10.079c2.418-4.437,5.646-8.877,8.473-13.31
	c1.209-2.019,2.419-3.634,4.029-5.646c1.211-1.615,5.246-1.615,5.65-4.441c0-1.611-0.404-3.227,0-5.24
	c0.401-1.213,1.607-0.406,2.018-1.213c1.611-2.018,0-5.646,2.416-7.26c3.227-2.418,10.087-6.452,7.262-10.487
	c-1.21-1.613,6.855-10.083,7.664-12.908c0.4-1.207,3.227-14.521,4.033-14.116c2.416,1.213,6.453,0.405,7.664,3.227
	c2.017,3.632,2.821,6.859,6.855,8.471c3.632,1.615,7.261,2.824,11.292,1.615c3.229-1.213,4.439-6.454,7.262-8.471
	c1.614-1.211,0.404-6.053,1.209-8.069c1.21-2.822,5.245-3.228,6.053-6.856c1.206-4.031,2.821-7.66,4.843-11.291
	c2.818-4.84,5.644-1.211,7.66,2.418c2.824,4.031,8.471-10.486,10.083-12.502c2.017-2.423,4.437,1.615,7.262-0.808
	c1.612-1.207,2.422-2.822,3.628-4.435c2.018-2.824,5.651-10.487,9.279-11.698c6.856-2.018,5.244-10.488,6.049-16.133
	c0.402-2.825,0.402-3.228,2.42-5.242c0.808-0.81,1.615-8.472,2.02-8.472c2.017,1.614,5.242,0.807,7.261,2.42
	c2.823,2.824,6.052,5.242,8.872,7.662c3.228,2.42,5.646,6.052,9.275,8.067c3.228,1.614,7.664,4.037,9.279,7.26
	c2.017,3.633,4.03-6.858,4.434-7.662c0.408-1.211,4.439-9.275,4.037-9.275c-0.405-2.021-0.811-4.036-1.214-6.052
	c-0.4-2.825-2.415-4.033-3.227-6.456c-1.612-4.031-4.434-6.048-4.839-10.487c-0.401-4.434-4.844-2.016-8.066-2.418
	c-3.227-0.405-6.854-4.438-9.277-6.453c-2.018-1.614-6.049-4.438-7.26-0.809c-1.614,4.841-3.229,5.649-8.471,3.634
	c-3.629-1.211-5.646,1.207-8.471,3.224c-2.019,1.613,4.034,4.84-2.421,6.052c-3.629,0.402-6.854,0.402-10.483,0.402
	s-6.053-3.227-9.279-4.841c-6.859-4.434-10.087,14.926-18.551,11.295c-6.86-2.825-4.843,0-9.282,3.631
	c-2.817,2.016-5.24,4.436-8.468,6.052c-2.019,0.804-0.809,3.227-2.419,4.433c-1.615,1.211-3.63-0.403-5.245,1.614
	c-2.018,2.016-6.048,6.454-9.681,6.454V85.508h-72.602V0c-3.629,2.823-6.048,0.808-10.485,2.016
	c-2.826,0.807,2.016,10.084,2.418,11.698c0.809,2.016,1.615,4.033-0.403,5.646c-2.417,2.018,0,2.823,1.211,4.839
	c2.821,4.841-4.84,12.908-5.646,18.152c-1.617,8.068-3.228,16.134-7.262,23.396c-2.018,4.033-6.049,9.277-6.049,13.713
	c0,2.822,3.227,3.225,2.417,6.858c-0.401,1.614,0.403,7.662-1.614,8.064c-4.031,0.809-8.469,4.438-12.1,6.858
	c-2.417,1.614-3.227,4.438-4.438,7.262c-1.61,4.031-6.05,4.838-9.276,6.856c-2.017,1.208-4.435,3.631-6.856,4.033
	c-1.613,0-3.631-3.228-5.646-3.631c-3.629-1.209-2.824,0-5.243,2.017c-2.017,1.614-6.052,0.402-6.052,4.031
	c0,1.614,2.017,5.649-0.805,5.244c-2.017-0.402-4.841-0.806-6.857,0c-5.242,1.614-5.646,10.893-6.051,15.327
	c-0.402,2.016-2.821,2.423-2.821,3.629c0,2.824,1.207,5.244,2.016,7.666c0.806,2.418,2.418,4.844-1.21,6.05
	c-2.42,0.808-4.435-3.229-4.033,2.423c-0.808,1.611-8.47,4.839-7.258,2.014c1.206-2.824,2.82-3.629,1.61-6.855
	c-0.806-2.016-2.019-5.646-4.435-6.053c-5.646-1.61-10.488,10.083-11.297,13.711c-0.402,3.634-2.82,4.441-4.84,7.266
	c-2.016,2.82,0,4.434,0.405,7.258c0.403,2.018,2.821,9.678,0.403,10.088c-6.047,0.803-6.047,4.432-7.666,9.676
	c-1.207,4.438-0.806,6.856-6.049,7.262C11.966,206.108,7.531,208.127,1.883,207.724C1.883,208.127,2.688,207.724,1.883,207.724z"/>
</svg>
