<?xml version="1.0" encoding="utf-8"?>
<!-- Generator: Adobe Illustrator 16.0.0, SVG Export Plug-In . SVG Version: 6.00 Build 0)  -->
<!DOCTYPE svg PUBLIC "-//W3C//DTD SVG 1.1//EN" "http://www.w3.org/Graphics/SVG/1.1/DTD/svg11.dtd">
<svg version="1.1" id="Layer_1" xmlns="http://www.w3.org/2000/svg" xmlns:xlink="http://www.w3.org/1999/xlink" x="0px" y="0px"
	 width="279.5px" height="308.6px" viewBox="0 0 279.5 308.6" enable-background="new 0 0 279.5 308.6" xml:space="preserve">
<g>
	
		<path fill-rule="evenodd" clip-rule="evenodd" fill="#288585" stroke="#FFFFFF" stroke-width="0.6256" stroke-miterlimit="10" stroke-dasharray="1.2513,2.5025" d="
		M77.8,13.9l63.4-0.1l0,53.2c1.4,0,3.1,0.8,4.1,1.7c0.3,0.3,1.5,1.1,1.5,1.6c0,0.7,0.6,1.5,1.2,1.8c1.3,0.8,3.5-0.7,4.1,0.1
		c1.6,1.8,2.5,0,2.9-1.4c1-0.3,2.4,1.5,2.7,2.3c0.3,0.6,1,0.7,1,1.6c0,0.6-0.2,2,0.2,2.4c0.5,0.6,2.6,0.4,3.4,0.7c0.9,0.3,1-0.7,2,0
		c1,0.6,1.4,1.2,2.6,1.5c1.3,0.3,2.8-0.3,4-0.6c1.6-0.3,0.9,1.6,2.2,2.4c2.1,1.3,2-0.8,3.5-1.4c0.5-0.2,1.9,0.4,2.7,0.3
		c0.8-0.1,1.6-0.6,2.4-0.8c0.8-0.3,0.9-0.1,0.7,0.7c-0.3,1.3-1.2,0.6-0.1,1.8c0.5,0.5,0.4,1.5,1.3,1.5c0.5,0,1.7-0.1,1.6,0.6
		c-0.2,1.8-0.4,3.2,1.8,3.7c0.7,0.1,2.9-2.7,3.7-3.3c0.7-0.5,0.8-0.3,1.5-0.3c0.9,0-0.2,1.9,0.5,2c0.7,0.1,1.4-0.2,2.2-0.1
		c0.5,0.1,0.8,1.4,1.3,1.8c1.1,0.9,3.3-1.1,4.4-1.6c1.4-0.6,0.9,0.4,0.8,1.5c0,1-0.5,0.7,0.1,1.9c-0.9,1.3,1.1,1.1,1.9,0.9
		c-0.1-0.4-0.3-1.5,0.1-1.8c0.5-0.4,0.3-0.7,0.6-1.1c0.2-0.3,1.1-0.1,1.2-0.5c0.1-0.5-0.2-1.8,0.4-2.1c0.9-0.6,1.5,0.1,2.4,0.3
		c0.5,0.1,0.1,1,0.4,1.3c0.1,0.2,0.6,0.3,0.8,0.3c0.6,0.2,1.8,0.6,2.4,0.4c0.3-0.1,1-1.8,1.4-1.3c0.6,1,1.4,1.9,2.4,2.4
		c0.7,0.3,0.9,0.8,1.8,1c0.8,0.1,0.9,0.1,1.1,0.8c0.1,0.3,0.4,1.8,1,1.3c1.1-0.9,0.5-1.1,2.1-1.5c1.8-0.4,1.7-3.4,3.6-2.6
		c0.7,0.3,1.1,0.6,1.5,0c1-1.3,1.5-0.5,2.7-0.2c0.7-0.3,6.2-2.5,6.4-2c0.7,1.6,1.9,1.8,3.6,1.9c1.7,0.1,2.2-1.5,3.5-2.3
		c1.3-0.8,3.3,1.2,4.3,1.9c0.7,0.4,1,0.9,1.5,1.5c0.4,0.6,1.2,0.7,1.5,1.4c0.5,1.1,3.3,1.6,4.5,1.9c0.8,0.2,3.1,1.9,3.8,1.6
		c1.8-17.9,1.2-36.3,0.2-54.2c-0.4-7.4-1.6-14.7-2.7-22c-0.3-2,0-4.2,0-6.2c0-3.2,0-6.4,0-9.6c0-0.3,0-0.5,0-0.8l-157.1,0
		c-7,0-13.9,0-20.9,0l0,0l0,0L77.8,13.9L77.8,13.9z"/>
	
		<path fill-rule="evenodd" clip-rule="evenodd" fill="#288585" stroke="#FFFFFF" stroke-width="0.6256" stroke-miterlimit="10" stroke-dasharray="1.2513,2.5025" d="
		M2.5,144.7c1.2,0.1,3.7,0.7,4.3,1.8c0.3,0.6,0.3,1.1,0.4,1.8c0.1,0.5,0.4,0.5,0.5,1c0.1,1.2,1.1,2.5,1.8,3.5
		c0.8,1.2,1.8,2.2,3.3,2.3c1.4,0.1,1.2,0.5,2.2,1.3c0.9,0.7,1.8,1.4,2.5,2.3c0.6,0.8,0.9,1.6,1.7,2.4c1.1,0.9,2.2,2.3,3.5,2.8
		c0.9,0.3,0.2,2,0.9,2.7c0.7,0.7,1.5,1.3,2.3,1.9c1,0.8,1.9,1.8,2.8,2.7c0.7,0.7,0.9,0.6,1.8,0.7c1.2,0.1,1.8,1,2.8,1.7
		c0.7,0.5,2,0.8,1.9,1.7c-0.1,1.3,0.5,1.8,1.5,2.3c0.4,0.2,1.8,1.9,1.6,2.4c-0.6,1.1-0.1,1.6,0.5,2.8c0.8,1.5,1.9,2.8,2.8,4.2
		c0.9,1.4,0.6,3.6,0.4,5.2c-0.2,1.8,0.4,3.2,1.1,4.9c0.3,0.7,0.1,1.4,0.4,2c0.2,0.4,0.6,0.4,1,0.6c0.6,0.3,0.4,1.2,0.4,1.7
		c0,0.8,1.1,2.4,1.5,2.9c0.6,0.9,1.5,1.6,2.3,2.3c0.7,0.6,1.2,0.5,2.1,0.7c1.5,0.3,1,1.7,1.9,2.4c1.8,1.3,3.6,2.6,5.4,4
		c0.8,0.3,2,0.8,2.9,0.6c1-0.3,0.8,0.5,0.8,1.4c1.2,0.7,2.4,1.6,3.7,2c2.1,0.6,2.7,2.3,4.3,3.5c0.5-0.4,1.1-0.3,1.4,0.3
		c0.5,0.8,1.1,0.6,1.9,0.6c1.9,0.2,2-0.4,2.7-2.1c0.2-0.6,0.7-0.7,1.1-1.1c0.6-0.6,0.9-1.5,1.6-2.1c0.3-0.3,1.1-0.5,1.3-0.9
		c0.4-0.6,0.3-1.9,0.5-2.6c0.3-1,1-1.9,1.4-2.9c0.3-0.7,0.3-1.2,0.1-1.9c-0.2-1,0.5-1.7,1-2.5c0.8-1.3,1-2.9,1.8-4.2
		c0.5-0.8,0.9-0.6,1.7-1c0.3-0.2,0.6-0.3,0.9-0.4c0.4,0,0.6,0.6,0.9,0.5c0.4,0,0.5-1.4,1.2-1.1c0.4,0.2,0.9,1.1,1.5,0.8
		c1.1-0.6,0.9-3.1,2.4-3.4c0.5-0.1,1.3,1.1,1.7,1.4c0.8,0.6,1.7,1.1,2.7,0.8c0.7-0.2,1.4-0.7,2.1-0.2c0.8,0.5,1.5,0.9,2.5,0.6
		c1.1-0.4,3.1,0.1,4.2,0.4c1.1,0.3,4-1.3,4.6-0.1c0.3,0.5,0.8,0.9,1.1,1.4c0.4,0.8,0.5,1.8,0.8,2.7c0.4,1,1.9,0.4,2.6,0.1
		c0.3,0.6,0.7,1.5,0.6,2.2c-0.2,0.8,1.2,0.8,1.4,1.4c0.3,0.7,1.6,0.1,2,0.8c0.8,1.1-0.2,2.3,1.5,3.2c1.7,0.9,3.2,2.1,4,3.9
		c0.3,0.7,1.2,1.1,1.6,1.7c0.7,1,1.2,2.5,1.4,3.7c0.3,1.7,0.2,3.3,1.3,4.8c1.1,1.4,1.7,3.2,2.4,4.8c0.7,1.6,1.4,3.2,2.1,4.9
		c0.3,0.7,0.5,1.4,0.6,2.1c0.2,1,0.8,1.6,0.9,2.5c0.2,2.5,1.8,3.6,3.9,4.6c2,0.9,1.3,4.5,3.2,5.3c0.2,0.1,0.8-0.2,0.9,0.1
		c0.3,0.5,0.2,1.4,0.4,2c0.5,1.3,1,2,1.2,3.4c0.2,1.3,2.6,2.3,3.5,2.9c0.7,0.5,3.1,1.7,3.3,2.6c0.3,1.8,0.8,3.6,0.7,5.5
		c0,0.7-0.8,1.4-0.5,2c0.4,0.8,1.1,1.1,1.3,2.1c0.6,2.2-0.9,3.8,0.5,5.9c0.4,0.6,0.1,1.3,0.4,1.9c0.6,1,1.4,1.7,2.3,2.5
		c1.7,1.5,2.6,5.4,2.5,7.5c0,1.4,1,2.5,1.3,3.8c0.2,1.2,0.5,2.3,1.9,2.5c1.8,0.2,5.3,0,6.3,2c1.2,2.7,3.3,0.7,5,2.3
		c0.7,0.6,1.7,1.1,2.4,1.7c0.9,0.8,2.2,1.3,3.4,1.8c2.5,0.9,4.9,1.3,7.5,0.9c2-0.3,4,1,5.5,2.4c2,1.8,2.2,3.6,5.2,2.1
		c1.8-0.9,3.2-1.3,2.9-3.7c-0.2-1.3-1.2-2.1-1.8-3.1c-0.5-1-0.4-2.3-0.7-3.4c-0.2-0.8-0.3-2.1-1-2.7c-0.7-0.7-1.7-1.1-1.4-2.2
		c0.5-2.5,0.9-3.9,0.1-6.3c-0.3-1-0.6-1.9-1-2.9c-0.4-0.9-1.5-1.4-1.7-2.4c-0.2-0.9,1.1-0.8,0.4-1.9c-0.3-0.4-1-1.8-0.5-2.3
		c0.6-0.6,1.2-0.5,1.6-1.5c0.3-0.7,0.5-1.4,0.7-2c0.3-0.9,1.4-3-0.3-2.7c-0.6,0.1-1.8,0.6-2.3,0.1c-0.7-0.7-1.3-1-2.2-0.6
		c-2.3,1.1-0.8-0.5,0-1.3c0.6-0.6-1.4-3.8-0.9-4c0.3-0.1,1.9,1.9,2.2,2.2c0.8,0.7,1.6-0.7,2.2-1.1c1.2-0.7,1.4-0.3,2.3,0.5
		c0.3,0.3,0.7,0.1,0.7-0.3c0.1-0.7-0.5-1.4-0.9-1.9c-0.8-1.1-0.4-1.8,0.9-2.2c1-0.3,1-0.6,1.5-1.4c1.7-2.4,0.8-3.7-1.7-4.9
		c-0.9-0.4-2.1-0.9-2.8-1.6c-0.5-0.6,1-1,1.3-1.1c1-0.3,2-0.6,3-0.5c1.3,0,1.8,1.4,2.8,1.4c0.4,0,1.1-1.3,1.4-1.6
		c0.9-1,0.8-1.7,0-2.8c-0.4-0.5-3.5-3.4-1.5-4c1.1-0.3,2.3-0.6,3.2-1.3c0.7-0.5,1.3-1.3,2-1.8c1.7-1.1,1.4,3.1,3.1,0.1
		c0.2-0.4,1-1.7,0.5-2.1c-0.6-0.5-1.6-0.9-1.9-1.8c-0.3-0.8,1.4-2,2-2.2c0.5-0.2,1.2,2.5,1.7,3c0.6,0.6,3.9-0.5,4.8-0.8
		c2.3-0.6-2.2-2.5-2.7-3.1c-0.4-0.5,1.6-1,0.4-1.9c-0.6-0.4-1.2-1.2-1.6-1.8c-0.2-0.4-1-1.5-0.3-1.8c1.7-0.8,2.1-1,3.2,0.7
		c1.7,2.6,1-0.6,0.9-1.7c-0.3-2.4,3.3,0.6,3.4,1.5c0,1.4,1,0.1,1.5-0.3c0.7-0.6,1.4-0.5,0.7,0.3c-0.8,0.9,0.7,1.7,1.5,1.8
		c1,0.1,1.8-0.5,2.6-0.9c1.4-0.8,2.8-1.7,4.4-2.2c1.2-0.4,2.5-0.4,3.7-0.8c1.1-0.4,1.9-1.6,2.7-2.4c1-1,2.2-1.6,3.4-2.3
		c2-1.1,2.5-1.8,3.4-3.9c0.4-0.9,0.7-1.7,0.5-2.6c-0.4-1.8,0-1.3,1.4-0.9c0.9,0.2,3.5-2.3,3.8-3c0.4-1-0.4-2.1-0.6-3.1
		c-0.2-1.1-0.2-1.7-1.2-2.4c-0.6-0.5-1.9-1.4-1-2.2c1-0.9,0.2-0.8-0.3-2c-1.2-2.5,2.3-0.2,3.1,0c1.3,0.4,0.7-3.2,2.4-3.5
		c0.8-0.1,2.3-0.9,2.3,0.5c0.1,1.3,0.1,2.8-0.7,3.9c-1.6,2.3,0.7,1.9,2.4,1.6c0.3-0.1,2-0.7,2.2-0.2c0.3,1,1,0.4,1.1,1.2
		c0.1,0.9,2.3-0.8,2.6-0.9c1.3-0.6,2.5-1,3.7-1.8c1-0.6,2.4-1.5,3.6-1.4c0.9,0.1,1.7,0.7,2.7,0.4c0.8-0.2-0.5-1.3-0.8-1.6
		c-0.6-0.8-1.4-2-1.2-3.1c0.3-1.4,3-3.9,4.3-4.3l0.1-0.3c-0.4-0.9,0.2-2.4,0.6-3.3c0.7-1.5,0.5-2,0-3.7c-0.3-1.1-0.9-2.7-0.6-3.8
		c0.2-0.6,0.7-1,1-1.5c0.4-0.9-0.1-0.8-0.3-1.6c-0.3-1.1-0.2-2.1,0.4-3.1c0.3-0.5,0.7-1.1,1.2-1.4c0.6-0.3,0.4-1.7,0.7-2.3
		c0.6-1.2,0.7-2.9,0.7-4.2c0-0.5,0.5-0.9,0.9-1.1c0.4-0.2-0.4-1.5-0.5-1.7c-0.6-1.2,1.8-0.9,0.6-2c-1.3-1.2-0.3-2.1-0.9-3.7
		c-0.4-1.1-0.9-1.7-1.7-2.5c-0.7-0.6,0-1.2-0.2-2c-0.3-1.1-0.8-1.7-1.3-2.7c-0.8-1.3-1.9-2.7-2.2-4.3c-0.2-1.2,0.3-2.9-0.1-4
		c-0.5-1.4-0.7-2.5-1.8-3.6c-0.8-0.9-1.5-2.2-2.7-2.6V96c-0.7-0.3-1.3-0.5-2-0.7c-0.3-0.1-0.7-0.5-1-0.5c-0.3,0-1,0.7-1.2,0.6
		c-1.3-0.7-1-0.5-2.5-0.2c-0.7,0.2-2.2-0.7-2.1-1.5c0.1-0.7-4-2.1-4.6-2.3c-1.1-0.3-2.2-0.8-3.3-1.1c-1-0.3-1.6-1.2-2.4-1.9
		c-0.7-0.5-1-1.3-1.8-1.8c-0.9-0.6-2.5-2.2-3.6-2.1c-2.1,0.2-2.4,2.7-4.8,2.5c-0.8-0.1-2.1-0.1-2.5-0.8c-0.7-1-0.5-1.6-1.9-1
		c-1.7,0.7-3.3,1.3-5,1.9c-1.3-0.4-1.3-0.9-2.5,0c-0.5,0.4-0.3,0.7-1.1,0.4c-2.8-1-1.6,1.1-3.7,2.2c-1.2,0.6-1.5,0.1-2.2,1.3
		c-0.6,1-1.1,0.2-1.3-0.5c-0.2-0.7-0.1-1-0.9-1.1c-0.4-0.1-0.8-0.1-1.2-0.3c-0.6-0.2-0.5-0.6-1-0.8c-0.6-0.3-1-0.2-1.4-0.9
		c-0.4-0.6-0.1-0.7-0.6-1.1c-1-0.7-0.8-0.2-1.5,0.7c-0.4,0.5-1.7,0.1-2.2-0.1c-1.2-0.3-1.3-0.3-1.5-1.5c-0.1-0.5-1.8-0.8-2.2-0.7
		c-0.9,0.2-0.8,1.3-0.8,2.1c0,0.5-0.4,0.4-0.8,0.5c-0.6,0.2-0.3,0.5-0.6,0.9c-0.5,0.9-0.7,1.2-0.5,2.3c-0.7,0.2-2.8,0.4-1.9-0.9
		c-0.3-0.6-0.7-1-0.2-1.5c0.4-0.4,0.8-2.4-0.3-2.1c-1,0.3-3.6,2.4-4.4,2c-0.7-0.4-1.3-1.1-1.3-1.9c0-0.4-1.7-0.2-1.9-0.2
		c-1.5,0.1-0.2-3.2-2.3-1.9c-1.3,0.8-2.4,2.1-3.6,3.1c-0.7,0.6-1,0-1.7-0.4c-0.9-0.6-0.9-1.1-0.7-2.1c0.4-2.3-2.3-0.5-2.3-2.1
		c0-0.7-1.8-1.5-0.8-1.9c0.5-0.2,1.1-1.8,0.1-1.6c-1,0.2-3.8,1.8-4.7,0.7c-0.6-0.8-2.1,1.9-3.3,1.7c-1-0.2-1.6-0.9-2-1.8
		c-0.1-0.3-0.1-1.1-0.5-1c-1.2,0.1-3.1,1.1-4.3,0.7c-0.7-0.2-1.7-0.2-2.1-0.9c-0.4-0.5-1.4-1.3-2-0.9c-0.7,0.5-3.2-0.1-4.1-0.4
		c-0.9-0.2,0.2-3.2-1.1-3.8c-0.3-0.2-0.3-0.7-0.4-1c-0.1-0.4-0.8-0.5-1.1-0.7c-0.6-0.4-0.5-1.2-1.5-0.9c-0.2,0.7-0.4,1.2-0.7,1.9
		c-0.5,0.9-1.1-0.2-1.8-0.2c-0.5,0-0.5-0.7-1-0.6c-0.4,0.1-0.6,0.4-1,0.5c-0.4,0.2-1.8,0.2-2.2,0c-1.3-0.7-1.6-2.4-2.7-3.4
		c-1.1-1.1-2.7-2-4.4-2l0-53.2l-64,0.1l-0.7,124.7l-76,0C0.1,139.4,1,141,1,142.1c0,0.8,0.5,0.2,0.7,0.8
		C1.9,143.6,2.1,144,2.5,144.7z"/>
</g>
</svg>
