<?xml version="1.0" encoding="utf-8"?>
<!-- Generator: Adobe Illustrator 16.0.0, SVG Export Plug-In . SVG Version: 6.00 Build 0)  -->
<!DOCTYPE svg PUBLIC "-//W3C//DTD SVG 1.1//EN" "http://www.w3.org/Graphics/SVG/1.1/DTD/svg11.dtd">
<svg version="1.1" id="Layer_1" xmlns="http://www.w3.org/2000/svg" xmlns:xlink="http://www.w3.org/1999/xlink" x="0px" y="0px"
	 width="178.6px" height="180.4px" viewBox="0 0 178.6 180.4" enable-background="new 0 0 178.6 180.4" xml:space="preserve">
<g>
	<path fill-rule="evenodd" clip-rule="evenodd" fill="#288585" stroke="#FFFFFF" stroke-miterlimit="10" stroke-dasharray="1,2" d="
		M56.9,91.8L60.5,56c-0.2-0.8-0.4-1.6-0.8-2.3c7.9,0,15.9,0,23.8,0c0.7,4.4,1.4,8.8,2.1,13.2c0.5,3,1,6,1.4,9c0.2,1,0.3,2,0.5,3
		c0.1,0.5,0.1,1.1,0.3,1.5c0.2,0.5,0.3,0.9,0.5,1.5c0.1,0.6,0.6,1.1,0.9,1.6c0.3,0.4,0.2,1,0.4,1.5c0.1,0.3-0.1,0.4-0.2,0.7
		c-0.1,0.2,0.3,0.5,0.4,0.6c0.3,0.4,0.5,0.4,0.1,0.8c-0.3,0.3-1,0.7-1,1.1c-0.1,0.5-0.1,1-0.1,1.5c0,0.5-0.5,0.6-0.5,1
		c0,0.2,0,0.4,0,0.6c0,0.2-0.3,0.2-0.2,0.4c0,0.5,0.1,1.1,0.3,1.6c0.2,1.1,0.7,1.9,0.6,3c-0.1,0.6-0.3,1.1-0.3,1.6
		c0,0.2,0,0.6-0.1,0.8c-0.1,0.2,0.2,0.4,0.1,0.7c-0.2,0.4,0.3,0.9,0.6,1.2c0.3,0.3,0.2,0.8,0.3,1.1l0,0.1v0H65.3
		c0,0.5-0.2,1-0.2,1.5c-0.1,0.5,0.1,0.5,0.5,0.8c0.3,0.3,0.2,0.7,0.4,1c0.7,0.3,1.4,0.8,0.9,1.6c-0.2,0.4-0.2,0.5-0.1,1
		c0,0.6,0.3,0.5,0.6,1c0,0-0.1,0.2-0.5,0.8c-0.3,0-0.8,0.1-0.8,0.1c-0.1,0.1-0.2,0.2-0.3,0.3c-0.2,0.2-0.4-0.2-0.5-0.2
		c-0.2,0.2,0.1,0.6-0.2,0.8c-0.2,0.2-1.1,0.6-1.3,0.4c-0.1-0.1,0.2-0.3,0.1-0.4c-0.4-0.4-0.4-0.4-0.5-1c0-0.3-0.6-0.2-0.8-0.3
		c-0.3-0.2,0-0.8-0.3-1c-0.4-0.2,0.1-1,0.1-1.3c0-0.6-0.3-0.7-0.8-0.9c-0.7-0.5-1,1.9-1.1,2.5c0,0.2-0.2,2-0.7,1.5
		c-0.6-0.6-1-0.8-1.9-0.7c0,0-0.1,0.1-0.2,0.2L56.9,91.8z"/>
	<path fill-rule="evenodd" clip-rule="evenodd" fill="#288585" stroke="#FFFFFF" stroke-miterlimit="10" stroke-dasharray="1,2" d="
		M48.2,35.5C48.2,35.6,48.2,35.6,48.2,35.5c-0.4,0.3-0.7-0.4-0.9-0.4c-0.2,0,0.3,1.7,0.2,1.9c-0.2,0.4-0.7,0.5-0.9,0.9
		c-0.1,0.3,1,0.4,0.5,0.7c-0.1,0.1-0.9,0.2-0.9,0.3c0,0.4,0.3,0.7,0.5,1.1c0.1,0.2-0.6,0.6-0.6,1c0,0.1-0.5,0.7-0.5,0.7
		c0.2,0.3,0.6,0.8,0,0.9c-0.7,0.2-0.3,0.6,0,1l-0.8,0.8c-0.3,0.1-1.8,0.3-1.2,0.8c0.3,0.3,0.7,0.5,0.5,0.9c-0.1,0.3-0.4,0.8-0.8,0.7
		c-0.7-0.2-0.1,1.3-0.5,1.2c-0.4-0.1-0.5-0.4-0.8,0c-0.1,0.1-0.7,1.3-0.3,1c0.1-0.1,0.7-0.7,0.8-0.4c0.1,0.3,0,0.6,0,0.9
		c0,0.3-0.6,0.3-0.7,0.6c0,0.1,0.5,0.3,0.6,0.5c0.1,0.3,0.1,0.7,0.2,1c0,0.3-0.9,0.5-1,0.9c-0.1,0.4,0.1,0.4-0.3,0.5
		c-0.2,0.1-1,0.2-0.6,0.5c6.4,0,12.9,0,19.3,0c7.9,0,15.9,0,23.8,0l0,0l12.1,0l0-2c0.3-0.1,0.5-2,1.2-1.1c0.2,0.2,0.7-0.1,0.9-0.2
		c0.4-0.2,0.3-0.7,0.5-1c0.3-0.3,0.1-0.6,0.2-0.9c0.1-0.3,0.4-0.6,0.7-0.8c0.5-0.5,0.7-0.7,1.4-0.7c0.5-0.4,1.2-0.3,1.8-0.2
		c0.2,0,0.7,0.2,0.8,0c0.3-0.5,0.5-0.7,1.1-0.8c0.6-0.2,1.1-0.9,1.7-1.1c0.4-0.1,0.6-0.7,1-0.7c0.1,0,0.1-0.2,0.2-0.2
		c0.2,0,0.4,0.3,0.7,0.3c0.4-0.3,1.1-0.9,0.8-1.4c-0.7-1.1,0.9-0.2,1.1-0.5c0.1-0.2,0-0.5,0.2-0.7c0.2-0.3,0.5-0.5,0.9-0.6
		c0.2-0.1,0.7-0.1,0.8,0.2c0.1,0.3-0.3,0.4,0.1,0.6c0.5,0.2,1-0.3,1.2-0.7c0.4-0.7,0.7-0.9,1.5-1.2c0.4-0.1,1.5-0.3,1.5,0.3
		c0,0.6,1.1-0.2,1.2-0.5c0.2-0.7,0.6-1.3,1-1.9c0.3-0.3,0.6-0.5,1-0.5c0,0,0.4,0.1,0.4,0.1c0.1-0.1-0.2-0.6-0.2-0.8
		c0.1-0.2,0.2-0.6,0.3-0.7c0.2-0.2,0-0.3,0-0.5c-0.1-0.3,0.2-0.7,0.2-1L61,33.6l0,2L48.2,35.5z"/>
	<g>
		
			<path fill-rule="evenodd" clip-rule="evenodd" fill="#288585" stroke="#FFFFFF" stroke-miterlimit="10" stroke-dasharray="1,2" d="
			M172,34.9c-9.6,0-19.1,0-28.7,0c-4.7,0-9.5,0-14.2,0c-3.1,0-6.1-0.3-9.2-0.6l0,0l0,0c-6-0.1-12.1-0.2-18.1-0.2
			c1.1-0.5,2.5-1.3,3.7-1.3c1,0,1.1-0.8,1.7-1.4c0.3-0.4,1.4-0.4,1.9-0.5c0.1-0.3,0.2-0.7,0.3-1c0.2-0.4,0.7-0.3,1-0.7
			c0.3-0.4,0.2-0.9,0.6-1.3c0.5-0.5,1.2-0.9,1.8-1.2c0.5-0.2,1.1-0.3,1.5-0.8c0.3-0.3,0.5-0.8,0.9-1.1c0.5-0.4,1.6-1,1.7-1.8
			c0.3,0,0.4,0.2,0.4,0.5c0,0.3,0.1,0.4,0.2,0.7c0.1,0.3,0.2,0.6,0.3,0.9c0.2,0.4,0.5,0.8,0.9,0.9c0.2,0.1,0.5,0.1,0.7,0.2
			c0.2,0.1,0.4,0.5,0.7,0.7c0.7,0.5,1.3-0.6,1.9-0.5c0.6,0.1,0.5-0.5,0.9-0.6c0.4-0.1,0.8,0.7,1.1,0.8c0.4,0.1,1.4-0.4,1.8-0.6
			c0.5-0.2,0.4-0.1,0.8,0.1c0.1,0.1,1-0.5,1-0.6c-0.1-0.3-0.2-1,0.3-1.1c0.3-0.1,0.8,0.4,1.1,0.4c0.2,0,0.4-0.5,0.6-0.6
			c0.2-0.1,0.8-0.1,1-0.1c0.5,0,0.5,0,0.8,0.3c0.1,0.1,0.8-0.4,0.9-0.5c0.4-0.3,0.5-0.4,0.2-0.8c-0.3-0.5,0.7-0.7,0.9-0.9
			c0.2-0.3-0.6-0.4-0.5-0.7c0.1-0.4,0.3-0.9,0.5-1.2c0.3-0.6,0.7-1.2,1.1-1.8c0.2-0.2,0.3-0.5,0.5-0.7c0.2-0.2,0.5-0.2,0.7-0.4
			c0.2-0.3-0.2-0.9,0.2-0.9c0.3-0.1,0.1-0.8,0.4-1c0.1-0.1,1.3-1,1.1-1.2c-0.5-0.4,0.7-1.3,0.8-1.8c0.1-0.5,0.1-1.5,0.5-1.8
			c0.1-0.1,0.8,0.2,0.9,0.3c0.5,0.3,0.4,1,1,1.2c0.5,0.2,1,0.4,1.4,0.2c0.4-0.1,0.5-0.7,0.7-0.9c0.3-0.3,0.2-0.5,0.3-1
			c0.1-0.5,0.7-0.5,0.9-1.1c0.1-0.5,0.3-1,0.6-1.5c0.3-0.5,0.5-0.3,0.9,0.1c0.1,0.1,0.2,0.4,0.4,0.3c0.2-0.2,0.4-0.3,0.5-0.6
			c0.1-0.3,0.4-0.9,0.6-1.1c0.3-0.3,0.6,0.2,1-0.1c0.2-0.1,0.3-0.3,0.4-0.5c0.3-0.4,0.8-1.5,1.3-1.6c0.8-0.3,0.7-1.2,0.8-1.9
			c0-0.3,0-0.6,0.2-0.8c0.2-0.1,0.4-1.1,0.4-1.2c0.3,0.2,0.7,0.1,0.9,0.3c0.3,0.3,0.7,0.6,1,0.8c0.7,0.6,1.5,1.2,2.2,1.7
			c0.2,0.2,0.7,0.8,0.7,0.1c0.1-0.5,0.2-0.9,0.5-1.3c0.3-0.4-0.2-0.7,0.4-0.6c0.4,0,1,0.3,1.4,0.5c0.3,0.2,0.8,0.4,0.9,0.8
			c0.1,0.2-0.2,0.4-0.3,0.5c-0.1,0.2-0.1,0.4-0.1,0.6c0.2,1.2,1.9,0.6,2.4,1.7c0.2,0.5,0.7,0.3,1.1,0.5l0,0
			c-0.1,0.1,0.3,0.8,0.4,0.9c0.2,0.3,0.2,0.7,0.2,1.1c0,0.9-0.7,1.1-1.2,1.8c-0.4,0.6-1.1,1.2-1.1,1.9c0,0.7-0.5,1.8,0.5,1.9
			c0.6,0,1.1-0.3,1.7-0.6c0.4-0.2,0.7,0.3,0.7,0.7c0,0.6,0.3,0.9,0.7,1.2c0.5,0.4,1.6,0.9,2.2,1.1c0.5,0.1,0.7,0.2,0.9,0.7
			c0.2,0.5,0.8,0.9,1.2,1.2c0.3,0.2,0.7,0,1,0.2c0.4,0.2,0.7,0.4,1,0.8c0.4,0.5-1.6,0.8-0.6,1.2c0.2,0.1-0.1,0.6-0.1,0.9
			c0,0.1-0.3,1.1-0.5,0.9c-0.2-0.2-0.1-0.6-0.4-0.6c-0.6,0-1.3,0-1.4-0.8c-0.2-0.9-1-1.1-1.6-1.7c-0.3-0.3-0.6-0.7-1-1
			c-0.5-0.3-0.2-1.1-0.7-1.4c-0.3-0.2-0.8-0.1-1-0.5c-0.1-0.1-0.8-0.8-0.9-0.6c-0.3,0.8,1.6,1,1.8,1.6c0.2,0.5,0.2,0.8,0.5,1.4
			c0.2,0.4,0.7,0.7,1,0.9c0.4,0.4,1,0.6,1.3,1.1c0.6,0.7,1,1.1,1.8,1.5c0.2,0.1,0.1,0.8,0.3,1c0.4,0.5,0.8,0.8,1.2,1.3
			c0.2,0.2,0.6,1.5,0,1.5c-0.5,0-0.1-0.9-0.5-0.8c-0.2,0-0.3,0.2-0.3-0.1c0-0.5-0.1-0.4-0.5-0.5c-0.6-0.2-0.1,0.3-0.3,0.6
			c-0.4,0.6,0,0.8,0.3,1.3c0.4,0.6-0.7,0.4-0.9,0.1c-0.3-0.4-0.7-0.8-0.9-1.2c-0.2-0.4-0.6-0.6-0.8-1.1c-0.2-0.4-0.5-0.5-0.7-0.8
			c-0.1-0.3-0.4-0.1-0.4,0.2c0,0.2,0.1,0.4,0.1,0.6c0.6,0.5,0.9,0.9,1.2,1.6c0.1,0.4,0.7,0.5,0.9,0.7c0.3,0.2,0.6,0.5,0.9,0.7
			c0.2,0.1,1.4,0.9,1,1c-0.7,0.2,1.2,1.7,0.3,1.6c-0.2,0-0.5,0.1-0.7,0c-0.1-0.1-0.3-0.5-0.5-0.7c-0.8-0.7-1.2-1-1.3-2
			c0-0.5-0.5-0.4-0.9-0.2c-0.3,0.2-0.6-0.2-0.9-0.3c-0.4,0-0.3-0.4-0.6-0.7c-0.3-0.2-0.3,0.8-0.5,0.8c-0.1,0-0.2-0.5-0.2-0.6
			c-0.2-0.3-0.5-0.3-0.8-0.3c-0.3,0-0.3-0.4-0.5-0.4c-0.2,0-0.2,0.3-0.3,0.3c-0.5-0.1-1.1-0.5-1.5-0.3c-0.5,0.2,0.7,0.8,0.9,0.8
			c0.5,0.1,1.1,0,1.6,0.1c0.2,0.1,0.3,0.4,0.5,0.5c0.3,0.1,0.5,0.1,0.8,0.2c0.5,0,0.9,0.4,1.3,0.7c0.5,0.4,0.5,1.1,1.1,1.6
			c0.5,0.4,1.1,0.6,0.9,1.3c-0.1,0.5-0.2,1.1,0.4,0.8c0.7-0.3,0.5-0.5,1.1-0.1c0.9,0.6,0.4,0.1,0.7-0.4c0.3-0.7,0.7-0.9,1.4-0.5
			c0.5,0.3,1.2,0.1,1.4,0.8C172.9,32.6,172.7,33.7,172,34.9L172,34.9z"/>
		
			<path fill-rule="evenodd" clip-rule="evenodd" fill="#288585" stroke="#FFFFFF" stroke-miterlimit="10" stroke-dasharray="1,2" d="
			M175.7,17.9c-0.1,0.3-0.5,0.5-0.7,0.8c-0.3,0.4,0.1,0.6,0,0.9c-0.2,0.7-0.9,1.3-1.3,1.8c-1,1.3-0.7,3.2-1.4,4.6
			c-0.2,0.5-0.3,0.8,0,1.3c0.2,0.3,0.5,0.7,0.8,0.2c0.2-0.5,0.4-1,0.6-1.5c0.4-1.1,0.6-2.5,1.8-3c0.7-0.4,1-1.8,1.3-2.5
			c0.2-0.3,0.3-0.8,0.5-1.1c0.5-0.6,0.2-1.3,0.5-2l-2.1,0.3C175.7,17.8,175.7,17.8,175.7,17.9C175.5,18.4,175.7,17.8,175.7,17.9z"/>
	</g>
	<path fill-rule="evenodd" clip-rule="evenodd" fill="#288585" stroke="#FFFFFF" stroke-miterlimit="10" stroke-dasharray="1,2" d="
		M61.2,20c0.2,0.3-0.2,0.6-0.4,0.7c-0.4,0.3-0.6,0.5-0.7,1c-0.1,0.5,1.1,1.8,0.8,2C60.6,23.9,60.2,24,60,24c-0.3,0-0.9-0.1-1.2,0
		c-0.5,0.3-0.5,0.9-1.2,0.9c-0.6,0.1-1,0.5-0.8,1.1c0.3,0.9,1.3,1.7,0.4,2.5c-0.4,0.4-0.8,0.5-1.2,0c-0.3-0.4-0.6-0.3-1.1-0.6
		c-0.7-0.4-2.1-1.3-3.1-0.8c-0.4,0.2-0.6,0.7-0.6,1.1c0,0.1-0.7,0.9-0.8,1.1c0.9,0.7,1.1,1.2,0.4,2.1c-0.3,0.3-0.2,0.7,0.1,0.8
		c0.5,0.3-0.6,0.5-0.7,0.6c-0.2,0.1,0.3,1.1,0.2,1.4c-0.2,0.6-0.4,0.7-0.9,0.3c-0.4-0.3-0.6-0.7-0.9-0.1c-0.2,0.4-0.3,0.8-0.6,1.1
		l12.8,0l0-2l40.7,0.6c1.1-0.5,2.5-1.3,3.7-1.3c1,0,1.1-0.8,1.7-1.4c0.3-0.4,1.4-0.4,1.9-0.5c0.2-0.7,0.3-1.1,1-1.4
		c0.5-0.2,0.5-0.7,0.6-1.1c0.2-0.4,0.7-0.8,1.1-1c0.7-0.5,2.2-0.7,2.7-1.5c0.5-0.8,1.1-1.2,1.8-1.8c0.5-0.4,1.1-1.3,0-1.2
		c-0.5,0-0.4-0.5-0.8-0.7c-0.5-0.4-1.1-0.7-1.3-1.4c-0.2-0.5-0.5-0.9-0.7-1.4c-0.2-0.4-0.8-0.8-0.8-1.2c-0.1-0.4,0-0.5-0.4-0.8
		c-0.3-0.3-0.6-0.7-0.9-1.1c-0.4-0.7,0.4-1.2,0.4-2c0-0.5-0.2-0.8-0.3-1.3c-0.1-0.4,0.1-0.8-0.2-1.2c-0.2-0.3-0.5-0.8-0.9-0.9
		c-0.5-0.1-0.6,0-1.1-0.4c-0.3-0.2-0.3-2-0.7-2c-0.7,0-1.6,0.8-1.9,1.3c-0.2,0.3-0.7,0.2-1,0.2c-0.2,0-0.4,0-0.6,0.1
		c-0.2,0.1-0.4-0.3-0.6-0.4c-0.6-0.2-1.3-0.6-1.9-0.7c-0.3,0-0.4,0.3-0.6,0.6c-0.3,0.6-0.6,0.3-1.1-0.1c-0.6-0.4-1.2-1.2-1.9-1.5
		c-0.3-0.1-0.7,0.1-1,0.1c-0.4,0-0.8-0.2-1.2-0.3c-0.5-0.2-0.4-0.3-0.4-0.8c0-0.5-0.2-0.7-0.5-1.1c-0.2-0.3,0-0.6-0.3-0.8
		c-0.1-0.2-0.3-0.1-0.5-0.1c-0.4,0-0.4-0.3-0.6-0.6c-0.4-0.7-1.5,0.8-2.1,0.1C92.1,4.2,92,3.7,91.4,4c-0.2,0.1-1,0.6-0.9,1
		c0.2,0.4,0.5,0.7,0.2,1.2c-0.2,0.3-0.1,0.4,0.3,0.6c0.5,0.2,0.2,0.2,0.2,0.7c0,0.3,0,0.9-0.5,0.7c-0.5-0.2-0.8-0.2-1.2,0.2
		c-0.3,0.3-0.8,0.1-1.1,0.5c-0.2,0.2-0.7,0.5-1,0.3c-0.5-0.4-0.7-0.5-1.3-0.4C86,8.8,85,8.8,85,9c0,0.4,0.4,0.6,0.3,0.9
		c-0.1,0.5,0.5,0.6,0.2,1c-0.2,0.3-0.6,0.4-1,0.5c-0.3,0.1-0.7,0.3-1,0.5c-0.3,0.3,0.2,0.8,0.1,1.1c-0.1,0.3-0.5,0.9-0.8,1.1
		c-0.5,0.4-0.8-0.2-1.3-0.1c-0.3,0.1-0.1,0.9-0.3,1.1c-0.4,0.5-0.6,0.6-0.5,1.2c0.1,0.4,0,0.6-0.2,0.9c-0.2,0.2-1,0.6-1.3,0.5
		c-0.5-0.3-1.4-0.4-1.8-0.8c-0.3-0.4,0.2-0.9-0.3-1.3c-0.4-0.3-0.7,0.1-0.9,0.4c-0.2,0.3-0.1,0.7-0.4,1c-0.3,0.3-0.7,0-0.8,0.6
		c0,0.2-0.1,0.9-0.3,1c-0.4,0.1-0.6,0.3-0.9,0.5c-0.5-0.3-1-0.7-1.2-1.2l-0.1,0c0-0.3-0.2-0.1-0.4,0.1c-0.3,0.3-0.5,0.3-0.9,0.4
		c-0.6,0.1-1.3,1.8-1.4,1.8c-0.3-0.1-0.4-0.6-0.7-0.7c-0.4-0.2-0.9-0.3-1.3-0.5c-0.8-0.3-0.8-1.1-1.5-0.3c-0.3,0-0.6-0.1-0.8-0.1
		c-0.1,0-0.3-0.3-0.3-0.2c-0.2,0.1-0.2,0.5-0.2,0.7c0,0.2,0,1-0.3,0.4c-0.2-0.6-0.6-0.3-1-0.3c-0.6,0.1-1-1.2-1.2,0
		c0,0.1,0,0.7,0,0.8C61.9,20.2,61.8,20,61.2,20C61.3,20,61.4,20,61.2,20z"/>
	<g>
		
			<path fill-rule="evenodd" clip-rule="evenodd" fill="#288585" stroke="#FFFFFF" stroke-miterlimit="10" stroke-dasharray="1,2" d="
			M148.9,67.4L138.5,56L128,55.8c0.1-0.5,0.1-1.1,0-1.6c-0.2-0.6-0.8-1.2-1.1-1.7c-0.2-0.5-0.8,0.7-1.2,0.4
			c-0.2-0.1-0.1-0.4-0.2-0.6c0-0.3-0.4-0.4-0.5-0.6c-3-0.1-6.1-0.2-9.1-0.2c-0.4,0-1.1,0.1-1.3-0.2c-0.2-0.2-0.8,0.6-1.3,0
			c0,0-0.7,0.5-0.9,0.5c-0.4,0.1-0.8,0.1-1.2,0.3c-0.6,0.4-1,0.6-1.6,0.9c-0.4,0.2-2.4,0.4-2.4,0.8c-3.9,0.1-7.8,0-11.7,0l0-2
			c0.3-0.1,0.5-2,1.2-1.1c0.2,0.2,0.7-0.1,0.9-0.2c0.4-0.2,0.3-0.7,0.5-1c0.3-0.3,0.1-0.6,0.2-0.9c0.1-0.3,0.4-0.6,0.7-0.8
			c0.5-0.5,0.7-0.7,1.4-0.7c0.5-0.4,1.2-0.3,1.8-0.2c0.2,0,0.7,0.2,0.8,0c0.3-0.5,0.5-0.7,1.1-0.8c0.6-0.2,1.1-0.9,1.7-1.1
			c0.4-0.1,0.6-0.7,1-0.7c0.1,0,0.1-0.2,0.2-0.2c0.2,0,0.4,0.3,0.7,0.3c0.4-0.3,1.1-0.9,0.8-1.4c-0.7-1.1,0.9-0.2,1.1-0.5
			c0.1-0.2,0-0.5,0.2-0.7c0.2-0.3,0.5-0.5,0.9-0.6c0.2-0.1,0.7-0.1,0.8,0.2c0.1,0.3-0.3,0.4,0.1,0.6c0.5,0.2,1-0.3,1.2-0.7
			c0.4-0.7,0.7-0.9,1.5-1.2c0.4-0.1,1.5-0.3,1.5,0.3c0,0.6,1.1-0.2,1.2-0.5c0.2-0.7,0.6-1.3,1-1.9c0.3-0.3,0.6-0.5,1-0.5
			c0,0,0.4,0.1,0.4,0.1c0.1-0.1-0.2-0.6-0.2-0.8c0.1-0.2,0.2-0.6,0.3-0.7c0.2-0.2,0-0.3,0-0.5c-0.1-0.3,0.2-0.7,0.2-1
			c3.2,0.2,6.3,0.6,9.5,0.6c5.1,0,10.3,0,15.4,0c9,0,18.1,0,27.1,0c-0.5,0.8,0.5,1.4,0.5,2.2c0,0.5,0,1.2-0.2,1.7
			c-0.1,0.4-1.3-0.8-1.6-0.9c-0.8-0.2-0.6,0.3-0.1,0.6c0.3,0.3,1.2,0.7,0.7,1.2c-0.6,0.6-1-0.2-1.4-0.7c-0.2-0.2-0.1,0.8-0.5,0.7
			c-0.2,0-1.4-1-1.4-1c-0.2,0.2,0.4,0.7,0.5,0.8c0.4,0.5,0.2,0.8-0.3,1.2c-0.7,0.7-1.6,0.5-2.2-0.2c-0.7-0.8-0.5-1.5,0.2-2.2
			c0.2-0.2-0.2-0.6-0.3-0.4c-0.1,0.3-0.2,0.6-0.3,0.9c-0.2,0.7-0.4,1.2,0.1,1.8c0.3,0.4,0.5,0.4,0.2,0.9c-0.3,0.5-0.2,0.6,0.2,1
			c0.3,0.2,0.7-0.2,0.9-0.2c0.5,0,1-0.1,1.5-0.2c0.4-0.1,0.3,0.6,0.7,0.1c-0.1,0.1,1.2,0.5,1.1,0.3c-0.1-0.2-0.4-0.3-0.3-0.5
			c0.1-0.3,0.6-0.2,0.8-0.2c0.3,0.1,0.6,0.2,0.8,0.5c0.2,0.4-0.3,0.5-0.2,0.7c0,0.1,0.4,0.6,0.1,0.7c-0.2,0-0.9,0.1-0.5,0.5
			c0.2,0.2,0.8,0.5,0.6,0.9c-0.1,0.1-0.5,0-0.5-0.1c0,0.2,0.3,0.6,0.6,0.7c0.5,0.2,0.7-0.7,0.7-1c0-0.5,0-1,0.1-1.5
			c0.2-0.8,0.1-0.3,0.7-0.4c0.5,0,0.7-0.9,1-0.2c0.2,0.3,0.6,0.7,0.4,1.1c-0.2,0.4,0.5,0.8,0,1c-0.7,0.4,0.2,0.8-0.1,1.2
			c-0.1,0.2-0.8,0.8-1,0.4c-0.1-0.2-0.2-0.9-0.5-0.3c-0.4,0.9-0.8,1.6-1.4,2.4c-0.3,0.4-0.5,0.9-1,0.7c-0.5-0.1-1.2-0.3-1.7-0.5
			c-0.3-0.2,0.2-0.9-0.4-0.9c-0.8,0,0,0.6-0.2,0.7c-0.3,0.1-0.8-0.5-0.9-0.7c-0.2-0.4,0.7-0.4,0.7-0.9c0-0.3-1.6-0.1-1.7,0.1
			c-0.1,0.3,0.5,0.9,0.1,1.1c-0.2,0.1-1.1,0.4-1.3,0.3c-0.2,0-0.3-0.3-0.4-0.4c-0.2-0.2-0.4-0.1-0.6-0.1c-0.2,0-1.6-0.5-1.5-0.8
			c-0.3,0.6,0.9,0.9,1.1,1c0.6,0.3,1,0.7,1.6,0.9c0.6,0.2,1.3,0.4,1.9,0.7c1,0.4,0,0.7-0.4,1.1c-0.2,0.2-0.7,0.5-0.5,0.7
			c0.1,0.2,0.7,0.6,0.5,0.9c-0.3,0.4-1,0.7-1.4,0.9c-0.7,0.3-0.8,0.2-1.4-0.2c-0.3-0.2-0.8-0.4-0.9-0.8c-0.1-0.1-0.4-0.9-0.7-0.8
			c-0.4,0.2,1,1.3,0.7,1.5c-0.4,0.5,1.7,1.1,1.9,1.3c0.3,0.2,0.7-0.6,1.3-0.4c0.3,0.1,0.7-0.5,1-0.6c0.4-0.1,0.6,0,1,0.1
			c0.3,0,1.1-0.3,1.1,0.1c0.2,0.9-0.9,1.7-1.4,2.2c-0.1,0.1-0.3,0.2-0.4,0.3c-0.1,0.2,0,0.5-0.2,0.6c-0.1,0.1-0.7-0.6-0.9-0.6
			c-0.3-0.2-0.3-0.6-0.7-0.2c-0.2,0.2-0.3,0.4-0.6,0.5c-0.4,0.2-0.8,0.1-1.2,0.3c-0.5,0.2-1,0.4-1.5,0.5c-0.4,0.1-0.1-0.5-0.3-0.9
			c-0.3-0.4-0.4,0.5-0.4,0.6c-0.1,0.5-1.5,1.9-2,1.9c-0.2,0,0-0.5,0-0.6c0-0.2,0.4-0.3,0.3-0.5c0-0.1-0.2-0.2-0.2-0.3
			c-0.2-0.3-0.3-0.6-0.5-0.9c-0.3-0.5-0.4,0.5-0.2,0.8c0.1,0.2,0.7,0.9,0.1,0.8c-0.2,0-0.8-0.1-0.5,0.3c0.4,0.7,1,1-0.1,1.3
			c-0.9,0.3-1.5,1.2-2,1.9c-0.3,0.5-0.8,0.8-1.3,1.2c-0.1,0.3-0.3,0.6-0.4,0.9c0,0.1-0.3,1.4-0.4,1.3c-0.2-0.2-0.1-0.8-0.1-1
			c0-0.1-0.2-1.1-0.3-0.6c-0.1,1.1,0.6,1.8,0,3c-0.1,0.1-0.6,0.9-0.8,0.6c-0.3-0.4-0.9-0.4-1.4-0.4c-0.6-0.1-0.9,0.5-1.4,0.2
			c-0.5-0.3-0.6,0.2-1,0.4C149.3,67.3,149.2,67.1,148.9,67.4L148.9,67.4z"/>
		
			<polygon fill-rule="evenodd" clip-rule="evenodd" fill="#288585" stroke="#FFFFFF" stroke-miterlimit="10" stroke-dasharray="1,2" points="
			119.9,34.4 119.9,34.4 119.9,34.4 		"/>
	</g>
	<path fill-rule="evenodd" clip-rule="evenodd" fill="#288585" stroke="#FFFFFF" stroke-miterlimit="10" stroke-dasharray="1,2" d="
		M127.1,89.2c1.2-0.6,0.9-1.6,0.9-2.7c0-0.2,0.1-2.5,0.2-2.4c0.5,0.2,0.2,1.3,0.5,1.7c0.5,0.6,0.5-1.5,0.6-1.7
		c0.2-0.5,0.8-0.8,1.4-0.8c0.4,0,0.6,0.5,0.6,0.8c0,0.4,0.6,0,0.8,0c0.4-0.1,0.8-0.1,1-0.5c0.1-0.2,0.2-0.7,0.4-0.8
		c0.1,0,0.6,0.4,0.8,0.4c0.3,0,0.5-0.3,0.7-0.5c0.1-0.1,0.5-0.8,0.7-0.7c0.3,0,0.5,0.3,0.8-0.1c0.4-0.5-0.7-1.1-0.3-1.8
		c0.1-0.2,0.3-0.5,0.6-0.1c0.2,0.3-0.5,0.4,0,0.7c0.9,0.6,1.4-0.8,1.8-1.2c0.3-0.3,0.6-0.6,0.7-1c0.1-0.2,0.2-0.9,0.5-0.9
		c0.2,0,0.8-0.2,0.8,0.2c0,0.4,0.5,0.3,0.6,0.1c0.2-0.3,0.8-1.6,1-1.7c1-0.3,0.3-0.8-0.1-1.3c-0.3-0.4,0.1-0.8,0.3-1.2
		c0.1-0.2,0.9-1,0.9-1.1c0,0.3-0.5,1-0.7,1.2c-0.1,0.2-0.5,0.6-0.2,0.7c0.2,0.1,0.5,0.2,0.7,0c0.4-0.4,0.4-1.1,0.5-1.6
		c0.1-0.4,0.5-0.8,0.8-1.1c0.5-0.5,0.8-1.2,1.1-1.8c0.4-0.7,1-0.9,1.6-1.4c0.6-0.5,1.1-0.7,1.9-1L138.5,56L128,55.8
		c0.1-0.5,0.1-1.1,0-1.6c-0.2-0.6-0.8-1.2-1.1-1.7c-0.2-0.5-0.8,0.7-1.2,0.4c-0.2-0.1-0.1-0.4-0.2-0.6c0-0.3-0.4-0.4-0.5-0.6
		c-3-0.1-6.1-0.2-9.1-0.2c-0.4,0-1.1,0.1-1.3-0.2c-0.2-0.2-0.8,0.6-1.3,0c0,0-0.7,0.5-0.9,0.5c-0.4,0.1-0.8,0.1-1.2,0.3
		c-0.6,0.4-1,0.6-1.6,0.9c-0.4,0.2-2.4,0.4-2.4,0.8c-0.2,0-0.4,0-0.6,0h0c0,0.2,0,0.7-0.2,0.8c-0.4,0.3-0.7,0.2-1,0.7
		c-0.4,0.5-1,1.3-1,2c0,0.5,1.7,1.5,2.1,1.9c0.3,0.2,0.6,0.8,1,0.8c0.4,0.1,1-0.2,1.4,0.1c0.3,0.2,0.3,1,0.5,1.3
		c0.3,0.5,0.5,0.9,0.5,1.5c0,0.4,0,0.7,0.4,0.9c0.4,0.3,0.6,0.9,0.9,1.4c0.5,0.7,0.4,1.4,1.1,1.9c0.8,0.5,1.7,0.9,2.3,1.7
		c0.3,0.4,0.4,1,0.5,1.4c0.2,0.4,0.7,0.5,1.1,0.7c0.8,0.4,1.6,1.3,1.4,2.2c-0.1,0.6,0.2,0.8,0.5,1.1c0.3,0.4,0.3,0.8,0.8,1
		c0.4,0.2-0.1,0.3,0,0.7c0.1,0.3,0.7,0.5,1,0.7c0.8,0.4,1.4,0.6,1.6,1.5c0.2,0.8,0.4,1.5,0.7,2.2c0.2,0.4,0,0.4-0.1,0.8
		c0,0.4,0.1,0.9,0.1,1.3c0.1,0.4,0.2,0.5,0.6,0.6c0.6,0.2,0.5,0.4,1,0.8c0.2,0.2,0.6,0.3,0.4,0.6c-0.2,0.2,0,0.5,0,0.8
		c0.2,0.6,0.8,1,0.7,1.7c-0.2,0.8-0.4,1.3,0.3,1.9c0.3,0.2,0.4,0.3,0.7,0.1C126.3,88.7,126.9,89.1,127.1,89.2
		C127.2,89.1,126.9,89.1,127.1,89.2z"/>
	<path fill-rule="evenodd" clip-rule="evenodd" fill="#288585" stroke="#FFFFFF" stroke-miterlimit="10" stroke-dasharray="1,2" d="
		M89.1,101.8c0.1,0.3,0.2,0.7,0.5,0.9c0.4,0.3,0.3,0.4,0.3,0.9c0,0.4,0,0.8,0,1.3c0,0.2,0.5,0.3,0.7,0.4l23.9,1.8
		c0.1,0.3,0.7,1.1,0.6,1.2c-0.1,0.3-0.3,0.2-0.1,0.6c0.1,0.3,0.3,0.5,0.6,0.6c1.4,0.6,0.5-1.8,1.3-2l-0.1-0.9
		c-0.4-0.4-0.3-1.6,0-2.1c0.1-0.1,0.5-0.3,0.6-0.3c0.4-0.2,0.5-0.2,0.9,0c1,0.5,2.5,1.1,3.6,0.9c-0.3-0.6,0.5-1.4,0.2-1.9
		c-0.1-0.2-0.3-0.4-0.5-0.7c-0.1-0.1,0.2-0.6,0.2-0.8c-0.1-0.7-0.8-0.3-0.4-1.2c0.2-0.4,0.4-1.1,0.8-1.4c0.4-0.3,0.3,1.2,0.8,0.3
		c0.3-0.4,0.7-1.1,0-1.4c-0.1-0.1-1.4-0.5-1.3-0.7c0.3-0.6,1-0.1,1.4,0.1c0.3-0.3-0.1-0.6-0.2-0.9c-0.4-0.7,0.3-0.2,0.5-0.1
		c0.4,0.1,0.3-0.8,0.1-1c-0.2-0.1-0.9-0.7-0.2-0.8c0.3,0,0.7,0.1,1,0.1c0.6,0,0-0.7-0.2-0.9c-0.2-0.4-0.1-0.8,0-1.2
		c0.1-0.3,0.7,0,0.9,0.1c0.5-0.4,0.7-0.6,0.2-1c-0.3-0.3-0.4-0.4-0.1-0.8c0.4-0.5,0.5-0.3,0.9,0c0.6,0.4,0.4-0.7,0.5-1.1
		c0.1-0.3,0.2-0.2,0.4-0.4c0.1-0.2,0-0.4,0.2-0.5c-0.2-0.1-0.8-0.5-1-0.4c-0.4,0.2-0.6,0-0.9-0.3c-0.8-0.7,0.1-1.3-0.1-2.1
		c-0.2-0.5-1.1-1.3-0.8-1.9c0.2-0.5,0.2-0.4-0.3-0.7c-0.4-0.4-0.4-0.6-1-0.8c-0.8-0.2-0.8-1.1-0.7-1.9c0-0.4,0.2-0.4,0.1-0.8
		c-0.1-0.3-0.3-0.7-0.4-1c-0.2-0.6-0.2-1.7-0.8-2.1c-0.4-0.2-2-0.7-2.2-1.2c-0.1-0.3,0.4-0.5,0-0.7c-0.5-0.2-0.5-0.7-0.8-1
		c-0.3-0.4-0.6-0.6-0.5-1.1c0.1-0.6,0.1-0.7-0.3-1.1c-0.3-0.4-0.7-0.8-1.1-1.1c-0.4-0.2-0.9-0.3-1.1-0.7c-0.2-0.5-0.2-1-0.5-1.4
		c-0.4-0.5-0.9-0.8-1.4-1.1c-0.6-0.4-1.6-0.8-1.6-1.5c0-0.4-0.2-0.6-0.4-0.9c-0.3-0.4-0.4-1.1-0.9-1.4c-0.4-0.3-0.4-0.5-0.4-0.9
		c0-0.6-0.2-1-0.5-1.5c-0.2-0.3-0.2-1.1-0.5-1.3c-0.4-0.2-1,0-1.4-0.1c-0.3-0.1-0.5-0.4-0.8-0.6c-0.4-0.4-0.8-0.7-1.2-1
		c-0.6-0.5-1.3-0.7-1.1-1.6c0.1-0.2,0.3-0.3,0.4-0.5c0.2-0.3,0.4-0.8,0.6-1.1c0.3-0.3,0.5-0.3,0.9-0.5c0.2-0.1,0.2-0.6,0.2-0.8
		l-23.2,0l0,0h0c0.7,4.4,1.4,8.8,2.1,13.2c0.5,3,1,6,1.4,9c0.2,1,0.3,2,0.5,3c0.1,0.5,0.1,1.1,0.3,1.5c0.2,0.5,0.3,0.9,0.5,1.5
		c0.1,0.6,0.6,1.1,0.9,1.6c0.3,0.4,0.2,1,0.4,1.5c0.1,0.3-0.1,0.4-0.2,0.7c-0.1,0.2,0.3,0.5,0.4,0.6c0.3,0.4,0.5,0.4,0.1,0.8
		c-0.3,0.3-1,0.7-1,1.1c-0.1,0.5-0.1,1-0.1,1.5c0,0.5-0.5,0.6-0.5,1c0,0.2,0,0.4,0,0.6c0,0.2-0.3,0.2-0.2,0.4c0,0.5,0.1,1.1,0.3,1.6
		c0.2,1.1,0.7,1.9,0.6,3c-0.1,0.6-0.3,1.1-0.3,1.6c0,0.2,0,0.6-0.1,0.8c-0.1,0.2,0.2,0.4,0.1,0.7c-0.2,0.4,0.3,0.9,0.6,1.2
		c0.3,0.3,0.2,0.8,0.3,1.1L89.1,101.8z"/>
	<g>
		
			<path fill-rule="evenodd" clip-rule="evenodd" fill="#288585" stroke="#FFFFFF" stroke-miterlimit="10" stroke-dasharray="1,2" d="
			M66.9,109.5c0.4-0.6,0.5-0.8,0.5-0.8c-0.2-0.4-0.5-0.4-0.5-0.8c0-0.2-0.2-0.8,0-1c0.9-0.7-0.2-1.5-0.8-1.8c-0.2-0.3-0.2-0.7-0.4-1
			c-0.4-0.4-0.6-0.3-0.5-0.8c0.1-0.5,0.2-0.9,0.2-1.5h23.8c0.1,0.3,0.2,0.8,0.5,1c0.4,0.3,0.3,0.4,0.3,0.9c0,0.4,0,0.8,0,1.3
			c0,0.2,0.5,0.3,0.7,0.4l23.9,1.8c0.1,0.3,0.7,1.1,0.6,1.2c-0.1,0.3-0.3,0.2-0.1,0.6c0.1,0.3,0.3,0.5,0.6,0.6
			c1.4,0.6,0.5-1.8,1.3-2l-0.1-0.9c-0.4-0.4-0.3-1.6,0-2.1c0.1-0.1,0.5-0.3,0.6-0.3c0.4-0.2,0.5-0.2,0.9,0c1,0.5,2.5,1.1,3.6,0.9
			c0.1,0.2,0.2,0.3,0.2,0.3c-0.2,0.9-0.4,1.5,0,2.3c0.3,0.7,0.4,1.5,0.5,2.3c0.4,2.1,0.6,4.2,1.1,6.2c0.5,1.9,1.2,3.8,2,5.6
			c0.3,0.8,0.7,1.5,1.1,2.3c0.5,1.1,1.3,2.1,1.2,3.3c0,1-0.1,1.9,0.1,2.9c0.2,1.1,0.4,2.1,0.7,3.2c0.2,0.9,0.6,1.8,0.9,2.6
			c0.3,0.8,0.9,1.5,1.2,2.4c0.6,1.6,1,3.3,1.5,5c0.1,0.5,0.4,1,0.5,1.4c0.1,0.5,0.3,1.1,0.3,1.6c0.1,0.4-0.6,0.5-0.1,0.7
			c0.5,0.2,1.3,1.3,1.4,1.8c0.3,0.9-0.5,1.4,0.4,2.2c0.3,0.2-0.1,1.1,0,1.5c0,0.4,0,0.9,0,1.3c0,1.3,0,2.6,0,4
			c0,0.5-0.4,0.7-0.4,1.2c0,0.4-0.2,1.6,0.1,1.8c-0.3,0.4-0.3,0.7-0.2,1.2c0,0.2,0,1.6,0,1.6c-0.2,0-0.2-0.5-0.3-0.1
			c-0.1,0.3-0.2,0.7,0,1.1c0,0.2,0.1,1-0.3,0.8c-0.1-0.1-0.2-0.4-0.3-0.2c-0.2,0.2-0.4,0.5-0.6,0.7c-0.5,0.4,0.2,1.2-0.3,1.6
			c-0.1,0.1-0.3,0.2-0.2,0.4c0,0.1,0.1,0.3,0.1,0.4c0.1,0.3-0.2,0.1-0.2,0.2c0.1,0.5,0.5,1.3,0.9,0.8c0.1-0.1,0.4-1.4,0.6-1.4
			c0.5,0.1-0.4,1.4-0.5,1.5c-0.1,0.2-0.2,0.4-0.4,0.6c-0.4,0.5-0.8,0.6-0.5,1.2c0.4,0.7-0.6,1.4-1,1.7c-0.3,0.3-0.5,0.6-0.6,1
			c-0.2,0.4-0.5,0.6-0.8,0.9c-0.2,0.2-0.6,0.1-0.7,0.3c-0.1,0.2,0,0.3-0.3,0.4c-0.2,0.1-0.5,0.2-0.6,0.4c-0.4,0.5-1.1,0.5-1.6,0.8
			c-0.4,0.2-0.5,0.1-0.7,0.6c-0.3,0.5-0.4,0.3-0.9,0.1c-0.3-0.2-0.4-0.2,0-0.3c0.3-0.1,0.5-0.2,0.7-0.3c0.3-0.2,0.3-0.5,0.7-0.4
			c0.4,0.1,0.5,0.2,0.7-0.2c0.2-0.3,0.4-0.4,0.8-0.3c0.5,0.1,0.1-0.7,0.7-0.7c0.4,0,0.6-0.3,0.8-0.6c0.3-0.5,0.7-0.8,1-1.3
			c0.2-0.3,0.2-0.5,0.3-0.8c0.1-0.2,0.3-0.4,0.4-0.7c0.1-0.2,0.3-1.6-0.2-1.1c-0.4,0.3-1.2,0.5-1.7,0.5c-0.5,0-0.4,0.6-0.9,0.6
			c-0.2,0-0.4,0-0.5-0.1c-0.2-0.1-0.4-0.5-0.6-0.5c-0.8,0-1.3,0.7-2.1,0.8c-0.4,0-0.5-0.6-0.6-0.9c-0.3-0.7-0.1-0.8,0.2-1.4
			c0.1-0.2,1.3,1.3,1.5,1.4c0.3,0.1,0.6-0.8,0.1-1c-0.6-0.2-0.9-0.3-1.3-0.9c-0.3-0.5-0.5-1-0.7-1.5c-0.1-0.2-0.4-0.5-0.2-0.7
			c0.2-0.2,0.1-0.4,0-0.6c-0.2-0.5-0.7-0.8-0.9-1.4c-0.2-0.6,0.4-0.2,0.5,0c0.2,0.1,0.8,0,0.6-0.3c-0.2-0.3-0.7-0.5-1-0.7
			c-0.9-0.5-1.6-1.1-2.5-1.6c-1.2-0.7-1.9-1.2-2.3-2.6c-0.3-1.1-0.5-2.2-0.5-3.3c0-0.4,0.1-0.7-0.3-0.8c-0.7-0.3-0.5-0.7-0.2-1.2
			c0.1-0.3,0.4-0.9,0.3-1.2c-0.1-0.1-0.5,0.8-0.5,0.9c-0.1,0.3-0.2,0.7-0.4,0.9c-0.6,0.6-0.9-0.3-0.9-0.8c0-1,0-2.1-0.1-3.1
			c-0.1-0.2-0.5-0.7-0.3-0.9c0.2-0.2,1.1-0.6,0.8-1c0-0.1-1.2,0.7-1.6,0.3c-0.2-0.2-0.8-0.7-1-0.6c-0.1,0.1,0.9,1.2,1,1.3
			c0.1,0.1,0.4,0.3,0.4,0.5c0,0.4-0.2,1-0.7,0.8c-0.6-0.3-0.8-1-1.1-1.6c-0.4-0.9-0.7-1.7-1.1-2.6c-0.3-0.6-0.6-1.3-0.8-1.9
			c-0.2-0.5-0.4-0.9-0.6-1.3c-0.4-0.8-0.1-0.5,0.4-1c0.4-0.3,0-0.8,0.2-1.2c0.2-0.4,0.4-0.7,0.7-1c0.2-0.3,0.4-0.6,0.6-0.8
			c0.5-0.7,0.5-0.6,0.2-1.4c-0.2-0.3-0.1-0.7-0.6-0.7c-0.3,0-0.3,0.9-0.4,1.1c-0.3,0.6-0.3-0.6-0.3-0.7c0.1-0.4-0.4-1-0.9-1.1
			c-0.3,0-0.6-0.4-0.7,0.1c0,0.3,0,0.6,0,0.9c0.1,0.3,0.7,0.6,0.9,0.9c0.3,0.5,0,1.1-0.4,1.5c-0.6,0.5-0.5,0.1-0.7-0.4
			c-0.2-0.5-0.7-0.6-1-1c-0.3-0.4,0.1-0.6,0.1-1c0.1-0.3,0-1,0.3-1.3c0.2-0.2,0.5-0.8,0.4-1.1c-0.2-0.4-0.6-0.7-0.3-1.2
			c0.4-0.7,0.7-0.9,0.9-1.8c0.2-1.4,0.4-2.7,0.5-4.1c0-0.3,0-0.5-0.1-0.8c-0.2-0.5-0.1-1-0.1-1.5c0-0.4-0.6-0.5-0.7-0.9
			c0-0.3,0-0.6,0.1-0.9c-0.1-0.4-0.3-0.9-0.5-1.2c-0.1-0.2-0.5,0-0.8-0.1c-1.3-0.2-1.8-0.6-2.4-1.6c-0.5-0.9-1.1-1.6-1.9-2.3
			c-0.6-0.6-0.4-1.6-0.8-2.4c-0.1-0.3-0.8-0.3-1-0.5c-0.3-0.3-0.3-0.8-0.4-1.2c-0.1-0.6-1-1.6-1.6-1.8c-0.4-0.1-0.8-0.2-1.1-0.3
			c-0.6-0.1-0.6-0.4-0.8-0.9c-0.4-0.8-1.6-0.3-2.2-0.2c-0.3,0.1-0.6-0.1-0.9-0.1c-0.4,0-0.8,0.6-1,0.9c-0.1,0.1-0.7,0.4-0.4,0.6
			c0.3,0.1,0.7,0.1,1,0.4c0.5,0.4-1.3,0.2-1.4,0.2c-0.7-0.1-1.2,0.5-1.7,0.9c-0.3,0.2-1.3,1.4-1.6,0.7c-0.1-0.2-0.6,0.4-0.8,0.4
			c-0.5,0.1-0.9,0.3-1.4,0.5c-0.7,0.2-1.9,0.6-2.1-0.3c-0.3-1,0-1.5-0.9-2.2c-0.3-0.2-0.6-0.5-0.8-0.8c-0.2-0.4-0.1-0.8,0.3-0.4
			c-0.2-0.3-0.3-0.7-0.6-1c-0.3-0.4-1.2,0.1-1.7-0.4c-0.2-0.2-0.2-1.2,0-1.3c0.1,0,1.6-0.7,1.4-0.7c-0.2-0.1-0.8,0.2-1,0.3
			c-0.4,0.1-0.6-0.1-0.9-0.3c-0.4-0.3-0.8,0.7-1.1,0.9c-0.3,0.2-1.3-0.5-1.5-0.7c-0.6-0.3-1.2-0.5-1.8-0.7c-1.1-0.5,0.9-0.5,1.1-0.5
			c0.7,0.1-0.4-1.1-0.6-1.2c-0.3-0.2-1.3-0.2-1.6,0.1c-0.3,0.4-0.8-0.8-1.3-0.1c-0.4,0.5-0.2,0.6-0.8,0.7c-0.8,0.1-1.7,0.6-2.5,0.5
			c-0.3,0-0.3-0.3-0.4-0.5c-0.1-0.2-0.5-0.1-0.7-0.1c-1.5-0.1,0.1-0.7-0.1-1.3c-0.3-0.9-0.5-0.2-0.8,0.3c-0.2,0.3-0.4-0.3-0.5-0.4
			c-0.3-0.3-0.8,0.1-0.5,0.4c0.7,0.8-0.7,1.4-1,2c-0.3,0.4-0.6,0.6-1,0.5c-0.7-0.2,0-0.3,0.1-0.6C67.1,109.5,67,109.5,66.9,109.5
			L66.9,109.5z"/>
		
			<path fill-rule="evenodd" clip-rule="evenodd" fill="#288585" stroke="#FFFFFF" stroke-miterlimit="10" stroke-dasharray="1,2" d="
			M116.4,179.5c-0.2,0.2-0.9,0.7-0.9,0.1C115.5,178.6,116,179.2,116.4,179.5L116.4,179.5z"/>
		
			<path fill-rule="evenodd" clip-rule="evenodd" fill="#288585" stroke="#FFFFFF" stroke-miterlimit="10" stroke-dasharray="1,2" d="
			M122.2,177.2c-0.3,0.3-1.6,1.1-1.6,1.1c0-0.1,0-0.6-0.2-0.4c-0.3,0.3-0.1,1.1-0.3,1.2c-0.4,0.2-0.8,0.2-1.2,0.3
			c-0.5,0.2-0.3,0.6,0.2,0.5c1-0.1,1.7-1,2.6-1.1c0.4,0,1-0.1,1.3-0.4c0.2-0.1,0.1-0.8,0.1-1C123.1,177.4,122.6,176.9,122.2,177.2
			C121.9,177.5,122.6,176.9,122.2,177.2z"/>
	</g>
	<path fill-rule="evenodd" clip-rule="evenodd" fill="#288585" stroke="#FFFFFF" stroke-miterlimit="10" stroke-dasharray="1,2" d="
		M32,77.8c-0.2,0.3-0.4,0.8-0.1,1c0.6,0.4,0.5,0,0.6-0.5c0.1-0.6,0.6-0.1,0.6,0.3c0,0.8-0.2,0.7-0.7,1.3c-0.4,0.5-0.2,0.6,0.2,0.9
		c0.5,0.4,0.6,0.3,0.2,0.8c-0.1,0.1-0.8,1-0.4,1.1c0.1,0,1.2-0.2,1.2-0.1c-0.2,0.6-0.6,0.3-0.3,1c0.2,0.4-0.9,0.3-0.2,0.8
		c0.4,0.3,0.7,0.4,0.7,1c0,0.2,1,0.2,0.9,0.5c-0.1,0.2-0.9,0-0.9,0.2c0,0.7,0.1,0.7-0.6,0.9c-0.4,0.1-0.9,0.2-1.2,0.6
		c-0.3,0.5,1.3,0.4,1.4,0.5c0.2,0.2-1.1,0.7-0.9,1c0.1,0.2,0.6,0.2,0.4,0.4c-0.1,0.2-0.4,0.3-0.6,0.4c-0.5,0.3-0.5,0.9-1,1.2
		c-0.4,0.3-1.1,0.5-1.1,1c0,0.6-0.1,0.8-0.5,1.2c-0.5,0.4-0.8,0.8-0.3,1.4c0.6,0.7-0.1,0.3-0.4,0.8c-0.1,0.1,0.2,0.9,0.1,1.2
		c-0.9,0.3-0.6,1.1-0.5,1.8c-0.3,0-0.8-0.1-0.7,0.4c0.1,0.4,0.1,0.8,0.1,1.2c0,0.3-0.1,0.8,0.2,0.8c0.4,0.1,0,0.6,0,0.9l17.4,0
		c-0.1,0.8-0.3,1.5-0.6,2.2c-0.2,0.4-0.4,1.1-0.4,1.5c-0.1,1.3,0.8,2.1,1.5,3c0,0.2,0,0.4,0,0.7c0,0.3,0.3,0.5,0.3,0.8
		c0,0.5,0.5,1.3,0.4,1.8c1.1,1,2.2-1.1,2.7-1.8c0.2-0.4,0.6-0.1,0.9,0c0.4,0.2,0.5,0.1,0.8-0.1c0.4-0.3,1.6-0.9,2.1-0.8
		c0.5,0.1,0.8,0.5,1.4,0.5c0.4,0,0.9-0.2,1.3,0s0.4,0.4,0.9,0.5c0.5,0.1,0.5-0.3,0.9-0.6c-0.2-5-0.4-9.9-0.7-14.9
		c0-1-0.2-2.1-0.1-3.1c0.2-1.7,0.3-3.4,0.5-5.1c1-10.1,2-20.2,3-30.3c0,0,0,0,0,0c-0.2-0.8-0.4-1.6-0.8-2.3l-19.3,0
		c0.7,0.6-0.2,1.1,0,1.7c0,0.1-0.9,0.1-1,0.1c-0.3,0-0.4-0.2-0.5,0.2c-0.1,0.5-0.3,0.8-0.6,1.2c-0.3,0.5,0.1,1.2-0.4,1.4
		c-0.2,0.1,0.3,0.8,0,1c-0.2,0.2-0.2,0.6-0.2,0.8c-0.1,0.3-0.3,0.6-0.5,0.9c-0.4,0.5-0.9,0.8-1.3,1.2c-0.7,0.6-0.1,1.1-0.5,1.7
		c-0.1,0-1.1,0.2-1.1,0.1c0,0.2,0.6,0.7,0.7,0.9c0.2,0.5-0.5,0.5-0.8,0.7c-0.5,0.2-0.8,0.1-0.6,0.7c0.1,0.5-0.1,1-0.3,1.5
		c0.1,0.2,0.4,0.5,0.1,0.6c-0.4,0.1-0.8-0.1-1,0.3c-0.2,0.4,1.7,0,0.6,1.1c-0.3,0.3-0.5-0.4-0.8-0.1c-0.3,0.3,0.1,0.4-0.1,0.7
		c-0.1,0.2-0.6,0.5-0.5,0.6c0.1,0.2,1,1.1,0.7,1.2c-0.4,0.1-0.5,0-0.5,0.5c0,0.5,0.6,0.1,0.6,0.4c0.1,0.3,0,0.7,0,1
		c0,0.3,0.7,0.2,0.6,0.5c0,0.1-0.1,0.3-0.2,0.4c-0.1,0.1,0.1,0.3,0.1,0.4c0,0.7-0.5,0.6-1,0.8c-0.4,0.2,0.4,0.6,0.5,0.7
		c0.1,0.4-0.2,0.5-0.4,0.8L32,77.8z"/>
	<path fill-rule="evenodd" clip-rule="evenodd" fill="#288585" stroke="#FFFFFF" stroke-miterlimit="10" stroke-dasharray="1,2" d="
		M1.6,70c0.5-0.1,0.3,0.7,0.8,0.8c0.5,0.2,0.7,0,1.2-0.1c0.1,0,0.5,0.4,0.5,0.3c0-0.1,0.4-0.4,0.5-0.2c0.1,0.2,1,0.3,1.2,0.5v6.5
		l0,0l26.2,0v0l0.2-0.1c0.1-0.2,0.4-0.3,0.4-0.6c0-0.3-0.6-0.5-0.5-0.8c0.1-0.4,0.9-0.1,1-0.5c0.2-0.4-0.1-0.6,0.1-1
		c0.2-0.4-0.2-0.4-0.5-0.5c-0.2-0.1-0.1-0.8-0.1-1c0-0.3-0.4-0.2-0.6-0.3c-0.3-0.2,0.1-0.7,0.3-0.7c0.6-0.1-0.1-0.7-0.3-0.9
		c-0.5-0.5-0.2-0.3,0.2-0.8c0.2-0.3-0.1-0.5,0-0.8c0.1-0.4,0.8,0.2,0.9,0.1c0.2-0.1,0.5-0.6,0.5-0.8c0-0.2-1.1-0.1-1-0.2
		c0.1-0.5,0.5-0.3,0.9-0.4c0.5-0.1,0.2-0.3,0.1-0.7c0.1-0.4,0.3-0.8,0.3-1.2c0-0.1-0.3-0.6-0.1-0.7c0.2-0.1,0.5-0.2,0.7-0.3
		c0.2-0.1,0.8-0.2,0.8-0.5c0-0.4-0.7-0.7-0.7-1c0,0.1,1-0.1,1.1-0.1c0.4-0.5-0.2-1.1,0.5-1.7c0.5-0.4,1-0.8,1.5-1.4
		c0.3-0.5,0.2-1.4,0.7-1.6c0.2-0.1-0.1-0.6-0.1-0.8c-0.1-0.3,0.5-0.1,0.3-0.6c-0.2-0.7,0.1-1.1,0.5-1.7c0.1-0.2,0.1-0.2,0.2-0.4
		c0.1-0.5,0.1-0.4,0.5-0.3c0.9,0.1,1.1-0.1,1.3-0.9c0.1-0.3-0.4-1-0.4-1.1c0.1-0.2,0.7-0.3,0.9-0.3c0.2-0.1,0.1-0.3,0.2-0.5
		c0.1-0.4,1-0.6,1-0.9c0-0.6,0-1.1-0.6-1.3c-0.4-0.1,0.2-0.5,0.4-0.6c0.2-0.2,0.2-0.4,0.2-0.7c0-0.3,0-0.7-0.3-0.4
		c-0.1,0.1-0.7,0.7-0.6,0.2c0.1-0.4,0.3-0.8,0.6-1.1c0.3-0.3,0.5,0.3,0.8,0.2c0.2-0.1,0.1-0.8,0.1-0.9c0-0.6,0.1-0.2,0.5-0.3
		c0.3,0,0.5-0.5,0.6-0.7c0.2-0.5-0.2-0.7-0.5-0.9c-0.6-0.5,0.9-0.8,1.2-0.8l0.8-0.8c-0.3-0.4-0.7-0.8,0-1c0.6-0.2,0.2-0.7-0.1-1
		l-5.8,0c0.2-1,0.8-1.3,1.4-2.1c0.3-0.4,0.9-0.8,1.3-1.2c0.1-0.5,0.1-1.1-0.1-1.5c-0.2-0.4-0.6-0.9-0.7-1.4l-41,0
		c0,2.6,0.6,5.3,0.9,7.9c0.3,2.2,0.3,4.4,0.4,6.6C2,56.7,2.2,63.4,1.6,70C1.7,70,2.3,62.8,1.6,70z"/>
	<path fill-rule="evenodd" clip-rule="evenodd" fill="#288585" stroke="#FFFFFF" stroke-miterlimit="10" stroke-dasharray="1,2" d="
		M5.8,77.8v12.3c0.5,0.2,0.7,0.6,1,1c0.4,0.4,0.7,0.9,0.9,1.5c0.1,0.6,0,1.1,0.1,1.7c0.1,0.8,0.5,1.3,0.9,2c0.2,0.3,0.5,0.5,0.5,0.8
		c0,0.2,0.1,0.3,0.2,0.5c0.1,0.3-0.1,0.4,0,0.7c0.1,0.1,0.4,0.3,0.4,0.4c0,0.2,0.2,0.5,0.3,0.6c0.1,0.2,0.2,0.5,0.2,0.8
		c0,0.4-0.2,0.6,0.1,0.9c0.8,0.7-0.4,0.4-0.1,1c0.1,0.2,0.2,0.4,0.2,0.7c0,0.2-0.5,0.3-0.4,0.5c0.1,0.5,0,1.2-0.2,1.7
		c-0.1,0.3-0.2,0.6-0.2,0.9c0,0.3-0.4,0.5-0.6,0.7c-0.3,0.5-0.4,0.8-0.3,1.4c0,0.2,0.2,0.3,0.3,0.5c0.1,0.3-0.3,0.6-0.4,0.7
		c-0.3,0.5,0,1.2,0.1,1.7c0.1,0.5,0.5,1.1,0.2,1.6c-0.2,0.4-0.6,1.2-0.4,1.6l0,0.1c0,0,0,0,0,0c-0.2,0.5,0.1,1.6-0.7,1.5
		c-0.6-0.1-0.4,1.1-0.3,1.5c0.1,0.6,1.7-0.3,2.1-0.4c0.7-0.1,1.4,0.1,2.2-0.1c0.7-0.1,0.3-0.3-0.1-0.6c-1-0.7,0.2-0.6,0.6-1.1
		c0.2-0.3,0-1.1,0-1.5c0.1-0.4,0.8,0.7,0.9,0.9c0.6,0.1-0.1,1.5-0.5,1.6c-0.3,0.1-0.7,0.1-0.1,0.5c0.3,0.2,0.7,0.1,1,0.1
		c0.7-0.1,1.6,0.7,2.2,1.1c0.7,0.5,1.6,1.1,2.4,1.3c1,0.2,2,0.3,3,0.3c0.5,0,0.9,0,1.4-0.1c0.4-0.1,0.9-0.7,1.3-0.6
		c0.3,0.1,0.8,0.7,1,0.9c0.4,0.3,0.9,0.6,1.5,0.6c0.4,0,0.6-0.3,0.6-0.7c0-0.6-0.6-0.8-1.1-0.8c-0.2,0-0.9-0.2-1.1,0
		c-0.3,0.3-0.6,0-1-0.1c-0.2-0.1-0.7-0.5-0.4-0.7c0.1-0.1-0.5-0.3-0.6-0.4c-0.3-0.2,3.3-2,3.5-1.4c0.2,0.5-2,1.1-0.3,1.2
		c0.5,0,2.2-0.4,2.1,0.3c-0.1,0.6-0.1,0.8,0.3,1.2c0.5,0.5,0.6,0.9,1.3,0.8c0.5,0,0.7,0.4,1.2,0.5c0.5,0.1,0.4-1.2,0.7-1.1
		c0.4,0.1-0.4,1.4-0.1,1.7c0.1,0.1,0.9,1.2,1,1.1c-0.4,0.3-0.9-0.5-1.2,0c-0.3,0.4-0.3,0.6-0.1,1.1c0.2,0.5,0.6,0.6,1,0.3
		c0.4-0.3,0.1-0.9,0.3-1.1c0.2-0.2,0.1,1.4,0.1,1.5c0.1,0.3,0.8-0.1,1-0.2c0.3-0.1,0.6,0.3,0.8,0.5c0.3,0.2,0.4,0.2,0.8,0.2
		c0.3,0,0.4,0.2,0.6,0.4c0.9,0.5,1.3-1.2,1.5-1.7c0.2-0.5,0.3-0.4,0.8-0.3c0.5,0.1,1-0.3,1.4-0.1c0.3,0.1,0.9,0.4,0.9,0.8
		c0.1,0.5,0.1,1,0.3,1.5c0.2,0.5,1.4-0.4,1.5-0.7c0.3-0.8-0.9-0.8,0-1.4c0.5-0.3,0.4-1.3,0.1-1.8c-0.2-0.3-0.5-0.4-0.7-0.6
		c-0.2-0.2-0.2-0.8,0.2-0.7c0.3,0.1,0.3,0.5,0.6,0.7c0.2,0.2,0.7,0.3,0.9,0.4c0.2,0.1,0.3-0.2,0.6-0.2c0.4,0.1,0.7,0.1,0.8,0.5
		c0.1,0.3,0.2,0.6,0.1,0.9c-0.2,0.3-0.2,0.4,0.2,0.5c0.3,0.1,0.7,0.2,1.1,0.1c0.5-0.1,0.2,0.3,0.4,0.6c0.2,0.2,1.2-0.2,1.3,0.2
		c0.1,0.3,0.1,0.6,0.3,0.8c0.3,0.3,0.3,0.6,0.4,1c0.3,0.5,0.4-0.5,0.6-0.6c0.1-0.1,1,0.9,1.1,1.1c0.2,0.6,1-0.2,1.3-0.6
		c0.2-0.3,0-0.7,0-1c-0.1-0.5-0.3-0.3-0.6-0.6c0,0,0.3-0.3,0.3-0.4c0-0.2-0.4-0.4-0.5-0.5c-0.6-0.8-0.4,0.1-0.6,0.1
		c-0.2,0-0.2-0.7-0.6-0.7c-0.4,0-0.7,0-1-0.3c-0.3-0.2-0.8-0.2-1.1-0.3c-0.5-0.2,0-0.6-0.3-0.8c-0.1-0.1,0.1-0.6,0-0.7
		c-0.3-0.5-0.7,0-1,0c-0.3,0.1-0.9-1.3-0.9-1.6c0-0.1,0.6,0.4,0.6,0.3c0.2-0.4-0.3-0.6-0.2-0.9c0-0.2,0.6,0,0.7,0
		c0.3,0,0.6-0.3,0.8-0.5c0.2-0.2,0.2-0.6,0.4-0.8c0.4-0.4,0.4-0.3,0.9,0c0.4,0.3-0.4-1.1-0.5-1.2c-0.1-0.2-0.5-1.2-0.7-1.1
		c-0.6,0.3-0.3,1.5-1.1,1.6c-0.3,0.1-0.5-0.3-0.5-0.6c0-0.5-0.5-0.3-0.9-0.4c-1.1-0.3,0.4-0.7,0.5-0.8c0.2-0.3,0.1-1,0.1-1.3
		c-0.3,0.1-0.7,0.2-1,0.3c-0.3,0.2,0-0.3-0.3-0.4c-0.3-0.1-1.2,1.3-1.7,1.4c-1.2,0.2-3,0-3.5-1.3c-0.3-0.6,0.1-0.6,0.3-1.1
		c0.1-0.2-1,0.4-1.2,0.5c-1.2-0.2-0.4-1.7,0.4-1.9c0.6-0.1,1,0,1.1,0.7c0,0.2-0.1,0.5,0,0.7c0.1,0.2,0.9-1.7,0.9-1.8
		c0.2-0.3,0.4,0,0.7-0.2c0.3-0.2,1,0.2,1.3,0.4c0.4,0.2,0.7,0.8,1.1,1.1c0.4,0.4,0.8,0.3,1.3,0.5c0.3,0.2,0.5,0.6,0.8,0.7
		c0.6,0.2,0.7-0.6,1.2-0.2c0.1-0.4-0.3-1.3-0.4-1.8c0-0.3-0.3-0.4-0.3-0.8c0-0.2-0.1-0.5,0-0.7c-0.3-0.4-0.7-0.8-1-1.2
		c-0.4-0.4-0.4-1.1-0.5-1.7c-0.1-0.3,0.2-1.1,0.3-1.5c0.3-0.8,0.5-1.5,0.7-2.4l-17.4,0c0-0.2,0.3-0.8,0.2-0.8
		c-0.4-0.2-0.3-0.2-0.3-0.6c0-0.4,0-0.8,0-1.2c-0.1-0.6,0.1-0.6,0.7-0.6c-0.1-0.8-0.5-1.6,0.5-1.8c0-0.3,0.1-0.8-0.1-1
		c-0.2-0.3,0.9-0.2,0.5-0.7c-1-1.2,0.7-1.3,0.7-2.5c0-0.7,0.3-0.8,0.9-1.2c0.5-0.3,0.6-0.9,1.1-1.2c0.3-0.2,1.1-0.5,0.5-0.8
		c-0.6-0.3,1-0.9,0.8-1.2c-0.3-0.3-1.2,0.2-1.4-0.4c-0.2-0.4,1-0.7,1.2-0.8c0.6-0.1,0.7-0.1,0.6-0.7c-0.1-0.5,0.7,0,0.9-0.3
		c0.1-0.2-0.8-0.4-0.9-0.5c-0.1-0.1-0.1-0.5-0.2-0.7c-0.1-0.2-0.4-0.3-0.6-0.4c-0.7-0.5,0.3-0.4,0.2-0.7c0-0.1-0.3-0.4-0.2-0.5
		c0.1-0.2,0.4-0.3,0.5-0.6c0-0.1-1,0.1-1.1,0.1c-0.5,0,0.1-1,0.3-1.1c0.4-0.4,0.5-0.3,0-0.7c-0.5-0.3-0.9-0.5-0.4-1
		c0.4-0.4,0.7-0.5,0.7-1c0-0.2,0.1-0.6-0.2-0.7c-0.3-0.1-0.3-0.1-0.4,0.2c0,0.4,0.1,0.8-0.4,0.6c-0.5-0.2-0.3-0.7-0.1-1.1L5.8,77.8
		L5.8,77.8z"/>
</g>
</svg>
