<?xml version="1.0" encoding="utf-8"?>
<!-- Generator: Adobe Illustrator 16.0.0, SVG Export Plug-In . SVG Version: 6.00 Build 0)  -->
<!DOCTYPE svg PUBLIC "-//W3C//DTD SVG 1.1//EN" "http://www.w3.org/Graphics/SVG/1.1/DTD/svg11.dtd">
<svg version="1.1" id="Layer_1" xmlns="http://www.w3.org/2000/svg" xmlns:xlink="http://www.w3.org/1999/xlink" x="0px" y="0px"
	 width="126px" height="114.6px" viewBox="0 0 126 114.6" enable-background="new 0 0 126 114.6" xml:space="preserve">
<g>
	
		<path fill-rule="evenodd" clip-rule="evenodd" fill="#288585" stroke="#FFFFFF" stroke-width="0.5" stroke-miterlimit="10" stroke-dasharray="1,2" d="
		M53.5,88.6c0.1,0,0.1-0.2,0.1-0.3L53.5,88.6L53.5,88.6z M53.8,73.8c0.1,0,0.3,0,0.3,0.1c0.1,0.1,7.1,4.4,7.1,4.4
		c-0.2,1.2-0.6,2.4-1.1,3.6c-0.1,0.3-1.1,0.2-1.4,0.3c-0.4,0.2-0.7,1.3-0.3,1.7c0.4-0.4,0.7-0.4,1-0.9c0.3-0.4,0.8-0.8,1.2-0.3
		c0.4,0.5,0.8,0.2,1.1-0.2c0.2-0.2,0.9,0.1,1.1,0.1c1,0.1,2.2-0.3,3.2-0.7c1.3-0.5,2.4-0.9,3.8-1.1c1.1-0.2,2.5-0.3,3.6-0.6
		c0.3-0.1,0.5-0.5,0.8-0.7c0.3-0.2,0.6,0.5,1,0.1c0.7-0.6,1.6-1.1,2.4-1.4c0.2-0.1,2.3-0.7,2.3-1c0-0.1-0.7-0.1-0.8,0
		c-0.3,0.1-0.4,0.4-0.7,0.6c-0.2,0.1-0.7,0.2-0.9,0.2c-0.3,0,0.2-0.4-0.2-0.4c-0.6,0-1.3,0.8-1.6,0.2c-0.1-0.4,0-0.4,0.2-0.7
		c0-0.1,0.6-0.8,0.5-0.8c-0.2,0-0.4,0.2-0.5,0.2c-0.2-0.1-0.6,0.5-0.8,0.6C75.1,77.1,75,77.6,75,78c0,0.6,0,0.5-0.4,0.3
		c0,0-0.5,0.3-0.5,0.2c0-0.4,0.6-0.8,0.7-1.2c-0.7-0.4-0.9,1-1.6,1.2c-1.1,0.2-2,0-3.1,0c-0.7,0-1.6,0-2.2,0.1
		c-0.4,0.1-0.5,0.5-1,0.4c-0.3,0-0.6-0.1-0.9-0.3c-0.6,0.2-1.3,0.4-1.9,0.5c-0.6,0.2-0.8,0.6-1.4,0.9c-0.1,0.1-1.2,0.5-1.3,0.4
		c0,0,2.1-2.6,2.3-2.6c-2.4-1.7,1.6-1.6,1.2-2.6c-0.2-0.4-0.2-0.3-0.5-0.6c-0.1-0.1-0.1-0.2-0.1-0.3c0-0.5,0.1-1,0.1-1.5
		c0.2-2.5,0.3-5,0.5-7.5c0,0,0,0,0,0L64.9,65l2.3-8.3h0c-0.3-1.4,0-3.1,0-4.5c0.1-1.6,0.1-3.3,0.2-4.9c-0.1-0.1-0.3-0.2-0.4-0.3
		c-0.2-0.1,0-0.4-0.1-0.6C66.6,46,65.7,47,65.7,47c-0.2-0.9,0.9-2.2,0.1-2.9c-0.4-0.4-0.7,0.9-0.8,1.2c-0.1,0.9-0.6,1.4-1,2.1
		c-0.2,0.3-0.4,1.1-0.8,1.2c-0.5,0,0.1-1.2,0.2-1.5c0.2-0.7,0.8-0.6,1.1-1.2c0.3-0.6,0.3-1.4,0.7-1.9c0.1-0.1,1.2-0.2,0.3-0.7
		c0,0,0.1-0.8,0-0.9c-0.1-0.5-0.4-0.9-0.3-1.5c0.2-0.7,0.6-1.4,0.8-2.2c0.1-0.3,0.2-0.7,0.2-1c0-0.3-0.3-0.6-0.4-0.8
		c-0.1-0.3-0.1-1.2,0-1.4c0.2-0.4-0.2-1.1-0.2-1.5c0-0.5,0.2-1.1,0.3-1.6c0.1-0.8,0.2-1.6,0.3-2.4c-5-0.2-10,0-15,0
		c-1.3,0.8-2.7,1.5-3.9,2.4c-1.3,1-2.5,2.3-3.6,3.5l-0.1,1.1c-0.2-0.2-0.4,0.3-0.7,0.3c-0.5,0-0.7,0.2-1,0.6
		c-0.7,0.8-1.3,1.2-2.4,1.3c-0.4,0.5-0.8,1-0.7,1.7c0,0.1,0.2,0.9,0.4,0.6c0.3-0.3,0.2-0.4,0.8-0.4c0.2,0,1.4,0.8,1.1,1
		c-0.2,0.1-0.4,0-0.6,0c-0.3,0-0.1,0.9-0.1,1.1c-0.2,0.8-0.8,0.1-1,0.4c-0.4,0.3,0.6,1.7,0.8,2c0.3,0.4,0.1,0.5,0,1
		c-0.1,0.4,0.2,0.7-0.3,0.8c-0.6,0.2-1.2,0.2-1.8,0.3c-0.7,0.2-1.1,0.8-1.7,1.3c-0.8,0.8-1.5,1.1-2.6,1.4c-0.8,0.2-0.9,0.5-1.7,0.3
		c-0.8-0.2-1.4-0.1-2.2-0.1c-0.5,0-1.2,0-1.7,0.2c-1.2,0.7-1.7-0.3-2.8-0.8c-0.7-0.3-1.5-0.4-2.2-0.6c-0.3-0.1-0.7-0.3-1-0.2
		c-0.2,0.1-0.4,0.3-0.7,0.4l-1.4-0.4c-1.8,0.4-3.5,0.8-5.3,1.1c-0.2,0-0.5,0.1-0.7,0.2c-0.1,0.1-0.3,0-0.5,0
		c-0.3,0.1-0.2,0.6-0.2,0.9c0,0.4-0.2,1.5,0.4,1.7c0.3,0.1,0.6,0.2,0.9,0.3c0.2,0.1,0,0.7,0,0.9c0,0.5,0.5,1.1,0.4,1.7
		c0,0.6-0.2,0.8-0.6,1.2c-0.7,0.8-1.4,2-2.5,2.2c-0.9,0.1-1.7,1.1-2.5,1.7C9,61.6,8,62.4,7,62.8l0,3l41,0c-0.4,0.5,0.5,0.5,0.6,0.8
		c0.2,0.5,0.1,1,0.9,1c0.4,0,1.3,0.4,1.2,1c0,0.1-0.4,0.5-0.3,0.6c0.2,0.2,0.2,0.5,0.2,0.7c0,0.2-0.3,0.5-0.2,0.7
		c0.1,0.2,0.3,0.3,0.5,0.5c0.2,0.2,0.5,1.1,0.7,1.1C52.3,72.6,54.1,72.8,53.8,73.8C54,73.8,53.9,73.7,53.8,73.8z"/>
	
		<path fill-rule="evenodd" clip-rule="evenodd" fill="#288585" stroke="#FFFFFF" stroke-width="0.5" stroke-miterlimit="10" stroke-dasharray="1,2" d="
		M90.7,53.3c0.5-0.6,1.5-1.3,1.5-2.1c0-0.4,0-2.2,0.6-1.4c0,0,0.7-0.7,0.8-0.9c0.5-0.3,0.1-0.6,0.1-1c0-0.5,1.5-1.6,1.9-1.9
		c-1,0.1-0.1-1.1,0.1-1.5c0.4-0.6,1.4-1,2.1-1.1c0.4-0.1,0.4,0.4,0.8,0c0.1-0.1,0.6-0.7,0.4-0.8c-0.4-0.2-0.5-0.1-0.5-0.6
		c0-0.5,0.4-1.1,0.9-1.1c0,0-0.2,0.5-0.2,0.6c0,0.1,0.3,1.3,0.3,1.3c0,0,1.4-1.9,1.4-1.8c0.2,0.3-0.5,0.8,0,1.1
		c0.2,0.2,0.2-0.9,0.7-0.7c0.7,0.2-0.1,0.6-0.1,0.9c0.1,0.5,0.3,0.8,0.6,0.2c0-0.1,1.3-2.2,1.6-1.6c0.2,0.4-0.4,1.1,0.4,0.8
		c0.5-0.2,1-0.3,1.4-0.5c0.6-0.3,0.4-0.5,0.3-1.1c-0.1-0.5,0.5-1.1,0.8-1.5c0.2-0.2,0.7-0.8,0.6-1.2c-0.1-0.3-0.7-0.7-0.4-1
		c0.4-0.4,0.9-0.6,1.3-0.9c0.2-0.2,0.2-1,0.5-0.9c0.5,0.2,0.9-0.1,0.5,0.7c-0.1,0.1-0.8,1.1-0.7,1.2c0,0.1,0.6-0.5,0.6-0.5
		c0.2-0.2,0.1,0,0.3,0.1c0.4,0.2,0.1,0.5-0.2,0.8c-0.2,0.1-0.2,0.6-0.1,0.7c0,0.3,0.4,0.3,0.7,0.4c0.4,0.1,1.2,0.4,0.3,0.7
		c-0.3,0.1,0.4,0.4,0.7,0.4c0.5-0.1-0.1-1.2-0.1-1.4c0.1-0.7-0.3-0.7,0.6-1c0.4-0.2,0.4-0.8,0.5-1.2c1-0.1,0.5,0.5,0.7,1.1
		c0.1,0.3,0.6-0.2,0.7-0.4c0.1-0.4-0.2-0.7,0.3-0.9c0.2-0.1,1.4,0,1.5,0.1c0.1,0.2,0.5,0,0.5,0.3c0,0.3,0,0.7,0,1
		c0,0.2,0.1,0.4,0.3,0.1c0.3-0.3-0.3-0.9-0.1-1.2c0.5-0.8,1.5,0.6,1.4-0.4c0-0.3,1.1-1.1,1.3-0.8c0.2,0.3,0.2,0.7,0.6,0.4
		c0.5-0.4,0.3,0.2,0.6,0.3c0.1,0.1,0.3-0.4,0.3-0.5c0-0.4-0.3-0.2,0.2-0.6c0.6-0.4,0.8,0.2,1.1-0.5c0.2-0.4,0.4-0.3,0.8-0.3
		c0.5,0,0.9-0.2,0.5,0.4c-0.2,0.2,0.9-0.1,1-0.1c0.5-0.1,0.6-0.5,1-0.8c1.2-1-0.8-0.5-0.8-1.1c0-0.2-0.5-0.7-0.4-0.8
		c0.3-0.2,0.7-0.3,1.1-0.3c0.8,0-0.3-1.4-0.6-1.8c-0.3-0.4-1.2-1.7-1.5-0.7c-0.2,0.5-0.8-0.2-1-0.4c-0.3-0.4-0.4-0.9-0.4-1.3
		c0-0.3,0.4-0.8,0.3-1c-0.1-0.3-0.4-0.6-0.6-0.9c-0.2-0.6,0.5-0.5,0.5-0.9c0.1-0.5,0.1-0.9-0.5-0.9c-0.4,0-0.8,0.2-1.2,0.1
		c-0.3-0.1-0.6-0.6-1-0.8c-0.2-0.1-0.7-0.2-0.8-0.5c-0.2-0.5,0.3-1.1,0.1-1.6c-0.3-0.7,0.5-0.7,0.5-1.4c0-0.3,0-0.7,0-1
		c-0.1-3-0.3-6.1-0.4-9.1c0-1.1-0.1-2.3-0.1-3.4c-0.6-0.4-1.2-0.8-1.7-1.4c-0.5-0.7-1.2-1.2-1.9-1.6c-0.2-0.2-1.6-0.8-1.7-0.3
		c-0.1,0.2,0,0.8-0.3,0.8c-0.3,0-0.6-0.1-0.8-0.2c-0.4,0-0.7,0.2-1.1,0.5c-0.4,0.3-0.9,0.2-1.4,0.4c-0.3,0.1-0.6,0.3-0.9,0.4
		c-0.6,0.2-0.9-0.1-1.4-0.4c-0.8-0.4-0.2-1.5-0.3-2.2c0-0.9-1.9-0.3-2.2-0.1c-0.7,0.4-1,1.5-1.6,2.1c-0.4,0.4-0.6,0.6-0.8,1.1
		c-0.2,0.4-0.8,0.7-1.1,1c-1.2,1.3-2.1,2.8-3.2,4.2c-0.3,0.3-0.4,1-0.5,1.4c0,1-0.2,1.6-0.8,2.5c-0.3,0.5-0.7,1-1,1.4
		c-0.4,0.5-0.5,0.6-0.3,1.3c0.1,0.4,0.3,0.9-0.2,1c-0.5,0.2,0.1,1,0.2,1.3c0.2,0.4,0,0.9-0.1,1.3c-0.1,0.4-0.3,0.3-0.6,0.4
		c-1.1,0.2,0,1.3-0.9,1.8c-0.6,0.3-1.3,0.5-1.9,1c-0.2,0.1-0.5,0.4-0.5,0.7c0,0.4-0.5,0.7-0.5,1c0,0.2,0.8,0.5,1,0.6
		c0.6,0.4-0.6,0.5-0.8,0.1c-0.2-0.3-0.5-0.4-0.8-0.1c-0.3,0.4,0.1,1.1-0.1,1.5c-0.1,0.2-0.2,1.1-0.5,0.6c-0.2-0.4-0.4-0.8-0.6-1.2
		C88.3,25,88,25.4,88,25.9c0,0.6-0.6,0.1-0.7,0.7c0.3,5.3,0.6,10.7,0.9,16c0.1,1.5,0,3.2,0.3,4.7c0.1,0.5,0,1-0.1,1.5
		c-0.1,0.7-0.1,0.7,0.4,1.2c0.2,0.2,0.1,0.6,0.4,0.8c0.2,0.2,0.6,0.4,0.6,0.6c0.1,0.3,0.1,0.6,0,0.9C89.8,52.6,90.5,53,90.7,53.3
		L90.7,53.3z M125.2,32.1c0.1,0.3,0.6,0.3,0.6-0.1C125.7,31.6,125.3,31.9,125.2,32.1L125.2,32.1z M112.1,38c0.2-1,0.7-1.4,1.6-0.9
		c1.1,0.6-0.7,0.7-0.9,1c-0.3,0.3,0.5,0.4,0.3,0.6c-0.3,0.3-0.7,0.5-0.6,0.9c0,0.1,0.3,0.7,0,0.6c-0.2-0.1-0.4-0.2-0.6-0.3
		c-0.1-0.1-0.2,0.1-0.3,0c-0.3-0.2,0.4-0.6,0.5-0.7C112.1,39.1,112.3,38.1,112.1,38C112.2,37.4,112.1,38,112.1,38z"/>
	
		<path fill-rule="evenodd" clip-rule="evenodd" fill="#288585" stroke="#FFFFFF" stroke-width="0.5" stroke-miterlimit="10" stroke-dasharray="1,2" d="
		M90.7,53.3c-0.3-0.2-0.8-0.6-0.9-0.9c-0.1-0.3,0-0.6,0-0.9c-0.1-0.7-1-0.7-1-1.4c0-0.3-0.5-0.4-0.5-0.6c0-0.2,0-0.4,0.1-0.6
		c0.1-0.5,0.3-1.2,0.1-1.6c-0.1-0.4-0.1-0.9-0.1-1.2c-0.1-1.1-0.1-2.2-0.2-3.3c-0.3-5.4-0.6-10.8-0.9-16.2c-0.1,0.4-0.8,0.4-1,0.1
		c-0.5-0.6-0.7-0.5-1.3-0.1c-0.6,0.5-0.6,0.9-0.9,1.6c-0.1,0.4-0.6,1.5-1.1,1.5h0c-0.1,0.5,0.4,0.7,0.4,1c0,0.2-0.2,0.5-0.3,0.7
		c-0.3,0.6-0.9,1.2-0.7,1.9c0.1,0.3,0.8,1.7,0.4,1.9c-0.4,0.1-0.3,0.4-0.4,0.7c-0.1,0.2-0.4,0.4-0.6,0.5c-0.5,0.4-1,0.8-1.5,1.2
		c-0.5,0.4-1.2-0.1-1.7,0.6c-0.6,0.8-0.3,2.2-0.4,3.1c-0.1,0.1-0.2,0.3-0.4,0.4c-0.4,0.2,0.2,0.7-0.1,1c-0.5,0.5-0.5,0.5-0.7,1.3
		c-0.2,0.8-0.9,0.8-1.2,1.4c-0.1,0.2-0.1,0.5-0.1,0.8c0,0.3-0.3,0.6-0.4,0.9c-0.3,0.5-0.4,0.7-0.3,1.3c0.1,0.6,0.2,1.2,0.2,1.8
		c0,0.6-0.5,0.8-0.5,1.3c0,0.1-0.4,0.7-0.2,0.7c0.2,0.1,0.2,0.4,0.2,0.6c-0.2,0.3-0.2,0.4-0.1,0.8C75,54,74.3,54,74,54.3
		c-0.8,0.8,0.1,2.1,0.6,2.7l10.9,0.4l1.2-0.9l0.2-0.3c0.5-0.3,1.1-0.5,1.7-0.8c0.5-0.5,0.7,0.4,1.2,0.5
		C89.6,55.1,90.3,53.8,90.7,53.3C90.5,53.1,90.6,53.4,90.7,53.3z"/>
	
		<path fill-rule="evenodd" clip-rule="evenodd" fill="#288585" stroke="#FFFFFF" stroke-width="0.5" stroke-miterlimit="10" stroke-dasharray="1,2" d="
		M67.2,56.8c-0.3-1.4,0-3.1,0-4.5c0.1-1.6,0.1-3.3,0.2-4.9c-0.1-0.1-0.3-0.2-0.4-0.3c-0.2-0.1,0-0.4-0.1-0.6
		C66.6,46,65.7,47,65.7,47c-0.2-0.9,0.9-2.2,0.1-2.9c-0.4-0.4-0.7,0.9-0.8,1.2c-0.1,0.9-0.6,1.4-1,2.1c-0.2,0.3-0.4,1.1-0.8,1.2
		c-0.5,0,0.1-1.2,0.2-1.5c0.2-0.7,0.8-0.6,1.1-1.2c0.3-0.6,0.3-1.4,0.7-1.9c0.1-0.1,1.2-0.2,0.3-0.7c0,0,0.1-0.8,0-0.9
		c-0.1-0.5-0.4-0.9-0.3-1.5c0.2-0.7,0.6-1.4,0.8-2.2c0.1-0.3,0.2-0.7,0.2-1c0-0.3-0.3-0.6-0.4-0.8c-0.1-0.3-0.1-1.2,0-1.4
		c0.2-0.4-0.2-1.1-0.2-1.5c0-0.5,0.2-1.1,0.3-1.6c0.1-0.8,0.2-1.6,0.3-2.4c1,0.1,2-0.4,3-0.4c1.6,0,3.1,0,4.7,0.1
		c3,0,5.9,0.1,8.9,0.1c-0.1,0.5,0.4,0.7,0.4,1c0,0.2-0.2,0.5-0.3,0.7c-0.3,0.6-0.9,1.2-0.7,1.9c0.1,0.3,0.8,1.7,0.4,1.9
		c-0.4,0.1-0.3,0.4-0.4,0.7c-0.1,0.2-0.4,0.4-0.6,0.5c-0.5,0.4-1,0.8-1.5,1.2c-0.5,0.4-1.2-0.1-1.7,0.6c-0.6,0.8-0.3,2.2-0.4,3.1
		c-0.1,0.1-0.2,0.3-0.4,0.4c-0.4,0.2,0.2,0.7-0.1,1c-0.5,0.5-0.5,0.5-0.7,1.3c-0.2,0.8-0.9,0.8-1.2,1.4c-0.1,0.2-0.1,0.5-0.1,0.8
		c0,0.3-0.3,0.6-0.4,0.9c-0.3,0.5-0.4,0.7-0.3,1.3c0.1,0.6,0.2,1.2,0.2,1.8c0,0.6-0.5,0.8-0.5,1.3c0,0.1-0.4,0.7-0.2,0.7
		c0.2,0.1,0.2,0.4,0.2,0.6c-0.2,0.3-0.2,0.4-0.1,0.8C75,54,74.3,54,74,54.3c-0.8,0.8,0.1,2.1,0.6,2.7L67.2,56.8z"/>
	
		<path fill-rule="evenodd" clip-rule="evenodd" fill="#288585" stroke="#FFFFFF" stroke-width="0.5" stroke-miterlimit="10" stroke-dasharray="1,2" d="
		M65.1,65.4L64.9,65l2.3-8.3l18.2,0.6l1.2-0.9l0.2-0.3c0.5-0.3,1.1-0.5,1.7-0.8c0.5-0.5,0.7,0.4,1.2,0.5c0.1,0.7,0.4,1.6,1.1,2.1
		c0.3,0.2,0.5,0.5,0.4,0.9c0,0.4-0.6,0.3-0.9,0.4c-0.8,0.1-0.7,0.7-1.3,1.2c-0.2,0.1-0.3,0.8-0.4,1c-0.3,0.5-0.3,0.4-0.8,0.6
		c0,0,1,1.6,1.2,0.8c0-0.1,0-0.2-0.1-0.2c-0.1-0.1,0.2-0.1,0.2-0.2c0-0.1,0.9,0.4,1,0.5c0.2,0.1,0.6,0.4,0.6,0.7
		c0,0.6,0.1,0.5,0.3,1c0.2,0.3,0.2,0.6,0.4,0.9c0.3,0.4-0.2,0.4-0.3,0.7c0,0.1,0.8,0.2,0.9,0.5c0.2,0.4,0.2,1,0.4,1.4
		c0.6,1.3,1.4,1.4,2.6,1.3c1.2-0.1,2.1-0.2,2.2-1.5c0-0.3-0.8-0.9-1-1.2c-0.1-0.2-0.3-0.5-0.5-0.6c-0.2-0.1-0.4,0.2-0.6,0.1
		c-0.2-0.1-0.4-0.9-0.1-0.9c0.5,0,1-0.4,1.2,0.1c0.3,0.7,0.9,1.2,1.3,1.9c0.3,0.5,0.5,1.5,0.5,2.1c0,0.5-0.5,0.7-0.8,1
		c-0.3,0.3-1.1,0.1-1.5,0.1c-0.5,0-0.9,0.2-1.3,0.3c-0.4-0.5-0.6-0.5-1,0c-0.5,0.5-0.9,0.8-1.7,1c-0.6,0.2-1.1,0.6-1.6,0.9
		c-0.2,0.1-1.3,0.9-1.3,0.6c1-0.6,1.9-0.8,2.2-1.9c0.1-0.4,0.7-1.4,0.1-1.6c-0.5-0.2-0.6,0.1-0.8,0.5c-0.4,0.6-1.2,1-1.7,1.4
		c-0.2,0.1-0.3,0.2-0.5,0.3c-0.4,0.2-0.2-0.2-0.4-0.3c-0.1,0-0.3,0.1-0.4,0.2c-0.1,0.1-0.5,0.1-0.6,0.1c0-0.8,0.2-1.4-0.5-2
		l-0.7-0.2c-0.6-0.5-0.7-1.1-0.6-1.9l-0.5-0.1l0-1.5h-3.8v-0.3l-8.7,0c-0.1,0.1-0.3,0.2-0.4,0.2L65.1,65.4L65.1,65.4L65.1,65.4z
		 M82.5,75.7c-0.1,0.1,0.1,0.4,0.1,0.4c0.4-0.1,0.3-0.8,0.2-0.8C82.7,75.4,82.6,75.5,82.5,75.7L82.5,75.7z M97,71.4
		c0,0,0.7-0.8,0.7-0.8c0.2-0.2,0.1-0.8-0.2-0.4C97.3,70.5,97.1,71,97,71.4L97,71.4z M95,74.5c0.5,0.4,1.5,0.4,2.1,0.4
		c0.8,0-0.1-1.1-0.1-1.1c-0.2,0-0.3,0.6-0.7,0.6C96.1,74.4,95.3,74.6,95,74.5L95,74.5z M89.7,73.8c0.2,0.6,0.8,0.1,1.3,0
		c0.5-0.1,1-0.1,1.5-0.2c0-0.5-0.5-1.6-1.2-0.9C90.9,73.1,90.4,73.6,89.7,73.8z"/>
	
		<path fill-rule="evenodd" clip-rule="evenodd" fill="#288585" stroke="#FFFFFF" stroke-width="0.5" stroke-miterlimit="10" stroke-dasharray="1,2" d="
		M80.6,65.9h3.8l0,1.5l0.5,0.1c-0.1,0.8,0,1.3,0.6,1.9l0.7,0.2c0.6,0.6,0.5,1.2,0.5,2c-0.1,0-0.7-0.2-0.7-0.1
		c-0.1,0.3-0.4,0.5-0.7,0.4c-0.1,0-0.4-0.6-0.5-0.5c-0.2,0.3-0.1,0.7-0.3,1c-0.5,0.9-1.1,1.1-2,1.4c-0.8,0.2-1.5,0.6-2.3,0.6v0
		c0-0.5,0.4-1.3,0.4-1.3L80.6,65.9z"/>
	
		<path fill-rule="evenodd" clip-rule="evenodd" fill="#288585" stroke="#FFFFFF" stroke-width="0.5" stroke-miterlimit="10" stroke-dasharray="1,2" d="
		M63.8,77.9c-2.4-1.7,1.6-1.6,1.2-2.6c-0.2-0.4-0.2-0.3-0.5-0.6c-0.1-0.1-0.1-0.2-0.1-0.3c0-0.5,0.1-1,0.1-1.5
		c0.2-2.5,0.3-5,0.5-7.5l6.5,0.4c0.1-0.1,0.3-0.2,0.4-0.2l8.7,0l0,7.3c0,0-0.5,0.9-0.4,1.3v0c-0.5,0-1-0.1-1.5,0
		c-0.9,0.2-1.3,0.8-2.3,0.2c-0.7-0.4-1.3-0.2-2.1-0.1c-0.8,0.1-1.8,0.3-2.6,0.2c-0.7-0.1-1.7,0.4-2.3,0.7c-0.5,0.2-1,0.5-1.6,0.7
		c-0.8,0.3-1.5,0.6-2.1,1.3C65.2,77.8,64.6,77.8,63.8,77.9C63.7,77.8,64.2,77.9,63.8,77.9z"/>
	
		<path fill-rule="evenodd" clip-rule="evenodd" fill="#288585" stroke="#FFFFFF" stroke-width="0.5" stroke-miterlimit="10" stroke-dasharray="1,2" d="
		M44,93.5l0-0.2c0.3-0.5,0.6-1.1,1.2-1.3c0.6-0.1,1.6-0.2,1.8,0.5c0.6-0.5,1.2-0.6,1.9-0.9c0.3-0.1,0.6-0.1,0.8-0.2
		c0.4-0.2,0.2-0.6,0.3-0.9c0.1-0.4,1.2-0.8,1.5-1c0.3-0.2,0.6-0.5,0.9-0.7c0.4-0.3,0.6-0.1,1-0.2l0.1-0.3c0-0.6-0.8-1.6-1.1-2.2
		c-0.2-0.3-0.5-0.8-0.9-0.9c-0.2-0.1-0.9,0.1-1-0.1c-0.1-0.3,0.1-1.8-0.3-1.9c-0.1,0-0.9,0.1-0.9-0.1c0-0.4,0.1-0.8-0.1-1.2
		c-0.2-0.4,0.2-0.8,0.2-1.2c0.1-0.3,0.5-0.4,0.7-0.7c0.2-0.2,0.5-0.4,0.3-0.7c-0.2-0.3-0.5-0.7-0.7-1.1c-0.1-0.2,1.3-1,1.5-1.3
		c0.4-0.5,0.6-1.1,1.1-1.6c-0.3-0.7,0.7-1.6,1.4-1.5c0.3-0.9-1.4-1.2-2.1-1.4c-0.4-0.1-0.4-0.7-0.7-1c-0.4-0.5-0.7-0.6-0.4-1.2
		c0.2-0.5-0.3-0.9,0-1.4c0.3-0.4-0.4-1.2-0.8-1.2c-0.6,0-1.1-0.3-1.1-0.9c0-0.4-1.1-0.3-0.6-0.9l-41,0l0-3c-1,0.4-3.3,1-3.3,1
		c-0.8,1.3-2.2,1.7-3.5,2.3c0,9,0,18.1,0,27.1c0,0,0,0.1,0,0.1c3.1,0,6.3,0,9.4,0L44,93.5z"/>
	
		<path fill-rule="evenodd" clip-rule="evenodd" fill="#288585" stroke="#FFFFFF" stroke-width="0.5" stroke-miterlimit="10" stroke-dasharray="1,2" d="
		M47,92.5C47,92.5,47,92.5,47,92.5c-0.1,0.7-0.3,1.2-0.8,1.5c-0.2,0.2-0.7,0.6-0.6,0.9c0.4,0.6,0.6,0.2,0.4,1
		c0.2,0.1,0.4,0.7,0.6,0.9c0.2,0.2,0.2,0.3,0.3,0.5c0.5,0.7,1.3,0.9,1.8,1.5c0.2,0.2,0.4,0.9,0.8,0.9c0.3-0.1,0.8,0,1.1,0.1
		c0.3,0,1.3,0,1.3,0.4c0,0.6,0,1-0.2,1.6c-0.2,0.4-0.4,0.8-0.1,1.2c0.4,0.6,1.3-1.4,1.6-1.7c0.5-0.6,1.1-1.4,1.4-2.1
		c0.2-0.4-0.4-0.6,0-0.9c0.3-0.2,0.6-0.5,1-0.6c0.3-0.2,0.8-0.4,0.9-0.8c0.1-0.4-0.1-0.7,0.2-1c0.6-0.4,1.1-0.5,1.4-1.2
		c0.3-0.7,0.6-1.3,0.7-2.1c0.1-0.8,0.2-2,0.7-2.6c0.3-0.4,0.4-1,0.5-1.4c0.2-0.6,0.4-1.2,0.5-1.8c0-0.7,0.3-1.9-0.6-1.9
		c-0.6,0-2.4,0-1.5-1c-0.3-0.3-0.1-1.3,0.2-1.6c0.3-0.3,1.2,0,1.4-0.3c0.2-0.3,0.6-1.2,0.6-1.5c0.1-0.7,0.4-1.4,0.5-2.1
		c-1.6-1-3.2-2-4.8-3c-0.7-0.4-1.4-0.9-2.2-1.4c-0.7-0.5-2.1,0.6-1.8,1.4c-0.6,0.6-0.9,1.5-1.5,2.1c-0.3,0.3-1.3,0.5-1,1
		c0.1,0.2,0.8,0.9,0.7,1.2c-0.2,0.4-1,0.8-1,1.2c-0.1,0.3-0.2,0.5-0.3,0.8c-0.1,0.3,0.2,0.5,0.1,0.8c0,0.8-0.1,0.9,0.7,0.9
		c0.5,0,0.4,0.9,0.4,1.3c0,0.4-0.1,0.8,0.4,0.7c0.7-0.2,1.2,0.4,1.5,0.9c0.3,0.5,0.5,1.2,0.9,1.7c0.6,0.9-0.3,0.6-0.8,0.9
		c-0.6,0.4-1,0.8-1.6,1.2c-0.6,0.3-0.9,0.4-1,1c0,0.6-0.8,0.6-1.3,0.8C48.1,91.9,47.6,92.1,47,92.5C47,92.5,47.2,92.3,47,92.5z"/>
	
		<path fill-rule="evenodd" clip-rule="evenodd" fill="#288585" stroke="#FFFFFF" stroke-width="0.5" stroke-miterlimit="10" stroke-dasharray="1,2" d="
		M31.6,102.7c0.5-0.4,0.4-0.6,0.9-0.1c0.3,0.3,1,0.6,0.6,1.1c-0.5,0.6-0.9,0.9-0.9,1.7c0,0.3-0.4,0.4-0.5,0.6
		c-0.3,0.3-0.4,0.7-0.6,1c-0.4,0.6-1,0.9-1.1,1.6c-0.1,0.3,0,0.4,0.3,0.5c0.4,0.1,0.1,0.7,0.4,0.7c0.9,0.1,0.4-0.7,0.6-1.1
		c0.1-0.2,0.4,0.2,0.5,0.2c0.4,0.1,0.3-0.5,0.6-0.6c0.2-0.1,0.6,2.3,1.4,2.1c0.2,0-0.2-0.7-0.2-0.8c0,0,0.9-0.3,1-0.3
		c0.2,0,0.1,1.3,0.1,1.5c0.1,0.4,0.5,0.4,0.9,0.4c0.2,0,0.8,0,1,0.2c0.1,0.3,0.7,0.8,1,0.5c0.3-0.3,0.3-0.4,0.7-0.2
		c0.4,0.2-0.2,0.8,0,1.1c0.2,0.3,1,0.2,0.8-0.3c-0.1-0.5-0.3-0.7-0.6-1.1c-0.2-0.3,0.1-1-0.4-1.2c-0.4-0.1-0.7-0.1-1-0.3
		c-0.9-0.7-1.7-1.5-1.5-2.7c0-0.3-0.4-1.7,0-1.6c0.5,0.2,0.4,0.6,0.4,1c-0.1,0.5,0.1,0.8,0.2,1.3c0,0.2,0.4,0.6,0.5,0.7
		c0.2,0.2,0.4,0.5,0.6,0.7c0.6,0.6,1.8,0.6,0.9-0.5c-0.4-0.5-1.2-1.2-1.2-1.9c0-0.5,0.2-1,0.1-1.5c-0.1-0.4-0.3-0.6,0-0.9
		c0.5-0.6-0.1-1.7,0.2-2.4c0.2-0.5,0.4-0.3,0.7-0.5c0.1-0.1-0.4-1-0.4-1.3c0-0.4-0.7-0.6-1-0.8c-0.1-0.1-0.4-0.3-0.2-0.4
		c0.5-0.4,0.6-0.4,1.1,0c0.9,0.5,0.1-0.9,0.6-1c0.2-0.1,0.4-0.1,0.6-0.3c0.3-0.2-0.3-0.5-0.3-0.7c0-0.3,0.9,0.5,0.9,0.4
		c0.5,0.4,0.4-0.6,0.6-0.7c0.1,0.1,0.2,0.1,0.2,0.3c0.1,0.2,0.2,0,0.4,0c0.1-0.1,1-0.3,1-0.5c-0.2-0.9-0.2-1.2,0.7-1.6
		c0.4-0.2,0.5,0.3,0.8,0.5c0.4,0.2,0.3,0.4,0,0.6c-0.4,0.3-0.7,0.6-1.1,0.8c-0.4,0.3,0.1,0.3,0.1,0.6c0,0-1.1-0.1-1.3,0.2
		c-0.2,0.3-0.4,0.7-0.6,1c-0.2,0.3-0.5,0.8-0.5,1.2c0,0.7,0.3,0.7,0.9,0.7c0.6,0-0.2,0.7-0.2,0.9c-0.1,0.2,0.2,0.3,0.1,0.5
		c0,0.1-0.5,0.3-0.6,0.3c-0.2,0-0.8-0.3-0.8,0c0,0.4,0.6,0.5,0.9,0.5c0,0,0-0.3,0.1-0.2c-0.1,0,1,1.2,1.1,0.9
		c-0.1,0.2-1.5,0.8-0.3,0.7c0.9,0,0.1,0.3-0.3,0.5c-0.8,0.3,0.2,1,0.6,1.2c-0.3,0.6,0.2,0.7,0.6,0.4c0.4-0.2,0.6-0.4,0.6,0.2
		c-0.2,1.8-1-0.8-1.6,0.5c-0.2,0.5-0.3,0.8-0.8,1.1c-0.3,0.2-0.8,1.2-0.2,1.5c0.2,0.1,1.2,0.4,0.7,0.8c-0.2,0.2,1,0.6,1,0.6
		c0-0.2,0.8-1.5,0.8-1.4c0.1,0.1,0.2,0.8,0.5,0.5c0.2-0.2,0.3-0.6,0.6-0.7c0,0-0.5,0.8-0.6,0.9c-0.1,0.1,0,0.4-0.2,0.4
		c-0.1,0-0.5,0-0.3,0.2c0,0,0.3-0.1,0.3-0.1c0.3,0,0.4,0.4,0.6,0.5c0.4,0.2-0.7,0.4-0.7,0.4c-0.1,0.5,1.7,0.4,1.5,0.9
		c-0.2,0.5-1.2,1.8,0.2,1.6c0.5,0,1,0.1,1.5,0c0.6-0.1,1.1-0.2,1.7-0.3c0.4-1.1,1.5-2,2-3c0.2-0.4,0.6-0.4,0.7-0.9
		c0-0.4,0-0.9,0-1.3l-5.5-0.1L44,93.5l-34.3,0l0,0h0l0,6c0.4,0,0.8-0.5,1.1-0.7c0.2-0.1,0.2-0.3,0.5-0.3c0.5,0,0.3-0.2,0.5-0.5
		c0.2-0.3,0.8-0.6,1.1-0.8c0.6-0.5,0.5-0.9,1.3-0.6c0.9,0.4,1.6-1.9,2.2-1.6c0.3,0.2,0.8,0.7,1.2,0.7c0.5,0,1,0,1.5-0.1
		c0.8-0.2,0.1-0.6,0.2-0.7c0.2-0.2,0.7-0.7,1-0.6c0.4,0.1,1,0.4,1.2-0.1c0.2-0.5,0.3-0.7,0.9-0.3c0.4,0.3,0.7,0.6,1.1,0.8
		c0.3,0.2,1.2-0.2,1.2,0.2c0.1,0.6,0.2,0.9,0.6,1.4c0.4,0.6,0.5,1.1,0.6,1.8c0.7,0,1.4,0.3,2,0.7c0.9,0.7,0,0.8,0.2,1.6
		c0.2,1.1,1.5,0.6,2.1,1.2c0.2,0.2,0.3,0.7,0.6,0.8C30.9,102.7,31.3,102.6,31.6,102.7C31.7,102.6,31.5,102.6,31.6,102.7z"/>
	
		<path fill-rule="evenodd" clip-rule="evenodd" fill="#288585" stroke="#FFFFFF" stroke-width="0.5" stroke-miterlimit="10" stroke-dasharray="1,2" d="
		M50,108.8C50,108.7,50,108.7,50,108.8c0.1-0.3,0.9-1.8,0.3-1.8c-0.2,0-0.4,0.3-0.6,0.2c-0.2-0.1,0.1-0.9,0.1-1.1
		c0.1-0.2,0.1-0.5,0.3-0.7c0.4-0.4-0.4-0.7-0.7-0.9c-0.7-0.4-1.1-1.4-1.3-2.2c-0.2-0.7-0.6-1.1-0.6-1.8c0-0.5,0.1-1.6-0.2-2
		c-0.4-0.5-0.8-1-1.2-1.6c-0.1-0.2-0.3-0.4-0.4-0.6c0-0.1,0.3-0.5,0.4-0.5c0.1-0.5,0.2-0.5-0.2-0.8c-0.4-0.3-0.2-0.5,0.1-0.8
		c0.5-0.6,0.8-0.8,1.1-1.6c0.2-0.8-0.9-1-1.4-0.9c-0.8,0.1-1.2,0.6-1.6,1.3l0.5,15.5L50,108.8z"/>
</g>
</svg>
