<?xml version="1.0" encoding="utf-8"?>
<!-- Generator: Adobe Illustrator 16.0.0, SVG Export Plug-In . SVG Version: 6.00 Build 0)  -->
<!DOCTYPE svg PUBLIC "-//W3C//DTD SVG 1.1//EN" "http://www.w3.org/Graphics/SVG/1.1/DTD/svg11.dtd">
<svg version="1.1" id="Layer_1" xmlns="http://www.w3.org/2000/svg" xmlns:xlink="http://www.w3.org/1999/xlink" x="0px" y="0px"
	 width="347.5px" height="315.6px" viewBox="0 0 347.5 315.6" enable-background="new 0 0 347.5 315.6" xml:space="preserve">
<g>
	
		<path fill-rule="evenodd" clip-rule="evenodd" fill="#288585" stroke="#FFFFFF" stroke-width="1.3785" stroke-miterlimit="10" stroke-dasharray="2.757,5.514" d="
		M146.7,243.6c0.3-0.1,0.3-0.6,0.3-0.8L146.7,243.6L146.7,243.6z M147.7,202.8c0.4,0,0.7,0.1,0.9,0.2c0.3,0.3,19.6,12.3,19.6,12.3
		c-0.5,3.4-1.7,6.7-3.1,9.9c-0.3,0.8-3,0.6-3.8,0.9c-1.2,0.5-1.9,3.7-0.9,4.6c1-1,2-1.2,2.8-2.4c0.7-1,2.1-2.1,3.2-0.9
		c1.2,1.3,2.2,0.5,3.1-0.5c0.5-0.6,2.5,0.1,3.1,0.2c2.9,0.2,6-0.9,8.7-1.8c3.6-1.2,6.8-2.5,10.6-3c3.2-0.4,7-0.7,10-1.8
		c0.9-0.3,1.3-1.5,2.1-2c0.9-0.6,1.5,1.4,2.9,0.3c1.9-1.5,4.3-3,6.6-3.8c0.6-0.2,6.4-2.1,6.4-2.9c0-0.2-1.8-0.2-2.1-0.1
		c-0.9,0.2-1.2,1.1-1.8,1.6c-0.5,0.4-1.8,0.4-2.4,0.5c-1,0.1,0.7-1-0.6-1.1c-1.6-0.1-3.7,2.3-4.3,0.4c-0.3-1-0.1-1.1,0.6-1.9
		c0.1-0.2,1.7-2.2,1.5-2.2c-0.5-0.1-1.1,0.6-1.5,0.5c-0.5-0.2-1.8,1.3-2.1,1.6c-0.8,0.8-1.1,2.1-1.1,3.2c0,1.5,0,1.5-1.2,0.8
		c-0.1-0.1-1.2,0.7-1.2,0.6c0-1,1.6-2.2,1.9-3.3c-2.1-1-2.6,2.8-4.4,3.2c-3,0.6-5.6,0.1-8.6,0.1c-1.8,0-4.3-0.1-6.1,0.2
		c-1.1,0.2-1.5,1.3-2.7,1.2c-0.8-0.1-1.6-0.4-2.4-0.8c-1.8,0.5-3.6,1-5.4,1.5c-1.8,0.5-2.3,1.7-3.8,2.5c-0.3,0.2-3.3,1.2-3.5,1
		c0.1,0.1,5.7-7.1,6.5-7.3c-6.7-4.6,4.5-4.3,3.3-7.2c-0.5-1.2-0.5-0.7-1.3-1.6c-0.2-0.2-0.2-0.6-0.2-0.9c0.1-1.4,0.2-2.8,0.2-4.2
		c0.4-6.9,0.9-13.9,1.3-20.8c0,0,0,0,0,0l-0.5-0.9l6.3-22.8h0.1c-0.9-4-0.1-8.4,0-12.5c0.2-4.5,0.3-9,0.5-13.5
		c-0.4-0.3-0.8-0.6-1.2-0.9c-0.4-0.4,0-1.2-0.3-1.8c-0.6-1.1-3.1,1.7-3.1,1.7c-0.6-2.6,2.4-6,0.2-8c-1.1-1.1-2,2.4-2.1,3.2
		c-0.4,2.4-1.8,3.8-2.8,5.9c-0.4,0.9-1.1,3.1-2.2,3.2c-1.4,0.1,0.3-3.2,0.6-4c0.5-1.9,2.1-1.7,2.9-3.4c0.8-1.6,0.9-3.9,1.8-5.3
		c0.3-0.4,3.4-0.6,0.9-2c-0.1-0.1,0.2-2.2,0.1-2.4c-0.3-1.4-1.2-2.5-0.8-4.1c0.5-2,1.7-4,2.3-6c0.3-0.9,0.5-1.8,0.7-2.8
		c0.1-0.9-0.7-1.5-1.1-2.3c-0.4-0.7-0.3-3.2,0-3.9c0.4-1.2-0.5-3-0.4-4.2c0-1.5,0.6-2.9,0.9-4.4c0.3-2.2,0.5-4.5,0.8-6.7
		c-13.7-0.7-27.7-0.1-41.4-0.1c-3.5,2.2-7.3,4.2-10.6,6.7c-3.6,2.7-6.8,6.4-9.9,9.7l-0.2,3.1c-0.7-0.4-1.2,0.7-2,0.7
		c-1.5,0-1.8,0.5-2.9,1.8c-2,2.3-3.6,3.2-6.6,3.5c-1.2,1.4-2.3,2.8-2.1,4.8c0,0.3,0.5,2.5,1.2,1.8c0.9-0.9,0.6-1.1,2.1-1
		c0.7,0,3.9,2.2,2.9,2.8c-0.6,0.4-1.1,0-1.8-0.1c-0.8,0-0.2,2.4-0.3,2.9c-0.5,2.1-2.1,0.4-2.8,1.1c-1,0.9,1.8,4.7,2.3,5.6
		c0.7,1.2,0.2,1.5-0.1,2.6c-0.2,1.1,0.6,1.9-0.8,2.3c-1.6,0.5-3.3,0.7-4.9,0.9c-2,0.6-3.2,2.2-4.6,3.6c-2.3,2.3-4.2,3-7.2,3.9
		c-2.1,0.7-2.4,1.3-4.7,0.8c-2.1-0.5-3.8-0.4-5.9-0.2c-1.4,0.1-3.4-0.1-4.6,0.6c-3.4,1.8-4.6-0.8-7.6-2.2c-2-0.9-4.1-1-6.2-1.6
		c-0.7-0.2-1.9-0.7-2.7-0.5c-0.6,0.2-1.1,0.9-1.9,1l-3.7-1.2c-4.9,1-9.7,2.1-14.6,3.2c-0.6,0.1-1.3,0.2-1.9,0.4
		c-0.4,0.2-0.9-0.1-1.3,0c-0.9,0.3-0.6,1.7-0.6,2.3c0,1.2-0.4,4.1,1.1,4.6c0.8,0.3,1.7,0.5,2.4,0.9c0.6,0.3-0.1,1.9-0.1,2.5
		c-0.1,1.4,1.3,3,1.2,4.7c-0.1,1.6-0.6,2.3-1.6,3.4c-1.9,2.1-4,5.5-7,6c-2.5,0.4-4.8,3.1-6.8,4.6c-2.4,1.8-5,4-7.8,5.2l0,8.4
		l113.1,0c-1.1,1.5,1.4,1.3,1.7,2.3c0.5,1.4,0.3,2.7,2.4,2.8c1,0,3.7,1.2,3.3,2.7c-0.1,0.4-1.2,1.3-0.7,1.7c0.5,0.5,0.4,1.4,0.5,2
		c0.1,0.6-0.9,1.4-0.5,1.9c0.4,0.5,0.9,1,1.3,1.4c0.5,0.5,1.4,2.9,2,3.1C143.5,199.3,148.5,200,147.7,202.8
		C148.1,202.8,147.8,202.5,147.7,202.8z"/>
	
		<path fill-rule="evenodd" clip-rule="evenodd" fill="#288585" stroke="#FFFFFF" stroke-width="1.3785" stroke-miterlimit="10" stroke-dasharray="2.757,5.514" d="
		M249.5,146.2c1.3-1.7,4.2-3.5,4.3-5.8c0-1.1,0-6,1.7-3.8c0.1,0.1,1.8-2,2.3-2.4c1.3-0.9,0.3-1.6,0.2-2.7c-0.1-1.3,4.1-4.3,5.1-5.2
		c-2.8,0.2-0.2-3.1,0.3-4.1c1-1.6,3.9-2.8,5.7-3c1.2-0.1,1.1,1.1,2.2,0c0.2-0.2,1.7-1.8,1-2.1c-1.1-0.4-1.5-0.4-1.4-1.8
		c0.1-1.3,1.1-2.9,2.6-3c-0.1,0-0.7,1.3-0.7,1.5c0,0.4,0.8,3.5,0.8,3.5c0.1,0,3.9-5.1,4-4.9c0.5,1-1.3,2.1-0.1,3.1
		c0.6,0.5,0.5-2.4,2-2c1.8,0.5-0.4,1.7-0.3,2.5c0.2,1.4,0.8,2.2,1.5,0.5c0.1-0.3,3.6-6,4.3-4.4c0.5,1.1-1.1,3,1.2,2.3
		c1.3-0.4,2.7-0.8,3.9-1.4c1.8-0.8,1.1-1.4,0.8-3c-0.3-1.4,1.4-3.1,2.1-4.2c0.5-0.7,2.1-2.3,1.6-3.2c-0.3-0.7-1.9-1.8-1.1-2.7
		c1-1.1,2.5-1.6,3.6-2.5c0.6-0.5,0.7-2.7,1.4-2.4c1.5,0.6,2.5-0.2,1.4,1.9c-0.2,0.3-2.2,3-2,3.3c0.1,0.1,1.6-1.3,1.8-1.4
		c0.6-0.5,0.4-0.1,0.8,0.2c1.2,0.7,0.3,1.5-0.5,2.1c-0.4,0.3-0.5,1.6-0.4,2c0.1,0.8,1.2,0.8,1.8,1c1.2,0.4,3.2,1.1,0.8,1.8
		c-0.9,0.3,1.2,1.2,1.8,1c1.3-0.4-0.4-3.2-0.3-4c0.2-1.9-0.7-1.8,1.6-2.7c1.2-0.5,1.1-2.3,1.3-3.4c2.8-0.2,1.2,1.3,2,3
		c0.3,0.8,1.7-0.6,1.8-1c0.3-1-0.5-1.9,0.9-2.4c0.5-0.2,3.8-0.1,4,0.3c0.2,0.5,1.4,0,1.3,0.9c-0.1,0.9-0.1,1.8,0,2.8
		c0,0.6,0.3,1,0.8,0.4c0.9-0.9-0.8-2.4-0.2-3.3c1.5-2.1,4,1.7,3.9-1.2c0-0.9,2.9-3.2,3.5-2.3c0.6,0.8,0.6,2,1.6,1.2
		c1.4-1.2,0.9,0.5,1.6,0.9c0.4,0.2,0.9-1.2,0.9-1.4c0-1.1-0.9-0.4,0.7-1.5c1.5-1.1,2.2,0.5,3.1-1.4c0.4-1.1,1.1-0.9,2.1-0.8
		c1.3,0.1,2.4-0.5,1.3,1c-0.5,0.6,2.5-0.2,2.8-0.3c1.3-0.4,1.8-1.4,2.8-2.3c3.4-2.9-2.1-1.4-2.1-3.1c0-0.5-1.5-1.9-1-2.2
		c0.9-0.6,2-0.9,3-0.9c2.2,0-0.9-3.9-1.6-4.9c-0.7-1.1-3.2-4.6-4.1-2c-0.5,1.5-2.3-0.5-2.8-1.1c-0.8-1-1-2.5-1.1-3.7
		c0-0.9,1-2.1,0.7-2.8c-0.4-0.9-1.2-1.6-1.5-2.5c-0.6-1.6,1.3-1.3,1.5-2.5c0.2-1.2,0.3-2.5-1.3-2.4c-1.1,0.1-2.2,0.5-3.3,0.3
		c-0.9-0.2-1.7-1.6-2.6-2.1c-0.7-0.3-1.9-0.5-2.3-1.3c-0.5-1.3,0.9-3.1,0.4-4.4c-0.8-2,1.4-1.9,1.3-3.8c0-0.9-0.1-1.9-0.1-2.8
		c-0.4-8.4-0.7-16.7-1-25c-0.1-3.2-0.3-6.3-0.4-9.5c-1.6-1.2-3.4-2.3-4.6-4c-1.4-1.8-3.2-3.2-5.1-4.5c-0.7-0.4-4.3-2.3-4.8-0.8
		c-0.1,0.4-0.1,2.3-0.7,2.2c-0.8-0.1-1.5-0.4-2.3-0.6c-1.2,0-2,0.6-2.9,1.2c-1.1,0.8-2.5,0.5-3.7,1c-0.8,0.3-1.5,0.9-2.4,1.2
		c-1.6,0.5-2.4-0.3-3.8-1c-2.2-1.1-0.7-4.3-0.7-6c-0.1-2.6-5.1-0.9-6.2-0.3c-2,1.2-2.7,4.2-4.3,5.8c-1,1-1.6,1.6-2.2,2.9
		c-0.5,1-2.2,1.9-3,2.7c-3.2,3.5-5.7,7.9-8.7,11.6c-0.7,0.9-1.2,2.6-1.3,3.8c-0.1,2.8-0.5,4.5-2.1,6.8c-0.9,1.3-1.9,2.7-2.9,4
		c-1.2,1.4-1.4,1.5-1,3.5c0.2,1.1,0.7,2.3-0.4,2.9c-1.4,0.6,0.4,2.9,0.7,3.7c0.4,1.1-0.1,2.5-0.4,3.6c-0.3,1-0.8,0.9-1.8,1.1
		c-2.9,0.7,0.1,3.7-2.5,4.9c-1.8,0.9-3.7,1.5-5.3,2.6c-0.6,0.4-1.5,1.1-1.5,1.9c0,1.1-1.4,1.8-1.4,2.6c0,0.6,2.3,1.3,2.8,1.6
		c1.6,1.1-1.6,1.4-2.2,0.2c-0.5-0.9-1.5-1.1-2.2-0.2c-0.8,1,0.2,2.9-0.2,4.2c-0.2,0.5-0.6,3-1.4,1.6c-0.6-1.1-1.1-2.1-1.7-3.2
		c-0.7-1.5-1.5-0.2-1.4,0.9c0,1.5-1.6,0.4-1.9,1.8c0.8,14.7,1.6,29.4,2.4,44.1c0.2,4.2,0.1,8.8,0.8,12.9c0.2,1.3-0.1,2.8-0.3,4
		c-0.2,2-0.3,1.8,1.1,3.2c0.6,0.6,0.2,1.5,1.1,2.3c0.6,0.5,1.5,1,1.8,1.7c0.2,0.8,0.2,1.8,0.1,2.6
		C246.9,144.4,248.7,145.5,249.5,146.2L249.5,146.2z M344.6,87.9c0.4,0.7,1.8,1,1.5-0.2C345.9,86.6,344.8,87.2,344.6,87.9
		L344.6,87.9z M308.4,104.1c0.5-2.8,1.9-3.8,4.3-2.6c3,1.5-1.9,2-2.5,2.8c-0.8,0.9,1.3,1,0.7,1.7c-0.7,0.8-2,1.3-1.6,2.6
		c0.1,0.4,0.9,2-0.1,1.7c-0.6-0.2-1.1-0.6-1.7-1c-0.4-0.2-0.6,0.2-0.8,0.1c-0.8-0.5,1.2-1.8,1.4-2
		C308.3,107.1,308.8,104.3,308.4,104.1C308.7,102.4,308.3,104.1,308.4,104.1z"/>
	
		<path fill-rule="evenodd" clip-rule="evenodd" fill="#288585" stroke="#FFFFFF" stroke-width="1.3785" stroke-miterlimit="10" stroke-dasharray="2.757,5.514" d="
		M249.5,146.2c-0.7-0.6-2.1-1.5-2.4-2.5c-0.2-0.8,0-1.8-0.1-2.6c-0.2-1.9-2.7-2-2.8-3.9c0-0.9-1.5-1-1.5-1.7c0-0.5,0.1-1,0.2-1.5
		c0.1-1.3,0.7-3.3,0.3-4.5c-0.3-1-0.2-2.4-0.2-3.4c-0.2-3-0.4-6-0.5-9c-0.9-14.9-1.7-29.8-2.4-44.6c-0.3,1.1-2.2,1.2-2.9,0.4
		c-1.3-1.5-2-1.5-3.5-0.2c-1.6,1.3-1.7,2.4-2.5,4.4c-0.4,1.1-1.6,4.1-3.1,4.1h0c-0.2,1.4,1.1,1.8,1.1,2.9c0,0.6-0.6,1.4-0.8,1.9
		c-0.8,1.6-2.5,3.4-1.8,5.2c0.3,0.9,2.2,4.8,1.1,5.1c-1,0.3-0.8,1.1-1.2,1.9c-0.3,0.7-1.1,1.1-1.7,1.5c-1.4,1.1-2.7,2.3-4.1,3.4
		c-1.5,1.1-3.4-0.3-4.6,1.5c-1.6,2.2-0.9,6-1,8.6c-0.4,0.3-0.6,0.8-1,1c-1.1,0.7,0.6,2-0.2,2.8c-1.5,1.5-1.5,1.4-1.9,3.5
		c-0.4,2.2-2.5,2.2-3.2,3.9c-0.3,0.6-0.2,1.5-0.3,2.1c-0.1,0.9-0.8,1.6-1.1,2.4c-0.7,1.4-1.1,2-0.9,3.6c0.2,1.6,0.4,3.2,0.4,4.8
		c0,1.5-1.4,2.3-1.4,3.7c0,0.3-1,1.9-0.5,2c0.5,0.2,0.6,1.1,0.7,1.6c-0.6,0.9-0.7,1.2-0.2,2.1c0.8,1.6-1.2,1.5-1.9,2.3
		c-2.2,2.3,0.1,5.8,1.6,7.6l29.9,1l3.4-2.6l0.5-0.9c1.5-0.9,3.2-1.3,4.6-2.2c1.4-1.3,2.1,1.1,3.4,1.4
		C246.4,151.3,248.3,147.8,249.5,146.2C248.9,145.7,249.2,146.6,249.5,146.2z"/>
	
		<path fill-rule="evenodd" clip-rule="evenodd" fill="#288585" stroke="#FFFFFF" stroke-width="1.3785" stroke-miterlimit="10" stroke-dasharray="2.757,5.514" d="
		M184.6,155.9c-0.9-4-0.1-8.4,0-12.5c0.2-4.5,0.3-9,0.5-13.5c-0.4-0.3-0.8-0.6-1.2-0.9c-0.4-0.4,0-1.2-0.3-1.8
		c-0.6-1.1-3.1,1.7-3.1,1.7c-0.6-2.6,2.4-6,0.2-8c-1.1-1.1-2,2.4-2.1,3.2c-0.4,2.4-1.8,3.8-2.8,5.9c-0.4,0.9-1.1,3.1-2.2,3.2
		c-1.4,0.1,0.3-3.2,0.6-4c0.5-1.9,2.1-1.7,2.9-3.4c0.8-1.6,0.9-3.9,1.8-5.3c0.3-0.4,3.4-0.6,0.9-2c-0.1-0.1,0.2-2.2,0.1-2.4
		c-0.3-1.4-1.2-2.5-0.8-4.1c0.5-2,1.7-4,2.3-6c0.3-0.9,0.5-1.8,0.7-2.8c0.1-0.9-0.7-1.5-1.1-2.3c-0.4-0.7-0.3-3.2,0-3.9
		c0.4-1.2-0.5-3-0.4-4.2c0-1.5,0.6-2.9,0.9-4.4c0.3-2.2,0.5-4.5,0.8-6.7c2.6,0.2,5.5-1,8.2-1c4.3,0,8.6,0.1,12.9,0.2
		c8.2,0.1,16.3,0.2,24.5,0.3c-0.2,1.4,1.1,1.8,1.1,2.9c0,0.6-0.6,1.4-0.8,1.9c-0.8,1.6-2.5,3.4-1.8,5.2c0.3,0.9,2.2,4.8,1.1,5.1
		c-1,0.3-0.8,1.1-1.2,1.9c-0.3,0.7-1.1,1.1-1.7,1.5c-1.4,1.1-2.7,2.3-4.1,3.4c-1.5,1.1-3.4-0.3-4.6,1.5c-1.6,2.2-0.9,6-1,8.6
		c-0.4,0.3-0.6,0.8-1,1c-1.1,0.7,0.6,2-0.2,2.8c-1.5,1.5-1.5,1.4-1.9,3.5c-0.4,2.2-2.5,2.2-3.2,3.9c-0.3,0.6-0.2,1.5-0.3,2.1
		c-0.1,0.9-0.8,1.6-1.1,2.4c-0.7,1.4-1.1,2-0.9,3.6c0.2,1.6,0.4,3.2,0.4,4.8c0,1.5-1.4,2.3-1.4,3.7c0,0.3-1,1.9-0.5,2
		c0.5,0.2,0.6,1.1,0.7,1.6c-0.6,0.9-0.7,1.2-0.2,2.1c0.8,1.6-1.2,1.5-1.9,2.3c-2.2,2.3,0.1,5.8,1.6,7.6L184.6,155.9z"/>
	
		<path fill-rule="evenodd" clip-rule="evenodd" fill="#288585" stroke="#FFFFFF" stroke-width="1.3785" stroke-miterlimit="10" stroke-dasharray="2.757,5.514" d="
		M178.7,179.6l-0.5-0.9l6.3-22.8l50.3,1.7l3.4-2.6l0.5-0.9c1.5-0.9,3.2-1.3,4.6-2.2c1.4-1.3,2.1,1.1,3.4,1.4c0.3,2,1.2,4.5,2.9,5.8
		c0.8,0.6,1.3,1.3,1.2,2.4c-0.1,1-1.8,0.9-2.5,1c-2.3,0.3-1.9,2-3.5,3.3c-0.4,0.3-0.8,2.1-1.2,2.7c-0.8,1.4-0.8,1.2-2.2,1.8
		c0.1,0,2.8,4.5,3.3,2.1c0-0.3-0.1-0.5-0.3-0.6c-0.2-0.2,0.5-0.3,0.5-0.6c0.1-0.3,2.5,1.2,2.8,1.4c0.5,0.3,1.6,1.2,1.6,1.9
		c0,1.6,0.3,1.5,0.9,2.6c0.5,0.8,0.7,1.8,1.1,2.5c0.7,1.1-0.6,1.1-0.7,1.9c-0.1,0.4,2.2,0.7,2.4,1.3c0.6,1.2,0.5,2.7,1.1,3.9
		c1.8,3.6,3.8,3.7,7.3,3.5c3.2-0.2,5.9-0.5,6.1-4.2c0.1-0.8-2.2-2.6-2.7-3.4c-0.4-0.5-0.8-1.4-1.4-1.7c-0.6-0.2-1.1,0.6-1.6,0.3
		c-0.5-0.3-1.1-2.5-0.1-2.5c1.3,0,2.6-1.2,3.4,0.3c0.9,1.9,2.5,3.3,3.6,5.2c0.8,1.4,1.5,4.1,1.4,5.8c0,1.4-1.4,1.9-2.2,2.7
		c-0.9,0.9-3,0.3-4.2,0.4c-1.3,0.1-2.5,0.5-3.7,0.7c-1.1-1.3-1.6-1.4-2.8-0.1c-1.4,1.4-2.6,2.2-4.6,2.7c-1.8,0.5-3,1.6-4.5,2.5
		c-0.6,0.3-3.6,2.6-3.6,1.5c2.7-1.6,5.2-2.2,6-5.3c0.2-1,1.8-3.8,0.4-4.5c-1.3-0.6-1.6,0.2-2.3,1.3c-1.1,1.6-3.2,2.8-4.8,3.9
		c-0.4,0.3-0.9,0.7-1.4,0.9c-1,0.4-0.7-0.7-1.2-0.8c-0.3-0.1-0.8,0.4-1,0.6c-0.4,0.3-1.2,0.2-1.7,0.2c0-2.1,0.4-4-1.3-5.5l-2-0.5
		c-1.8-1.5-2-3-1.7-5.2l-1.4-0.2l0-4.1h-10.5v-0.7l-23.9,0c-0.4,0.2-0.8,0.4-1.1,0.6L178.7,179.6L178.7,179.6L178.7,179.6z
		 M226.7,207.9c-0.2,0.4,0.3,1.1,0.3,1.1c1.1-0.4,0.7-2.3,0.6-2.3C227.3,207.1,227.1,207.6,226.7,207.9L226.7,207.9z M266.7,196.1
		c0,0,2-2.3,2-2.3c0.4-0.7,0.4-2.2-0.4-1C267.6,193.8,267,195,266.7,196.1L266.7,196.1z M261.3,204.6c1.4,1.1,4.1,1.1,5.8,1.1
		c2.3,0-0.3-2.9-0.4-2.9c-0.6,0-0.9,1.6-1.8,1.7C264.2,204.5,262,204.9,261.3,204.6L261.3,204.6z M246.6,202.7
		c0.7,1.5,2.3,0.3,3.6,0.1c1.4-0.2,2.8-0.4,4.2-0.6c-0.1-1.3-1.4-4.4-3.2-2.6C249.8,201,248.5,202.3,246.6,202.7z"/>
	
		<path fill-rule="evenodd" clip-rule="evenodd" fill="#288585" stroke="#FFFFFF" stroke-width="1.3785" stroke-miterlimit="10" stroke-dasharray="2.757,5.514" d="
		M221.5,180.9H232l0,4.1l1.4,0.2c-0.4,2.2-0.1,3.7,1.7,5.2l2,0.5c1.7,1.5,1.3,3.4,1.3,5.5c-0.3,0-1.8-0.5-2-0.2
		c-0.3,0.8-1.2,1.4-2,1c-0.3-0.1-1.2-1.7-1.4-1.3c-0.5,0.8-0.3,1.9-0.7,2.8c-1.3,2.4-3.1,3-5.6,3.7c-2.2,0.7-4,1.6-6.4,1.6v0
		c-0.1-1.2,1.2-3.7,1.2-3.7L221.5,180.9z"/>
	
		<path fill-rule="evenodd" clip-rule="evenodd" fill="#288585" stroke="#FFFFFF" stroke-width="1.3785" stroke-miterlimit="10" stroke-dasharray="2.757,5.514" d="
		M175.3,214.1c-6.7-4.6,4.5-4.3,3.3-7.2c-0.5-1.2-0.5-0.7-1.3-1.6c-0.2-0.2-0.2-0.6-0.2-0.9c0.1-1.4,0.2-2.8,0.2-4.2
		c0.4-6.9,0.9-13.9,1.3-20.8l17.9,1.2c0.4-0.2,0.7-0.4,1.1-0.6l23.9,0l0,20c0,0-1.3,2.4-1.2,3.7v0c-1.3,0-2.9-0.3-4.2-0.1
		c-2.5,0.4-3.6,2.1-6.2,0.5c-1.8-1.1-3.7-0.5-5.7-0.2c-2.2,0.4-5,0.8-7.2,0.6c-1.9-0.2-4.6,1.1-6.3,1.9c-1.5,0.7-2.8,1.5-4.4,2
		c-2.3,0.7-4,1.8-5.7,3.5C179,213.8,177.5,213.8,175.3,214.1C174.8,213.8,176.3,214,175.3,214.1z"/>
	
		<path fill-rule="evenodd" clip-rule="evenodd" fill="#288585" stroke="#FFFFFF" stroke-width="1.3785" stroke-miterlimit="10" stroke-dasharray="2.757,5.514" d="
		M120.5,257l0-0.7c0.8-1.4,1.8-3.1,3.4-3.5c1.6-0.4,4.3-0.5,5,1.5c1.6-1.3,3.3-1.7,5.3-2.4c0.7-0.3,1.6-0.3,2.3-0.6
		c1-0.5,0.6-1.6,0.8-2.5c0.3-1.1,3.3-2.1,4.2-2.7c0.9-0.6,1.6-1.3,2.4-2c1.1-0.8,1.8-0.2,2.8-0.6l0.3-0.8c-0.1-1.6-2.2-4.5-3-5.9
		c-0.5-0.9-1.3-2.1-2.4-2.4c-0.5-0.2-2.6,0.2-2.7-0.2c-0.3-1,0.3-5-0.9-5.3c-0.4-0.1-2.6,0.2-2.6-0.4c-0.1-1.2,0.3-2.2-0.2-3.3
		c-0.5-1.1,0.4-2.2,0.6-3.3c0.1-0.8,1.4-1.2,1.9-2c0.5-0.7,1.3-1.1,0.8-1.9c-0.6-0.9-1.4-1.9-1.8-2.9c-0.2-0.7,3.6-2.8,4.3-3.7
		c1-1.4,1.7-3.2,2.9-4.4c-0.7-1.8,1.9-4.3,3.8-4.3c0.8-2.6-4-3.4-5.8-3.8c-1-0.2-1.2-1.9-1.8-2.7c-1.2-1.4-1.9-1.6-1.2-3.3
		c0.6-1.5-0.9-2.3,0-3.7c0.8-1.1-1.1-3.2-2.3-3.2c-1.8,0-3-0.7-3-2.6c0-1.1-3-0.9-1.8-2.5l-113.1,0l0-8.4c-2.7,1.1-9,2.9-9,2.9
		c-2.3,3.5-6,4.6-9.6,6.3c0,24.9,0,49.9,0.1,74.8c0,0.1,0,0.2,0,0.3c8.6,0,17.2,0,25.9,0.1L120.5,257z"/>
	
		<path fill-rule="evenodd" clip-rule="evenodd" fill="#288585" stroke="#FFFFFF" stroke-width="1.3785" stroke-miterlimit="10" stroke-dasharray="2.757,5.514" d="
		M128.9,254.3c0,0.1,0,0.1,0,0.1c-0.2,1.6-1,3.1-2.2,4.1c-0.5,0.4-2.1,1.6-1.6,2.4c1,1.5,1.6,0.7,1.2,2.8c0.5,0.3,1.1,1.9,1.7,2.4
		c0.7,0.6,0.6,0.9,0.9,1.4c1.2,1.8,3.6,2.6,5,4.2c0.4,0.5,1.2,2.6,2.1,2.4c0.9-0.2,2.1,0.1,3,0.3c0.8,0.1,3.6,0,3.5,1.1
		c-0.1,1.6,0,2.8-0.6,4.4c-0.5,1.2-1,2.1-0.2,3.3c1,1.6,3.7-3.8,4.3-4.7c1.3-1.7,3-3.7,3.8-5.8c0.4-1.1-1.1-1.7,0.1-2.6
		c0.8-0.6,1.7-1.3,2.6-1.8c0.9-0.5,2.3-1,2.5-2.1c0.2-1.1-0.4-2,0.6-2.8c1.7-1.2,2.9-1.2,3.8-3.2c0.9-1.9,1.6-3.7,2-5.8
		c0.4-2.2,0.5-5.4,1.9-7.2c0.7-1,1-2.7,1.4-3.9c0.5-1.6,1.2-3.2,1.2-4.9c0.1-1.9,0.9-5.2-1.7-5.4c-1.7-0.1-6.5,0.1-4-2.6
		c-0.9-0.9-0.4-3.7,0.6-4.4c1-0.7,3.3-0.1,4-0.9c0.6-0.8,1.5-3.2,1.7-4.2c0.4-2.1,1.2-3.8,1.4-5.9c-4.5-2.8-8.9-5.5-13.4-8.3
		c-2-1.2-4-2.5-5.9-3.7c-2.1-1.3-5.8,1.7-5,3.9c-1.6,1.8-2.4,4.1-4.2,5.7c-0.9,0.8-3.5,1.4-2.8,2.8c0.3,0.6,2.2,2.6,1.8,3.3
		c-0.6,1.1-2.7,2.1-2.9,3.2c-0.1,0.8-0.4,1.3-0.7,2.1c-0.3,0.8,0.4,1.5,0.4,2.3c-0.1,2.3-0.3,2.5,2,2.6c1.5,0.1,1.1,2.5,1.2,3.6
		c0.1,1-0.2,2.2,1,1.8c2-0.5,3.3,1,4.2,2.5c0.9,1.5,1.5,3.2,2.5,4.6c1.8,2.5-0.8,1.7-2.1,2.4c-1.6,1-2.9,2.3-4.5,3.3
		c-1.5,0.9-2.6,1-2.7,2.9c-0.1,1.7-2.2,1.7-3.5,2.1C131.9,252.8,130.4,253.1,128.9,254.3C129,254.4,129.6,253.8,128.9,254.3z"/>
	
		<path fill-rule="evenodd" clip-rule="evenodd" fill="#288585" stroke="#FFFFFF" stroke-width="1.3785" stroke-miterlimit="10" stroke-dasharray="2.757,5.514" d="
		M86.4,282.4c1.4-1.1,1-1.7,2.5-0.4c0.9,0.8,2.9,1.6,1.8,3c-1.4,1.7-2.6,2.5-2.5,4.8c0,0.9-1,1.1-1.5,1.6c-0.7,0.7-1.2,1.9-1.7,2.7
		c-1,1.6-2.8,2.5-3.2,4.3c-0.1,0.8-0.1,1.1,0.7,1.3c1.2,0.2,0.3,1.9,1.2,2c2.5,0.3,1.1-1.9,1.6-2.9c0.3-0.5,1.2,0.5,1.4,0.6
		c1,0.2,0.9-1.3,1.6-1.6c0.4-0.2,1.6,6.2,3.8,5.9c0.6-0.1-0.5-1.9-0.5-2.2c0-0.1,2.4-1,2.7-0.9c0.5,0.1,0.1,3.5,0.4,4.1
		c0.4,1.2,1.5,1.2,2.5,1.2c0.6,0,2.3-0.1,2.7,0.6c0.4,0.8,1.9,2.2,2.7,1.4c0.8-0.9,0.8-1,1.8-0.5c1.2,0.6-0.4,2.3,0.1,3.1
		c0.6,1,2.6,0.5,2.3-0.8c-0.4-1.3-0.9-1.9-1.7-3c-0.6-0.9,0.3-2.7-1-3.2c-1-0.4-1.9-0.2-2.8-0.8c-2.5-1.9-4.6-4.1-4.2-7.4
		c0.1-0.8-1-4.7,0.1-4.3c1.4,0.5,1.1,1.6,1,2.8c-0.1,1.4,0.3,2.1,0.6,3.5c0.1,0.5,1.1,1.6,1.4,2.1c0.6,0.7,1,1.4,1.7,2.1
		c1.7,1.6,4.9,1.7,2.6-1.3c-1.2-1.5-3.3-3.3-3.2-5.4c0-1.4,0.5-2.8,0.2-4.2c-0.2-1-0.9-1.5-0.1-2.6c1.3-1.7-0.3-4.6,0.5-6.6
		c0.5-1.4,1.2-0.7,2-1.5c0.4-0.4-1.1-2.9-1.2-3.6c-0.1-1.2-1.9-1.6-2.8-2.2c-0.2-0.1-1.2-0.7-0.7-1.1c1.5-1.1,1.6-1,3.1,0
		c2.4,1.5,0.4-2.4,1.5-2.7c0.6-0.2,1.2-0.3,1.7-0.7c0.8-0.6-0.7-1.3-0.8-1.9c0-0.8,2.4,1.3,2.4,1.2c1.3,1.1,1.1-1.7,1.7-2
		c0.3,0.2,0.4,0.4,0.5,0.7c0.2,0.7,0.7,0.1,1.1-0.1c0.4-0.2,2.8-0.8,2.7-1.4c-0.5-2.5-0.6-3.3,2-4.5c1.1-0.5,1.4,0.8,2.3,1.3
		c1,0.5,0.9,1.1,0.1,1.8c-1,0.8-1.9,1.5-2.9,2.3c-1.2,0.9,0.4,0.9,0.4,1.6c0,0-3.2-0.2-3.7,0.6c-0.5,0.9-1.1,1.8-1.6,2.8
		c-0.5,0.9-1.3,2.1-1.3,3.2c0,2,0.8,1.8,2.4,1.8c1.6,0-0.4,1.8-0.6,2.4c-0.2,0.5,0.7,0.8,0.3,1.4c-0.1,0.2-1.4,0.9-1.5,0.9
		c-0.5,0.1-2.2-0.9-2.1,0c0,1,1.6,1.3,2.4,1.3c0-0.1,0.1-0.7,0.3-0.7c-0.3-0.1,2.9,3.4,3.1,2.5c-0.2,0.7-4.1,2.1-0.9,2
		c2.4-0.1,0.2,0.9-0.8,1.2c-2.3,0.8,0.6,2.8,1.6,3.4c-0.8,1.6,0.5,1.8,1.6,1.2c1-0.6,1.7-1,1.5,0.5c-0.6,5.1-2.7-2.1-4.4,1.3
		c-0.6,1.3-0.9,2.2-2.2,3.1c-1,0.6-2.1,3.4-0.5,4c0.6,0.3,3.4,1,2,2.1c-0.6,0.4,2.9,1.6,2.8,1.7c0.1-0.5,2.1-4.1,2.3-3.8
		c0.2,0.3,0.5,2.3,1.4,1.3c0.5-0.5,0.9-1.6,1.6-1.9c-0.1,0-1.3,2.2-1.6,2.6c-0.2,0.3,0.1,1-0.4,1c-0.2,0-1.3,0.1-0.8,0.6
		c0.1,0.1,0.7-0.2,0.8-0.2c0.7-0.1,1,1,1.6,1.3c1.1,0.4-1.9,1.2-1.9,1.2c-0.4,1.4,4.7,1.2,4.2,2.6c-0.5,1.5-3.2,4.8,0.4,4.5
		c1.5-0.1,2.8,0.3,4.2,0c1.5-0.3,3.1-0.5,4.6-0.8c1.2-3.1,4-5.4,5.6-8.3c0.6-1.1,1.7-1.2,1.8-2.5c0.1-1.2,0-2.4-0.1-3.6L122,299
		l-1.5-41.9l-94.6,0l0,0h0l0,16.4c1.1,0.1,2.3-1.3,3.1-2c0.4-0.4,0.6-0.7,1.3-0.7c1.4,0,0.8-0.7,1.5-1.4c0.6-0.7,2.2-1.5,3-2.2
		c1.7-1.4,1.3-2.6,3.7-1.5c2.6,1.1,4.5-5.3,6.2-4.3c1,0.6,2.1,2,3.3,2c1.4,0.1,2.8-0.1,4.1-0.2c2.1-0.4,0.1-1.6,0.5-2
		c0.6-0.6,1.9-1.9,2.8-1.6c1.1,0.3,2.6,1.2,3.2-0.4c0.5-1.4,1-1.9,2.4-0.9c1,0.7,2,1.5,3.1,2.3c0.8,0.6,3.2-0.4,3.4,0.6
		c0.4,1.6,0.7,2.5,1.6,3.9c1.1,1.7,1.3,3,1.7,4.8c1.9,0.1,3.9,0.9,5.4,2c2.5,1.8,0.1,2.2,0.5,4.5c0.5,3,4.1,1.6,5.7,3.3
		c0.5,0.6,0.9,1.8,1.5,2.2C84.5,282.3,85.7,282.1,86.4,282.4C86.7,282.2,86.1,282.3,86.4,282.4z"/>
	
		<path fill-rule="evenodd" clip-rule="evenodd" fill="#288585" stroke="#FFFFFF" stroke-width="1.3785" stroke-miterlimit="10" stroke-dasharray="2.757,5.514" d="
		M137.2,299.2c0-0.2,0-0.3,0-0.3c0.3-0.5,2.4-4.7,0.9-4.7c-0.5,0-1.1,0.9-1.7,0.6c-0.5-0.3,0.2-2.4,0.3-2.9c0.2-0.7,0.3-1.5,0.9-2
		c1.2-1-1.1-2-1.8-2.4c-2-1.2-3-3.9-3.7-6c-0.6-2-1.7-2.9-1.8-5c0-1.3,0.4-4.3-0.6-5.4c-1.2-1.3-2.3-2.9-3.3-4.3
		c-0.4-0.5-0.8-1.1-1-1.7c-0.1-0.2,0.9-1.4,1-1.4c0.3-1.4,0.4-1.4-0.7-2.2c-1-0.7-0.5-1.5,0.2-2.2c1.5-1.6,2.2-2.1,2.9-4.3
		c0.7-2.1-2.4-2.6-3.9-2.4c-2.3,0.3-3.3,1.7-4.4,3.6L122,299L137.2,299.2z"/>
</g>
</svg>
